<?xml version="1.0" encoding="utf-8" standalone="no"?>
<!DOCTYPE svg PUBLIC "-//W3C//DTD SVG 1.1//EN"
  "http://www.w3.org/Graphics/SVG/1.1/DTD/svg11.dtd">
<svg xmlns:xlink="http://www.w3.org/1999/xlink" width="792pt" height="360pt" viewBox="0 0 792 360" xmlns="http://www.w3.org/2000/svg" version="1.1">
 <metadata>
  <rdf:RDF xmlns:dc="http://purl.org/dc/elements/1.1/" xmlns:cc="http://creativecommons.org/ns#" xmlns:rdf="http://www.w3.org/1999/02/22-rdf-syntax-ns#">
   <cc:Work>
    <dc:type rdf:resource="http://purl.org/dc/dcmitype/StillImage"/>
    <dc:date>2026-06-22T00:40:24.448806</dc:date>
    <dc:format>image/svg+xml</dc:format>
    <dc:creator>
     <cc:Agent>
      <dc:title>Matplotlib v3.11.0, https://matplotlib.org/</dc:title>
     </cc:Agent>
    </dc:creator>
   </cc:Work>
  </rdf:RDF>
 </metadata>
 <defs>
  <style type="text/css">*{stroke-linejoin: round; stroke-linecap: butt}</style>
 </defs>
 <g id="figure_1">
  <g id="patch_1">
   <path d="M 0 360 
L 792 360 
L 792 0 
L 0 0 
z
" style="fill: #ffffff"/>
  </g>
  <g id="axes_1">
   <g id="patch_2">
    <path d="M 81.16 296.277656 
L 781.2 296.277656 
L 781.2 10.8 
L 81.16 10.8 
z
" style="fill: #ffffff"/>
   </g>
   <g id="matplotlib.axis_1">
    <g id="xtick_1">
     <g id="line2d_1">
      <path d="M 132.233473 296.277656 
L 132.233473 10.8 
" clip-path="url(#pc32855dab5)" style="fill: none; stroke: #b0b0b0; stroke-opacity: 0.3; stroke-width: 0.5; stroke-linecap: square"/>
     </g>
     <g id="line2d_2">
      <defs>
       <path id="m0446504724" d="M 0 0 
L 0 3.5 
" style="stroke: #000000; stroke-width: 0.8"/>
      </defs>
      <g>
       <use xlink:href="#m0446504724" x="132.233473" y="296.277656" style="stroke: #000000; stroke-width: 0.8"/>
      </g>
     </g>
     <g id="text_1">
      <!-- 0 -->
      <g transform="translate(129.052223 310.875313) scale(0.1 -0.1)">
       <defs>
        <path id="DejaVuSans-13" d="M 2034 4250 
Q 1547 4250 1301 3770 
Q 1056 3291 1056 2328 
Q 1056 1369 1301 889 
Q 1547 409 2034 409 
Q 2525 409 2770 889 
Q 3016 1369 3016 2328 
Q 3016 3291 2770 3770 
Q 2525 4250 2034 4250 
z
M 2034 4750 
Q 2819 4750 3233 4129 
Q 3647 3509 3647 2328 
Q 3647 1150 3233 529 
Q 2819 -91 2034 -91 
Q 1250 -91 836 529 
Q 422 1150 422 2328 
Q 422 3509 836 4129 
Q 1250 4750 2034 4750 
z
" transform="scale(0.015625)"/>
       </defs>
       <use xlink:href="#DejaVuSans-13"/>
      </g>
     </g>
    </g>
    <g id="xtick_2">
     <g id="line2d_3">
      <path d="M 218.179628 296.277656 
L 218.179628 10.8 
" clip-path="url(#pc32855dab5)" style="fill: none; stroke: #b0b0b0; stroke-opacity: 0.3; stroke-width: 0.5; stroke-linecap: square"/>
     </g>
     <g id="line2d_4">
      <g>
       <use xlink:href="#m0446504724" x="218.179628" y="296.277656" style="stroke: #000000; stroke-width: 0.8"/>
      </g>
     </g>
     <g id="text_2">
      <!-- 20000 -->
      <g transform="translate(202.273378 310.875313) scale(0.1 -0.1)">
       <defs>
        <path id="DejaVuSans-15" d="M 1228 531 
L 3431 531 
L 3431 0 
L 469 0 
L 469 531 
Q 828 903 1448 1529 
Q 2069 2156 2228 2338 
Q 2531 2678 2651 2914 
Q 2772 3150 2772 3378 
Q 2772 3750 2511 3984 
Q 2250 4219 1831 4219 
Q 1534 4219 1204 4116 
Q 875 4013 500 3803 
L 500 4441 
Q 881 4594 1212 4672 
Q 1544 4750 1819 4750 
Q 2544 4750 2975 4387 
Q 3406 4025 3406 3419 
Q 3406 3131 3298 2873 
Q 3191 2616 2906 2266 
Q 2828 2175 2409 1742 
Q 1991 1309 1228 531 
z
" transform="scale(0.015625)"/>
       </defs>
       <use xlink:href="#DejaVuSans-15"/>
       <use xlink:href="#DejaVuSans-13" transform="translate(63.625 0)"/>
       <use xlink:href="#DejaVuSans-13" transform="translate(127.25 0)"/>
       <use xlink:href="#DejaVuSans-13" transform="translate(190.875 0)"/>
       <use xlink:href="#DejaVuSans-13" transform="translate(254.5 0)"/>
      </g>
     </g>
    </g>
    <g id="xtick_3">
     <g id="line2d_5">
      <path d="M 304.125783 296.277656 
L 304.125783 10.8 
" clip-path="url(#pc32855dab5)" style="fill: none; stroke: #b0b0b0; stroke-opacity: 0.3; stroke-width: 0.5; stroke-linecap: square"/>
     </g>
     <g id="line2d_6">
      <g>
       <use xlink:href="#m0446504724" x="304.125783" y="296.277656" style="stroke: #000000; stroke-width: 0.8"/>
      </g>
     </g>
     <g id="text_3">
      <!-- 40000 -->
      <g transform="translate(288.219533 310.875313) scale(0.1 -0.1)">
       <defs>
        <path id="DejaVuSans-17" d="M 2419 4116 
L 825 1625 
L 2419 1625 
L 2419 4116 
z
M 2253 4666 
L 3047 4666 
L 3047 1625 
L 3713 1625 
L 3713 1100 
L 3047 1100 
L 3047 0 
L 2419 0 
L 2419 1100 
L 313 1100 
L 313 1709 
L 2253 4666 
z
" transform="scale(0.015625)"/>
       </defs>
       <use xlink:href="#DejaVuSans-17"/>
       <use xlink:href="#DejaVuSans-13" transform="translate(63.625 0)"/>
       <use xlink:href="#DejaVuSans-13" transform="translate(127.25 0)"/>
       <use xlink:href="#DejaVuSans-13" transform="translate(190.875 0)"/>
       <use xlink:href="#DejaVuSans-13" transform="translate(254.5 0)"/>
      </g>
     </g>
    </g>
    <g id="xtick_4">
     <g id="line2d_7">
      <path d="M 390.071939 296.277656 
L 390.071939 10.8 
" clip-path="url(#pc32855dab5)" style="fill: none; stroke: #b0b0b0; stroke-opacity: 0.3; stroke-width: 0.5; stroke-linecap: square"/>
     </g>
     <g id="line2d_8">
      <g>
       <use xlink:href="#m0446504724" x="390.071939" y="296.277656" style="stroke: #000000; stroke-width: 0.8"/>
      </g>
     </g>
     <g id="text_4">
      <!-- 60000 -->
      <g transform="translate(374.165689 310.875313) scale(0.1 -0.1)">
       <defs>
        <path id="DejaVuSans-19" d="M 2113 2584 
Q 1688 2584 1439 2293 
Q 1191 2003 1191 1497 
Q 1191 994 1439 701 
Q 1688 409 2113 409 
Q 2538 409 2786 701 
Q 3034 994 3034 1497 
Q 3034 2003 2786 2293 
Q 2538 2584 2113 2584 
z
M 3366 4563 
L 3366 3988 
Q 3128 4100 2886 4159 
Q 2644 4219 2406 4219 
Q 1781 4219 1451 3797 
Q 1122 3375 1075 2522 
Q 1259 2794 1537 2939 
Q 1816 3084 2150 3084 
Q 2853 3084 3261 2657 
Q 3669 2231 3669 1497 
Q 3669 778 3244 343 
Q 2819 -91 2113 -91 
Q 1303 -91 875 529 
Q 447 1150 447 2328 
Q 447 3434 972 4092 
Q 1497 4750 2381 4750 
Q 2619 4750 2861 4703 
Q 3103 4656 3366 4563 
z
" transform="scale(0.015625)"/>
       </defs>
       <use xlink:href="#DejaVuSans-19"/>
       <use xlink:href="#DejaVuSans-13" transform="translate(63.625 0)"/>
       <use xlink:href="#DejaVuSans-13" transform="translate(127.25 0)"/>
       <use xlink:href="#DejaVuSans-13" transform="translate(190.875 0)"/>
       <use xlink:href="#DejaVuSans-13" transform="translate(254.5 0)"/>
      </g>
     </g>
    </g>
    <g id="xtick_5">
     <g id="line2d_9">
      <path d="M 476.018094 296.277656 
L 476.018094 10.8 
" clip-path="url(#pc32855dab5)" style="fill: none; stroke: #b0b0b0; stroke-opacity: 0.3; stroke-width: 0.5; stroke-linecap: square"/>
     </g>
     <g id="line2d_10">
      <g>
       <use xlink:href="#m0446504724" x="476.018094" y="296.277656" style="stroke: #000000; stroke-width: 0.8"/>
      </g>
     </g>
     <g id="text_5">
      <!-- 80000 -->
      <g transform="translate(460.111844 310.875313) scale(0.1 -0.1)">
       <defs>
        <path id="DejaVuSans-1b" d="M 2034 2216 
Q 1584 2216 1326 1975 
Q 1069 1734 1069 1313 
Q 1069 891 1326 650 
Q 1584 409 2034 409 
Q 2484 409 2743 651 
Q 3003 894 3003 1313 
Q 3003 1734 2745 1975 
Q 2488 2216 2034 2216 
z
M 1403 2484 
Q 997 2584 770 2862 
Q 544 3141 544 3541 
Q 544 4100 942 4425 
Q 1341 4750 2034 4750 
Q 2731 4750 3128 4425 
Q 3525 4100 3525 3541 
Q 3525 3141 3298 2862 
Q 3072 2584 2669 2484 
Q 3125 2378 3379 2068 
Q 3634 1759 3634 1313 
Q 3634 634 3220 271 
Q 2806 -91 2034 -91 
Q 1263 -91 848 271 
Q 434 634 434 1313 
Q 434 1759 690 2068 
Q 947 2378 1403 2484 
z
M 1172 3481 
Q 1172 3119 1398 2916 
Q 1625 2713 2034 2713 
Q 2441 2713 2670 2916 
Q 2900 3119 2900 3481 
Q 2900 3844 2670 4047 
Q 2441 4250 2034 4250 
Q 1625 4250 1398 4047 
Q 1172 3844 1172 3481 
z
" transform="scale(0.015625)"/>
       </defs>
       <use xlink:href="#DejaVuSans-1b"/>
       <use xlink:href="#DejaVuSans-13" transform="translate(63.625 0)"/>
       <use xlink:href="#DejaVuSans-13" transform="translate(127.25 0)"/>
       <use xlink:href="#DejaVuSans-13" transform="translate(190.875 0)"/>
       <use xlink:href="#DejaVuSans-13" transform="translate(254.5 0)"/>
      </g>
     </g>
    </g>
    <g id="xtick_6">
     <g id="line2d_11">
      <path d="M 561.96425 296.277656 
L 561.96425 10.8 
" clip-path="url(#pc32855dab5)" style="fill: none; stroke: #b0b0b0; stroke-opacity: 0.3; stroke-width: 0.5; stroke-linecap: square"/>
     </g>
     <g id="line2d_12">
      <g>
       <use xlink:href="#m0446504724" x="561.96425" y="296.277656" style="stroke: #000000; stroke-width: 0.8"/>
      </g>
     </g>
     <g id="text_6">
      <!-- 100000 -->
      <g transform="translate(542.87675 310.875313) scale(0.1 -0.1)">
       <defs>
        <path id="DejaVuSans-14" d="M 794 531 
L 1825 531 
L 1825 4091 
L 703 3866 
L 703 4441 
L 1819 4666 
L 2450 4666 
L 2450 531 
L 3481 531 
L 3481 0 
L 794 0 
L 794 531 
z
" transform="scale(0.015625)"/>
       </defs>
       <use xlink:href="#DejaVuSans-14"/>
       <use xlink:href="#DejaVuSans-13" transform="translate(63.625 0)"/>
       <use xlink:href="#DejaVuSans-13" transform="translate(127.25 0)"/>
       <use xlink:href="#DejaVuSans-13" transform="translate(190.875 0)"/>
       <use xlink:href="#DejaVuSans-13" transform="translate(254.5 0)"/>
       <use xlink:href="#DejaVuSans-13" transform="translate(318.125 0)"/>
      </g>
     </g>
    </g>
    <g id="xtick_7">
     <g id="line2d_13">
      <path d="M 647.910405 296.277656 
L 647.910405 10.8 
" clip-path="url(#pc32855dab5)" style="fill: none; stroke: #b0b0b0; stroke-opacity: 0.3; stroke-width: 0.5; stroke-linecap: square"/>
     </g>
     <g id="line2d_14">
      <g>
       <use xlink:href="#m0446504724" x="647.910405" y="296.277656" style="stroke: #000000; stroke-width: 0.8"/>
      </g>
     </g>
     <g id="text_7">
      <!-- 120000 -->
      <g transform="translate(628.822905 310.875313) scale(0.1 -0.1)">
       <use xlink:href="#DejaVuSans-14"/>
       <use xlink:href="#DejaVuSans-15" transform="translate(63.625 0)"/>
       <use xlink:href="#DejaVuSans-13" transform="translate(127.25 0)"/>
       <use xlink:href="#DejaVuSans-13" transform="translate(190.875 0)"/>
       <use xlink:href="#DejaVuSans-13" transform="translate(254.5 0)"/>
       <use xlink:href="#DejaVuSans-13" transform="translate(318.125 0)"/>
      </g>
     </g>
    </g>
    <g id="xtick_8">
     <g id="line2d_15">
      <path d="M 733.85656 296.277656 
L 733.85656 10.8 
" clip-path="url(#pc32855dab5)" style="fill: none; stroke: #b0b0b0; stroke-opacity: 0.3; stroke-width: 0.5; stroke-linecap: square"/>
     </g>
     <g id="line2d_16">
      <g>
       <use xlink:href="#m0446504724" x="733.85656" y="296.277656" style="stroke: #000000; stroke-width: 0.8"/>
      </g>
     </g>
     <g id="text_8">
      <!-- 140000 -->
      <g transform="translate(714.76906 310.875313) scale(0.1 -0.1)">
       <use xlink:href="#DejaVuSans-14"/>
       <use xlink:href="#DejaVuSans-17" transform="translate(63.625 0)"/>
       <use xlink:href="#DejaVuSans-13" transform="translate(127.25 0)"/>
       <use xlink:href="#DejaVuSans-13" transform="translate(190.875 0)"/>
       <use xlink:href="#DejaVuSans-13" transform="translate(254.5 0)"/>
       <use xlink:href="#DejaVuSans-13" transform="translate(318.125 0)"/>
      </g>
     </g>
    </g>
    <g id="text_9">
     <!-- Tempo (µs) -->
     <g transform="translate(403.518281 324.875313) scale(0.1 -0.1)">
      <defs>
       <path id="DejaVuSans-37" d="M -19 4666 
L 3928 4666 
L 3928 4134 
L 2272 4134 
L 2272 0 
L 1638 0 
L 1638 4134 
L -19 4134 
L -19 4666 
z
" transform="scale(0.015625)"/>
       <path id="DejaVuSans-48" d="M 3597 1894 
L 3597 1613 
L 953 1613 
Q 991 1019 1311 708 
Q 1631 397 2203 397 
Q 2534 397 2845 478 
Q 3156 559 3463 722 
L 3463 178 
Q 3153 47 2828 -22 
Q 2503 -91 2169 -91 
Q 1331 -91 842 396 
Q 353 884 353 1716 
Q 353 2575 817 3079 
Q 1281 3584 2069 3584 
Q 2775 3584 3186 3129 
Q 3597 2675 3597 1894 
z
M 3022 2063 
Q 3016 2534 2758 2815 
Q 2500 3097 2075 3097 
Q 1594 3097 1305 2825 
Q 1016 2553 972 2059 
L 3022 2063 
z
" transform="scale(0.015625)"/>
       <path id="DejaVuSans-50" d="M 3328 2828 
Q 3544 3216 3844 3400 
Q 4144 3584 4550 3584 
Q 5097 3584 5394 3201 
Q 5691 2819 5691 2113 
L 5691 0 
L 5113 0 
L 5113 2094 
Q 5113 2597 4934 2840 
Q 4756 3084 4391 3084 
Q 3944 3084 3684 2787 
Q 3425 2491 3425 1978 
L 3425 0 
L 2847 0 
L 2847 2094 
Q 2847 2600 2669 2842 
Q 2491 3084 2119 3084 
Q 1678 3084 1418 2786 
Q 1159 2488 1159 1978 
L 1159 0 
L 581 0 
L 581 3500 
L 1159 3500 
L 1159 2956 
Q 1356 3278 1631 3431 
Q 1906 3584 2284 3584 
Q 2666 3584 2933 3390 
Q 3200 3197 3328 2828 
z
" transform="scale(0.015625)"/>
       <path id="DejaVuSans-53" d="M 1159 525 
L 1159 -1331 
L 581 -1331 
L 581 3500 
L 1159 3500 
L 1159 2969 
Q 1341 3281 1617 3432 
Q 1894 3584 2278 3584 
Q 2916 3584 3314 3078 
Q 3713 2572 3713 1747 
Q 3713 922 3314 415 
Q 2916 -91 2278 -91 
Q 1894 -91 1617 61 
Q 1341 213 1159 525 
z
M 3116 1747 
Q 3116 2381 2855 2742 
Q 2594 3103 2138 3103 
Q 1681 3103 1420 2742 
Q 1159 2381 1159 1747 
Q 1159 1113 1420 752 
Q 1681 391 2138 391 
Q 2594 391 2855 752 
Q 3116 1113 3116 1747 
z
" transform="scale(0.015625)"/>
       <path id="DejaVuSans-52" d="M 1959 3097 
Q 1497 3097 1228 2736 
Q 959 2375 959 1747 
Q 959 1119 1226 758 
Q 1494 397 1959 397 
Q 2419 397 2687 759 
Q 2956 1122 2956 1747 
Q 2956 2369 2687 2733 
Q 2419 3097 1959 3097 
z
M 1959 3584 
Q 2709 3584 3137 3096 
Q 3566 2609 3566 1747 
Q 3566 888 3137 398 
Q 2709 -91 1959 -91 
Q 1206 -91 779 398 
Q 353 888 353 1747 
Q 353 2609 779 3096 
Q 1206 3584 1959 3584 
z
" transform="scale(0.015625)"/>
       <path id="DejaVuSans-3" transform="scale(0.015625)"/>
       <path id="DejaVuSans-b" d="M 1984 4856 
Q 1566 4138 1362 3434 
Q 1159 2731 1159 2009 
Q 1159 1288 1364 580 
Q 1569 -128 1984 -844 
L 1484 -844 
Q 1016 -109 783 600 
Q 550 1309 550 2009 
Q 550 2706 781 3412 
Q 1013 4119 1484 4856 
L 1984 4856 
z
" transform="scale(0.015625)"/>
       <path id="DejaVuSans-77" d="M 544 -1331 
L 544 3500 
L 1119 3500 
L 1119 1325 
Q 1119 872 1334 640 
Q 1550 409 1972 409 
Q 2434 409 2667 671 
Q 2900 934 2900 1459 
L 2900 3500 
L 3475 3500 
L 3475 806 
Q 3475 619 3529 530 
Q 3584 441 3700 441 
Q 3728 441 3778 458 
Q 3828 475 3916 513 
L 3916 50 
Q 3788 -22 3673 -56 
Q 3559 -91 3450 -91 
Q 3234 -91 3106 31 
Q 2978 153 2931 403 
Q 2775 156 2548 32 
Q 2322 -91 2016 -91 
Q 1697 -91 1473 31 
Q 1250 153 1119 397 
L 1119 -1331 
L 544 -1331 
z
" transform="scale(0.015625)"/>
       <path id="DejaVuSans-56" d="M 2834 3397 
L 2834 2853 
Q 2591 2978 2328 3040 
Q 2066 3103 1784 3103 
Q 1356 3103 1142 2972 
Q 928 2841 928 2578 
Q 928 2378 1081 2264 
Q 1234 2150 1697 2047 
L 1894 2003 
Q 2506 1872 2764 1633 
Q 3022 1394 3022 966 
Q 3022 478 2636 193 
Q 2250 -91 1575 -91 
Q 1294 -91 989 -36 
Q 684 19 347 128 
L 347 722 
Q 666 556 975 473 
Q 1284 391 1588 391 
Q 1994 391 2212 530 
Q 2431 669 2431 922 
Q 2431 1156 2273 1281 
Q 2116 1406 1581 1522 
L 1381 1569 
Q 847 1681 609 1914 
Q 372 2147 372 2553 
Q 372 3047 722 3315 
Q 1072 3584 1716 3584 
Q 2034 3584 2315 3537 
Q 2597 3491 2834 3397 
z
" transform="scale(0.015625)"/>
       <path id="DejaVuSans-c" d="M 513 4856 
L 1013 4856 
Q 1481 4119 1714 3412 
Q 1947 2706 1947 2009 
Q 1947 1309 1714 600 
Q 1481 -109 1013 -844 
L 513 -844 
Q 928 -128 1133 580 
Q 1338 1288 1338 2009 
Q 1338 2731 1133 3434 
Q 928 4138 513 4856 
z
" transform="scale(0.015625)"/>
      </defs>
      <use xlink:href="#DejaVuSans-37"/>
      <use xlink:href="#DejaVuSans-48" transform="translate(44.09375 0)"/>
      <use xlink:href="#DejaVuSans-50" transform="translate(105.625 0)"/>
      <use xlink:href="#DejaVuSans-53" transform="translate(203.03125 0)"/>
      <use xlink:href="#DejaVuSans-52" transform="translate(266.515625 0)"/>
      <use xlink:href="#DejaVuSans-3" transform="translate(327.703125 0)"/>
      <use xlink:href="#DejaVuSans-b" transform="translate(359.484375 0)"/>
      <use xlink:href="#DejaVuSans-77" transform="translate(398.5 0)"/>
      <use xlink:href="#DejaVuSans-56" transform="translate(462.125 0)"/>
      <use xlink:href="#DejaVuSans-c" transform="translate(514.21875 0)"/>
     </g>
    </g>
   </g>
   <g id="matplotlib.axis_2">
    <g id="ytick_1">
     <g id="line2d_17">
      <defs>
       <path id="mcefac4ce5b" d="M 0 0 
L -3.5 0 
" style="stroke: #000000; stroke-width: 0.8"/>
      </defs>
      <g>
       <use xlink:href="#mcefac4ce5b" x="81.16" y="242.036902" style="stroke: #000000; stroke-width: 0.8"/>
      </g>
     </g>
     <g id="text_10">
      <!-- STEP J4 -->
      <g transform="translate(36.864688 245.83573) scale(0.1 -0.1)">
       <defs>
        <path id="DejaVuSans-36" d="M 3425 4513 
L 3425 3897 
Q 3066 4069 2747 4153 
Q 2428 4238 2131 4238 
Q 1616 4238 1336 4038 
Q 1056 3838 1056 3469 
Q 1056 3159 1242 3001 
Q 1428 2844 1947 2747 
L 2328 2669 
Q 3034 2534 3370 2195 
Q 3706 1856 3706 1288 
Q 3706 609 3251 259 
Q 2797 -91 1919 -91 
Q 1588 -91 1214 -16 
Q 841 59 441 206 
L 441 856 
Q 825 641 1194 531 
Q 1563 422 1919 422 
Q 2459 422 2753 634 
Q 3047 847 3047 1241 
Q 3047 1584 2836 1778 
Q 2625 1972 2144 2069 
L 1759 2144 
Q 1053 2284 737 2584 
Q 422 2884 422 3419 
Q 422 4038 858 4394 
Q 1294 4750 2059 4750 
Q 2388 4750 2728 4690 
Q 3069 4631 3425 4513 
z
" transform="scale(0.015625)"/>
        <path id="DejaVuSans-28" d="M 628 4666 
L 3578 4666 
L 3578 4134 
L 1259 4134 
L 1259 2753 
L 3481 2753 
L 3481 2222 
L 1259 2222 
L 1259 531 
L 3634 531 
L 3634 0 
L 628 0 
L 628 4666 
z
" transform="scale(0.015625)"/>
        <path id="DejaVuSans-33" d="M 1259 4147 
L 1259 2394 
L 2053 2394 
Q 2494 2394 2734 2622 
Q 2975 2850 2975 3272 
Q 2975 3691 2734 3919 
Q 2494 4147 2053 4147 
L 1259 4147 
z
M 628 4666 
L 2053 4666 
Q 2838 4666 3239 4311 
Q 3641 3956 3641 3272 
Q 3641 2581 3239 2228 
Q 2838 1875 2053 1875 
L 1259 1875 
L 1259 0 
L 628 0 
L 628 4666 
z
" transform="scale(0.015625)"/>
        <path id="DejaVuSans-2d" d="M 628 4666 
L 1259 4666 
L 1259 325 
Q 1259 -519 939 -900 
Q 619 -1281 -91 -1281 
L -331 -1281 
L -331 -750 
L -134 -750 
Q 284 -750 456 -515 
Q 628 -281 628 325 
L 628 4666 
z
" transform="scale(0.015625)"/>
       </defs>
       <use xlink:href="#DejaVuSans-36"/>
       <use xlink:href="#DejaVuSans-37" transform="translate(63.484375 0)"/>
       <use xlink:href="#DejaVuSans-28" transform="translate(124.5625 0)"/>
       <use xlink:href="#DejaVuSans-33" transform="translate(187.75 0)"/>
       <use xlink:href="#DejaVuSans-3" transform="translate(248.046875 0)"/>
       <use xlink:href="#DejaVuSans-2d" transform="translate(279.828125 0)"/>
       <use xlink:href="#DejaVuSans-17" transform="translate(309.328125 0)"/>
      </g>
     </g>
    </g>
    <g id="ytick_2">
     <g id="line2d_18">
      <g>
       <use xlink:href="#mcefac4ce5b" x="81.16" y="184.94137" style="stroke: #000000; stroke-width: 0.8"/>
      </g>
     </g>
     <g id="text_11">
      <!-- D9 TRIGGER -->
      <g transform="translate(12.149063 188.740198) scale(0.1 -0.1)">
       <defs>
        <path id="DejaVuSans-27" d="M 1259 4147 
L 1259 519 
L 2022 519 
Q 2988 519 3436 956 
Q 3884 1394 3884 2338 
Q 3884 3275 3436 3711 
Q 2988 4147 2022 4147 
L 1259 4147 
z
M 628 4666 
L 1925 4666 
Q 3281 4666 3915 4102 
Q 4550 3538 4550 2338 
Q 4550 1131 3912 565 
Q 3275 0 1925 0 
L 628 0 
L 628 4666 
z
" transform="scale(0.015625)"/>
        <path id="DejaVuSans-1c" d="M 703 97 
L 703 672 
Q 941 559 1184 500 
Q 1428 441 1663 441 
Q 2288 441 2617 861 
Q 2947 1281 2994 2138 
Q 2813 1869 2534 1725 
Q 2256 1581 1919 1581 
Q 1219 1581 811 2004 
Q 403 2428 403 3163 
Q 403 3881 828 4315 
Q 1253 4750 1959 4750 
Q 2769 4750 3195 4129 
Q 3622 3509 3622 2328 
Q 3622 1225 3098 567 
Q 2575 -91 1691 -91 
Q 1453 -91 1209 -44 
Q 966 3 703 97 
z
M 1959 2075 
Q 2384 2075 2632 2365 
Q 2881 2656 2881 3163 
Q 2881 3666 2632 3958 
Q 2384 4250 1959 4250 
Q 1534 4250 1286 3958 
Q 1038 3666 1038 3163 
Q 1038 2656 1286 2365 
Q 1534 2075 1959 2075 
z
" transform="scale(0.015625)"/>
        <path id="DejaVuSans-35" d="M 2841 2188 
Q 3044 2119 3236 1894 
Q 3428 1669 3622 1275 
L 4263 0 
L 3584 0 
L 2988 1197 
Q 2756 1666 2539 1819 
Q 2322 1972 1947 1972 
L 1259 1972 
L 1259 0 
L 628 0 
L 628 4666 
L 2053 4666 
Q 2853 4666 3247 4331 
Q 3641 3997 3641 3322 
Q 3641 2881 3436 2590 
Q 3231 2300 2841 2188 
z
M 1259 4147 
L 1259 2491 
L 2053 2491 
Q 2509 2491 2742 2702 
Q 2975 2913 2975 3322 
Q 2975 3731 2742 3939 
Q 2509 4147 2053 4147 
L 1259 4147 
z
" transform="scale(0.015625)"/>
        <path id="DejaVuSans-2c" d="M 628 4666 
L 1259 4666 
L 1259 0 
L 628 0 
L 628 4666 
z
" transform="scale(0.015625)"/>
        <path id="DejaVuSans-2a" d="M 3809 666 
L 3809 1919 
L 2778 1919 
L 2778 2438 
L 4434 2438 
L 4434 434 
Q 4069 175 3628 42 
Q 3188 -91 2688 -91 
Q 1594 -91 976 548 
Q 359 1188 359 2328 
Q 359 3472 976 4111 
Q 1594 4750 2688 4750 
Q 3144 4750 3555 4637 
Q 3966 4525 4313 4306 
L 4313 3634 
Q 3963 3931 3569 4081 
Q 3175 4231 2741 4231 
Q 1884 4231 1454 3753 
Q 1025 3275 1025 2328 
Q 1025 1384 1454 906 
Q 1884 428 2741 428 
Q 3075 428 3337 486 
Q 3600 544 3809 666 
z
" transform="scale(0.015625)"/>
       </defs>
       <use xlink:href="#DejaVuSans-27"/>
       <use xlink:href="#DejaVuSans-1c" transform="translate(77 0)"/>
       <use xlink:href="#DejaVuSans-3" transform="translate(140.625 0)"/>
       <use xlink:href="#DejaVuSans-37" transform="translate(172.40625 0)"/>
       <use xlink:href="#DejaVuSans-35" transform="translate(233.484375 0)"/>
       <use xlink:href="#DejaVuSans-2c" transform="translate(302.96875 0)"/>
       <use xlink:href="#DejaVuSans-2a" transform="translate(332.46875 0)"/>
       <use xlink:href="#DejaVuSans-2a" transform="translate(409.953125 0)"/>
       <use xlink:href="#DejaVuSans-28" transform="translate(487.4375 0)"/>
       <use xlink:href="#DejaVuSans-35" transform="translate(550.625 0)"/>
      </g>
     </g>
    </g>
    <g id="ytick_3">
     <g id="line2d_19">
      <g>
       <use xlink:href="#mcefac4ce5b" x="81.16" y="127.845839" style="stroke: #000000; stroke-width: 0.8"/>
      </g>
     </g>
     <g id="text_12">
      <!-- UART RX -->
      <g transform="translate(30.695938 131.644667) scale(0.1 -0.1)">
       <defs>
        <path id="DejaVuSans-38" d="M 556 4666 
L 1191 4666 
L 1191 1831 
Q 1191 1081 1462 751 
Q 1734 422 2344 422 
Q 2950 422 3222 751 
Q 3494 1081 3494 1831 
L 3494 4666 
L 4128 4666 
L 4128 1753 
Q 4128 841 3676 375 
Q 3225 -91 2344 -91 
Q 1459 -91 1007 375 
Q 556 841 556 1753 
L 556 4666 
z
" transform="scale(0.015625)"/>
        <path id="DejaVuSans-24" d="M 2188 4044 
L 1331 1722 
L 3047 1722 
L 2188 4044 
z
M 1831 4666 
L 2547 4666 
L 4325 0 
L 3669 0 
L 3244 1197 
L 1141 1197 
L 716 0 
L 50 0 
L 1831 4666 
z
" transform="scale(0.015625)"/>
        <path id="DejaVuSans-3b" d="M 403 4666 
L 1081 4666 
L 2241 2931 
L 3406 4666 
L 4084 4666 
L 2584 2425 
L 4184 0 
L 3506 0 
L 2194 1984 
L 872 0 
L 191 0 
L 1856 2491 
L 403 4666 
z
" transform="scale(0.015625)"/>
       </defs>
       <use xlink:href="#DejaVuSans-38"/>
       <use xlink:href="#DejaVuSans-24" transform="translate(73.1875 0)"/>
       <use xlink:href="#DejaVuSans-35" transform="translate(141.59375 0)"/>
       <use xlink:href="#DejaVuSans-37" transform="translate(203.796875 0)"/>
       <use xlink:href="#DejaVuSans-3" transform="translate(264.875 0)"/>
       <use xlink:href="#DejaVuSans-35" transform="translate(296.65625 0)"/>
       <use xlink:href="#DejaVuSans-3b" transform="translate(366.140625 0)"/>
      </g>
     </g>
    </g>
    <g id="ytick_4">
     <g id="line2d_20">
      <g>
       <use xlink:href="#mcefac4ce5b" x="81.16" y="70.750308" style="stroke: #000000; stroke-width: 0.8"/>
      </g>
     </g>
     <g id="text_13">
      <!-- UART TX -->
      <g transform="translate(31.536563 74.549136) scale(0.1 -0.1)">
       <use xlink:href="#DejaVuSans-38"/>
       <use xlink:href="#DejaVuSans-24" transform="translate(73.1875 0)"/>
       <use xlink:href="#DejaVuSans-35" transform="translate(141.59375 0)"/>
       <use xlink:href="#DejaVuSans-37" transform="translate(203.796875 0)"/>
       <use xlink:href="#DejaVuSans-3" transform="translate(264.875 0)"/>
       <use xlink:href="#DejaVuSans-37" transform="translate(296.65625 0)"/>
       <use xlink:href="#DejaVuSans-3b" transform="translate(357.734375 0)"/>
      </g>
     </g>
    </g>
   </g>
   <g id="line2d_21">
    <path d="M 81.16 50.766872 
L 85.457308 50.766872 
L 85.457308 90.733744 
L 89.187607 90.733744 
L 89.187607 50.766872 
L 781.2 50.766872 
" clip-path="url(#pc32855dab5)" style="fill: none; stroke: #1d4ed8; stroke-width: 1.4; stroke-linecap: square"/>
   </g>
   <g id="line2d_22">
    <path d="M 81.16 107.862403 
L 133.603996 107.862403 
L 133.603996 147.829275 
L 133.977026 147.829275 
L 133.977026 107.862403 
L 781.2 107.862403 
" clip-path="url(#pc32855dab5)" style="fill: none; stroke: #0f766e; stroke-width: 1.4; stroke-linecap: square"/>
   </g>
   <g id="line2d_23">
    <path d="M 81.16 164.957934 
L 132.233473 164.957934 
L 132.233473 204.924806 
L 132.319419 204.924806 
L 132.319419 164.957934 
L 781.2 164.957934 
" clip-path="url(#pc32855dab5)" style="fill: none; stroke: #b45309; stroke-width: 1.4; stroke-linecap: square"/>
   </g>
   <g id="line2d_24">
    <path d="M 81.16 262.020337 
L 175.279338 262.020337 
L 175.279338 222.053466 
L 175.279875 222.053466 
L 175.279875 262.020337 
L 218.252416 262.020337 
L 218.252416 222.053466 
L 218.252953 222.053466 
L 218.252953 262.020337 
L 261.225494 262.020337 
L 261.225494 222.053466 
L 261.226031 222.053466 
L 261.226031 262.020337 
L 304.198838 262.020337 
L 304.198838 222.053466 
L 304.199375 222.053466 
L 304.199375 262.020337 
L 347.174601 262.020337 
L 347.174601 222.053466 
L 347.175138 222.053466 
L 347.175138 262.020337 
L 390.144993 262.020337 
L 390.144993 222.053466 
L 390.14553 222.053466 
L 390.14553 262.020337 
L 433.117804 262.020337 
L 433.117804 222.053466 
L 433.118341 222.053466 
L 433.118341 262.020337 
L 476.092223 262.020337 
L 476.092223 222.053466 
L 476.09276 222.053466 
L 476.09276 262.020337 
L 519.064763 262.020337 
L 519.064763 222.053466 
L 519.0653 222.053466 
L 519.0653 262.020337 
L 562.037575 262.020337 
L 562.037575 222.053466 
L 562.038112 222.053466 
L 562.038112 262.020337 
L 605.011189 262.020337 
L 605.011189 222.053466 
L 605.011727 222.053466 
L 605.011727 262.020337 
L 647.983193 262.020337 
L 647.983193 222.053466 
L 647.98373 222.053466 
L 647.98373 262.020337 
L 690.95627 262.020337 
L 690.95627 222.053466 
L 690.956808 222.053466 
L 690.956808 262.020337 
L 733.929615 262.020337 
L 733.929615 222.053466 
L 733.930152 222.053466 
L 733.930152 262.020337 
L 776.902692 262.020337 
L 776.902692 222.053466 
L 776.903229 222.053466 
L 776.903229 262.020337 
L 781.2 262.020337 
" clip-path="url(#pc32855dab5)" style="fill: none; stroke: #be123c; stroke-width: 1.4; stroke-linecap: square"/>
   </g>
   <g id="patch_3">
    <path d="M 81.16 296.277656 
L 81.16 10.8 
" style="fill: none; stroke: #000000; stroke-width: 0.8; stroke-linejoin: miter; stroke-linecap: square"/>
   </g>
   <g id="patch_4">
    <path d="M 81.16 296.277656 
L 781.2 296.277656 
" style="fill: none; stroke: #000000; stroke-width: 0.8; stroke-linejoin: miter; stroke-linecap: square"/>
   </g>
   <g id="patch_5">
    <path d="M 88.798885 40.489676 
Q 88.322425 40.489676 87.845966 40.489676 
" style="fill: none; stroke: #1d4ed8; stroke-width: 1.2; stroke-linecap: round"/>
    <path d="M 92.798885 42.489676 
L 88.798885 40.489676 
L 92.798885 38.489676 
" style="fill: none; stroke: #1d4ed8; stroke-width: 1.2; stroke-linecap: round"/>
    <path d="M 83.845966 38.489676 
L 87.845966 40.489676 
L 83.845966 42.489676 
" style="fill: none; stroke: #1d4ed8; stroke-width: 1.2; stroke-linecap: round"/>
   </g>
   <g id="text_14">
    <!-- T1 = 868 µs -->
    <g style="fill: #1d4ed8" transform="translate(62.904958 34.000159) scale(0.08 -0.08)">
     <defs>
      <path id="DejaVuSans-20" d="M 678 2906 
L 4684 2906 
L 4684 2381 
L 678 2381 
L 678 2906 
z
M 678 1631 
L 4684 1631 
L 4684 1100 
L 678 1100 
L 678 1631 
z
" transform="scale(0.015625)"/>
     </defs>
     <use xlink:href="#DejaVuSans-37"/>
     <use xlink:href="#DejaVuSans-14" transform="translate(61.078125 0)"/>
     <use xlink:href="#DejaVuSans-3" transform="translate(124.703125 0)"/>
     <use xlink:href="#DejaVuSans-20" transform="translate(156.484375 0)"/>
     <use xlink:href="#DejaVuSans-3" transform="translate(240.28125 0)"/>
     <use xlink:href="#DejaVuSans-1b" transform="translate(272.0625 0)"/>
     <use xlink:href="#DejaVuSans-19" transform="translate(335.6875 0)"/>
     <use xlink:href="#DejaVuSans-1b" transform="translate(399.3125 0)"/>
     <use xlink:href="#DejaVuSans-3" transform="translate(462.9375 0)"/>
     <use xlink:href="#DejaVuSans-77" transform="translate(494.71875 0)"/>
     <use xlink:href="#DejaVuSans-56" transform="translate(558.34375 0)"/>
    </g>
   </g>
   <g id="patch_6">
    <path d="M 135.574497 207.779583 
Q 153.755239 207.779583 171.93598 207.779583 
" style="fill: none; stroke: #374151; stroke-width: 1.2; stroke-linecap: round"/>
    <path d="M 139.574497 209.779583 
L 135.574497 207.779583 
L 139.574497 205.779583 
" style="fill: none; stroke: #374151; stroke-width: 1.2; stroke-linecap: round"/>
    <path d="M 167.93598 205.779583 
L 171.93598 207.779583 
L 167.93598 209.779583 
" style="fill: none; stroke: #374151; stroke-width: 1.2; stroke-linecap: round"/>
   </g>
   <g id="text_15">
    <!-- T3 = 10,0 ms -->
    <g style="fill: #374151" transform="translate(126.716405 203.002931) scale(0.08 -0.08)">
     <defs>
      <path id="DejaVuSans-16" d="M 2597 2516 
Q 3050 2419 3304 2112 
Q 3559 1806 3559 1356 
Q 3559 666 3084 287 
Q 2609 -91 1734 -91 
Q 1441 -91 1130 -33 
Q 819 25 488 141 
L 488 750 
Q 750 597 1062 519 
Q 1375 441 1716 441 
Q 2309 441 2620 675 
Q 2931 909 2931 1356 
Q 2931 1769 2642 2001 
Q 2353 2234 1838 2234 
L 1294 2234 
L 1294 2753 
L 1863 2753 
Q 2328 2753 2575 2939 
Q 2822 3125 2822 3475 
Q 2822 3834 2567 4026 
Q 2313 4219 1838 4219 
Q 1578 4219 1281 4162 
Q 984 4106 628 3988 
L 628 4550 
Q 988 4650 1302 4700 
Q 1616 4750 1894 4750 
Q 2613 4750 3031 4423 
Q 3450 4097 3450 3541 
Q 3450 3153 3228 2886 
Q 3006 2619 2597 2516 
z
" transform="scale(0.015625)"/>
      <path id="DejaVuSans-f" d="M 750 794 
L 1409 794 
L 1409 256 
L 897 -744 
L 494 -744 
L 750 256 
L 750 794 
z
" transform="scale(0.015625)"/>
     </defs>
     <use xlink:href="#DejaVuSans-37"/>
     <use xlink:href="#DejaVuSans-16" transform="translate(61.078125 0)"/>
     <use xlink:href="#DejaVuSans-3" transform="translate(124.703125 0)"/>
     <use xlink:href="#DejaVuSans-20" transform="translate(156.484375 0)"/>
     <use xlink:href="#DejaVuSans-3" transform="translate(240.28125 0)"/>
     <use xlink:href="#DejaVuSans-14" transform="translate(272.0625 0)"/>
     <use xlink:href="#DejaVuSans-13" transform="translate(335.6875 0)"/>
     <use xlink:href="#DejaVuSans-f" transform="translate(399.3125 0)"/>
     <use xlink:href="#DejaVuSans-13" transform="translate(431.09375 0)"/>
     <use xlink:href="#DejaVuSans-3" transform="translate(494.71875 0)"/>
     <use xlink:href="#DejaVuSans-50" transform="translate(526.5 0)"/>
     <use xlink:href="#DejaVuSans-56" transform="translate(623.90625 0)"/>
    </g>
   </g>
   <g id="patch_7">
    <path d="M 178.398621 274.581354 
Q 196.767463 274.581354 215.136305 274.581354 
" style="fill: none; stroke: #be123c; stroke-linecap: round"/>
    <path d="M 182.398621 276.581354 
L 178.398621 274.581354 
L 182.398621 272.581354 
" style="fill: none; stroke: #be123c; stroke-linecap: round"/>
    <path d="M 211.136305 272.581354 
L 215.136305 274.581354 
L 211.136305 276.581354 
" style="fill: none; stroke: #be123c; stroke-linecap: round"/>
   </g>
   <g id="text_16">
    <!-- J_start = 645 ns -->
    <g style="fill: #be123c" transform="translate(164.850877 284.085211) scale(0.08 -0.08)">
     <defs>
      <path id="DejaVuSans-42" d="M 3263 -1063 
L 3263 -1509 
L -63 -1509 
L -63 -1063 
L 3263 -1063 
z
" transform="scale(0.015625)"/>
      <path id="DejaVuSans-57" d="M 1172 4494 
L 1172 3500 
L 2356 3500 
L 2356 3053 
L 1172 3053 
L 1172 1153 
Q 1172 725 1289 603 
Q 1406 481 1766 481 
L 2356 481 
L 2356 0 
L 1766 0 
Q 1100 0 847 248 
Q 594 497 594 1153 
L 594 3053 
L 172 3053 
L 172 3500 
L 594 3500 
L 594 4494 
L 1172 4494 
z
" transform="scale(0.015625)"/>
      <path id="DejaVuSans-44" d="M 2194 1759 
Q 1497 1759 1228 1600 
Q 959 1441 959 1056 
Q 959 750 1161 570 
Q 1363 391 1709 391 
Q 2188 391 2477 730 
Q 2766 1069 2766 1631 
L 2766 1759 
L 2194 1759 
z
M 3341 1997 
L 3341 0 
L 2766 0 
L 2766 531 
Q 2569 213 2275 61 
Q 1981 -91 1556 -91 
Q 1019 -91 701 211 
Q 384 513 384 1019 
Q 384 1609 779 1909 
Q 1175 2209 1959 2209 
L 2766 2209 
L 2766 2266 
Q 2766 2663 2505 2880 
Q 2244 3097 1772 3097 
Q 1472 3097 1187 3025 
Q 903 2953 641 2809 
L 641 3341 
Q 956 3463 1253 3523 
Q 1550 3584 1831 3584 
Q 2591 3584 2966 3190 
Q 3341 2797 3341 1997 
z
" transform="scale(0.015625)"/>
      <path id="DejaVuSans-55" d="M 2631 2963 
Q 2534 3019 2420 3045 
Q 2306 3072 2169 3072 
Q 1681 3072 1420 2755 
Q 1159 2438 1159 1844 
L 1159 0 
L 581 0 
L 581 3500 
L 1159 3500 
L 1159 2956 
Q 1341 3275 1631 3429 
Q 1922 3584 2338 3584 
Q 2397 3584 2469 3576 
Q 2541 3569 2628 3553 
L 2631 2963 
z
" transform="scale(0.015625)"/>
      <path id="DejaVuSans-18" d="M 691 4666 
L 3169 4666 
L 3169 4134 
L 1269 4134 
L 1269 2991 
Q 1406 3038 1543 3061 
Q 1681 3084 1819 3084 
Q 2600 3084 3056 2656 
Q 3513 2228 3513 1497 
Q 3513 744 3044 326 
Q 2575 -91 1722 -91 
Q 1428 -91 1123 -41 
Q 819 9 494 109 
L 494 744 
Q 775 591 1075 516 
Q 1375 441 1709 441 
Q 2250 441 2565 725 
Q 2881 1009 2881 1497 
Q 2881 1984 2565 2268 
Q 2250 2553 1709 2553 
Q 1456 2553 1204 2497 
Q 953 2441 691 2322 
L 691 4666 
z
" transform="scale(0.015625)"/>
      <path id="DejaVuSans-51" d="M 3513 2113 
L 3513 0 
L 2938 0 
L 2938 2094 
Q 2938 2591 2744 2837 
Q 2550 3084 2163 3084 
Q 1697 3084 1428 2787 
Q 1159 2491 1159 1978 
L 1159 0 
L 581 0 
L 581 3500 
L 1159 3500 
L 1159 2956 
Q 1366 3272 1645 3428 
Q 1925 3584 2291 3584 
Q 2894 3584 3203 3211 
Q 3513 2838 3513 2113 
z
" transform="scale(0.015625)"/>
     </defs>
     <use xlink:href="#DejaVuSans-2d"/>
     <use xlink:href="#DejaVuSans-42" transform="translate(29.5 0)"/>
     <use xlink:href="#DejaVuSans-56" transform="translate(79.5 0)"/>
     <use xlink:href="#DejaVuSans-57" transform="translate(131.59375 0)"/>
     <use xlink:href="#DejaVuSans-44" transform="translate(170.796875 0)"/>
     <use xlink:href="#DejaVuSans-55" transform="translate(232.078125 0)"/>
     <use xlink:href="#DejaVuSans-57" transform="translate(273.1875 0)"/>
     <use xlink:href="#DejaVuSans-3" transform="translate(312.390625 0)"/>
     <use xlink:href="#DejaVuSans-20" transform="translate(344.171875 0)"/>
     <use xlink:href="#DejaVuSans-3" transform="translate(427.96875 0)"/>
     <use xlink:href="#DejaVuSans-19" transform="translate(459.75 0)"/>
     <use xlink:href="#DejaVuSans-17" transform="translate(523.375 0)"/>
     <use xlink:href="#DejaVuSans-18" transform="translate(587 0)"/>
     <use xlink:href="#DejaVuSans-3" transform="translate(650.625 0)"/>
     <use xlink:href="#DejaVuSans-51" transform="translate(682.40625 0)"/>
     <use xlink:href="#DejaVuSans-56" transform="translate(745.78125 0)"/>
    </g>
   </g>
  </g>
  <g id="text_17">
   <!-- Canais UART TX e RX reconstituídos dos parâmetros do protocolo (T1=868µs@115200bps, T2_mean=11,2ms). -->
   <g style="fill: #555555" transform="translate(229.044844 348.85418) scale(0.06 -0.06)">
    <defs>
     <path id="DejaVuSans-26" d="M 4122 4306 
L 4122 3641 
Q 3803 3938 3442 4084 
Q 3081 4231 2675 4231 
Q 1875 4231 1450 3742 
Q 1025 3253 1025 2328 
Q 1025 1406 1450 917 
Q 1875 428 2675 428 
Q 3081 428 3442 575 
Q 3803 722 4122 1019 
L 4122 359 
Q 3791 134 3420 21 
Q 3050 -91 2638 -91 
Q 1578 -91 968 557 
Q 359 1206 359 2328 
Q 359 3453 968 4101 
Q 1578 4750 2638 4750 
Q 3056 4750 3426 4639 
Q 3797 4528 4122 4306 
z
" transform="scale(0.015625)"/>
     <path id="DejaVuSans-4c" d="M 603 3500 
L 1178 3500 
L 1178 0 
L 603 0 
L 603 3500 
z
M 603 4863 
L 1178 4863 
L 1178 4134 
L 603 4134 
L 603 4863 
z
" transform="scale(0.015625)"/>
     <path id="DejaVuSans-46" d="M 3122 3366 
L 3122 2828 
Q 2878 2963 2633 3030 
Q 2388 3097 2138 3097 
Q 1578 3097 1268 2742 
Q 959 2388 959 1747 
Q 959 1106 1268 751 
Q 1578 397 2138 397 
Q 2388 397 2633 464 
Q 2878 531 3122 666 
L 3122 134 
Q 2881 22 2623 -34 
Q 2366 -91 2075 -91 
Q 1284 -91 818 406 
Q 353 903 353 1747 
Q 353 2603 823 3093 
Q 1294 3584 2113 3584 
Q 2378 3584 2631 3529 
Q 2884 3475 3122 3366 
z
" transform="scale(0.015625)"/>
     <path id="DejaVuSans-58" d="M 544 1381 
L 544 3500 
L 1119 3500 
L 1119 1403 
Q 1119 906 1312 657 
Q 1506 409 1894 409 
Q 2359 409 2629 706 
Q 2900 1003 2900 1516 
L 2900 3500 
L 3475 3500 
L 3475 0 
L 2900 0 
L 2900 538 
Q 2691 219 2414 64 
Q 2138 -91 1772 -91 
Q 1169 -91 856 284 
Q 544 659 544 1381 
z
M 1991 3584 
L 1991 3584 
z
" transform="scale(0.015625)"/>
     <path id="DejaVuSans-af" d="M 1325 5119 
L 1947 5119 
L 929 3944 
L 450 3944 
L 1325 5119 
z
M 603 3500 
L 1178 3500 
L 1178 0 
L 603 0 
L 603 3500 
z
M 891 3584 
L 891 3584 
z
" transform="scale(0.015625)"/>
     <path id="DejaVuSans-47" d="M 2906 2969 
L 2906 4863 
L 3481 4863 
L 3481 0 
L 2906 0 
L 2906 525 
Q 2725 213 2448 61 
Q 2172 -91 1784 -91 
Q 1150 -91 751 415 
Q 353 922 353 1747 
Q 353 2572 751 3078 
Q 1150 3584 1784 3584 
Q 2172 3584 2448 3432 
Q 2725 3281 2906 2969 
z
M 947 1747 
Q 947 1113 1208 752 
Q 1469 391 1925 391 
Q 2381 391 2643 752 
Q 2906 1113 2906 1747 
Q 2906 2381 2643 2742 
Q 2381 3103 1925 3103 
Q 1469 3103 1208 2742 
Q 947 2381 947 1747 
z
" transform="scale(0.015625)"/>
     <path id="DejaVuSans-a4" d="M 2194 1759 
Q 1497 1759 1228 1600 
Q 959 1441 959 1056 
Q 959 750 1161 570 
Q 1363 391 1709 391 
Q 2188 391 2477 730 
Q 2766 1069 2766 1631 
L 2766 1759 
L 2194 1759 
z
M 3341 1997 
L 3341 0 
L 2766 0 
L 2766 531 
Q 2569 213 2275 61 
Q 1981 -91 1556 -91 
Q 1019 -91 701 211 
Q 384 513 384 1019 
Q 384 1609 779 1909 
Q 1175 2209 1959 2209 
L 2766 2209 
L 2766 2266 
Q 2766 2663 2505 2880 
Q 2244 3097 1772 3097 
Q 1472 3097 1187 3025 
Q 903 2953 641 2809 
L 641 3341 
Q 956 3463 1253 3523 
Q 1550 3584 1831 3584 
Q 2591 3584 2966 3190 
Q 3341 2797 3341 1997 
z
M 1625 5119 
L 2087 5119 
L 2853 3944 
L 2419 3944 
L 1856 4709 
L 1294 3944 
L 859 3944 
L 1625 5119 
z
" transform="scale(0.015625)"/>
     <path id="DejaVuSans-4f" d="M 603 4863 
L 1178 4863 
L 1178 0 
L 603 0 
L 603 4863 
z
" transform="scale(0.015625)"/>
     <path id="DejaVuSans-23" d="M 2381 1678 
Q 2381 1231 2603 976 
Q 2825 722 3213 722 
Q 3597 722 3817 978 
Q 4038 1234 4038 1678 
Q 4038 2116 3813 2373 
Q 3588 2631 3206 2631 
Q 2828 2631 2604 2375 
Q 2381 2119 2381 1678 
z
M 4084 744 
Q 3897 503 3655 389 
Q 3413 275 3091 275 
Q 2553 275 2217 664 
Q 1881 1053 1881 1678 
Q 1881 2303 2218 2693 
Q 2556 3084 3091 3084 
Q 3413 3084 3656 2967 
Q 3900 2850 4084 2613 
L 4084 3022 
L 4531 3022 
L 4531 722 
Q 4988 791 5245 1139 
Q 5503 1488 5503 2041 
Q 5503 2375 5404 2669 
Q 5306 2963 5106 3213 
Q 4781 3622 4314 3839 
Q 3847 4056 3297 4056 
Q 2913 4056 2559 3954 
Q 2206 3853 1906 3653 
Q 1416 3334 1139 2817 
Q 863 2300 863 1697 
Q 863 1200 1042 765 
Q 1222 331 1563 0 
Q 1891 -325 2322 -495 
Q 2753 -666 3244 -666 
Q 3647 -666 4036 -530 
Q 4425 -394 4750 -141 
L 5031 -488 
Q 4641 -791 4180 -952 
Q 3719 -1113 3244 -1113 
Q 2666 -1113 2153 -908 
Q 1641 -703 1241 -313 
Q 841 78 631 592 
Q 422 1106 422 1697 
Q 422 2266 634 2781 
Q 847 3297 1241 3688 
Q 1644 4084 2172 4295 
Q 2700 4506 3291 4506 
Q 3953 4506 4520 4234 
Q 5088 3963 5472 3463 
Q 5706 3156 5829 2797 
Q 5953 2438 5953 2053 
Q 5953 1231 5456 756 
Q 4959 281 4084 263 
L 4084 744 
z
" transform="scale(0.015625)"/>
     <path id="DejaVuSans-45" d="M 3116 1747 
Q 3116 2381 2855 2742 
Q 2594 3103 2138 3103 
Q 1681 3103 1420 2742 
Q 1159 2381 1159 1747 
Q 1159 1113 1420 752 
Q 1681 391 2138 391 
Q 2594 391 2855 752 
Q 3116 1113 3116 1747 
z
M 1159 2969 
Q 1341 3281 1617 3432 
Q 1894 3584 2278 3584 
Q 2916 3584 3314 3078 
Q 3713 2572 3713 1747 
Q 3713 922 3314 415 
Q 2916 -91 2278 -91 
Q 1894 -91 1617 61 
Q 1341 213 1159 525 
L 1159 0 
L 581 0 
L 581 4863 
L 1159 4863 
L 1159 2969 
z
" transform="scale(0.015625)"/>
     <path id="DejaVuSans-11" d="M 684 794 
L 1344 794 
L 1344 0 
L 684 0 
L 684 794 
z
" transform="scale(0.015625)"/>
    </defs>
    <use xlink:href="#DejaVuSans-26"/>
    <use xlink:href="#DejaVuSans-44" transform="translate(69.828125 0)"/>
    <use xlink:href="#DejaVuSans-51" transform="translate(131.109375 0)"/>
    <use xlink:href="#DejaVuSans-44" transform="translate(194.484375 0)"/>
    <use xlink:href="#DejaVuSans-4c" transform="translate(255.765625 0)"/>
    <use xlink:href="#DejaVuSans-56" transform="translate(283.546875 0)"/>
    <use xlink:href="#DejaVuSans-3" transform="translate(335.640625 0)"/>
    <use xlink:href="#DejaVuSans-38" transform="translate(367.421875 0)"/>
    <use xlink:href="#DejaVuSans-24" transform="translate(440.609375 0)"/>
    <use xlink:href="#DejaVuSans-35" transform="translate(509.015625 0)"/>
    <use xlink:href="#DejaVuSans-37" transform="translate(571.21875 0)"/>
    <use xlink:href="#DejaVuSans-3" transform="translate(632.296875 0)"/>
    <use xlink:href="#DejaVuSans-37" transform="translate(664.078125 0)"/>
    <use xlink:href="#DejaVuSans-3b" transform="translate(725.15625 0)"/>
    <use xlink:href="#DejaVuSans-3" transform="translate(793.65625 0)"/>
    <use xlink:href="#DejaVuSans-48" transform="translate(825.4375 0)"/>
    <use xlink:href="#DejaVuSans-3" transform="translate(886.96875 0)"/>
    <use xlink:href="#DejaVuSans-35" transform="translate(918.75 0)"/>
    <use xlink:href="#DejaVuSans-3b" transform="translate(988.234375 0)"/>
    <use xlink:href="#DejaVuSans-3" transform="translate(1056.734375 0)"/>
    <use xlink:href="#DejaVuSans-55" transform="translate(1088.515625 0)"/>
    <use xlink:href="#DejaVuSans-48" transform="translate(1127.421875 0)"/>
    <use xlink:href="#DejaVuSans-46" transform="translate(1188.953125 0)"/>
    <use xlink:href="#DejaVuSans-52" transform="translate(1243.9375 0)"/>
    <use xlink:href="#DejaVuSans-51" transform="translate(1305.125 0)"/>
    <use xlink:href="#DejaVuSans-56" transform="translate(1368.5 0)"/>
    <use xlink:href="#DejaVuSans-57" transform="translate(1420.59375 0)"/>
    <use xlink:href="#DejaVuSans-4c" transform="translate(1459.796875 0)"/>
    <use xlink:href="#DejaVuSans-57" transform="translate(1487.578125 0)"/>
    <use xlink:href="#DejaVuSans-58" transform="translate(1526.78125 0)"/>
    <use xlink:href="#DejaVuSans-af" transform="translate(1590.15625 0)"/>
    <use xlink:href="#DejaVuSans-47" transform="translate(1617.9375 0)"/>
    <use xlink:href="#DejaVuSans-52" transform="translate(1681.421875 0)"/>
    <use xlink:href="#DejaVuSans-56" transform="translate(1742.609375 0)"/>
    <use xlink:href="#DejaVuSans-3" transform="translate(1794.703125 0)"/>
    <use xlink:href="#DejaVuSans-47" transform="translate(1826.484375 0)"/>
    <use xlink:href="#DejaVuSans-52" transform="translate(1889.96875 0)"/>
    <use xlink:href="#DejaVuSans-56" transform="translate(1951.15625 0)"/>
    <use xlink:href="#DejaVuSans-3" transform="translate(2003.25 0)"/>
    <use xlink:href="#DejaVuSans-53" transform="translate(2035.03125 0)"/>
    <use xlink:href="#DejaVuSans-44" transform="translate(2098.515625 0)"/>
    <use xlink:href="#DejaVuSans-55" transform="translate(2159.796875 0)"/>
    <use xlink:href="#DejaVuSans-a4" transform="translate(2200.90625 0)"/>
    <use xlink:href="#DejaVuSans-50" transform="translate(2262.1875 0)"/>
    <use xlink:href="#DejaVuSans-48" transform="translate(2359.59375 0)"/>
    <use xlink:href="#DejaVuSans-57" transform="translate(2421.125 0)"/>
    <use xlink:href="#DejaVuSans-55" transform="translate(2460.328125 0)"/>
    <use xlink:href="#DejaVuSans-52" transform="translate(2499.234375 0)"/>
    <use xlink:href="#DejaVuSans-56" transform="translate(2560.421875 0)"/>
    <use xlink:href="#DejaVuSans-3" transform="translate(2612.515625 0)"/>
    <use xlink:href="#DejaVuSans-47" transform="translate(2644.296875 0)"/>
    <use xlink:href="#DejaVuSans-52" transform="translate(2707.78125 0)"/>
    <use xlink:href="#DejaVuSans-3" transform="translate(2768.96875 0)"/>
    <use xlink:href="#DejaVuSans-53" transform="translate(2800.75 0)"/>
    <use xlink:href="#DejaVuSans-55" transform="translate(2864.234375 0)"/>
    <use xlink:href="#DejaVuSans-52" transform="translate(2903.140625 0)"/>
    <use xlink:href="#DejaVuSans-57" transform="translate(2964.328125 0)"/>
    <use xlink:href="#DejaVuSans-52" transform="translate(3003.53125 0)"/>
    <use xlink:href="#DejaVuSans-46" transform="translate(3064.71875 0)"/>
    <use xlink:href="#DejaVuSans-52" transform="translate(3119.703125 0)"/>
    <use xlink:href="#DejaVuSans-4f" transform="translate(3180.890625 0)"/>
    <use xlink:href="#DejaVuSans-52" transform="translate(3208.671875 0)"/>
    <use xlink:href="#DejaVuSans-3" transform="translate(3269.859375 0)"/>
    <use xlink:href="#DejaVuSans-b" transform="translate(3301.640625 0)"/>
    <use xlink:href="#DejaVuSans-37" transform="translate(3340.65625 0)"/>
    <use xlink:href="#DejaVuSans-14" transform="translate(3401.734375 0)"/>
    <use xlink:href="#DejaVuSans-20" transform="translate(3465.359375 0)"/>
    <use xlink:href="#DejaVuSans-1b" transform="translate(3549.15625 0)"/>
    <use xlink:href="#DejaVuSans-19" transform="translate(3612.78125 0)"/>
    <use xlink:href="#DejaVuSans-1b" transform="translate(3676.40625 0)"/>
    <use xlink:href="#DejaVuSans-77" transform="translate(3740.03125 0)"/>
    <use xlink:href="#DejaVuSans-56" transform="translate(3803.65625 0)"/>
    <use xlink:href="#DejaVuSans-23" transform="translate(3855.75 0)"/>
    <use xlink:href="#DejaVuSans-14" transform="translate(3955.75 0)"/>
    <use xlink:href="#DejaVuSans-14" transform="translate(4019.375 0)"/>
    <use xlink:href="#DejaVuSans-18" transform="translate(4083 0)"/>
    <use xlink:href="#DejaVuSans-15" transform="translate(4146.625 0)"/>
    <use xlink:href="#DejaVuSans-13" transform="translate(4210.25 0)"/>
    <use xlink:href="#DejaVuSans-13" transform="translate(4273.875 0)"/>
    <use xlink:href="#DejaVuSans-45" transform="translate(4337.5 0)"/>
    <use xlink:href="#DejaVuSans-53" transform="translate(4400.984375 0)"/>
    <use xlink:href="#DejaVuSans-56" transform="translate(4464.46875 0)"/>
    <use xlink:href="#DejaVuSans-f" transform="translate(4516.5625 0)"/>
    <use xlink:href="#DejaVuSans-3" transform="translate(4548.34375 0)"/>
    <use xlink:href="#DejaVuSans-37" transform="translate(4580.125 0)"/>
    <use xlink:href="#DejaVuSans-15" transform="translate(4641.203125 0)"/>
    <use xlink:href="#DejaVuSans-42" transform="translate(4704.828125 0)"/>
    <use xlink:href="#DejaVuSans-50" transform="translate(4754.828125 0)"/>
    <use xlink:href="#DejaVuSans-48" transform="translate(4852.234375 0)"/>
    <use xlink:href="#DejaVuSans-44" transform="translate(4913.765625 0)"/>
    <use xlink:href="#DejaVuSans-51" transform="translate(4975.046875 0)"/>
    <use xlink:href="#DejaVuSans-20" transform="translate(5038.421875 0)"/>
    <use xlink:href="#DejaVuSans-14" transform="translate(5122.21875 0)"/>
    <use xlink:href="#DejaVuSans-14" transform="translate(5185.84375 0)"/>
    <use xlink:href="#DejaVuSans-f" transform="translate(5249.46875 0)"/>
    <use xlink:href="#DejaVuSans-15" transform="translate(5281.25 0)"/>
    <use xlink:href="#DejaVuSans-50" transform="translate(5344.875 0)"/>
    <use xlink:href="#DejaVuSans-56" transform="translate(5442.28125 0)"/>
    <use xlink:href="#DejaVuSans-c" transform="translate(5494.375 0)"/>
    <use xlink:href="#DejaVuSans-11" transform="translate(5533.390625 0)"/>
   </g>
   <!-- Trigger D9 e STEP J4 do VCD cycle-accurate do simavr (resolução 62,5 ns). -->
   <g style="fill: #555555" transform="translate(283.932656 356.158008) scale(0.06 -0.06)">
    <defs>
     <path id="DejaVuSans-4a" d="M 2906 1791 
Q 2906 2416 2648 2759 
Q 2391 3103 1925 3103 
Q 1463 3103 1205 2759 
Q 947 2416 947 1791 
Q 947 1169 1205 825 
Q 1463 481 1925 481 
Q 2391 481 2648 825 
Q 2906 1169 2906 1791 
z
M 3481 434 
Q 3481 -459 3084 -895 
Q 2688 -1331 1869 -1331 
Q 1566 -1331 1297 -1286 
Q 1028 -1241 775 -1147 
L 775 -588 
Q 1028 -725 1275 -790 
Q 1522 -856 1778 -856 
Q 2344 -856 2625 -561 
Q 2906 -266 2906 331 
L 2906 616 
Q 2728 306 2450 153 
Q 2172 0 1784 0 
Q 1141 0 747 490 
Q 353 981 353 1791 
Q 353 2603 747 3093 
Q 1141 3584 1784 3584 
Q 2172 3584 2450 3431 
Q 2728 3278 2906 2969 
L 2906 3500 
L 3481 3500 
L 3481 434 
z
" transform="scale(0.015625)"/>
     <path id="DejaVuSans-39" d="M 1831 0 
L 50 4666 
L 709 4666 
L 2188 738 
L 3669 4666 
L 4325 4666 
L 2547 0 
L 1831 0 
z
" transform="scale(0.015625)"/>
     <path id="DejaVuSans-5c" d="M 2059 -325 
Q 1816 -950 1584 -1140 
Q 1353 -1331 966 -1331 
L 506 -1331 
L 506 -850 
L 844 -850 
Q 1081 -850 1212 -737 
Q 1344 -625 1503 -206 
L 1606 56 
L 191 3500 
L 800 3500 
L 1894 763 
L 2988 3500 
L 3597 3500 
L 2059 -325 
z
" transform="scale(0.015625)"/>
     <path id="DejaVuSans-10" d="M 313 2009 
L 1997 2009 
L 1997 1497 
L 313 1497 
L 313 2009 
z
" transform="scale(0.015625)"/>
     <path id="DejaVuSans-59" d="M 191 3500 
L 800 3500 
L 1894 563 
L 2988 3500 
L 3597 3500 
L 2284 0 
L 1503 0 
L 191 3500 
z
" transform="scale(0.015625)"/>
     <path id="DejaVuSans-a9" d="M 3122 3366 
L 3122 2828 
Q 2878 2963 2633 3030 
Q 2388 3097 2138 3097 
Q 1578 3097 1268 2742 
Q 959 2388 959 1747 
Q 959 1106 1268 751 
Q 1578 397 2138 397 
Q 2388 397 2633 464 
Q 2878 531 3122 666 
L 3122 134 
Q 2881 22 2623 -34 
Q 2366 -91 2075 -91 
Q 1284 -91 818 406 
Q 353 903 353 1747 
Q 353 2603 823 3093 
Q 1294 3584 2113 3584 
Q 2378 3584 2631 3529 
Q 2884 3475 3122 3366 
z
M 2310 0 
Q 2481 -194 2565 -358 
Q 2650 -522 2650 -672 
Q 2650 -950 2462 -1092 
Q 2275 -1234 1906 -1234 
Q 1763 -1234 1627 -1215 
Q 1491 -1197 1356 -1159 
L 1356 -750 
Q 1463 -803 1578 -826 
Q 1694 -850 1841 -850 
Q 2025 -850 2119 -775 
Q 2213 -700 2213 -556 
Q 2213 -463 2145 -327 
Q 2078 -191 1938 0 
L 2310 0 
z
" transform="scale(0.015625)"/>
     <path id="DejaVuSans-a5" d="M 2194 1759 
Q 1497 1759 1228 1600 
Q 959 1441 959 1056 
Q 959 750 1161 570 
Q 1363 391 1709 391 
Q 2188 391 2477 730 
Q 2766 1069 2766 1631 
L 2766 1759 
L 2194 1759 
z
M 3341 1997 
L 3341 0 
L 2766 0 
L 2766 531 
Q 2569 213 2275 61 
Q 1981 -91 1556 -91 
Q 1019 -91 701 211 
Q 384 513 384 1019 
Q 384 1609 779 1909 
Q 1175 2209 1959 2209 
L 2766 2209 
L 2766 2266 
Q 2766 2663 2505 2880 
Q 2244 3097 1772 3097 
Q 1472 3097 1187 3025 
Q 903 2953 641 2809 
L 641 3341 
Q 956 3463 1253 3523 
Q 1550 3584 1831 3584 
Q 2591 3584 2966 3190 
Q 3341 2797 3341 1997 
z
M 1844 4281 
L 1665 4453 
Q 1597 4516 1545 4545 
Q 1494 4575 1453 4575 
Q 1334 4575 1278 4461 
Q 1222 4347 1215 4091 
L 825 4091 
Q 831 4513 990 4742 
Q 1150 4972 1434 4972 
Q 1553 4972 1653 4928 
Q 1753 4884 1869 4781 
L 2047 4609 
Q 2115 4547 2167 4517 
Q 2219 4488 2259 4488 
Q 2378 4488 2434 4602 
Q 2490 4716 2497 4972 
L 2887 4972 
Q 2881 4550 2721 4320 
Q 2562 4091 2278 4091 
Q 2159 4091 2059 4134 
Q 1959 4178 1844 4281 
z
" transform="scale(0.015625)"/>
    </defs>
    <use xlink:href="#DejaVuSans-37"/>
    <use xlink:href="#DejaVuSans-55" transform="translate(46.375 0)"/>
    <use xlink:href="#DejaVuSans-4c" transform="translate(87.484375 0)"/>
    <use xlink:href="#DejaVuSans-4a" transform="translate(115.265625 0)"/>
    <use xlink:href="#DejaVuSans-4a" transform="translate(178.75 0)"/>
    <use xlink:href="#DejaVuSans-48" transform="translate(242.234375 0)"/>
    <use xlink:href="#DejaVuSans-55" transform="translate(303.765625 0)"/>
    <use xlink:href="#DejaVuSans-3" transform="translate(344.875 0)"/>
    <use xlink:href="#DejaVuSans-27" transform="translate(376.65625 0)"/>
    <use xlink:href="#DejaVuSans-1c" transform="translate(453.65625 0)"/>
    <use xlink:href="#DejaVuSans-3" transform="translate(517.28125 0)"/>
    <use xlink:href="#DejaVuSans-48" transform="translate(549.0625 0)"/>
    <use xlink:href="#DejaVuSans-3" transform="translate(610.59375 0)"/>
    <use xlink:href="#DejaVuSans-36" transform="translate(642.375 0)"/>
    <use xlink:href="#DejaVuSans-37" transform="translate(705.859375 0)"/>
    <use xlink:href="#DejaVuSans-28" transform="translate(766.9375 0)"/>
    <use xlink:href="#DejaVuSans-33" transform="translate(830.125 0)"/>
    <use xlink:href="#DejaVuSans-3" transform="translate(890.421875 0)"/>
    <use xlink:href="#DejaVuSans-2d" transform="translate(922.203125 0)"/>
    <use xlink:href="#DejaVuSans-17" transform="translate(951.703125 0)"/>
    <use xlink:href="#DejaVuSans-3" transform="translate(1015.328125 0)"/>
    <use xlink:href="#DejaVuSans-47" transform="translate(1047.109375 0)"/>
    <use xlink:href="#DejaVuSans-52" transform="translate(1110.59375 0)"/>
    <use xlink:href="#DejaVuSans-3" transform="translate(1171.78125 0)"/>
    <use xlink:href="#DejaVuSans-39" transform="translate(1203.5625 0)"/>
    <use xlink:href="#DejaVuSans-26" transform="translate(1271.96875 0)"/>
    <use xlink:href="#DejaVuSans-27" transform="translate(1341.796875 0)"/>
    <use xlink:href="#DejaVuSans-3" transform="translate(1418.796875 0)"/>
    <use xlink:href="#DejaVuSans-46" transform="translate(1450.578125 0)"/>
    <use xlink:href="#DejaVuSans-5c" transform="translate(1505.5625 0)"/>
    <use xlink:href="#DejaVuSans-46" transform="translate(1564.75 0)"/>
    <use xlink:href="#DejaVuSans-4f" transform="translate(1619.734375 0)"/>
    <use xlink:href="#DejaVuSans-48" transform="translate(1647.515625 0)"/>
    <use xlink:href="#DejaVuSans-10" transform="translate(1709.046875 0)"/>
    <use xlink:href="#DejaVuSans-44" transform="translate(1745.125 0)"/>
    <use xlink:href="#DejaVuSans-46" transform="translate(1806.40625 0)"/>
    <use xlink:href="#DejaVuSans-46" transform="translate(1861.390625 0)"/>
    <use xlink:href="#DejaVuSans-58" transform="translate(1916.375 0)"/>
    <use xlink:href="#DejaVuSans-55" transform="translate(1979.75 0)"/>
    <use xlink:href="#DejaVuSans-44" transform="translate(2020.859375 0)"/>
    <use xlink:href="#DejaVuSans-57" transform="translate(2082.140625 0)"/>
    <use xlink:href="#DejaVuSans-48" transform="translate(2121.34375 0)"/>
    <use xlink:href="#DejaVuSans-3" transform="translate(2182.875 0)"/>
    <use xlink:href="#DejaVuSans-47" transform="translate(2214.65625 0)"/>
    <use xlink:href="#DejaVuSans-52" transform="translate(2278.140625 0)"/>
    <use xlink:href="#DejaVuSans-3" transform="translate(2339.328125 0)"/>
    <use xlink:href="#DejaVuSans-56" transform="translate(2371.109375 0)"/>
    <use xlink:href="#DejaVuSans-4c" transform="translate(2423.203125 0)"/>
    <use xlink:href="#DejaVuSans-50" transform="translate(2450.984375 0)"/>
    <use xlink:href="#DejaVuSans-44" transform="translate(2548.390625 0)"/>
    <use xlink:href="#DejaVuSans-59" transform="translate(2609.671875 0)"/>
    <use xlink:href="#DejaVuSans-55" transform="translate(2668.859375 0)"/>
    <use xlink:href="#DejaVuSans-3" transform="translate(2709.96875 0)"/>
    <use xlink:href="#DejaVuSans-b" transform="translate(2741.75 0)"/>
    <use xlink:href="#DejaVuSans-55" transform="translate(2780.765625 0)"/>
    <use xlink:href="#DejaVuSans-48" transform="translate(2819.671875 0)"/>
    <use xlink:href="#DejaVuSans-56" transform="translate(2881.203125 0)"/>
    <use xlink:href="#DejaVuSans-52" transform="translate(2933.296875 0)"/>
    <use xlink:href="#DejaVuSans-4f" transform="translate(2994.484375 0)"/>
    <use xlink:href="#DejaVuSans-58" transform="translate(3022.265625 0)"/>
    <use xlink:href="#DejaVuSans-a9" transform="translate(3085.640625 0)"/>
    <use xlink:href="#DejaVuSans-a5" transform="translate(3140.625 0)"/>
    <use xlink:href="#DejaVuSans-52" transform="translate(3201.90625 0)"/>
    <use xlink:href="#DejaVuSans-3" transform="translate(3263.09375 0)"/>
    <use xlink:href="#DejaVuSans-19" transform="translate(3294.875 0)"/>
    <use xlink:href="#DejaVuSans-15" transform="translate(3358.5 0)"/>
    <use xlink:href="#DejaVuSans-f" transform="translate(3422.125 0)"/>
    <use xlink:href="#DejaVuSans-18" transform="translate(3453.90625 0)"/>
    <use xlink:href="#DejaVuSans-3" transform="translate(3517.53125 0)"/>
    <use xlink:href="#DejaVuSans-51" transform="translate(3549.3125 0)"/>
    <use xlink:href="#DejaVuSans-56" transform="translate(3612.6875 0)"/>
    <use xlink:href="#DejaVuSans-c" transform="translate(3664.78125 0)"/>
    <use xlink:href="#DejaVuSans-11" transform="translate(3703.796875 0)"/>
   </g>
  </g>
 </g>
 <defs>
  <clipPath id="pc32855dab5">
   <rect x="81.16" y="10.8" width="700.04" height="285.477656"/>
  </clipPath>
 </defs>
</svg>
