<?xml version="1.0" encoding="utf-8" standalone="no"?>
<!DOCTYPE svg PUBLIC "-//W3C//DTD SVG 1.1//EN"
  "http://www.w3.org/Graphics/SVG/1.1/DTD/svg11.dtd">
<svg xmlns:xlink="http://www.w3.org/1999/xlink" width="864pt" height="360pt" viewBox="0 0 864 360" xmlns="http://www.w3.org/2000/svg" version="1.1">
 <metadata>
  <rdf:RDF xmlns:dc="http://purl.org/dc/elements/1.1/" xmlns:cc="http://creativecommons.org/ns#" xmlns:rdf="http://www.w3.org/1999/02/22-rdf-syntax-ns#">
   <cc:Work>
    <dc:type rdf:resource="http://purl.org/dc/dcmitype/StillImage"/>
    <dc:date>2026-06-27T04:54:20.846213</dc:date>
    <dc:format>image/svg+xml</dc:format>
    <dc:creator>
     <cc:Agent>
      <dc:title>Matplotlib v3.11.0, https://matplotlib.org/</dc:title>
     </cc:Agent>
    </dc:creator>
   </cc:Work>
  </rdf:RDF>
 </metadata>
 <defs>
  <style type="text/css">*{stroke-linejoin: round; stroke-linecap: butt}</style>
 </defs>
 <g id="figure_1">
  <g id="patch_1">
   <path d="M 0 360 
L 864 360 
L 864 0 
L 0 0 
z
" style="fill: #ffffff"/>
  </g>
  <g id="axes_1">
   <g id="patch_2">
    <path d="M 47.242344 317.877656 
L 426.6 317.877656 
L 426.6 24.72 
L 47.242344 24.72 
z
" style="fill: #ffffff"/>
   </g>
   <g id="matplotlib.axis_1">
    <g id="xtick_1">
     <g id="line2d_1">
      <path d="M 86.914607 317.877656 
L 86.914607 24.72 
" clip-path="url(#p2f76d5cae8)" style="fill: none; stroke: #b0b0b0; stroke-opacity: 0.3; stroke-width: 0.5; stroke-linecap: square"/>
     </g>
     <g id="line2d_2">
      <defs>
       <path id="me4084838f2" d="M 0 0 
L 0 3.5 
" style="stroke: #000000; stroke-width: 0.8"/>
      </defs>
      <g>
       <use xlink:href="#me4084838f2" x="86.914607" y="317.877656" style="stroke: #000000; stroke-width: 0.8"/>
      </g>
     </g>
     <g id="text_1">
      <!-- 0.0 -->
      <g transform="translate(78.963044 332.475312) scale(0.1 -0.1)">
       <defs>
        <path id="DejaVuSans-13" d="M 2034 4250 
Q 1547 4250 1301 3770 
Q 1056 3291 1056 2328 
Q 1056 1369 1301 889 
Q 1547 409 2034 409 
Q 2525 409 2770 889 
Q 3016 1369 3016 2328 
Q 3016 3291 2770 3770 
Q 2525 4250 2034 4250 
z
M 2034 4750 
Q 2819 4750 3233 4129 
Q 3647 3509 3647 2328 
Q 3647 1150 3233 529 
Q 2819 -91 2034 -91 
Q 1250 -91 836 529 
Q 422 1150 422 2328 
Q 422 3509 836 4129 
Q 1250 4750 2034 4750 
z
" transform="scale(0.015625)"/>
        <path id="DejaVuSans-11" d="M 684 794 
L 1344 794 
L 1344 0 
L 684 0 
L 684 794 
z
" transform="scale(0.015625)"/>
       </defs>
       <use xlink:href="#DejaVuSans-13"/>
       <use xlink:href="#DejaVuSans-11" transform="translate(63.625 0)"/>
       <use xlink:href="#DejaVuSans-13" transform="translate(95.40625 0)"/>
      </g>
     </g>
    </g>
    <g id="xtick_2">
     <g id="line2d_3">
      <path d="M 140.93083 317.877656 
L 140.93083 24.72 
" clip-path="url(#p2f76d5cae8)" style="fill: none; stroke: #b0b0b0; stroke-opacity: 0.3; stroke-width: 0.5; stroke-linecap: square"/>
     </g>
     <g id="line2d_4">
      <g>
       <use xlink:href="#me4084838f2" x="140.93083" y="317.877656" style="stroke: #000000; stroke-width: 0.8"/>
      </g>
     </g>
     <g id="text_2">
      <!-- 0.5 -->
      <g transform="translate(132.979268 332.475312) scale(0.1 -0.1)">
       <defs>
        <path id="DejaVuSans-18" d="M 691 4666 
L 3169 4666 
L 3169 4134 
L 1269 4134 
L 1269 2991 
Q 1406 3038 1543 3061 
Q 1681 3084 1819 3084 
Q 2600 3084 3056 2656 
Q 3513 2228 3513 1497 
Q 3513 744 3044 326 
Q 2575 -91 1722 -91 
Q 1428 -91 1123 -41 
Q 819 9 494 109 
L 494 744 
Q 775 591 1075 516 
Q 1375 441 1709 441 
Q 2250 441 2565 725 
Q 2881 1009 2881 1497 
Q 2881 1984 2565 2268 
Q 2250 2553 1709 2553 
Q 1456 2553 1204 2497 
Q 953 2441 691 2322 
L 691 4666 
z
" transform="scale(0.015625)"/>
       </defs>
       <use xlink:href="#DejaVuSans-13"/>
       <use xlink:href="#DejaVuSans-11" transform="translate(63.625 0)"/>
       <use xlink:href="#DejaVuSans-18" transform="translate(95.40625 0)"/>
      </g>
     </g>
    </g>
    <g id="xtick_3">
     <g id="line2d_5">
      <path d="M 194.947053 317.877656 
L 194.947053 24.72 
" clip-path="url(#p2f76d5cae8)" style="fill: none; stroke: #b0b0b0; stroke-opacity: 0.3; stroke-width: 0.5; stroke-linecap: square"/>
     </g>
     <g id="line2d_6">
      <g>
       <use xlink:href="#me4084838f2" x="194.947053" y="317.877656" style="stroke: #000000; stroke-width: 0.8"/>
      </g>
     </g>
     <g id="text_3">
      <!-- 1.0 -->
      <g transform="translate(186.995491 332.475312) scale(0.1 -0.1)">
       <defs>
        <path id="DejaVuSans-14" d="M 794 531 
L 1825 531 
L 1825 4091 
L 703 3866 
L 703 4441 
L 1819 4666 
L 2450 4666 
L 2450 531 
L 3481 531 
L 3481 0 
L 794 0 
L 794 531 
z
" transform="scale(0.015625)"/>
       </defs>
       <use xlink:href="#DejaVuSans-14"/>
       <use xlink:href="#DejaVuSans-11" transform="translate(63.625 0)"/>
       <use xlink:href="#DejaVuSans-13" transform="translate(95.40625 0)"/>
      </g>
     </g>
    </g>
    <g id="xtick_4">
     <g id="line2d_7">
      <path d="M 248.963277 317.877656 
L 248.963277 24.72 
" clip-path="url(#p2f76d5cae8)" style="fill: none; stroke: #b0b0b0; stroke-opacity: 0.3; stroke-width: 0.5; stroke-linecap: square"/>
     </g>
     <g id="line2d_8">
      <g>
       <use xlink:href="#me4084838f2" x="248.963277" y="317.877656" style="stroke: #000000; stroke-width: 0.8"/>
      </g>
     </g>
     <g id="text_4">
      <!-- 1.5 -->
      <g transform="translate(241.011714 332.475312) scale(0.1 -0.1)">
       <use xlink:href="#DejaVuSans-14"/>
       <use xlink:href="#DejaVuSans-11" transform="translate(63.625 0)"/>
       <use xlink:href="#DejaVuSans-18" transform="translate(95.40625 0)"/>
      </g>
     </g>
    </g>
    <g id="xtick_5">
     <g id="line2d_9">
      <path d="M 302.9795 317.877656 
L 302.9795 24.72 
" clip-path="url(#p2f76d5cae8)" style="fill: none; stroke: #b0b0b0; stroke-opacity: 0.3; stroke-width: 0.5; stroke-linecap: square"/>
     </g>
     <g id="line2d_10">
      <g>
       <use xlink:href="#me4084838f2" x="302.9795" y="317.877656" style="stroke: #000000; stroke-width: 0.8"/>
      </g>
     </g>
     <g id="text_5">
      <!-- 2.0 -->
      <g transform="translate(295.027937 332.475312) scale(0.1 -0.1)">
       <defs>
        <path id="DejaVuSans-15" d="M 1228 531 
L 3431 531 
L 3431 0 
L 469 0 
L 469 531 
Q 828 903 1448 1529 
Q 2069 2156 2228 2338 
Q 2531 2678 2651 2914 
Q 2772 3150 2772 3378 
Q 2772 3750 2511 3984 
Q 2250 4219 1831 4219 
Q 1534 4219 1204 4116 
Q 875 4013 500 3803 
L 500 4441 
Q 881 4594 1212 4672 
Q 1544 4750 1819 4750 
Q 2544 4750 2975 4387 
Q 3406 4025 3406 3419 
Q 3406 3131 3298 2873 
Q 3191 2616 2906 2266 
Q 2828 2175 2409 1742 
Q 1991 1309 1228 531 
z
" transform="scale(0.015625)"/>
       </defs>
       <use xlink:href="#DejaVuSans-15"/>
       <use xlink:href="#DejaVuSans-11" transform="translate(63.625 0)"/>
       <use xlink:href="#DejaVuSans-13" transform="translate(95.40625 0)"/>
      </g>
     </g>
    </g>
    <g id="xtick_6">
     <g id="line2d_11">
      <path d="M 356.995723 317.877656 
L 356.995723 24.72 
" clip-path="url(#p2f76d5cae8)" style="fill: none; stroke: #b0b0b0; stroke-opacity: 0.3; stroke-width: 0.5; stroke-linecap: square"/>
     </g>
     <g id="line2d_12">
      <g>
       <use xlink:href="#me4084838f2" x="356.995723" y="317.877656" style="stroke: #000000; stroke-width: 0.8"/>
      </g>
     </g>
     <g id="text_6">
      <!-- 2.5 -->
      <g transform="translate(349.04416 332.475312) scale(0.1 -0.1)">
       <use xlink:href="#DejaVuSans-15"/>
       <use xlink:href="#DejaVuSans-11" transform="translate(63.625 0)"/>
       <use xlink:href="#DejaVuSans-18" transform="translate(95.40625 0)"/>
      </g>
     </g>
    </g>
    <g id="xtick_7">
     <g id="line2d_13">
      <path d="M 411.011946 317.877656 
L 411.011946 24.72 
" clip-path="url(#p2f76d5cae8)" style="fill: none; stroke: #b0b0b0; stroke-opacity: 0.3; stroke-width: 0.5; stroke-linecap: square"/>
     </g>
     <g id="line2d_14">
      <g>
       <use xlink:href="#me4084838f2" x="411.011946" y="317.877656" style="stroke: #000000; stroke-width: 0.8"/>
      </g>
     </g>
     <g id="text_7">
      <!-- 3.0 -->
      <g transform="translate(403.060384 332.475312) scale(0.1 -0.1)">
       <defs>
        <path id="DejaVuSans-16" d="M 2597 2516 
Q 3050 2419 3304 2112 
Q 3559 1806 3559 1356 
Q 3559 666 3084 287 
Q 2609 -91 1734 -91 
Q 1441 -91 1130 -33 
Q 819 25 488 141 
L 488 750 
Q 750 597 1062 519 
Q 1375 441 1716 441 
Q 2309 441 2620 675 
Q 2931 909 2931 1356 
Q 2931 1769 2642 2001 
Q 2353 2234 1838 2234 
L 1294 2234 
L 1294 2753 
L 1863 2753 
Q 2328 2753 2575 2939 
Q 2822 3125 2822 3475 
Q 2822 3834 2567 4026 
Q 2313 4219 1838 4219 
Q 1578 4219 1281 4162 
Q 984 4106 628 3988 
L 628 4550 
Q 988 4650 1302 4700 
Q 1616 4750 1894 4750 
Q 2613 4750 3031 4423 
Q 3450 4097 3450 3541 
Q 3450 3153 3228 2886 
Q 3006 2619 2597 2516 
z
" transform="scale(0.015625)"/>
       </defs>
       <use xlink:href="#DejaVuSans-16"/>
       <use xlink:href="#DejaVuSans-11" transform="translate(63.625 0)"/>
       <use xlink:href="#DejaVuSans-13" transform="translate(95.40625 0)"/>
      </g>
     </g>
    </g>
    <g id="text_8">
     <!-- Tempo desde o início do movimento (s) -->
     <g transform="translate(138.538359 346.876094) scale(0.1 -0.1)">
      <defs>
       <path id="DejaVuSans-37" d="M -19 4666 
L 3928 4666 
L 3928 4134 
L 2272 4134 
L 2272 0 
L 1638 0 
L 1638 4134 
L -19 4134 
L -19 4666 
z
" transform="scale(0.015625)"/>
       <path id="DejaVuSans-48" d="M 3597 1894 
L 3597 1613 
L 953 1613 
Q 991 1019 1311 708 
Q 1631 397 2203 397 
Q 2534 397 2845 478 
Q 3156 559 3463 722 
L 3463 178 
Q 3153 47 2828 -22 
Q 2503 -91 2169 -91 
Q 1331 -91 842 396 
Q 353 884 353 1716 
Q 353 2575 817 3079 
Q 1281 3584 2069 3584 
Q 2775 3584 3186 3129 
Q 3597 2675 3597 1894 
z
M 3022 2063 
Q 3016 2534 2758 2815 
Q 2500 3097 2075 3097 
Q 1594 3097 1305 2825 
Q 1016 2553 972 2059 
L 3022 2063 
z
" transform="scale(0.015625)"/>
       <path id="DejaVuSans-50" d="M 3328 2828 
Q 3544 3216 3844 3400 
Q 4144 3584 4550 3584 
Q 5097 3584 5394 3201 
Q 5691 2819 5691 2113 
L 5691 0 
L 5113 0 
L 5113 2094 
Q 5113 2597 4934 2840 
Q 4756 3084 4391 3084 
Q 3944 3084 3684 2787 
Q 3425 2491 3425 1978 
L 3425 0 
L 2847 0 
L 2847 2094 
Q 2847 2600 2669 2842 
Q 2491 3084 2119 3084 
Q 1678 3084 1418 2786 
Q 1159 2488 1159 1978 
L 1159 0 
L 581 0 
L 581 3500 
L 1159 3500 
L 1159 2956 
Q 1356 3278 1631 3431 
Q 1906 3584 2284 3584 
Q 2666 3584 2933 3390 
Q 3200 3197 3328 2828 
z
" transform="scale(0.015625)"/>
       <path id="DejaVuSans-53" d="M 1159 525 
L 1159 -1331 
L 581 -1331 
L 581 3500 
L 1159 3500 
L 1159 2969 
Q 1341 3281 1617 3432 
Q 1894 3584 2278 3584 
Q 2916 3584 3314 3078 
Q 3713 2572 3713 1747 
Q 3713 922 3314 415 
Q 2916 -91 2278 -91 
Q 1894 -91 1617 61 
Q 1341 213 1159 525 
z
M 3116 1747 
Q 3116 2381 2855 2742 
Q 2594 3103 2138 3103 
Q 1681 3103 1420 2742 
Q 1159 2381 1159 1747 
Q 1159 1113 1420 752 
Q 1681 391 2138 391 
Q 2594 391 2855 752 
Q 3116 1113 3116 1747 
z
" transform="scale(0.015625)"/>
       <path id="DejaVuSans-52" d="M 1959 3097 
Q 1497 3097 1228 2736 
Q 959 2375 959 1747 
Q 959 1119 1226 758 
Q 1494 397 1959 397 
Q 2419 397 2687 759 
Q 2956 1122 2956 1747 
Q 2956 2369 2687 2733 
Q 2419 3097 1959 3097 
z
M 1959 3584 
Q 2709 3584 3137 3096 
Q 3566 2609 3566 1747 
Q 3566 888 3137 398 
Q 2709 -91 1959 -91 
Q 1206 -91 779 398 
Q 353 888 353 1747 
Q 353 2609 779 3096 
Q 1206 3584 1959 3584 
z
" transform="scale(0.015625)"/>
       <path id="DejaVuSans-3" transform="scale(0.015625)"/>
       <path id="DejaVuSans-47" d="M 2906 2969 
L 2906 4863 
L 3481 4863 
L 3481 0 
L 2906 0 
L 2906 525 
Q 2725 213 2448 61 
Q 2172 -91 1784 -91 
Q 1150 -91 751 415 
Q 353 922 353 1747 
Q 353 2572 751 3078 
Q 1150 3584 1784 3584 
Q 2172 3584 2448 3432 
Q 2725 3281 2906 2969 
z
M 947 1747 
Q 947 1113 1208 752 
Q 1469 391 1925 391 
Q 2381 391 2643 752 
Q 2906 1113 2906 1747 
Q 2906 2381 2643 2742 
Q 2381 3103 1925 3103 
Q 1469 3103 1208 2742 
Q 947 2381 947 1747 
z
" transform="scale(0.015625)"/>
       <path id="DejaVuSans-56" d="M 2834 3397 
L 2834 2853 
Q 2591 2978 2328 3040 
Q 2066 3103 1784 3103 
Q 1356 3103 1142 2972 
Q 928 2841 928 2578 
Q 928 2378 1081 2264 
Q 1234 2150 1697 2047 
L 1894 2003 
Q 2506 1872 2764 1633 
Q 3022 1394 3022 966 
Q 3022 478 2636 193 
Q 2250 -91 1575 -91 
Q 1294 -91 989 -36 
Q 684 19 347 128 
L 347 722 
Q 666 556 975 473 
Q 1284 391 1588 391 
Q 1994 391 2212 530 
Q 2431 669 2431 922 
Q 2431 1156 2273 1281 
Q 2116 1406 1581 1522 
L 1381 1569 
Q 847 1681 609 1914 
Q 372 2147 372 2553 
Q 372 3047 722 3315 
Q 1072 3584 1716 3584 
Q 2034 3584 2315 3537 
Q 2597 3491 2834 3397 
z
" transform="scale(0.015625)"/>
       <path id="DejaVuSans-4c" d="M 603 3500 
L 1178 3500 
L 1178 0 
L 603 0 
L 603 3500 
z
M 603 4863 
L 1178 4863 
L 1178 4134 
L 603 4134 
L 603 4863 
z
" transform="scale(0.015625)"/>
       <path id="DejaVuSans-51" d="M 3513 2113 
L 3513 0 
L 2938 0 
L 2938 2094 
Q 2938 2591 2744 2837 
Q 2550 3084 2163 3084 
Q 1697 3084 1428 2787 
Q 1159 2491 1159 1978 
L 1159 0 
L 581 0 
L 581 3500 
L 1159 3500 
L 1159 2956 
Q 1366 3272 1645 3428 
Q 1925 3584 2291 3584 
Q 2894 3584 3203 3211 
Q 3513 2838 3513 2113 
z
" transform="scale(0.015625)"/>
       <path id="DejaVuSans-af" d="M 1325 5119 
L 1947 5119 
L 929 3944 
L 450 3944 
L 1325 5119 
z
M 603 3500 
L 1178 3500 
L 1178 0 
L 603 0 
L 603 3500 
z
M 891 3584 
L 891 3584 
z
" transform="scale(0.015625)"/>
       <path id="DejaVuSans-46" d="M 3122 3366 
L 3122 2828 
Q 2878 2963 2633 3030 
Q 2388 3097 2138 3097 
Q 1578 3097 1268 2742 
Q 959 2388 959 1747 
Q 959 1106 1268 751 
Q 1578 397 2138 397 
Q 2388 397 2633 464 
Q 2878 531 3122 666 
L 3122 134 
Q 2881 22 2623 -34 
Q 2366 -91 2075 -91 
Q 1284 -91 818 406 
Q 353 903 353 1747 
Q 353 2603 823 3093 
Q 1294 3584 2113 3584 
Q 2378 3584 2631 3529 
Q 2884 3475 3122 3366 
z
" transform="scale(0.015625)"/>
       <path id="DejaVuSans-59" d="M 191 3500 
L 800 3500 
L 1894 563 
L 2988 3500 
L 3597 3500 
L 2284 0 
L 1503 0 
L 191 3500 
z
" transform="scale(0.015625)"/>
       <path id="DejaVuSans-57" d="M 1172 4494 
L 1172 3500 
L 2356 3500 
L 2356 3053 
L 1172 3053 
L 1172 1153 
Q 1172 725 1289 603 
Q 1406 481 1766 481 
L 2356 481 
L 2356 0 
L 1766 0 
Q 1100 0 847 248 
Q 594 497 594 1153 
L 594 3053 
L 172 3053 
L 172 3500 
L 594 3500 
L 594 4494 
L 1172 4494 
z
" transform="scale(0.015625)"/>
       <path id="DejaVuSans-b" d="M 1984 4856 
Q 1566 4138 1362 3434 
Q 1159 2731 1159 2009 
Q 1159 1288 1364 580 
Q 1569 -128 1984 -844 
L 1484 -844 
Q 1016 -109 783 600 
Q 550 1309 550 2009 
Q 550 2706 781 3412 
Q 1013 4119 1484 4856 
L 1984 4856 
z
" transform="scale(0.015625)"/>
       <path id="DejaVuSans-c" d="M 513 4856 
L 1013 4856 
Q 1481 4119 1714 3412 
Q 1947 2706 1947 2009 
Q 1947 1309 1714 600 
Q 1481 -109 1013 -844 
L 513 -844 
Q 928 -128 1133 580 
Q 1338 1288 1338 2009 
Q 1338 2731 1133 3434 
Q 928 4138 513 4856 
z
" transform="scale(0.015625)"/>
      </defs>
      <use xlink:href="#DejaVuSans-37"/>
      <use xlink:href="#DejaVuSans-48" transform="translate(44.09375 0)"/>
      <use xlink:href="#DejaVuSans-50" transform="translate(105.625 0)"/>
      <use xlink:href="#DejaVuSans-53" transform="translate(203.03125 0)"/>
      <use xlink:href="#DejaVuSans-52" transform="translate(266.515625 0)"/>
      <use xlink:href="#DejaVuSans-3" transform="translate(327.703125 0)"/>
      <use xlink:href="#DejaVuSans-47" transform="translate(359.484375 0)"/>
      <use xlink:href="#DejaVuSans-48" transform="translate(422.96875 0)"/>
      <use xlink:href="#DejaVuSans-56" transform="translate(484.5 0)"/>
      <use xlink:href="#DejaVuSans-47" transform="translate(536.59375 0)"/>
      <use xlink:href="#DejaVuSans-48" transform="translate(600.078125 0)"/>
      <use xlink:href="#DejaVuSans-3" transform="translate(661.609375 0)"/>
      <use xlink:href="#DejaVuSans-52" transform="translate(693.390625 0)"/>
      <use xlink:href="#DejaVuSans-3" transform="translate(754.578125 0)"/>
      <use xlink:href="#DejaVuSans-4c" transform="translate(786.359375 0)"/>
      <use xlink:href="#DejaVuSans-51" transform="translate(814.140625 0)"/>
      <use xlink:href="#DejaVuSans-af" transform="translate(877.515625 0)"/>
      <use xlink:href="#DejaVuSans-46" transform="translate(905.296875 0)"/>
      <use xlink:href="#DejaVuSans-4c" transform="translate(960.28125 0)"/>
      <use xlink:href="#DejaVuSans-52" transform="translate(988.0625 0)"/>
      <use xlink:href="#DejaVuSans-3" transform="translate(1049.25 0)"/>
      <use xlink:href="#DejaVuSans-47" transform="translate(1081.03125 0)"/>
      <use xlink:href="#DejaVuSans-52" transform="translate(1144.515625 0)"/>
      <use xlink:href="#DejaVuSans-3" transform="translate(1205.703125 0)"/>
      <use xlink:href="#DejaVuSans-50" transform="translate(1237.484375 0)"/>
      <use xlink:href="#DejaVuSans-52" transform="translate(1334.890625 0)"/>
      <use xlink:href="#DejaVuSans-59" transform="translate(1396.078125 0)"/>
      <use xlink:href="#DejaVuSans-4c" transform="translate(1455.265625 0)"/>
      <use xlink:href="#DejaVuSans-50" transform="translate(1483.046875 0)"/>
      <use xlink:href="#DejaVuSans-48" transform="translate(1580.453125 0)"/>
      <use xlink:href="#DejaVuSans-51" transform="translate(1641.984375 0)"/>
      <use xlink:href="#DejaVuSans-57" transform="translate(1705.359375 0)"/>
      <use xlink:href="#DejaVuSans-52" transform="translate(1744.5625 0)"/>
      <use xlink:href="#DejaVuSans-3" transform="translate(1805.75 0)"/>
      <use xlink:href="#DejaVuSans-b" transform="translate(1837.53125 0)"/>
      <use xlink:href="#DejaVuSans-56" transform="translate(1876.546875 0)"/>
      <use xlink:href="#DejaVuSans-c" transform="translate(1928.640625 0)"/>
     </g>
    </g>
   </g>
   <g id="matplotlib.axis_2">
    <g id="ytick_1">
     <g id="line2d_15">
      <path d="M 47.242344 304.552308 
L 426.6 304.552308 
" clip-path="url(#p2f76d5cae8)" style="fill: none; stroke: #b0b0b0; stroke-opacity: 0.3; stroke-width: 0.5; stroke-linecap: square"/>
     </g>
     <g id="line2d_16">
      <defs>
       <path id="m7afaadc08e" d="M 0 0 
L -3.5 0 
" style="stroke: #000000; stroke-width: 0.8"/>
      </defs>
      <g>
       <use xlink:href="#m7afaadc08e" x="47.242344" y="304.552308" style="stroke: #000000; stroke-width: 0.8"/>
      </g>
     </g>
     <g id="text_9">
      <!-- 0 -->
      <g transform="translate(33.879844 308.351136) scale(0.1 -0.1)">
       <use xlink:href="#DejaVuSans-13"/>
      </g>
     </g>
    </g>
    <g id="ytick_2">
     <g id="line2d_17">
      <path d="M 47.242344 259.882851 
L 426.6 259.882851 
" clip-path="url(#p2f76d5cae8)" style="fill: none; stroke: #b0b0b0; stroke-opacity: 0.3; stroke-width: 0.5; stroke-linecap: square"/>
     </g>
     <g id="line2d_18">
      <g>
       <use xlink:href="#m7afaadc08e" x="47.242344" y="259.882851" style="stroke: #000000; stroke-width: 0.8"/>
      </g>
     </g>
     <g id="text_10">
      <!-- 5 -->
      <g transform="translate(33.879844 263.681679) scale(0.1 -0.1)">
       <use xlink:href="#DejaVuSans-18"/>
      </g>
     </g>
    </g>
    <g id="ytick_3">
     <g id="line2d_19">
      <path d="M 47.242344 215.213394 
L 426.6 215.213394 
" clip-path="url(#p2f76d5cae8)" style="fill: none; stroke: #b0b0b0; stroke-opacity: 0.3; stroke-width: 0.5; stroke-linecap: square"/>
     </g>
     <g id="line2d_20">
      <g>
       <use xlink:href="#m7afaadc08e" x="47.242344" y="215.213394" style="stroke: #000000; stroke-width: 0.8"/>
      </g>
     </g>
     <g id="text_11">
      <!-- 10 -->
      <g transform="translate(27.517344 219.012222) scale(0.1 -0.1)">
       <use xlink:href="#DejaVuSans-14"/>
       <use xlink:href="#DejaVuSans-13" transform="translate(63.625 0)"/>
      </g>
     </g>
    </g>
    <g id="ytick_4">
     <g id="line2d_21">
      <path d="M 47.242344 170.543937 
L 426.6 170.543937 
" clip-path="url(#p2f76d5cae8)" style="fill: none; stroke: #b0b0b0; stroke-opacity: 0.3; stroke-width: 0.5; stroke-linecap: square"/>
     </g>
     <g id="line2d_22">
      <g>
       <use xlink:href="#m7afaadc08e" x="47.242344" y="170.543937" style="stroke: #000000; stroke-width: 0.8"/>
      </g>
     </g>
     <g id="text_12">
      <!-- 15 -->
      <g transform="translate(27.517344 174.342765) scale(0.1 -0.1)">
       <use xlink:href="#DejaVuSans-14"/>
       <use xlink:href="#DejaVuSans-18" transform="translate(63.625 0)"/>
      </g>
     </g>
    </g>
    <g id="ytick_5">
     <g id="line2d_23">
      <path d="M 47.242344 125.874479 
L 426.6 125.874479 
" clip-path="url(#p2f76d5cae8)" style="fill: none; stroke: #b0b0b0; stroke-opacity: 0.3; stroke-width: 0.5; stroke-linecap: square"/>
     </g>
     <g id="line2d_24">
      <g>
       <use xlink:href="#m7afaadc08e" x="47.242344" y="125.874479" style="stroke: #000000; stroke-width: 0.8"/>
      </g>
     </g>
     <g id="text_13">
      <!-- 20 -->
      <g transform="translate(27.517344 129.673308) scale(0.1 -0.1)">
       <use xlink:href="#DejaVuSans-15"/>
       <use xlink:href="#DejaVuSans-13" transform="translate(63.625 0)"/>
      </g>
     </g>
    </g>
    <g id="ytick_6">
     <g id="line2d_25">
      <path d="M 47.242344 81.205022 
L 426.6 81.205022 
" clip-path="url(#p2f76d5cae8)" style="fill: none; stroke: #b0b0b0; stroke-opacity: 0.3; stroke-width: 0.5; stroke-linecap: square"/>
     </g>
     <g id="line2d_26">
      <g>
       <use xlink:href="#m7afaadc08e" x="47.242344" y="81.205022" style="stroke: #000000; stroke-width: 0.8"/>
      </g>
     </g>
     <g id="text_14">
      <!-- 25 -->
      <g transform="translate(27.517344 85.00385) scale(0.1 -0.1)">
       <use xlink:href="#DejaVuSans-15"/>
       <use xlink:href="#DejaVuSans-18" transform="translate(63.625 0)"/>
      </g>
     </g>
    </g>
    <g id="ytick_7">
     <g id="line2d_27">
      <path d="M 47.242344 36.535565 
L 426.6 36.535565 
" clip-path="url(#p2f76d5cae8)" style="fill: none; stroke: #b0b0b0; stroke-opacity: 0.3; stroke-width: 0.5; stroke-linecap: square"/>
     </g>
     <g id="line2d_28">
      <g>
       <use xlink:href="#m7afaadc08e" x="47.242344" y="36.535565" style="stroke: #000000; stroke-width: 0.8"/>
      </g>
     </g>
     <g id="text_15">
      <!-- 30 -->
      <g transform="translate(27.517344 40.334393) scale(0.1 -0.1)">
       <use xlink:href="#DejaVuSans-16"/>
       <use xlink:href="#DejaVuSans-13" transform="translate(63.625 0)"/>
      </g>
     </g>
    </g>
    <g id="text_16">
     <!-- Ângulo (°) -->
     <g transform="translate(21.115 196.669922) rotate(-90) scale(0.1 -0.1)">
      <defs>
       <path id="DejaVuSans-84" d="M 2188 4044 
L 1331 1722 
L 3047 1722 
L 2188 4044 
z
M 1831 4666 
L 2547 4666 
L 4325 0 
L 3669 0 
L 3244 1197 
L 1141 1197 
L 716 0 
L 50 0 
L 1831 4666 
z
M 1894 5941 
L 2482 5941 
L 3141 5110 
L 2707 5110 
L 2188 5666 
L 1669 5110 
L 1235 5110 
L 1894 5941 
z
" transform="scale(0.015625)"/>
       <path id="DejaVuSans-4a" d="M 2906 1791 
Q 2906 2416 2648 2759 
Q 2391 3103 1925 3103 
Q 1463 3103 1205 2759 
Q 947 2416 947 1791 
Q 947 1169 1205 825 
Q 1463 481 1925 481 
Q 2391 481 2648 825 
Q 2906 1169 2906 1791 
z
M 3481 434 
Q 3481 -459 3084 -895 
Q 2688 -1331 1869 -1331 
Q 1566 -1331 1297 -1286 
Q 1028 -1241 775 -1147 
L 775 -588 
Q 1028 -725 1275 -790 
Q 1522 -856 1778 -856 
Q 2344 -856 2625 -561 
Q 2906 -266 2906 331 
L 2906 616 
Q 2728 306 2450 153 
Q 2172 0 1784 0 
Q 1141 0 747 490 
Q 353 981 353 1791 
Q 353 2603 747 3093 
Q 1141 3584 1784 3584 
Q 2172 3584 2450 3431 
Q 2728 3278 2906 2969 
L 2906 3500 
L 3481 3500 
L 3481 434 
z
" transform="scale(0.015625)"/>
       <path id="DejaVuSans-58" d="M 544 1381 
L 544 3500 
L 1119 3500 
L 1119 1403 
Q 1119 906 1312 657 
Q 1506 409 1894 409 
Q 2359 409 2629 706 
Q 2900 1003 2900 1516 
L 2900 3500 
L 3475 3500 
L 3475 0 
L 2900 0 
L 2900 538 
Q 2691 219 2414 64 
Q 2138 -91 1772 -91 
Q 1169 -91 856 284 
Q 544 659 544 1381 
z
M 1991 3584 
L 1991 3584 
z
" transform="scale(0.015625)"/>
       <path id="DejaVuSans-4f" d="M 603 4863 
L 1178 4863 
L 1178 0 
L 603 0 
L 603 4863 
z
" transform="scale(0.015625)"/>
       <path id="DejaVuSans-72" d="M 1600 4347 
Q 1350 4347 1178 4173 
Q 1006 4000 1006 3750 
Q 1006 3503 1178 3333 
Q 1350 3163 1600 3163 
Q 1850 3163 2022 3333 
Q 2194 3503 2194 3750 
Q 2194 3997 2020 4172 
Q 1847 4347 1600 4347 
z
M 1600 4750 
Q 1800 4750 1984 4673 
Q 2169 4597 2303 4453 
Q 2447 4313 2519 4134 
Q 2591 3956 2591 3750 
Q 2591 3338 2302 3052 
Q 2013 2766 1594 2766 
Q 1172 2766 890 3047 
Q 609 3328 609 3750 
Q 609 4169 896 4459 
Q 1184 4750 1600 4750 
z
" transform="scale(0.015625)"/>
      </defs>
      <use xlink:href="#DejaVuSans-84"/>
      <use xlink:href="#DejaVuSans-51" transform="translate(68.40625 0)"/>
      <use xlink:href="#DejaVuSans-4a" transform="translate(131.78125 0)"/>
      <use xlink:href="#DejaVuSans-58" transform="translate(195.265625 0)"/>
      <use xlink:href="#DejaVuSans-4f" transform="translate(258.640625 0)"/>
      <use xlink:href="#DejaVuSans-52" transform="translate(286.421875 0)"/>
      <use xlink:href="#DejaVuSans-3" transform="translate(347.609375 0)"/>
      <use xlink:href="#DejaVuSans-b" transform="translate(379.390625 0)"/>
      <use xlink:href="#DejaVuSans-72" transform="translate(418.40625 0)"/>
      <use xlink:href="#DejaVuSans-c" transform="translate(468.40625 0)"/>
     </g>
    </g>
   </g>
   <g id="line2d_29">
    <path d="M 64.485874 304.552308 
L 81.954953 304.552308 
L 84.534871 277.763499 
L 86.914607 266.424246 
L 89.102917 255.281218 
L 91.482111 240.637668 
L 94.104709 222.776022 
L 98.850348 189.072792 
L 98.850348 189.072792 
L 101.494247 172.699551 
L 104.307832 160.91682 
L 109.185167 148.538136 
L 111.87584 140.508399 
L 111.87584 140.508399 
L 116.686851 112.78154 
L 122.96222 84.263406 
L 125.288484 72.128778 
L 125.288484 72.128778 
L 127.968572 61.40759 
L 130.514465 52.23386 
L 132.93536 45.532333 
L 135.348579 41.189729 
L 142.935158 40.582323 
L 144.527117 39.000015 
L 147.013177 41.760846 
L 151.891053 41.373214 
L 151.891053 41.373214 
L 154.399985 39.01179 
L 156.785671 41.772076 
L 159.103615 40.495432 
L 161.47073 38.133517 
L 163.937961 40.897323 
L 168.65532 38.33419 
L 170.964945 40.008857 
L 173.410128 39.824988 
L 175.768717 41.462561 
L 178.359428 40.142686 
L 180.575942 38.828216 
L 180.575942 38.828216 
L 183.09103 38.587001 
L 185.468833 38.071167 
L 190.35405 41.361064 
L 192.809948 40.04612 
L 195.13459 39.818091 
L 197.352288 40.378657 
L 199.769938 39.052653 
L 202.040567 41.772496 
L 204.516994 40.457472 
L 207.04053 40.22738 
L 209.388507 38.908782 
L 209.715852 38.908782 
L 212.558826 41.635682 
L 215.057739 40.327314 
L 217.350622 41.958419 
L 222.236817 39.334526 
L 224.651762 39.08561 
L 226.995103 39.654949 
L 229.403145 41.296248 
L 231.463211 39.709339 
L 231.463211 39.709339 
L 233.880011 41.348217 
L 238.698568 38.724788 
L 241.12531 40.367579 
L 243.713007 39.04212 
L 246.236981 40.690539 
L 251.143911 40.21841 
L 255.246451 41.344965 
L 257.548838 38.950173 
L 259.953841 38.721858 
L 262.477378 41.43836 
L 262.477378 41.43836 
L 264.949271 38.243663 
L 267.272728 39.887704 
L 269.735967 39.648883 
L 272.146714 38.31935 
L 274.599161 41.035673 
L 279.353661 38.422635 
L 281.795316 38.156298 
L 284.16869 39.769527 
L 286.839015 39.494926 
L 289.149516 38.134535 
L 289.149516 38.134535 
L 291.513591 40.821474 
L 294.045112 39.475244 
L 296.181238 39.998413 
L 298.610994 38.652602 
L 301.012339 41.334128 
L 303.192123 38.905173 
L 305.863118 41.593854 
L 310.642679 41.039756 
L 313.018629 38.623791 
L 315.373637 41.306728 
L 317.946215 39.956084 
L 318.272478 39.956084 
L 320.39758 38.61232 
L 322.893222 38.340613 
L 325.257529 41.017493 
L 327.737511 38.602474 
L 330.035365 40.216025 
L 332.57196 39.936814 
L 335.043313 38.594041 
L 337.393119 38.32329 
L 339.587919 38.851918 
L 342.01497 41.523714 
L 344.434371 40.162457 
L 352.036816 39.319687 
L 354.503095 40.921212 
L 356.754483 39.570104 
L 359.286983 39.28648 
L 361.242167 39.817055 
L 363.463317 41.416552 
L 366.03641 38.177275 
L 368.212949 39.789583 
L 370.719949 38.434589 
L 373.072459 38.152599 
L 375.454899 39.765998 
L 375.454899 39.765998 
L 377.925943 39.491602 
L 380.358274 38.131364 
L 382.886885 40.818482 
L 385.140772 38.365771 
L 387.509715 38.045348 
L 389.952426 40.698294 
L 392.468287 40.371054 
L 394.837436 38.968666 
L 397.153861 41.615831 
L 402.149291 40.977442 
L 402.149291 40.977442 
L 404.67002 39.585185 
L 406.856913 38.181974 
L 409.35647 41.891656 
L 409.35647 41.891656 
" clip-path="url(#p2f76d5cae8)" style="fill: none; stroke: #2563eb; stroke-width: 1.9; stroke-linecap: square"/>
   </g>
   <g id="line2d_30">
    <path d="M 47.242344 36.535565 
L 426.6 36.535565 
" clip-path="url(#p2f76d5cae8)" style="fill: none; stroke-dasharray: 4.44,1.92; stroke-dashoffset: 0; stroke: #9ca3af; stroke-width: 1.2"/>
   </g>
   <g id="patch_3">
    <path d="M 47.242344 317.877656 
L 47.242344 24.72 
" style="fill: none; stroke: #000000; stroke-width: 0.8; stroke-linejoin: miter; stroke-linecap: square"/>
   </g>
   <g id="patch_4">
    <path d="M 426.6 317.877656 
L 426.6 24.72 
" style="fill: none; stroke: #000000; stroke-width: 0.8; stroke-linejoin: miter; stroke-linecap: square"/>
   </g>
   <g id="patch_5">
    <path d="M 47.242344 317.877656 
L 426.6 317.877656 
" style="fill: none; stroke: #000000; stroke-width: 0.8; stroke-linejoin: miter; stroke-linecap: square"/>
   </g>
   <g id="patch_6">
    <path d="M 47.242344 24.72 
L 426.6 24.72 
" style="fill: none; stroke: #000000; stroke-width: 0.8; stroke-linejoin: miter; stroke-linecap: square"/>
   </g>
   <g id="text_17">
    <!-- ESP32 (QEMU) — J1: PID+tanh, malha fechada -->
    <g transform="translate(120.271172 18.72) scale(0.1 -0.1)">
     <defs>
      <path id="DejaVuSans-28" d="M 628 4666 
L 3578 4666 
L 3578 4134 
L 1259 4134 
L 1259 2753 
L 3481 2753 
L 3481 2222 
L 1259 2222 
L 1259 531 
L 3634 531 
L 3634 0 
L 628 0 
L 628 4666 
z
" transform="scale(0.015625)"/>
      <path id="DejaVuSans-36" d="M 3425 4513 
L 3425 3897 
Q 3066 4069 2747 4153 
Q 2428 4238 2131 4238 
Q 1616 4238 1336 4038 
Q 1056 3838 1056 3469 
Q 1056 3159 1242 3001 
Q 1428 2844 1947 2747 
L 2328 2669 
Q 3034 2534 3370 2195 
Q 3706 1856 3706 1288 
Q 3706 609 3251 259 
Q 2797 -91 1919 -91 
Q 1588 -91 1214 -16 
Q 841 59 441 206 
L 441 856 
Q 825 641 1194 531 
Q 1563 422 1919 422 
Q 2459 422 2753 634 
Q 3047 847 3047 1241 
Q 3047 1584 2836 1778 
Q 2625 1972 2144 2069 
L 1759 2144 
Q 1053 2284 737 2584 
Q 422 2884 422 3419 
Q 422 4038 858 4394 
Q 1294 4750 2059 4750 
Q 2388 4750 2728 4690 
Q 3069 4631 3425 4513 
z
" transform="scale(0.015625)"/>
      <path id="DejaVuSans-33" d="M 1259 4147 
L 1259 2394 
L 2053 2394 
Q 2494 2394 2734 2622 
Q 2975 2850 2975 3272 
Q 2975 3691 2734 3919 
Q 2494 4147 2053 4147 
L 1259 4147 
z
M 628 4666 
L 2053 4666 
Q 2838 4666 3239 4311 
Q 3641 3956 3641 3272 
Q 3641 2581 3239 2228 
Q 2838 1875 2053 1875 
L 1259 1875 
L 1259 0 
L 628 0 
L 628 4666 
z
" transform="scale(0.015625)"/>
      <path id="DejaVuSans-34" d="M 2522 4238 
Q 1834 4238 1429 3725 
Q 1025 3213 1025 2328 
Q 1025 1447 1429 934 
Q 1834 422 2522 422 
Q 3209 422 3611 934 
Q 4013 1447 4013 2328 
Q 4013 3213 3611 3725 
Q 3209 4238 2522 4238 
z
M 3406 84 
L 4238 -825 
L 3475 -825 
L 2784 -78 
Q 2681 -84 2626 -87 
Q 2572 -91 2522 -91 
Q 1538 -91 948 567 
Q 359 1225 359 2328 
Q 359 3434 948 4092 
Q 1538 4750 2522 4750 
Q 3503 4750 4090 4092 
Q 4678 3434 4678 2328 
Q 4678 1516 4351 937 
Q 4025 359 3406 84 
z
" transform="scale(0.015625)"/>
      <path id="DejaVuSans-30" d="M 628 4666 
L 1569 4666 
L 2759 1491 
L 3956 4666 
L 4897 4666 
L 4897 0 
L 4281 0 
L 4281 4097 
L 3078 897 
L 2444 897 
L 1241 4097 
L 1241 0 
L 628 0 
L 628 4666 
z
" transform="scale(0.015625)"/>
      <path id="DejaVuSans-38" d="M 556 4666 
L 1191 4666 
L 1191 1831 
Q 1191 1081 1462 751 
Q 1734 422 2344 422 
Q 2950 422 3222 751 
Q 3494 1081 3494 1831 
L 3494 4666 
L 4128 4666 
L 4128 1753 
Q 4128 841 3676 375 
Q 3225 -91 2344 -91 
Q 1459 -91 1007 375 
Q 556 841 556 1753 
L 556 4666 
z
" transform="scale(0.015625)"/>
      <path id="DejaVuSans-af6" d="M 313 1978 
L 6088 1978 
L 6088 1528 
L 313 1528 
L 313 1978 
z
" transform="scale(0.015625)"/>
      <path id="DejaVuSans-2d" d="M 628 4666 
L 1259 4666 
L 1259 325 
Q 1259 -519 939 -900 
Q 619 -1281 -91 -1281 
L -331 -1281 
L -331 -750 
L -134 -750 
Q 284 -750 456 -515 
Q 628 -281 628 325 
L 628 4666 
z
" transform="scale(0.015625)"/>
      <path id="DejaVuSans-1d" d="M 750 794 
L 1409 794 
L 1409 0 
L 750 0 
L 750 794 
z
M 750 3309 
L 1409 3309 
L 1409 2516 
L 750 2516 
L 750 3309 
z
" transform="scale(0.015625)"/>
      <path id="DejaVuSans-2c" d="M 628 4666 
L 1259 4666 
L 1259 0 
L 628 0 
L 628 4666 
z
" transform="scale(0.015625)"/>
      <path id="DejaVuSans-27" d="M 1259 4147 
L 1259 519 
L 2022 519 
Q 2988 519 3436 956 
Q 3884 1394 3884 2338 
Q 3884 3275 3436 3711 
Q 2988 4147 2022 4147 
L 1259 4147 
z
M 628 4666 
L 1925 4666 
Q 3281 4666 3915 4102 
Q 4550 3538 4550 2338 
Q 4550 1131 3912 565 
Q 3275 0 1925 0 
L 628 0 
L 628 4666 
z
" transform="scale(0.015625)"/>
      <path id="DejaVuSans-e" d="M 2944 4013 
L 2944 2272 
L 4684 2272 
L 4684 1741 
L 2944 1741 
L 2944 0 
L 2419 0 
L 2419 1741 
L 678 1741 
L 678 2272 
L 2419 2272 
L 2419 4013 
L 2944 4013 
z
" transform="scale(0.015625)"/>
      <path id="DejaVuSans-44" d="M 2194 1759 
Q 1497 1759 1228 1600 
Q 959 1441 959 1056 
Q 959 750 1161 570 
Q 1363 391 1709 391 
Q 2188 391 2477 730 
Q 2766 1069 2766 1631 
L 2766 1759 
L 2194 1759 
z
M 3341 1997 
L 3341 0 
L 2766 0 
L 2766 531 
Q 2569 213 2275 61 
Q 1981 -91 1556 -91 
Q 1019 -91 701 211 
Q 384 513 384 1019 
Q 384 1609 779 1909 
Q 1175 2209 1959 2209 
L 2766 2209 
L 2766 2266 
Q 2766 2663 2505 2880 
Q 2244 3097 1772 3097 
Q 1472 3097 1187 3025 
Q 903 2953 641 2809 
L 641 3341 
Q 956 3463 1253 3523 
Q 1550 3584 1831 3584 
Q 2591 3584 2966 3190 
Q 3341 2797 3341 1997 
z
" transform="scale(0.015625)"/>
      <path id="DejaVuSans-4b" d="M 3513 2113 
L 3513 0 
L 2938 0 
L 2938 2094 
Q 2938 2591 2744 2837 
Q 2550 3084 2163 3084 
Q 1697 3084 1428 2787 
Q 1159 2491 1159 1978 
L 1159 0 
L 581 0 
L 581 4863 
L 1159 4863 
L 1159 2956 
Q 1366 3272 1645 3428 
Q 1925 3584 2291 3584 
Q 2894 3584 3203 3211 
Q 3513 2838 3513 2113 
z
" transform="scale(0.015625)"/>
      <path id="DejaVuSans-f" d="M 750 794 
L 1409 794 
L 1409 256 
L 897 -744 
L 494 -744 
L 750 256 
L 750 794 
z
" transform="scale(0.015625)"/>
      <path id="DejaVuSans-49" d="M 2375 4863 
L 2375 4384 
L 1825 4384 
Q 1516 4384 1395 4259 
Q 1275 4134 1275 3809 
L 1275 3500 
L 2222 3500 
L 2222 3053 
L 1275 3053 
L 1275 0 
L 697 0 
L 697 3053 
L 147 3053 
L 147 3500 
L 697 3500 
L 697 3744 
Q 697 4328 969 4595 
Q 1241 4863 1831 4863 
L 2375 4863 
z
" transform="scale(0.015625)"/>
     </defs>
     <use xlink:href="#DejaVuSans-28"/>
     <use xlink:href="#DejaVuSans-36" transform="translate(63.1875 0)"/>
     <use xlink:href="#DejaVuSans-33" transform="translate(126.671875 0)"/>
     <use xlink:href="#DejaVuSans-16" transform="translate(186.96875 0)"/>
     <use xlink:href="#DejaVuSans-15" transform="translate(250.59375 0)"/>
     <use xlink:href="#DejaVuSans-3" transform="translate(314.21875 0)"/>
     <use xlink:href="#DejaVuSans-b" transform="translate(346 0)"/>
     <use xlink:href="#DejaVuSans-34" transform="translate(385.015625 0)"/>
     <use xlink:href="#DejaVuSans-28" transform="translate(463.734375 0)"/>
     <use xlink:href="#DejaVuSans-30" transform="translate(526.921875 0)"/>
     <use xlink:href="#DejaVuSans-38" transform="translate(613.203125 0)"/>
     <use xlink:href="#DejaVuSans-c" transform="translate(686.390625 0)"/>
     <use xlink:href="#DejaVuSans-3" transform="translate(725.40625 0)"/>
     <use xlink:href="#DejaVuSans-af6" transform="translate(757.1875 0)"/>
     <use xlink:href="#DejaVuSans-3" transform="translate(857.1875 0)"/>
     <use xlink:href="#DejaVuSans-2d" transform="translate(888.96875 0)"/>
     <use xlink:href="#DejaVuSans-14" transform="translate(918.46875 0)"/>
     <use xlink:href="#DejaVuSans-1d" transform="translate(982.09375 0)"/>
     <use xlink:href="#DejaVuSans-3" transform="translate(1015.78125 0)"/>
     <use xlink:href="#DejaVuSans-33" transform="translate(1047.5625 0)"/>
     <use xlink:href="#DejaVuSans-2c" transform="translate(1107.859375 0)"/>
     <use xlink:href="#DejaVuSans-27" transform="translate(1137.359375 0)"/>
     <use xlink:href="#DejaVuSans-e" transform="translate(1214.359375 0)"/>
     <use xlink:href="#DejaVuSans-57" transform="translate(1298.15625 0)"/>
     <use xlink:href="#DejaVuSans-44" transform="translate(1337.359375 0)"/>
     <use xlink:href="#DejaVuSans-51" transform="translate(1398.640625 0)"/>
     <use xlink:href="#DejaVuSans-4b" transform="translate(1462.015625 0)"/>
     <use xlink:href="#DejaVuSans-f" transform="translate(1525.390625 0)"/>
     <use xlink:href="#DejaVuSans-3" transform="translate(1557.171875 0)"/>
     <use xlink:href="#DejaVuSans-50" transform="translate(1588.953125 0)"/>
     <use xlink:href="#DejaVuSans-44" transform="translate(1686.359375 0)"/>
     <use xlink:href="#DejaVuSans-4f" transform="translate(1747.640625 0)"/>
     <use xlink:href="#DejaVuSans-4b" transform="translate(1775.421875 0)"/>
     <use xlink:href="#DejaVuSans-44" transform="translate(1838.796875 0)"/>
     <use xlink:href="#DejaVuSans-3" transform="translate(1900.078125 0)"/>
     <use xlink:href="#DejaVuSans-49" transform="translate(1931.859375 0)"/>
     <use xlink:href="#DejaVuSans-48" transform="translate(1967.0625 0)"/>
     <use xlink:href="#DejaVuSans-46" transform="translate(2028.59375 0)"/>
     <use xlink:href="#DejaVuSans-4b" transform="translate(2083.578125 0)"/>
     <use xlink:href="#DejaVuSans-44" transform="translate(2146.953125 0)"/>
     <use xlink:href="#DejaVuSans-47" transform="translate(2208.234375 0)"/>
     <use xlink:href="#DejaVuSans-44" transform="translate(2271.71875 0)"/>
    </g>
   </g>
   <g id="legend_1">
    <g id="patch_7">
     <path d="M 325.555 313.877656 
L 421 313.877656 
Q 422.6 313.877656 422.6 312.277656 
L 422.6 289.076406 
Q 422.6 287.476406 421 287.476406 
L 325.555 287.476406 
Q 323.955 287.476406 323.955 289.076406 
L 323.955 312.277656 
Q 323.955 313.877656 325.555 313.877656 
z
" style="fill: #ffffff; opacity: 0.8; stroke: #cccccc; stroke-linejoin: miter"/>
    </g>
    <g id="line2d_31">
     <path d="M 327.155 293.955156 
L 335.155 293.955156 
L 343.155 293.955156 
" style="fill: none; stroke: #2563eb; stroke-width: 1.9; stroke-linecap: square"/>
    </g>
    <g id="text_18">
     <!-- J1 medido (RTDE) -->
     <g transform="translate(349.555 296.755156) scale(0.08 -0.08)">
      <defs>
       <path id="DejaVuSans-35" d="M 2841 2188 
Q 3044 2119 3236 1894 
Q 3428 1669 3622 1275 
L 4263 0 
L 3584 0 
L 2988 1197 
Q 2756 1666 2539 1819 
Q 2322 1972 1947 1972 
L 1259 1972 
L 1259 0 
L 628 0 
L 628 4666 
L 2053 4666 
Q 2853 4666 3247 4331 
Q 3641 3997 3641 3322 
Q 3641 2881 3436 2590 
Q 3231 2300 2841 2188 
z
M 1259 4147 
L 1259 2491 
L 2053 2491 
Q 2509 2491 2742 2702 
Q 2975 2913 2975 3322 
Q 2975 3731 2742 3939 
Q 2509 4147 2053 4147 
L 1259 4147 
z
" transform="scale(0.015625)"/>
      </defs>
      <use xlink:href="#DejaVuSans-2d"/>
      <use xlink:href="#DejaVuSans-14" transform="translate(29.5 0)"/>
      <use xlink:href="#DejaVuSans-3" transform="translate(93.125 0)"/>
      <use xlink:href="#DejaVuSans-50" transform="translate(124.90625 0)"/>
      <use xlink:href="#DejaVuSans-48" transform="translate(222.3125 0)"/>
      <use xlink:href="#DejaVuSans-47" transform="translate(283.84375 0)"/>
      <use xlink:href="#DejaVuSans-4c" transform="translate(347.328125 0)"/>
      <use xlink:href="#DejaVuSans-47" transform="translate(375.109375 0)"/>
      <use xlink:href="#DejaVuSans-52" transform="translate(438.59375 0)"/>
      <use xlink:href="#DejaVuSans-3" transform="translate(499.78125 0)"/>
      <use xlink:href="#DejaVuSans-b" transform="translate(531.5625 0)"/>
      <use xlink:href="#DejaVuSans-35" transform="translate(570.578125 0)"/>
      <use xlink:href="#DejaVuSans-37" transform="translate(632.78125 0)"/>
      <use xlink:href="#DejaVuSans-27" transform="translate(693.859375 0)"/>
      <use xlink:href="#DejaVuSans-28" transform="translate(770.859375 0)"/>
      <use xlink:href="#DejaVuSans-c" transform="translate(834.046875 0)"/>
     </g>
    </g>
    <g id="line2d_32">
     <path d="M 327.155 305.955781 
L 335.155 305.955781 
L 343.155 305.955781 
" style="fill: none; stroke-dasharray: 4.44,1.92; stroke-dashoffset: 0; stroke: #9ca3af; stroke-width: 1.2"/>
    </g>
    <g id="text_19">
     <!-- alvo -->
     <g transform="translate(349.555 308.755781) scale(0.08 -0.08)">
      <use xlink:href="#DejaVuSans-44"/>
      <use xlink:href="#DejaVuSans-4f" transform="translate(61.28125 0)"/>
      <use xlink:href="#DejaVuSans-59" transform="translate(89.0625 0)"/>
      <use xlink:href="#DejaVuSans-52" transform="translate(148.25 0)"/>
     </g>
    </g>
   </g>
  </g>
  <g id="axes_2">
   <g id="patch_8">
    <path d="M 473.842344 317.877656 
L 853.2 317.877656 
L 853.2 24.72 
L 473.842344 24.72 
z
" style="fill: #ffffff"/>
   </g>
   <g id="matplotlib.axis_3">
    <g id="xtick_8">
     <g id="line2d_33">
      <path d="M 527.961466 317.877656 
L 527.961466 24.72 
" clip-path="url(#p63b2c10c7d)" style="fill: none; stroke: #b0b0b0; stroke-opacity: 0.3; stroke-width: 0.5; stroke-linecap: square"/>
     </g>
     <g id="line2d_34">
      <g>
       <use xlink:href="#me4084838f2" x="527.961466" y="317.877656" style="stroke: #000000; stroke-width: 0.8"/>
      </g>
     </g>
     <g id="text_20">
      <!-- 0.0 -->
      <g transform="translate(520.009903 332.475312) scale(0.1 -0.1)">
       <use xlink:href="#DejaVuSans-13"/>
       <use xlink:href="#DejaVuSans-11" transform="translate(63.625 0)"/>
       <use xlink:href="#DejaVuSans-13" transform="translate(95.40625 0)"/>
      </g>
     </g>
    </g>
    <g id="xtick_9">
     <g id="line2d_35">
      <path d="M 595.548695 317.877656 
L 595.548695 24.72 
" clip-path="url(#p63b2c10c7d)" style="fill: none; stroke: #b0b0b0; stroke-opacity: 0.3; stroke-width: 0.5; stroke-linecap: square"/>
     </g>
     <g id="line2d_36">
      <g>
       <use xlink:href="#me4084838f2" x="595.548695" y="317.877656" style="stroke: #000000; stroke-width: 0.8"/>
      </g>
     </g>
     <g id="text_21">
      <!-- 0.5 -->
      <g transform="translate(587.597133 332.475312) scale(0.1 -0.1)">
       <use xlink:href="#DejaVuSans-13"/>
       <use xlink:href="#DejaVuSans-11" transform="translate(63.625 0)"/>
       <use xlink:href="#DejaVuSans-18" transform="translate(95.40625 0)"/>
      </g>
     </g>
    </g>
    <g id="xtick_10">
     <g id="line2d_37">
      <path d="M 663.135925 317.877656 
L 663.135925 24.72 
" clip-path="url(#p63b2c10c7d)" style="fill: none; stroke: #b0b0b0; stroke-opacity: 0.3; stroke-width: 0.5; stroke-linecap: square"/>
     </g>
     <g id="line2d_38">
      <g>
       <use xlink:href="#me4084838f2" x="663.135925" y="317.877656" style="stroke: #000000; stroke-width: 0.8"/>
      </g>
     </g>
     <g id="text_22">
      <!-- 1.0 -->
      <g transform="translate(655.184362 332.475312) scale(0.1 -0.1)">
       <use xlink:href="#DejaVuSans-14"/>
       <use xlink:href="#DejaVuSans-11" transform="translate(63.625 0)"/>
       <use xlink:href="#DejaVuSans-13" transform="translate(95.40625 0)"/>
      </g>
     </g>
    </g>
    <g id="xtick_11">
     <g id="line2d_39">
      <path d="M 730.723154 317.877656 
L 730.723154 24.72 
" clip-path="url(#p63b2c10c7d)" style="fill: none; stroke: #b0b0b0; stroke-opacity: 0.3; stroke-width: 0.5; stroke-linecap: square"/>
     </g>
     <g id="line2d_40">
      <g>
       <use xlink:href="#me4084838f2" x="730.723154" y="317.877656" style="stroke: #000000; stroke-width: 0.8"/>
      </g>
     </g>
     <g id="text_23">
      <!-- 1.5 -->
      <g transform="translate(722.771592 332.475312) scale(0.1 -0.1)">
       <use xlink:href="#DejaVuSans-14"/>
       <use xlink:href="#DejaVuSans-11" transform="translate(63.625 0)"/>
       <use xlink:href="#DejaVuSans-18" transform="translate(95.40625 0)"/>
      </g>
     </g>
    </g>
    <g id="xtick_12">
     <g id="line2d_41">
      <path d="M 798.310383 317.877656 
L 798.310383 24.72 
" clip-path="url(#p63b2c10c7d)" style="fill: none; stroke: #b0b0b0; stroke-opacity: 0.3; stroke-width: 0.5; stroke-linecap: square"/>
     </g>
     <g id="line2d_42">
      <g>
       <use xlink:href="#me4084838f2" x="798.310383" y="317.877656" style="stroke: #000000; stroke-width: 0.8"/>
      </g>
     </g>
     <g id="text_24">
      <!-- 2.0 -->
      <g transform="translate(790.358821 332.475312) scale(0.1 -0.1)">
       <use xlink:href="#DejaVuSans-15"/>
       <use xlink:href="#DejaVuSans-11" transform="translate(63.625 0)"/>
       <use xlink:href="#DejaVuSans-13" transform="translate(95.40625 0)"/>
      </g>
     </g>
    </g>
    <g id="text_25">
     <!-- Tempo desde o início do movimento (s) -->
     <g transform="translate(565.138359 346.876094) scale(0.1 -0.1)">
      <use xlink:href="#DejaVuSans-37"/>
      <use xlink:href="#DejaVuSans-48" transform="translate(44.09375 0)"/>
      <use xlink:href="#DejaVuSans-50" transform="translate(105.625 0)"/>
      <use xlink:href="#DejaVuSans-53" transform="translate(203.03125 0)"/>
      <use xlink:href="#DejaVuSans-52" transform="translate(266.515625 0)"/>
      <use xlink:href="#DejaVuSans-3" transform="translate(327.703125 0)"/>
      <use xlink:href="#DejaVuSans-47" transform="translate(359.484375 0)"/>
      <use xlink:href="#DejaVuSans-48" transform="translate(422.96875 0)"/>
      <use xlink:href="#DejaVuSans-56" transform="translate(484.5 0)"/>
      <use xlink:href="#DejaVuSans-47" transform="translate(536.59375 0)"/>
      <use xlink:href="#DejaVuSans-48" transform="translate(600.078125 0)"/>
      <use xlink:href="#DejaVuSans-3" transform="translate(661.609375 0)"/>
      <use xlink:href="#DejaVuSans-52" transform="translate(693.390625 0)"/>
      <use xlink:href="#DejaVuSans-3" transform="translate(754.578125 0)"/>
      <use xlink:href="#DejaVuSans-4c" transform="translate(786.359375 0)"/>
      <use xlink:href="#DejaVuSans-51" transform="translate(814.140625 0)"/>
      <use xlink:href="#DejaVuSans-af" transform="translate(877.515625 0)"/>
      <use xlink:href="#DejaVuSans-46" transform="translate(905.296875 0)"/>
      <use xlink:href="#DejaVuSans-4c" transform="translate(960.28125 0)"/>
      <use xlink:href="#DejaVuSans-52" transform="translate(988.0625 0)"/>
      <use xlink:href="#DejaVuSans-3" transform="translate(1049.25 0)"/>
      <use xlink:href="#DejaVuSans-47" transform="translate(1081.03125 0)"/>
      <use xlink:href="#DejaVuSans-52" transform="translate(1144.515625 0)"/>
      <use xlink:href="#DejaVuSans-3" transform="translate(1205.703125 0)"/>
      <use xlink:href="#DejaVuSans-50" transform="translate(1237.484375 0)"/>
      <use xlink:href="#DejaVuSans-52" transform="translate(1334.890625 0)"/>
      <use xlink:href="#DejaVuSans-59" transform="translate(1396.078125 0)"/>
      <use xlink:href="#DejaVuSans-4c" transform="translate(1455.265625 0)"/>
      <use xlink:href="#DejaVuSans-50" transform="translate(1483.046875 0)"/>
      <use xlink:href="#DejaVuSans-48" transform="translate(1580.453125 0)"/>
      <use xlink:href="#DejaVuSans-51" transform="translate(1641.984375 0)"/>
      <use xlink:href="#DejaVuSans-57" transform="translate(1705.359375 0)"/>
      <use xlink:href="#DejaVuSans-52" transform="translate(1744.5625 0)"/>
      <use xlink:href="#DejaVuSans-3" transform="translate(1805.75 0)"/>
      <use xlink:href="#DejaVuSans-b" transform="translate(1837.53125 0)"/>
      <use xlink:href="#DejaVuSans-56" transform="translate(1876.546875 0)"/>
      <use xlink:href="#DejaVuSans-c" transform="translate(1928.640625 0)"/>
     </g>
    </g>
   </g>
   <g id="matplotlib.axis_4">
    <g id="ytick_8">
     <g id="line2d_43">
      <path d="M 473.842344 304.552308 
L 853.2 304.552308 
" clip-path="url(#p63b2c10c7d)" style="fill: none; stroke: #b0b0b0; stroke-opacity: 0.3; stroke-width: 0.5; stroke-linecap: square"/>
     </g>
     <g id="line2d_44">
      <g>
       <use xlink:href="#m7afaadc08e" x="473.842344" y="304.552308" style="stroke: #000000; stroke-width: 0.8"/>
      </g>
     </g>
     <g id="text_26">
      <!-- 0 -->
      <g transform="translate(460.479844 308.351136) scale(0.1 -0.1)">
       <use xlink:href="#DejaVuSans-13"/>
      </g>
     </g>
    </g>
    <g id="ytick_9">
     <g id="line2d_45">
      <path d="M 473.842344 245.328539 
L 853.2 245.328539 
" clip-path="url(#p63b2c10c7d)" style="fill: none; stroke: #b0b0b0; stroke-opacity: 0.3; stroke-width: 0.5; stroke-linecap: square"/>
     </g>
     <g id="line2d_46">
      <g>
       <use xlink:href="#m7afaadc08e" x="473.842344" y="245.328539" style="stroke: #000000; stroke-width: 0.8"/>
      </g>
     </g>
     <g id="text_27">
      <!-- 10 -->
      <g transform="translate(454.117344 249.127367) scale(0.1 -0.1)">
       <use xlink:href="#DejaVuSans-14"/>
       <use xlink:href="#DejaVuSans-13" transform="translate(63.625 0)"/>
      </g>
     </g>
    </g>
    <g id="ytick_10">
     <g id="line2d_47">
      <path d="M 473.842344 186.10477 
L 853.2 186.10477 
" clip-path="url(#p63b2c10c7d)" style="fill: none; stroke: #b0b0b0; stroke-opacity: 0.3; stroke-width: 0.5; stroke-linecap: square"/>
     </g>
     <g id="line2d_48">
      <g>
       <use xlink:href="#m7afaadc08e" x="473.842344" y="186.10477" style="stroke: #000000; stroke-width: 0.8"/>
      </g>
     </g>
     <g id="text_28">
      <!-- 20 -->
      <g transform="translate(454.117344 189.903598) scale(0.1 -0.1)">
       <use xlink:href="#DejaVuSans-15"/>
       <use xlink:href="#DejaVuSans-13" transform="translate(63.625 0)"/>
      </g>
     </g>
    </g>
    <g id="ytick_11">
     <g id="line2d_49">
      <path d="M 473.842344 126.881001 
L 853.2 126.881001 
" clip-path="url(#p63b2c10c7d)" style="fill: none; stroke: #b0b0b0; stroke-opacity: 0.3; stroke-width: 0.5; stroke-linecap: square"/>
     </g>
     <g id="line2d_50">
      <g>
       <use xlink:href="#m7afaadc08e" x="473.842344" y="126.881001" style="stroke: #000000; stroke-width: 0.8"/>
      </g>
     </g>
     <g id="text_29">
      <!-- 30 -->
      <g transform="translate(454.117344 130.67983) scale(0.1 -0.1)">
       <use xlink:href="#DejaVuSans-16"/>
       <use xlink:href="#DejaVuSans-13" transform="translate(63.625 0)"/>
      </g>
     </g>
    </g>
    <g id="ytick_12">
     <g id="line2d_51">
      <path d="M 473.842344 67.657232 
L 853.2 67.657232 
" clip-path="url(#p63b2c10c7d)" style="fill: none; stroke: #b0b0b0; stroke-opacity: 0.3; stroke-width: 0.5; stroke-linecap: square"/>
     </g>
     <g id="line2d_52">
      <g>
       <use xlink:href="#m7afaadc08e" x="473.842344" y="67.657232" style="stroke: #000000; stroke-width: 0.8"/>
      </g>
     </g>
     <g id="text_30">
      <!-- 40 -->
      <g transform="translate(454.117344 71.456061) scale(0.1 -0.1)">
       <defs>
        <path id="DejaVuSans-17" d="M 2419 4116 
L 825 1625 
L 2419 1625 
L 2419 4116 
z
M 2253 4666 
L 3047 4666 
L 3047 1625 
L 3713 1625 
L 3713 1100 
L 3047 1100 
L 3047 0 
L 2419 0 
L 2419 1100 
L 313 1100 
L 313 1709 
L 2253 4666 
z
" transform="scale(0.015625)"/>
       </defs>
       <use xlink:href="#DejaVuSans-17"/>
       <use xlink:href="#DejaVuSans-13" transform="translate(63.625 0)"/>
      </g>
     </g>
    </g>
    <g id="text_31">
     <!-- Ângulo (°) -->
     <g transform="translate(447.715 196.669922) rotate(-90) scale(0.1 -0.1)">
      <use xlink:href="#DejaVuSans-84"/>
      <use xlink:href="#DejaVuSans-51" transform="translate(68.40625 0)"/>
      <use xlink:href="#DejaVuSans-4a" transform="translate(131.78125 0)"/>
      <use xlink:href="#DejaVuSans-58" transform="translate(195.265625 0)"/>
      <use xlink:href="#DejaVuSans-4f" transform="translate(258.640625 0)"/>
      <use xlink:href="#DejaVuSans-52" transform="translate(286.421875 0)"/>
      <use xlink:href="#DejaVuSans-3" transform="translate(347.609375 0)"/>
      <use xlink:href="#DejaVuSans-b" transform="translate(379.390625 0)"/>
      <use xlink:href="#DejaVuSans-72" transform="translate(418.40625 0)"/>
      <use xlink:href="#DejaVuSans-c" transform="translate(468.40625 0)"/>
     </g>
    </g>
   </g>
   <g id="line2d_53">
    <path d="M 491.085874 304.552308 
L 494.4382 304.552308 
L 497.439073 304.552308 
L 500.250702 304.552308 
L 502.994743 304.552308 
L 505.860442 304.031787 
L 508.618001 304.031787 
L 511.348525 303.511265 
L 514.119601 302.470223 
L 516.836608 302.470223 
L 519.634719 301.949701 
L 522.365243 301.42918 
L 525.19039 300.908658 
L 527.961466 297.78553 
L 530.705507 293.100837 
L 533.463066 288.416145 
L 536.545044 287.375102 
L 539.464812 285.293016 
L 542.330511 281.649366 
L 545.115105 281.649366 
L 547.886181 280.087802 
L 550.657258 274.882588 
L 553.401299 272.800502 
L 556.185893 272.800502 
L 558.916417 270.718417 
L 561.646941 262.390074 
L 564.431535 259.787467 
L 567.175576 257.18486 
L 570.081827 254.582253 
L 572.893456 251.979646 
L 575.772672 249.377039 
L 578.584301 244.171825 
L 581.34186 238.44609 
L 584.613082 230.638268 
L 587.58692 225.433054 
L 590.452618 222.830447 
L 593.19666 217.104712 
L 595.994771 217.104712 
L 598.711778 211.899498 
L 601.469337 206.694284 
L 604.213378 204.091677 
L 606.95742 201.48907 
L 609.687944 195.763334 
L 612.580677 195.763334 
L 615.378788 187.955513 
L 618.149865 182.750299 
L 620.907424 177.545085 
L 623.651465 164.011528 
L 626.381989 161.408921 
L 629.112513 161.408921 
L 631.856555 150.477972 
L 634.587079 147.875365 
L 637.33112 140.067544 
L 640.102197 137.464937 
L 642.873273 134.86233 
L 645.617315 126.533987 
L 648.347839 123.93138 
L 651.118915 118.726166 
L 653.862957 116.123559 
L 656.782725 108.315738 
L 659.648424 102.590002 
L 662.581709 94.782181 
L 665.366303 86.97436 
L 668.096827 82.289668 
L 670.894939 79.687061 
L 673.652498 77.604975 
L 676.504679 70.317675 
L 679.275755 65.632983 
L 682.019797 64.59194 
L 684.763838 58.345683 
L 687.521397 57.30464 
L 690.305991 53.140469 
L 693.06355 52.099426 
L 695.807591 52.099426 
L 698.578668 51.058383 
L 701.309192 50.01734 
L 704.066751 48.976298 
L 706.837827 48.976298 
L 709.622421 47.414733 
L 712.366463 47.414733 
L 715.083469 45.332648 
L 717.868063 44.812126 
L 720.639139 43.771083 
L 723.383181 43.771083 
L 726.154257 43.771083 
L 728.938851 42.730041 
L 731.669375 42.730041 
L 734.494521 42.209519 
L 737.30615 42.209519 
L 740.090744 42.209519 
L 742.834786 41.688998 
L 745.605862 41.168476 
L 748.363421 41.168476 
L 751.17505 40.647955 
L 753.959643 40.647955 
L 756.703685 40.127434 
L 759.461244 40.127434 
L 762.178251 40.127434 
L 764.922292 39.606912 
L 767.693369 39.606912 
L 770.43741 39.606912 
L 775.060377 39.606912 
L 785.847298 39.086391 
L 788.726514 38.565869 
L 791.457038 38.565869 
L 794.20108 38.565869 
L 796.972156 38.565869 
L 799.70268 38.565869 
L 802.446722 38.565869 
L 805.217798 38.565869 
L 807.975357 38.565869 
L 810.854573 38.565869 
L 813.652684 38.565869 
L 816.396726 38.565869 
L 819.275942 38.565869 
L 822.101088 38.565869 
L 824.831612 38.565869 
L 827.602689 38.565869 
L 830.34673 38.565869 
L 833.104289 38.565869 
L 835.95647 38.045348 
" clip-path="url(#p63b2c10c7d)" style="fill: none; stroke: #ea580c; stroke-width: 1.9; stroke-linecap: square"/>
   </g>
   <g id="line2d_54">
    <path d="M 473.842344 38.045348 
L 853.2 38.045348 
" clip-path="url(#p63b2c10c7d)" style="fill: none; stroke-dasharray: 4.44,1.92; stroke-dashoffset: 0; stroke: #9ca3af; stroke-width: 1.2"/>
   </g>
   <g id="patch_9">
    <path d="M 473.842344 317.877656 
L 473.842344 24.72 
" style="fill: none; stroke: #000000; stroke-width: 0.8; stroke-linejoin: miter; stroke-linecap: square"/>
   </g>
   <g id="patch_10">
    <path d="M 853.2 317.877656 
L 853.2 24.72 
" style="fill: none; stroke: #000000; stroke-width: 0.8; stroke-linejoin: miter; stroke-linecap: square"/>
   </g>
   <g id="patch_11">
    <path d="M 473.842344 317.877656 
L 853.2 317.877656 
" style="fill: none; stroke: #000000; stroke-width: 0.8; stroke-linejoin: miter; stroke-linecap: square"/>
   </g>
   <g id="patch_12">
    <path d="M 473.842344 24.72 
L 853.2 24.72 
" style="fill: none; stroke: #000000; stroke-width: 0.8; stroke-linejoin: miter; stroke-linecap: square"/>
   </g>
   <g id="text_32">
    <!-- Arduino UNO (simavr) — J6: curva S via buffer look-ahead -->
    <g transform="translate(519.092266 18.72) scale(0.1 -0.1)">
     <defs>
      <path id="DejaVuSans-24" d="M 2188 4044 
L 1331 1722 
L 3047 1722 
L 2188 4044 
z
M 1831 4666 
L 2547 4666 
L 4325 0 
L 3669 0 
L 3244 1197 
L 1141 1197 
L 716 0 
L 50 0 
L 1831 4666 
z
" transform="scale(0.015625)"/>
      <path id="DejaVuSans-55" d="M 2631 2963 
Q 2534 3019 2420 3045 
Q 2306 3072 2169 3072 
Q 1681 3072 1420 2755 
Q 1159 2438 1159 1844 
L 1159 0 
L 581 0 
L 581 3500 
L 1159 3500 
L 1159 2956 
Q 1341 3275 1631 3429 
Q 1922 3584 2338 3584 
Q 2397 3584 2469 3576 
Q 2541 3569 2628 3553 
L 2631 2963 
z
" transform="scale(0.015625)"/>
      <path id="DejaVuSans-31" d="M 628 4666 
L 1478 4666 
L 3547 763 
L 3547 4666 
L 4159 4666 
L 4159 0 
L 3309 0 
L 1241 3903 
L 1241 0 
L 628 0 
L 628 4666 
z
" transform="scale(0.015625)"/>
      <path id="DejaVuSans-32" d="M 2522 4238 
Q 1834 4238 1429 3725 
Q 1025 3213 1025 2328 
Q 1025 1447 1429 934 
Q 1834 422 2522 422 
Q 3209 422 3611 934 
Q 4013 1447 4013 2328 
Q 4013 3213 3611 3725 
Q 3209 4238 2522 4238 
z
M 2522 4750 
Q 3503 4750 4090 4092 
Q 4678 3434 4678 2328 
Q 4678 1225 4090 567 
Q 3503 -91 2522 -91 
Q 1538 -91 948 565 
Q 359 1222 359 2328 
Q 359 3434 948 4092 
Q 1538 4750 2522 4750 
z
" transform="scale(0.015625)"/>
      <path id="DejaVuSans-19" d="M 2113 2584 
Q 1688 2584 1439 2293 
Q 1191 2003 1191 1497 
Q 1191 994 1439 701 
Q 1688 409 2113 409 
Q 2538 409 2786 701 
Q 3034 994 3034 1497 
Q 3034 2003 2786 2293 
Q 2538 2584 2113 2584 
z
M 3366 4563 
L 3366 3988 
Q 3128 4100 2886 4159 
Q 2644 4219 2406 4219 
Q 1781 4219 1451 3797 
Q 1122 3375 1075 2522 
Q 1259 2794 1537 2939 
Q 1816 3084 2150 3084 
Q 2853 3084 3261 2657 
Q 3669 2231 3669 1497 
Q 3669 778 3244 343 
Q 2819 -91 2113 -91 
Q 1303 -91 875 529 
Q 447 1150 447 2328 
Q 447 3434 972 4092 
Q 1497 4750 2381 4750 
Q 2619 4750 2861 4703 
Q 3103 4656 3366 4563 
z
" transform="scale(0.015625)"/>
      <path id="DejaVuSans-45" d="M 3116 1747 
Q 3116 2381 2855 2742 
Q 2594 3103 2138 3103 
Q 1681 3103 1420 2742 
Q 1159 2381 1159 1747 
Q 1159 1113 1420 752 
Q 1681 391 2138 391 
Q 2594 391 2855 752 
Q 3116 1113 3116 1747 
z
M 1159 2969 
Q 1341 3281 1617 3432 
Q 1894 3584 2278 3584 
Q 2916 3584 3314 3078 
Q 3713 2572 3713 1747 
Q 3713 922 3314 415 
Q 2916 -91 2278 -91 
Q 1894 -91 1617 61 
Q 1341 213 1159 525 
L 1159 0 
L 581 0 
L 581 4863 
L 1159 4863 
L 1159 2969 
z
" transform="scale(0.015625)"/>
      <path id="DejaVuSans-13ae" d="M 4531 4863 
L 4531 4384 
L 3981 4384 
Q 3672 4384 3551 4259 
Q 3431 4134 3431 3809 
L 3431 3500 
L 4378 3500 
L 4378 3053 
L 3431 3053 
L 3431 0 
L 2853 0 
L 2853 3053 
L 1275 3053 
L 1275 0 
L 697 0 
L 697 3053 
L 147 3053 
L 147 3500 
L 697 3500 
L 697 3744 
Q 697 4328 969 4595 
Q 1241 4863 1831 4863 
L 2375 4863 
L 2375 4384 
L 1825 4384 
Q 1516 4384 1394 4259 
Q 1275 4134 1275 3809 
L 1275 3500 
L 2853 3500 
L 2853 3744 
Q 2853 4328 3125 4595 
Q 3397 4863 3988 4863 
L 4531 4863 
z
" transform="scale(0.015625)"/>
      <path id="DejaVuSans-4e" d="M 581 4863 
L 1159 4863 
L 1159 1991 
L 2875 3500 
L 3609 3500 
L 1753 1863 
L 3688 0 
L 2938 0 
L 1159 1709 
L 1159 0 
L 581 0 
L 581 4863 
z
" transform="scale(0.015625)"/>
      <path id="DejaVuSans-10" d="M 313 2009 
L 1997 2009 
L 1997 1497 
L 313 1497 
L 313 2009 
z
" transform="scale(0.015625)"/>
     </defs>
     <use xlink:href="#DejaVuSans-24"/>
     <use xlink:href="#DejaVuSans-55" transform="translate(68.40625 0)"/>
     <use xlink:href="#DejaVuSans-47" transform="translate(107.765625 0)"/>
     <use xlink:href="#DejaVuSans-58" transform="translate(171.25 0)"/>
     <use xlink:href="#DejaVuSans-4c" transform="translate(234.625 0)"/>
     <use xlink:href="#DejaVuSans-51" transform="translate(262.40625 0)"/>
     <use xlink:href="#DejaVuSans-52" transform="translate(325.78125 0)"/>
     <use xlink:href="#DejaVuSans-3" transform="translate(386.96875 0)"/>
     <use xlink:href="#DejaVuSans-38" transform="translate(418.75 0)"/>
     <use xlink:href="#DejaVuSans-31" transform="translate(491.9375 0)"/>
     <use xlink:href="#DejaVuSans-32" transform="translate(566.75 0)"/>
     <use xlink:href="#DejaVuSans-3" transform="translate(645.46875 0)"/>
     <use xlink:href="#DejaVuSans-b" transform="translate(677.25 0)"/>
     <use xlink:href="#DejaVuSans-56" transform="translate(716.265625 0)"/>
     <use xlink:href="#DejaVuSans-4c" transform="translate(768.359375 0)"/>
     <use xlink:href="#DejaVuSans-50" transform="translate(796.140625 0)"/>
     <use xlink:href="#DejaVuSans-44" transform="translate(893.546875 0)"/>
     <use xlink:href="#DejaVuSans-59" transform="translate(954.828125 0)"/>
     <use xlink:href="#DejaVuSans-55" transform="translate(1014.015625 0)"/>
     <use xlink:href="#DejaVuSans-c" transform="translate(1055.125 0)"/>
     <use xlink:href="#DejaVuSans-3" transform="translate(1094.140625 0)"/>
     <use xlink:href="#DejaVuSans-af6" transform="translate(1125.921875 0)"/>
     <use xlink:href="#DejaVuSans-3" transform="translate(1225.921875 0)"/>
     <use xlink:href="#DejaVuSans-2d" transform="translate(1257.703125 0)"/>
     <use xlink:href="#DejaVuSans-19" transform="translate(1287.203125 0)"/>
     <use xlink:href="#DejaVuSans-1d" transform="translate(1350.828125 0)"/>
     <use xlink:href="#DejaVuSans-3" transform="translate(1384.515625 0)"/>
     <use xlink:href="#DejaVuSans-46" transform="translate(1416.296875 0)"/>
     <use xlink:href="#DejaVuSans-58" transform="translate(1471.28125 0)"/>
     <use xlink:href="#DejaVuSans-55" transform="translate(1534.65625 0)"/>
     <use xlink:href="#DejaVuSans-59" transform="translate(1575.765625 0)"/>
     <use xlink:href="#DejaVuSans-44" transform="translate(1634.953125 0)"/>
     <use xlink:href="#DejaVuSans-3" transform="translate(1696.234375 0)"/>
     <use xlink:href="#DejaVuSans-36" transform="translate(1728.015625 0)"/>
     <use xlink:href="#DejaVuSans-3" transform="translate(1791.5 0)"/>
     <use xlink:href="#DejaVuSans-59" transform="translate(1823.28125 0)"/>
     <use xlink:href="#DejaVuSans-4c" transform="translate(1882.46875 0)"/>
     <use xlink:href="#DejaVuSans-44" transform="translate(1910.25 0)"/>
     <use xlink:href="#DejaVuSans-3" transform="translate(1971.53125 0)"/>
     <use xlink:href="#DejaVuSans-45" transform="translate(2003.3125 0)"/>
     <use xlink:href="#DejaVuSans-58" transform="translate(2066.796875 0)"/>
     <use xlink:href="#DejaVuSans-13ae" transform="translate(2130.171875 0)"/>
     <use xlink:href="#DejaVuSans-48" transform="translate(2199.0625 0)"/>
     <use xlink:href="#DejaVuSans-55" transform="translate(2260.59375 0)"/>
     <use xlink:href="#DejaVuSans-3" transform="translate(2301.703125 0)"/>
     <use xlink:href="#DejaVuSans-4f" transform="translate(2333.484375 0)"/>
     <use xlink:href="#DejaVuSans-52" transform="translate(2361.265625 0)"/>
     <use xlink:href="#DejaVuSans-52" transform="translate(2422.453125 0)"/>
     <use xlink:href="#DejaVuSans-4e" transform="translate(2483.640625 0)"/>
     <use xlink:href="#DejaVuSans-10" transform="translate(2541.546875 0)"/>
     <use xlink:href="#DejaVuSans-44" transform="translate(2577.625 0)"/>
     <use xlink:href="#DejaVuSans-4b" transform="translate(2638.90625 0)"/>
     <use xlink:href="#DejaVuSans-48" transform="translate(2702.28125 0)"/>
     <use xlink:href="#DejaVuSans-44" transform="translate(2763.8125 0)"/>
     <use xlink:href="#DejaVuSans-47" transform="translate(2825.09375 0)"/>
    </g>
   </g>
   <g id="legend_2">
    <g id="patch_13">
     <path d="M 704.83625 313.877656 
L 847.6 313.877656 
Q 849.2 313.877656 849.2 312.277656 
L 849.2 289.076406 
Q 849.2 287.476406 847.6 287.476406 
L 704.83625 287.476406 
Q 703.23625 287.476406 703.23625 289.076406 
L 703.23625 312.277656 
Q 703.23625 313.877656 704.83625 313.877656 
z
" style="fill: #ffffff; opacity: 0.8; stroke: #cccccc; stroke-linejoin: miter"/>
    </g>
    <g id="line2d_55">
     <path d="M 706.43625 293.955156 
L 714.43625 293.955156 
L 722.43625 293.955156 
" style="fill: none; stroke: #ea580c; stroke-width: 1.9; stroke-linecap: square"/>
    </g>
    <g id="text_33">
     <!-- J6 medido (encoder, ponte 3) -->
     <g transform="translate(728.83625 296.755156) scale(0.08 -0.08)">
      <use xlink:href="#DejaVuSans-2d"/>
      <use xlink:href="#DejaVuSans-19" transform="translate(29.5 0)"/>
      <use xlink:href="#DejaVuSans-3" transform="translate(93.125 0)"/>
      <use xlink:href="#DejaVuSans-50" transform="translate(124.90625 0)"/>
      <use xlink:href="#DejaVuSans-48" transform="translate(222.3125 0)"/>
      <use xlink:href="#DejaVuSans-47" transform="translate(283.84375 0)"/>
      <use xlink:href="#DejaVuSans-4c" transform="translate(347.328125 0)"/>
      <use xlink:href="#DejaVuSans-47" transform="translate(375.109375 0)"/>
      <use xlink:href="#DejaVuSans-52" transform="translate(438.59375 0)"/>
      <use xlink:href="#DejaVuSans-3" transform="translate(499.78125 0)"/>
      <use xlink:href="#DejaVuSans-b" transform="translate(531.5625 0)"/>
      <use xlink:href="#DejaVuSans-48" transform="translate(570.578125 0)"/>
      <use xlink:href="#DejaVuSans-51" transform="translate(632.109375 0)"/>
      <use xlink:href="#DejaVuSans-46" transform="translate(695.484375 0)"/>
      <use xlink:href="#DejaVuSans-52" transform="translate(750.46875 0)"/>
      <use xlink:href="#DejaVuSans-47" transform="translate(811.65625 0)"/>
      <use xlink:href="#DejaVuSans-48" transform="translate(875.140625 0)"/>
      <use xlink:href="#DejaVuSans-55" transform="translate(936.671875 0)"/>
      <use xlink:href="#DejaVuSans-f" transform="translate(977.78125 0)"/>
      <use xlink:href="#DejaVuSans-3" transform="translate(1009.5625 0)"/>
      <use xlink:href="#DejaVuSans-53" transform="translate(1041.34375 0)"/>
      <use xlink:href="#DejaVuSans-52" transform="translate(1104.828125 0)"/>
      <use xlink:href="#DejaVuSans-51" transform="translate(1166.015625 0)"/>
      <use xlink:href="#DejaVuSans-57" transform="translate(1229.390625 0)"/>
      <use xlink:href="#DejaVuSans-48" transform="translate(1268.59375 0)"/>
      <use xlink:href="#DejaVuSans-3" transform="translate(1330.125 0)"/>
      <use xlink:href="#DejaVuSans-16" transform="translate(1361.90625 0)"/>
      <use xlink:href="#DejaVuSans-c" transform="translate(1425.53125 0)"/>
     </g>
    </g>
    <g id="line2d_56">
     <path d="M 706.43625 305.955781 
L 714.43625 305.955781 
L 722.43625 305.955781 
" style="fill: none; stroke-dasharray: 4.44,1.92; stroke-dashoffset: 0; stroke: #9ca3af; stroke-width: 1.2"/>
    </g>
    <g id="text_34">
     <!-- alvo -->
     <g transform="translate(728.83625 308.755781) scale(0.08 -0.08)">
      <use xlink:href="#DejaVuSans-44"/>
      <use xlink:href="#DejaVuSans-4f" transform="translate(61.28125 0)"/>
      <use xlink:href="#DejaVuSans-59" transform="translate(89.0625 0)"/>
      <use xlink:href="#DejaVuSans-52" transform="translate(148.25 0)"/>
     </g>
    </g>
   </g>
  </g>
 </g>
 <defs>
  <clipPath id="p2f76d5cae8">
   <rect x="47.242344" y="24.72" width="379.357656" height="293.157656"/>
  </clipPath>
  <clipPath id="p63b2c10c7d">
   <rect x="473.842344" y="24.72" width="379.357656" height="293.157656"/>
  </clipPath>
 </defs>
</svg>
