<?xml version="1.0" encoding="utf-8" standalone="no"?>
<!DOCTYPE svg PUBLIC "-//W3C//DTD SVG 1.1//EN"
  "http://www.w3.org/Graphics/SVG/1.1/DTD/svg11.dtd">
<svg xmlns:xlink="http://www.w3.org/1999/xlink" width="648pt" height="331.2pt" viewBox="0 0 648 331.2" xmlns="http://www.w3.org/2000/svg" version="1.1">
 <metadata>
  <rdf:RDF xmlns:dc="http://purl.org/dc/elements/1.1/" xmlns:cc="http://creativecommons.org/ns#" xmlns:rdf="http://www.w3.org/1999/02/22-rdf-syntax-ns#">
   <cc:Work>
    <dc:type rdf:resource="http://purl.org/dc/dcmitype/StillImage"/>
    <dc:date>2026-06-23T23:05:13.437492</dc:date>
    <dc:format>image/svg+xml</dc:format>
    <dc:creator>
     <cc:Agent>
      <dc:title>Matplotlib v3.11.0, https://matplotlib.org/</dc:title>
     </cc:Agent>
    </dc:creator>
   </cc:Work>
  </rdf:RDF>
 </metadata>
 <defs>
  <style type="text/css">*{stroke-linejoin: round; stroke-linecap: butt}</style>
 </defs>
 <g id="figure_1">
  <g id="patch_1">
   <path d="M 0 331.2 
L 648 331.2 
L 648 0 
L 0 0 
z
" style="fill: #ffffff"/>
  </g>
  <g id="axes_1">
   <g id="patch_2">
    <path d="M 45.082344 289.077656 
L 637.2 289.077656 
L 637.2 10.8 
L 45.082344 10.8 
z
" style="fill: #ffffff"/>
   </g>
   <g id="FillBetweenPolyCollection_1">
    <defs>
     <path id="mdc2c551421" d="M 71.996783 -307.751016 
L 71.996783 -296.751899 
L 75.392266 -296.751899 
L 78.801251 -296.751899 
L 82.210235 -296.751899 
L 85.592218 -296.751899 
L 88.987701 -296.751899 
L 92.396686 -296.751899 
L 95.785419 -296.751899 
L 99.187653 -296.751899 
L 102.589887 -296.751899 
L 105.992121 -296.751899 
L 109.374104 -296.751899 
L 112.796589 -296.751899 
L 116.185322 -296.751899 
L 119.567305 -296.751899 
L 122.97629 -296.751899 
L 126.392024 -296.751899 
L 129.807759 -296.751899 
L 133.189742 -296.751899 
L 136.571725 -296.751899 
L 139.960458 -296.751899 
L 143.355941 -296.751899 
L 146.751425 -296.751899 
L 150.146909 -296.751899 
L 153.555893 -296.751899 
L 156.958127 -296.751899 
L 160.34686 -296.751899 
L 163.735593 -296.751899 
L 167.144578 -296.751899 
L 170.533311 -296.751899 
L 173.922044 -296.751899 
L 177.304027 -296.751899 
L 180.686009 -296.751899 
L 184.074742 -296.751899 
L 187.456725 -296.751899 
L 190.845458 -296.751899 
L 194.261193 -296.751899 
L 197.676928 -296.751899 
L 201.065661 -296.751899 
L 204.467895 -296.751899 
L 207.87688 -296.751899 
L 211.265613 -296.751899 
L 214.654346 -296.751899 
L 218.05658 -296.751899 
L 221.465564 -296.751899 
L 224.881299 -296.751899 
L 228.290284 -296.751899 
L 231.679017 -296.751899 
L 235.088002 -296.751899 
L 238.476735 -296.751899 
L 241.865468 -296.751899 
L 245.260951 -296.751899 
L 248.642934 -296.751899 
L 252.038418 -296.751899 
L 255.4204 -296.751899 
L 258.822634 -296.751899 
L 262.238369 -296.751899 
L 265.647354 -296.751899 
L 269.063089 -296.751899 
L 272.451822 -296.751899 
L 275.847305 -296.751899 
L 279.229288 -296.751899 
L 282.631522 -296.751899 
L 286.054007 -296.751899 
L 289.449491 -296.751899 
L 292.838224 -296.751899 
L 296.226957 -296.751899 
L 299.635942 -296.751899 
L 303.031425 -296.751899 
L 306.433659 -296.751899 
L 309.842644 -296.751899 
L 313.231377 -296.751899 
L 316.640361 -296.751899 
L 320.035845 -296.751899 
L 323.438079 -296.751899 
L 326.833563 -296.751899 
L 330.229046 -296.751899 
L 333.617779 -296.751899 
L 337.020013 -296.751899 
L 340.435748 -296.751899 
L 343.837982 -296.751899 
L 347.253717 -296.751899 
L 350.649201 -296.751899 
L 354.064936 -296.751899 
L 357.47392 -296.751899 
L 360.869404 -296.751899 
L 364.258137 -296.751899 
L 367.64012 -296.751899 
L 371.028853 -296.751899 
L 374.444588 -296.751899 
L 377.833321 -296.751899 
L 381.222054 -296.751899 
L 384.604037 -296.751899 
L 388.013021 -296.751899 
L 391.401754 -296.751899 
L 394.817489 -296.751899 
L 398.199472 -296.751899 
L 401.608456 -296.751899 
L 405.01069 -296.751899 
L 408.412924 -296.751899 
L 411.808408 -296.751899 
L 415.203892 -296.751899 
L 418.592625 -296.751899 
L 421.994859 -296.751899 
L 425.390342 -296.751899 
L 428.792576 -296.751899 
L 432.201561 -296.751899 
L 435.603795 -296.751899 
L 439.02628 -296.751899 
L 442.408263 -296.751899 
L 445.803747 -296.751899 
L 449.19923 -296.751899 
L 452.601464 -296.751899 
L 455.990197 -296.751899 
L 459.405932 -296.751899 
L 462.814917 -296.751899 
L 466.223901 -296.751899 
L 469.626135 -296.751899 
L 473.04187 -296.751899 
L 476.450855 -296.751899 
L 479.859839 -296.751899 
L 483.241822 -296.751899 
L 486.630555 -296.751899 
L 490.032789 -296.751899 
L 493.448524 -296.751899 
L 496.857508 -296.751899 
L 500.246242 -296.751899 
L 503.641725 -296.751899 
L 507.043959 -296.751899 
L 510.459694 -296.751899 
L 513.841677 -296.751899 
L 517.23716 -296.751899 
L 520.619143 -296.751899 
L 524.034878 -296.751899 
L 527.55187 -296.751899 
L 531.04186 -296.751899 
L 534.599355 -296.751899 
L 538.150099 -296.751899 
L 542.105871 -296.751899 
L 545.58236 -296.751899 
L 549.045348 -296.751899 
L 552.474584 -296.751899 
L 555.863317 -296.751899 
L 559.258801 -296.751899 
L 562.667785 -296.751899 
L 566.063269 -296.751899 
L 569.479004 -296.751899 
L 572.867737 -296.751899 
L 576.24972 -296.751899 
L 579.665455 -296.751899 
L 583.074439 -296.751899 
L 586.476673 -296.751899 
L 589.878907 -296.751899 
L 593.294642 -296.751899 
L 596.683375 -296.751899 
L 600.085609 -296.751899 
L 603.494594 -296.751899 
L 606.896828 -296.751899 
L 610.285561 -296.751899 
L 610.285561 -307.751016 
L 610.285561 -307.751016 
L 606.896828 -307.751016 
L 603.494594 -307.751016 
L 600.085609 -307.751016 
L 596.683375 -307.751016 
L 593.294642 -307.751016 
L 589.878907 -307.751016 
L 586.476673 -307.751016 
L 583.074439 -307.751016 
L 579.665455 -307.751016 
L 576.24972 -307.751016 
L 572.867737 -307.751016 
L 569.479004 -307.751016 
L 566.063269 -307.751016 
L 562.667785 -307.751016 
L 559.258801 -307.751016 
L 555.863317 -307.751016 
L 552.474584 -307.751016 
L 549.045348 -307.751016 
L 545.58236 -307.751016 
L 542.105871 -307.751016 
L 538.150099 -307.751016 
L 534.599355 -307.751016 
L 531.04186 -307.751016 
L 527.55187 -307.751016 
L 524.034878 -307.751016 
L 520.619143 -307.751016 
L 517.23716 -307.751016 
L 513.841677 -307.751016 
L 510.459694 -307.751016 
L 507.043959 -307.751016 
L 503.641725 -307.751016 
L 500.246242 -307.751016 
L 496.857508 -307.751016 
L 493.448524 -307.751016 
L 490.032789 -307.751016 
L 486.630555 -307.751016 
L 483.241822 -307.751016 
L 479.859839 -307.751016 
L 476.450855 -307.751016 
L 473.04187 -307.751016 
L 469.626135 -307.751016 
L 466.223901 -307.751016 
L 462.814917 -307.751016 
L 459.405932 -307.751016 
L 455.990197 -307.751016 
L 452.601464 -307.751016 
L 449.19923 -307.751016 
L 445.803747 -307.751016 
L 442.408263 -307.751016 
L 439.02628 -307.751016 
L 435.603795 -307.751016 
L 432.201561 -307.751016 
L 428.792576 -307.751016 
L 425.390342 -307.751016 
L 421.994859 -307.751016 
L 418.592625 -307.751016 
L 415.203892 -307.751016 
L 411.808408 -307.751016 
L 408.412924 -307.751016 
L 405.01069 -307.751016 
L 401.608456 -307.751016 
L 398.199472 -307.751016 
L 394.817489 -307.751016 
L 391.401754 -307.751016 
L 388.013021 -307.751016 
L 384.604037 -307.751016 
L 381.222054 -307.751016 
L 377.833321 -307.751016 
L 374.444588 -307.751016 
L 371.028853 -307.751016 
L 367.64012 -307.751016 
L 364.258137 -307.751016 
L 360.869404 -307.751016 
L 357.47392 -307.751016 
L 354.064936 -307.751016 
L 350.649201 -307.751016 
L 347.253717 -307.751016 
L 343.837982 -307.751016 
L 340.435748 -307.751016 
L 337.020013 -307.751016 
L 333.617779 -307.751016 
L 330.229046 -307.751016 
L 326.833563 -307.751016 
L 323.438079 -307.751016 
L 320.035845 -307.751016 
L 316.640361 -307.751016 
L 313.231377 -307.751016 
L 309.842644 -307.751016 
L 306.433659 -307.751016 
L 303.031425 -307.751016 
L 299.635942 -307.751016 
L 296.226957 -307.751016 
L 292.838224 -307.751016 
L 289.449491 -307.751016 
L 286.054007 -307.751016 
L 282.631522 -307.751016 
L 279.229288 -307.751016 
L 275.847305 -307.751016 
L 272.451822 -307.751016 
L 269.063089 -307.751016 
L 265.647354 -307.751016 
L 262.238369 -307.751016 
L 258.822634 -307.751016 
L 255.4204 -307.751016 
L 252.038418 -307.751016 
L 248.642934 -307.751016 
L 245.260951 -307.751016 
L 241.865468 -307.751016 
L 238.476735 -307.751016 
L 235.088002 -307.751016 
L 231.679017 -307.751016 
L 228.290284 -307.751016 
L 224.881299 -307.751016 
L 221.465564 -307.751016 
L 218.05658 -307.751016 
L 214.654346 -307.751016 
L 211.265613 -307.751016 
L 207.87688 -307.751016 
L 204.467895 -307.751016 
L 201.065661 -307.751016 
L 197.676928 -307.751016 
L 194.261193 -307.751016 
L 190.845458 -307.751016 
L 187.456725 -307.751016 
L 184.074742 -307.751016 
L 180.686009 -307.751016 
L 177.304027 -307.751016 
L 173.922044 -307.751016 
L 170.533311 -307.751016 
L 167.144578 -307.751016 
L 163.735593 -307.751016 
L 160.34686 -307.751016 
L 156.958127 -307.751016 
L 153.555893 -307.751016 
L 150.146909 -307.751016 
L 146.751425 -307.751016 
L 143.355941 -307.751016 
L 139.960458 -307.751016 
L 136.571725 -307.751016 
L 133.189742 -307.751016 
L 129.807759 -307.751016 
L 126.392024 -307.751016 
L 122.97629 -307.751016 
L 119.567305 -307.751016 
L 116.185322 -307.751016 
L 112.796589 -307.751016 
L 109.374104 -307.751016 
L 105.992121 -307.751016 
L 102.589887 -307.751016 
L 99.187653 -307.751016 
L 95.785419 -307.751016 
L 92.396686 -307.751016 
L 88.987701 -307.751016 
L 85.592218 -307.751016 
L 82.210235 -307.751016 
L 78.801251 -307.751016 
L 75.392266 -307.751016 
L 71.996783 -307.751016 
z
" style="stroke: #16a34a; stroke-opacity: 0.1"/>
    </defs>
    <g clip-path="url(#p7a6927f21c)">
     <use xlink:href="#mdc2c551421" x="0" y="331.2" style="fill: #16a34a; fill-opacity: 0.1; stroke: #16a34a; stroke-opacity: 0.1"/>
    </g>
   </g>
   <g id="matplotlib.axis_1">
    <g id="xtick_1">
     <g id="line2d_1">
      <path d="M 71.996783 289.077656 
L 71.996783 10.8 
" clip-path="url(#p7a6927f21c)" style="fill: none; stroke: #b0b0b0; stroke-opacity: 0.3; stroke-width: 0.5; stroke-linecap: square"/>
     </g>
     <g id="line2d_2">
      <defs>
       <path id="mb5d5042d11" d="M 0 0 
L 0 3.5 
" style="stroke: #000000; stroke-width: 0.8"/>
      </defs>
      <g>
       <use xlink:href="#mb5d5042d11" x="71.996783" y="289.077656" style="stroke: #000000; stroke-width: 0.8"/>
      </g>
     </g>
     <g id="text_1">
      <!-- 0 -->
      <g transform="translate(68.815533 303.675312) scale(0.1 -0.1)">
       <defs>
        <path id="DejaVuSans-13" d="M 2034 4250 
Q 1547 4250 1301 3770 
Q 1056 3291 1056 2328 
Q 1056 1369 1301 889 
Q 1547 409 2034 409 
Q 2525 409 2770 889 
Q 3016 1369 3016 2328 
Q 3016 3291 2770 3770 
Q 2525 4250 2034 4250 
z
M 2034 4750 
Q 2819 4750 3233 4129 
Q 3647 3509 3647 2328 
Q 3647 1150 3233 529 
Q 2819 -91 2034 -91 
Q 1250 -91 836 529 
Q 422 1150 422 2328 
Q 422 3509 836 4129 
Q 1250 4750 2034 4750 
z
" transform="scale(0.015625)"/>
       </defs>
       <use xlink:href="#DejaVuSans-13"/>
      </g>
     </g>
    </g>
    <g id="xtick_2">
     <g id="line2d_3">
      <path d="M 139.501426 289.077656 
L 139.501426 10.8 
" clip-path="url(#p7a6927f21c)" style="fill: none; stroke: #b0b0b0; stroke-opacity: 0.3; stroke-width: 0.5; stroke-linecap: square"/>
     </g>
     <g id="line2d_4">
      <g>
       <use xlink:href="#mb5d5042d11" x="139.501426" y="289.077656" style="stroke: #000000; stroke-width: 0.8"/>
      </g>
     </g>
     <g id="text_2">
      <!-- 1 -->
      <g transform="translate(136.320176 303.675312) scale(0.1 -0.1)">
       <defs>
        <path id="DejaVuSans-14" d="M 794 531 
L 1825 531 
L 1825 4091 
L 703 3866 
L 703 4441 
L 1819 4666 
L 2450 4666 
L 2450 531 
L 3481 531 
L 3481 0 
L 794 0 
L 794 531 
z
" transform="scale(0.015625)"/>
       </defs>
       <use xlink:href="#DejaVuSans-14"/>
      </g>
     </g>
    </g>
    <g id="xtick_3">
     <g id="line2d_5">
      <path d="M 207.00607 289.077656 
L 207.00607 10.8 
" clip-path="url(#p7a6927f21c)" style="fill: none; stroke: #b0b0b0; stroke-opacity: 0.3; stroke-width: 0.5; stroke-linecap: square"/>
     </g>
     <g id="line2d_6">
      <g>
       <use xlink:href="#mb5d5042d11" x="207.00607" y="289.077656" style="stroke: #000000; stroke-width: 0.8"/>
      </g>
     </g>
     <g id="text_3">
      <!-- 2 -->
      <g transform="translate(203.82482 303.675312) scale(0.1 -0.1)">
       <defs>
        <path id="DejaVuSans-15" d="M 1228 531 
L 3431 531 
L 3431 0 
L 469 0 
L 469 531 
Q 828 903 1448 1529 
Q 2069 2156 2228 2338 
Q 2531 2678 2651 2914 
Q 2772 3150 2772 3378 
Q 2772 3750 2511 3984 
Q 2250 4219 1831 4219 
Q 1534 4219 1204 4116 
Q 875 4013 500 3803 
L 500 4441 
Q 881 4594 1212 4672 
Q 1544 4750 1819 4750 
Q 2544 4750 2975 4387 
Q 3406 4025 3406 3419 
Q 3406 3131 3298 2873 
Q 3191 2616 2906 2266 
Q 2828 2175 2409 1742 
Q 1991 1309 1228 531 
z
" transform="scale(0.015625)"/>
       </defs>
       <use xlink:href="#DejaVuSans-15"/>
      </g>
     </g>
    </g>
    <g id="xtick_4">
     <g id="line2d_7">
      <path d="M 274.510713 289.077656 
L 274.510713 10.8 
" clip-path="url(#p7a6927f21c)" style="fill: none; stroke: #b0b0b0; stroke-opacity: 0.3; stroke-width: 0.5; stroke-linecap: square"/>
     </g>
     <g id="line2d_8">
      <g>
       <use xlink:href="#mb5d5042d11" x="274.510713" y="289.077656" style="stroke: #000000; stroke-width: 0.8"/>
      </g>
     </g>
     <g id="text_4">
      <!-- 3 -->
      <g transform="translate(271.329463 303.675312) scale(0.1 -0.1)">
       <defs>
        <path id="DejaVuSans-16" d="M 2597 2516 
Q 3050 2419 3304 2112 
Q 3559 1806 3559 1356 
Q 3559 666 3084 287 
Q 2609 -91 1734 -91 
Q 1441 -91 1130 -33 
Q 819 25 488 141 
L 488 750 
Q 750 597 1062 519 
Q 1375 441 1716 441 
Q 2309 441 2620 675 
Q 2931 909 2931 1356 
Q 2931 1769 2642 2001 
Q 2353 2234 1838 2234 
L 1294 2234 
L 1294 2753 
L 1863 2753 
Q 2328 2753 2575 2939 
Q 2822 3125 2822 3475 
Q 2822 3834 2567 4026 
Q 2313 4219 1838 4219 
Q 1578 4219 1281 4162 
Q 984 4106 628 3988 
L 628 4550 
Q 988 4650 1302 4700 
Q 1616 4750 1894 4750 
Q 2613 4750 3031 4423 
Q 3450 4097 3450 3541 
Q 3450 3153 3228 2886 
Q 3006 2619 2597 2516 
z
" transform="scale(0.015625)"/>
       </defs>
       <use xlink:href="#DejaVuSans-16"/>
      </g>
     </g>
    </g>
    <g id="xtick_5">
     <g id="line2d_9">
      <path d="M 342.015357 289.077656 
L 342.015357 10.8 
" clip-path="url(#p7a6927f21c)" style="fill: none; stroke: #b0b0b0; stroke-opacity: 0.3; stroke-width: 0.5; stroke-linecap: square"/>
     </g>
     <g id="line2d_10">
      <g>
       <use xlink:href="#mb5d5042d11" x="342.015357" y="289.077656" style="stroke: #000000; stroke-width: 0.8"/>
      </g>
     </g>
     <g id="text_5">
      <!-- 4 -->
      <g transform="translate(338.834107 303.675312) scale(0.1 -0.1)">
       <defs>
        <path id="DejaVuSans-17" d="M 2419 4116 
L 825 1625 
L 2419 1625 
L 2419 4116 
z
M 2253 4666 
L 3047 4666 
L 3047 1625 
L 3713 1625 
L 3713 1100 
L 3047 1100 
L 3047 0 
L 2419 0 
L 2419 1100 
L 313 1100 
L 313 1709 
L 2253 4666 
z
" transform="scale(0.015625)"/>
       </defs>
       <use xlink:href="#DejaVuSans-17"/>
      </g>
     </g>
    </g>
    <g id="xtick_6">
     <g id="line2d_11">
      <path d="M 409.520001 289.077656 
L 409.520001 10.8 
" clip-path="url(#p7a6927f21c)" style="fill: none; stroke: #b0b0b0; stroke-opacity: 0.3; stroke-width: 0.5; stroke-linecap: square"/>
     </g>
     <g id="line2d_12">
      <g>
       <use xlink:href="#mb5d5042d11" x="409.520001" y="289.077656" style="stroke: #000000; stroke-width: 0.8"/>
      </g>
     </g>
     <g id="text_6">
      <!-- 5 -->
      <g transform="translate(406.338751 303.675312) scale(0.1 -0.1)">
       <defs>
        <path id="DejaVuSans-18" d="M 691 4666 
L 3169 4666 
L 3169 4134 
L 1269 4134 
L 1269 2991 
Q 1406 3038 1543 3061 
Q 1681 3084 1819 3084 
Q 2600 3084 3056 2656 
Q 3513 2228 3513 1497 
Q 3513 744 3044 326 
Q 2575 -91 1722 -91 
Q 1428 -91 1123 -41 
Q 819 9 494 109 
L 494 744 
Q 775 591 1075 516 
Q 1375 441 1709 441 
Q 2250 441 2565 725 
Q 2881 1009 2881 1497 
Q 2881 1984 2565 2268 
Q 2250 2553 1709 2553 
Q 1456 2553 1204 2497 
Q 953 2441 691 2322 
L 691 4666 
z
" transform="scale(0.015625)"/>
       </defs>
       <use xlink:href="#DejaVuSans-18"/>
      </g>
     </g>
    </g>
    <g id="xtick_7">
     <g id="line2d_13">
      <path d="M 477.024644 289.077656 
L 477.024644 10.8 
" clip-path="url(#p7a6927f21c)" style="fill: none; stroke: #b0b0b0; stroke-opacity: 0.3; stroke-width: 0.5; stroke-linecap: square"/>
     </g>
     <g id="line2d_14">
      <g>
       <use xlink:href="#mb5d5042d11" x="477.024644" y="289.077656" style="stroke: #000000; stroke-width: 0.8"/>
      </g>
     </g>
     <g id="text_7">
      <!-- 6 -->
      <g transform="translate(473.843394 303.675312) scale(0.1 -0.1)">
       <defs>
        <path id="DejaVuSans-19" d="M 2113 2584 
Q 1688 2584 1439 2293 
Q 1191 2003 1191 1497 
Q 1191 994 1439 701 
Q 1688 409 2113 409 
Q 2538 409 2786 701 
Q 3034 994 3034 1497 
Q 3034 2003 2786 2293 
Q 2538 2584 2113 2584 
z
M 3366 4563 
L 3366 3988 
Q 3128 4100 2886 4159 
Q 2644 4219 2406 4219 
Q 1781 4219 1451 3797 
Q 1122 3375 1075 2522 
Q 1259 2794 1537 2939 
Q 1816 3084 2150 3084 
Q 2853 3084 3261 2657 
Q 3669 2231 3669 1497 
Q 3669 778 3244 343 
Q 2819 -91 2113 -91 
Q 1303 -91 875 529 
Q 447 1150 447 2328 
Q 447 3434 972 4092 
Q 1497 4750 2381 4750 
Q 2619 4750 2861 4703 
Q 3103 4656 3366 4563 
z
" transform="scale(0.015625)"/>
       </defs>
       <use xlink:href="#DejaVuSans-19"/>
      </g>
     </g>
    </g>
    <g id="xtick_8">
     <g id="line2d_15">
      <path d="M 544.529288 289.077656 
L 544.529288 10.8 
" clip-path="url(#p7a6927f21c)" style="fill: none; stroke: #b0b0b0; stroke-opacity: 0.3; stroke-width: 0.5; stroke-linecap: square"/>
     </g>
     <g id="line2d_16">
      <g>
       <use xlink:href="#mb5d5042d11" x="544.529288" y="289.077656" style="stroke: #000000; stroke-width: 0.8"/>
      </g>
     </g>
     <g id="text_8">
      <!-- 7 -->
      <g transform="translate(541.348038 303.675312) scale(0.1 -0.1)">
       <defs>
        <path id="DejaVuSans-1a" d="M 525 4666 
L 3525 4666 
L 3525 4397 
L 1831 0 
L 1172 0 
L 2766 4134 
L 525 4134 
L 525 4666 
z
" transform="scale(0.015625)"/>
       </defs>
       <use xlink:href="#DejaVuSans-1a"/>
      </g>
     </g>
    </g>
    <g id="xtick_9">
     <g id="line2d_17">
      <path d="M 612.033931 289.077656 
L 612.033931 10.8 
" clip-path="url(#p7a6927f21c)" style="fill: none; stroke: #b0b0b0; stroke-opacity: 0.3; stroke-width: 0.5; stroke-linecap: square"/>
     </g>
     <g id="line2d_18">
      <g>
       <use xlink:href="#mb5d5042d11" x="612.033931" y="289.077656" style="stroke: #000000; stroke-width: 0.8"/>
      </g>
     </g>
     <g id="text_9">
      <!-- 8 -->
      <g transform="translate(608.852681 303.675312) scale(0.1 -0.1)">
       <defs>
        <path id="DejaVuSans-1b" d="M 2034 2216 
Q 1584 2216 1326 1975 
Q 1069 1734 1069 1313 
Q 1069 891 1326 650 
Q 1584 409 2034 409 
Q 2484 409 2743 651 
Q 3003 894 3003 1313 
Q 3003 1734 2745 1975 
Q 2488 2216 2034 2216 
z
M 1403 2484 
Q 997 2584 770 2862 
Q 544 3141 544 3541 
Q 544 4100 942 4425 
Q 1341 4750 2034 4750 
Q 2731 4750 3128 4425 
Q 3525 4100 3525 3541 
Q 3525 3141 3298 2862 
Q 3072 2584 2669 2484 
Q 3125 2378 3379 2068 
Q 3634 1759 3634 1313 
Q 3634 634 3220 271 
Q 2806 -91 2034 -91 
Q 1263 -91 848 271 
Q 434 634 434 1313 
Q 434 1759 690 2068 
Q 947 2378 1403 2484 
z
M 1172 3481 
Q 1172 3119 1398 2916 
Q 1625 2713 2034 2713 
Q 2441 2713 2670 2916 
Q 2900 3119 2900 3481 
Q 2900 3844 2670 4047 
Q 2441 4250 2034 4250 
Q 1625 4250 1398 4047 
Q 1172 3844 1172 3481 
z
" transform="scale(0.015625)"/>
       </defs>
       <use xlink:href="#DejaVuSans-1b"/>
      </g>
     </g>
    </g>
    <g id="text_10">
     <!-- Tempo desde o comando (s) -->
     <g transform="translate(270.582578 317.676094) scale(0.1 -0.1)">
      <defs>
       <path id="DejaVuSans-37" d="M -19 4666 
L 3928 4666 
L 3928 4134 
L 2272 4134 
L 2272 0 
L 1638 0 
L 1638 4134 
L -19 4134 
L -19 4666 
z
" transform="scale(0.015625)"/>
       <path id="DejaVuSans-48" d="M 3597 1894 
L 3597 1613 
L 953 1613 
Q 991 1019 1311 708 
Q 1631 397 2203 397 
Q 2534 397 2845 478 
Q 3156 559 3463 722 
L 3463 178 
Q 3153 47 2828 -22 
Q 2503 -91 2169 -91 
Q 1331 -91 842 396 
Q 353 884 353 1716 
Q 353 2575 817 3079 
Q 1281 3584 2069 3584 
Q 2775 3584 3186 3129 
Q 3597 2675 3597 1894 
z
M 3022 2063 
Q 3016 2534 2758 2815 
Q 2500 3097 2075 3097 
Q 1594 3097 1305 2825 
Q 1016 2553 972 2059 
L 3022 2063 
z
" transform="scale(0.015625)"/>
       <path id="DejaVuSans-50" d="M 3328 2828 
Q 3544 3216 3844 3400 
Q 4144 3584 4550 3584 
Q 5097 3584 5394 3201 
Q 5691 2819 5691 2113 
L 5691 0 
L 5113 0 
L 5113 2094 
Q 5113 2597 4934 2840 
Q 4756 3084 4391 3084 
Q 3944 3084 3684 2787 
Q 3425 2491 3425 1978 
L 3425 0 
L 2847 0 
L 2847 2094 
Q 2847 2600 2669 2842 
Q 2491 3084 2119 3084 
Q 1678 3084 1418 2786 
Q 1159 2488 1159 1978 
L 1159 0 
L 581 0 
L 581 3500 
L 1159 3500 
L 1159 2956 
Q 1356 3278 1631 3431 
Q 1906 3584 2284 3584 
Q 2666 3584 2933 3390 
Q 3200 3197 3328 2828 
z
" transform="scale(0.015625)"/>
       <path id="DejaVuSans-53" d="M 1159 525 
L 1159 -1331 
L 581 -1331 
L 581 3500 
L 1159 3500 
L 1159 2969 
Q 1341 3281 1617 3432 
Q 1894 3584 2278 3584 
Q 2916 3584 3314 3078 
Q 3713 2572 3713 1747 
Q 3713 922 3314 415 
Q 2916 -91 2278 -91 
Q 1894 -91 1617 61 
Q 1341 213 1159 525 
z
M 3116 1747 
Q 3116 2381 2855 2742 
Q 2594 3103 2138 3103 
Q 1681 3103 1420 2742 
Q 1159 2381 1159 1747 
Q 1159 1113 1420 752 
Q 1681 391 2138 391 
Q 2594 391 2855 752 
Q 3116 1113 3116 1747 
z
" transform="scale(0.015625)"/>
       <path id="DejaVuSans-52" d="M 1959 3097 
Q 1497 3097 1228 2736 
Q 959 2375 959 1747 
Q 959 1119 1226 758 
Q 1494 397 1959 397 
Q 2419 397 2687 759 
Q 2956 1122 2956 1747 
Q 2956 2369 2687 2733 
Q 2419 3097 1959 3097 
z
M 1959 3584 
Q 2709 3584 3137 3096 
Q 3566 2609 3566 1747 
Q 3566 888 3137 398 
Q 2709 -91 1959 -91 
Q 1206 -91 779 398 
Q 353 888 353 1747 
Q 353 2609 779 3096 
Q 1206 3584 1959 3584 
z
" transform="scale(0.015625)"/>
       <path id="DejaVuSans-3" transform="scale(0.015625)"/>
       <path id="DejaVuSans-47" d="M 2906 2969 
L 2906 4863 
L 3481 4863 
L 3481 0 
L 2906 0 
L 2906 525 
Q 2725 213 2448 61 
Q 2172 -91 1784 -91 
Q 1150 -91 751 415 
Q 353 922 353 1747 
Q 353 2572 751 3078 
Q 1150 3584 1784 3584 
Q 2172 3584 2448 3432 
Q 2725 3281 2906 2969 
z
M 947 1747 
Q 947 1113 1208 752 
Q 1469 391 1925 391 
Q 2381 391 2643 752 
Q 2906 1113 2906 1747 
Q 2906 2381 2643 2742 
Q 2381 3103 1925 3103 
Q 1469 3103 1208 2742 
Q 947 2381 947 1747 
z
" transform="scale(0.015625)"/>
       <path id="DejaVuSans-56" d="M 2834 3397 
L 2834 2853 
Q 2591 2978 2328 3040 
Q 2066 3103 1784 3103 
Q 1356 3103 1142 2972 
Q 928 2841 928 2578 
Q 928 2378 1081 2264 
Q 1234 2150 1697 2047 
L 1894 2003 
Q 2506 1872 2764 1633 
Q 3022 1394 3022 966 
Q 3022 478 2636 193 
Q 2250 -91 1575 -91 
Q 1294 -91 989 -36 
Q 684 19 347 128 
L 347 722 
Q 666 556 975 473 
Q 1284 391 1588 391 
Q 1994 391 2212 530 
Q 2431 669 2431 922 
Q 2431 1156 2273 1281 
Q 2116 1406 1581 1522 
L 1381 1569 
Q 847 1681 609 1914 
Q 372 2147 372 2553 
Q 372 3047 722 3315 
Q 1072 3584 1716 3584 
Q 2034 3584 2315 3537 
Q 2597 3491 2834 3397 
z
" transform="scale(0.015625)"/>
       <path id="DejaVuSans-46" d="M 3122 3366 
L 3122 2828 
Q 2878 2963 2633 3030 
Q 2388 3097 2138 3097 
Q 1578 3097 1268 2742 
Q 959 2388 959 1747 
Q 959 1106 1268 751 
Q 1578 397 2138 397 
Q 2388 397 2633 464 
Q 2878 531 3122 666 
L 3122 134 
Q 2881 22 2623 -34 
Q 2366 -91 2075 -91 
Q 1284 -91 818 406 
Q 353 903 353 1747 
Q 353 2603 823 3093 
Q 1294 3584 2113 3584 
Q 2378 3584 2631 3529 
Q 2884 3475 3122 3366 
z
" transform="scale(0.015625)"/>
       <path id="DejaVuSans-44" d="M 2194 1759 
Q 1497 1759 1228 1600 
Q 959 1441 959 1056 
Q 959 750 1161 570 
Q 1363 391 1709 391 
Q 2188 391 2477 730 
Q 2766 1069 2766 1631 
L 2766 1759 
L 2194 1759 
z
M 3341 1997 
L 3341 0 
L 2766 0 
L 2766 531 
Q 2569 213 2275 61 
Q 1981 -91 1556 -91 
Q 1019 -91 701 211 
Q 384 513 384 1019 
Q 384 1609 779 1909 
Q 1175 2209 1959 2209 
L 2766 2209 
L 2766 2266 
Q 2766 2663 2505 2880 
Q 2244 3097 1772 3097 
Q 1472 3097 1187 3025 
Q 903 2953 641 2809 
L 641 3341 
Q 956 3463 1253 3523 
Q 1550 3584 1831 3584 
Q 2591 3584 2966 3190 
Q 3341 2797 3341 1997 
z
" transform="scale(0.015625)"/>
       <path id="DejaVuSans-51" d="M 3513 2113 
L 3513 0 
L 2938 0 
L 2938 2094 
Q 2938 2591 2744 2837 
Q 2550 3084 2163 3084 
Q 1697 3084 1428 2787 
Q 1159 2491 1159 1978 
L 1159 0 
L 581 0 
L 581 3500 
L 1159 3500 
L 1159 2956 
Q 1366 3272 1645 3428 
Q 1925 3584 2291 3584 
Q 2894 3584 3203 3211 
Q 3513 2838 3513 2113 
z
" transform="scale(0.015625)"/>
       <path id="DejaVuSans-b" d="M 1984 4856 
Q 1566 4138 1362 3434 
Q 1159 2731 1159 2009 
Q 1159 1288 1364 580 
Q 1569 -128 1984 -844 
L 1484 -844 
Q 1016 -109 783 600 
Q 550 1309 550 2009 
Q 550 2706 781 3412 
Q 1013 4119 1484 4856 
L 1984 4856 
z
" transform="scale(0.015625)"/>
       <path id="DejaVuSans-c" d="M 513 4856 
L 1013 4856 
Q 1481 4119 1714 3412 
Q 1947 2706 1947 2009 
Q 1947 1309 1714 600 
Q 1481 -109 1013 -844 
L 513 -844 
Q 928 -128 1133 580 
Q 1338 1288 1338 2009 
Q 1338 2731 1133 3434 
Q 928 4138 513 4856 
z
" transform="scale(0.015625)"/>
      </defs>
      <use xlink:href="#DejaVuSans-37"/>
      <use xlink:href="#DejaVuSans-48" transform="translate(44.09375 0)"/>
      <use xlink:href="#DejaVuSans-50" transform="translate(105.625 0)"/>
      <use xlink:href="#DejaVuSans-53" transform="translate(203.03125 0)"/>
      <use xlink:href="#DejaVuSans-52" transform="translate(266.515625 0)"/>
      <use xlink:href="#DejaVuSans-3" transform="translate(327.703125 0)"/>
      <use xlink:href="#DejaVuSans-47" transform="translate(359.484375 0)"/>
      <use xlink:href="#DejaVuSans-48" transform="translate(422.96875 0)"/>
      <use xlink:href="#DejaVuSans-56" transform="translate(484.5 0)"/>
      <use xlink:href="#DejaVuSans-47" transform="translate(536.59375 0)"/>
      <use xlink:href="#DejaVuSans-48" transform="translate(600.078125 0)"/>
      <use xlink:href="#DejaVuSans-3" transform="translate(661.609375 0)"/>
      <use xlink:href="#DejaVuSans-52" transform="translate(693.390625 0)"/>
      <use xlink:href="#DejaVuSans-3" transform="translate(754.578125 0)"/>
      <use xlink:href="#DejaVuSans-46" transform="translate(786.359375 0)"/>
      <use xlink:href="#DejaVuSans-52" transform="translate(841.34375 0)"/>
      <use xlink:href="#DejaVuSans-50" transform="translate(902.53125 0)"/>
      <use xlink:href="#DejaVuSans-44" transform="translate(999.9375 0)"/>
      <use xlink:href="#DejaVuSans-51" transform="translate(1061.21875 0)"/>
      <use xlink:href="#DejaVuSans-47" transform="translate(1124.59375 0)"/>
      <use xlink:href="#DejaVuSans-52" transform="translate(1188.078125 0)"/>
      <use xlink:href="#DejaVuSans-3" transform="translate(1249.265625 0)"/>
      <use xlink:href="#DejaVuSans-b" transform="translate(1281.046875 0)"/>
      <use xlink:href="#DejaVuSans-56" transform="translate(1320.0625 0)"/>
      <use xlink:href="#DejaVuSans-c" transform="translate(1372.15625 0)"/>
     </g>
    </g>
   </g>
   <g id="matplotlib.axis_2">
    <g id="ytick_1">
     <g id="line2d_19">
      <path d="M 45.082344 276.428672 
L 637.2 276.428672 
" clip-path="url(#p7a6927f21c)" style="fill: none; stroke: #b0b0b0; stroke-opacity: 0.3; stroke-width: 0.5; stroke-linecap: square"/>
     </g>
     <g id="line2d_20">
      <defs>
       <path id="mead32904c7" d="M 0 0 
L -3.5 0 
" style="stroke: #000000; stroke-width: 0.8"/>
      </defs>
      <g>
       <use xlink:href="#mead32904c7" x="45.082344" y="276.428672" style="stroke: #000000; stroke-width: 0.8"/>
      </g>
     </g>
     <g id="text_11">
      <!-- 0 -->
      <g transform="translate(31.719844 280.2275) scale(0.1 -0.1)">
       <use xlink:href="#DejaVuSans-13"/>
      </g>
     </g>
    </g>
    <g id="ytick_2">
     <g id="line2d_21">
      <path d="M 45.082344 221.433088 
L 637.2 221.433088 
" clip-path="url(#p7a6927f21c)" style="fill: none; stroke: #b0b0b0; stroke-opacity: 0.3; stroke-width: 0.5; stroke-linecap: square"/>
     </g>
     <g id="line2d_22">
      <g>
       <use xlink:href="#mead32904c7" x="45.082344" y="221.433088" style="stroke: #000000; stroke-width: 0.8"/>
      </g>
     </g>
     <g id="text_12">
      <!-- 10 -->
      <g transform="translate(25.357344 225.231916) scale(0.1 -0.1)">
       <use xlink:href="#DejaVuSans-14"/>
       <use xlink:href="#DejaVuSans-13" transform="translate(63.625 0)"/>
      </g>
     </g>
    </g>
    <g id="ytick_3">
     <g id="line2d_23">
      <path d="M 45.082344 166.437503 
L 637.2 166.437503 
" clip-path="url(#p7a6927f21c)" style="fill: none; stroke: #b0b0b0; stroke-opacity: 0.3; stroke-width: 0.5; stroke-linecap: square"/>
     </g>
     <g id="line2d_24">
      <g>
       <use xlink:href="#mead32904c7" x="45.082344" y="166.437503" style="stroke: #000000; stroke-width: 0.8"/>
      </g>
     </g>
     <g id="text_13">
      <!-- 20 -->
      <g transform="translate(25.357344 170.236332) scale(0.1 -0.1)">
       <use xlink:href="#DejaVuSans-15"/>
       <use xlink:href="#DejaVuSans-13" transform="translate(63.625 0)"/>
      </g>
     </g>
    </g>
    <g id="ytick_4">
     <g id="line2d_25">
      <path d="M 45.082344 111.441919 
L 637.2 111.441919 
" clip-path="url(#p7a6927f21c)" style="fill: none; stroke: #b0b0b0; stroke-opacity: 0.3; stroke-width: 0.5; stroke-linecap: square"/>
     </g>
     <g id="line2d_26">
      <g>
       <use xlink:href="#mead32904c7" x="45.082344" y="111.441919" style="stroke: #000000; stroke-width: 0.8"/>
      </g>
     </g>
     <g id="text_14">
      <!-- 30 -->
      <g transform="translate(25.357344 115.240747) scale(0.1 -0.1)">
       <use xlink:href="#DejaVuSans-16"/>
       <use xlink:href="#DejaVuSans-13" transform="translate(63.625 0)"/>
      </g>
     </g>
    </g>
    <g id="ytick_5">
     <g id="line2d_27">
      <path d="M 45.082344 56.446335 
L 637.2 56.446335 
" clip-path="url(#p7a6927f21c)" style="fill: none; stroke: #b0b0b0; stroke-opacity: 0.3; stroke-width: 0.5; stroke-linecap: square"/>
     </g>
     <g id="line2d_28">
      <g>
       <use xlink:href="#mead32904c7" x="45.082344" y="56.446335" style="stroke: #000000; stroke-width: 0.8"/>
      </g>
     </g>
     <g id="text_15">
      <!-- 40 -->
      <g transform="translate(25.357344 60.245163) scale(0.1 -0.1)">
       <use xlink:href="#DejaVuSans-17"/>
       <use xlink:href="#DejaVuSans-13" transform="translate(63.625 0)"/>
      </g>
     </g>
    </g>
    <g id="text_16">
     <!-- J6 (°) -->
     <g transform="translate(18.955 162.585703) rotate(-90) scale(0.1 -0.1)">
      <defs>
       <path id="DejaVuSans-2d" d="M 628 4666 
L 1259 4666 
L 1259 325 
Q 1259 -519 939 -900 
Q 619 -1281 -91 -1281 
L -331 -1281 
L -331 -750 
L -134 -750 
Q 284 -750 456 -515 
Q 628 -281 628 325 
L 628 4666 
z
" transform="scale(0.015625)"/>
       <path id="DejaVuSans-72" d="M 1600 4347 
Q 1350 4347 1178 4173 
Q 1006 4000 1006 3750 
Q 1006 3503 1178 3333 
Q 1350 3163 1600 3163 
Q 1850 3163 2022 3333 
Q 2194 3503 2194 3750 
Q 2194 3997 2020 4172 
Q 1847 4347 1600 4347 
z
M 1600 4750 
Q 1800 4750 1984 4673 
Q 2169 4597 2303 4453 
Q 2447 4313 2519 4134 
Q 2591 3956 2591 3750 
Q 2591 3338 2302 3052 
Q 2013 2766 1594 2766 
Q 1172 2766 890 3047 
Q 609 3328 609 3750 
Q 609 4169 896 4459 
Q 1184 4750 1600 4750 
z
" transform="scale(0.015625)"/>
      </defs>
      <use xlink:href="#DejaVuSans-2d"/>
      <use xlink:href="#DejaVuSans-19" transform="translate(29.5 0)"/>
      <use xlink:href="#DejaVuSans-3" transform="translate(93.125 0)"/>
      <use xlink:href="#DejaVuSans-b" transform="translate(124.90625 0)"/>
      <use xlink:href="#DejaVuSans-72" transform="translate(163.921875 0)"/>
      <use xlink:href="#DejaVuSans-c" transform="translate(213.921875 0)"/>
     </g>
    </g>
   </g>
   <g id="line2d_29">
    <path d="M 45.082344 28.948543 
L 637.2 28.948543 
" clip-path="url(#p7a6927f21c)" style="fill: none; stroke-dasharray: 4.44,1.92; stroke-dashoffset: 0; stroke: #9ca3af; stroke-width: 1.2"/>
   </g>
   <g id="line2d_30">
    <path d="M 71.996783 276.428672 
L 78.801251 271.479069 
L 82.210235 264.054665 
L 85.592218 264.054665 
L 88.987701 254.15546 
L 92.396686 251.680659 
L 95.785419 239.306653 
L 99.187653 234.35705 
L 102.589887 150.213806 
L 105.992121 150.213806 
L 119.567305 130.415396 
L 126.392024 130.415396 
L 129.807759 113.091787 
L 133.189742 108.142184 
L 136.571725 93.293376 
L 139.960458 83.394171 
L 143.355941 83.394171 
L 153.555893 68.545363 
L 156.958127 66.070562 
L 160.34686 66.070562 
L 167.144578 56.171357 
L 170.533311 53.696556 
L 177.304027 43.797351 
L 180.686009 43.797351 
L 184.074742 38.847748 
L 187.456725 31.423344 
L 610.285561 31.423344 
L 610.285561 31.423344 
" clip-path="url(#p7a6927f21c)" style="fill: none; stroke: #ea580c; stroke-width: 1.8; stroke-linecap: square"/>
   </g>
   <g id="line2d_31">
    <path d="M 99.190942 289.077656 
L 99.190942 10.8 
" clip-path="url(#p7a6927f21c)" style="fill: none; stroke-dasharray: 1.4,2.31; stroke-dashoffset: 0; stroke: #dc2626; stroke-width: 1.4"/>
   </g>
   <g id="patch_3">
    <path d="M 45.082344 289.077656 
L 45.082344 10.8 
" style="fill: none; stroke: #000000; stroke-width: 0.8; stroke-linejoin: miter; stroke-linecap: square"/>
   </g>
   <g id="patch_4">
    <path d="M 637.2 289.077656 
L 637.2 10.8 
" style="fill: none; stroke: #000000; stroke-width: 0.8; stroke-linejoin: miter; stroke-linecap: square"/>
   </g>
   <g id="patch_5">
    <path d="M 45.082344 289.077656 
L 637.2 289.077656 
" style="fill: none; stroke: #000000; stroke-width: 0.8; stroke-linejoin: miter; stroke-linecap: square"/>
   </g>
   <g id="patch_6">
    <path d="M 45.082344 10.8 
L 637.2 10.8 
" style="fill: none; stroke: #000000; stroke-width: 0.8; stroke-linejoin: miter; stroke-linecap: square"/>
   </g>
   <g id="patch_7">
    <path d="M 164.999594 169.464303 
Q 133.065287 161.323729 102.214367 153.459328 
" style="fill: none; stroke: #dc2626; stroke-linecap: round"/>
    <path d="M 105.089077 155.946503 
L 102.214367 153.459328 
L 105.928934 152.651865 
" style="fill: none; stroke: #dc2626; stroke-linecap: round"/>
   </g>
   <g id="text_17">
    <!-- distúrbio externo +15° -->
    <g style="fill: #dc2626" transform="translate(166.695586 179.608302) scale(0.085 -0.085)">
     <defs>
      <path id="DejaVuSans-4c" d="M 603 3500 
L 1178 3500 
L 1178 0 
L 603 0 
L 603 3500 
z
M 603 4863 
L 1178 4863 
L 1178 4134 
L 603 4134 
L 603 4863 
z
" transform="scale(0.015625)"/>
      <path id="DejaVuSans-57" d="M 1172 4494 
L 1172 3500 
L 2356 3500 
L 2356 3053 
L 1172 3053 
L 1172 1153 
Q 1172 725 1289 603 
Q 1406 481 1766 481 
L 2356 481 
L 2356 0 
L 1766 0 
Q 1100 0 847 248 
Q 594 497 594 1153 
L 594 3053 
L 172 3053 
L 172 3500 
L 594 3500 
L 594 4494 
L 1172 4494 
z
" transform="scale(0.015625)"/>
      <path id="DejaVuSans-bc" d="M 544 1381 
L 544 3500 
L 1119 3500 
L 1119 1403 
Q 1119 906 1312 657 
Q 1506 409 1894 409 
Q 2359 409 2629 706 
Q 2900 1003 2900 1516 
L 2900 3500 
L 3475 3500 
L 3475 0 
L 2900 0 
L 2900 538 
Q 2691 219 2414 64 
Q 2138 -91 1772 -91 
Q 1169 -91 856 284 
Q 544 659 544 1381 
z
M 1991 3584 
L 1991 3584 
z
M 2418 5119 
L 3040 5119 
L 2022 3944 
L 1543 3944 
L 2418 5119 
z
" transform="scale(0.015625)"/>
      <path id="DejaVuSans-55" d="M 2631 2963 
Q 2534 3019 2420 3045 
Q 2306 3072 2169 3072 
Q 1681 3072 1420 2755 
Q 1159 2438 1159 1844 
L 1159 0 
L 581 0 
L 581 3500 
L 1159 3500 
L 1159 2956 
Q 1341 3275 1631 3429 
Q 1922 3584 2338 3584 
Q 2397 3584 2469 3576 
Q 2541 3569 2628 3553 
L 2631 2963 
z
" transform="scale(0.015625)"/>
      <path id="DejaVuSans-45" d="M 3116 1747 
Q 3116 2381 2855 2742 
Q 2594 3103 2138 3103 
Q 1681 3103 1420 2742 
Q 1159 2381 1159 1747 
Q 1159 1113 1420 752 
Q 1681 391 2138 391 
Q 2594 391 2855 752 
Q 3116 1113 3116 1747 
z
M 1159 2969 
Q 1341 3281 1617 3432 
Q 1894 3584 2278 3584 
Q 2916 3584 3314 3078 
Q 3713 2572 3713 1747 
Q 3713 922 3314 415 
Q 2916 -91 2278 -91 
Q 1894 -91 1617 61 
Q 1341 213 1159 525 
L 1159 0 
L 581 0 
L 581 4863 
L 1159 4863 
L 1159 2969 
z
" transform="scale(0.015625)"/>
      <path id="DejaVuSans-5b" d="M 3513 3500 
L 2247 1797 
L 3578 0 
L 2900 0 
L 1881 1375 
L 863 0 
L 184 0 
L 1544 1831 
L 300 3500 
L 978 3500 
L 1906 2253 
L 2834 3500 
L 3513 3500 
z
" transform="scale(0.015625)"/>
      <path id="DejaVuSans-e" d="M 2944 4013 
L 2944 2272 
L 4684 2272 
L 4684 1741 
L 2944 1741 
L 2944 0 
L 2419 0 
L 2419 1741 
L 678 1741 
L 678 2272 
L 2419 2272 
L 2419 4013 
L 2944 4013 
z
" transform="scale(0.015625)"/>
     </defs>
     <use xlink:href="#DejaVuSans-47"/>
     <use xlink:href="#DejaVuSans-4c" transform="translate(63.484375 0)"/>
     <use xlink:href="#DejaVuSans-56" transform="translate(91.265625 0)"/>
     <use xlink:href="#DejaVuSans-57" transform="translate(143.359375 0)"/>
     <use xlink:href="#DejaVuSans-bc" transform="translate(182.5625 0)"/>
     <use xlink:href="#DejaVuSans-55" transform="translate(245.9375 0)"/>
     <use xlink:href="#DejaVuSans-45" transform="translate(287.046875 0)"/>
     <use xlink:href="#DejaVuSans-4c" transform="translate(350.53125 0)"/>
     <use xlink:href="#DejaVuSans-52" transform="translate(378.3125 0)"/>
     <use xlink:href="#DejaVuSans-3" transform="translate(439.5 0)"/>
     <use xlink:href="#DejaVuSans-48" transform="translate(471.28125 0)"/>
     <use xlink:href="#DejaVuSans-5b" transform="translate(531.0625 0)"/>
     <use xlink:href="#DejaVuSans-57" transform="translate(590.25 0)"/>
     <use xlink:href="#DejaVuSans-48" transform="translate(629.453125 0)"/>
     <use xlink:href="#DejaVuSans-55" transform="translate(690.984375 0)"/>
     <use xlink:href="#DejaVuSans-51" transform="translate(730.34375 0)"/>
     <use xlink:href="#DejaVuSans-52" transform="translate(793.71875 0)"/>
     <use xlink:href="#DejaVuSans-3" transform="translate(854.90625 0)"/>
     <use xlink:href="#DejaVuSans-e" transform="translate(886.6875 0)"/>
     <use xlink:href="#DejaVuSans-14" transform="translate(970.484375 0)"/>
     <use xlink:href="#DejaVuSans-18" transform="translate(1034.109375 0)"/>
     <use xlink:href="#DejaVuSans-72" transform="translate(1097.734375 0)"/>
    </g>
    <!-- (controle CORRIGE) -->
    <g style="fill: #dc2626" transform="translate(166.695586 189.810627) scale(0.085 -0.085)">
     <defs>
      <path id="DejaVuSans-4f" d="M 603 4863 
L 1178 4863 
L 1178 0 
L 603 0 
L 603 4863 
z
" transform="scale(0.015625)"/>
      <path id="DejaVuSans-26" d="M 4122 4306 
L 4122 3641 
Q 3803 3938 3442 4084 
Q 3081 4231 2675 4231 
Q 1875 4231 1450 3742 
Q 1025 3253 1025 2328 
Q 1025 1406 1450 917 
Q 1875 428 2675 428 
Q 3081 428 3442 575 
Q 3803 722 4122 1019 
L 4122 359 
Q 3791 134 3420 21 
Q 3050 -91 2638 -91 
Q 1578 -91 968 557 
Q 359 1206 359 2328 
Q 359 3453 968 4101 
Q 1578 4750 2638 4750 
Q 3056 4750 3426 4639 
Q 3797 4528 4122 4306 
z
" transform="scale(0.015625)"/>
      <path id="DejaVuSans-32" d="M 2522 4238 
Q 1834 4238 1429 3725 
Q 1025 3213 1025 2328 
Q 1025 1447 1429 934 
Q 1834 422 2522 422 
Q 3209 422 3611 934 
Q 4013 1447 4013 2328 
Q 4013 3213 3611 3725 
Q 3209 4238 2522 4238 
z
M 2522 4750 
Q 3503 4750 4090 4092 
Q 4678 3434 4678 2328 
Q 4678 1225 4090 567 
Q 3503 -91 2522 -91 
Q 1538 -91 948 565 
Q 359 1222 359 2328 
Q 359 3434 948 4092 
Q 1538 4750 2522 4750 
z
" transform="scale(0.015625)"/>
      <path id="DejaVuSans-35" d="M 2841 2188 
Q 3044 2119 3236 1894 
Q 3428 1669 3622 1275 
L 4263 0 
L 3584 0 
L 2988 1197 
Q 2756 1666 2539 1819 
Q 2322 1972 1947 1972 
L 1259 1972 
L 1259 0 
L 628 0 
L 628 4666 
L 2053 4666 
Q 2853 4666 3247 4331 
Q 3641 3997 3641 3322 
Q 3641 2881 3436 2590 
Q 3231 2300 2841 2188 
z
M 1259 4147 
L 1259 2491 
L 2053 2491 
Q 2509 2491 2742 2702 
Q 2975 2913 2975 3322 
Q 2975 3731 2742 3939 
Q 2509 4147 2053 4147 
L 1259 4147 
z
" transform="scale(0.015625)"/>
      <path id="DejaVuSans-2c" d="M 628 4666 
L 1259 4666 
L 1259 0 
L 628 0 
L 628 4666 
z
" transform="scale(0.015625)"/>
      <path id="DejaVuSans-2a" d="M 3809 666 
L 3809 1919 
L 2778 1919 
L 2778 2438 
L 4434 2438 
L 4434 434 
Q 4069 175 3628 42 
Q 3188 -91 2688 -91 
Q 1594 -91 976 548 
Q 359 1188 359 2328 
Q 359 3472 976 4111 
Q 1594 4750 2688 4750 
Q 3144 4750 3555 4637 
Q 3966 4525 4313 4306 
L 4313 3634 
Q 3963 3931 3569 4081 
Q 3175 4231 2741 4231 
Q 1884 4231 1454 3753 
Q 1025 3275 1025 2328 
Q 1025 1384 1454 906 
Q 1884 428 2741 428 
Q 3075 428 3337 486 
Q 3600 544 3809 666 
z
" transform="scale(0.015625)"/>
      <path id="DejaVuSans-28" d="M 628 4666 
L 3578 4666 
L 3578 4134 
L 1259 4134 
L 1259 2753 
L 3481 2753 
L 3481 2222 
L 1259 2222 
L 1259 531 
L 3634 531 
L 3634 0 
L 628 0 
L 628 4666 
z
" transform="scale(0.015625)"/>
     </defs>
     <use xlink:href="#DejaVuSans-b"/>
     <use xlink:href="#DejaVuSans-46" transform="translate(39.015625 0)"/>
     <use xlink:href="#DejaVuSans-52" transform="translate(94 0)"/>
     <use xlink:href="#DejaVuSans-51" transform="translate(155.1875 0)"/>
     <use xlink:href="#DejaVuSans-57" transform="translate(218.5625 0)"/>
     <use xlink:href="#DejaVuSans-55" transform="translate(257.765625 0)"/>
     <use xlink:href="#DejaVuSans-52" transform="translate(296.671875 0)"/>
     <use xlink:href="#DejaVuSans-4f" transform="translate(357.859375 0)"/>
     <use xlink:href="#DejaVuSans-48" transform="translate(385.640625 0)"/>
     <use xlink:href="#DejaVuSans-3" transform="translate(447.171875 0)"/>
     <use xlink:href="#DejaVuSans-26" transform="translate(478.953125 0)"/>
     <use xlink:href="#DejaVuSans-32" transform="translate(548.78125 0)"/>
     <use xlink:href="#DejaVuSans-35" transform="translate(627.5 0)"/>
     <use xlink:href="#DejaVuSans-35" transform="translate(696.984375 0)"/>
     <use xlink:href="#DejaVuSans-2c" transform="translate(766.46875 0)"/>
     <use xlink:href="#DejaVuSans-2a" transform="translate(795.96875 0)"/>
     <use xlink:href="#DejaVuSans-28" transform="translate(873.453125 0)"/>
     <use xlink:href="#DejaVuSans-c" transform="translate(936.640625 0)"/>
    </g>
   </g>
   <g id="legend_1">
    <g id="patch_8">
     <path d="M 524.65625 285.077656 
L 631.6 285.077656 
Q 633.2 285.077656 633.2 283.477656 
L 633.2 248.275781 
Q 633.2 246.675781 631.6 246.675781 
L 524.65625 246.675781 
Q 523.05625 246.675781 523.05625 248.275781 
L 523.05625 283.477656 
Q 523.05625 285.077656 524.65625 285.077656 
z
" style="fill: #ffffff; opacity: 0.8; stroke: #cccccc; stroke-linejoin: miter"/>
    </g>
    <g id="line2d_32">
     <path d="M 526.25625 253.154531 
L 534.25625 253.154531 
L 542.25625 253.154531 
" style="fill: none; stroke-dasharray: 4.44,1.92; stroke-dashoffset: 0; stroke: #9ca3af; stroke-width: 1.2"/>
    </g>
    <g id="text_18">
     <!-- alvo (curva-S) -->
     <g transform="translate(548.65625 255.954531) scale(0.08 -0.08)">
      <defs>
       <path id="DejaVuSans-59" d="M 191 3500 
L 800 3500 
L 1894 563 
L 2988 3500 
L 3597 3500 
L 2284 0 
L 1503 0 
L 191 3500 
z
" transform="scale(0.015625)"/>
       <path id="DejaVuSans-58" d="M 544 1381 
L 544 3500 
L 1119 3500 
L 1119 1403 
Q 1119 906 1312 657 
Q 1506 409 1894 409 
Q 2359 409 2629 706 
Q 2900 1003 2900 1516 
L 2900 3500 
L 3475 3500 
L 3475 0 
L 2900 0 
L 2900 538 
Q 2691 219 2414 64 
Q 2138 -91 1772 -91 
Q 1169 -91 856 284 
Q 544 659 544 1381 
z
M 1991 3584 
L 1991 3584 
z
" transform="scale(0.015625)"/>
       <path id="DejaVuSans-10" d="M 313 2009 
L 1997 2009 
L 1997 1497 
L 313 1497 
L 313 2009 
z
" transform="scale(0.015625)"/>
       <path id="DejaVuSans-36" d="M 3425 4513 
L 3425 3897 
Q 3066 4069 2747 4153 
Q 2428 4238 2131 4238 
Q 1616 4238 1336 4038 
Q 1056 3838 1056 3469 
Q 1056 3159 1242 3001 
Q 1428 2844 1947 2747 
L 2328 2669 
Q 3034 2534 3370 2195 
Q 3706 1856 3706 1288 
Q 3706 609 3251 259 
Q 2797 -91 1919 -91 
Q 1588 -91 1214 -16 
Q 841 59 441 206 
L 441 856 
Q 825 641 1194 531 
Q 1563 422 1919 422 
Q 2459 422 2753 634 
Q 3047 847 3047 1241 
Q 3047 1584 2836 1778 
Q 2625 1972 2144 2069 
L 1759 2144 
Q 1053 2284 737 2584 
Q 422 2884 422 3419 
Q 422 4038 858 4394 
Q 1294 4750 2059 4750 
Q 2388 4750 2728 4690 
Q 3069 4631 3425 4513 
z
" transform="scale(0.015625)"/>
      </defs>
      <use xlink:href="#DejaVuSans-44"/>
      <use xlink:href="#DejaVuSans-4f" transform="translate(61.28125 0)"/>
      <use xlink:href="#DejaVuSans-59" transform="translate(89.0625 0)"/>
      <use xlink:href="#DejaVuSans-52" transform="translate(148.25 0)"/>
      <use xlink:href="#DejaVuSans-3" transform="translate(209.4375 0)"/>
      <use xlink:href="#DejaVuSans-b" transform="translate(241.21875 0)"/>
      <use xlink:href="#DejaVuSans-46" transform="translate(280.234375 0)"/>
      <use xlink:href="#DejaVuSans-58" transform="translate(335.21875 0)"/>
      <use xlink:href="#DejaVuSans-55" transform="translate(398.59375 0)"/>
      <use xlink:href="#DejaVuSans-59" transform="translate(439.703125 0)"/>
      <use xlink:href="#DejaVuSans-44" transform="translate(498.890625 0)"/>
      <use xlink:href="#DejaVuSans-10" transform="translate(560.171875 0)"/>
      <use xlink:href="#DejaVuSans-36" transform="translate(596.25 0)"/>
      <use xlink:href="#DejaVuSans-c" transform="translate(659.734375 0)"/>
     </g>
    </g>
    <g id="patch_9">
     <path d="M 526.25625 267.955156 
L 542.25625 267.955156 
L 542.25625 262.355156 
L 526.25625 262.355156 
z
" style="fill: #16a34a; fill-opacity: 0.1; stroke: #16a34a; stroke-opacity: 0.1; stroke-linejoin: miter"/>
    </g>
    <g id="text_19">
     <!-- banda ±1° -->
     <g transform="translate(548.65625 267.955156) scale(0.08 -0.08)">
      <defs>
       <path id="DejaVuSans-73" d="M 2944 4013 
L 2944 2803 
L 4684 2803 
L 4684 2272 
L 2944 2272 
L 2944 1063 
L 2419 1063 
L 2419 2272 
L 678 2272 
L 678 2803 
L 2419 2803 
L 2419 4013 
L 2944 4013 
z
M 678 531 
L 4684 531 
L 4684 0 
L 678 0 
L 678 531 
z
" transform="scale(0.015625)"/>
      </defs>
      <use xlink:href="#DejaVuSans-45"/>
      <use xlink:href="#DejaVuSans-44" transform="translate(63.484375 0)"/>
      <use xlink:href="#DejaVuSans-51" transform="translate(124.765625 0)"/>
      <use xlink:href="#DejaVuSans-47" transform="translate(188.140625 0)"/>
      <use xlink:href="#DejaVuSans-44" transform="translate(251.625 0)"/>
      <use xlink:href="#DejaVuSans-3" transform="translate(312.90625 0)"/>
      <use xlink:href="#DejaVuSans-73" transform="translate(344.6875 0)"/>
      <use xlink:href="#DejaVuSans-14" transform="translate(428.484375 0)"/>
      <use xlink:href="#DejaVuSans-72" transform="translate(492.109375 0)"/>
     </g>
    </g>
    <g id="line2d_33">
     <path d="M 526.25625 277.155781 
L 534.25625 277.155781 
L 542.25625 277.155781 
" style="fill: none; stroke: #ea580c; stroke-width: 1.8; stroke-linecap: square"/>
    </g>
    <g id="text_20">
     <!-- J6 medido (encoder) -->
     <g transform="translate(548.65625 279.955781) scale(0.08 -0.08)">
      <use xlink:href="#DejaVuSans-2d"/>
      <use xlink:href="#DejaVuSans-19" transform="translate(29.5 0)"/>
      <use xlink:href="#DejaVuSans-3" transform="translate(93.125 0)"/>
      <use xlink:href="#DejaVuSans-50" transform="translate(124.90625 0)"/>
      <use xlink:href="#DejaVuSans-48" transform="translate(222.3125 0)"/>
      <use xlink:href="#DejaVuSans-47" transform="translate(283.84375 0)"/>
      <use xlink:href="#DejaVuSans-4c" transform="translate(347.328125 0)"/>
      <use xlink:href="#DejaVuSans-47" transform="translate(375.109375 0)"/>
      <use xlink:href="#DejaVuSans-52" transform="translate(438.59375 0)"/>
      <use xlink:href="#DejaVuSans-3" transform="translate(499.78125 0)"/>
      <use xlink:href="#DejaVuSans-b" transform="translate(531.5625 0)"/>
      <use xlink:href="#DejaVuSans-48" transform="translate(570.578125 0)"/>
      <use xlink:href="#DejaVuSans-51" transform="translate(632.109375 0)"/>
      <use xlink:href="#DejaVuSans-46" transform="translate(695.484375 0)"/>
      <use xlink:href="#DejaVuSans-52" transform="translate(750.46875 0)"/>
      <use xlink:href="#DejaVuSans-47" transform="translate(811.65625 0)"/>
      <use xlink:href="#DejaVuSans-48" transform="translate(875.140625 0)"/>
      <use xlink:href="#DejaVuSans-55" transform="translate(936.671875 0)"/>
      <use xlink:href="#DejaVuSans-c" transform="translate(977.78125 0)"/>
     </g>
    </g>
   </g>
  </g>
 </g>
 <defs>
  <clipPath id="p7a6927f21c">
   <rect x="45.082344" y="10.8" width="592.117656" height="278.277656"/>
  </clipPath>
 </defs>
</svg>
