<?xml version="1.0" encoding="utf-8" standalone="no"?>
<!DOCTYPE svg PUBLIC "-//W3C//DTD SVG 1.1//EN"
  "http://www.w3.org/Graphics/SVG/1.1/DTD/svg11.dtd">
<svg xmlns:xlink="http://www.w3.org/1999/xlink" width="648pt" height="331.2pt" viewBox="0 0 648 331.2" xmlns="http://www.w3.org/2000/svg" version="1.1">
 <metadata>
  <rdf:RDF xmlns:dc="http://purl.org/dc/elements/1.1/" xmlns:cc="http://creativecommons.org/ns#" xmlns:rdf="http://www.w3.org/1999/02/22-rdf-syntax-ns#">
   <cc:Work>
    <dc:type rdf:resource="http://purl.org/dc/dcmitype/StillImage"/>
    <dc:date>2026-06-23T23:05:13.036701</dc:date>
    <dc:format>image/svg+xml</dc:format>
    <dc:creator>
     <cc:Agent>
      <dc:title>Matplotlib v3.11.0, https://matplotlib.org/</dc:title>
     </cc:Agent>
    </dc:creator>
   </cc:Work>
  </rdf:RDF>
 </metadata>
 <defs>
  <style type="text/css">*{stroke-linejoin: round; stroke-linecap: butt}</style>
 </defs>
 <g id="figure_1">
  <g id="patch_1">
   <path d="M 0 331.2 
L 648 331.2 
L 648 0 
L 0 0 
z
" style="fill: #ffffff"/>
  </g>
  <g id="axes_1">
   <g id="patch_2">
    <path d="M 53.722344 289.077656 
L 637.2 289.077656 
L 637.2 10.8 
L 53.722344 10.8 
z
" style="fill: #ffffff"/>
   </g>
   <g id="FillBetweenPolyCollection_1">
    <defs>
     <path id="me1468b8da7" d="M 80.244055 -56.251935 
L 80.244055 -54.771328 
L 610.678288 -54.771328 
L 610.678288 -56.251935 
L 610.678288 -56.251935 
L 80.244055 -56.251935 
z
" style="stroke: #16a34a; stroke-opacity: 0.1"/>
    </defs>
    <g clip-path="url(#pc57422c3e7)">
     <use xlink:href="#me1468b8da7" x="0" y="331.2" style="fill: #16a34a; fill-opacity: 0.1; stroke: #16a34a; stroke-opacity: 0.1"/>
    </g>
   </g>
   <g id="matplotlib.axis_1">
    <g id="xtick_1">
     <g id="line2d_1">
      <path d="M 80.244055 289.077656 
L 80.244055 10.8 
" clip-path="url(#pc57422c3e7)" style="fill: none; stroke: #b0b0b0; stroke-opacity: 0.3; stroke-width: 0.5; stroke-linecap: square"/>
     </g>
     <g id="line2d_2">
      <defs>
       <path id="m4a1aa4712c" d="M 0 0 
L 0 3.5 
" style="stroke: #000000; stroke-width: 0.8"/>
      </defs>
      <g>
       <use xlink:href="#m4a1aa4712c" x="80.244055" y="289.077656" style="stroke: #000000; stroke-width: 0.8"/>
      </g>
     </g>
     <g id="text_1">
      <!-- 0 -->
      <g transform="translate(77.062805 303.675312) scale(0.1 -0.1)">
       <defs>
        <path id="DejaVuSans-13" d="M 2034 4250 
Q 1547 4250 1301 3770 
Q 1056 3291 1056 2328 
Q 1056 1369 1301 889 
Q 1547 409 2034 409 
Q 2525 409 2770 889 
Q 3016 1369 3016 2328 
Q 3016 3291 2770 3770 
Q 2525 4250 2034 4250 
z
M 2034 4750 
Q 2819 4750 3233 4129 
Q 3647 3509 3647 2328 
Q 3647 1150 3233 529 
Q 2819 -91 2034 -91 
Q 1250 -91 836 529 
Q 422 1150 422 2328 
Q 422 3509 836 4129 
Q 1250 4750 2034 4750 
z
" transform="scale(0.015625)"/>
       </defs>
       <use xlink:href="#DejaVuSans-13"/>
      </g>
     </g>
    </g>
    <g id="xtick_2">
     <g id="line2d_3">
      <path d="M 158.406463 289.077656 
L 158.406463 10.8 
" clip-path="url(#pc57422c3e7)" style="fill: none; stroke: #b0b0b0; stroke-opacity: 0.3; stroke-width: 0.5; stroke-linecap: square"/>
     </g>
     <g id="line2d_4">
      <g>
       <use xlink:href="#m4a1aa4712c" x="158.406463" y="289.077656" style="stroke: #000000; stroke-width: 0.8"/>
      </g>
     </g>
     <g id="text_2">
      <!-- 5 -->
      <g transform="translate(155.225213 303.675312) scale(0.1 -0.1)">
       <defs>
        <path id="DejaVuSans-18" d="M 691 4666 
L 3169 4666 
L 3169 4134 
L 1269 4134 
L 1269 2991 
Q 1406 3038 1543 3061 
Q 1681 3084 1819 3084 
Q 2600 3084 3056 2656 
Q 3513 2228 3513 1497 
Q 3513 744 3044 326 
Q 2575 -91 1722 -91 
Q 1428 -91 1123 -41 
Q 819 9 494 109 
L 494 744 
Q 775 591 1075 516 
Q 1375 441 1709 441 
Q 2250 441 2565 725 
Q 2881 1009 2881 1497 
Q 2881 1984 2565 2268 
Q 2250 2553 1709 2553 
Q 1456 2553 1204 2497 
Q 953 2441 691 2322 
L 691 4666 
z
" transform="scale(0.015625)"/>
       </defs>
       <use xlink:href="#DejaVuSans-18"/>
      </g>
     </g>
    </g>
    <g id="xtick_3">
     <g id="line2d_5">
      <path d="M 236.56887 289.077656 
L 236.56887 10.8 
" clip-path="url(#pc57422c3e7)" style="fill: none; stroke: #b0b0b0; stroke-opacity: 0.3; stroke-width: 0.5; stroke-linecap: square"/>
     </g>
     <g id="line2d_6">
      <g>
       <use xlink:href="#m4a1aa4712c" x="236.56887" y="289.077656" style="stroke: #000000; stroke-width: 0.8"/>
      </g>
     </g>
     <g id="text_3">
      <!-- 10 -->
      <g transform="translate(230.20637 303.675312) scale(0.1 -0.1)">
       <defs>
        <path id="DejaVuSans-14" d="M 794 531 
L 1825 531 
L 1825 4091 
L 703 3866 
L 703 4441 
L 1819 4666 
L 2450 4666 
L 2450 531 
L 3481 531 
L 3481 0 
L 794 0 
L 794 531 
z
" transform="scale(0.015625)"/>
       </defs>
       <use xlink:href="#DejaVuSans-14"/>
       <use xlink:href="#DejaVuSans-13" transform="translate(63.625 0)"/>
      </g>
     </g>
    </g>
    <g id="xtick_4">
     <g id="line2d_7">
      <path d="M 314.731277 289.077656 
L 314.731277 10.8 
" clip-path="url(#pc57422c3e7)" style="fill: none; stroke: #b0b0b0; stroke-opacity: 0.3; stroke-width: 0.5; stroke-linecap: square"/>
     </g>
     <g id="line2d_8">
      <g>
       <use xlink:href="#m4a1aa4712c" x="314.731277" y="289.077656" style="stroke: #000000; stroke-width: 0.8"/>
      </g>
     </g>
     <g id="text_4">
      <!-- 15 -->
      <g transform="translate(308.368777 303.675312) scale(0.1 -0.1)">
       <use xlink:href="#DejaVuSans-14"/>
       <use xlink:href="#DejaVuSans-18" transform="translate(63.625 0)"/>
      </g>
     </g>
    </g>
    <g id="xtick_5">
     <g id="line2d_9">
      <path d="M 392.893684 289.077656 
L 392.893684 10.8 
" clip-path="url(#pc57422c3e7)" style="fill: none; stroke: #b0b0b0; stroke-opacity: 0.3; stroke-width: 0.5; stroke-linecap: square"/>
     </g>
     <g id="line2d_10">
      <g>
       <use xlink:href="#m4a1aa4712c" x="392.893684" y="289.077656" style="stroke: #000000; stroke-width: 0.8"/>
      </g>
     </g>
     <g id="text_5">
      <!-- 20 -->
      <g transform="translate(386.531184 303.675312) scale(0.1 -0.1)">
       <defs>
        <path id="DejaVuSans-15" d="M 1228 531 
L 3431 531 
L 3431 0 
L 469 0 
L 469 531 
Q 828 903 1448 1529 
Q 2069 2156 2228 2338 
Q 2531 2678 2651 2914 
Q 2772 3150 2772 3378 
Q 2772 3750 2511 3984 
Q 2250 4219 1831 4219 
Q 1534 4219 1204 4116 
Q 875 4013 500 3803 
L 500 4441 
Q 881 4594 1212 4672 
Q 1544 4750 1819 4750 
Q 2544 4750 2975 4387 
Q 3406 4025 3406 3419 
Q 3406 3131 3298 2873 
Q 3191 2616 2906 2266 
Q 2828 2175 2409 1742 
Q 1991 1309 1228 531 
z
" transform="scale(0.015625)"/>
       </defs>
       <use xlink:href="#DejaVuSans-15"/>
       <use xlink:href="#DejaVuSans-13" transform="translate(63.625 0)"/>
      </g>
     </g>
    </g>
    <g id="xtick_6">
     <g id="line2d_11">
      <path d="M 471.056091 289.077656 
L 471.056091 10.8 
" clip-path="url(#pc57422c3e7)" style="fill: none; stroke: #b0b0b0; stroke-opacity: 0.3; stroke-width: 0.5; stroke-linecap: square"/>
     </g>
     <g id="line2d_12">
      <g>
       <use xlink:href="#m4a1aa4712c" x="471.056091" y="289.077656" style="stroke: #000000; stroke-width: 0.8"/>
      </g>
     </g>
     <g id="text_6">
      <!-- 25 -->
      <g transform="translate(464.693591 303.675312) scale(0.1 -0.1)">
       <use xlink:href="#DejaVuSans-15"/>
       <use xlink:href="#DejaVuSans-18" transform="translate(63.625 0)"/>
      </g>
     </g>
    </g>
    <g id="xtick_7">
     <g id="line2d_13">
      <path d="M 549.218499 289.077656 
L 549.218499 10.8 
" clip-path="url(#pc57422c3e7)" style="fill: none; stroke: #b0b0b0; stroke-opacity: 0.3; stroke-width: 0.5; stroke-linecap: square"/>
     </g>
     <g id="line2d_14">
      <g>
       <use xlink:href="#m4a1aa4712c" x="549.218499" y="289.077656" style="stroke: #000000; stroke-width: 0.8"/>
      </g>
     </g>
     <g id="text_7">
      <!-- 30 -->
      <g transform="translate(542.855999 303.675312) scale(0.1 -0.1)">
       <defs>
        <path id="DejaVuSans-16" d="M 2597 2516 
Q 3050 2419 3304 2112 
Q 3559 1806 3559 1356 
Q 3559 666 3084 287 
Q 2609 -91 1734 -91 
Q 1441 -91 1130 -33 
Q 819 25 488 141 
L 488 750 
Q 750 597 1062 519 
Q 1375 441 1716 441 
Q 2309 441 2620 675 
Q 2931 909 2931 1356 
Q 2931 1769 2642 2001 
Q 2353 2234 1838 2234 
L 1294 2234 
L 1294 2753 
L 1863 2753 
Q 2328 2753 2575 2939 
Q 2822 3125 2822 3475 
Q 2822 3834 2567 4026 
Q 2313 4219 1838 4219 
Q 1578 4219 1281 4162 
Q 984 4106 628 3988 
L 628 4550 
Q 988 4650 1302 4700 
Q 1616 4750 1894 4750 
Q 2613 4750 3031 4423 
Q 3450 4097 3450 3541 
Q 3450 3153 3228 2886 
Q 3006 2619 2597 2516 
z
" transform="scale(0.015625)"/>
       </defs>
       <use xlink:href="#DejaVuSans-16"/>
       <use xlink:href="#DejaVuSans-13" transform="translate(63.625 0)"/>
      </g>
     </g>
    </g>
    <g id="xtick_8">
     <g id="line2d_15">
      <path d="M 627.380906 289.077656 
L 627.380906 10.8 
" clip-path="url(#pc57422c3e7)" style="fill: none; stroke: #b0b0b0; stroke-opacity: 0.3; stroke-width: 0.5; stroke-linecap: square"/>
     </g>
     <g id="line2d_16">
      <g>
       <use xlink:href="#m4a1aa4712c" x="627.380906" y="289.077656" style="stroke: #000000; stroke-width: 0.8"/>
      </g>
     </g>
     <g id="text_8">
      <!-- 35 -->
      <g transform="translate(621.018406 303.675312) scale(0.1 -0.1)">
       <use xlink:href="#DejaVuSans-16"/>
       <use xlink:href="#DejaVuSans-18" transform="translate(63.625 0)"/>
      </g>
     </g>
    </g>
    <g id="text_9">
     <!-- Tempo desde o comando (s) -->
     <g transform="translate(274.902578 317.676094) scale(0.1 -0.1)">
      <defs>
       <path id="DejaVuSans-37" d="M -19 4666 
L 3928 4666 
L 3928 4134 
L 2272 4134 
L 2272 0 
L 1638 0 
L 1638 4134 
L -19 4134 
L -19 4666 
z
" transform="scale(0.015625)"/>
       <path id="DejaVuSans-48" d="M 3597 1894 
L 3597 1613 
L 953 1613 
Q 991 1019 1311 708 
Q 1631 397 2203 397 
Q 2534 397 2845 478 
Q 3156 559 3463 722 
L 3463 178 
Q 3153 47 2828 -22 
Q 2503 -91 2169 -91 
Q 1331 -91 842 396 
Q 353 884 353 1716 
Q 353 2575 817 3079 
Q 1281 3584 2069 3584 
Q 2775 3584 3186 3129 
Q 3597 2675 3597 1894 
z
M 3022 2063 
Q 3016 2534 2758 2815 
Q 2500 3097 2075 3097 
Q 1594 3097 1305 2825 
Q 1016 2553 972 2059 
L 3022 2063 
z
" transform="scale(0.015625)"/>
       <path id="DejaVuSans-50" d="M 3328 2828 
Q 3544 3216 3844 3400 
Q 4144 3584 4550 3584 
Q 5097 3584 5394 3201 
Q 5691 2819 5691 2113 
L 5691 0 
L 5113 0 
L 5113 2094 
Q 5113 2597 4934 2840 
Q 4756 3084 4391 3084 
Q 3944 3084 3684 2787 
Q 3425 2491 3425 1978 
L 3425 0 
L 2847 0 
L 2847 2094 
Q 2847 2600 2669 2842 
Q 2491 3084 2119 3084 
Q 1678 3084 1418 2786 
Q 1159 2488 1159 1978 
L 1159 0 
L 581 0 
L 581 3500 
L 1159 3500 
L 1159 2956 
Q 1356 3278 1631 3431 
Q 1906 3584 2284 3584 
Q 2666 3584 2933 3390 
Q 3200 3197 3328 2828 
z
" transform="scale(0.015625)"/>
       <path id="DejaVuSans-53" d="M 1159 525 
L 1159 -1331 
L 581 -1331 
L 581 3500 
L 1159 3500 
L 1159 2969 
Q 1341 3281 1617 3432 
Q 1894 3584 2278 3584 
Q 2916 3584 3314 3078 
Q 3713 2572 3713 1747 
Q 3713 922 3314 415 
Q 2916 -91 2278 -91 
Q 1894 -91 1617 61 
Q 1341 213 1159 525 
z
M 3116 1747 
Q 3116 2381 2855 2742 
Q 2594 3103 2138 3103 
Q 1681 3103 1420 2742 
Q 1159 2381 1159 1747 
Q 1159 1113 1420 752 
Q 1681 391 2138 391 
Q 2594 391 2855 752 
Q 3116 1113 3116 1747 
z
" transform="scale(0.015625)"/>
       <path id="DejaVuSans-52" d="M 1959 3097 
Q 1497 3097 1228 2736 
Q 959 2375 959 1747 
Q 959 1119 1226 758 
Q 1494 397 1959 397 
Q 2419 397 2687 759 
Q 2956 1122 2956 1747 
Q 2956 2369 2687 2733 
Q 2419 3097 1959 3097 
z
M 1959 3584 
Q 2709 3584 3137 3096 
Q 3566 2609 3566 1747 
Q 3566 888 3137 398 
Q 2709 -91 1959 -91 
Q 1206 -91 779 398 
Q 353 888 353 1747 
Q 353 2609 779 3096 
Q 1206 3584 1959 3584 
z
" transform="scale(0.015625)"/>
       <path id="DejaVuSans-3" transform="scale(0.015625)"/>
       <path id="DejaVuSans-47" d="M 2906 2969 
L 2906 4863 
L 3481 4863 
L 3481 0 
L 2906 0 
L 2906 525 
Q 2725 213 2448 61 
Q 2172 -91 1784 -91 
Q 1150 -91 751 415 
Q 353 922 353 1747 
Q 353 2572 751 3078 
Q 1150 3584 1784 3584 
Q 2172 3584 2448 3432 
Q 2725 3281 2906 2969 
z
M 947 1747 
Q 947 1113 1208 752 
Q 1469 391 1925 391 
Q 2381 391 2643 752 
Q 2906 1113 2906 1747 
Q 2906 2381 2643 2742 
Q 2381 3103 1925 3103 
Q 1469 3103 1208 2742 
Q 947 2381 947 1747 
z
" transform="scale(0.015625)"/>
       <path id="DejaVuSans-56" d="M 2834 3397 
L 2834 2853 
Q 2591 2978 2328 3040 
Q 2066 3103 1784 3103 
Q 1356 3103 1142 2972 
Q 928 2841 928 2578 
Q 928 2378 1081 2264 
Q 1234 2150 1697 2047 
L 1894 2003 
Q 2506 1872 2764 1633 
Q 3022 1394 3022 966 
Q 3022 478 2636 193 
Q 2250 -91 1575 -91 
Q 1294 -91 989 -36 
Q 684 19 347 128 
L 347 722 
Q 666 556 975 473 
Q 1284 391 1588 391 
Q 1994 391 2212 530 
Q 2431 669 2431 922 
Q 2431 1156 2273 1281 
Q 2116 1406 1581 1522 
L 1381 1569 
Q 847 1681 609 1914 
Q 372 2147 372 2553 
Q 372 3047 722 3315 
Q 1072 3584 1716 3584 
Q 2034 3584 2315 3537 
Q 2597 3491 2834 3397 
z
" transform="scale(0.015625)"/>
       <path id="DejaVuSans-46" d="M 3122 3366 
L 3122 2828 
Q 2878 2963 2633 3030 
Q 2388 3097 2138 3097 
Q 1578 3097 1268 2742 
Q 959 2388 959 1747 
Q 959 1106 1268 751 
Q 1578 397 2138 397 
Q 2388 397 2633 464 
Q 2878 531 3122 666 
L 3122 134 
Q 2881 22 2623 -34 
Q 2366 -91 2075 -91 
Q 1284 -91 818 406 
Q 353 903 353 1747 
Q 353 2603 823 3093 
Q 1294 3584 2113 3584 
Q 2378 3584 2631 3529 
Q 2884 3475 3122 3366 
z
" transform="scale(0.015625)"/>
       <path id="DejaVuSans-44" d="M 2194 1759 
Q 1497 1759 1228 1600 
Q 959 1441 959 1056 
Q 959 750 1161 570 
Q 1363 391 1709 391 
Q 2188 391 2477 730 
Q 2766 1069 2766 1631 
L 2766 1759 
L 2194 1759 
z
M 3341 1997 
L 3341 0 
L 2766 0 
L 2766 531 
Q 2569 213 2275 61 
Q 1981 -91 1556 -91 
Q 1019 -91 701 211 
Q 384 513 384 1019 
Q 384 1609 779 1909 
Q 1175 2209 1959 2209 
L 2766 2209 
L 2766 2266 
Q 2766 2663 2505 2880 
Q 2244 3097 1772 3097 
Q 1472 3097 1187 3025 
Q 903 2953 641 2809 
L 641 3341 
Q 956 3463 1253 3523 
Q 1550 3584 1831 3584 
Q 2591 3584 2966 3190 
Q 3341 2797 3341 1997 
z
" transform="scale(0.015625)"/>
       <path id="DejaVuSans-51" d="M 3513 2113 
L 3513 0 
L 2938 0 
L 2938 2094 
Q 2938 2591 2744 2837 
Q 2550 3084 2163 3084 
Q 1697 3084 1428 2787 
Q 1159 2491 1159 1978 
L 1159 0 
L 581 0 
L 581 3500 
L 1159 3500 
L 1159 2956 
Q 1366 3272 1645 3428 
Q 1925 3584 2291 3584 
Q 2894 3584 3203 3211 
Q 3513 2838 3513 2113 
z
" transform="scale(0.015625)"/>
       <path id="DejaVuSans-b" d="M 1984 4856 
Q 1566 4138 1362 3434 
Q 1159 2731 1159 2009 
Q 1159 1288 1364 580 
Q 1569 -128 1984 -844 
L 1484 -844 
Q 1016 -109 783 600 
Q 550 1309 550 2009 
Q 550 2706 781 3412 
Q 1013 4119 1484 4856 
L 1984 4856 
z
" transform="scale(0.015625)"/>
       <path id="DejaVuSans-c" d="M 513 4856 
L 1013 4856 
Q 1481 4119 1714 3412 
Q 1947 2706 1947 2009 
Q 1947 1309 1714 600 
Q 1481 -109 1013 -844 
L 513 -844 
Q 928 -128 1133 580 
Q 1338 1288 1338 2009 
Q 1338 2731 1133 3434 
Q 928 4138 513 4856 
z
" transform="scale(0.015625)"/>
      </defs>
      <use xlink:href="#DejaVuSans-37"/>
      <use xlink:href="#DejaVuSans-48" transform="translate(44.09375 0)"/>
      <use xlink:href="#DejaVuSans-50" transform="translate(105.625 0)"/>
      <use xlink:href="#DejaVuSans-53" transform="translate(203.03125 0)"/>
      <use xlink:href="#DejaVuSans-52" transform="translate(266.515625 0)"/>
      <use xlink:href="#DejaVuSans-3" transform="translate(327.703125 0)"/>
      <use xlink:href="#DejaVuSans-47" transform="translate(359.484375 0)"/>
      <use xlink:href="#DejaVuSans-48" transform="translate(422.96875 0)"/>
      <use xlink:href="#DejaVuSans-56" transform="translate(484.5 0)"/>
      <use xlink:href="#DejaVuSans-47" transform="translate(536.59375 0)"/>
      <use xlink:href="#DejaVuSans-48" transform="translate(600.078125 0)"/>
      <use xlink:href="#DejaVuSans-3" transform="translate(661.609375 0)"/>
      <use xlink:href="#DejaVuSans-52" transform="translate(693.390625 0)"/>
      <use xlink:href="#DejaVuSans-3" transform="translate(754.578125 0)"/>
      <use xlink:href="#DejaVuSans-46" transform="translate(786.359375 0)"/>
      <use xlink:href="#DejaVuSans-52" transform="translate(841.34375 0)"/>
      <use xlink:href="#DejaVuSans-50" transform="translate(902.53125 0)"/>
      <use xlink:href="#DejaVuSans-44" transform="translate(999.9375 0)"/>
      <use xlink:href="#DejaVuSans-51" transform="translate(1061.21875 0)"/>
      <use xlink:href="#DejaVuSans-47" transform="translate(1124.59375 0)"/>
      <use xlink:href="#DejaVuSans-52" transform="translate(1188.078125 0)"/>
      <use xlink:href="#DejaVuSans-3" transform="translate(1249.265625 0)"/>
      <use xlink:href="#DejaVuSans-b" transform="translate(1281.046875 0)"/>
      <use xlink:href="#DejaVuSans-56" transform="translate(1320.0625 0)"/>
      <use xlink:href="#DejaVuSans-c" transform="translate(1372.15625 0)"/>
     </g>
    </g>
   </g>
   <g id="matplotlib.axis_2">
    <g id="ytick_1">
     <g id="line2d_17">
      <path d="M 53.722344 282.565284 
L 637.2 282.565284 
" clip-path="url(#pc57422c3e7)" style="fill: none; stroke: #b0b0b0; stroke-opacity: 0.3; stroke-width: 0.5; stroke-linecap: square"/>
     </g>
     <g id="line2d_18">
      <defs>
       <path id="m005d54bc83" d="M 0 0 
L -3.5 0 
" style="stroke: #000000; stroke-width: 0.8"/>
      </defs>
      <g>
       <use xlink:href="#m005d54bc83" x="53.722344" y="282.565284" style="stroke: #000000; stroke-width: 0.8"/>
      </g>
     </g>
     <g id="text_10">
      <!-- −20 -->
      <g transform="translate(25.617656 286.364112) scale(0.1 -0.1)">
       <defs>
        <path id="DejaVuSans-c9c" d="M 678 2272 
L 4684 2272 
L 4684 1741 
L 678 1741 
L 678 2272 
z
" transform="scale(0.015625)"/>
       </defs>
       <use xlink:href="#DejaVuSans-c9c"/>
       <use xlink:href="#DejaVuSans-15" transform="translate(83.796875 0)"/>
       <use xlink:href="#DejaVuSans-13" transform="translate(147.421875 0)"/>
      </g>
     </g>
    </g>
    <g id="ytick_2">
     <g id="line2d_19">
      <path d="M 53.722344 223.341009 
L 637.2 223.341009 
" clip-path="url(#pc57422c3e7)" style="fill: none; stroke: #b0b0b0; stroke-opacity: 0.3; stroke-width: 0.5; stroke-linecap: square"/>
     </g>
     <g id="line2d_20">
      <g>
       <use xlink:href="#m005d54bc83" x="53.722344" y="223.341009" style="stroke: #000000; stroke-width: 0.8"/>
      </g>
     </g>
     <g id="text_11">
      <!-- 0 -->
      <g transform="translate(40.359844 227.139837) scale(0.1 -0.1)">
       <use xlink:href="#DejaVuSans-13"/>
      </g>
     </g>
    </g>
    <g id="ytick_3">
     <g id="line2d_21">
      <path d="M 53.722344 164.116735 
L 637.2 164.116735 
" clip-path="url(#pc57422c3e7)" style="fill: none; stroke: #b0b0b0; stroke-opacity: 0.3; stroke-width: 0.5; stroke-linecap: square"/>
     </g>
     <g id="line2d_22">
      <g>
       <use xlink:href="#m005d54bc83" x="53.722344" y="164.116735" style="stroke: #000000; stroke-width: 0.8"/>
      </g>
     </g>
     <g id="text_12">
      <!-- 20 -->
      <g transform="translate(33.997344 167.915563) scale(0.1 -0.1)">
       <use xlink:href="#DejaVuSans-15"/>
       <use xlink:href="#DejaVuSans-13" transform="translate(63.625 0)"/>
      </g>
     </g>
    </g>
    <g id="ytick_4">
     <g id="line2d_23">
      <path d="M 53.722344 104.89246 
L 637.2 104.89246 
" clip-path="url(#pc57422c3e7)" style="fill: none; stroke: #b0b0b0; stroke-opacity: 0.3; stroke-width: 0.5; stroke-linecap: square"/>
     </g>
     <g id="line2d_24">
      <g>
       <use xlink:href="#m005d54bc83" x="53.722344" y="104.89246" style="stroke: #000000; stroke-width: 0.8"/>
      </g>
     </g>
     <g id="text_13">
      <!-- 40 -->
      <g transform="translate(33.997344 108.691288) scale(0.1 -0.1)">
       <defs>
        <path id="DejaVuSans-17" d="M 2419 4116 
L 825 1625 
L 2419 1625 
L 2419 4116 
z
M 2253 4666 
L 3047 4666 
L 3047 1625 
L 3713 1625 
L 3713 1100 
L 3047 1100 
L 3047 0 
L 2419 0 
L 2419 1100 
L 313 1100 
L 313 1709 
L 2253 4666 
z
" transform="scale(0.015625)"/>
       </defs>
       <use xlink:href="#DejaVuSans-17"/>
       <use xlink:href="#DejaVuSans-13" transform="translate(63.625 0)"/>
      </g>
     </g>
    </g>
    <g id="ytick_5">
     <g id="line2d_25">
      <path d="M 53.722344 45.668185 
L 637.2 45.668185 
" clip-path="url(#pc57422c3e7)" style="fill: none; stroke: #b0b0b0; stroke-opacity: 0.3; stroke-width: 0.5; stroke-linecap: square"/>
     </g>
     <g id="line2d_26">
      <g>
       <use xlink:href="#m005d54bc83" x="53.722344" y="45.668185" style="stroke: #000000; stroke-width: 0.8"/>
      </g>
     </g>
     <g id="text_14">
      <!-- 60 -->
      <g transform="translate(33.997344 49.467013) scale(0.1 -0.1)">
       <defs>
        <path id="DejaVuSans-19" d="M 2113 2584 
Q 1688 2584 1439 2293 
Q 1191 2003 1191 1497 
Q 1191 994 1439 701 
Q 1688 409 2113 409 
Q 2538 409 2786 701 
Q 3034 994 3034 1497 
Q 3034 2003 2786 2293 
Q 2538 2584 2113 2584 
z
M 3366 4563 
L 3366 3988 
Q 3128 4100 2886 4159 
Q 2644 4219 2406 4219 
Q 1781 4219 1451 3797 
Q 1122 3375 1075 2522 
Q 1259 2794 1537 2939 
Q 1816 3084 2150 3084 
Q 2853 3084 3261 2657 
Q 3669 2231 3669 1497 
Q 3669 778 3244 343 
Q 2819 -91 2113 -91 
Q 1303 -91 875 529 
Q 447 1150 447 2328 
Q 447 3434 972 4092 
Q 1497 4750 2381 4750 
Q 2619 4750 2861 4703 
Q 3103 4656 3366 4563 
z
" transform="scale(0.015625)"/>
       </defs>
       <use xlink:href="#DejaVuSans-19"/>
       <use xlink:href="#DejaVuSans-13" transform="translate(63.625 0)"/>
      </g>
     </g>
    </g>
    <g id="text_15">
     <!-- J1 (°) -->
     <g transform="translate(19.215313 162.585703) rotate(-90) scale(0.1 -0.1)">
      <defs>
       <path id="DejaVuSans-2d" d="M 628 4666 
L 1259 4666 
L 1259 325 
Q 1259 -519 939 -900 
Q 619 -1281 -91 -1281 
L -331 -1281 
L -331 -750 
L -134 -750 
Q 284 -750 456 -515 
Q 628 -281 628 325 
L 628 4666 
z
" transform="scale(0.015625)"/>
       <path id="DejaVuSans-72" d="M 1600 4347 
Q 1350 4347 1178 4173 
Q 1006 4000 1006 3750 
Q 1006 3503 1178 3333 
Q 1350 3163 1600 3163 
Q 1850 3163 2022 3333 
Q 2194 3503 2194 3750 
Q 2194 3997 2020 4172 
Q 1847 4347 1600 4347 
z
M 1600 4750 
Q 1800 4750 1984 4673 
Q 2169 4597 2303 4453 
Q 2447 4313 2519 4134 
Q 2591 3956 2591 3750 
Q 2591 3338 2302 3052 
Q 2013 2766 1594 2766 
Q 1172 2766 890 3047 
Q 609 3328 609 3750 
Q 609 4169 896 4459 
Q 1184 4750 1600 4750 
z
" transform="scale(0.015625)"/>
      </defs>
      <use xlink:href="#DejaVuSans-2d"/>
      <use xlink:href="#DejaVuSans-14" transform="translate(29.5 0)"/>
      <use xlink:href="#DejaVuSans-3" transform="translate(93.125 0)"/>
      <use xlink:href="#DejaVuSans-b" transform="translate(124.90625 0)"/>
      <use xlink:href="#DejaVuSans-72" transform="translate(163.921875 0)"/>
      <use xlink:href="#DejaVuSans-c" transform="translate(213.921875 0)"/>
     </g>
    </g>
   </g>
   <g id="line2d_27">
    <path d="M 53.722344 275.688368 
L 637.2 275.688368 
" clip-path="url(#pc57422c3e7)" style="fill: none; stroke-dasharray: 4.44,1.92; stroke-dashoffset: 0; stroke: #9ca3af; stroke-width: 1.2"/>
   </g>
   <g id="line2d_28">
    <path d="M 80.244055 33.317241 
L 80.576857 34.59533 
L 80.937984 34.530785 
L 81.271017 35.775833 
L 81.627765 40.842736 
L 81.627765 40.842736 
L 82.253832 42.351721 
L 82.637109 42.795014 
L 83.003424 45.35849 
L 83.349729 44.29696 
L 84.041295 48.83422 
L 84.379505 54.457627 
L 84.379505 54.457627 
L 84.78251 56.562686 
L 85.36873 54.46776 
L 85.36873 54.46776 
L 85.742518 53.634738 
L 86.101033 53.404614 
L 87.502562 48.488152 
L 87.836974 48.179949 
L 89.840805 43.273179 
L 89.840805 43.273179 
L 90.206856 43.293988 
L 90.554286 42.732909 
L 90.913696 41.494049 
L 91.623957 40.532952 
L 91.982065 40.726624 
L 92.331325 39.680803 
L 92.680213 39.991145 
L 93.023626 39.622867 
L 93.37753 38.580188 
L 93.37753 38.580188 
L 93.724275 38.897044 
L 94.755049 38.036166 
L 95.085771 37.134678 
L 96.130503 36.522811 
L 96.467103 36.98861 
L 96.810173 36.129358 
L 97.824548 35.600562 
L 97.89616 36.254279 
L 98.890387 35.786733 
L 99.224623 34.969628 
L 99.553627 35.518743 
L 99.898214 35.396339 
L 100.264984 34.603882 
L 100.622246 34.495914 
L 101.022828 35.053999 
L 101.369417 34.298546 
L 101.369417 34.298546 
L 101.719117 34.208403 
L 102.058888 34.798357 
L 102.381854 34.718028 
L 102.757409 33.968362 
L 103.089942 34.569882 
L 103.767722 34.410379 
L 104.163067 33.663715 
L 104.8405 33.541651 
L 105.161278 34.153414 
L 105.852561 34.041086 
L 106.206279 33.317738 
L 106.580067 33.933819 
L 107.299053 33.846511 
L 107.625131 33.141925 
L 107.973203 33.769019 
L 108.33805 33.062852 
L 108.705364 33.694962 
L 108.705364 33.694962 
L 109.050592 32.998463 
L 110.094046 32.921288 
L 110.459657 33.578995 
L 112.592632 33.393377 
L 112.927856 32.699117 
L 112.927856 32.699117 
L 113.568819 32.650633 
L 113.898289 33.296252 
L 113.898289 33.296252 
L 114.257273 32.603482 
L 117.702234 32.392608 
L 118.041882 33.034182 
L 119.444145 32.953639 
L 119.834411 32.260941 
L 120.151999 32.899577 
L 120.494382 32.203893 
L 121.186776 32.152904 
L 121.542056 32.790909 
L 121.903183 32.087114 
L 121.903183 32.087114 
L 122.593761 32.015406 
L 122.957326 32.653254 
L 123.281403 31.956824 
L 123.629273 31.927523 
L 123.954974 32.570047 
L 124.288417 31.878067 
L 124.963129 31.830081 
L 125.295335 32.474323 
L 125.659526 31.784173 
L 125.986122 32.434426 
L 126.096846 31.761831 
L 126.757194 31.726971 
L 127.105779 32.377719 
L 127.436863 32.362809 
L 127.771334 31.681943 
L 128.10443 32.335539 
L 129.56355 32.286605 
L 129.898588 31.609853 
L 129.898588 31.609853 
L 130.918371 31.542301 
L 131.259253 32.18826 
L 132.363484 32.134399 
L 132.731395 31.44929 
L 133.072121 32.101145 
L 133.418489 31.42037 
L 133.418489 31.42037 
L 133.770127 32.076158 
L 134.094565 32.063685 
L 134.434493 31.384925 
L 134.779672 32.040845 
L 135.144206 31.363326 
L 135.499784 31.355058 
L 135.845697 32.015903 
L 136.19113 32.008358 
L 136.521054 31.332579 
L 136.87447 31.325822 
L 137.246947 31.986691 
L 137.246947 31.986691 
L 137.606244 31.31326 
L 137.946578 31.975959 
L 138.298373 31.303006 
L 139.318752 31.287823 
L 139.660838 31.950724 
L 140.019275 31.946389 
L 140.385184 31.273929 
L 141.401453 31.262813 
L 141.746662 31.927049 
L 141.746662 31.927049 
L 142.09436 31.255629 
L 142.433148 31.920294 
L 142.786676 31.249212 
L 143.170344 31.245982 
L 143.518337 31.911165 
L 143.84809 31.908749 
L 144.183937 31.238324 
L 144.523805 31.903892 
L 144.876051 31.901858 
L 145.233518 31.231771 
L 145.591049 31.897363 
L 145.591049 31.897363 
L 145.945546 31.226192 
L 146.965628 31.177933 
L 147.33046 31.83277 
L 148.061387 31.806563 
L 148.378133 31.127666 
L 148.717952 31.785192 
L 149.717024 31.758014 
L 150.054421 31.081735 
L 150.400134 31.741745 
L 150.400134 31.741745 
L 150.742201 31.733569 
L 151.157557 31.057314 
L 151.508241 31.050106 
L 151.856812 31.711813 
L 152.200541 31.705396 
L 152.566827 31.031898 
L 152.898265 31.026182 
L 153.232035 31.689151 
L 153.599506 31.016535 
L 153.924664 31.680048 
L 153.924664 31.680048 
L 155.334463 31.66457 
L 155.69357 30.993266 
L 156.036159 31.657996 
L 157.078938 31.649186 
L 157.434982 30.978738 
L 157.434982 30.978738 
L 157.783493 31.644238 
L 158.131833 30.973654 
L 158.491552 30.971326 
L 158.839467 31.637279 
L 159.194511 30.967396 
L 159.535364 31.633599 
L 159.895097 30.963917 
L 160.216486 30.962448 
L 160.558602 31.628899 
L 160.927735 31.62727 
L 160.927735 31.62727 
L 161.299552 30.957749 
L 161.61386 30.951447 
L 161.949971 31.604475 
L 162.32484 30.919952 
L 162.646792 31.574653 
L 163.004338 31.561099 
L 163.346874 30.881388 
L 163.707689 30.871222 
L 164.049163 31.528544 
L 164.369084 30.850594 
L 164.723659 31.509068 
L 165.421994 31.490092 
L 165.421994 31.490092 
L 165.775976 32.146735 
L 166.11498 31.474569 
L 167.487262 31.449334 
L 167.854439 30.775587 
L 168.202026 31.438061 
L 168.547443 30.764947 
L 168.889716 31.428007 
L 169.271211 30.755436 
L 169.271211 30.755436 
L 169.635633 30.751438 
L 169.959524 31.41592 
L 170.296172 30.744005 
L 170.637553 31.40817 
L 171.013984 30.736662 
L 171.374343 30.732978 
L 171.721304 31.397711 
L 172.077523 31.395002 
L 172.418513 30.724213 
L 172.763756 31.38942 
L 173.097463 30.719377 
L 173.423071 31.384833 
L 173.423071 31.384833 
L 173.78964 31.382348 
L 174.105368 30.712193 
L 174.470416 31.378102 
L 175.190043 31.373968 
L 175.529159 30.704287 
L 175.880842 31.370533 
L 176.231541 31.369177 
L 176.580443 30.699747 
L 176.920356 31.366239 
L 176.920356 31.366239 
L 177.282091 31.364862 
L 177.625567 30.690505 
L 178.281428 30.661565 
L 178.621654 31.316222 
L 179.378906 31.289654 
L 179.712143 30.610505 
L 180.054635 31.267874 
L 180.407541 31.256985 
L 180.764788 30.579623 
L 180.764788 30.579623 
L 181.114645 31.238638 
L 181.430794 30.562273 
L 181.776525 30.553596 
L 182.108823 31.213992 
L 182.489365 30.538956 
L 182.853586 30.532812 
L 183.20796 31.194359 
L 183.914389 31.182543 
L 184.26659 30.509181 
L 184.26659 30.509181 
L 184.622291 30.503599 
L 184.957124 31.166704 
L 185.949942 31.154054 
L 186.285558 30.482205 
L 187.347051 30.472625 
L 187.702438 31.137358 
L 188.083699 31.134104 
L 188.083699 31.134104 
L 188.759567 30.460902 
L 188.759567 30.460902 
L 189.104735 31.12631 
L 189.462609 30.45593 
L 191.157074 30.445876 
L 191.508336 31.112078 
L 193.291581 31.104554 
L 193.640655 30.431509 
L 193.988697 31.084515 
L 194.324387 30.402453 
L 194.634725 31.056997 
L 195.055739 30.376359 
L 195.376581 30.365426 
L 195.695749 31.023991 
L 196.385045 31.000991 
L 196.750723 30.32338 
L 197.083741 30.982194 
L 197.083741 30.982194 
L 197.44668 30.307114 
L 197.796018 30.969768 
L 200.287258 30.92673 
L 200.287258 30.92673 
L 200.654293 30.253143 
L 201.015655 30.915729 
L 201.314044 30.912001 
L 201.677781 30.240039 
L 202.056947 30.236628 
L 202.411351 30.90251 
L 202.744026 30.232539 
L 203.537844 30.229441 
L 203.881275 31.560445 
L 204.449267 30.225716 
L 204.774528 30.891847 
L 207.589065 30.883194 
L 207.940514 30.214307 
L 208.295294 30.213107 
L 208.726345 30.880168 
L 209.443639 30.877254 
L 209.766217 30.2085 
L 210.122682 30.875084 
L 210.718876 30.872395 
L 211.095038 30.202716 
L 211.450646 30.868915 
L 211.815292 30.199326 
L 212.16627 30.865685 
L 212.515296 30.196187 
L 212.863166 30.194922 
L 213.200123 30.861438 
L 214.204137 30.857959 
L 214.546223 30.188754 
L 215.609639 30.183762 
L 215.967543 30.850008 
L 216.306393 30.180575 
L 216.654856 30.847026 
L 216.979104 30.177662 
L 217.325849 30.844337 
L 217.680487 30.839096 
L 218.023043 30.156222 
L 218.369866 30.143344 
L 218.694427 30.79784 
L 219.032446 30.786274 
L 219.378535 30.106246 
L 219.716901 30.0938 
L 220.122235 30.750961 
L 220.477656 30.074617 
L 220.818646 30.736277 
L 221.164344 30.727692 
L 221.520809 30.052408 
L 221.866241 30.713324 
L 222.538609 30.700174 
L 222.91507 30.024756 
L 223.24862 30.68689 
L 223.591768 30.681921 
L 223.923336 30.007495 
L 224.258419 30.669315 
L 224.258419 30.669315 
L 224.965803 30.65795 
L 225.32138 29.985739 
L 225.678848 30.64959 
L 226.021966 29.977741 
L 226.378744 29.973587 
L 226.721191 30.637956 
L 227.081409 29.96735 
L 227.444396 30.632738 
L 227.821248 29.962988 
L 227.821248 29.962988 
L 228.538184 29.956326 
L 228.916866 30.620265 
L 229.496534 30.614595 
L 229.854956 29.944262 
L 230.220191 30.609466 
L 230.542892 29.938928 
L 230.880211 30.604384 
L 231.227567 29.93414 
L 231.544718 30.599842 
L 231.895495 29.929823 
L 232.648275 29.925644 
L 232.648275 29.925644 
L 232.984341 30.591846 
L 233.318925 29.922189 
L 233.659121 30.588592 
L 234.001065 29.919159 
L 234.376899 30.585385 
L 234.729458 30.584005 
L 235.100824 29.912224 
L 235.462343 29.895914 
L 235.780087 30.549711 
L 236.123704 29.868419 
L 236.471996 30.523706 
L 236.471996 30.523706 
L 237.202629 30.498426 
L 237.540555 29.819867 
L 238.251584 31.132816 
L 238.602578 29.792103 
L 238.91046 29.784306 
L 239.266489 30.442669 
L 239.609734 29.767137 
L 240.323371 29.751866 
L 240.655998 30.413433 
L 240.655998 30.413433 
L 242.414074 30.384108 
L 242.773997 29.711697 
L 243.14133 29.707086 
L 243.488839 30.371029 
L 243.844245 29.699316 
L 244.179857 30.363685 
L 244.179857 30.363685 
L 244.539218 30.360004 
L 244.88493 29.688854 
L 245.18071 30.354333 
L 245.532613 29.683003 
L 245.872448 29.680518 
L 246.229744 30.34593 
L 246.900252 30.341206 
L 247.247638 29.671051 
L 247.602872 30.33696 
L 248.312649 30.333164 
L 248.651872 29.663482 
L 248.995084 30.329708 
L 248.995084 30.329708 
L 249.339156 29.660252 
L 249.685822 30.991163 
L 250.032485 30.32537 
L 251.808868 30.27858 
L 252.159053 29.597829 
L 252.492134 30.25364 
L 252.492134 30.25364 
L 252.84072 30.241168 
L 253.177524 29.562472 
L 253.521876 30.220202 
L 253.862162 30.213107 
L 254.214519 29.535904 
L 254.587603 29.527885 
L 254.920155 30.18749 
L 255.282859 29.51164 
L 255.624099 30.172103 
L 255.975003 29.497068 
L 256.315448 30.158322 
L 256.659394 30.15141 
L 256.659394 30.15141 
L 257.037606 29.476443 
L 257.403907 29.470364 
L 257.697872 30.13399 
L 258.014495 29.461012 
L 258.368399 30.12335 
L 258.709575 29.450959 
L 259.090195 30.113951 
L 259.430921 30.109637 
L 259.754859 29.437314 
L 260.112875 30.101774 
L 260.448017 29.42997 
L 260.819711 30.094294 
L 260.819711 30.094294 
L 261.181166 30.090614 
L 261.520736 29.41994 
L 261.872512 29.417183 
L 262.191617 30.082684 
L 262.529513 30.080243 
L 262.898426 29.409771 
L 263.23743 29.407604 
L 263.59426 30.073285 
L 266.736873 30.023018 
L 267.133657 29.339715 
L 267.43602 29.326431 
L 267.787516 29.980815 
L 268.12097 29.302119 
L 268.45063 29.291027 
L 268.78632 29.949343 
L 269.157294 29.270716 
L 269.157294 29.270716 
L 269.496253 29.92865 
L 269.841921 29.919974 
L 270.238392 29.2432 
L 271.255253 29.221489 
L 271.612393 29.882514 
L 271.960669 29.208113 
L 272.988097 29.192255 
L 272.988097 29.192255 
L 273.352224 29.855902 
L 273.686901 29.183896 
L 274.035475 29.847972 
L 275.110207 29.836722 
L 275.43835 29.165776 
L 275.772228 29.162634 
L 276.131805 29.827344 
L 276.500998 29.156899 
L 278.563643 29.143342 
L 278.936898 29.809248 
L 279.251597 29.139795 
L 279.63603 29.138169 
L 279.98787 29.804415 
L 280.313541 29.135231 
L 280.650171 29.128702 
L 280.650171 29.128702 
L 281.016676 29.77918 
L 281.368124 29.094858 
L 281.710147 29.749787 
L 282.046619 29.067343 
L 282.395694 29.054781 
L 282.768621 29.709911 
L 283.092809 29.029951 
L 284.106186 29.000558 
L 284.43223 29.659123 
L 284.789481 28.982394 
L 285.148324 28.974757 
L 285.148324 28.974757 
L 285.892602 30.293401 
L 286.216067 28.955533 
L 286.572801 29.617891 
L 286.898756 28.944689 
L 287.228788 29.607637 
L 288.286904 29.593133 
L 288.636258 28.921236 
L 288.969167 28.917849 
L 289.024459 29.585451 
L 289.348461 29.582265 
L 289.711929 28.910982 
L 290.038305 28.908065 
L 290.368039 29.573002 
L 290.712126 28.902213 
L 291.059903 28.899729 
L 291.404426 29.56514 
L 291.753392 28.894736 
L 292.153662 29.560417 
L 292.488398 29.558386 
L 292.488398 29.558386 
L 292.849245 28.888411 
L 293.213138 28.886241 
L 293.584049 29.552375 
L 293.921789 29.550793 
L 294.268079 28.881136 
L 294.619874 29.547539 
L 294.972164 28.878109 
L 295.296245 29.544829 
L 295.63542 29.543633 
L 295.973756 30.206986 
L 296.634868 28.85224 
L 296.980174 29.506174 
L 296.980174 29.506174 
L 297.677819 29.478226 
L 298.014403 28.796504 
L 299.45242 28.751049 
L 299.811763 29.410429 
L 300.175532 28.732977 
L 300.526981 29.391992 
L 300.526981 29.391992 
L 301.207555 29.376991 
L 301.541449 28.701642 
L 302.230921 28.689169 
L 302.584467 29.350965 
L 302.941949 28.677265 
L 303.290695 29.339804 
L 303.649989 29.335104 
L 303.977819 28.662397 
L 304.306319 29.326544 
L 304.702839 28.654378 
L 305.046971 28.650718 
L 305.388199 29.315451 
L 305.730423 28.643984 
L 306.061097 29.309146 
L 306.421818 28.638067 
L 306.766076 29.30307 
L 307.122545 28.632823 
L 307.476196 28.630792 
L 307.818878 29.296629 
L 308.823499 29.290529 
L 308.823499 29.290529 
L 309.185905 28.620578 
L 309.540152 28.618929 
L 309.876517 29.285107 
L 310.221387 28.615766 
L 310.593237 28.614185 
L 310.977077 29.27047 
L 311.956623 29.225667 
L 312.295597 28.545574 
L 312.295597 28.545574 
L 312.677954 29.199958 
L 313.025242 29.186357 
L 313.357105 28.508387 
L 313.698486 29.165143 
L 314.400168 29.146348 
L 314.752164 28.469121 
L 315.100925 28.461078 
L 315.462302 29.12084 
L 315.790068 28.446346 
L 316.164419 29.107014 
L 316.164419 29.107014 
L 316.518804 28.432251 
L 318.244193 28.406021 
L 318.562128 29.069963 
L 318.918455 28.397549 
L 319.275736 29.061311 
L 319.604956 29.057695 
L 319.976243 28.386071 
L 320.369632 29.050532 
L 320.68855 28.379858 
L 321.040252 29.044728 
L 321.397846 28.374324 
L 321.723108 29.039575 
L 322.769562 29.032865 
L 323.134502 28.36287 
L 324.168154 28.357649 
L 324.488541 29.024124 
L 325.195678 29.018565 
L 325.557413 28.332979 
L 325.898638 28.984405 
L 328.002333 28.908293 
L 328.320252 28.231271 
L 328.676516 28.889089 
L 328.676516 28.889089 
L 329.030465 28.213106 
L 329.367985 28.872053 
L 329.742634 28.195709 
L 330.084955 28.188434 
L 330.454349 28.84892 
L 330.794888 28.841464 
L 331.135535 28.167063 
L 331.48156 28.828947 
L 331.815987 28.155315 
L 333.193927 28.136606 
L 333.529446 28.800413 
L 333.895653 28.796258 
L 334.255483 28.124723 
L 334.93071 28.118602 
L 335.273157 28.783561 
L 335.629529 28.78094 
L 336.021013 28.110355 
L 336.685129 28.105905 
L 337.051087 28.771654 
L 337.410556 28.101658 
L 337.772306 28.099556 
L 338.094444 28.766007 
L 338.796327 28.762912 
L 339.211493 28.093503 
L 339.513669 28.081957 
L 339.513669 28.081957 
L 339.879109 28.732773 
L 340.19692 28.051232 
L 340.867458 28.023986 
L 341.194069 28.678485 
L 342.652469 28.634179 
L 342.998558 27.956434 
L 343.337547 27.947939 
L 343.681179 28.608514 
L 344.016262 28.600925 
L 344.016262 28.600925 
L 344.344091 27.926431 
L 344.686911 28.587099 
L 345.043473 27.912312 
L 345.411462 27.906393 
L 345.765146 28.568301 
L 346.115517 27.89469 
L 346.812898 27.885202 
L 347.144932 28.548419 
L 347.82371 28.540534 
L 348.168498 27.869295 
L 348.168498 27.869295 
L 348.555685 27.865863 
L 348.895848 28.5303 
L 349.595636 28.524496 
L 349.944318 27.853639 
L 350.292297 28.518914 
L 350.623268 28.516518 
L 350.976077 27.84623 
L 351.341188 28.511911 
L 352.02536 28.508138 
L 352.362586 27.838661 
L 352.703482 28.504839 
L 353.037689 28.503258 
L 353.389014 27.833849 
L 353.743653 28.493904 
L 354.094788 27.80859 
L 354.433419 27.793499 
L 354.807099 28.446121 
L 355.161987 27.765981 
L 355.493741 28.420344 
L 356.16356 28.397436 
L 356.16356 28.397436 
L 356.501099 27.719872 
L 356.818593 28.37873 
L 357.191647 27.700689 
L 357.546472 28.359165 
L 357.961515 28.34963 
L 358.315792 27.677171 
L 358.685 28.341949 
L 359.035733 28.338289 
L 359.382023 27.667411 
L 359.74593 28.332461 
L 360.115641 28.329071 
L 360.459896 27.659505 
L 360.794714 27.658421 
L 361.10194 28.324732 
L 361.446415 28.322657 
L 361.821426 27.652116 
L 362.538142 27.646197 
L 362.929049 28.311765 
L 363.289125 27.641521 
L 363.612155 28.308105 
L 363.956085 27.637929 
L 364.23872 27.636212 
L 364.582044 28.301194 
L 366.042725 28.289648 
L 366.395847 27.619244 
L 368.776098 27.602934 
L 369.130859 28.267599 
L 369.449248 27.597014 
L 369.789019 27.594302 
L 370.133699 28.259509 
L 370.820636 28.254857 
L 371.198632 27.584589 
L 372.220462 27.579235 
L 372.571474 28.910144 
L 372.91375 27.576253 
L 373.265526 28.242769 
L 373.265526 28.242769 
L 374.320452 28.221374 
L 374.69654 27.536851 
L 375.03611 28.189204 
L 375.380961 27.508859 
L 376.756885 27.462072 
L 376.756885 27.462072 
L 377.134661 28.119168 
L 377.808389 28.100956 
L 378.165764 27.425335 
L 378.509426 28.084759 
L 378.829846 27.40882 
L 379.175026 28.06926 
L 379.536324 27.394292 
L 379.888056 28.055659 
L 380.244819 27.381574 
L 380.896803 27.371227 
L 381.249709 28.03483 
L 381.249709 28.03483 
L 382.635275 28.020257 
L 383.023151 27.348998 
L 383.697677 27.34285 
L 384.042342 28.007989 
L 384.372512 27.337339 
L 384.712708 27.334153 
L 385.063079 27.999336 
L 385.403771 27.32916 
L 385.403771 27.32916 
L 385.741843 27.994684 
L 387.180702 27.986574 
L 387.52937 27.317141 
L 387.868344 27.315515 
L 388.215994 27.981895 
L 388.591769 27.980767 
L 388.91447 27.301168 
L 389.291039 27.285332 
L 389.631514 27.939582 
L 391.01907 27.886037 
L 391.369285 27.206214 
L 392.067947 27.187822 
L 392.469812 27.84729 
L 392.803113 27.839973 
L 393.146104 27.165796 
L 393.504477 27.159131 
L 393.845109 27.821356 
L 394.184146 27.147993 
L 394.556216 27.142231 
L 394.905961 27.805226 
L 395.550973 27.794018 
L 395.882786 27.120928 
L 396.208399 27.783988 
L 396.553157 27.110626 
L 396.908358 27.105926 
L 397.266124 27.769801 
L 397.585023 27.097318 
L 397.900691 27.761643 
L 397.900691 27.761643 
L 398.248435 27.757918 
L 398.696649 28.418153 
L 399.045738 27.082361 
L 399.388949 27.747524 
L 399.741683 27.74461 
L 400.107138 27.073732 
L 400.422914 27.739345 
L 400.767266 27.736905 
L 400.767266 27.736905 
L 401.122467 27.066524 
L 401.479044 27.064357 
L 401.841375 27.730488 
L 402.526874 27.726763 
L 402.877915 27.05733 
L 403.549191 27.054191 
L 403.866406 27.720888 
L 404.208131 27.715646 
L 404.55647 27.030196 
L 405.314975 26.998387 
L 405.655137 27.651891 
L 405.992534 27.639419 
L 406.340654 26.958736 
L 407.00253 26.937297 
L 407.369222 27.596268 
L 408.475925 27.575483 
L 408.475925 27.575483 
L 408.824935 26.900155 
L 409.509558 26.887709 
L 409.838293 27.549321 
L 410.170063 27.542815 
L 410.530392 26.868233 
L 410.886812 27.529937 
L 411.210967 26.857048 
L 411.542766 27.520313 
L 413.22462 27.49885 
L 413.553433 26.827658 
L 414.221455 26.821061 
L 414.356208 27.488255 
L 415.058873 27.482539 
L 415.396017 26.812159 
L 415.761207 26.809313 
L 416.108954 27.474746 
L 416.477755 27.472575 
L 416.835487 26.802443 
L 416.835487 26.802443 
L 417.168348 26.800545 
L 417.489097 27.466792 
L 417.823147 27.465142 
L 418.151085 26.795713 
L 418.482589 26.794152 
L 418.817422 27.460852 
L 419.176015 26.787578 
L 419.511534 27.440585 
L 419.851305 27.425246 
L 420.224281 26.741626 
L 420.608307 26.72807 
L 420.942562 27.382184 
L 421.284756 27.370256 
L 421.284756 27.370256 
L 421.650557 26.691946 
L 421.972148 27.348364 
L 422.319392 27.338379 
L 422.661496 26.661807 
L 423.003564 26.654398 
L 423.330283 27.315921 
L 423.741494 26.639236 
L 424.090539 27.300221 
L 424.439437 26.625683 
L 424.760812 26.619968 
L 425.090703 27.281965 
L 425.771091 27.270105 
L 426.100937 26.596313 
L 426.100937 26.596313 
L 426.446057 26.591253 
L 426.881797 27.253273 
L 427.235824 27.248843 
L 427.56842 26.576384 
L 427.94948 26.572479 
L 428.283937 27.237028 
L 428.623253 27.233528 
L 428.976658 26.562606 
L 429.299795 27.228195 
L 429.299795 27.228195 
L 430.77319 27.217736 
L 431.121887 26.547219 
L 431.485452 27.212811 
L 431.842718 27.210709 
L 432.175624 26.541027 
L 432.175624 26.541027 
L 432.540143 26.538836 
L 433.149982 27.204156 
L 433.806141 27.200881 
L 434.164562 26.5317 
L 434.499597 27.185497 
L 434.860098 26.500634 
L 435.199746 27.152693 
L 435.539782 26.472123 
L 435.896735 27.128112 
L 436.614078 27.107961 
L 436.972391 26.429807 
L 437.653435 26.41257 
L 437.995238 27.071745 
L 438.346265 27.062752 
L 438.685883 26.386973 
L 440.088914 26.357512 
L 440.422916 27.019625 
L 440.765799 26.345223 
L 441.106745 27.007108 
L 443.560371 26.975592 
L 443.886028 26.304509 
L 444.226846 26.301279 
L 444.559991 26.966441 
L 444.907063 26.295359 
L 445.231404 26.960815 
L 445.558641 26.958286 
L 445.665832 26.289736 
L 447.068833 26.280766 
L 447.415794 26.946652 
L 447.78877 26.276902 
L 449.486005 26.253295 
L 449.848895 26.904561 
L 450.172614 26.890081 
L 450.504554 26.209647 
L 451.19754 26.184613 
L 451.520946 26.840196 
L 451.950309 26.16071 
L 452.637559 26.142774 
L 452.964058 26.801043 
L 452.964058 26.801043 
L 454.354286 26.770181 
L 454.701985 26.096164 
L 455.42219 27.415598 
L 455.764648 26.745941 
L 456.108814 26.739885 
L 456.457981 26.066727 
L 457.168399 26.057216 
L 457.51849 26.720841 
L 457.882741 26.048856 
L 458.552392 26.042078 
L 458.888365 26.707172 
L 459.246611 26.036025 
L 460.255657 26.028252 
L 460.59948 26.694093 
L 460.59948 26.694093 
L 460.962888 26.023801 
L 461.349244 26.68955 
L 461.683466 26.019555 
L 462.014266 26.685801 
L 462.365904 26.016099 
L 464.475648 25.967796 
L 464.475648 25.967796 
L 464.825594 26.620643 
L 465.161567 26.607587 
L 465.518192 25.926315 
L 465.846052 26.583639 
L 466.176837 25.90569 
L 466.839246 25.885604 
L 467.215036 26.543672 
L 467.621951 25.866445 
L 468.679236 25.842542 
L 469.003331 26.503299 
L 470.746681 26.475555 
L 471.09602 25.802646 
L 471.435023 25.798331 
L 471.793053 26.461842 
L 472.129496 26.457415 
L 472.129496 26.457415 
L 472.488138 25.785657 
L 472.830302 26.450568 
L 473.161773 26.446908 
L 473.493166 25.776235 
L 473.879585 26.441193 
L 474.222092 25.770428 
L 474.574151 26.435727 
L 475.983421 26.426757 
L 476.339088 25.756919 
L 477.001781 25.753688 
L 477.355842 26.420092 
L 477.731773 25.750683 
L 478.083504 26.40204 
L 478.777445 26.371904 
L 479.133801 25.689119 
L 479.474169 26.345199 
L 480.131014 26.321522 
L 480.483777 25.641902 
L 481.181378 25.622246 
L 481.522524 26.280518 
L 481.896406 26.270713 
L 482.246322 25.594301 
L 483.27044 25.573492 
L 483.61948 26.235806 
L 484.316141 26.22363 
L 484.672233 25.550199 
L 486.033465 25.532059 
L 486.44313 26.195978 
L 486.783043 26.192475 
L 487.137834 25.521011 
L 487.480405 26.185652 
L 488.170159 26.180026 
L 488.53327 25.509352 
L 488.876153 25.506936 
L 489.252457 26.172481 
L 489.529434 25.502915 
L 489.877133 26.168708 
L 490.231004 25.498713 
L 491.940855 25.490646 
L 492.287067 26.145688 
L 492.287067 26.145688 
L 493.012665 26.115143 
L 493.348903 25.432109 
L 493.715062 26.08803 
L 494.058772 26.075673 
L 494.38554 25.395127 
L 494.740834 26.051296 
L 496.174677 26.016594 
L 496.520311 25.339799 
L 496.872229 25.332118 
L 497.229025 25.992241 
L 497.573127 25.318064 
L 497.91462 25.311671 
L 498.27157 25.973061 
L 498.627662 25.29902 
L 498.931184 25.962081 
L 499.304144 25.288718 
L 499.647166 25.951574 
L 499.970307 25.281037 
L 500.649491 25.275431 
L 500.973646 25.94039 
L 501.301051 25.936617 
L 501.661929 25.26486 
L 502.062932 25.929229 
L 502.404064 25.926134 
L 502.733019 25.255008 
L 503.429915 25.249722 
L 503.764278 25.915021 
L 504.114023 25.912782 
L 504.476977 25.242494 
L 504.812749 25.240528 
L 504.812749 25.240528 
L 505.205482 25.906413 
L 506.226551 25.901373 
L 506.568197 25.231875 
L 506.908251 25.230519 
L 507.252432 25.88556 
L 507.576072 25.200607 
L 507.935194 25.852619 
L 508.356849 25.169746 
L 508.356849 25.169746 
L 508.699453 25.156799 
L 509.040835 25.811547 
L 509.753112 25.787668 
L 510.071937 25.11051 
L 510.400546 25.101022 
L 510.730738 25.760736 
L 511.826699 25.736788 
L 511.826699 25.736788 
L 512.178867 25.061235 
L 512.529708 25.722015 
L 514.304525 25.692891 
L 514.619098 25.023032 
L 515.005517 25.689119 
L 515.356265 25.019372 
L 516.071322 25.015893 
L 516.420039 25.682139 
L 516.820401 25.01255 
L 517.17754 25.679539 
L 517.52269 25.678275 
L 517.790506 25.009387 
L 518.154321 25.6764 
L 518.509679 25.006991 
L 518.846245 25.674049 
L 520.326079 25.66847 
L 520.673558 24.999218 
L 520.910216 24.998226 
L 521.257978 25.664425 
L 521.940197 25.660697 
L 522.315953 24.990746 
L 524.398105 24.981235 
L 524.763877 25.647754 
L 525.124922 24.977758 
L 525.448264 25.644117 
L 527.16229 25.629296 
L 527.493213 24.944072 
L 527.823838 25.598254 
L 528.536853 25.568612 
L 528.536853 25.568612 
L 528.882487 24.889218 
L 529.237219 25.54444 
L 529.609896 25.533412 
L 529.934521 24.85594 
L 530.65224 24.836873 
L 530.997672 25.495414 
L 531.36366 24.81864 
L 531.727739 25.47953 
L 531.727739 25.47953 
L 532.753855 25.458023 
L 533.097972 24.783621 
L 533.431351 25.446412 
L 533.78094 24.773592 
L 534.452025 24.764622 
L 534.84298 25.427706 
L 535.226288 24.755199 
L 535.226288 24.755199 
L 537.94587 24.729378 
L 538.279186 25.395082 
L 538.608548 25.392778 
L 538.947991 24.722848 
L 539.307959 25.388553 
L 539.679183 24.718871 
L 539.679183 24.718871 
L 540.035372 25.385073 
L 540.396638 25.3834 
L 540.747914 24.713698 
L 541.113622 24.71214 
L 541.457489 25.378588 
L 541.805639 25.375923 
L 542.13569 24.692937 
L 542.483262 25.344114 
L 542.831084 24.662842 
L 543.170169 24.649084 
L 543.509363 25.303042 
L 543.509363 25.303042 
L 543.855716 24.623961 
L 544.178432 24.612484 
L 544.529117 25.268745 
L 544.885425 24.589869 
L 545.2098 25.247555 
L 545.560875 25.238653 
L 545.941715 24.561675 
L 547.370101 24.531921 
L 547.689783 25.194259 
L 548.743897 25.179574 
L 549.089143 24.507115 
L 549.442686 25.171552 
L 549.809751 25.167827 
L 550.164546 24.495998 
L 550.518264 25.160234 
L 550.867039 24.488815 
L 550.867039 24.488815 
L 551.220851 25.15348 
L 551.925391 25.146838 
L 552.224969 24.476164 
L 552.555739 24.473316 
L 552.91172 25.138321 
L 554.305358 25.129124 
L 554.635234 24.459422 
L 556.049364 24.452261 
L 556.395498 25.118688 
L 557.752835 25.072893 
L 558.094637 24.389975 
L 558.490139 25.043841 
L 559.859999 24.999174 
L 560.185563 24.320887 
L 560.542561 24.979159 
L 560.910721 24.969375 
L 561.252773 24.292963 
L 561.622156 24.952949 
L 561.977358 24.277576 
L 562.334341 24.938537 
L 562.670687 24.932481 
L 563.031657 24.259323 
L 563.350248 24.253922 
L 563.350248 24.253922 
L 563.70495 24.916396 
L 564.028698 24.244864 
L 564.367799 24.9079 
L 564.764471 24.235352 
L 565.103665 24.898978 
L 565.774877 24.891703 
L 566.140943 24.220215 
L 566.495048 24.884835 
L 567.542926 24.876183 
L 567.900271 24.205622 
L 568.225767 24.871166 
L 569.584498 24.863148 
L 569.943997 24.193442 
L 570.271562 24.859917 
L 570.602985 24.858516 
L 571.03827 24.188879 
L 571.03827 24.188879 
L 572.774479 24.114505 
L 573.138245 24.769342 
L 573.494572 24.089113 
L 574.857991 24.051609 
L 575.213017 24.711779 
L 575.213017 24.711779 
L 575.553243 24.703781 
L 575.906287 25.361464 
L 576.262569 24.02529 
L 576.62629 24.020635 
L 576.971048 24.684646 
L 577.294812 24.681391 
L 577.630394 24.009767 
L 578.334233 24.00184 
L 578.698782 24.665599 
L 579.039444 23.99452 
L 579.396069 24.658596 
L 579.741453 24.654506 
L 579.741453 24.654506 
L 580.106453 23.981529 
L 580.43214 24.645469 
L 580.763864 24.641335 
L 581.105995 23.969826 
L 581.463555 23.966143 
L 581.802171 24.630334 
L 582.149464 23.959412 
L 582.515638 23.956382 
L 582.862352 24.62116 
L 583.219022 23.950282 
L 583.55065 24.615919 
L 583.55065 24.615919 
L 583.917871 24.613479 
L 584.275856 23.943143 
L 584.623443 23.940975 
L 584.962827 24.606816 
L 585.320574 23.936818 
L 585.644278 24.603156 
L 586.693904 24.598477 
L 587.019527 23.929296 
L 587.36635 23.920259 
L 587.711361 24.573514 
L 588.04227 24.5584 
L 588.04227 24.5584 
L 588.376443 23.877377 
L 589.055299 23.851215 
L 589.421209 24.506232 
L 589.832484 24.493245 
L 590.159516 23.815725 
L 590.51503 24.473002 
L 590.869292 24.463739 
L 591.209004 23.786376 
L 591.555588 24.445507 
L 591.555588 24.445507 
L 591.905617 24.437846 
L 592.248485 23.762136 
L 592.571671 24.423884 
L 594.663092 24.390766 
L 595.011384 23.718011 
L 595.700512 23.709924 
L 595.700512 23.709924 
L 596.084147 24.373866 
L 596.451104 23.702153 
L 596.796909 24.367112 
L 597.45249 24.361145 
L 597.806503 23.69027 
L 598.145603 23.687738 
L 598.471446 24.353443 
L 599.541773 24.346733 
L 599.541773 24.346733 
L 599.883918 23.677051 
L 600.567512 23.673619 
L 600.918885 24.339797 
L 601.279886 24.338349 
L 601.622359 23.66894 
L 601.961695 23.659926 
L 602.360682 24.310609 
L 603.378609 24.268246 
L 603.696949 23.58682 
L 603.696949 23.58682 
L 606.502087 23.508987 
L 606.842827 24.169178 
L 607.550088 24.156167 
L 607.869506 23.48276 
L 608.222832 24.144621 
L 608.632717 24.138476 
L 608.951088 23.466017 
L 610.326527 23.448984 
L 610.678288 24.112971 
L 610.678288 24.112971 
" clip-path="url(#pc57422c3e7)" style="fill: none; stroke: #b91c1c; stroke-width: 1.8; stroke-linecap: square"/>
   </g>
   <g id="line2d_29">
    <path d="M 80.244055 221.758057 
L 80.959728 221.113146 
L 81.301937 220.6065 
L 81.537268 222.339885 
L 81.869492 222.918121 
L 82.924683 228.785941 
L 83.639323 234.48504 
L 85.672781 256.949284 
L 86.022682 259.92867 
L 86.375897 261.81743 
L 87.044389 268.021004 
L 87.790575 270.997557 
L 88.133395 273.704488 
L 88.475839 274.094155 
L 88.833683 274.916259 
L 89.197497 273.95419 
L 89.891844 273.845386 
L 90.230474 274.679652 
L 91.256609 274.513969 
L 91.603774 274.900496 
L 92.321024 273.909141 
L 93.021796 274.699951 
L 93.360192 274.211697 
L 94.080803 274.109304 
L 94.408383 274.943374 
L 94.760096 274.443217 
L 95.117205 274.397102 
L 95.485179 274.789895 
L 95.485179 274.789895 
L 95.836158 274.297249 
L 96.202164 274.695402 
L 96.547108 273.763032 
L 97.191322 274.565204 
L 97.517933 274.076669 
L 97.849277 274.925065 
L 98.166164 274.438529 
L 98.518224 274.84306 
L 98.88149 273.912839 
L 99.254921 274.769264 
L 99.616298 273.84299 
L 99.942186 274.262434 
L 100.320275 274.235763 
L 100.649227 274.659465 
L 101.002177 274.17276 
L 101.35891 274.130456 
L 102.09317 274.950401 
L 102.440257 274.913075 
L 102.796677 274.438778 
L 103.153224 274.854497 
L 103.794404 274.800164 
L 104.150496 273.887391 
L 104.490442 274.315316 
L 105.197938 274.281037 
L 105.561626 274.713187 
L 105.936554 274.697816 
L 106.308844 273.79413 
L 106.927669 274.664532 
L 107.277854 273.762155 
L 107.637621 275.068897 
L 107.989662 274.598201 
L 108.352071 274.578052 
L 108.686841 275.00813 
L 109.089111 274.101611 
L 109.089111 274.101611 
L 109.70725 274.970555 
L 110.09825 274.961512 
L 110.09825 274.961512 
L 110.824567 274.038901 
L 111.48843 273.990169 
L 111.850854 274.855521 
L 112.189985 273.945632 
L 112.827351 274.799865 
L 113.554403 274.762317 
L 114.277202 273.839224 
L 114.63969 273.828398 
L 115.000347 274.263806 
L 115.32047 273.812762 
L 115.723113 274.248555 
L 116.414302 274.238774 
L 116.766503 273.788232 
L 117.126975 274.224632 
L 117.475702 274.220062 
L 117.842364 273.769893 
L 118.191733 275.093677 
L 118.543636 274.185043 
L 119.131105 274.601265 
L 119.493231 275.030775 
L 120.79837 274.991876 
L 121.516231 274.07663 
L 121.875044 274.067631 
L 122.404076 274.946436 
L 122.404076 274.946436 
L 122.762467 274.041448 
L 123.51023 274.912468 
L 123.844877 274.463317 
L 124.197372 274.904292 
L 124.568052 274.00034 
L 125.28447 274.423832 
L 125.544422 273.969615 
L 125.931233 274.850369 
L 126.316497 273.947758 
L 126.682984 274.380208 
L 126.682984 274.380208 
L 127.399749 274.353231 
L 127.778274 273.894057 
L 128.134649 274.770167 
L 128.484379 274.309764 
L 128.695213 274.303924 
L 129.065076 274.740792 
L 129.839387 273.824714 
L 130.554117 273.799315 
L 130.900817 274.230708 
L 131.252358 273.771243 
L 131.252358 273.771243 
L 131.809798 275.079839 
L 132.895364 274.989306 
L 133.214126 274.074149 
L 133.572782 274.498618 
L 133.925076 274.038792 
L 134.278418 274.914491 
L 134.635244 274.453921 
L 134.93742 274.889504 
L 135.307034 273.984717 
L 135.68001 274.863066 
L 136.020672 273.963121 
L 136.363727 273.953038 
L 136.702388 274.832927 
L 136.702388 274.832927 
L 137.447213 274.814973 
L 137.798367 273.914178 
L 138.091539 273.908854 
L 138.439361 274.79091 
L 138.792452 274.781209 
L 139.540856 273.875727 
L 139.869185 274.31231 
L 140.21249 273.86159 
L 140.573819 273.855975 
L 140.573819 273.855975 
L 141.217611 274.735515 
L 141.217611 274.735515 
L 141.564121 273.838987 
L 141.891622 274.277554 
L 142.622643 274.266325 
L 142.976533 274.70802 
L 143.325886 273.812978 
L 143.664752 274.699717 
L 144.004445 274.249645 
L 144.350362 274.692246 
L 145.025544 273.79522 
L 145.739838 273.789955 
L 146.442689 274.67473 
L 146.794156 273.781462 
L 147.151717 273.778711 
L 147.489084 274.220507 
L 148.188931 274.216299 
L 148.528658 273.770266 
L 149.935614 273.791051 
L 150.291877 274.691591 
L 150.611828 273.808605 
L 150.943578 274.708281 
L 151.640571 273.83456 
L 152.014654 274.732968 
L 152.380283 273.850536 
L 152.380283 273.850536 
L 153.082445 273.860968 
L 153.431005 274.312316 
L 153.739838 273.872496 
L 154.087022 273.877879 
L 154.396168 274.326645 
L 155.084171 274.339349 
L 155.437684 274.791088 
L 155.794604 273.905543 
L 156.132314 274.800481 
L 156.517123 273.914444 
L 157.236217 274.813386 
L 157.941663 273.929656 
L 158.316826 273.933435 
L 158.681375 274.827008 
L 159.382885 273.942748 
L 159.722015 274.835865 
L 160.011482 274.838032 
L 160.350817 274.393933 
L 160.719913 274.395902 
L 160.719913 274.395902 
L 161.078603 274.844618 
L 161.386247 274.846404 
L 162.088271 273.959482 
L 162.446663 274.851793 
L 162.77832 273.976953 
L 163.137853 274.436045 
L 163.48702 274.447644 
L 163.834827 274.907532 
L 164.527876 274.039645 
L 164.860301 274.049135 
L 165.191836 274.949785 
L 165.541223 274.069692 
L 165.856731 274.077859 
L 165.856731 274.077859 
L 166.267007 274.9771 
L 166.599727 274.984526 
L 166.946192 274.102564 
L 167.290763 274.109275 
L 167.633162 274.561262 
L 167.99896 274.569299 
L 168.375204 275.022664 
L 169.120671 275.033247 
L 169.426299 274.5907 
L 169.768917 275.041364 
L 170.447446 275.050339 
L 170.796222 274.163491 
L 171.162616 275.058539 
L 171.523352 274.616385 
L 172.200472 274.623492 
L 172.570932 274.182994 
L 172.919283 275.077082 
L 172.919283 275.077082 
L 173.271029 274.634019 
L 173.6025 274.636883 
L 173.936364 275.086629 
L 174.279076 275.08922 
L 174.647408 274.201644 
L 175.014491 275.094841 
L 175.357609 274.206968 
L 175.694533 274.218306 
L 176.009668 273.810346 
L 176.35538 273.851486 
L 176.715975 274.331268 
L 177.074381 273.917782 
L 177.427395 274.393998 
L 177.427395 274.393998 
L 177.79765 273.977459 
L 178.158542 274.450474 
L 179.148077 274.514875 
L 179.487975 273.652578 
L 179.854119 274.559272 
L 180.192451 275.027135 
L 180.536181 274.156844 
L 180.882612 274.172648 
L 181.253915 274.635195 
L 181.595639 274.206867 
L 181.595639 274.206867 
L 181.961518 274.233616 
L 182.33379 274.708556 
L 182.709579 274.286172 
L 183.096561 274.74924 
L 184.149862 274.832329 
L 184.84507 273.996438 
L 185.091314 274.453456 
L 185.434212 274.033998 
L 185.790289 274.948109 
L 186.095902 274.524064 
L 186.472944 274.993825 
L 187.173295 274.142514 
L 187.880615 275.071998 
L 188.243479 274.641893 
L 188.598695 274.673646 
L 189.312646 273.871717 
L 189.671567 274.364365 
L 190.006728 273.96199 
L 190.006728 273.96199 
L 190.360304 274.89235 
L 191.034375 274.075555 
L 191.697131 275.029723 
L 192.056801 274.614416 
L 192.422025 275.093292 
L 192.771129 274.253012 
L 193.113669 274.751275 
L 193.461442 274.349577 
L 193.828198 274.842655 
L 195.530855 275.018705 
L 195.877645 274.162834 
L 196.235038 275.083381 
L 196.577183 274.215686 
L 196.900544 274.715962 
L 197.691671 273.915987 
L 197.998257 274.848589 
L 198.348281 274.001848 
L 198.701701 274.930244 
L 198.701701 274.930244 
L 199.050555 274.962693 
L 199.415339 274.109822 
L 200.131761 275.069904 
L 200.75148 273.801868 
L 201.094829 274.298265 
L 201.411451 274.338908 
L 201.760242 273.949259 
L 202.106752 274.451718 
L 202.826346 274.540398 
L 203.181547 275.037189 
L 203.181547 275.037189 
L 203.885308 274.219216 
L 204.231005 274.733244 
L 204.953927 273.956443 
L 205.656563 274.95972 
L 205.996472 275.002353 
L 206.69853 274.199888 
L 207.015025 274.249906 
L 207.358766 273.86586 
L 207.689957 274.813629 
L 208.013971 274.862705 
L 208.374129 274.029174 
L 208.374129 274.029174 
L 209.097662 275.024826 
L 209.43365 275.077437 
L 209.765498 273.788916 
L 210.177239 274.2821 
L 210.521155 273.896479 
L 210.880452 274.842761 
L 211.229869 274.010293 
L 211.574456 274.509462 
L 212.293065 274.593167 
L 212.955992 273.798196 
L 213.612039 274.801198 
L 213.949984 273.970959 
L 214.317269 274.913594 
L 214.664841 274.969735 
L 215.012398 274.144412 
L 215.414747 274.211629 
L 215.769527 273.842179 
L 215.769527 273.842179 
L 216.41818 274.405091 
L 217.084998 274.520261 
L 217.437042 275.014615 
L 217.77236 274.170089 
L 218.122932 275.099493 
L 218.47299 274.703792 
L 218.834758 274.769196 
L 219.158585 273.93432 
L 219.561482 274.871861 
L 219.919262 274.470768 
L 220.256846 274.526764 
L 220.632229 275.020861 
L 220.986055 274.176091 
L 221.320542 274.232115 
L 221.661159 274.737798 
L 222.023848 274.362213 
L 222.367089 274.422991 
L 222.69487 274.02422 
L 223.018324 274.080311 
L 223.366538 274.572281 
L 223.849894 274.60688 
L 224.306394 274.168366 
L 224.656593 274.201768 
L 225.015842 273.826396 
L 225.015842 273.826396 
L 225.376873 274.788823 
L 225.821181 273.973201 
L 226.163874 274.928459 
L 226.529661 274.983952 
L 227.232889 274.208075 
L 227.585198 274.736667 
L 227.585198 274.736667 
L 228.284296 273.984374 
L 228.968609 274.097522 
L 229.295906 274.605989 
L 229.992224 274.794029 
L 230.357209 273.992093 
L 230.70619 274.959146 
L 231.058827 274.14836 
L 231.448623 273.775232 
L 231.448623 273.775232 
L 232.086899 273.928874 
L 232.086899 273.928874 
L 232.427483 274.899015 
L 232.773069 274.069263 
L 233.119578 274.593208 
L 233.461977 273.782546 
L 233.81063 274.759847 
L 234.16014 273.959748 
L 234.500694 274.489565 
L 235.222554 274.619912 
L 235.591292 274.249843 
L 235.933475 274.327054 
L 235.933475 274.327054 
L 236.274137 273.964678 
L 236.6309 274.933069 
L 236.970783 274.123678 
L 237.331876 275.084307 
L 237.666083 273.79212 
L 238.363918 274.842948 
L 239.064455 274.105333 
L 239.420954 274.627345 
L 239.420954 274.627345 
L 239.787224 273.827956 
L 240.131371 274.803034 
L 240.461407 274.436974 
L 240.829911 274.967257 
L 241.203714 274.156029 
L 241.494071 274.655234 
L 241.824447 274.759815 
L 242.17052 274.399755 
L 242.51775 274.945995 
L 242.852128 274.585672 
L 243.179972 273.789389 
L 243.546239 274.779083 
L 244.258114 274.072393 
L 244.258114 274.072393 
L 244.677112 275.048243 
L 244.988386 274.689593 
L 245.335909 273.907222 
L 245.673821 274.891159 
L 246.368637 275.072593 
L 246.708785 273.848549 
L 247.085044 273.963432 
L 247.450845 274.944606 
L 247.763245 274.123287 
L 247.763245 274.123287 
L 248.511962 274.252544 
L 248.837756 274.777881 
L 249.198086 273.990779 
L 249.549113 274.532891 
L 250.226859 274.718719 
L 250.566586 273.934782 
L 250.901605 274.91736 
L 251.236326 274.122781 
L 251.58562 274.657816 
L 251.929458 274.311579 
L 252.280686 274.862551 
L 252.280686 274.862551 
L 252.640639 274.506323 
L 253.002892 275.046848 
L 253.364176 274.688269 
L 253.701759 273.905967 
L 254.045329 274.889963 
L 254.384649 274.096849 
L 254.727953 274.63972 
L 255.070147 274.769223 
L 255.411842 273.996544 
L 255.786051 274.98882 
L 256.092808 275.076087 
L 256.440443 274.300101 
L 256.440443 274.300101 
L 256.803382 274.398055 
L 257.188944 274.958343 
L 257.54741 274.17552 
L 257.904486 273.833112 
L 258.616749 274.957958 
L 258.942078 275.075252 
L 259.31338 274.299325 
L 259.676259 273.963752 
L 259.676259 273.963752 
L 260.288315 274.58051 
L 260.288315 274.58051 
L 261.028967 273.898945 
L 261.721375 275.016913 
L 262.079972 275.102945 
L 262.414287 274.331949 
L 262.764237 273.994794 
L 263.1187 274.987177 
L 263.437432 274.637567 
L 263.788429 273.865555 
L 264.134142 274.864251 
L 264.482824 274.086485 
L 264.833225 274.637431 
L 264.833225 274.637431 
L 265.527806 273.962961 
L 265.894029 274.956892 
L 266.226003 274.174143 
L 266.569948 273.831803 
L 266.903231 274.3964 
L 267.257854 274.535606 
L 267.930942 273.876745 
L 268.624979 275.024204 
L 268.976084 273.788848 
L 269.691973 274.945501 
L 270.030041 275.046152 
L 270.697955 274.359672 
L 271.431305 274.501019 
L 271.790726 274.102103 
L 272.849625 274.270601 
L 273.205046 274.779151 
L 273.590932 273.949165 
L 273.949745 274.019905 
L 274.67639 275.02378 
L 275.038766 274.187732 
L 275.393043 273.788436 
L 275.786294 273.863944 
L 275.786294 273.863944 
L 276.946305 274.369334 
L 277.328285 273.973026 
L 277.657785 274.910538 
L 278.006546 274.510119 
L 278.829581 274.610291 
L 279.190205 273.777885 
L 279.547814 274.285405 
L 281.362746 274.633857 
L 281.701 274.270347 
L 282.325095 274.416924 
L 282.658225 274.054258 
L 282.995857 274.990159 
L 282.995857 274.990159 
L 283.352683 275.056445 
L 283.718231 274.257818 
L 284.444831 274.440584 
L 284.813946 274.077098 
L 285.177712 275.078172 
L 285.428317 274.719092 
L 285.779202 273.963068 
L 286.124601 274.067785 
L 286.475569 274.633694 
L 286.794267 274.31536 
L 287.139103 274.435615 
L 287.486209 274.11883 
L 287.835813 274.702622 
L 288.165517 274.825477 
L 288.165517 274.825477 
L 289.339065 273.877717 
L 290.037522 275.052264 
L 290.724116 274.426166 
L 291.082474 275.012865 
L 291.082474 275.012865 
L 291.423748 274.694108 
L 291.732021 274.817327 
L 292.047343 274.501475 
L 292.392164 275.084136 
L 292.748413 274.774929 
L 293.424471 275.045972 
L 293.799761 274.299536 
L 294.137467 274.893034 
L 294.528329 274.141644 
L 294.849357 273.826334 
L 295.196709 274.852391 
L 295.872957 274.213178 
L 296.21823 274.37828 
L 296.21823 274.37828 
L 296.559816 274.0643 
L 296.901838 275.078714 
L 297.243831 273.906301 
L 297.58712 274.928447 
L 297.99591 274.60717 
L 298.35738 273.864702 
L 298.702951 274.888876 
L 299.057276 274.569518 
L 299.423748 273.836541 
L 299.423748 273.836541 
L 299.787078 274.01289 
L 300.131885 274.60966 
L 300.506142 274.310249 
L 300.860859 274.917129 
L 301.470743 274.26441 
L 301.819004 273.968718 
L 302.168142 275.000541 
L 302.870617 274.397954 
L 303.208122 275.000126 
L 303.568593 274.263586 
L 304.240618 273.667251 
L 304.588455 274.694407 
L 304.588455 274.694407 
L 304.966496 273.967628 
L 305.295716 274.999507 
L 305.974539 274.397022 
L 306.307013 274.999247 
L 306.663947 274.693889 
L 307.015429 273.92334 
L 307.378431 274.052766 
L 307.711013 274.607185 
L 308.057739 274.739267 
L 308.422604 274.439953 
L 308.761999 274.566187 
L 309.112478 273.787577 
L 309.484548 274.396444 
L 309.853976 274.524588 
L 310.222949 274.21618 
L 310.866693 274.48237 
L 311.599029 273.878247 
L 311.905909 274.482251 
L 312.266112 274.097915 
L 312.61986 274.28083 
L 312.964964 273.997071 
L 313.312145 275.040218 
L 313.312145 275.040218 
L 313.65359 274.322014 
L 314.011121 274.036233 
L 314.355644 275.077479 
L 314.725884 273.887305 
L 315.082789 274.935835 
L 315.421185 274.639628 
L 316.428747 275.066034 
L 316.786151 274.346444 
L 317.155828 274.059464 
L 317.499118 275.099573 
L 317.499118 275.099573 
L 317.865575 273.956325 
L 318.225264 275.00147 
L 318.576589 274.708722 
L 318.947295 273.995132 
L 319.308828 274.132878 
L 319.670284 273.843438 
L 320.619596 274.214549 
L 320.960805 274.840534 
L 321.322496 274.119882 
L 321.678886 274.738103 
L 321.678886 274.738103 
L 322.045965 274.45157 
L 322.370873 274.588763 
L 323.065346 273.964966 
L 323.439321 274.104039 
L 323.806199 273.809419 
L 324.172108 274.861749 
L 324.491232 275.000553 
L 325.551394 274.143559 
L 325.551394 274.143559 
L 325.899827 274.292861 
L 326.205097 274.021226 
L 326.535129 274.645473 
L 327.612317 273.818768 
L 327.954936 273.975753 
L 328.285326 275.032679 
L 328.613767 273.849464 
L 329.364437 275.10848 
L 329.716794 273.928418 
L 330.365275 274.27971 
L 330.365275 274.27971 
L 330.720447 274.916146 
L 331.07166 275.064029 
L 331.404242 273.879431 
L 331.786189 274.033761 
L 332.145158 275.087846 
L 332.459589 274.816629 
L 332.791828 274.968894 
L 333.155799 274.261949 
L 333.471918 273.99183 
L 333.796308 274.141188 
L 334.145255 273.864068 
L 334.492734 274.496755 
L 334.856675 273.789007 
L 335.208295 274.322014 
L 335.208295 274.322014 
L 335.604941 274.425725 
L 335.950214 274.09865 
L 336.3296 275.102312 
L 336.711189 274.778299 
L 337.441271 274.98206 
L 338.50339 274.003666 
L 338.726761 274.05403 
L 339.096893 274.628864 
L 339.477401 274.301416 
L 339.477401 274.301416 
L 339.853739 274.888814 
L 340.202544 274.56791 
L 340.527247 273.819908 
L 341.262178 275.109176 
L 341.626648 273.940562 
L 341.855133 274.050118 
L 342.227374 274.693448 
L 342.559893 274.862631 
L 342.917878 274.595456 
L 343.262666 273.909464 
L 343.61171 274.982353 
L 343.968332 273.806251 
L 343.968332 273.806251 
L 344.317875 274.455991 
L 344.691976 274.667694 
L 344.992431 273.928874 
L 345.353495 275.00081 
L 345.68617 274.306115 
L 346.027708 274.046553 
L 346.353976 275.112744 
L 347.058217 273.735063 
L 347.387452 273.900832 
L 347.740607 274.974147 
L 348.122901 274.708189 
L 348.45842 274.876718 
L 348.45842 274.876718 
L 348.82822 274.182043 
L 349.177093 274.347652 
L 349.51891 274.086068 
L 349.87205 274.727461 
L 350.225407 273.986289 
L 350.58145 274.574013 
L 350.926164 273.882685 
L 351.227777 274.90277 
L 351.606645 274.206698 
L 351.955563 273.945599 
L 352.31539 274.587869 
L 352.31539 274.587869 
L 352.69418 274.327708 
L 353.059604 274.557126 
L 353.430221 274.304641 
L 353.767413 274.967662 
L 354.135838 274.288703 
L 354.385004 274.40881 
L 354.714693 275.066262 
L 355.052199 274.821547 
L 355.402741 275.053153 
L 355.776391 274.376133 
L 356.483242 273.874954 
L 356.823561 274.052428 
L 357.182922 274.709581 
L 357.498214 274.88954 
L 357.498214 274.88954 
L 357.860139 273.784631 
L 358.191453 274.876344 
L 358.523111 274.621227 
L 358.890992 274.858168 
L 359.224744 274.178451 
L 359.574317 274.355713 
L 359.917279 275.015992 
L 360.284049 274.340963 
L 360.671296 274.517478 
L 360.991932 275.114251 
L 361.358594 274.867188 
L 361.725845 274.18698 
L 361.725845 274.18698 
L 362.074077 274.849951 
L 363.449483 273.849751 
L 363.773045 274.938293 
L 364.463784 274.43462 
L 364.816905 274.606998 
L 365.165573 273.934353 
L 365.48896 274.118194 
L 365.83389 273.88037 
L 366.177947 274.554061 
L 366.52297 273.891729 
L 366.91233 274.07995 
L 367.269547 274.684446 
L 367.587541 274.028016 
L 367.94903 274.700457 
L 369.005331 273.994563 
L 369.706338 274.366986 
L 370.051566 274.129902 
L 370.396622 274.803433 
L 370.396622 274.803433 
L 370.799016 274.5646 
L 371.166583 274.813573 
L 371.51944 274.150213 
L 371.875909 274.403812 
L 372.227465 275.075477 
L 372.586498 274.417658 
L 372.936962 274.178096 
L 373.194805 274.30266 
L 373.848757 273.826713 
L 374.194283 274.929093 
L 374.885223 274.451123 
L 375.207518 274.634268 
L 375.558012 274.403702 
L 375.901413 274.64884 
L 375.901413 274.64884 
L 376.296461 273.99432 
L 376.676611 274.178016 
L 377.005567 273.943758 
L 377.371226 274.614043 
L 378.103622 274.148135 
L 378.434311 274.841112 
L 378.434311 274.841112 
L 378.807148 274.19024 
L 379.156267 274.880958 
L 379.43973 275.076309 
L 379.803108 274.010376 
L 380.147412 274.204839 
L 380.489967 273.982008 
L 381.578973 274.575811 
L 381.936862 274.354401 
L 382.283185 274.553291 
L 382.600445 274.257717 
L 382.940719 274.885154 
L 382.940719 274.885154 
L 383.297516 274.168472 
L 383.655405 274.369124 
L 383.995161 274.992187 
L 384.325413 274.277928 
L 384.681755 274.057918 
L 385.052822 274.673516 
L 385.728865 275.009318 
L 386.08183 274.294386 
L 386.44724 274.92039 
L 386.782558 274.202328 
L 387.11464 273.912354 
L 388.170565 274.573726 
L 388.506695 274.35242 
L 388.853987 275.040804 
L 389.203874 273.903147 
L 389.553585 275.014518 
L 390.958558 274.115387 
L 391.295809 274.80365 
L 391.295809 274.80365 
L 391.65378 274.580131 
L 392.009701 274.793759 
L 392.37306 274.580842 
L 392.723931 273.951495 
L 393.0693 273.740672 
L 393.440338 273.952117 
L 393.776278 275.073819 
L 394.134278 273.881075 
L 394.489513 274.795657 
L 394.847074 274.023237 
L 395.14259 275.00625 
L 395.457911 273.881602 
L 395.806221 275.006747 
L 396.147882 274.796655 
L 396.471086 275.007203 
L 397.173782 274.58401 
L 397.538658 273.954495 
L 397.874162 275.076081 
L 397.874162 275.076081 
L 398.285266 274.446166 
L 398.995355 274.025674 
L 399.349524 274.726158 
L 399.687734 274.939812 
L 400.068447 274.726427 
L 400.392602 274.095668 
L 400.392602 274.095668 
" clip-path="url(#pc57422c3e7)" style="fill: none; stroke: #1d4ed8; stroke-width: 1.8; stroke-linecap: square"/>
   </g>
   <g id="line2d_30">
    <path d="M 400.392602 289.077656 
L 400.392602 10.8 
" clip-path="url(#pc57422c3e7)" style="fill: none; stroke-dasharray: 1,1.65; stroke-dashoffset: 0; stroke: #dc2626"/>
   </g>
   <g id="patch_3">
    <path d="M 53.722344 289.077656 
L 53.722344 10.8 
" style="fill: none; stroke: #000000; stroke-width: 0.8; stroke-linejoin: miter; stroke-linecap: square"/>
   </g>
   <g id="patch_4">
    <path d="M 637.2 289.077656 
L 637.2 10.8 
" style="fill: none; stroke: #000000; stroke-width: 0.8; stroke-linejoin: miter; stroke-linecap: square"/>
   </g>
   <g id="patch_5">
    <path d="M 53.722344 289.077656 
L 637.2 289.077656 
" style="fill: none; stroke: #000000; stroke-width: 0.8; stroke-linejoin: miter; stroke-linecap: square"/>
   </g>
   <g id="patch_6">
    <path d="M 53.722344 10.8 
L 637.2 10.8 
" style="fill: none; stroke: #000000; stroke-width: 0.8; stroke-linejoin: miter; stroke-linecap: square"/>
   </g>
   <g id="legend_1">
    <g id="patch_7">
     <path d="M 495.2075 285.077656 
L 631.6 285.077656 
Q 633.2 285.077656 633.2 283.477656 
L 633.2 236.275156 
Q 633.2 234.675156 631.6 234.675156 
L 495.2075 234.675156 
Q 493.6075 234.675156 493.6075 236.275156 
L 493.6075 283.477656 
Q 493.6075 285.077656 495.2075 285.077656 
z
" style="fill: #ffffff; opacity: 0.8; stroke: #cccccc; stroke-linejoin: miter"/>
    </g>
    <g id="line2d_31">
     <path d="M 496.8075 241.153906 
L 504.8075 241.153906 
L 512.8075 241.153906 
" style="fill: none; stroke-dasharray: 4.44,1.92; stroke-dashoffset: 0; stroke: #9ca3af; stroke-width: 1.2"/>
    </g>
    <g id="text_16">
     <!-- q_ref1 alvo -->
     <g transform="translate(519.2075 243.953906) scale(0.08 -0.08)">
      <defs>
       <path id="DejaVuSans-54" d="M 947 1747 
Q 947 1113 1208 752 
Q 1469 391 1925 391 
Q 2381 391 2643 752 
Q 2906 1113 2906 1747 
Q 2906 2381 2643 2742 
Q 2381 3103 1925 3103 
Q 1469 3103 1208 2742 
Q 947 2381 947 1747 
z
M 2906 525 
Q 2725 213 2448 61 
Q 2172 -91 1784 -91 
Q 1150 -91 751 415 
Q 353 922 353 1747 
Q 353 2572 751 3078 
Q 1150 3584 1784 3584 
Q 2172 3584 2448 3432 
Q 2725 3281 2906 2969 
L 2906 3500 
L 3481 3500 
L 3481 -1331 
L 2906 -1331 
L 2906 525 
z
" transform="scale(0.015625)"/>
       <path id="DejaVuSans-42" d="M 3263 -1063 
L 3263 -1509 
L -63 -1509 
L -63 -1063 
L 3263 -1063 
z
" transform="scale(0.015625)"/>
       <path id="DejaVuSans-55" d="M 2631 2963 
Q 2534 3019 2420 3045 
Q 2306 3072 2169 3072 
Q 1681 3072 1420 2755 
Q 1159 2438 1159 1844 
L 1159 0 
L 581 0 
L 581 3500 
L 1159 3500 
L 1159 2956 
Q 1341 3275 1631 3429 
Q 1922 3584 2338 3584 
Q 2397 3584 2469 3576 
Q 2541 3569 2628 3553 
L 2631 2963 
z
" transform="scale(0.015625)"/>
       <path id="DejaVuSans-49" d="M 2375 4863 
L 2375 4384 
L 1825 4384 
Q 1516 4384 1395 4259 
Q 1275 4134 1275 3809 
L 1275 3500 
L 2222 3500 
L 2222 3053 
L 1275 3053 
L 1275 0 
L 697 0 
L 697 3053 
L 147 3053 
L 147 3500 
L 697 3500 
L 697 3744 
Q 697 4328 969 4595 
Q 1241 4863 1831 4863 
L 2375 4863 
z
" transform="scale(0.015625)"/>
       <path id="DejaVuSans-4f" d="M 603 4863 
L 1178 4863 
L 1178 0 
L 603 0 
L 603 4863 
z
" transform="scale(0.015625)"/>
       <path id="DejaVuSans-59" d="M 191 3500 
L 800 3500 
L 1894 563 
L 2988 3500 
L 3597 3500 
L 2284 0 
L 1503 0 
L 191 3500 
z
" transform="scale(0.015625)"/>
      </defs>
      <use xlink:href="#DejaVuSans-54"/>
      <use xlink:href="#DejaVuSans-42" transform="translate(63.484375 0)"/>
      <use xlink:href="#DejaVuSans-55" transform="translate(113.484375 0)"/>
      <use xlink:href="#DejaVuSans-48" transform="translate(152.390625 0)"/>
      <use xlink:href="#DejaVuSans-49" transform="translate(213.921875 0)"/>
      <use xlink:href="#DejaVuSans-14" transform="translate(249.125 0)"/>
      <use xlink:href="#DejaVuSans-3" transform="translate(312.75 0)"/>
      <use xlink:href="#DejaVuSans-44" transform="translate(344.53125 0)"/>
      <use xlink:href="#DejaVuSans-4f" transform="translate(405.8125 0)"/>
      <use xlink:href="#DejaVuSans-59" transform="translate(433.59375 0)"/>
      <use xlink:href="#DejaVuSans-52" transform="translate(492.78125 0)"/>
     </g>
    </g>
    <g id="patch_8">
     <path d="M 496.8075 255.954531 
L 512.8075 255.954531 
L 512.8075 250.354531 
L 496.8075 250.354531 
z
" style="fill: #16a34a; fill-opacity: 0.1; stroke: #16a34a; stroke-opacity: 0.1; stroke-linejoin: miter"/>
    </g>
    <g id="text_17">
     <!-- banda ±0.25° -->
     <g transform="translate(519.2075 255.954531) scale(0.08 -0.08)">
      <defs>
       <path id="DejaVuSans-45" d="M 3116 1747 
Q 3116 2381 2855 2742 
Q 2594 3103 2138 3103 
Q 1681 3103 1420 2742 
Q 1159 2381 1159 1747 
Q 1159 1113 1420 752 
Q 1681 391 2138 391 
Q 2594 391 2855 752 
Q 3116 1113 3116 1747 
z
M 1159 2969 
Q 1341 3281 1617 3432 
Q 1894 3584 2278 3584 
Q 2916 3584 3314 3078 
Q 3713 2572 3713 1747 
Q 3713 922 3314 415 
Q 2916 -91 2278 -91 
Q 1894 -91 1617 61 
Q 1341 213 1159 525 
L 1159 0 
L 581 0 
L 581 4863 
L 1159 4863 
L 1159 2969 
z
" transform="scale(0.015625)"/>
       <path id="DejaVuSans-73" d="M 2944 4013 
L 2944 2803 
L 4684 2803 
L 4684 2272 
L 2944 2272 
L 2944 1063 
L 2419 1063 
L 2419 2272 
L 678 2272 
L 678 2803 
L 2419 2803 
L 2419 4013 
L 2944 4013 
z
M 678 531 
L 4684 531 
L 4684 0 
L 678 0 
L 678 531 
z
" transform="scale(0.015625)"/>
       <path id="DejaVuSans-11" d="M 684 794 
L 1344 794 
L 1344 0 
L 684 0 
L 684 794 
z
" transform="scale(0.015625)"/>
      </defs>
      <use xlink:href="#DejaVuSans-45"/>
      <use xlink:href="#DejaVuSans-44" transform="translate(63.484375 0)"/>
      <use xlink:href="#DejaVuSans-51" transform="translate(124.765625 0)"/>
      <use xlink:href="#DejaVuSans-47" transform="translate(188.140625 0)"/>
      <use xlink:href="#DejaVuSans-44" transform="translate(251.625 0)"/>
      <use xlink:href="#DejaVuSans-3" transform="translate(312.90625 0)"/>
      <use xlink:href="#DejaVuSans-73" transform="translate(344.6875 0)"/>
      <use xlink:href="#DejaVuSans-13" transform="translate(428.484375 0)"/>
      <use xlink:href="#DejaVuSans-11" transform="translate(492.109375 0)"/>
      <use xlink:href="#DejaVuSans-15" transform="translate(523.890625 0)"/>
      <use xlink:href="#DejaVuSans-18" transform="translate(587.515625 0)"/>
      <use xlink:href="#DejaVuSans-72" transform="translate(651.140625 0)"/>
     </g>
    </g>
    <g id="line2d_32">
     <path d="M 496.8075 265.155156 
L 504.8075 265.155156 
L 512.8075 265.155156 
" style="fill: none; stroke: #b91c1c; stroke-width: 1.8; stroke-linecap: square"/>
    </g>
    <g id="text_18">
     <!-- Kd=2,0 (diverge — windup) -->
     <g transform="translate(519.2075 267.955156) scale(0.08 -0.08)">
      <defs>
       <path id="DejaVuSans-2e" d="M 628 4666 
L 1259 4666 
L 1259 2694 
L 3353 4666 
L 4166 4666 
L 1850 2491 
L 4331 0 
L 3500 0 
L 1259 2247 
L 1259 0 
L 628 0 
L 628 4666 
z
" transform="scale(0.015625)"/>
       <path id="DejaVuSans-20" d="M 678 2906 
L 4684 2906 
L 4684 2381 
L 678 2381 
L 678 2906 
z
M 678 1631 
L 4684 1631 
L 4684 1100 
L 678 1100 
L 678 1631 
z
" transform="scale(0.015625)"/>
       <path id="DejaVuSans-f" d="M 750 794 
L 1409 794 
L 1409 256 
L 897 -744 
L 494 -744 
L 750 256 
L 750 794 
z
" transform="scale(0.015625)"/>
       <path id="DejaVuSans-4c" d="M 603 3500 
L 1178 3500 
L 1178 0 
L 603 0 
L 603 3500 
z
M 603 4863 
L 1178 4863 
L 1178 4134 
L 603 4134 
L 603 4863 
z
" transform="scale(0.015625)"/>
       <path id="DejaVuSans-4a" d="M 2906 1791 
Q 2906 2416 2648 2759 
Q 2391 3103 1925 3103 
Q 1463 3103 1205 2759 
Q 947 2416 947 1791 
Q 947 1169 1205 825 
Q 1463 481 1925 481 
Q 2391 481 2648 825 
Q 2906 1169 2906 1791 
z
M 3481 434 
Q 3481 -459 3084 -895 
Q 2688 -1331 1869 -1331 
Q 1566 -1331 1297 -1286 
Q 1028 -1241 775 -1147 
L 775 -588 
Q 1028 -725 1275 -790 
Q 1522 -856 1778 -856 
Q 2344 -856 2625 -561 
Q 2906 -266 2906 331 
L 2906 616 
Q 2728 306 2450 153 
Q 2172 0 1784 0 
Q 1141 0 747 490 
Q 353 981 353 1791 
Q 353 2603 747 3093 
Q 1141 3584 1784 3584 
Q 2172 3584 2450 3431 
Q 2728 3278 2906 2969 
L 2906 3500 
L 3481 3500 
L 3481 434 
z
" transform="scale(0.015625)"/>
       <path id="DejaVuSans-af6" d="M 313 1978 
L 6088 1978 
L 6088 1528 
L 313 1528 
L 313 1978 
z
" transform="scale(0.015625)"/>
       <path id="DejaVuSans-5a" d="M 269 3500 
L 844 3500 
L 1563 769 
L 2278 3500 
L 2956 3500 
L 3675 769 
L 4391 3500 
L 4966 3500 
L 4050 0 
L 3372 0 
L 2619 2869 
L 1863 0 
L 1184 0 
L 269 3500 
z
" transform="scale(0.015625)"/>
       <path id="DejaVuSans-58" d="M 544 1381 
L 544 3500 
L 1119 3500 
L 1119 1403 
Q 1119 906 1312 657 
Q 1506 409 1894 409 
Q 2359 409 2629 706 
Q 2900 1003 2900 1516 
L 2900 3500 
L 3475 3500 
L 3475 0 
L 2900 0 
L 2900 538 
Q 2691 219 2414 64 
Q 2138 -91 1772 -91 
Q 1169 -91 856 284 
Q 544 659 544 1381 
z
M 1991 3584 
L 1991 3584 
z
" transform="scale(0.015625)"/>
      </defs>
      <use xlink:href="#DejaVuSans-2e"/>
      <use xlink:href="#DejaVuSans-47" transform="translate(65.578125 0)"/>
      <use xlink:href="#DejaVuSans-20" transform="translate(129.0625 0)"/>
      <use xlink:href="#DejaVuSans-15" transform="translate(212.859375 0)"/>
      <use xlink:href="#DejaVuSans-f" transform="translate(276.484375 0)"/>
      <use xlink:href="#DejaVuSans-13" transform="translate(308.265625 0)"/>
      <use xlink:href="#DejaVuSans-3" transform="translate(371.890625 0)"/>
      <use xlink:href="#DejaVuSans-b" transform="translate(403.671875 0)"/>
      <use xlink:href="#DejaVuSans-47" transform="translate(442.6875 0)"/>
      <use xlink:href="#DejaVuSans-4c" transform="translate(506.171875 0)"/>
      <use xlink:href="#DejaVuSans-59" transform="translate(533.953125 0)"/>
      <use xlink:href="#DejaVuSans-48" transform="translate(593.140625 0)"/>
      <use xlink:href="#DejaVuSans-55" transform="translate(654.671875 0)"/>
      <use xlink:href="#DejaVuSans-4a" transform="translate(694.03125 0)"/>
      <use xlink:href="#DejaVuSans-48" transform="translate(757.515625 0)"/>
      <use xlink:href="#DejaVuSans-3" transform="translate(819.046875 0)"/>
      <use xlink:href="#DejaVuSans-af6" transform="translate(850.828125 0)"/>
      <use xlink:href="#DejaVuSans-3" transform="translate(950.828125 0)"/>
      <use xlink:href="#DejaVuSans-5a" transform="translate(982.609375 0)"/>
      <use xlink:href="#DejaVuSans-4c" transform="translate(1064.390625 0)"/>
      <use xlink:href="#DejaVuSans-51" transform="translate(1092.171875 0)"/>
      <use xlink:href="#DejaVuSans-47" transform="translate(1155.546875 0)"/>
      <use xlink:href="#DejaVuSans-58" transform="translate(1219.03125 0)"/>
      <use xlink:href="#DejaVuSans-53" transform="translate(1282.40625 0)"/>
      <use xlink:href="#DejaVuSans-c" transform="translate(1345.890625 0)"/>
     </g>
    </g>
    <g id="line2d_33">
     <path d="M 496.8075 277.155781 
L 504.8075 277.155781 
L 512.8075 277.155781 
" style="fill: none; stroke: #1d4ed8; stroke-width: 1.8; stroke-linecap: square"/>
    </g>
    <g id="text_19">
     <!-- Kd=0,1 (converge) -->
     <g transform="translate(519.2075 279.955781) scale(0.08 -0.08)">
      <use xlink:href="#DejaVuSans-2e"/>
      <use xlink:href="#DejaVuSans-47" transform="translate(65.578125 0)"/>
      <use xlink:href="#DejaVuSans-20" transform="translate(129.0625 0)"/>
      <use xlink:href="#DejaVuSans-13" transform="translate(212.859375 0)"/>
      <use xlink:href="#DejaVuSans-f" transform="translate(276.484375 0)"/>
      <use xlink:href="#DejaVuSans-14" transform="translate(308.265625 0)"/>
      <use xlink:href="#DejaVuSans-3" transform="translate(371.890625 0)"/>
      <use xlink:href="#DejaVuSans-b" transform="translate(403.671875 0)"/>
      <use xlink:href="#DejaVuSans-46" transform="translate(442.6875 0)"/>
      <use xlink:href="#DejaVuSans-52" transform="translate(497.671875 0)"/>
      <use xlink:href="#DejaVuSans-51" transform="translate(558.859375 0)"/>
      <use xlink:href="#DejaVuSans-59" transform="translate(622.234375 0)"/>
      <use xlink:href="#DejaVuSans-48" transform="translate(681.421875 0)"/>
      <use xlink:href="#DejaVuSans-55" transform="translate(742.953125 0)"/>
      <use xlink:href="#DejaVuSans-4a" transform="translate(782.3125 0)"/>
      <use xlink:href="#DejaVuSans-48" transform="translate(845.796875 0)"/>
      <use xlink:href="#DejaVuSans-c" transform="translate(907.328125 0)"/>
     </g>
    </g>
   </g>
  </g>
 </g>
 <defs>
  <clipPath id="pc57422c3e7">
   <rect x="53.722344" y="10.8" width="583.477656" height="278.277656"/>
  </clipPath>
 </defs>
</svg>
