<?xml version="1.0" encoding="utf-8" standalone="no"?>
<!DOCTYPE svg PUBLIC "-//W3C//DTD SVG 1.1//EN"
  "http://www.w3.org/Graphics/SVG/1.1/DTD/svg11.dtd">
<svg xmlns:xlink="http://www.w3.org/1999/xlink" width="648pt" height="360pt" viewBox="0 0 648 360" xmlns="http://www.w3.org/2000/svg" version="1.1">
 <metadata>
  <rdf:RDF xmlns:dc="http://purl.org/dc/elements/1.1/" xmlns:cc="http://creativecommons.org/ns#" xmlns:rdf="http://www.w3.org/1999/02/22-rdf-syntax-ns#">
   <cc:Work>
    <dc:type rdf:resource="http://purl.org/dc/dcmitype/StillImage"/>
    <dc:date>2026-06-27T04:54:18.659512</dc:date>
    <dc:format>image/svg+xml</dc:format>
    <dc:creator>
     <cc:Agent>
      <dc:title>Matplotlib v3.11.0, https://matplotlib.org/</dc:title>
     </cc:Agent>
    </dc:creator>
   </cc:Work>
  </rdf:RDF>
 </metadata>
 <defs>
  <style type="text/css">*{stroke-linejoin: round; stroke-linecap: butt}</style>
 </defs>
 <g id="figure_1">
  <g id="patch_1">
   <path d="M 0 360 
L 648 360 
L 648 0 
L 0 0 
z
" style="fill: #ffffff"/>
  </g>
  <g id="axes_1">
   <g id="patch_2">
    <path d="M 47.242344 317.877656 
L 637.2 317.877656 
L 637.2 10.8 
L 47.242344 10.8 
z
" style="fill: #ffffff"/>
   </g>
   <g id="FillBetweenPolyCollection_1">
    <defs>
     <path id="m36d5f6528f" d="M 74.058601 -335.241925 
L 74.058601 -326.236531 
L 75.704447 -326.236531 
L 77.468324 -326.236531 
L 79.19723 -326.236531 
L 80.967318 -326.236531 
L 80.967318 -326.236531 
L 82.780822 -326.236531 
L 84.838359 -326.236531 
L 86.483289 -326.236531 
L 88.318227 -326.236531 
L 90.010787 -326.236531 
L 91.567198 -326.236531 
L 93.259374 -326.236531 
L 95.124667 -326.236531 
L 96.824921 -326.236531 
L 98.49995 -326.236531 
L 98.49995 -326.236531 
L 100.380393 -326.236531 
L 102.381525 -326.236531 
L 105.850474 -326.236531 
L 107.764186 -326.236531 
L 107.764186 -326.236531 
L 109.511759 -326.236531 
L 111.185963 -326.236531 
L 112.797076 -326.236531 
L 115.64925 -326.236531 
L 117.303779 -326.236531 
L 117.303779 -326.236531 
L 119.209961 -326.236531 
L 121.0207 -326.236531 
L 122.742534 -326.236531 
L 124.45891 -326.236531 
L 126.289396 -326.236531 
L 128.044425 -326.236531 
L 129.854779 -326.236531 
L 130.987042 -326.236531 
L 132.755225 -326.236531 
L 134.54997 -326.236531 
L 136.224559 -326.236531 
L 136.224559 -326.236531 
L 138.009009 -326.236531 
L 139.705801 -326.236531 
L 141.354414 -326.236531 
L 143.037997 -326.236531 
L 144.792789 -326.236531 
L 146.470986 -326.236531 
L 148.147957 -326.236531 
L 149.790652 -326.236531 
L 151.529762 -326.236531 
L 153.207282 -326.236531 
L 155.049896 -326.236531 
L 156.626366 -326.236531 
L 156.626366 -326.236531 
L 158.415195 -326.236531 
L 160.106381 -326.236531 
L 161.904204 -326.236531 
L 163.580937 -326.236531 
L 165.327667 -326.236531 
L 166.981042 -326.236531 
L 168.558356 -326.236531 
L 170.277882 -326.236531 
L 171.892841 -326.236531 
L 173.654173 -326.236531 
L 175.44901 -326.236531 
L 177.118982 -326.236531 
L 177.351803 -326.236531 
L 179.373836 -326.236531 
L 181.15116 -326.236531 
L 182.781947 -326.236531 
L 184.53421 -326.236531 
L 186.257199 -326.236531 
L 187.974802 -326.236531 
L 189.641477 -326.236531 
L 191.35417 -326.236531 
L 192.819369 -326.236531 
L 192.819369 -326.236531 
L 194.538291 -326.236531 
L 196.293632 -326.236531 
L 197.965436 -326.236531 
L 199.691429 -326.236531 
L 201.5319 -326.236531 
L 203.327048 -326.236531 
L 205.099353 -326.236531 
L 206.817047 -326.236531 
L 208.169838 -326.236531 
L 209.734933 -326.236531 
L 211.37248 -326.236531 
L 213.083012 -326.236531 
L 214.877849 -326.236531 
L 214.877849 -326.236531 
L 216.635956 -326.236531 
L 218.288488 -326.236531 
L 220.04044 -326.236531 
L 221.755056 -326.236531 
L 223.499332 -326.236531 
L 225.128361 -326.236531 
L 226.880917 -326.236531 
L 228.617517 -326.236531 
L 230.305552 -326.236531 
L 232.204791 -326.236531 
L 233.848109 -326.236531 
L 233.848109 -326.236531 
L 235.529531 -326.236531 
L 237.330048 -326.236531 
L 238.849343 -326.236531 
L 240.57748 -326.236531 
L 242.28541 -326.236531 
L 243.835757 -326.236531 
L 245.735473 -326.236531 
L 247.403284 -326.236531 
L 249.134882 -326.236531 
L 250.82475 -326.236531 
L 252.499723 -326.236531 
L 254.32944 -326.236531 
L 254.561492 -326.236531 
L 256.072947 -326.236531 
L 257.847944 -326.236531 
L 259.529531 -326.236531 
L 261.29339 -326.236531 
L 262.927713 -326.236531 
L 264.731838 -326.236531 
L 266.48956 -326.236531 
L 268.160834 -326.236531 
L 269.721861 -326.236531 
L 271.448074 -326.236531 
L 273.168846 -326.236531 
L 273.168846 -326.236531 
L 274.898045 -326.236531 
L 276.701639 -326.236531 
L 278.576 -326.236531 
L 280.330113 -326.236531 
L 281.931388 -326.236531 
L 283.732601 -326.236531 
L 285.123203 -326.236531 
L 286.702971 -326.236531 
L 288.533055 -326.236531 
L 290.081094 -326.236531 
L 291.86417 -326.236531 
L 293.537367 -326.236531 
L 295.23185 -326.236531 
L 295.23185 -326.236531 
L 296.989353 -326.236531 
L 298.719321 -326.236531 
L 300.517767 -326.236531 
L 302.120819 -326.236531 
L 303.805704 -326.236531 
L 305.543055 -326.236531 
L 307.332433 -326.236531 
L 309.017464 -326.236531 
L 310.664995 -326.236531 
L 312.34312 -326.236531 
L 314.217939 -326.236531 
L 314.217939 -326.236531 
L 316.010779 -326.236531 
L 317.566183 -326.236531 
L 319.343964 -326.236531 
L 321.175294 -326.236531 
L 322.902496 -326.236531 
L 324.729831 -326.236531 
L 326.403889 -326.236531 
L 328.243206 -326.236531 
L 328.243206 -326.236531 
L 331.54719 -326.236531 
L 333.297456 -326.236531 
L 334.959057 -326.236531 
L 334.959057 -326.236531 
L 336.776793 -326.236531 
L 338.59114 -326.236531 
L 340.269411 -326.236531 
L 342.241122 -326.236531 
L 342.987653 -326.236531 
L 344.585557 -326.236531 
L 346.253295 -326.236531 
L 348.577762 -326.236531 
L 350.37368 -326.236531 
L 352.061093 -326.236531 
L 353.697175 -326.236531 
L 353.697175 -326.236531 
L 355.394351 -326.236531 
L 357.189573 -326.236531 
L 358.976258 -326.236531 
L 360.704248 -326.236531 
L 362.576906 -326.236531 
L 363.957121 -326.236531 
L 365.619729 -326.236531 
L 367.443676 -326.236531 
L 369.076533 -326.236531 
L 370.840411 -326.236531 
L 372.486092 -326.236531 
L 372.486092 -326.236531 
L 374.363769 -326.236531 
L 376.100424 -326.236531 
L 377.868515 -326.236531 
L 379.345475 -326.236531 
L 381.078155 -326.236531 
L 382.780772 -326.236531 
L 384.527045 -326.236531 
L 386.107894 -326.236531 
L 387.811061 -326.236531 
L 389.546726 -326.236531 
L 391.240826 -326.236531 
L 393.00223 -326.236531 
L 394.652766 -326.236531 
L 394.652766 -326.236531 
L 396.381452 -326.236531 
L 398.151924 -326.236531 
L 399.901036 -326.236531 
L 401.545197 -326.236531 
L 403.220921 -326.236531 
L 404.941602 -326.236531 
L 406.792386 -326.236531 
L 408.382596 -326.236531 
L 410.173513 -326.236531 
L 411.813369 -326.236531 
L 413.585288 -326.236531 
L 413.585288 -326.236531 
L 415.296076 -326.236531 
L 416.978561 -326.236531 
L 418.611052 -326.236531 
L 420.329662 -326.236531 
L 422.095518 -326.236531 
L 423.835562 -326.236531 
L 425.576852 -326.236531 
L 427.23576 -326.236531 
L 429.021437 -326.236531 
L 430.676424 -326.236531 
L 432.450982 -326.236531 
L 432.450982 -326.236531 
L 434.174429 -326.236531 
L 436.099351 -326.236531 
L 437.761703 -326.236531 
L 439.561468 -326.236531 
L 440.960424 -326.236531 
L 442.613195 -326.236531 
L 444.395264 -326.236531 
L 446.224065 -326.236531 
L 448.015128 -326.236531 
L 449.76402 -326.236531 
L 451.504138 -326.236531 
L 451.504138 -326.236531 
L 453.176418 -326.236531 
L 456.337951 -326.236531 
L 456.337951 -326.236531 
L 457.968501 -326.236531 
L 459.652616 -326.236531 
L 461.317202 -326.236531 
L 463.149539 -326.236531 
L 464.894419 -326.236531 
L 466.79844 -326.236531 
L 468.586352 -326.236531 
L 470.392712 -326.236531 
L 471.735062 -326.236531 
L 473.366527 -326.236531 
L 475.20163 -326.236531 
L 475.20163 -326.236531 
L 476.969336 -326.236531 
L 478.500393 -326.236531 
L 480.292226 -326.236531 
L 482.029577 -326.236531 
L 483.947886 -326.236531 
L 485.737356 -326.236531 
L 487.15007 -326.236531 
L 488.785236 -326.236531 
L 490.436083 -326.236531 
L 492.083468 -326.236531 
L 493.945592 -326.236531 
L 495.477418 -326.236531 
L 497.197806 -326.236531 
L 498.961738 -326.236531 
L 498.961738 -326.236531 
L 500.623961 -326.236531 
L 502.562477 -326.236531 
L 504.223143 -326.236531 
L 505.877838 -326.236531 
L 507.624861 -326.236531 
L 509.284465 -326.236531 
L 511.062851 -326.236531 
L 512.813502 -326.236531 
L 514.488238 -326.236531 
L 516.30013 -326.236531 
L 517.959129 -326.236531 
L 517.959129 -326.236531 
L 519.614025 -326.236531 
L 523.760387 -326.236531 
L 525.461082 -326.236531 
L 527.245238 -326.236531 
L 528.997886 -326.236531 
L 530.736098 -326.236531 
L 532.503658 -326.236531 
L 533.404878 -326.236531 
L 534.961966 -326.236531 
L 536.751198 -326.236531 
L 538.425475 -326.236531 
L 540.129485 -326.236531 
L 541.708008 -326.236531 
L 543.325349 -326.236531 
L 545.101518 -326.236531 
L 546.804686 -326.236531 
L 548.732063 -326.236531 
L 550.310512 -326.236531 
L 550.310512 -326.236531 
L 552.076386 -326.236531 
L 553.73621 -326.236531 
L 555.522126 -326.236531 
L 557.278236 -326.236531 
L 558.950516 -326.236531 
L 560.773236 -326.236531 
L 562.436137 -326.236531 
L 564.175265 -326.236531 
L 565.919394 -326.236531 
L 567.563775 -326.236531 
L 569.355223 -326.236531 
L 569.355223 -326.236531 
L 571.108108 -326.236531 
L 572.903862 -326.236531 
L 574.69923 -326.236531 
L 576.416228 -326.236531 
L 578.126778 -326.236531 
L 579.624091 -326.236531 
L 581.233756 -326.236531 
L 583.021888 -326.236531 
L 584.847997 -326.236531 
L 586.409024 -326.236531 
L 588.074069 -326.236531 
L 589.803432 -326.236531 
L 591.393496 -326.236531 
L 591.393496 -326.236531 
L 593.180492 -326.236531 
L 594.981393 -326.236531 
L 596.760256 -326.236531 
L 598.475715 -326.236531 
L 600.171958 -326.236531 
L 601.905095 -326.236531 
L 603.699621 -326.236531 
L 605.433821 -326.236531 
L 607.043175 -326.236531 
L 607.043175 -326.236531 
L 608.844314 -326.236531 
L 610.383743 -326.236531 
L 610.383743 -335.241925 
L 610.383743 -335.241925 
L 608.844314 -335.241925 
L 607.043175 -335.241925 
L 607.043175 -335.241925 
L 605.433821 -335.241925 
L 603.699621 -335.241925 
L 601.905095 -335.241925 
L 600.171958 -335.241925 
L 598.475715 -335.241925 
L 596.760256 -335.241925 
L 594.981393 -335.241925 
L 593.180492 -335.241925 
L 591.393496 -335.241925 
L 591.393496 -335.241925 
L 589.803432 -335.241925 
L 588.074069 -335.241925 
L 586.409024 -335.241925 
L 584.847997 -335.241925 
L 583.021888 -335.241925 
L 581.233756 -335.241925 
L 579.624091 -335.241925 
L 578.126778 -335.241925 
L 576.416228 -335.241925 
L 574.69923 -335.241925 
L 572.903862 -335.241925 
L 571.108108 -335.241925 
L 569.355223 -335.241925 
L 569.355223 -335.241925 
L 567.563775 -335.241925 
L 565.919394 -335.241925 
L 564.175265 -335.241925 
L 562.436137 -335.241925 
L 560.773236 -335.241925 
L 558.950516 -335.241925 
L 557.278236 -335.241925 
L 555.522126 -335.241925 
L 553.73621 -335.241925 
L 552.076386 -335.241925 
L 550.310512 -335.241925 
L 550.310512 -335.241925 
L 548.732063 -335.241925 
L 546.804686 -335.241925 
L 545.101518 -335.241925 
L 543.325349 -335.241925 
L 541.708008 -335.241925 
L 540.129485 -335.241925 
L 538.425475 -335.241925 
L 536.751198 -335.241925 
L 534.961966 -335.241925 
L 533.404878 -335.241925 
L 532.503658 -335.241925 
L 530.736098 -335.241925 
L 528.997886 -335.241925 
L 527.245238 -335.241925 
L 525.461082 -335.241925 
L 523.760387 -335.241925 
L 519.614025 -335.241925 
L 517.959129 -335.241925 
L 517.959129 -335.241925 
L 516.30013 -335.241925 
L 514.488238 -335.241925 
L 512.813502 -335.241925 
L 511.062851 -335.241925 
L 509.284465 -335.241925 
L 507.624861 -335.241925 
L 505.877838 -335.241925 
L 504.223143 -335.241925 
L 502.562477 -335.241925 
L 500.623961 -335.241925 
L 498.961738 -335.241925 
L 498.961738 -335.241925 
L 497.197806 -335.241925 
L 495.477418 -335.241925 
L 493.945592 -335.241925 
L 492.083468 -335.241925 
L 490.436083 -335.241925 
L 488.785236 -335.241925 
L 487.15007 -335.241925 
L 485.737356 -335.241925 
L 483.947886 -335.241925 
L 482.029577 -335.241925 
L 480.292226 -335.241925 
L 478.500393 -335.241925 
L 476.969336 -335.241925 
L 475.20163 -335.241925 
L 475.20163 -335.241925 
L 473.366527 -335.241925 
L 471.735062 -335.241925 
L 470.392712 -335.241925 
L 468.586352 -335.241925 
L 466.79844 -335.241925 
L 464.894419 -335.241925 
L 463.149539 -335.241925 
L 461.317202 -335.241925 
L 459.652616 -335.241925 
L 457.968501 -335.241925 
L 456.337951 -335.241925 
L 456.337951 -335.241925 
L 453.176418 -335.241925 
L 451.504138 -335.241925 
L 451.504138 -335.241925 
L 449.76402 -335.241925 
L 448.015128 -335.241925 
L 446.224065 -335.241925 
L 444.395264 -335.241925 
L 442.613195 -335.241925 
L 440.960424 -335.241925 
L 439.561468 -335.241925 
L 437.761703 -335.241925 
L 436.099351 -335.241925 
L 434.174429 -335.241925 
L 432.450982 -335.241925 
L 432.450982 -335.241925 
L 430.676424 -335.241925 
L 429.021437 -335.241925 
L 427.23576 -335.241925 
L 425.576852 -335.241925 
L 423.835562 -335.241925 
L 422.095518 -335.241925 
L 420.329662 -335.241925 
L 418.611052 -335.241925 
L 416.978561 -335.241925 
L 415.296076 -335.241925 
L 413.585288 -335.241925 
L 413.585288 -335.241925 
L 411.813369 -335.241925 
L 410.173513 -335.241925 
L 408.382596 -335.241925 
L 406.792386 -335.241925 
L 404.941602 -335.241925 
L 403.220921 -335.241925 
L 401.545197 -335.241925 
L 399.901036 -335.241925 
L 398.151924 -335.241925 
L 396.381452 -335.241925 
L 394.652766 -335.241925 
L 394.652766 -335.241925 
L 393.00223 -335.241925 
L 391.240826 -335.241925 
L 389.546726 -335.241925 
L 387.811061 -335.241925 
L 386.107894 -335.241925 
L 384.527045 -335.241925 
L 382.780772 -335.241925 
L 381.078155 -335.241925 
L 379.345475 -335.241925 
L 377.868515 -335.241925 
L 376.100424 -335.241925 
L 374.363769 -335.241925 
L 372.486092 -335.241925 
L 372.486092 -335.241925 
L 370.840411 -335.241925 
L 369.076533 -335.241925 
L 367.443676 -335.241925 
L 365.619729 -335.241925 
L 363.957121 -335.241925 
L 362.576906 -335.241925 
L 360.704248 -335.241925 
L 358.976258 -335.241925 
L 357.189573 -335.241925 
L 355.394351 -335.241925 
L 353.697175 -335.241925 
L 353.697175 -335.241925 
L 352.061093 -335.241925 
L 350.37368 -335.241925 
L 348.577762 -335.241925 
L 346.253295 -335.241925 
L 344.585557 -335.241925 
L 342.987653 -335.241925 
L 342.241122 -335.241925 
L 340.269411 -335.241925 
L 338.59114 -335.241925 
L 336.776793 -335.241925 
L 334.959057 -335.241925 
L 334.959057 -335.241925 
L 333.297456 -335.241925 
L 331.54719 -335.241925 
L 328.243206 -335.241925 
L 328.243206 -335.241925 
L 326.403889 -335.241925 
L 324.729831 -335.241925 
L 322.902496 -335.241925 
L 321.175294 -335.241925 
L 319.343964 -335.241925 
L 317.566183 -335.241925 
L 316.010779 -335.241925 
L 314.217939 -335.241925 
L 314.217939 -335.241925 
L 312.34312 -335.241925 
L 310.664995 -335.241925 
L 309.017464 -335.241925 
L 307.332433 -335.241925 
L 305.543055 -335.241925 
L 303.805704 -335.241925 
L 302.120819 -335.241925 
L 300.517767 -335.241925 
L 298.719321 -335.241925 
L 296.989353 -335.241925 
L 295.23185 -335.241925 
L 295.23185 -335.241925 
L 293.537367 -335.241925 
L 291.86417 -335.241925 
L 290.081094 -335.241925 
L 288.533055 -335.241925 
L 286.702971 -335.241925 
L 285.123203 -335.241925 
L 283.732601 -335.241925 
L 281.931388 -335.241925 
L 280.330113 -335.241925 
L 278.576 -335.241925 
L 276.701639 -335.241925 
L 274.898045 -335.241925 
L 273.168846 -335.241925 
L 273.168846 -335.241925 
L 271.448074 -335.241925 
L 269.721861 -335.241925 
L 268.160834 -335.241925 
L 266.48956 -335.241925 
L 264.731838 -335.241925 
L 262.927713 -335.241925 
L 261.29339 -335.241925 
L 259.529531 -335.241925 
L 257.847944 -335.241925 
L 256.072947 -335.241925 
L 254.561492 -335.241925 
L 254.32944 -335.241925 
L 252.499723 -335.241925 
L 250.82475 -335.241925 
L 249.134882 -335.241925 
L 247.403284 -335.241925 
L 245.735473 -335.241925 
L 243.835757 -335.241925 
L 242.28541 -335.241925 
L 240.57748 -335.241925 
L 238.849343 -335.241925 
L 237.330048 -335.241925 
L 235.529531 -335.241925 
L 233.848109 -335.241925 
L 233.848109 -335.241925 
L 232.204791 -335.241925 
L 230.305552 -335.241925 
L 228.617517 -335.241925 
L 226.880917 -335.241925 
L 225.128361 -335.241925 
L 223.499332 -335.241925 
L 221.755056 -335.241925 
L 220.04044 -335.241925 
L 218.288488 -335.241925 
L 216.635956 -335.241925 
L 214.877849 -335.241925 
L 214.877849 -335.241925 
L 213.083012 -335.241925 
L 211.37248 -335.241925 
L 209.734933 -335.241925 
L 208.169838 -335.241925 
L 206.817047 -335.241925 
L 205.099353 -335.241925 
L 203.327048 -335.241925 
L 201.5319 -335.241925 
L 199.691429 -335.241925 
L 197.965436 -335.241925 
L 196.293632 -335.241925 
L 194.538291 -335.241925 
L 192.819369 -335.241925 
L 192.819369 -335.241925 
L 191.35417 -335.241925 
L 189.641477 -335.241925 
L 187.974802 -335.241925 
L 186.257199 -335.241925 
L 184.53421 -335.241925 
L 182.781947 -335.241925 
L 181.15116 -335.241925 
L 179.373836 -335.241925 
L 177.351803 -335.241925 
L 177.118982 -335.241925 
L 175.44901 -335.241925 
L 173.654173 -335.241925 
L 171.892841 -335.241925 
L 170.277882 -335.241925 
L 168.558356 -335.241925 
L 166.981042 -335.241925 
L 165.327667 -335.241925 
L 163.580937 -335.241925 
L 161.904204 -335.241925 
L 160.106381 -335.241925 
L 158.415195 -335.241925 
L 156.626366 -335.241925 
L 156.626366 -335.241925 
L 155.049896 -335.241925 
L 153.207282 -335.241925 
L 151.529762 -335.241925 
L 149.790652 -335.241925 
L 148.147957 -335.241925 
L 146.470986 -335.241925 
L 144.792789 -335.241925 
L 143.037997 -335.241925 
L 141.354414 -335.241925 
L 139.705801 -335.241925 
L 138.009009 -335.241925 
L 136.224559 -335.241925 
L 136.224559 -335.241925 
L 134.54997 -335.241925 
L 132.755225 -335.241925 
L 130.987042 -335.241925 
L 129.854779 -335.241925 
L 128.044425 -335.241925 
L 126.289396 -335.241925 
L 124.45891 -335.241925 
L 122.742534 -335.241925 
L 121.0207 -335.241925 
L 119.209961 -335.241925 
L 117.303779 -335.241925 
L 117.303779 -335.241925 
L 115.64925 -335.241925 
L 112.797076 -335.241925 
L 111.185963 -335.241925 
L 109.511759 -335.241925 
L 107.764186 -335.241925 
L 107.764186 -335.241925 
L 105.850474 -335.241925 
L 102.381525 -335.241925 
L 100.380393 -335.241925 
L 98.49995 -335.241925 
L 98.49995 -335.241925 
L 96.824921 -335.241925 
L 95.124667 -335.241925 
L 93.259374 -335.241925 
L 91.567198 -335.241925 
L 90.010787 -335.241925 
L 88.318227 -335.241925 
L 86.483289 -335.241925 
L 84.838359 -335.241925 
L 82.780822 -335.241925 
L 80.967318 -335.241925 
L 80.967318 -335.241925 
L 79.19723 -335.241925 
L 77.468324 -335.241925 
L 75.704447 -335.241925 
L 74.058601 -335.241925 
z
" style="stroke: #2563eb; stroke-opacity: 0.08"/>
    </defs>
    <g clip-path="url(#pcfd7df6c44)">
     <use xlink:href="#m36d5f6528f" x="0" y="360" style="fill: #2563eb; fill-opacity: 0.08; stroke: #2563eb; stroke-opacity: 0.08"/>
    </g>
   </g>
   <g id="matplotlib.axis_1">
    <g id="xtick_1">
     <g id="line2d_1">
      <path d="M 74.058601 317.877656 
L 74.058601 10.8 
" clip-path="url(#pcfd7df6c44)" style="fill: none; stroke: #b0b0b0; stroke-opacity: 0.3; stroke-width: 0.5; stroke-linecap: square"/>
     </g>
     <g id="line2d_2">
      <defs>
       <path id="m723f4761de" d="M 0 0 
L 0 3.5 
" style="stroke: #000000; stroke-width: 0.8"/>
      </defs>
      <g>
       <use xlink:href="#m723f4761de" x="74.058601" y="317.877656" style="stroke: #000000; stroke-width: 0.8"/>
      </g>
     </g>
     <g id="text_1">
      <!-- 0 -->
      <g transform="translate(70.877351 332.475312) scale(0.1 -0.1)">
       <defs>
        <path id="DejaVuSans-13" d="M 2034 4250 
Q 1547 4250 1301 3770 
Q 1056 3291 1056 2328 
Q 1056 1369 1301 889 
Q 1547 409 2034 409 
Q 2525 409 2770 889 
Q 3016 1369 3016 2328 
Q 3016 3291 2770 3770 
Q 2525 4250 2034 4250 
z
M 2034 4750 
Q 2819 4750 3233 4129 
Q 3647 3509 3647 2328 
Q 3647 1150 3233 529 
Q 2819 -91 2034 -91 
Q 1250 -91 836 529 
Q 422 1150 422 2328 
Q 422 3509 836 4129 
Q 1250 4750 2034 4750 
z
" transform="scale(0.015625)"/>
       </defs>
       <use xlink:href="#DejaVuSans-13"/>
      </g>
     </g>
    </g>
    <g id="xtick_2">
     <g id="line2d_3">
      <path d="M 150.895473 317.877656 
L 150.895473 10.8 
" clip-path="url(#pcfd7df6c44)" style="fill: none; stroke: #b0b0b0; stroke-opacity: 0.3; stroke-width: 0.5; stroke-linecap: square"/>
     </g>
     <g id="line2d_4">
      <g>
       <use xlink:href="#m723f4761de" x="150.895473" y="317.877656" style="stroke: #000000; stroke-width: 0.8"/>
      </g>
     </g>
     <g id="text_2">
      <!-- 1 -->
      <g transform="translate(147.714223 332.475312) scale(0.1 -0.1)">
       <defs>
        <path id="DejaVuSans-14" d="M 794 531 
L 1825 531 
L 1825 4091 
L 703 3866 
L 703 4441 
L 1819 4666 
L 2450 4666 
L 2450 531 
L 3481 531 
L 3481 0 
L 794 0 
L 794 531 
z
" transform="scale(0.015625)"/>
       </defs>
       <use xlink:href="#DejaVuSans-14"/>
      </g>
     </g>
    </g>
    <g id="xtick_3">
     <g id="line2d_5">
      <path d="M 227.732345 317.877656 
L 227.732345 10.8 
" clip-path="url(#pcfd7df6c44)" style="fill: none; stroke: #b0b0b0; stroke-opacity: 0.3; stroke-width: 0.5; stroke-linecap: square"/>
     </g>
     <g id="line2d_6">
      <g>
       <use xlink:href="#m723f4761de" x="227.732345" y="317.877656" style="stroke: #000000; stroke-width: 0.8"/>
      </g>
     </g>
     <g id="text_3">
      <!-- 2 -->
      <g transform="translate(224.551095 332.475312) scale(0.1 -0.1)">
       <defs>
        <path id="DejaVuSans-15" d="M 1228 531 
L 3431 531 
L 3431 0 
L 469 0 
L 469 531 
Q 828 903 1448 1529 
Q 2069 2156 2228 2338 
Q 2531 2678 2651 2914 
Q 2772 3150 2772 3378 
Q 2772 3750 2511 3984 
Q 2250 4219 1831 4219 
Q 1534 4219 1204 4116 
Q 875 4013 500 3803 
L 500 4441 
Q 881 4594 1212 4672 
Q 1544 4750 1819 4750 
Q 2544 4750 2975 4387 
Q 3406 4025 3406 3419 
Q 3406 3131 3298 2873 
Q 3191 2616 2906 2266 
Q 2828 2175 2409 1742 
Q 1991 1309 1228 531 
z
" transform="scale(0.015625)"/>
       </defs>
       <use xlink:href="#DejaVuSans-15"/>
      </g>
     </g>
    </g>
    <g id="xtick_4">
     <g id="line2d_7">
      <path d="M 304.569217 317.877656 
L 304.569217 10.8 
" clip-path="url(#pcfd7df6c44)" style="fill: none; stroke: #b0b0b0; stroke-opacity: 0.3; stroke-width: 0.5; stroke-linecap: square"/>
     </g>
     <g id="line2d_8">
      <g>
       <use xlink:href="#m723f4761de" x="304.569217" y="317.877656" style="stroke: #000000; stroke-width: 0.8"/>
      </g>
     </g>
     <g id="text_4">
      <!-- 3 -->
      <g transform="translate(301.387967 332.475312) scale(0.1 -0.1)">
       <defs>
        <path id="DejaVuSans-16" d="M 2597 2516 
Q 3050 2419 3304 2112 
Q 3559 1806 3559 1356 
Q 3559 666 3084 287 
Q 2609 -91 1734 -91 
Q 1441 -91 1130 -33 
Q 819 25 488 141 
L 488 750 
Q 750 597 1062 519 
Q 1375 441 1716 441 
Q 2309 441 2620 675 
Q 2931 909 2931 1356 
Q 2931 1769 2642 2001 
Q 2353 2234 1838 2234 
L 1294 2234 
L 1294 2753 
L 1863 2753 
Q 2328 2753 2575 2939 
Q 2822 3125 2822 3475 
Q 2822 3834 2567 4026 
Q 2313 4219 1838 4219 
Q 1578 4219 1281 4162 
Q 984 4106 628 3988 
L 628 4550 
Q 988 4650 1302 4700 
Q 1616 4750 1894 4750 
Q 2613 4750 3031 4423 
Q 3450 4097 3450 3541 
Q 3450 3153 3228 2886 
Q 3006 2619 2597 2516 
z
" transform="scale(0.015625)"/>
       </defs>
       <use xlink:href="#DejaVuSans-16"/>
      </g>
     </g>
    </g>
    <g id="xtick_5">
     <g id="line2d_9">
      <path d="M 381.406089 317.877656 
L 381.406089 10.8 
" clip-path="url(#pcfd7df6c44)" style="fill: none; stroke: #b0b0b0; stroke-opacity: 0.3; stroke-width: 0.5; stroke-linecap: square"/>
     </g>
     <g id="line2d_10">
      <g>
       <use xlink:href="#m723f4761de" x="381.406089" y="317.877656" style="stroke: #000000; stroke-width: 0.8"/>
      </g>
     </g>
     <g id="text_5">
      <!-- 4 -->
      <g transform="translate(378.224839 332.475312) scale(0.1 -0.1)">
       <defs>
        <path id="DejaVuSans-17" d="M 2419 4116 
L 825 1625 
L 2419 1625 
L 2419 4116 
z
M 2253 4666 
L 3047 4666 
L 3047 1625 
L 3713 1625 
L 3713 1100 
L 3047 1100 
L 3047 0 
L 2419 0 
L 2419 1100 
L 313 1100 
L 313 1709 
L 2253 4666 
z
" transform="scale(0.015625)"/>
       </defs>
       <use xlink:href="#DejaVuSans-17"/>
      </g>
     </g>
    </g>
    <g id="xtick_6">
     <g id="line2d_11">
      <path d="M 458.242961 317.877656 
L 458.242961 10.8 
" clip-path="url(#pcfd7df6c44)" style="fill: none; stroke: #b0b0b0; stroke-opacity: 0.3; stroke-width: 0.5; stroke-linecap: square"/>
     </g>
     <g id="line2d_12">
      <g>
       <use xlink:href="#m723f4761de" x="458.242961" y="317.877656" style="stroke: #000000; stroke-width: 0.8"/>
      </g>
     </g>
     <g id="text_6">
      <!-- 5 -->
      <g transform="translate(455.061711 332.475312) scale(0.1 -0.1)">
       <defs>
        <path id="DejaVuSans-18" d="M 691 4666 
L 3169 4666 
L 3169 4134 
L 1269 4134 
L 1269 2991 
Q 1406 3038 1543 3061 
Q 1681 3084 1819 3084 
Q 2600 3084 3056 2656 
Q 3513 2228 3513 1497 
Q 3513 744 3044 326 
Q 2575 -91 1722 -91 
Q 1428 -91 1123 -41 
Q 819 9 494 109 
L 494 744 
Q 775 591 1075 516 
Q 1375 441 1709 441 
Q 2250 441 2565 725 
Q 2881 1009 2881 1497 
Q 2881 1984 2565 2268 
Q 2250 2553 1709 2553 
Q 1456 2553 1204 2497 
Q 953 2441 691 2322 
L 691 4666 
z
" transform="scale(0.015625)"/>
       </defs>
       <use xlink:href="#DejaVuSans-18"/>
      </g>
     </g>
    </g>
    <g id="xtick_7">
     <g id="line2d_13">
      <path d="M 535.079833 317.877656 
L 535.079833 10.8 
" clip-path="url(#pcfd7df6c44)" style="fill: none; stroke: #b0b0b0; stroke-opacity: 0.3; stroke-width: 0.5; stroke-linecap: square"/>
     </g>
     <g id="line2d_14">
      <g>
       <use xlink:href="#m723f4761de" x="535.079833" y="317.877656" style="stroke: #000000; stroke-width: 0.8"/>
      </g>
     </g>
     <g id="text_7">
      <!-- 6 -->
      <g transform="translate(531.898583 332.475312) scale(0.1 -0.1)">
       <defs>
        <path id="DejaVuSans-19" d="M 2113 2584 
Q 1688 2584 1439 2293 
Q 1191 2003 1191 1497 
Q 1191 994 1439 701 
Q 1688 409 2113 409 
Q 2538 409 2786 701 
Q 3034 994 3034 1497 
Q 3034 2003 2786 2293 
Q 2538 2584 2113 2584 
z
M 3366 4563 
L 3366 3988 
Q 3128 4100 2886 4159 
Q 2644 4219 2406 4219 
Q 1781 4219 1451 3797 
Q 1122 3375 1075 2522 
Q 1259 2794 1537 2939 
Q 1816 3084 2150 3084 
Q 2853 3084 3261 2657 
Q 3669 2231 3669 1497 
Q 3669 778 3244 343 
Q 2819 -91 2113 -91 
Q 1303 -91 875 529 
Q 447 1150 447 2328 
Q 447 3434 972 4092 
Q 1497 4750 2381 4750 
Q 2619 4750 2861 4703 
Q 3103 4656 3366 4563 
z
" transform="scale(0.015625)"/>
       </defs>
       <use xlink:href="#DejaVuSans-19"/>
      </g>
     </g>
    </g>
    <g id="xtick_8">
     <g id="line2d_15">
      <path d="M 611.916705 317.877656 
L 611.916705 10.8 
" clip-path="url(#pcfd7df6c44)" style="fill: none; stroke: #b0b0b0; stroke-opacity: 0.3; stroke-width: 0.5; stroke-linecap: square"/>
     </g>
     <g id="line2d_16">
      <g>
       <use xlink:href="#m723f4761de" x="611.916705" y="317.877656" style="stroke: #000000; stroke-width: 0.8"/>
      </g>
     </g>
     <g id="text_8">
      <!-- 7 -->
      <g transform="translate(608.735455 332.475312) scale(0.1 -0.1)">
       <defs>
        <path id="DejaVuSans-1a" d="M 525 4666 
L 3525 4666 
L 3525 4397 
L 1831 0 
L 1172 0 
L 2766 4134 
L 525 4134 
L 525 4666 
z
" transform="scale(0.015625)"/>
       </defs>
       <use xlink:href="#DejaVuSans-1a"/>
      </g>
     </g>
    </g>
    <g id="text_9">
     <!-- Tempo (s) -->
     <g transform="translate(317.740703 346.475312) scale(0.1 -0.1)">
      <defs>
       <path id="DejaVuSans-37" d="M -19 4666 
L 3928 4666 
L 3928 4134 
L 2272 4134 
L 2272 0 
L 1638 0 
L 1638 4134 
L -19 4134 
L -19 4666 
z
" transform="scale(0.015625)"/>
       <path id="DejaVuSans-48" d="M 3597 1894 
L 3597 1613 
L 953 1613 
Q 991 1019 1311 708 
Q 1631 397 2203 397 
Q 2534 397 2845 478 
Q 3156 559 3463 722 
L 3463 178 
Q 3153 47 2828 -22 
Q 2503 -91 2169 -91 
Q 1331 -91 842 396 
Q 353 884 353 1716 
Q 353 2575 817 3079 
Q 1281 3584 2069 3584 
Q 2775 3584 3186 3129 
Q 3597 2675 3597 1894 
z
M 3022 2063 
Q 3016 2534 2758 2815 
Q 2500 3097 2075 3097 
Q 1594 3097 1305 2825 
Q 1016 2553 972 2059 
L 3022 2063 
z
" transform="scale(0.015625)"/>
       <path id="DejaVuSans-50" d="M 3328 2828 
Q 3544 3216 3844 3400 
Q 4144 3584 4550 3584 
Q 5097 3584 5394 3201 
Q 5691 2819 5691 2113 
L 5691 0 
L 5113 0 
L 5113 2094 
Q 5113 2597 4934 2840 
Q 4756 3084 4391 3084 
Q 3944 3084 3684 2787 
Q 3425 2491 3425 1978 
L 3425 0 
L 2847 0 
L 2847 2094 
Q 2847 2600 2669 2842 
Q 2491 3084 2119 3084 
Q 1678 3084 1418 2786 
Q 1159 2488 1159 1978 
L 1159 0 
L 581 0 
L 581 3500 
L 1159 3500 
L 1159 2956 
Q 1356 3278 1631 3431 
Q 1906 3584 2284 3584 
Q 2666 3584 2933 3390 
Q 3200 3197 3328 2828 
z
" transform="scale(0.015625)"/>
       <path id="DejaVuSans-53" d="M 1159 525 
L 1159 -1331 
L 581 -1331 
L 581 3500 
L 1159 3500 
L 1159 2969 
Q 1341 3281 1617 3432 
Q 1894 3584 2278 3584 
Q 2916 3584 3314 3078 
Q 3713 2572 3713 1747 
Q 3713 922 3314 415 
Q 2916 -91 2278 -91 
Q 1894 -91 1617 61 
Q 1341 213 1159 525 
z
M 3116 1747 
Q 3116 2381 2855 2742 
Q 2594 3103 2138 3103 
Q 1681 3103 1420 2742 
Q 1159 2381 1159 1747 
Q 1159 1113 1420 752 
Q 1681 391 2138 391 
Q 2594 391 2855 752 
Q 3116 1113 3116 1747 
z
" transform="scale(0.015625)"/>
       <path id="DejaVuSans-52" d="M 1959 3097 
Q 1497 3097 1228 2736 
Q 959 2375 959 1747 
Q 959 1119 1226 758 
Q 1494 397 1959 397 
Q 2419 397 2687 759 
Q 2956 1122 2956 1747 
Q 2956 2369 2687 2733 
Q 2419 3097 1959 3097 
z
M 1959 3584 
Q 2709 3584 3137 3096 
Q 3566 2609 3566 1747 
Q 3566 888 3137 398 
Q 2709 -91 1959 -91 
Q 1206 -91 779 398 
Q 353 888 353 1747 
Q 353 2609 779 3096 
Q 1206 3584 1959 3584 
z
" transform="scale(0.015625)"/>
       <path id="DejaVuSans-3" transform="scale(0.015625)"/>
       <path id="DejaVuSans-b" d="M 1984 4856 
Q 1566 4138 1362 3434 
Q 1159 2731 1159 2009 
Q 1159 1288 1364 580 
Q 1569 -128 1984 -844 
L 1484 -844 
Q 1016 -109 783 600 
Q 550 1309 550 2009 
Q 550 2706 781 3412 
Q 1013 4119 1484 4856 
L 1984 4856 
z
" transform="scale(0.015625)"/>
       <path id="DejaVuSans-56" d="M 2834 3397 
L 2834 2853 
Q 2591 2978 2328 3040 
Q 2066 3103 1784 3103 
Q 1356 3103 1142 2972 
Q 928 2841 928 2578 
Q 928 2378 1081 2264 
Q 1234 2150 1697 2047 
L 1894 2003 
Q 2506 1872 2764 1633 
Q 3022 1394 3022 966 
Q 3022 478 2636 193 
Q 2250 -91 1575 -91 
Q 1294 -91 989 -36 
Q 684 19 347 128 
L 347 722 
Q 666 556 975 473 
Q 1284 391 1588 391 
Q 1994 391 2212 530 
Q 2431 669 2431 922 
Q 2431 1156 2273 1281 
Q 2116 1406 1581 1522 
L 1381 1569 
Q 847 1681 609 1914 
Q 372 2147 372 2553 
Q 372 3047 722 3315 
Q 1072 3584 1716 3584 
Q 2034 3584 2315 3537 
Q 2597 3491 2834 3397 
z
" transform="scale(0.015625)"/>
       <path id="DejaVuSans-c" d="M 513 4856 
L 1013 4856 
Q 1481 4119 1714 3412 
Q 1947 2706 1947 2009 
Q 1947 1309 1714 600 
Q 1481 -109 1013 -844 
L 513 -844 
Q 928 -128 1133 580 
Q 1338 1288 1338 2009 
Q 1338 2731 1133 3434 
Q 928 4138 513 4856 
z
" transform="scale(0.015625)"/>
      </defs>
      <use xlink:href="#DejaVuSans-37"/>
      <use xlink:href="#DejaVuSans-48" transform="translate(44.09375 0)"/>
      <use xlink:href="#DejaVuSans-50" transform="translate(105.625 0)"/>
      <use xlink:href="#DejaVuSans-53" transform="translate(203.03125 0)"/>
      <use xlink:href="#DejaVuSans-52" transform="translate(266.515625 0)"/>
      <use xlink:href="#DejaVuSans-3" transform="translate(327.703125 0)"/>
      <use xlink:href="#DejaVuSans-b" transform="translate(359.484375 0)"/>
      <use xlink:href="#DejaVuSans-56" transform="translate(398.5 0)"/>
      <use xlink:href="#DejaVuSans-c" transform="translate(450.59375 0)"/>
     </g>
    </g>
   </g>
   <g id="matplotlib.axis_2">
    <g id="ytick_1">
     <g id="line2d_17">
      <path d="M 47.242344 299.422593 
L 637.2 299.422593 
" clip-path="url(#pcfd7df6c44)" style="fill: none; stroke: #b0b0b0; stroke-opacity: 0.3; stroke-width: 0.5; stroke-linecap: square"/>
     </g>
     <g id="line2d_18">
      <defs>
       <path id="ma0091d2781" d="M 0 0 
L -3.5 0 
" style="stroke: #000000; stroke-width: 0.8"/>
      </defs>
      <g>
       <use xlink:href="#ma0091d2781" x="47.242344" y="299.422593" style="stroke: #000000; stroke-width: 0.8"/>
      </g>
     </g>
     <g id="text_10">
      <!-- 0 -->
      <g transform="translate(33.879844 303.221421) scale(0.1 -0.1)">
       <use xlink:href="#DejaVuSans-13"/>
      </g>
     </g>
    </g>
    <g id="ytick_2">
     <g id="line2d_19">
      <path d="M 47.242344 254.395623 
L 637.2 254.395623 
" clip-path="url(#pcfd7df6c44)" style="fill: none; stroke: #b0b0b0; stroke-opacity: 0.3; stroke-width: 0.5; stroke-linecap: square"/>
     </g>
     <g id="line2d_20">
      <g>
       <use xlink:href="#ma0091d2781" x="47.242344" y="254.395623" style="stroke: #000000; stroke-width: 0.8"/>
      </g>
     </g>
     <g id="text_11">
      <!-- 5 -->
      <g transform="translate(33.879844 258.194451) scale(0.1 -0.1)">
       <use xlink:href="#DejaVuSans-18"/>
      </g>
     </g>
    </g>
    <g id="ytick_3">
     <g id="line2d_21">
      <path d="M 47.242344 209.368653 
L 637.2 209.368653 
" clip-path="url(#pcfd7df6c44)" style="fill: none; stroke: #b0b0b0; stroke-opacity: 0.3; stroke-width: 0.5; stroke-linecap: square"/>
     </g>
     <g id="line2d_22">
      <g>
       <use xlink:href="#ma0091d2781" x="47.242344" y="209.368653" style="stroke: #000000; stroke-width: 0.8"/>
      </g>
     </g>
     <g id="text_12">
      <!-- 10 -->
      <g transform="translate(27.517344 213.167481) scale(0.1 -0.1)">
       <use xlink:href="#DejaVuSans-14"/>
       <use xlink:href="#DejaVuSans-13" transform="translate(63.625 0)"/>
      </g>
     </g>
    </g>
    <g id="ytick_4">
     <g id="line2d_23">
      <path d="M 47.242344 164.341683 
L 637.2 164.341683 
" clip-path="url(#pcfd7df6c44)" style="fill: none; stroke: #b0b0b0; stroke-opacity: 0.3; stroke-width: 0.5; stroke-linecap: square"/>
     </g>
     <g id="line2d_24">
      <g>
       <use xlink:href="#ma0091d2781" x="47.242344" y="164.341683" style="stroke: #000000; stroke-width: 0.8"/>
      </g>
     </g>
     <g id="text_13">
      <!-- 15 -->
      <g transform="translate(27.517344 168.140511) scale(0.1 -0.1)">
       <use xlink:href="#DejaVuSans-14"/>
       <use xlink:href="#DejaVuSans-18" transform="translate(63.625 0)"/>
      </g>
     </g>
    </g>
    <g id="ytick_5">
     <g id="line2d_25">
      <path d="M 47.242344 119.314713 
L 637.2 119.314713 
" clip-path="url(#pcfd7df6c44)" style="fill: none; stroke: #b0b0b0; stroke-opacity: 0.3; stroke-width: 0.5; stroke-linecap: square"/>
     </g>
     <g id="line2d_26">
      <g>
       <use xlink:href="#ma0091d2781" x="47.242344" y="119.314713" style="stroke: #000000; stroke-width: 0.8"/>
      </g>
     </g>
     <g id="text_14">
      <!-- 20 -->
      <g transform="translate(27.517344 123.113541) scale(0.1 -0.1)">
       <use xlink:href="#DejaVuSans-15"/>
       <use xlink:href="#DejaVuSans-13" transform="translate(63.625 0)"/>
      </g>
     </g>
    </g>
    <g id="ytick_6">
     <g id="line2d_27">
      <path d="M 47.242344 74.287742 
L 637.2 74.287742 
" clip-path="url(#pcfd7df6c44)" style="fill: none; stroke: #b0b0b0; stroke-opacity: 0.3; stroke-width: 0.5; stroke-linecap: square"/>
     </g>
     <g id="line2d_28">
      <g>
       <use xlink:href="#ma0091d2781" x="47.242344" y="74.287742" style="stroke: #000000; stroke-width: 0.8"/>
      </g>
     </g>
     <g id="text_15">
      <!-- 25 -->
      <g transform="translate(27.517344 78.086571) scale(0.1 -0.1)">
       <use xlink:href="#DejaVuSans-15"/>
       <use xlink:href="#DejaVuSans-18" transform="translate(63.625 0)"/>
      </g>
     </g>
    </g>
    <g id="ytick_7">
     <g id="line2d_29">
      <path d="M 47.242344 29.260772 
L 637.2 29.260772 
" clip-path="url(#pcfd7df6c44)" style="fill: none; stroke: #b0b0b0; stroke-opacity: 0.3; stroke-width: 0.5; stroke-linecap: square"/>
     </g>
     <g id="line2d_30">
      <g>
       <use xlink:href="#ma0091d2781" x="47.242344" y="29.260772" style="stroke: #000000; stroke-width: 0.8"/>
      </g>
     </g>
     <g id="text_16">
      <!-- 30 -->
      <g transform="translate(27.517344 33.0596) scale(0.1 -0.1)">
       <use xlink:href="#DejaVuSans-16"/>
       <use xlink:href="#DejaVuSans-13" transform="translate(63.625 0)"/>
      </g>
     </g>
    </g>
    <g id="text_17">
     <!-- Ângulo J1 (°) -->
     <g transform="translate(21.115 195.955234) rotate(-90) scale(0.1 -0.1)">
      <defs>
       <path id="DejaVuSans-84" d="M 2188 4044 
L 1331 1722 
L 3047 1722 
L 2188 4044 
z
M 1831 4666 
L 2547 4666 
L 4325 0 
L 3669 0 
L 3244 1197 
L 1141 1197 
L 716 0 
L 50 0 
L 1831 4666 
z
M 1894 5941 
L 2482 5941 
L 3141 5110 
L 2707 5110 
L 2188 5666 
L 1669 5110 
L 1235 5110 
L 1894 5941 
z
" transform="scale(0.015625)"/>
       <path id="DejaVuSans-51" d="M 3513 2113 
L 3513 0 
L 2938 0 
L 2938 2094 
Q 2938 2591 2744 2837 
Q 2550 3084 2163 3084 
Q 1697 3084 1428 2787 
Q 1159 2491 1159 1978 
L 1159 0 
L 581 0 
L 581 3500 
L 1159 3500 
L 1159 2956 
Q 1366 3272 1645 3428 
Q 1925 3584 2291 3584 
Q 2894 3584 3203 3211 
Q 3513 2838 3513 2113 
z
" transform="scale(0.015625)"/>
       <path id="DejaVuSans-4a" d="M 2906 1791 
Q 2906 2416 2648 2759 
Q 2391 3103 1925 3103 
Q 1463 3103 1205 2759 
Q 947 2416 947 1791 
Q 947 1169 1205 825 
Q 1463 481 1925 481 
Q 2391 481 2648 825 
Q 2906 1169 2906 1791 
z
M 3481 434 
Q 3481 -459 3084 -895 
Q 2688 -1331 1869 -1331 
Q 1566 -1331 1297 -1286 
Q 1028 -1241 775 -1147 
L 775 -588 
Q 1028 -725 1275 -790 
Q 1522 -856 1778 -856 
Q 2344 -856 2625 -561 
Q 2906 -266 2906 331 
L 2906 616 
Q 2728 306 2450 153 
Q 2172 0 1784 0 
Q 1141 0 747 490 
Q 353 981 353 1791 
Q 353 2603 747 3093 
Q 1141 3584 1784 3584 
Q 2172 3584 2450 3431 
Q 2728 3278 2906 2969 
L 2906 3500 
L 3481 3500 
L 3481 434 
z
" transform="scale(0.015625)"/>
       <path id="DejaVuSans-58" d="M 544 1381 
L 544 3500 
L 1119 3500 
L 1119 1403 
Q 1119 906 1312 657 
Q 1506 409 1894 409 
Q 2359 409 2629 706 
Q 2900 1003 2900 1516 
L 2900 3500 
L 3475 3500 
L 3475 0 
L 2900 0 
L 2900 538 
Q 2691 219 2414 64 
Q 2138 -91 1772 -91 
Q 1169 -91 856 284 
Q 544 659 544 1381 
z
M 1991 3584 
L 1991 3584 
z
" transform="scale(0.015625)"/>
       <path id="DejaVuSans-4f" d="M 603 4863 
L 1178 4863 
L 1178 0 
L 603 0 
L 603 4863 
z
" transform="scale(0.015625)"/>
       <path id="DejaVuSans-2d" d="M 628 4666 
L 1259 4666 
L 1259 325 
Q 1259 -519 939 -900 
Q 619 -1281 -91 -1281 
L -331 -1281 
L -331 -750 
L -134 -750 
Q 284 -750 456 -515 
Q 628 -281 628 325 
L 628 4666 
z
" transform="scale(0.015625)"/>
       <path id="DejaVuSans-72" d="M 1600 4347 
Q 1350 4347 1178 4173 
Q 1006 4000 1006 3750 
Q 1006 3503 1178 3333 
Q 1350 3163 1600 3163 
Q 1850 3163 2022 3333 
Q 2194 3503 2194 3750 
Q 2194 3997 2020 4172 
Q 1847 4347 1600 4347 
z
M 1600 4750 
Q 1800 4750 1984 4673 
Q 2169 4597 2303 4453 
Q 2447 4313 2519 4134 
Q 2591 3956 2591 3750 
Q 2591 3338 2302 3052 
Q 2013 2766 1594 2766 
Q 1172 2766 890 3047 
Q 609 3328 609 3750 
Q 609 4169 896 4459 
Q 1184 4750 1600 4750 
z
" transform="scale(0.015625)"/>
      </defs>
      <use xlink:href="#DejaVuSans-84"/>
      <use xlink:href="#DejaVuSans-51" transform="translate(68.40625 0)"/>
      <use xlink:href="#DejaVuSans-4a" transform="translate(131.78125 0)"/>
      <use xlink:href="#DejaVuSans-58" transform="translate(195.265625 0)"/>
      <use xlink:href="#DejaVuSans-4f" transform="translate(258.640625 0)"/>
      <use xlink:href="#DejaVuSans-52" transform="translate(286.421875 0)"/>
      <use xlink:href="#DejaVuSans-3" transform="translate(347.609375 0)"/>
      <use xlink:href="#DejaVuSans-2d" transform="translate(379.390625 0)"/>
      <use xlink:href="#DejaVuSans-14" transform="translate(408.890625 0)"/>
      <use xlink:href="#DejaVuSans-3" transform="translate(472.515625 0)"/>
      <use xlink:href="#DejaVuSans-b" transform="translate(504.296875 0)"/>
      <use xlink:href="#DejaVuSans-72" transform="translate(543.3125 0)"/>
      <use xlink:href="#DejaVuSans-c" transform="translate(593.3125 0)"/>
     </g>
    </g>
   </g>
   <g id="line2d_31">
    <path d="M 74.058601 29.260772 
L 342.241122 29.260772 
L 342.987653 299.422593 
L 610.383743 299.422593 
L 610.383743 299.422593 
" clip-path="url(#pcfd7df6c44)" style="fill: none; stroke-dasharray: 5.18,2.24; stroke-dashoffset: 0; stroke: #9ca3af; stroke-width: 1.4"/>
   </g>
   <g id="line2d_32">
    <path d="M 74.058601 299.422593 
L 86.483289 299.422593 
L 88.318227 272.419379 
L 91.567198 249.757161 
L 93.259374 234.99641 
L 96.824921 199.759096 
L 98.49995 183.018834 
L 98.49995 183.018834 
L 100.380393 166.514549 
L 102.381525 154.637515 
L 105.850474 142.159758 
L 107.764186 134.065755 
L 107.764186 134.065755 
L 111.185963 106.116984 
L 115.64925 77.370604 
L 117.303779 65.138856 
L 117.303779 65.138856 
L 119.209961 54.331861 
L 121.0207 45.084708 
L 122.742534 38.329546 
L 124.45891 33.952186 
L 129.854779 33.339919 
L 130.987042 31.744946 
L 132.755225 34.527874 
L 136.224559 34.137139 
L 136.224559 34.137139 
L 138.009009 31.756815 
L 139.705801 34.539194 
L 141.354414 33.252332 
L 143.037997 30.871513 
L 144.792789 33.65744 
L 148.147957 31.073792 
L 149.790652 32.761862 
L 151.529762 32.576522 
L 153.207282 34.227202 
L 155.049896 32.896763 
L 156.626366 31.571773 
L 156.626366 31.571773 
L 158.415195 31.328627 
L 160.106381 30.808664 
L 163.580937 34.124892 
L 165.327667 32.799424 
L 166.981042 32.56957 
L 168.558356 33.134623 
L 170.277882 31.798006 
L 171.892841 34.539617 
L 173.654173 33.214068 
L 175.44901 32.982134 
L 177.118982 31.652983 
L 177.351803 31.652983 
L 179.373836 34.401709 
L 181.15116 33.082869 
L 182.781947 34.727028 
L 186.257199 32.082135 
L 187.974802 31.831227 
L 189.641477 32.405123 
L 191.35417 34.059558 
L 192.819369 32.459948 
L 192.819369 32.459948 
L 194.538291 34.111942 
L 197.965436 31.467517 
L 199.691429 33.123456 
L 201.5319 31.787389 
L 203.327048 33.449001 
L 206.817047 32.973093 
L 209.734933 34.108664 
L 211.37248 31.694705 
L 213.083012 31.464563 
L 214.877849 34.202806 
L 214.877849 34.202806 
L 216.635956 30.982541 
L 218.288488 32.63974 
L 220.04044 32.399008 
L 221.755056 31.058834 
L 223.499332 33.796897 
L 226.880917 31.162946 
L 228.617517 30.894477 
L 230.305552 32.520617 
L 232.204791 32.243818 
L 233.848109 30.87254 
L 233.848109 30.87254 
L 235.529531 33.580984 
L 237.330048 32.223979 
L 238.849343 32.751335 
L 240.57748 31.394754 
L 242.28541 34.097741 
L 243.835757 31.649345 
L 245.735473 34.359545 
L 249.134882 33.801013 
L 250.82475 31.365711 
L 252.499723 34.070121 
L 254.32944 32.708668 
L 254.561492 32.708668 
L 256.072947 31.354148 
L 257.847944 31.080267 
L 259.529531 33.778571 
L 261.29339 31.344224 
L 262.927713 32.970688 
L 264.731838 32.689243 
L 266.48956 31.335723 
L 268.160834 31.062806 
L 269.721861 31.595664 
L 271.448074 34.288844 
L 273.168846 32.916692 
L 273.168846 32.916692 
L 278.576 32.067177 
L 280.330113 33.68152 
L 281.931388 32.319598 
L 283.732601 32.033704 
L 285.123203 32.568526 
L 286.702971 34.180824 
L 288.533055 30.915622 
L 290.081094 32.540834 
L 291.86417 31.174995 
L 293.537367 30.890749 
L 295.23185 32.51706 
L 295.23185 32.51706 
L 296.989353 32.240468 
L 298.719321 30.869343 
L 300.517767 33.577967 
L 302.120819 31.105626 
L 303.805704 30.782639 
L 305.543055 33.456818 
L 307.332433 33.126959 
L 309.017464 31.713346 
L 310.664995 34.381699 
L 314.217939 33.7382 
L 314.217939 33.7382 
L 316.010779 32.3348 
L 317.566183 30.920358 
L 319.343964 34.659731 
L 321.175294 32.191776 
L 322.902496 31.870283 
L 324.729831 34.530981 
L 328.243206 33.381262 
L 328.243206 33.381262 
L 331.54719 30.890028 
L 333.297456 34.383076 
L 334.959057 33.803237 
L 334.959057 33.803237 
L 338.59114 34.810662 
L 340.269411 32.336024 
L 342.241122 34.732945 
L 342.987653 33.954879 
L 344.585557 36.336373 
L 346.253295 37.61776 
L 348.577762 38.910124 
L 350.37368 40.077971 
L 357.189573 64.515422 
L 358.976258 58.580093 
L 360.704248 71.815456 
L 362.576906 93.158483 
L 363.957121 107.206465 
L 365.619729 121.896757 
L 369.076533 165.186272 
L 372.486092 203.212728 
L 372.486092 203.212728 
L 374.363769 221.30768 
L 376.100424 234.377866 
L 377.868515 251.087456 
L 379.345475 259.445506 
L 381.078155 267.981566 
L 382.780772 280.701937 
L 384.527045 289.545918 
L 386.107894 294.41835 
L 389.546726 296.102242 
L 391.240826 297.14521 
L 393.00223 298.464419 
L 396.381452 300.494505 
L 398.151924 301.641667 
L 401.545197 303.609534 
L 403.220921 300.67917 
L 404.941602 301.8775 
L 408.382596 303.779187 
L 410.173513 300.507257 
L 411.813369 301.347559 
L 416.978561 303.576827 
L 418.611052 300.312146 
L 420.329662 301.120894 
L 425.576852 302.815763 
L 429.021437 303.775585 
L 430.676424 300.315811 
L 434.174429 301.282171 
L 444.395264 303.315229 
L 448.015128 303.875265 
L 449.76402 300.213672 
L 453.176418 300.761263 
L 463.149539 301.803457 
L 470.392712 302.194445 
L 493.945592 303.114931 
L 516.30013 303.615289 
L 548.732063 303.919581 
L 550.310512 299.917485 
L 550.310512 299.917485 
L 553.73621 300.193527 
L 560.773236 300.3496 
L 610.383743 300.245912 
L 610.383743 300.245912 
" clip-path="url(#pcfd7df6c44)" style="fill: none; stroke: #2563eb; stroke-width: 1.8; stroke-linecap: square"/>
   </g>
   <g id="patch_3">
    <path d="M 47.242344 317.877656 
L 47.242344 10.8 
" style="fill: none; stroke: #000000; stroke-width: 0.8; stroke-linejoin: miter; stroke-linecap: square"/>
   </g>
   <g id="patch_4">
    <path d="M 637.2 317.877656 
L 637.2 10.8 
" style="fill: none; stroke: #000000; stroke-width: 0.8; stroke-linejoin: miter; stroke-linecap: square"/>
   </g>
   <g id="patch_5">
    <path d="M 47.242344 317.877656 
L 637.2 317.877656 
" style="fill: none; stroke: #000000; stroke-width: 0.8; stroke-linejoin: miter; stroke-linecap: square"/>
   </g>
   <g id="patch_6">
    <path d="M 47.242344 10.8 
L 637.2 10.8 
" style="fill: none; stroke: #000000; stroke-width: 0.8; stroke-linejoin: miter; stroke-linecap: square"/>
   </g>
   <g id="legend_1">
    <g id="patch_7">
     <path d="M 476.783437 179.189531 
L 630.9 179.189531 
Q 632.7 179.189531 632.7 177.389531 
L 632.7 151.288125 
Q 632.7 149.488125 630.9 149.488125 
L 476.783437 149.488125 
Q 474.983437 149.488125 474.983437 151.288125 
L 474.983437 177.389531 
Q 474.983437 179.189531 476.783437 179.189531 
z
" style="fill: #ffffff; opacity: 0.8; stroke: #cccccc; stroke-linejoin: miter"/>
    </g>
    <g id="line2d_33">
     <path d="M 478.583437 156.776719 
L 487.583437 156.776719 
L 496.583437 156.776719 
" style="fill: none; stroke-dasharray: 5.18,2.24; stroke-dashoffset: 0; stroke: #9ca3af; stroke-width: 1.4"/>
    </g>
    <g id="text_18">
     <!-- Comando (pulso) -->
     <g transform="translate(503.783437 159.926719) scale(0.09 -0.09)">
      <defs>
       <path id="DejaVuSans-26" d="M 4122 4306 
L 4122 3641 
Q 3803 3938 3442 4084 
Q 3081 4231 2675 4231 
Q 1875 4231 1450 3742 
Q 1025 3253 1025 2328 
Q 1025 1406 1450 917 
Q 1875 428 2675 428 
Q 3081 428 3442 575 
Q 3803 722 4122 1019 
L 4122 359 
Q 3791 134 3420 21 
Q 3050 -91 2638 -91 
Q 1578 -91 968 557 
Q 359 1206 359 2328 
Q 359 3453 968 4101 
Q 1578 4750 2638 4750 
Q 3056 4750 3426 4639 
Q 3797 4528 4122 4306 
z
" transform="scale(0.015625)"/>
       <path id="DejaVuSans-44" d="M 2194 1759 
Q 1497 1759 1228 1600 
Q 959 1441 959 1056 
Q 959 750 1161 570 
Q 1363 391 1709 391 
Q 2188 391 2477 730 
Q 2766 1069 2766 1631 
L 2766 1759 
L 2194 1759 
z
M 3341 1997 
L 3341 0 
L 2766 0 
L 2766 531 
Q 2569 213 2275 61 
Q 1981 -91 1556 -91 
Q 1019 -91 701 211 
Q 384 513 384 1019 
Q 384 1609 779 1909 
Q 1175 2209 1959 2209 
L 2766 2209 
L 2766 2266 
Q 2766 2663 2505 2880 
Q 2244 3097 1772 3097 
Q 1472 3097 1187 3025 
Q 903 2953 641 2809 
L 641 3341 
Q 956 3463 1253 3523 
Q 1550 3584 1831 3584 
Q 2591 3584 2966 3190 
Q 3341 2797 3341 1997 
z
" transform="scale(0.015625)"/>
       <path id="DejaVuSans-47" d="M 2906 2969 
L 2906 4863 
L 3481 4863 
L 3481 0 
L 2906 0 
L 2906 525 
Q 2725 213 2448 61 
Q 2172 -91 1784 -91 
Q 1150 -91 751 415 
Q 353 922 353 1747 
Q 353 2572 751 3078 
Q 1150 3584 1784 3584 
Q 2172 3584 2448 3432 
Q 2725 3281 2906 2969 
z
M 947 1747 
Q 947 1113 1208 752 
Q 1469 391 1925 391 
Q 2381 391 2643 752 
Q 2906 1113 2906 1747 
Q 2906 2381 2643 2742 
Q 2381 3103 1925 3103 
Q 1469 3103 1208 2742 
Q 947 2381 947 1747 
z
" transform="scale(0.015625)"/>
      </defs>
      <use xlink:href="#DejaVuSans-26"/>
      <use xlink:href="#DejaVuSans-52" transform="translate(69.828125 0)"/>
      <use xlink:href="#DejaVuSans-50" transform="translate(131.015625 0)"/>
      <use xlink:href="#DejaVuSans-44" transform="translate(228.421875 0)"/>
      <use xlink:href="#DejaVuSans-51" transform="translate(289.703125 0)"/>
      <use xlink:href="#DejaVuSans-47" transform="translate(353.078125 0)"/>
      <use xlink:href="#DejaVuSans-52" transform="translate(416.5625 0)"/>
      <use xlink:href="#DejaVuSans-3" transform="translate(477.75 0)"/>
      <use xlink:href="#DejaVuSans-b" transform="translate(509.53125 0)"/>
      <use xlink:href="#DejaVuSans-53" transform="translate(548.546875 0)"/>
      <use xlink:href="#DejaVuSans-58" transform="translate(612.03125 0)"/>
      <use xlink:href="#DejaVuSans-4f" transform="translate(675.40625 0)"/>
      <use xlink:href="#DejaVuSans-56" transform="translate(703.1875 0)"/>
      <use xlink:href="#DejaVuSans-52" transform="translate(755.28125 0)"/>
      <use xlink:href="#DejaVuSans-c" transform="translate(816.46875 0)"/>
     </g>
    </g>
    <g id="line2d_34">
     <path d="M 478.583437 170.277422 
L 487.583437 170.277422 
L 496.583437 170.277422 
" style="fill: none; stroke: #2563eb; stroke-width: 1.8; stroke-linecap: square"/>
    </g>
    <g id="text_19">
     <!-- Resposta J1 (PID+tanh, HIL) -->
     <g transform="translate(503.783437 173.427422) scale(0.09 -0.09)">
      <defs>
       <path id="DejaVuSans-35" d="M 2841 2188 
Q 3044 2119 3236 1894 
Q 3428 1669 3622 1275 
L 4263 0 
L 3584 0 
L 2988 1197 
Q 2756 1666 2539 1819 
Q 2322 1972 1947 1972 
L 1259 1972 
L 1259 0 
L 628 0 
L 628 4666 
L 2053 4666 
Q 2853 4666 3247 4331 
Q 3641 3997 3641 3322 
Q 3641 2881 3436 2590 
Q 3231 2300 2841 2188 
z
M 1259 4147 
L 1259 2491 
L 2053 2491 
Q 2509 2491 2742 2702 
Q 2975 2913 2975 3322 
Q 2975 3731 2742 3939 
Q 2509 4147 2053 4147 
L 1259 4147 
z
" transform="scale(0.015625)"/>
       <path id="DejaVuSans-57" d="M 1172 4494 
L 1172 3500 
L 2356 3500 
L 2356 3053 
L 1172 3053 
L 1172 1153 
Q 1172 725 1289 603 
Q 1406 481 1766 481 
L 2356 481 
L 2356 0 
L 1766 0 
Q 1100 0 847 248 
Q 594 497 594 1153 
L 594 3053 
L 172 3053 
L 172 3500 
L 594 3500 
L 594 4494 
L 1172 4494 
z
" transform="scale(0.015625)"/>
       <path id="DejaVuSans-33" d="M 1259 4147 
L 1259 2394 
L 2053 2394 
Q 2494 2394 2734 2622 
Q 2975 2850 2975 3272 
Q 2975 3691 2734 3919 
Q 2494 4147 2053 4147 
L 1259 4147 
z
M 628 4666 
L 2053 4666 
Q 2838 4666 3239 4311 
Q 3641 3956 3641 3272 
Q 3641 2581 3239 2228 
Q 2838 1875 2053 1875 
L 1259 1875 
L 1259 0 
L 628 0 
L 628 4666 
z
" transform="scale(0.015625)"/>
       <path id="DejaVuSans-2c" d="M 628 4666 
L 1259 4666 
L 1259 0 
L 628 0 
L 628 4666 
z
" transform="scale(0.015625)"/>
       <path id="DejaVuSans-27" d="M 1259 4147 
L 1259 519 
L 2022 519 
Q 2988 519 3436 956 
Q 3884 1394 3884 2338 
Q 3884 3275 3436 3711 
Q 2988 4147 2022 4147 
L 1259 4147 
z
M 628 4666 
L 1925 4666 
Q 3281 4666 3915 4102 
Q 4550 3538 4550 2338 
Q 4550 1131 3912 565 
Q 3275 0 1925 0 
L 628 0 
L 628 4666 
z
" transform="scale(0.015625)"/>
       <path id="DejaVuSans-e" d="M 2944 4013 
L 2944 2272 
L 4684 2272 
L 4684 1741 
L 2944 1741 
L 2944 0 
L 2419 0 
L 2419 1741 
L 678 1741 
L 678 2272 
L 2419 2272 
L 2419 4013 
L 2944 4013 
z
" transform="scale(0.015625)"/>
       <path id="DejaVuSans-4b" d="M 3513 2113 
L 3513 0 
L 2938 0 
L 2938 2094 
Q 2938 2591 2744 2837 
Q 2550 3084 2163 3084 
Q 1697 3084 1428 2787 
Q 1159 2491 1159 1978 
L 1159 0 
L 581 0 
L 581 4863 
L 1159 4863 
L 1159 2956 
Q 1366 3272 1645 3428 
Q 1925 3584 2291 3584 
Q 2894 3584 3203 3211 
Q 3513 2838 3513 2113 
z
" transform="scale(0.015625)"/>
       <path id="DejaVuSans-f" d="M 750 794 
L 1409 794 
L 1409 256 
L 897 -744 
L 494 -744 
L 750 256 
L 750 794 
z
" transform="scale(0.015625)"/>
       <path id="DejaVuSans-2b" d="M 628 4666 
L 1259 4666 
L 1259 2753 
L 3553 2753 
L 3553 4666 
L 4184 4666 
L 4184 0 
L 3553 0 
L 3553 2222 
L 1259 2222 
L 1259 0 
L 628 0 
L 628 4666 
z
" transform="scale(0.015625)"/>
       <path id="DejaVuSans-2f" d="M 628 4666 
L 1259 4666 
L 1259 531 
L 3531 531 
L 3531 0 
L 628 0 
L 628 4666 
z
" transform="scale(0.015625)"/>
      </defs>
      <use xlink:href="#DejaVuSans-35"/>
      <use xlink:href="#DejaVuSans-48" transform="translate(65 0)"/>
      <use xlink:href="#DejaVuSans-56" transform="translate(126.53125 0)"/>
      <use xlink:href="#DejaVuSans-53" transform="translate(178.625 0)"/>
      <use xlink:href="#DejaVuSans-52" transform="translate(242.109375 0)"/>
      <use xlink:href="#DejaVuSans-56" transform="translate(303.296875 0)"/>
      <use xlink:href="#DejaVuSans-57" transform="translate(355.390625 0)"/>
      <use xlink:href="#DejaVuSans-44" transform="translate(394.59375 0)"/>
      <use xlink:href="#DejaVuSans-3" transform="translate(455.875 0)"/>
      <use xlink:href="#DejaVuSans-2d" transform="translate(487.65625 0)"/>
      <use xlink:href="#DejaVuSans-14" transform="translate(517.15625 0)"/>
      <use xlink:href="#DejaVuSans-3" transform="translate(580.78125 0)"/>
      <use xlink:href="#DejaVuSans-b" transform="translate(612.5625 0)"/>
      <use xlink:href="#DejaVuSans-33" transform="translate(651.578125 0)"/>
      <use xlink:href="#DejaVuSans-2c" transform="translate(711.875 0)"/>
      <use xlink:href="#DejaVuSans-27" transform="translate(741.375 0)"/>
      <use xlink:href="#DejaVuSans-e" transform="translate(818.375 0)"/>
      <use xlink:href="#DejaVuSans-57" transform="translate(902.171875 0)"/>
      <use xlink:href="#DejaVuSans-44" transform="translate(941.375 0)"/>
      <use xlink:href="#DejaVuSans-51" transform="translate(1002.65625 0)"/>
      <use xlink:href="#DejaVuSans-4b" transform="translate(1066.03125 0)"/>
      <use xlink:href="#DejaVuSans-f" transform="translate(1129.40625 0)"/>
      <use xlink:href="#DejaVuSans-3" transform="translate(1161.1875 0)"/>
      <use xlink:href="#DejaVuSans-2b" transform="translate(1192.96875 0)"/>
      <use xlink:href="#DejaVuSans-2c" transform="translate(1268.171875 0)"/>
      <use xlink:href="#DejaVuSans-2f" transform="translate(1297.671875 0)"/>
      <use xlink:href="#DejaVuSans-c" transform="translate(1353.390625 0)"/>
     </g>
    </g>
   </g>
  </g>
 </g>
 <defs>
  <clipPath id="pcfd7df6c44">
   <rect x="47.242344" y="10.8" width="589.957656" height="307.077656"/>
  </clipPath>
 </defs>
</svg>
