<?xml version="1.0" encoding="utf-8" standalone="no"?>
<!DOCTYPE svg PUBLIC "-//W3C//DTD SVG 1.1//EN"
  "http://www.w3.org/Graphics/SVG/1.1/DTD/svg11.dtd">
<svg xmlns:xlink="http://www.w3.org/1999/xlink" width="576pt" height="504pt" viewBox="0 0 576 504" xmlns="http://www.w3.org/2000/svg" version="1.1">
 <metadata>
  <rdf:RDF xmlns:dc="http://purl.org/dc/elements/1.1/" xmlns:cc="http://creativecommons.org/ns#" xmlns:rdf="http://www.w3.org/1999/02/22-rdf-syntax-ns#">
   <cc:Work>
    <dc:type rdf:resource="http://purl.org/dc/dcmitype/StillImage"/>
    <dc:date>2026-06-27T04:54:23.948270</dc:date>
    <dc:format>image/svg+xml</dc:format>
    <dc:creator>
     <cc:Agent>
      <dc:title>Matplotlib v3.11.0, https://matplotlib.org/</dc:title>
     </cc:Agent>
    </dc:creator>
   </cc:Work>
  </rdf:RDF>
 </metadata>
 <defs>
  <style type="text/css">*{stroke-linejoin: round; stroke-linecap: butt}</style>
 </defs>
 <g id="figure_1">
  <g id="patch_1">
   <path d="M 0 504 
L 576 504 
L 576 0 
L 0 0 
z
" style="fill: #ffffff"/>
  </g>
  <g id="patch_2">
   <path d="M 59.4 468 
L 516.6 468 
L 516.6 10.8 
L 59.4 10.8 
z
" style="fill: #ffffff"/>
  </g>
  <g id="pane3d_1">
   <g id="patch_3">
    <path d="M 93.921753 355.269132 
L 244.904125 228.712714 
L 242.805325 46.195737 
L 84.597669 161.648478 
" style="fill: #f2f2f2; opacity: 0.5; stroke: #f2f2f2; stroke-linejoin: miter"/>
   </g>
  </g>
  <g id="pane3d_2">
   <g id="patch_4">
    <path d="M 244.904125 228.712714 
L 487.17696 299.131863 
L 495.822823 110.328297 
L 242.805325 46.195737 
" style="fill: #e6e6e6; opacity: 0.5; stroke: #e6e6e6; stroke-linejoin: miter"/>
   </g>
  </g>
  <g id="pane3d_3">
   <g id="patch_5">
    <path d="M 93.921753 355.269132 
L 350.742792 439.146883 
L 487.17696 299.131863 
L 244.904125 228.712714 
" style="fill: #ececec; opacity: 0.5; stroke: #ececec; stroke-linejoin: miter"/>
   </g>
  </g>
  <g id="grid3d_1">
   <g id="Line3DCollection_1">
    <path d="M 130.974576 367.370584 
L 279.990273 238.910873 
L 279.381422 55.466711 
" style="fill: none; stroke: #b0b0b0; stroke-width: 0.8"/>
    <path d="M 174.559661 381.605473 
L 321.204706 250.890281 
L 322.374599 66.364228 
" style="fill: none; stroke: #b0b0b0; stroke-width: 0.8"/>
    <path d="M 218.946982 396.102372 
L 363.11426 263.071734 
L 366.124561 77.453568 
" style="fill: none; stroke: #b0b0b0; stroke-width: 0.8"/>
    <path d="M 264.158894 410.868582 
L 405.736669 275.460385 
L 410.651466 88.739841 
" style="fill: none; stroke: #b0b0b0; stroke-width: 0.8"/>
    <path d="M 310.21859 425.911679 
L 449.090276 288.061568 
L 455.976197 100.228339 
" style="fill: none; stroke: #b0b0b0; stroke-width: 0.8"/>
   </g>
  </g>
  <g id="grid3d_2">
   <g id="Line3DCollection_2">
    <path d="M 96.117843 153.24158 
L 104.877161 346.086091 
L 360.683183 428.945596 
" style="fill: none; stroke: #b0b0b0; stroke-width: 0.8"/>
    <path d="M 120.537658 135.421111 
L 128.119829 326.603627 
L 381.751306 407.324519 
" style="fill: none; stroke: #b0b0b0; stroke-width: 0.8"/>
    <path d="M 144.319705 118.066056 
L 150.781647 307.608041 
L 402.265334 386.27208 
" style="fill: none; stroke: #b0b0b0; stroke-width: 0.8"/>
    <path d="M 167.488649 101.158416 
L 172.884122 289.081309 
L 422.246843 365.766136 
" style="fill: none; stroke: #b0b0b0; stroke-width: 0.8"/>
    <path d="M 190.067895 84.681111 
L 194.44771 271.006282 
L 441.716303 345.78568 
" style="fill: none; stroke: #b0b0b0; stroke-width: 0.8"/>
    <path d="M 212.079675 68.617917 
L 215.491881 253.366641 
L 460.693148 326.310769 
" style="fill: none; stroke: #b0b0b0; stroke-width: 0.8"/>
    <path d="M 233.545115 52.953416 
L 236.035179 236.14684 
L 479.195839 307.322456 
" style="fill: none; stroke: #b0b0b0; stroke-width: 0.8"/>
   </g>
  </g>
  <g id="grid3d_3">
   <g id="Line3DCollection_3">
    <path d="M 487.899557 283.352187 
L 244.728373 213.428917 
L 93.143675 339.111844 
" style="fill: none; stroke: #b0b0b0; stroke-width: 0.8"/>
    <path d="M 489.68623 244.335806 
L 244.294081 175.661795 
L 91.218881 299.142249 
" style="fill: none; stroke: #b0b0b0; stroke-width: 0.8"/>
    <path d="M 491.506167 204.593037 
L 243.852094 137.22542 
L 89.256873 258.399882 
" style="fill: none; stroke: #b0b0b0; stroke-width: 0.8"/>
    <path d="M 493.360305 164.103403 
L 243.402204 98.101844 
L 87.256562 216.862113 
" style="fill: none; stroke: #b0b0b0; stroke-width: 0.8"/>
    <path d="M 495.249617 122.845651 
L 242.944198 58.272471 
L 85.216813 174.505421 
" style="fill: none; stroke: #b0b0b0; stroke-width: 0.8"/>
   </g>
  </g>
  <g id="axis3d_1">
   <g id="line2d_1">
    <path d="M 93.921753 355.269132 
L 350.742792 439.146883 
" style="fill: none; stroke: #000000; stroke-width: 0.8; stroke-linecap: square"/>
   </g>
   <g id="xtick_1">
    <g id="line2d_2">
     <path d="M 132.272672 366.251553 
L 128.372787 369.613469 
" style="fill: none; stroke: #000000; stroke-width: 0.8; stroke-linecap: square"/>
    </g>
    <g id="text_1">
     <!-- −20 -->
     <g transform="translate(112.917474 390.740848) scale(0.1 -0.1)">
      <defs>
       <path id="DejaVuSans-c9c" d="M 678 2272 
L 4684 2272 
L 4684 1741 
L 678 1741 
L 678 2272 
z
" transform="scale(0.015625)"/>
       <path id="DejaVuSans-15" d="M 1228 531 
L 3431 531 
L 3431 0 
L 469 0 
L 469 531 
Q 828 903 1448 1529 
Q 2069 2156 2228 2338 
Q 2531 2678 2651 2914 
Q 2772 3150 2772 3378 
Q 2772 3750 2511 3984 
Q 2250 4219 1831 4219 
Q 1534 4219 1204 4116 
Q 875 4013 500 3803 
L 500 4441 
Q 881 4594 1212 4672 
Q 1544 4750 1819 4750 
Q 2544 4750 2975 4387 
Q 3406 4025 3406 3419 
Q 3406 3131 3298 2873 
Q 3191 2616 2906 2266 
Q 2828 2175 2409 1742 
Q 1991 1309 1228 531 
z
" transform="scale(0.015625)"/>
       <path id="DejaVuSans-13" d="M 2034 4250 
Q 1547 4250 1301 3770 
Q 1056 3291 1056 2328 
Q 1056 1369 1301 889 
Q 1547 409 2034 409 
Q 2525 409 2770 889 
Q 3016 1369 3016 2328 
Q 3016 3291 2770 3770 
Q 2525 4250 2034 4250 
z
M 2034 4750 
Q 2819 4750 3233 4129 
Q 3647 3509 3647 2328 
Q 3647 1150 3233 529 
Q 2819 -91 2034 -91 
Q 1250 -91 836 529 
Q 422 1150 422 2328 
Q 422 3509 836 4129 
Q 1250 4750 2034 4750 
z
" transform="scale(0.015625)"/>
      </defs>
      <use xlink:href="#DejaVuSans-c9c"/>
      <use xlink:href="#DejaVuSans-15" transform="translate(83.796875 0)"/>
      <use xlink:href="#DejaVuSans-13" transform="translate(147.421875 0)"/>
     </g>
    </g>
   </g>
   <g id="xtick_2">
    <g id="line2d_3">
     <path d="M 175.838057 380.465947 
L 171.997309 383.88948 
" style="fill: none; stroke: #000000; stroke-width: 0.8; stroke-linecap: square"/>
    </g>
    <g id="text_2">
     <!-- −10 -->
     <g transform="translate(156.529419 405.151058) scale(0.1 -0.1)">
      <defs>
       <path id="DejaVuSans-14" d="M 794 531 
L 1825 531 
L 1825 4091 
L 703 3866 
L 703 4441 
L 1819 4666 
L 2450 4666 
L 2450 531 
L 3481 531 
L 3481 0 
L 794 0 
L 794 531 
z
" transform="scale(0.015625)"/>
      </defs>
      <use xlink:href="#DejaVuSans-c9c"/>
      <use xlink:href="#DejaVuSans-14" transform="translate(83.796875 0)"/>
      <use xlink:href="#DejaVuSans-13" transform="translate(147.421875 0)"/>
     </g>
    </g>
   </g>
   <g id="xtick_3">
    <g id="line2d_4">
     <path d="M 220.204729 394.941783 
L 216.425967 398.428644 
" style="fill: none; stroke: #000000; stroke-width: 0.8; stroke-linecap: square"/>
    </g>
    <g id="text_3">
     <!-- 0 -->
     <g transform="translate(208.316961 419.827091) scale(0.1 -0.1)">
      <use xlink:href="#DejaVuSans-13"/>
     </g>
    </g>
   </g>
   <g id="xtick_4">
    <g id="line2d_5">
     <path d="M 265.395001 409.686341 
L 261.681203 413.238303 
" style="fill: none; stroke: #000000; stroke-width: 0.8; stroke-linecap: square"/>
    </g>
    <g id="text_4">
     <!-- 10 -->
     <g transform="translate(250.379132 434.776371) scale(0.1 -0.1)">
      <use xlink:href="#DejaVuSans-14"/>
      <use xlink:href="#DejaVuSans-13" transform="translate(63.625 0)"/>
     </g>
    </g>
   </g>
   <g id="xtick_5">
    <g id="line2d_6">
     <path d="M 311.432021 424.707173 
L 307.7863 428.326076 
" style="fill: none; stroke: #000000; stroke-width: 0.8; stroke-linecap: square"/>
    </g>
    <g id="text_5">
     <!-- 20 -->
     <g transform="translate(296.472838 450.006601) scale(0.1 -0.1)">
      <use xlink:href="#DejaVuSans-15"/>
      <use xlink:href="#DejaVuSans-13" transform="translate(63.625 0)"/>
     </g>
    </g>
   </g>
   <g id="text_6">
    <!-- J1 (°) -->
    <g transform="translate(189.883466 429.795328) rotate(-341.912962) scale(0.1 -0.1)">
     <defs>
      <path id="DejaVuSans-2d" d="M 628 4666 
L 1259 4666 
L 1259 325 
Q 1259 -519 939 -900 
Q 619 -1281 -91 -1281 
L -331 -1281 
L -331 -750 
L -134 -750 
Q 284 -750 456 -515 
Q 628 -281 628 325 
L 628 4666 
z
" transform="scale(0.015625)"/>
      <path id="DejaVuSans-3" transform="scale(0.015625)"/>
      <path id="DejaVuSans-b" d="M 1984 4856 
Q 1566 4138 1362 3434 
Q 1159 2731 1159 2009 
Q 1159 1288 1364 580 
Q 1569 -128 1984 -844 
L 1484 -844 
Q 1016 -109 783 600 
Q 550 1309 550 2009 
Q 550 2706 781 3412 
Q 1013 4119 1484 4856 
L 1984 4856 
z
" transform="scale(0.015625)"/>
      <path id="DejaVuSans-72" d="M 1600 4347 
Q 1350 4347 1178 4173 
Q 1006 4000 1006 3750 
Q 1006 3503 1178 3333 
Q 1350 3163 1600 3163 
Q 1850 3163 2022 3333 
Q 2194 3503 2194 3750 
Q 2194 3997 2020 4172 
Q 1847 4347 1600 4347 
z
M 1600 4750 
Q 1800 4750 1984 4673 
Q 2169 4597 2303 4453 
Q 2447 4313 2519 4134 
Q 2591 3956 2591 3750 
Q 2591 3338 2302 3052 
Q 2013 2766 1594 2766 
Q 1172 2766 890 3047 
Q 609 3328 609 3750 
Q 609 4169 896 4459 
Q 1184 4750 1600 4750 
z
" transform="scale(0.015625)"/>
      <path id="DejaVuSans-c" d="M 513 4856 
L 1013 4856 
Q 1481 4119 1714 3412 
Q 1947 2706 1947 2009 
Q 1947 1309 1714 600 
Q 1481 -109 1013 -844 
L 513 -844 
Q 928 -128 1133 580 
Q 1338 1288 1338 2009 
Q 1338 2731 1133 3434 
Q 928 4138 513 4856 
z
" transform="scale(0.015625)"/>
     </defs>
     <use xlink:href="#DejaVuSans-2d"/>
     <use xlink:href="#DejaVuSans-14" transform="translate(29.5 0)"/>
     <use xlink:href="#DejaVuSans-3" transform="translate(93.125 0)"/>
     <use xlink:href="#DejaVuSans-b" transform="translate(124.90625 0)"/>
     <use xlink:href="#DejaVuSans-72" transform="translate(163.921875 0)"/>
     <use xlink:href="#DejaVuSans-c" transform="translate(213.921875 0)"/>
    </g>
   </g>
  </g>
  <g id="axis3d_2">
   <g id="line2d_7">
    <path d="M 487.17696 299.131863 
L 350.742792 439.146883 
" style="fill: none; stroke: #000000; stroke-width: 0.8; stroke-linecap: square"/>
   </g>
   <g id="xtick_6">
    <g id="line2d_8">
     <path d="M 358.527533 428.247347 
L 365.000057 430.343897 
" style="fill: none; stroke: #000000; stroke-width: 0.8; stroke-linecap: square"/>
    </g>
    <g id="text_7">
     <!-- −15 -->
     <g transform="translate(363.004351 449.958761) scale(0.1 -0.1)">
      <defs>
       <path id="DejaVuSans-18" d="M 691 4666 
L 3169 4666 
L 3169 4134 
L 1269 4134 
L 1269 2991 
Q 1406 3038 1543 3061 
Q 1681 3084 1819 3084 
Q 2600 3084 3056 2656 
Q 3513 2228 3513 1497 
Q 3513 744 3044 326 
Q 2575 -91 1722 -91 
Q 1428 -91 1123 -41 
Q 819 9 494 109 
L 494 744 
Q 775 591 1075 516 
Q 1375 441 1709 441 
Q 2250 441 2565 725 
Q 2881 1009 2881 1497 
Q 2881 1984 2565 2268 
Q 2250 2553 1709 2553 
Q 1456 2553 1204 2497 
Q 953 2441 691 2322 
L 691 4666 
z
" transform="scale(0.015625)"/>
      </defs>
      <use xlink:href="#DejaVuSans-c9c"/>
      <use xlink:href="#DejaVuSans-14" transform="translate(83.796875 0)"/>
      <use xlink:href="#DejaVuSans-18" transform="translate(147.421875 0)"/>
     </g>
    </g>
   </g>
   <g id="xtick_7">
    <g id="line2d_9">
     <path d="M 379.615422 406.644752 
L 386.028521 408.685788 
" style="fill: none; stroke: #000000; stroke-width: 0.8; stroke-linecap: square"/>
    </g>
    <g id="text_8">
     <!-- −10 -->
     <g transform="translate(383.908112 428.151427) scale(0.1 -0.1)">
      <use xlink:href="#DejaVuSans-c9c"/>
      <use xlink:href="#DejaVuSans-14" transform="translate(83.796875 0)"/>
      <use xlink:href="#DejaVuSans-13" transform="translate(147.421875 0)"/>
     </g>
    </g>
   </g>
   <g id="xtick_8">
    <g id="line2d_10">
     <path d="M 400.14893 385.610069 
L 406.50347 387.597768 
" style="fill: none; stroke: #000000; stroke-width: 0.8; stroke-linecap: square"/>
    </g>
    <g id="text_9">
     <!-- −5 -->
     <g transform="translate(407.443164 406.917823) scale(0.1 -0.1)">
      <use xlink:href="#DejaVuSans-c9c"/>
      <use xlink:href="#DejaVuSans-18" transform="translate(83.796875 0)"/>
     </g>
    </g>
   </g>
   <g id="xtick_9">
    <g id="line2d_11">
     <path d="M 420.149633 365.121195 
L 426.446474 367.05762 
" style="fill: none; stroke: #000000; stroke-width: 0.8; stroke-linecap: square"/>
    </g>
    <g id="text_10">
     <!-- 0 -->
     <g transform="translate(431.458274 386.235602) scale(0.1 -0.1)">
      <use xlink:href="#DejaVuSans-13"/>
     </g>
    </g>
   </g>
   <g id="xtick_10">
    <g id="line2d_12">
     <path d="M 439.638005 345.157157 
L 445.877998 347.044267 
" style="fill: none; stroke: #000000; stroke-width: 0.8; stroke-linecap: square"/>
    </g>
    <g id="text_11">
     <!-- 5 -->
     <g transform="translate(450.775327 366.083562) scale(0.1 -0.1)">
      <use xlink:href="#DejaVuSans-18"/>
     </g>
    </g>
   </g>
   <g id="xtick_11">
    <g id="line2d_13">
     <path d="M 458.633481 325.698046 
L 464.817469 327.5377 
" style="fill: none; stroke: #000000; stroke-width: 0.8; stroke-linecap: square"/>
    </g>
    <g id="text_12">
     <!-- 10 -->
     <g transform="translate(466.422212 346.441574) scale(0.1 -0.1)">
      <use xlink:href="#DejaVuSans-14"/>
      <use xlink:href="#DejaVuSans-13" transform="translate(63.625 0)"/>
     </g>
    </g>
   </g>
   <g id="xtick_12">
    <g id="line2d_14">
     <path d="M 477.154528 306.724943 
L 483.283344 308.51891 
" style="fill: none; stroke: #000000; stroke-width: 0.8; stroke-linecap: square"/>
    </g>
    <g id="text_13">
     <!-- 15 -->
     <g transform="translate(484.779757 327.290516) scale(0.1 -0.1)">
      <use xlink:href="#DejaVuSans-14"/>
      <use xlink:href="#DejaVuSans-18" transform="translate(63.625 0)"/>
     </g>
    </g>
   </g>
   <g id="text_14">
    <!-- J2 (°) -->
    <g transform="translate(442.005309 404.871478) rotate(-45.742112) scale(0.1 -0.1)">
     <use xlink:href="#DejaVuSans-2d"/>
     <use xlink:href="#DejaVuSans-15" transform="translate(29.5 0)"/>
     <use xlink:href="#DejaVuSans-3" transform="translate(93.125 0)"/>
     <use xlink:href="#DejaVuSans-b" transform="translate(124.90625 0)"/>
     <use xlink:href="#DejaVuSans-72" transform="translate(163.921875 0)"/>
     <use xlink:href="#DejaVuSans-c" transform="translate(213.921875 0)"/>
    </g>
   </g>
  </g>
  <g id="axis3d_3">
   <g id="line2d_15">
    <path d="M 487.17696 299.131863 
L 495.822823 110.328297 
" style="fill: none; stroke: #000000; stroke-width: 0.8; stroke-linecap: square"/>
   </g>
   <g id="xtick_13">
    <g id="line2d_16">
     <path d="M 485.858324 282.765235 
L 491.986897 284.527491 
" style="fill: none; stroke: #000000; stroke-width: 0.8; stroke-linecap: square"/>
    </g>
    <g id="text_15">
     <!-- −10 -->
     <g transform="translate(495.685771 288.359504) scale(0.1 -0.1)">
      <use xlink:href="#DejaVuSans-c9c"/>
      <use xlink:href="#DejaVuSans-14" transform="translate(83.796875 0)"/>
      <use xlink:href="#DejaVuSans-13" transform="translate(147.421875 0)"/>
     </g>
    </g>
   </g>
   <g id="xtick_14">
    <g id="line2d_17">
     <path d="M 487.625462 243.759091 
L 493.812733 245.490625 
" style="fill: none; stroke: #000000; stroke-width: 0.8; stroke-linecap: square"/>
    </g>
    <g id="text_16">
     <!-- −5 -->
     <g transform="translate(500.819368 249.388333) scale(0.1 -0.1)">
      <use xlink:href="#DejaVuSans-c9c"/>
      <use xlink:href="#DejaVuSans-18" transform="translate(83.796875 0)"/>
     </g>
    </g>
   </g>
   <g id="xtick_15">
    <g id="line2d_18">
     <path d="M 489.425486 204.027044 
L 495.672588 205.726399 
" style="fill: none; stroke: #000000; stroke-width: 0.8; stroke-linecap: square"/>
    </g>
    <g id="text_17">
     <!-- 0 -->
     <g transform="translate(506.997841 209.692911) scale(0.1 -0.1)">
      <use xlink:href="#DejaVuSans-13"/>
     </g>
    </g>
   </g>
   <g id="xtick_16">
    <g id="line2d_19">
     <path d="M 491.259324 163.548638 
L 497.567424 165.214295 
" style="fill: none; stroke: #000000; stroke-width: 0.8; stroke-linecap: square"/>
    </g>
    <g id="text_18">
     <!-- 5 -->
     <g transform="translate(509.023774 169.252859) scale(0.1 -0.1)">
      <use xlink:href="#DejaVuSans-18"/>
     </g>
    </g>
   </g>
   <g id="xtick_17">
    <g id="line2d_20">
     <path d="M 493.127937 122.302644 
L 499.498236 123.933011 
" style="fill: none; stroke: #000000; stroke-width: 0.8; stroke-linecap: square"/>
    </g>
    <g id="text_19">
     <!-- 10 -->
     <g transform="translate(507.906821 128.047027) scale(0.1 -0.1)">
      <use xlink:href="#DejaVuSans-14"/>
      <use xlink:href="#DejaVuSans-13" transform="translate(63.625 0)"/>
     </g>
    </g>
   </g>
   <g id="text_20">
    <!-- J3 (°) -->
    <g transform="translate(533.909694 214.126328) rotate(-87.378092) scale(0.1 -0.1)">
     <defs>
      <path id="DejaVuSans-16" d="M 2597 2516 
Q 3050 2419 3304 2112 
Q 3559 1806 3559 1356 
Q 3559 666 3084 287 
Q 2609 -91 1734 -91 
Q 1441 -91 1130 -33 
Q 819 25 488 141 
L 488 750 
Q 750 597 1062 519 
Q 1375 441 1716 441 
Q 2309 441 2620 675 
Q 2931 909 2931 1356 
Q 2931 1769 2642 2001 
Q 2353 2234 1838 2234 
L 1294 2234 
L 1294 2753 
L 1863 2753 
Q 2328 2753 2575 2939 
Q 2822 3125 2822 3475 
Q 2822 3834 2567 4026 
Q 2313 4219 1838 4219 
Q 1578 4219 1281 4162 
Q 984 4106 628 3988 
L 628 4550 
Q 988 4650 1302 4700 
Q 1616 4750 1894 4750 
Q 2613 4750 3031 4423 
Q 3450 4097 3450 3541 
Q 3450 3153 3228 2886 
Q 3006 2619 2597 2516 
z
" transform="scale(0.015625)"/>
     </defs>
     <use xlink:href="#DejaVuSans-2d"/>
     <use xlink:href="#DejaVuSans-16" transform="translate(29.5 0)"/>
     <use xlink:href="#DejaVuSans-3" transform="translate(93.125 0)"/>
     <use xlink:href="#DejaVuSans-b" transform="translate(124.90625 0)"/>
     <use xlink:href="#DejaVuSans-72" transform="translate(163.921875 0)"/>
     <use xlink:href="#DejaVuSans-c" transform="translate(213.921875 0)"/>
    </g>
   </g>
  </g>
  <g id="axes_1">
   <g id="line2d_21">
    <path d="M 294.428085 230.772659 
L 296.401111 231.341216 
L 307.816281 231.160846 
L 332.626892 224.333768 
L 357.463666 217.647799 
L 388.340366 207.28506 
L 407.091368 205.118608 
L 407.726474 205.605158 
L 407.62612 208.010467 
L 407.322722 207.889409 
L 408.320768 207.487857 
L 408.862256 205.910232 
L 408.113863 204.634202 
L 407.92064 207.109472 
L 407.146446 207.460801 
L 408.366561 206.964459 
L 408.096841 205.67734 
L 408.695645 205.325197 
L 408.014451 207.948894 
L 408.70804 206.449959 
L 408.901878 205.103285 
L 407.757431 205.340851 
L 409.060074 208.663824 
L 408.965895 207.478843 
L 407.503497 207.760615 
L 408.043132 206.393747 
L 408.105857 205.181452 
L 408.98275 206.155662 
L 407.149762 208.079789 
L 409.041142 207.614939 
L 408.40467 207.797474 
L 408.484932 206.645258 
L 408.729756 205.490748 
L 408.04465 204.583919 
L 409.106621 205.619177 
L 407.127543 207.70359 
L 407.385723 206.602843 
L 408.445231 207.596447 
L 408.316231 205.495612 
L 408.62401 208.214397 
L 408.160536 204.765366 
L 408.495271 207.53411 
L 408.617119 206.552683 
L 407.441179 207.090754 
L 408.95762 207.018304 
L 407.759523 205.297391 
L 407.981002 208.15439 
L 407.758396 204.787275 
L 407.98348 207.695487 
L 408.023342 206.871173 
L 408.797759 205.872487 
L 407.374031 205.496009 
L 408.029295 208.283092 
L 407.581824 206.485148 
L 407.332082 207.164693 
L 407.688493 206.666829 
L 408.723561 204.75471 
L 409.057391 206.928633 
L 408.983359 206.445457 
L 408.079724 204.775944 
L 408.384757 205.239984 
L 407.99032 207.273491 
L 409.234894 204.991267 
L 407.625479 207.414189 
L 408.672408 206.523785 
L 408.857138 205.882502 
L 407.53632 205.700235 
L 409.12774 207.236704 
L 407.499597 207.137538 
L 407.974692 206.421045 
L 409.196997 205.546087 
L 407.609649 206.917651 
L 408.254137 204.999045 
L 408.498962 207.043695 
L 407.522973 208.17033 
L 407.289567 207.78945 
L 407.696063 207.242276 
L 407.644337 206.912213 
L 408.727556 205.846644 
L 409.208225 204.923708 
L 407.323473 207.798848 
L 407.431824 206.363412 
L 408.142637 204.647971 
L 407.318451 207.359453 
L 407.485251 207.12163 
L 407.404645 208.150456 
L 408.660829 206.306766 
L 407.840805 205.039147 
L 409.05949 207.009776 
L 408.534699 208.258841 
L 407.306523 207.260201 
L 409.082159 206.575351 
L 407.962793 208.021786 
L 407.968042 207.867019 
L 407.337631 206.687444 
L 408.021571 205.139518 
L 407.74646 207.709118 
L 407.350946 207.772985 
L 408.623629 206.098359 
L 407.258073 208.02023 
L 415.362345 203.975234 
L 415.675598 192.219237 
L 416.022721 190.427857 
L 417.835787 190.461494 
L 418.196136 191.240779 
L 415.492465 193.766384 
L 416.65611 196.368869 
L 416.398627 194.631963 
L 416.170989 194.008502 
L 416.318187 198.200907 
L 416.879339 194.49364 
L 416.059404 197.85552 
L 416.334393 197.240433 
L 416.227864 199.965106 
L 415.944176 198.462972 
L 416.3076 199.282813 
L 416.401823 196.853095 
L 416.138151 195.72536 
L 416.193075 200.282293 
L 416.356455 198.355413 
L 415.791025 200.169921 
L 416.134414 199.014624 
L 416.877876 202.633045 
L 417.2427 199.183066 
L 417.409086 200.956841 
L 415.715949 200.761299 
L 417.081303 203.026276 
L 417.626134 199.912508 
L 415.640077 205.959698 
L 416.337373 201.099722 
L 415.685661 205.9732 
L 416.114987 200.804987 
L 416.32705 203.853241 
L 416.745643 203.186845 
L 417.258938 204.630494 
L 416.004708 200.124963 
L 416.302243 203.155239 
L 416.099435 205.530809 
L 416.795594 200.46911 
L 417.046431 200.411706 
L 417.64359 202.610534 
L 416.565541 205.832437 
L 417.351128 203.53682 
L 417.623264 200.49728 
L 416.296586 204.187072 
L 417.250404 199.246562 
L 415.938135 203.863176 
L 416.54002 199.285082 
L 417.466407 200.02577 
L 416.292824 205.791839 
L 417.097004 200.61803 
L 416.137652 200.759382 
L 416.967768 201.079046 
L 415.919399 204.906302 
L 416.52088 201.904334 
L 417.646361 199.884897 
L 416.047936 202.134199 
L 415.702269 205.816841 
L 417.294816 205.520715 
L 417.025527 205.538821 
L 416.471646 203.020451 
L 417.188033 201.268333 
L 416.629749 199.019553 
L 415.917018 201.261679 
L 416.659654 205.782387 
L 416.429401 201.899332 
L 415.97926 200.327662 
L 416.609507 201.063203 
L 416.107649 198.56821 
L 417.689378 199.512872 
L 416.724803 201.994134 
L 416.288613 199.542232 
L 416.372866 201.6068 
L 417.510456 204.73518 
L 417.354015 199.494031 
L 415.855716 200.53458 
L 416.929988 205.847514 
L 416.485008 202.749752 
L 415.960703 205.579985 
L 417.765705 200.880601 
L 417.328775 204.786131 
L 416.498783 200.233304 
L 416.211447 202.341505 
L 417.662579 203.584473 
L 417.601525 200.361173 
L 417.205285 203.272839 
L 416.563893 202.683748 
L 416.726048 201.48814 
L 416.768921 199.173459 
L 416.900032 200.819875 
L 416.289243 205.819065 
L 416.563516 205.674368 
L 416.98814 199.961132 
L 417.105772 206.127356 
L 417.042387 199.517805 
L 417.050081 204.392454 
L 417.340731 201.224426 
L 417.759758 199.226067 
L 415.790956 203.669144 
L 415.825425 200.838636 
L 416.277134 199.716212 
L 416.578819 203.07931 
L 416.8591 204.530348 
L 416.988036 202.684386 
L 417.530159 199.64896 
L 417.639024 200.530672 
L 417.174047 203.437462 
L 417.648964 205.060263 
L 416.142675 204.235889 
L 416.096651 200.020086 
L 415.996261 203.521046 
L 416.982476 205.02027 
L 416.356092 200.887824 
L 417.357005 203.986277 
L 416.471709 202.155782 
L 417.418546 204.065749 
L 416.039592 204.153342 
L 416.94241 206.241288 
L 415.846021 200.988569 
L 416.167512 203.886961 
L 417.093311 200.946063 
L 415.816124 204.7657 
L 416.349408 201.979998 
L 416.927193 205.992841 
L 416.151021 205.009476 
L 417.258329 202.372863 
L 416.075037 202.293152 
L 417.183126 201.100558 
L 416.675349 200.397214 
L 417.504772 201.705161 
L 416.751612 206.343207 
L 417.648835 204.807546 
L 416.71618 202.078464 
L 415.824307 201.159121 
L 416.905711 199.987856 
L 415.763135 200.519546 
L 416.653372 201.824724 
L 415.775537 202.918251 
L 417.466258 199.812981 
L 416.497547 205.36853 
L 415.997418 204.996545 
L 417.618272 199.673193 
L 416.553256 202.178564 
L 415.935228 199.699355 
L 417.552387 201.675353 
L 417.251107 199.684783 
L 417.183123 203.085586 
L 417.60565 201.743855 
L 415.84757 199.409159 
L 417.176261 203.901247 
L 416.786489 205.535163 
L 416.729002 201.055992 
L 416.511253 200.835763 
L 416.04574 202.887788 
L 416.092771 200.43691 
L 415.843832 201.108078 
L 417.276348 202.615091 
L 417.030696 200.402834 
L 416.531559 204.915683 
L 416.61187 206.153975 
L 415.726567 202.573186 
L 416.588276 205.161827 
L 417.43588 202.421791 
L 415.827496 199.987827 
L 415.851142 201.931277 
L 413.363498 212.375718 
L 384.112325 226.680525 
L 356.938294 237.277315 
L 355.710072 235.247141 
L 356.94099 236.237317 
L 356.679053 235.120882 
L 355.227446 235.520917 
L 355.895609 238.220757 
L 355.863811 237.715271 
L 354.357999 237.95288 
L 354.834611 236.223273 
L 354.2135 237.65786 
L 354.746847 237.681515 
L 354.763847 236.245334 
L 354.328702 237.161032 
L 354.480228 237.461502 
L 355.203626 237.145146 
L 355.831737 239.132605 
L 356.69965 237.705522 
L 355.544029 234.640026 
L 355.862944 237.391653 
L 356.38882 238.030213 
L 355.903081 235.774875 
L 355.177976 239.445317 
L 355.353996 236.632752 
L 355.86968 237.282919 
L 354.869868 237.425601 
L 354.824196 236.629925 
L 355.665528 235.925938 
L 355.409036 236.110301 
L 355.297 238.047134 
L 354.535188 236.795243 
L 355.162553 238.118518 
L 354.850269 235.849725 
L 354.230807 238.773104 
L 355.511558 238.740233 
L 353.979559 237.028472 
L 354.699114 239.029769 
L 354.336098 235.688325 
L 354.178067 236.561204 
L 354.895538 238.571329 
L 356.076139 235.774945 
L 355.378386 236.88932 
L 355.447061 237.42745 
L 355.024746 236.511686 
L 354.967722 238.042762 
L 355.796101 237.356898 
L 355.744962 235.503574 
L 356.827004 235.522626 
L 354.77765 235.917754 
L 355.346692 235.081337 
L 355.5932 238.025511 
L 355.173311 235.328767 
L 355.18622 237.561634 
L 356.57474 237.147628 
L 356.028727 236.173744 
L 355.796738 237.674448 
L 354.683387 239.113384 
L 356.316822 238.401166 
L 356.069203 237.107286 
L 355.475061 236.498 
L 354.324017 239.275207 
L 355.220593 236.413424 
L 355.440767 236.553705 
L 354.881325 235.939535 
L 355.912757 238.954893 
L 354.163261 236.778001 
L 355.444852 235.287021 
L 356.93364 237.964983 
L 354.51925 237.524675 
L 354.15583 237.932409 
L 355.494717 238.16995 
L 356.319565 238.657456 
L 356.550886 235.981842 
L 355.058484 236.931952 
L 356.575284 236.101648 
L 355.411332 236.020196 
L 355.15424 237.105162 
L 354.797581 237.443978 
L 355.219157 237.17318 
L 355.345766 236.174548 
L 354.054663 237.74823 
L 354.170335 236.761123 
L 355.931445 239.064707 
L 354.613549 238.933966 
L 355.839331 237.610362 
L 356.290246 237.993759 
L 356.502987 237.674181 
L 355.995907 238.637643 
L 355.028682 236.453205 
L 355.00678 235.399056 
L 355.125433 238.807524 
L 354.471603 236.286375 
L 354.541999 237.625874 
L 355.770601 239.121919 
L 354.181709 235.428724 
L 356.951308 238.032506 
L 355.829791 236.320917 
L 356.635582 236.89929 
L 355.501612 235.192029 
L 355.279248 238.049341 
L 356.434223 236.081642 
L 355.298544 237.694983 
L 356.016032 234.516102 
L 355.101448 236.863448 
L 355.952174 236.121313 
L 356.892543 237.542214 
L 356.418789 236.366883 
L 356.62761 237.328612 
L 355.173256 236.459337 
L 355.173256 236.459337 
L 355.865913 238.600494 
L 355.129746 238.403055 
L 355.400274 235.890198 
L 355.385409 236.150938 
L 355.695044 237.788453 
L 355.817786 235.528057 
L 355.638852 235.731931 
L 356.459394 237.111117 
L 356.491218 236.280392 
L 355.591355 237.809747 
L 356.41395 237.455093 
L 357.341628 236.038312 
L 355.535736 236.830894 
L 355.44262 237.70984 
L 355.609277 236.120556 
L 355.583683 235.293834 
L 355.485551 236.177701 
L 356.069286 235.575217 
L 356.584493 236.857867 
L 356.473101 236.652674 
L 355.560878 235.337966 
L 354.823815 234.730201 
L 356.302024 235.426152 
L 355.897953 241.042388 
L 338.678352 244.160923 
L 286.206003 252.124611 
L 265.973762 250.377064 
L 266.003387 251.716082 
L 265.1444 250.60995 
L 265.273372 251.307162 
L 266.286939 250.592814 
L 264.81686 253.02506 
L 265.861742 253.14045 
L 264.748193 252.073524 
L 265.628624 252.884131 
L 266.000311 252.172799 
L 264.943465 251.618789 
L 265.537663 252.192584 
L 266.422339 252.17519 
L 264.918126 250.249046 
L 264.875662 251.585218 
L 265.582153 251.518922 
L 267.534771 250.658416 
L 266.482644 251.308948 
L 265.931974 250.11328 
L 265.462944 250.20798 
L 267.527041 249.799968 
L 266.247383 253.033918 
L 265.82635 252.072113 
L 266.610062 252.086001 
L 265.454934 249.959279 
L 265.405708 250.803301 
L 266.003149 252.198056 
L 266.593908 251.304242 
L 266.567394 249.855607 
L 266.234342 249.416432 
L 265.994981 251.202922 
L 265.721964 251.11146 
L 266.098097 251.399128 
L 266.95273 251.887509 
L 266.536177 250.351205 
L 265.472582 251.672039 
L 265.589425 250.507383 
L 266.430932 252.388015 
L 265.861031 249.734565 
L 267.091628 251.935781 
L 266.49775 250.345009 
L 267.188159 252.196635 
L 267.119719 251.130255 
L 265.813937 250.208601 
L 265.853088 249.476619 
L 267.133706 249.845439 
L 265.866602 251.272364 
L 265.553454 251.067032 
L 267.192361 249.392966 
L 266.944664 250.619634 
L 266.018667 251.097983 
L 266.333862 250.511376 
L 265.919736 249.334783 
L 266.713261 249.227297 
L 265.602669 249.673427 
L 267.023862 250.125475 
L 266.470247 249.997107 
L 266.946815 250.752816 
L 266.43781 251.875148 
L 266.480377 251.208372 
L 266.265007 251.374496 
L 266.29177 250.862143 
L 266.176726 250.145496 
L 266.10751 252.019613 
L 266.370493 249.542855 
L 266.287866 251.165763 
L 265.41489 249.868874 
L 265.817643 251.973033 
L 266.605707 252.09272 
L 265.657169 251.85064 
L 266.527239 251.066939 
L 265.917623 250.03454 
L 266.827306 251.582746 
L 266.5944 250.995921 
L 265.437277 250.685117 
L 265.597746 251.636942 
L 266.90656 251.339496 
L 265.864325 251.232611 
L 265.90457 250.908125 
L 267.142125 249.485408 
L 266.505156 250.969691 
L 266.916676 252.197102 
L 265.357301 251.725522 
L 266.462772 249.130652 
L 265.924034 250.798893 
L 266.986513 249.307509 
L 265.908527 251.576048 
L 267.071381 252.461725 
L 265.54089 250.973309 
L 266.816143 249.769461 
L 266.387812 249.314328 
L 266.06343 251.248157 
L 266.722022 249.478241 
L 266.245606 251.358014 
L 265.749052 249.8066 
L 265.601557 251.960281 
L 266.976194 250.96247 
L 266.882823 250.970893 
L 265.665019 252.244398 
L 265.490621 252.176849 
L 266.402358 250.837861 
L 265.759149 249.234264 
L 265.771619 249.424055 
L 266.959495 250.70561 
L 266.754317 249.586737 
L 250.273323 253.183588 
L 193.900642 256.109781 
L 187.269188 253.951348 
L 186.113509 254.034783 
L 185.613644 253.241324 
L 187.29283 252.586063 
L 188.226283 254.895654 
L 186.713924 253.439165 
L 186.411641 252.596651 
L 186.946691 252.507702 
L 187.267253 255.765275 
L 187.984051 255.551795 
L 186.48502 254.988255 
L 186.595154 254.930884 
L 186.754407 254.823973 
L 168.761728 247.197415 
L 167.307076 247.139102 
L 182.128756 243.215594 
L 216.526032 230.173121 
L 226.902245 231.300729 
L 228.9137 230.847544 
L 227.603279 230.158222 
L 228.443192 229.907213 
L 279.576774 222.782401 
L 324.57086 213.918837 
L 327.909992 214.161925 
L 331.304682 213.648312 
L 330.145595 212.943021 
L 331.562509 212.708472 
L 331.562509 212.708472 
L 356.75084 206.075164 
L 407.180128 202.960392 
L 407.914556 207.664729 
L 409.200228 206.22586 
L 410.34121 203.834178 
L 409.328606 206.335064 
L 408.450231 207.44161 
L 407.956698 205.018039 
L 409.248021 206.210967 
L 408.6105 205.821274 
L 408.140756 204.910475 
L 409.107326 206.928865 
L 408.066182 206.982459 
L 408.820696 207.569313 
L 409.992349 207.180949 
L 408.752994 206.106501 
L 409.583981 207.820586 
L 408.520274 206.829425 
L 409.658194 207.344664 
L 408.606642 204.358011 
L 409.750113 207.794532 
L 408.669606 207.337714 
L 409.866465 205.163863 
L 408.818693 204.138702 
L 408.261641 205.069482 
L 409.269411 207.050698 
L 408.492809 206.683936 
L 409.851217 204.733335 
L 408.902398 204.29798 
L 408.215824 207.045449 
L 409.536101 206.347959 
L 408.767407 206.716779 
L 408.367016 205.125506 
L 410.000833 205.030752 
L 409.029331 206.130159 
L 408.496064 207.550041 
L 408.10995 207.280016 
L 409.572808 206.26174 
L 411.384451 209.920766 
L 417.882266 195.565507 
L 417.546671 191.769856 
L 418.268541 190.684745 
L 418.892205 197.035656 
L 420.240194 195.150126 
L 418.77716 194.456291 
L 420.346212 197.261839 
L 419.274066 192.718322 
L 420.217424 195.096865 
L 419.486672 192.249606 
L 420.328364 198.947247 
L 421.060483 194.449167 
L 419.637718 197.532048 
L 420.661247 196.601863 
L 420.018989 199.483899 
L 420.068972 197.531641 
L 420.257403 196.890636 
L 419.877183 194.730886 
L 420.578836 196.048545 
L 419.932674 199.786234 
L 419.686916 203.397661 
L 421.140958 198.211936 
L 420.727496 199.477502 
L 419.989604 201.584829 
L 420.69873 202.487378 
L 420.339703 199.956035 
L 419.405542 201.085161 
L 419.829988 199.164621 
L 419.357422 200.89454 
L 420.918126 203.008083 
L 420.376726 205.498135 
L 420.844747 201.436275 
L 420.317456 203.717474 
L 419.569517 203.535716 
L 420.061323 199.514042 
L 419.008324 205.697507 
L 420.200603 201.400135 
L 419.723359 201.979096 
L 419.622158 200.713687 
L 419.168721 204.839718 
L 420.297394 199.607474 
L 419.580752 202.090481 
L 420.937687 201.426378 
L 421.007618 201.802793 
L 419.865196 205.052363 
L 420.758074 204.392899 
L 419.161441 203.995512 
L 420.673818 201.357458 
L 419.61159 201.951896 
L 419.308338 199.483757 
L 420.386065 203.281252 
L 419.067653 202.064381 
L 421.030574 200.332864 
L 419.424992 204.732749 
L 420.68462 203.109354 
L 419.297226 198.402012 
L 420.527944 203.119422 
L 419.479823 202.649099 
L 419.534746 202.705038 
L 419.919087 203.861874 
L 420.558858 203.989993 
L 419.84899 203.407796 
L 420.613149 202.573019 
L 420.87724 204.419619 
L 419.796786 200.284346 
L 420.837144 203.896187 
L 419.698015 198.932635 
L 420.204171 204.551622 
L 419.71392 201.825846 
L 420.32069 200.894115 
L 420.701964 201.85718 
L 419.876036 199.439107 
L 420.268395 200.451344 
L 420.700253 202.255901 
L 419.611824 202.666392 
L 421.01358 200.148542 
L 419.669683 200.945103 
L 420.804267 204.936798 
L 420.832936 201.504295 
L 419.529098 198.817835 
L 419.659107 203.3789 
L 420.199828 204.323662 
L 420.529928 203.344543 
L 419.05403 201.697151 
L 421.016188 200.321258 
L 419.854527 202.964367 
L 419.760794 201.264153 
L 419.618417 204.053058 
L 420.723258 202.784373 
L 420.449484 199.941854 
L 420.151384 202.675822 
L 420.722035 201.761775 
L 419.313172 201.218052 
L 420.520733 203.192937 
L 420.049028 200.00069 
L 419.44478 202.744546 
L 419.369806 200.810935 
L 420.613827 203.25541 
L 419.79183 198.880372 
L 419.737165 203.172779 
L 420.903389 204.779442 
L 421.014769 200.92375 
L 420.638719 205.265171 
L 420.298045 201.453834 
L 419.593977 202.313444 
L 419.799331 203.870004 
L 419.33239 203.64193 
L 420.852036 203.209302 
L 419.103538 205.878093 
L 420.796083 206.028527 
L 420.224733 200.488357 
L 419.399671 202.199177 
L 418.935258 205.573779 
L 420.447364 201.48401 
L 420.51592 203.710673 
L 419.957147 201.557844 
L 419.154877 201.348424 
L 420.441447 201.685446 
L 420.218499 201.198146 
L 419.278663 203.693681 
L 420.078119 199.663344 
L 419.649606 202.889833 
L 420.189721 202.492186 
L 420.351364 205.749894 
L 419.148624 200.269547 
L 419.560714 202.676118 
L 420.397712 203.129752 
L 419.646346 201.033056 
L 419.253396 201.549039 
L 419.467981 204.509448 
L 419.258236 203.969185 
L 420.126099 199.986026 
L 419.201485 204.069698 
L 419.97735 199.966517 
L 420.893835 200.229939 
L 420.04274 198.832649 
L 420.182767 201.151512 
L 420.701332 201.555067 
L 419.27968 202.949369 
L 419.735446 200.371874 
L 420.102692 202.607698 
L 419.435159 198.404354 
L 419.843465 198.674605 
L 420.029823 199.879027 
L 420.959572 202.434132 
L 419.508004 200.299521 
L 419.556667 204.407535 
L 420.570521 200.544718 
L 420.075279 203.096813 
L 420.464655 200.505125 
L 419.189739 202.562071 
L 419.514583 204.605425 
L 420.266539 199.192718 
L 420.767409 201.232953 
L 419.177944 200.782084 
L 419.403833 202.805219 
L 420.146095 201.785417 
L 420.370782 199.195172 
L 420.528261 202.037711 
L 418.996115 201.342151 
L 419.296298 199.079434 
L 420.778986 205.303186 
L 420.423083 201.866473 
L 419.596555 198.853022 
L 419.354922 200.974065 
L 420.853337 201.089647 
L 420.381609 201.518581 
L 420.027783 206.105429 
L 407.656796 212.199118 
L 369.590175 231.396612 
L 356.671341 236.088441 
L 356.980553 237.536352 
L 355.75316 236.576155 
L 356.211203 235.55077 
L 355.510685 235.741171 
L 356.021264 238.46818 
L 356.096336 236.765445 
L 355.22488 235.979849 
L 356.34406 237.174327 
L 356.274455 235.84414 
L 355.59278 236.938983 
L 354.887872 238.364747 
L 355.552299 237.54961 
L 355.168046 235.278354 
L 355.327993 237.347671 
L 356.607797 234.709805 
L 355.235213 237.633274 
L 356.860571 235.750717 
L 355.827019 235.292846 
L 357.280082 236.855418 
L 355.88795 236.061607 
L 355.21899 238.446011 
L 355.034109 236.721304 
L 356.223116 236.303032 
L 354.527999 236.431218 
L 355.727437 237.554987 
L 354.990964 238.255892 
L 354.723307 236.495859 
L 355.995997 238.014285 
L 354.99785 238.228619 
L 355.981931 235.527241 
L 355.24268 236.630129 
L 354.905946 238.331074 
L 355.442934 238.345363 
L 354.933529 236.11127 
L 355.433314 236.096469 
L 356.21876 236.804293 
L 355.826425 234.980025 
L 355.818589 237.867036 
L 356.970355 235.857199 
L 357.116039 235.064425 
L 356.335733 236.859117 
L 355.762642 234.993613 
L 356.11746 234.922119 
L 355.920331 237.754229 
L 354.763552 236.085151 
L 354.349108 238.042563 
L 354.868368 238.832904 
L 355.026797 238.740923 
L 354.862649 237.919129 
L 354.240231 236.455375 
L 354.186499 236.033194 
L 355.680635 238.927907 
L 354.302989 235.55504 
L 354.423365 235.845528 
L 355.990914 239.007502 
L 353.943875 238.425962 
L 354.989818 237.045854 
L 355.353712 237.665593 
L 354.894571 236.883089 
L 354.003781 238.686148 
L 356.101893 239.280723 
L 355.223743 236.642181 
L 355.74542 238.053367 
L 356.342983 235.881513 
L 355.752017 236.341397 
L 357.163405 238.171497 
L 357.4446 235.240914 
L 354.283349 237.604494 
L 356.220458 237.399762 
L 355.378712 236.111693 
L 353.959056 238.531205 
L 356.875354 236.651223 
L 354.489433 236.348424 
L 354.489433 236.348424 
L 356.778082 236.752828 
L 353.850919 236.293484 
L 356.028688 237.30595 
L 355.131454 236.007729 
L 355.483714 238.066954 
L 355.548468 237.592845 
L 356.774533 237.128443 
L 355.641123 237.197351 
L 356.39765 238.184861 
L 354.298964 236.029211 
L 354.52114 237.267446 
L 354.011527 237.374099 
L 354.37396 238.884597 
L 356.16674 236.826594 
L 355.305574 235.791719 
L 356.043925 238.458695 
L 356.192057 236.151753 
L 354.720252 237.951629 
L 354.711447 235.611633 
L 355.275527 237.823065 
L 354.642533 238.299716 
L 356.250758 235.776696 
L 356.523965 237.664019 
L 355.255139 236.668618 
L 355.864119 235.389859 
L 355.049976 235.418036 
L 355.49077 237.998087 
L 356.002507 237.521106 
L 356.485784 236.212837 
L 354.687742 237.904796 
L 355.646966 236.106381 
L 355.165957 236.50209 
L 356.312917 235.059841 
L 355.035193 238.025324 
L 353.91702 236.539951 
L 357.109148 235.912541 
L 354.993729 237.755211 
L 355.033949 236.461447 
L 354.663035 237.127172 
L 355.001407 235.7762 
L 354.613489 237.235469 
L 355.458081 236.908625 
L 356.301692 236.978465 
L 356.489311 235.99208 
L 354.565814 238.123809 
L 356.711687 236.878577 
L 355.951377 236.724295 
L 355.014012 237.612423 
L 355.83313 236.870738 
L 354.48243 236.947749 
L 356.115152 238.407643 
L 357.229741 234.869561 
L 355.810135 238.470263 
L 356.851008 238.439803 
L 355.525955 238.528457 
L 356.542337 238.51832 
L 354.307602 236.360817 
L 356.255743 237.759799 
L 357.153839 238.072334 
L 354.37564 235.98596 
L 355.275706 235.950992 
L 356.47337 237.025091 
L 355.009368 237.080691 
L 355.917228 237.029513 
L 355.533366 234.798153 
L 354.659057 236.325418 
L 355.393627 236.645618 
L 357.221645 234.84927 
L 355.870451 239.106992 
L 355.606295 238.00161 
L 355.037598 236.159943 
L 355.535778 235.31242 
L 355.226842 237.666004 
L 354.835814 237.535286 
L 355.378408 238.203123 
L 353.94798 238.687808 
L 355.698961 238.031416 
L 356.35493 234.569375 
L 354.824504 236.093119 
L 355.671586 237.110037 
L 354.452317 237.9144 
L 356.258324 237.219196 
L 356.761096 237.424548 
L 356.464913 235.273842 
L 354.246598 236.310437 
L 355.354883 235.952095 
L 355.774053 237.963154 
L 356.371666 238.038491 
L 355.599642 236.305449 
L 356.122596 236.173188 
L 354.629429 236.39936 
L 355.686002 237.335351 
L 356.909603 240.562917 
L 343.361531 245.09261 
L 304.899689 251.399658 
L 278.155214 254.00789 
L 264.910363 249.944798 
L 266.543387 252.953917 
L 266.131282 249.590084 
L 265.228448 252.529655 
L 266.007885 251.56666 
L 266.090165 251.211525 
L 267.50771 252.227435 
L 264.985242 252.762961 
L 265.785155 250.731015 
L 267.162856 249.2563 
L 265.268731 250.137688 
L 266.933054 252.247467 
L 265.036282 251.004999 
L 265.36133 249.548378 
L 264.713941 250.622167 
L 265.880764 251.93673 
L 265.076036 251.409724 
L 266.865971 249.94925 
L 264.486827 253.271325 
L 265.352224 252.448809 
L 266.445369 250.327025 
L 265.23457 249.426298 
L 266.107776 250.853652 
L 267.108106 249.462238 
L 266.31426 252.074238 
L 265.5878 248.953161 
L 265.463528 249.300772 
L 265.400888 250.18317 
L 265.80454 250.486987 
L 266.154448 250.25155 
L 265.457874 252.152744 
L 266.133887 251.302913 
L 260.304092 252.931414 
L 212.103036 257.831507 
L 189.328286 254.786127 
L 188.219818 253.863411 
L 187.11224 255.722603 
L 186.809798 255.500135 
L 187.945633 255.358465 
L 186.577178 253.953977 
L 187.738225 253.87382 
L 186.742156 253.236716 
L 187.550505 253.15453 
L 186.730051 252.480847 
L 187.599937 255.654649 
L 186.152015 255.033424 
L 187.124863 254.93379 
L 180.582752 253.376331 
L 169.252614 250.804129 
L 168.749042 247.259972 
L 167.693243 247.254681 
L 189.385024 242.966152 
L 224.54837 228.913998 
L 227.236662 231.389293 
L 228.768551 231.054629 
L 227.232239 230.35247 
L 228.733103 230.05519 
L 226.815271 229.43167 
L 226.815331 229.431687 
L 262.188221 225.742297 
L 318.999626 214.534017 
L 328.255403 214.199016 
L 331.414286 213.753476 
L 330.351926 213.061643 
L 331.561408 212.708351 
L 326.898148 213.697647 
L 303.659061 225.064342 
L 295.564424 227.589882 
L 294.271685 228.271389 
L 295.755369 229.017811 
L 295.546578 229.109278 
L 293.687344 230.84481 
L 293.614288 231.101168 
L 293.614288 231.101168 
" clip-path="url(#p176559620d)" style="fill: none; stroke: #2563eb; stroke-width: 1.5; stroke-linecap: square"/>
   </g>
   <g id="line2d_22">
    <path d="M 294.428846 230.772488 
L 409.820775 204.464662 
L 416.888801 214.521422 
L 416.888801 214.521422 
L 354.690357 232.896034 
L 262.900099 249.098814 
L 187.051132 255.278642 
L 169.107737 247.403385 
L 169.107737 247.403385 
L 226.956797 228.515242 
L 330.188993 210.007941 
L 409.80402 204.440822 
L 416.888801 214.521422 
L 416.888801 214.521422 
L 355.203578 232.805402 
L 262.740497 249.111821 
L 187.041316 255.274336 
L 169.107737 247.403385 
L 169.108785 247.40304 
L 227.657452 228.389556 
L 330.082699 210.015378 
L 330.082333 210.015593 
L 294.428085 230.772659 
L 294.428085 230.772659 
" clip-path="url(#p176559620d)" style="fill: none; stroke-dasharray: 5.55,2.4; stroke-dashoffset: 0; stroke: #dc2626; stroke-width: 1.5"/>
   </g>
   <g id="Path3DCollection_1">
    <defs>
     <path id="mdc977510df" d="M 0 -5.700877 
L -1.279927 -1.761668 
L -5.421856 -1.761668 
L -2.070965 0.672897 
L -3.350891 4.612106 
L -0 2.177541 
L 3.350891 4.612106 
L 2.070965 0.672897 
L 5.421856 -1.761668 
L 1.279927 -1.761668 
z
" style="stroke: #000000"/>
    </defs>
    <g clip-path="url(#p176559620d)">
     <use xlink:href="#mdc977510df" x="293.614288" y="231.101168" style="fill: #2563eb; stroke: #000000"/>
    </g>
   </g>
   <g id="Path3DCollection_2">
    <defs>
     <path id="me83cce6b27" d="M 0 3.872983 
C 1.027127 3.872983 2.012324 3.464901 2.738613 2.738613 
C 3.464901 2.012324 3.872983 1.027127 3.872983 0 
C 3.872983 -1.027127 3.464901 -2.012324 2.738613 -2.738613 
C 2.012324 -3.464901 1.027127 -3.872983 0 -3.872983 
C -1.027127 -3.872983 -2.012324 -3.464901 -2.738613 -2.738613 
C -3.464901 -2.012324 -3.872983 -1.027127 -3.872983 0 
C -3.872983 1.027127 -3.464901 2.012324 -2.738613 2.738613 
C -2.012324 3.464901 -1.027127 3.872983 0 3.872983 
z
" style="stroke: #000000"/>
    </defs>
    <g clip-path="url(#p176559620d)">
     <use xlink:href="#me83cce6b27" x="294.428085" y="230.772659" style="fill: #2563eb; stroke: #000000"/>
    </g>
   </g>
   <g id="Path3DCollection_3">
    <defs>
     <path id="m89389be215" d="M 0 -5.700877 
L -1.279927 -1.761668 
L -5.421856 -1.761668 
L -2.070965 0.672897 
L -3.350891 4.612106 
L -0 2.177541 
L 3.350891 4.612106 
L 2.070965 0.672897 
L 5.421856 -1.761668 
L 1.279927 -1.761668 
z
" style="stroke: #000000"/>
    </defs>
    <g clip-path="url(#p176559620d)">
     <use xlink:href="#m89389be215" x="294.428085" y="230.772659" style="fill: #dc2626; stroke: #000000"/>
    </g>
   </g>
   <g id="legend_1">
    <g id="patch_6">
     <path d="M 66.4 49.601562 
L 233.065625 49.601562 
Q 235.065625 49.601562 235.065625 47.601562 
L 235.065625 17.8 
Q 235.065625 15.8 233.065625 15.8 
L 66.4 15.8 
Q 64.4 15.8 64.4 17.8 
L 64.4 47.601562 
Q 64.4 49.601562 66.4 49.601562 
z
" style="fill: #ffffff; opacity: 0.8; stroke: #cccccc; stroke-linejoin: miter"/>
    </g>
    <g id="line2d_23">
     <path d="M 68.4 24.298437 
L 78.4 24.298437 
L 88.4 24.298437 
" style="fill: none; stroke: #2563eb; stroke-width: 1.5; stroke-linecap: square"/>
    </g>
    <g id="text_21">
     <!-- Protótipo (co-sim síncrona) -->
     <g transform="translate(96.4 27.798437) scale(0.1 -0.1)">
      <defs>
       <path id="DejaVuSans-33" d="M 1259 4147 
L 1259 2394 
L 2053 2394 
Q 2494 2394 2734 2622 
Q 2975 2850 2975 3272 
Q 2975 3691 2734 3919 
Q 2494 4147 2053 4147 
L 1259 4147 
z
M 628 4666 
L 2053 4666 
Q 2838 4666 3239 4311 
Q 3641 3956 3641 3272 
Q 3641 2581 3239 2228 
Q 2838 1875 2053 1875 
L 1259 1875 
L 1259 0 
L 628 0 
L 628 4666 
z
" transform="scale(0.015625)"/>
       <path id="DejaVuSans-55" d="M 2631 2963 
Q 2534 3019 2420 3045 
Q 2306 3072 2169 3072 
Q 1681 3072 1420 2755 
Q 1159 2438 1159 1844 
L 1159 0 
L 581 0 
L 581 3500 
L 1159 3500 
L 1159 2956 
Q 1341 3275 1631 3429 
Q 1922 3584 2338 3584 
Q 2397 3584 2469 3576 
Q 2541 3569 2628 3553 
L 2631 2963 
z
" transform="scale(0.015625)"/>
       <path id="DejaVuSans-52" d="M 1959 3097 
Q 1497 3097 1228 2736 
Q 959 2375 959 1747 
Q 959 1119 1226 758 
Q 1494 397 1959 397 
Q 2419 397 2687 759 
Q 2956 1122 2956 1747 
Q 2956 2369 2687 2733 
Q 2419 3097 1959 3097 
z
M 1959 3584 
Q 2709 3584 3137 3096 
Q 3566 2609 3566 1747 
Q 3566 888 3137 398 
Q 2709 -91 1959 -91 
Q 1206 -91 779 398 
Q 353 888 353 1747 
Q 353 2609 779 3096 
Q 1206 3584 1959 3584 
z
" transform="scale(0.015625)"/>
       <path id="DejaVuSans-57" d="M 1172 4494 
L 1172 3500 
L 2356 3500 
L 2356 3053 
L 1172 3053 
L 1172 1153 
Q 1172 725 1289 603 
Q 1406 481 1766 481 
L 2356 481 
L 2356 0 
L 1766 0 
Q 1100 0 847 248 
Q 594 497 594 1153 
L 594 3053 
L 172 3053 
L 172 3500 
L 594 3500 
L 594 4494 
L 1172 4494 
z
" transform="scale(0.015625)"/>
       <path id="DejaVuSans-b5" d="M 1959 3097 
Q 1497 3097 1228 2736 
Q 959 2375 959 1747 
Q 959 1119 1226 758 
Q 1494 397 1959 397 
Q 2419 397 2687 759 
Q 2956 1122 2956 1747 
Q 2956 2369 2687 2733 
Q 2419 3097 1959 3097 
z
M 1959 3584 
Q 2709 3584 3137 3096 
Q 3566 2609 3566 1747 
Q 3566 888 3137 398 
Q 2709 -91 1959 -91 
Q 1206 -91 779 398 
Q 353 888 353 1747 
Q 353 2609 779 3096 
Q 1206 3584 1959 3584 
z
M 2393 5119 
L 3015 5119 
L 1997 3944 
L 1518 3944 
L 2393 5119 
z
" transform="scale(0.015625)"/>
       <path id="DejaVuSans-4c" d="M 603 3500 
L 1178 3500 
L 1178 0 
L 603 0 
L 603 3500 
z
M 603 4863 
L 1178 4863 
L 1178 4134 
L 603 4134 
L 603 4863 
z
" transform="scale(0.015625)"/>
       <path id="DejaVuSans-53" d="M 1159 525 
L 1159 -1331 
L 581 -1331 
L 581 3500 
L 1159 3500 
L 1159 2969 
Q 1341 3281 1617 3432 
Q 1894 3584 2278 3584 
Q 2916 3584 3314 3078 
Q 3713 2572 3713 1747 
Q 3713 922 3314 415 
Q 2916 -91 2278 -91 
Q 1894 -91 1617 61 
Q 1341 213 1159 525 
z
M 3116 1747 
Q 3116 2381 2855 2742 
Q 2594 3103 2138 3103 
Q 1681 3103 1420 2742 
Q 1159 2381 1159 1747 
Q 1159 1113 1420 752 
Q 1681 391 2138 391 
Q 2594 391 2855 752 
Q 3116 1113 3116 1747 
z
" transform="scale(0.015625)"/>
       <path id="DejaVuSans-46" d="M 3122 3366 
L 3122 2828 
Q 2878 2963 2633 3030 
Q 2388 3097 2138 3097 
Q 1578 3097 1268 2742 
Q 959 2388 959 1747 
Q 959 1106 1268 751 
Q 1578 397 2138 397 
Q 2388 397 2633 464 
Q 2878 531 3122 666 
L 3122 134 
Q 2881 22 2623 -34 
Q 2366 -91 2075 -91 
Q 1284 -91 818 406 
Q 353 903 353 1747 
Q 353 2603 823 3093 
Q 1294 3584 2113 3584 
Q 2378 3584 2631 3529 
Q 2884 3475 3122 3366 
z
" transform="scale(0.015625)"/>
       <path id="DejaVuSans-10" d="M 313 2009 
L 1997 2009 
L 1997 1497 
L 313 1497 
L 313 2009 
z
" transform="scale(0.015625)"/>
       <path id="DejaVuSans-56" d="M 2834 3397 
L 2834 2853 
Q 2591 2978 2328 3040 
Q 2066 3103 1784 3103 
Q 1356 3103 1142 2972 
Q 928 2841 928 2578 
Q 928 2378 1081 2264 
Q 1234 2150 1697 2047 
L 1894 2003 
Q 2506 1872 2764 1633 
Q 3022 1394 3022 966 
Q 3022 478 2636 193 
Q 2250 -91 1575 -91 
Q 1294 -91 989 -36 
Q 684 19 347 128 
L 347 722 
Q 666 556 975 473 
Q 1284 391 1588 391 
Q 1994 391 2212 530 
Q 2431 669 2431 922 
Q 2431 1156 2273 1281 
Q 2116 1406 1581 1522 
L 1381 1569 
Q 847 1681 609 1914 
Q 372 2147 372 2553 
Q 372 3047 722 3315 
Q 1072 3584 1716 3584 
Q 2034 3584 2315 3537 
Q 2597 3491 2834 3397 
z
" transform="scale(0.015625)"/>
       <path id="DejaVuSans-50" d="M 3328 2828 
Q 3544 3216 3844 3400 
Q 4144 3584 4550 3584 
Q 5097 3584 5394 3201 
Q 5691 2819 5691 2113 
L 5691 0 
L 5113 0 
L 5113 2094 
Q 5113 2597 4934 2840 
Q 4756 3084 4391 3084 
Q 3944 3084 3684 2787 
Q 3425 2491 3425 1978 
L 3425 0 
L 2847 0 
L 2847 2094 
Q 2847 2600 2669 2842 
Q 2491 3084 2119 3084 
Q 1678 3084 1418 2786 
Q 1159 2488 1159 1978 
L 1159 0 
L 581 0 
L 581 3500 
L 1159 3500 
L 1159 2956 
Q 1356 3278 1631 3431 
Q 1906 3584 2284 3584 
Q 2666 3584 2933 3390 
Q 3200 3197 3328 2828 
z
" transform="scale(0.015625)"/>
       <path id="DejaVuSans-af" d="M 1325 5119 
L 1947 5119 
L 929 3944 
L 450 3944 
L 1325 5119 
z
M 603 3500 
L 1178 3500 
L 1178 0 
L 603 0 
L 603 3500 
z
M 891 3584 
L 891 3584 
z
" transform="scale(0.015625)"/>
       <path id="DejaVuSans-51" d="M 3513 2113 
L 3513 0 
L 2938 0 
L 2938 2094 
Q 2938 2591 2744 2837 
Q 2550 3084 2163 3084 
Q 1697 3084 1428 2787 
Q 1159 2491 1159 1978 
L 1159 0 
L 581 0 
L 581 3500 
L 1159 3500 
L 1159 2956 
Q 1366 3272 1645 3428 
Q 1925 3584 2291 3584 
Q 2894 3584 3203 3211 
Q 3513 2838 3513 2113 
z
" transform="scale(0.015625)"/>
       <path id="DejaVuSans-44" d="M 2194 1759 
Q 1497 1759 1228 1600 
Q 959 1441 959 1056 
Q 959 750 1161 570 
Q 1363 391 1709 391 
Q 2188 391 2477 730 
Q 2766 1069 2766 1631 
L 2766 1759 
L 2194 1759 
z
M 3341 1997 
L 3341 0 
L 2766 0 
L 2766 531 
Q 2569 213 2275 61 
Q 1981 -91 1556 -91 
Q 1019 -91 701 211 
Q 384 513 384 1019 
Q 384 1609 779 1909 
Q 1175 2209 1959 2209 
L 2766 2209 
L 2766 2266 
Q 2766 2663 2505 2880 
Q 2244 3097 1772 3097 
Q 1472 3097 1187 3025 
Q 903 2953 641 2809 
L 641 3341 
Q 956 3463 1253 3523 
Q 1550 3584 1831 3584 
Q 2591 3584 2966 3190 
Q 3341 2797 3341 1997 
z
" transform="scale(0.015625)"/>
      </defs>
      <use xlink:href="#DejaVuSans-33"/>
      <use xlink:href="#DejaVuSans-55" transform="translate(58.546875 0)"/>
      <use xlink:href="#DejaVuSans-52" transform="translate(97.453125 0)"/>
      <use xlink:href="#DejaVuSans-57" transform="translate(158.640625 0)"/>
      <use xlink:href="#DejaVuSans-b5" transform="translate(197.84375 0)"/>
      <use xlink:href="#DejaVuSans-57" transform="translate(259.03125 0)"/>
      <use xlink:href="#DejaVuSans-4c" transform="translate(298.234375 0)"/>
      <use xlink:href="#DejaVuSans-53" transform="translate(326.015625 0)"/>
      <use xlink:href="#DejaVuSans-52" transform="translate(389.5 0)"/>
      <use xlink:href="#DejaVuSans-3" transform="translate(450.6875 0)"/>
      <use xlink:href="#DejaVuSans-b" transform="translate(482.46875 0)"/>
      <use xlink:href="#DejaVuSans-46" transform="translate(521.484375 0)"/>
      <use xlink:href="#DejaVuSans-52" transform="translate(576.46875 0)"/>
      <use xlink:href="#DejaVuSans-10" transform="translate(639.515625 0)"/>
      <use xlink:href="#DejaVuSans-56" transform="translate(675.59375 0)"/>
      <use xlink:href="#DejaVuSans-4c" transform="translate(727.6875 0)"/>
      <use xlink:href="#DejaVuSans-50" transform="translate(755.46875 0)"/>
      <use xlink:href="#DejaVuSans-3" transform="translate(852.875 0)"/>
      <use xlink:href="#DejaVuSans-56" transform="translate(884.65625 0)"/>
      <use xlink:href="#DejaVuSans-af" transform="translate(936.75 0)"/>
      <use xlink:href="#DejaVuSans-51" transform="translate(964.53125 0)"/>
      <use xlink:href="#DejaVuSans-46" transform="translate(1027.90625 0)"/>
      <use xlink:href="#DejaVuSans-55" transform="translate(1082.890625 0)"/>
      <use xlink:href="#DejaVuSans-52" transform="translate(1121.796875 0)"/>
      <use xlink:href="#DejaVuSans-51" transform="translate(1182.984375 0)"/>
      <use xlink:href="#DejaVuSans-44" transform="translate(1246.359375 0)"/>
      <use xlink:href="#DejaVuSans-c" transform="translate(1307.640625 0)"/>
     </g>
    </g>
    <g id="line2d_24">
     <path d="M 68.4 39.699219 
L 78.4 39.699219 
L 88.4 39.699219 
" style="fill: none; stroke-dasharray: 5.55,2.4; stroke-dashoffset: 0; stroke: #dc2626; stroke-width: 1.5"/>
    </g>
    <g id="text_22">
     <!-- URSim (referência) -->
     <g transform="translate(96.4 43.199219) scale(0.1 -0.1)">
      <defs>
       <path id="DejaVuSans-38" d="M 556 4666 
L 1191 4666 
L 1191 1831 
Q 1191 1081 1462 751 
Q 1734 422 2344 422 
Q 2950 422 3222 751 
Q 3494 1081 3494 1831 
L 3494 4666 
L 4128 4666 
L 4128 1753 
Q 4128 841 3676 375 
Q 3225 -91 2344 -91 
Q 1459 -91 1007 375 
Q 556 841 556 1753 
L 556 4666 
z
" transform="scale(0.015625)"/>
       <path id="DejaVuSans-35" d="M 2841 2188 
Q 3044 2119 3236 1894 
Q 3428 1669 3622 1275 
L 4263 0 
L 3584 0 
L 2988 1197 
Q 2756 1666 2539 1819 
Q 2322 1972 1947 1972 
L 1259 1972 
L 1259 0 
L 628 0 
L 628 4666 
L 2053 4666 
Q 2853 4666 3247 4331 
Q 3641 3997 3641 3322 
Q 3641 2881 3436 2590 
Q 3231 2300 2841 2188 
z
M 1259 4147 
L 1259 2491 
L 2053 2491 
Q 2509 2491 2742 2702 
Q 2975 2913 2975 3322 
Q 2975 3731 2742 3939 
Q 2509 4147 2053 4147 
L 1259 4147 
z
" transform="scale(0.015625)"/>
       <path id="DejaVuSans-36" d="M 3425 4513 
L 3425 3897 
Q 3066 4069 2747 4153 
Q 2428 4238 2131 4238 
Q 1616 4238 1336 4038 
Q 1056 3838 1056 3469 
Q 1056 3159 1242 3001 
Q 1428 2844 1947 2747 
L 2328 2669 
Q 3034 2534 3370 2195 
Q 3706 1856 3706 1288 
Q 3706 609 3251 259 
Q 2797 -91 1919 -91 
Q 1588 -91 1214 -16 
Q 841 59 441 206 
L 441 856 
Q 825 641 1194 531 
Q 1563 422 1919 422 
Q 2459 422 2753 634 
Q 3047 847 3047 1241 
Q 3047 1584 2836 1778 
Q 2625 1972 2144 2069 
L 1759 2144 
Q 1053 2284 737 2584 
Q 422 2884 422 3419 
Q 422 4038 858 4394 
Q 1294 4750 2059 4750 
Q 2388 4750 2728 4690 
Q 3069 4631 3425 4513 
z
" transform="scale(0.015625)"/>
       <path id="DejaVuSans-48" d="M 3597 1894 
L 3597 1613 
L 953 1613 
Q 991 1019 1311 708 
Q 1631 397 2203 397 
Q 2534 397 2845 478 
Q 3156 559 3463 722 
L 3463 178 
Q 3153 47 2828 -22 
Q 2503 -91 2169 -91 
Q 1331 -91 842 396 
Q 353 884 353 1716 
Q 353 2575 817 3079 
Q 1281 3584 2069 3584 
Q 2775 3584 3186 3129 
Q 3597 2675 3597 1894 
z
M 3022 2063 
Q 3016 2534 2758 2815 
Q 2500 3097 2075 3097 
Q 1594 3097 1305 2825 
Q 1016 2553 972 2059 
L 3022 2063 
z
" transform="scale(0.015625)"/>
       <path id="DejaVuSans-49" d="M 2375 4863 
L 2375 4384 
L 1825 4384 
Q 1516 4384 1395 4259 
Q 1275 4134 1275 3809 
L 1275 3500 
L 2222 3500 
L 2222 3053 
L 1275 3053 
L 1275 0 
L 697 0 
L 697 3053 
L 147 3053 
L 147 3500 
L 697 3500 
L 697 3744 
Q 697 4328 969 4595 
Q 1241 4863 1831 4863 
L 2375 4863 
z
" transform="scale(0.015625)"/>
       <path id="DejaVuSans-ac" d="M 3597 1894 
L 3597 1613 
L 953 1613 
Q 991 1019 1311 708 
Q 1631 397 2203 397 
Q 2534 397 2845 478 
Q 3156 559 3463 722 
L 3463 178 
Q 3153 47 2828 -22 
Q 2503 -91 2169 -91 
Q 1331 -91 842 396 
Q 353 884 353 1716 
Q 353 2575 817 3079 
Q 1281 3584 2069 3584 
Q 2775 3584 3186 3129 
Q 3597 2675 3597 1894 
z
M 3022 2063 
Q 3016 2534 2758 2815 
Q 2500 3097 2075 3097 
Q 1594 3097 1305 2825 
Q 1016 2553 972 2059 
L 3022 2063 
z
M 1803 5119 
L 2265 5119 
L 3031 3944 
L 2597 3944 
L 2034 4709 
L 1472 3944 
L 1037 3944 
L 1803 5119 
z
" transform="scale(0.015625)"/>
      </defs>
      <use xlink:href="#DejaVuSans-38"/>
      <use xlink:href="#DejaVuSans-35" transform="translate(73.1875 0)"/>
      <use xlink:href="#DejaVuSans-36" transform="translate(142.671875 0)"/>
      <use xlink:href="#DejaVuSans-4c" transform="translate(206.15625 0)"/>
      <use xlink:href="#DejaVuSans-50" transform="translate(233.9375 0)"/>
      <use xlink:href="#DejaVuSans-3" transform="translate(331.34375 0)"/>
      <use xlink:href="#DejaVuSans-b" transform="translate(363.125 0)"/>
      <use xlink:href="#DejaVuSans-55" transform="translate(402.140625 0)"/>
      <use xlink:href="#DejaVuSans-48" transform="translate(441.046875 0)"/>
      <use xlink:href="#DejaVuSans-49" transform="translate(502.578125 0)"/>
      <use xlink:href="#DejaVuSans-48" transform="translate(537.78125 0)"/>
      <use xlink:href="#DejaVuSans-55" transform="translate(599.3125 0)"/>
      <use xlink:href="#DejaVuSans-ac" transform="translate(638.21875 0)"/>
      <use xlink:href="#DejaVuSans-51" transform="translate(699.75 0)"/>
      <use xlink:href="#DejaVuSans-46" transform="translate(763.125 0)"/>
      <use xlink:href="#DejaVuSans-4c" transform="translate(818.109375 0)"/>
      <use xlink:href="#DejaVuSans-44" transform="translate(845.890625 0)"/>
      <use xlink:href="#DejaVuSans-c" transform="translate(907.171875 0)"/>
     </g>
    </g>
   </g>
   <g id="Path3DCollection_4">
    <defs>
     <path id="mf9b1bcc1ca" d="M 0 3.872983 
C 1.027127 3.872983 2.012324 3.464901 2.738613 2.738613 
C 3.464901 2.012324 3.872983 1.027127 3.872983 0 
C 3.872983 -1.027127 3.464901 -2.012324 2.738613 -2.738613 
C 2.012324 -3.464901 1.027127 -3.872983 0 -3.872983 
C -1.027127 -3.872983 -2.012324 -3.464901 -2.738613 -2.738613 
C -3.464901 -2.012324 -3.872983 -1.027127 -3.872983 0 
C -3.872983 1.027127 -3.464901 2.012324 -2.738613 2.738613 
C -2.012324 3.464901 -1.027127 3.872983 0 3.872983 
z
" style="stroke: #000000"/>
    </defs>
    <g clip-path="url(#p176559620d)">
     <use xlink:href="#mf9b1bcc1ca" x="294.428846" y="230.772488" style="fill: #dc2626; stroke: #000000"/>
    </g>
   </g>
  </g>
  <g id="text_23">
   <!-- Espaço articular J1-J3 (○ início, ★ fim). Sobreposição Cartesiana não é possível — frames de referência distintos (Protótipo proxy UR10e vs URSim real); comparação angular. Trajetória circular_multijoint (seq. 1–17). Protótipo = co-sim síncrona (lockstep, Kd=0,1). -->
   <g transform="translate(-172.679297 498.96) scale(0.07 -0.07)">
    <defs>
     <path id="DejaVuSans-28" d="M 628 4666 
L 3578 4666 
L 3578 4134 
L 1259 4134 
L 1259 2753 
L 3481 2753 
L 3481 2222 
L 1259 2222 
L 1259 531 
L 3634 531 
L 3634 0 
L 628 0 
L 628 4666 
z
" transform="scale(0.015625)"/>
     <path id="DejaVuSans-a9" d="M 3122 3366 
L 3122 2828 
Q 2878 2963 2633 3030 
Q 2388 3097 2138 3097 
Q 1578 3097 1268 2742 
Q 959 2388 959 1747 
Q 959 1106 1268 751 
Q 1578 397 2138 397 
Q 2388 397 2633 464 
Q 2878 531 3122 666 
L 3122 134 
Q 2881 22 2623 -34 
Q 2366 -91 2075 -91 
Q 1284 -91 818 406 
Q 353 903 353 1747 
Q 353 2603 823 3093 
Q 1294 3584 2113 3584 
Q 2378 3584 2631 3529 
Q 2884 3475 3122 3366 
z
M 2310 0 
Q 2481 -194 2565 -358 
Q 2650 -522 2650 -672 
Q 2650 -950 2462 -1092 
Q 2275 -1234 1906 -1234 
Q 1763 -1234 1627 -1215 
Q 1491 -1197 1356 -1159 
L 1356 -750 
Q 1463 -803 1578 -826 
Q 1694 -850 1841 -850 
Q 2025 -850 2119 -775 
Q 2213 -700 2213 -556 
Q 2213 -463 2145 -327 
Q 2078 -191 1938 0 
L 2310 0 
z
" transform="scale(0.015625)"/>
     <path id="DejaVuSans-58" d="M 544 1381 
L 544 3500 
L 1119 3500 
L 1119 1403 
Q 1119 906 1312 657 
Q 1506 409 1894 409 
Q 2359 409 2629 706 
Q 2900 1003 2900 1516 
L 2900 3500 
L 3475 3500 
L 3475 0 
L 2900 0 
L 2900 538 
Q 2691 219 2414 64 
Q 2138 -91 1772 -91 
Q 1169 -91 856 284 
Q 544 659 544 1381 
z
M 1991 3584 
L 1991 3584 
z
" transform="scale(0.015625)"/>
     <path id="DejaVuSans-4f" d="M 603 4863 
L 1178 4863 
L 1178 0 
L 603 0 
L 603 4863 
z
" transform="scale(0.015625)"/>
     <path id="DejaVuSans-ea2" d="M 1756 3459 
Q 716 2859 716 1662 
Q 716 466 1756 -134 
Q 2272 -434 2791 -434 
Q 3313 -434 3828 -134 
Q 4869 466 4869 1662 
Q 4869 2859 3828 3459 
Q 3313 3759 2791 3759 
Q 2272 3759 1756 3459 
z
M 1572 -450 
Q 350 256 350 1662 
Q 350 3069 1572 3775 
Q 2181 4128 2791 4128 
Q 3403 4128 4013 3775 
Q 5234 3069 5234 1662 
Q 5234 256 4013 -450 
Q 3403 -803 2791 -803 
Q 2181 -803 1572 -450 
z
" transform="scale(0.015625)"/>
     <path id="DejaVuSans-f" d="M 750 794 
L 1409 794 
L 1409 256 
L 897 -744 
L 494 -744 
L 750 256 
L 750 794 
z
" transform="scale(0.015625)"/>
     <path id="DejaVuSans-edc" d="M 416 2850 
L 2288 2850 
L 2869 4628 
L 3453 2850 
L 5322 2850 
L 3809 1747 
L 4391 -28 
L 2869 1072 
L 1350 -28 
L 1928 1747 
L 416 2850 
z
" transform="scale(0.015625)"/>
     <path id="DejaVuSans-13af" d="M 3431 3500 
L 3431 0 
L 2853 0 
L 2853 3053 
L 1275 3053 
L 1275 0 
L 697 0 
L 697 3053 
L 147 3053 
L 147 3500 
L 697 3500 
L 697 3744 
Q 697 4316 967 4589 
Q 1238 4863 1797 4863 
L 2375 4863 
L 2375 4384 
L 1825 4384 
Q 1516 4384 1395 4259 
Q 1275 4134 1275 3809 
L 1275 3500 
L 3431 3500 
z
M 2853 4856 
L 3431 4856 
L 3431 4128 
L 2853 4128 
L 2853 4856 
z
" transform="scale(0.015625)"/>
     <path id="DejaVuSans-11" d="M 684 794 
L 1344 794 
L 1344 0 
L 684 0 
L 684 794 
z
" transform="scale(0.015625)"/>
     <path id="DejaVuSans-45" d="M 3116 1747 
Q 3116 2381 2855 2742 
Q 2594 3103 2138 3103 
Q 1681 3103 1420 2742 
Q 1159 2381 1159 1747 
Q 1159 1113 1420 752 
Q 1681 391 2138 391 
Q 2594 391 2855 752 
Q 3116 1113 3116 1747 
z
M 1159 2969 
Q 1341 3281 1617 3432 
Q 1894 3584 2278 3584 
Q 2916 3584 3314 3078 
Q 3713 2572 3713 1747 
Q 3713 922 3314 415 
Q 2916 -91 2278 -91 
Q 1894 -91 1617 61 
Q 1341 213 1159 525 
L 1159 0 
L 581 0 
L 581 4863 
L 1159 4863 
L 1159 2969 
z
" transform="scale(0.015625)"/>
     <path id="DejaVuSans-a5" d="M 2194 1759 
Q 1497 1759 1228 1600 
Q 959 1441 959 1056 
Q 959 750 1161 570 
Q 1363 391 1709 391 
Q 2188 391 2477 730 
Q 2766 1069 2766 1631 
L 2766 1759 
L 2194 1759 
z
M 3341 1997 
L 3341 0 
L 2766 0 
L 2766 531 
Q 2569 213 2275 61 
Q 1981 -91 1556 -91 
Q 1019 -91 701 211 
Q 384 513 384 1019 
Q 384 1609 779 1909 
Q 1175 2209 1959 2209 
L 2766 2209 
L 2766 2266 
Q 2766 2663 2505 2880 
Q 2244 3097 1772 3097 
Q 1472 3097 1187 3025 
Q 903 2953 641 2809 
L 641 3341 
Q 956 3463 1253 3523 
Q 1550 3584 1831 3584 
Q 2591 3584 2966 3190 
Q 3341 2797 3341 1997 
z
M 1844 4281 
L 1665 4453 
Q 1597 4516 1545 4545 
Q 1494 4575 1453 4575 
Q 1334 4575 1278 4461 
Q 1222 4347 1215 4091 
L 825 4091 
Q 831 4513 990 4742 
Q 1150 4972 1434 4972 
Q 1553 4972 1653 4928 
Q 1753 4884 1869 4781 
L 2047 4609 
Q 2115 4547 2167 4517 
Q 2219 4488 2259 4488 
Q 2378 4488 2434 4602 
Q 2490 4716 2497 4972 
L 2887 4972 
Q 2881 4550 2721 4320 
Q 2562 4091 2278 4091 
Q 2159 4091 2059 4134 
Q 1959 4178 1844 4281 
z
" transform="scale(0.015625)"/>
     <path id="DejaVuSans-26" d="M 4122 4306 
L 4122 3641 
Q 3803 3938 3442 4084 
Q 3081 4231 2675 4231 
Q 1875 4231 1450 3742 
Q 1025 3253 1025 2328 
Q 1025 1406 1450 917 
Q 1875 428 2675 428 
Q 3081 428 3442 575 
Q 3803 722 4122 1019 
L 4122 359 
Q 3791 134 3420 21 
Q 3050 -91 2638 -91 
Q 1578 -91 968 557 
Q 359 1206 359 2328 
Q 359 3453 968 4101 
Q 1578 4750 2638 4750 
Q 3056 4750 3426 4639 
Q 3797 4528 4122 4306 
z
" transform="scale(0.015625)"/>
     <path id="DejaVuSans-ab" d="M 3597 1894 
L 3597 1613 
L 953 1613 
Q 991 1019 1311 708 
Q 1631 397 2203 397 
Q 2534 397 2845 478 
Q 3156 559 3463 722 
L 3463 178 
Q 3153 47 2828 -22 
Q 2503 -91 2169 -91 
Q 1331 -91 842 396 
Q 353 884 353 1716 
Q 353 2575 817 3079 
Q 1281 3584 2069 3584 
Q 2775 3584 3186 3129 
Q 3597 2675 3597 1894 
z
M 3022 2063 
Q 3016 2534 2758 2815 
Q 2500 3097 2075 3097 
Q 1594 3097 1305 2825 
Q 1016 2553 972 2059 
L 3022 2063 
z
M 2468 5119 
L 3090 5119 
L 2072 3944 
L 1593 3944 
L 2468 5119 
z
" transform="scale(0.015625)"/>
     <path id="DejaVuSans-59" d="M 191 3500 
L 800 3500 
L 1894 563 
L 2988 3500 
L 3597 3500 
L 2284 0 
L 1503 0 
L 191 3500 
z
" transform="scale(0.015625)"/>
     <path id="DejaVuSans-af6" d="M 313 1978 
L 6088 1978 
L 6088 1528 
L 313 1528 
L 313 1978 
z
" transform="scale(0.015625)"/>
     <path id="DejaVuSans-47" d="M 2906 2969 
L 2906 4863 
L 3481 4863 
L 3481 0 
L 2906 0 
L 2906 525 
Q 2725 213 2448 61 
Q 2172 -91 1784 -91 
Q 1150 -91 751 415 
Q 353 922 353 1747 
Q 353 2572 751 3078 
Q 1150 3584 1784 3584 
Q 2172 3584 2448 3432 
Q 2725 3281 2906 2969 
z
M 947 1747 
Q 947 1113 1208 752 
Q 1469 391 1925 391 
Q 2381 391 2643 752 
Q 2906 1113 2906 1747 
Q 2906 2381 2643 2742 
Q 2381 3103 1925 3103 
Q 1469 3103 1208 2742 
Q 947 2381 947 1747 
z
" transform="scale(0.015625)"/>
     <path id="DejaVuSans-5b" d="M 3513 3500 
L 2247 1797 
L 3578 0 
L 2900 0 
L 1881 1375 
L 863 0 
L 184 0 
L 1544 1831 
L 300 3500 
L 978 3500 
L 1906 2253 
L 2834 3500 
L 3513 3500 
z
" transform="scale(0.015625)"/>
     <path id="DejaVuSans-5c" d="M 2059 -325 
Q 1816 -950 1584 -1140 
Q 1353 -1331 966 -1331 
L 506 -1331 
L 506 -850 
L 844 -850 
Q 1081 -850 1212 -737 
Q 1344 -625 1503 -206 
L 1606 56 
L 191 3500 
L 800 3500 
L 1894 763 
L 2988 3500 
L 3597 3500 
L 2059 -325 
z
" transform="scale(0.015625)"/>
     <path id="DejaVuSans-1e" d="M 750 3309 
L 1409 3309 
L 1409 2516 
L 750 2516 
L 750 3309 
z
M 750 794 
L 1409 794 
L 1409 256 
L 897 -744 
L 494 -744 
L 750 256 
L 750 794 
z
" transform="scale(0.015625)"/>
     <path id="DejaVuSans-4a" d="M 2906 1791 
Q 2906 2416 2648 2759 
Q 2391 3103 1925 3103 
Q 1463 3103 1205 2759 
Q 947 2416 947 1791 
Q 947 1169 1205 825 
Q 1463 481 1925 481 
Q 2391 481 2648 825 
Q 2906 1169 2906 1791 
z
M 3481 434 
Q 3481 -459 3084 -895 
Q 2688 -1331 1869 -1331 
Q 1566 -1331 1297 -1286 
Q 1028 -1241 775 -1147 
L 775 -588 
Q 1028 -725 1275 -790 
Q 1522 -856 1778 -856 
Q 2344 -856 2625 -561 
Q 2906 -266 2906 331 
L 2906 616 
Q 2728 306 2450 153 
Q 2172 0 1784 0 
Q 1141 0 747 490 
Q 353 981 353 1791 
Q 353 2603 747 3093 
Q 1141 3584 1784 3584 
Q 2172 3584 2450 3431 
Q 2728 3278 2906 2969 
L 2906 3500 
L 3481 3500 
L 3481 434 
z
" transform="scale(0.015625)"/>
     <path id="DejaVuSans-37" d="M -19 4666 
L 3928 4666 
L 3928 4134 
L 2272 4134 
L 2272 0 
L 1638 0 
L 1638 4134 
L -19 4134 
L -19 4666 
z
" transform="scale(0.015625)"/>
     <path id="DejaVuSans-4d" d="M 603 3500 
L 1178 3500 
L 1178 -63 
Q 1178 -731 923 -1031 
Q 669 -1331 103 -1331 
L -116 -1331 
L -116 -844 
L 38 -844 
Q 366 -844 484 -692 
Q 603 -541 603 -63 
L 603 3500 
z
M 603 4863 
L 1178 4863 
L 1178 4134 
L 603 4134 
L 603 4863 
z
" transform="scale(0.015625)"/>
     <path id="DejaVuSans-42" d="M 3263 -1063 
L 3263 -1509 
L -63 -1509 
L -63 -1063 
L 3263 -1063 
z
" transform="scale(0.015625)"/>
     <path id="DejaVuSans-54" d="M 947 1747 
Q 947 1113 1208 752 
Q 1469 391 1925 391 
Q 2381 391 2643 752 
Q 2906 1113 2906 1747 
Q 2906 2381 2643 2742 
Q 2381 3103 1925 3103 
Q 1469 3103 1208 2742 
Q 947 2381 947 1747 
z
M 2906 525 
Q 2725 213 2448 61 
Q 2172 -91 1784 -91 
Q 1150 -91 751 415 
Q 353 922 353 1747 
Q 353 2572 751 3078 
Q 1150 3584 1784 3584 
Q 2172 3584 2448 3432 
Q 2725 3281 2906 2969 
L 2906 3500 
L 3481 3500 
L 3481 -1331 
L 2906 -1331 
L 2906 525 
z
" transform="scale(0.015625)"/>
     <path id="DejaVuSans-af5" d="M 313 1978 
L 2888 1978 
L 2888 1528 
L 313 1528 
L 313 1978 
z
" transform="scale(0.015625)"/>
     <path id="DejaVuSans-1a" d="M 525 4666 
L 3525 4666 
L 3525 4397 
L 1831 0 
L 1172 0 
L 2766 4134 
L 525 4134 
L 525 4666 
z
" transform="scale(0.015625)"/>
     <path id="DejaVuSans-20" d="M 678 2906 
L 4684 2906 
L 4684 2381 
L 678 2381 
L 678 2906 
z
M 678 1631 
L 4684 1631 
L 4684 1100 
L 678 1100 
L 678 1631 
z
" transform="scale(0.015625)"/>
     <path id="DejaVuSans-4e" d="M 581 4863 
L 1159 4863 
L 1159 1991 
L 2875 3500 
L 3609 3500 
L 1753 1863 
L 3688 0 
L 2938 0 
L 1159 1709 
L 1159 0 
L 581 0 
L 581 4863 
z
" transform="scale(0.015625)"/>
     <path id="DejaVuSans-2e" d="M 628 4666 
L 1259 4666 
L 1259 2694 
L 3353 4666 
L 4166 4666 
L 1850 2491 
L 4331 0 
L 3500 0 
L 1259 2247 
L 1259 0 
L 628 0 
L 628 4666 
z
" transform="scale(0.015625)"/>
    </defs>
    <use xlink:href="#DejaVuSans-28"/>
    <use xlink:href="#DejaVuSans-56" transform="translate(63.1875 0)"/>
    <use xlink:href="#DejaVuSans-53" transform="translate(115.28125 0)"/>
    <use xlink:href="#DejaVuSans-44" transform="translate(178.765625 0)"/>
    <use xlink:href="#DejaVuSans-a9" transform="translate(240.046875 0)"/>
    <use xlink:href="#DejaVuSans-52" transform="translate(295.03125 0)"/>
    <use xlink:href="#DejaVuSans-3" transform="translate(356.21875 0)"/>
    <use xlink:href="#DejaVuSans-44" transform="translate(388 0)"/>
    <use xlink:href="#DejaVuSans-55" transform="translate(449.28125 0)"/>
    <use xlink:href="#DejaVuSans-57" transform="translate(490.390625 0)"/>
    <use xlink:href="#DejaVuSans-4c" transform="translate(529.59375 0)"/>
    <use xlink:href="#DejaVuSans-46" transform="translate(557.375 0)"/>
    <use xlink:href="#DejaVuSans-58" transform="translate(612.359375 0)"/>
    <use xlink:href="#DejaVuSans-4f" transform="translate(675.734375 0)"/>
    <use xlink:href="#DejaVuSans-44" transform="translate(703.515625 0)"/>
    <use xlink:href="#DejaVuSans-55" transform="translate(764.796875 0)"/>
    <use xlink:href="#DejaVuSans-3" transform="translate(805.90625 0)"/>
    <use xlink:href="#DejaVuSans-2d" transform="translate(837.6875 0)"/>
    <use xlink:href="#DejaVuSans-14" transform="translate(867.1875 0)"/>
    <use xlink:href="#DejaVuSans-10" transform="translate(930.8125 0)"/>
    <use xlink:href="#DejaVuSans-2d" transform="translate(972.453125 0)"/>
    <use xlink:href="#DejaVuSans-16" transform="translate(1001.953125 0)"/>
    <use xlink:href="#DejaVuSans-3" transform="translate(1065.578125 0)"/>
    <use xlink:href="#DejaVuSans-b" transform="translate(1097.359375 0)"/>
    <use xlink:href="#DejaVuSans-ea2" transform="translate(1136.375 0)"/>
    <use xlink:href="#DejaVuSans-3" transform="translate(1223.625 0)"/>
    <use xlink:href="#DejaVuSans-4c" transform="translate(1255.40625 0)"/>
    <use xlink:href="#DejaVuSans-51" transform="translate(1283.1875 0)"/>
    <use xlink:href="#DejaVuSans-af" transform="translate(1346.5625 0)"/>
    <use xlink:href="#DejaVuSans-46" transform="translate(1374.34375 0)"/>
    <use xlink:href="#DejaVuSans-4c" transform="translate(1429.328125 0)"/>
    <use xlink:href="#DejaVuSans-52" transform="translate(1457.109375 0)"/>
    <use xlink:href="#DejaVuSans-f" transform="translate(1518.296875 0)"/>
    <use xlink:href="#DejaVuSans-3" transform="translate(1550.078125 0)"/>
    <use xlink:href="#DejaVuSans-edc" transform="translate(1581.859375 0)"/>
    <use xlink:href="#DejaVuSans-3" transform="translate(1671.515625 0)"/>
    <use xlink:href="#DejaVuSans-13af" transform="translate(1703.296875 0)"/>
    <use xlink:href="#DejaVuSans-50" transform="translate(1766.28125 0)"/>
    <use xlink:href="#DejaVuSans-c" transform="translate(1863.6875 0)"/>
    <use xlink:href="#DejaVuSans-11" transform="translate(1902.703125 0)"/>
    <use xlink:href="#DejaVuSans-3" transform="translate(1934.484375 0)"/>
    <use xlink:href="#DejaVuSans-36" transform="translate(1966.265625 0)"/>
    <use xlink:href="#DejaVuSans-52" transform="translate(2029.75 0)"/>
    <use xlink:href="#DejaVuSans-45" transform="translate(2090.9375 0)"/>
    <use xlink:href="#DejaVuSans-55" transform="translate(2154.421875 0)"/>
    <use xlink:href="#DejaVuSans-48" transform="translate(2193.328125 0)"/>
    <use xlink:href="#DejaVuSans-53" transform="translate(2254.859375 0)"/>
    <use xlink:href="#DejaVuSans-52" transform="translate(2318.34375 0)"/>
    <use xlink:href="#DejaVuSans-56" transform="translate(2379.53125 0)"/>
    <use xlink:href="#DejaVuSans-4c" transform="translate(2431.625 0)"/>
    <use xlink:href="#DejaVuSans-a9" transform="translate(2459.40625 0)"/>
    <use xlink:href="#DejaVuSans-a5" transform="translate(2514.390625 0)"/>
    <use xlink:href="#DejaVuSans-52" transform="translate(2575.671875 0)"/>
    <use xlink:href="#DejaVuSans-3" transform="translate(2636.859375 0)"/>
    <use xlink:href="#DejaVuSans-26" transform="translate(2668.640625 0)"/>
    <use xlink:href="#DejaVuSans-44" transform="translate(2738.46875 0)"/>
    <use xlink:href="#DejaVuSans-55" transform="translate(2799.75 0)"/>
    <use xlink:href="#DejaVuSans-57" transform="translate(2840.859375 0)"/>
    <use xlink:href="#DejaVuSans-48" transform="translate(2880.0625 0)"/>
    <use xlink:href="#DejaVuSans-56" transform="translate(2941.59375 0)"/>
    <use xlink:href="#DejaVuSans-4c" transform="translate(2993.6875 0)"/>
    <use xlink:href="#DejaVuSans-44" transform="translate(3021.46875 0)"/>
    <use xlink:href="#DejaVuSans-51" transform="translate(3082.75 0)"/>
    <use xlink:href="#DejaVuSans-44" transform="translate(3146.125 0)"/>
    <use xlink:href="#DejaVuSans-3" transform="translate(3207.40625 0)"/>
    <use xlink:href="#DejaVuSans-51" transform="translate(3239.1875 0)"/>
    <use xlink:href="#DejaVuSans-a5" transform="translate(3302.5625 0)"/>
    <use xlink:href="#DejaVuSans-52" transform="translate(3363.84375 0)"/>
    <use xlink:href="#DejaVuSans-3" transform="translate(3425.03125 0)"/>
    <use xlink:href="#DejaVuSans-ab" transform="translate(3456.8125 0)"/>
    <use xlink:href="#DejaVuSans-3" transform="translate(3518.34375 0)"/>
    <use xlink:href="#DejaVuSans-53" transform="translate(3550.125 0)"/>
    <use xlink:href="#DejaVuSans-52" transform="translate(3613.609375 0)"/>
    <use xlink:href="#DejaVuSans-56" transform="translate(3674.796875 0)"/>
    <use xlink:href="#DejaVuSans-56" transform="translate(3726.890625 0)"/>
    <use xlink:href="#DejaVuSans-af" transform="translate(3778.984375 0)"/>
    <use xlink:href="#DejaVuSans-59" transform="translate(3806.765625 0)"/>
    <use xlink:href="#DejaVuSans-48" transform="translate(3865.953125 0)"/>
    <use xlink:href="#DejaVuSans-4f" transform="translate(3927.484375 0)"/>
    <use xlink:href="#DejaVuSans-3" transform="translate(3955.265625 0)"/>
    <use xlink:href="#DejaVuSans-af6" transform="translate(3987.046875 0)"/>
    <use xlink:href="#DejaVuSans-3" transform="translate(4087.046875 0)"/>
    <use xlink:href="#DejaVuSans-49" transform="translate(4118.828125 0)"/>
    <use xlink:href="#DejaVuSans-55" transform="translate(4154.03125 0)"/>
    <use xlink:href="#DejaVuSans-44" transform="translate(4195.140625 0)"/>
    <use xlink:href="#DejaVuSans-50" transform="translate(4256.421875 0)"/>
    <use xlink:href="#DejaVuSans-48" transform="translate(4353.828125 0)"/>
    <use xlink:href="#DejaVuSans-56" transform="translate(4415.359375 0)"/>
    <use xlink:href="#DejaVuSans-3" transform="translate(4467.453125 0)"/>
    <use xlink:href="#DejaVuSans-47" transform="translate(4499.234375 0)"/>
    <use xlink:href="#DejaVuSans-48" transform="translate(4562.71875 0)"/>
    <use xlink:href="#DejaVuSans-3" transform="translate(4624.25 0)"/>
    <use xlink:href="#DejaVuSans-55" transform="translate(4656.03125 0)"/>
    <use xlink:href="#DejaVuSans-48" transform="translate(4694.9375 0)"/>
    <use xlink:href="#DejaVuSans-49" transform="translate(4756.46875 0)"/>
    <use xlink:href="#DejaVuSans-48" transform="translate(4791.671875 0)"/>
    <use xlink:href="#DejaVuSans-55" transform="translate(4853.203125 0)"/>
    <use xlink:href="#DejaVuSans-ac" transform="translate(4892.109375 0)"/>
    <use xlink:href="#DejaVuSans-51" transform="translate(4953.640625 0)"/>
    <use xlink:href="#DejaVuSans-46" transform="translate(5017.015625 0)"/>
    <use xlink:href="#DejaVuSans-4c" transform="translate(5072 0)"/>
    <use xlink:href="#DejaVuSans-44" transform="translate(5099.78125 0)"/>
    <use xlink:href="#DejaVuSans-3" transform="translate(5161.0625 0)"/>
    <use xlink:href="#DejaVuSans-47" transform="translate(5192.84375 0)"/>
    <use xlink:href="#DejaVuSans-4c" transform="translate(5256.328125 0)"/>
    <use xlink:href="#DejaVuSans-56" transform="translate(5284.109375 0)"/>
    <use xlink:href="#DejaVuSans-57" transform="translate(5336.203125 0)"/>
    <use xlink:href="#DejaVuSans-4c" transform="translate(5375.40625 0)"/>
    <use xlink:href="#DejaVuSans-51" transform="translate(5403.1875 0)"/>
    <use xlink:href="#DejaVuSans-57" transform="translate(5466.5625 0)"/>
    <use xlink:href="#DejaVuSans-52" transform="translate(5505.765625 0)"/>
    <use xlink:href="#DejaVuSans-56" transform="translate(5566.953125 0)"/>
    <use xlink:href="#DejaVuSans-3" transform="translate(5619.046875 0)"/>
    <use xlink:href="#DejaVuSans-b" transform="translate(5650.828125 0)"/>
    <use xlink:href="#DejaVuSans-33" transform="translate(5689.84375 0)"/>
    <use xlink:href="#DejaVuSans-55" transform="translate(5748.390625 0)"/>
    <use xlink:href="#DejaVuSans-52" transform="translate(5787.296875 0)"/>
    <use xlink:href="#DejaVuSans-57" transform="translate(5848.484375 0)"/>
    <use xlink:href="#DejaVuSans-b5" transform="translate(5887.6875 0)"/>
    <use xlink:href="#DejaVuSans-57" transform="translate(5948.875 0)"/>
    <use xlink:href="#DejaVuSans-4c" transform="translate(5988.078125 0)"/>
    <use xlink:href="#DejaVuSans-53" transform="translate(6015.859375 0)"/>
    <use xlink:href="#DejaVuSans-52" transform="translate(6079.34375 0)"/>
    <use xlink:href="#DejaVuSans-3" transform="translate(6140.53125 0)"/>
    <use xlink:href="#DejaVuSans-53" transform="translate(6172.3125 0)"/>
    <use xlink:href="#DejaVuSans-55" transform="translate(6235.796875 0)"/>
    <use xlink:href="#DejaVuSans-52" transform="translate(6274.703125 0)"/>
    <use xlink:href="#DejaVuSans-5b" transform="translate(6332.8125 0)"/>
    <use xlink:href="#DejaVuSans-5c" transform="translate(6392 0)"/>
    <use xlink:href="#DejaVuSans-3" transform="translate(6451.1875 0)"/>
    <use xlink:href="#DejaVuSans-38" transform="translate(6482.96875 0)"/>
    <use xlink:href="#DejaVuSans-35" transform="translate(6556.15625 0)"/>
    <use xlink:href="#DejaVuSans-14" transform="translate(6625.640625 0)"/>
    <use xlink:href="#DejaVuSans-13" transform="translate(6689.265625 0)"/>
    <use xlink:href="#DejaVuSans-48" transform="translate(6752.890625 0)"/>
    <use xlink:href="#DejaVuSans-3" transform="translate(6814.421875 0)"/>
    <use xlink:href="#DejaVuSans-59" transform="translate(6846.203125 0)"/>
    <use xlink:href="#DejaVuSans-56" transform="translate(6905.390625 0)"/>
    <use xlink:href="#DejaVuSans-3" transform="translate(6957.484375 0)"/>
    <use xlink:href="#DejaVuSans-38" transform="translate(6989.265625 0)"/>
    <use xlink:href="#DejaVuSans-35" transform="translate(7062.453125 0)"/>
    <use xlink:href="#DejaVuSans-36" transform="translate(7131.9375 0)"/>
    <use xlink:href="#DejaVuSans-4c" transform="translate(7195.421875 0)"/>
    <use xlink:href="#DejaVuSans-50" transform="translate(7223.203125 0)"/>
    <use xlink:href="#DejaVuSans-3" transform="translate(7320.609375 0)"/>
    <use xlink:href="#DejaVuSans-55" transform="translate(7352.390625 0)"/>
    <use xlink:href="#DejaVuSans-48" transform="translate(7391.296875 0)"/>
    <use xlink:href="#DejaVuSans-44" transform="translate(7452.828125 0)"/>
    <use xlink:href="#DejaVuSans-4f" transform="translate(7514.109375 0)"/>
    <use xlink:href="#DejaVuSans-c" transform="translate(7541.890625 0)"/>
    <use xlink:href="#DejaVuSans-1e" transform="translate(7580.90625 0)"/>
    <use xlink:href="#DejaVuSans-3" transform="translate(7614.59375 0)"/>
    <use xlink:href="#DejaVuSans-46" transform="translate(7646.375 0)"/>
    <use xlink:href="#DejaVuSans-52" transform="translate(7701.359375 0)"/>
    <use xlink:href="#DejaVuSans-50" transform="translate(7762.546875 0)"/>
    <use xlink:href="#DejaVuSans-53" transform="translate(7859.953125 0)"/>
    <use xlink:href="#DejaVuSans-44" transform="translate(7923.4375 0)"/>
    <use xlink:href="#DejaVuSans-55" transform="translate(7984.71875 0)"/>
    <use xlink:href="#DejaVuSans-44" transform="translate(8025.828125 0)"/>
    <use xlink:href="#DejaVuSans-a9" transform="translate(8087.109375 0)"/>
    <use xlink:href="#DejaVuSans-a5" transform="translate(8142.09375 0)"/>
    <use xlink:href="#DejaVuSans-52" transform="translate(8203.375 0)"/>
    <use xlink:href="#DejaVuSans-3" transform="translate(8264.5625 0)"/>
    <use xlink:href="#DejaVuSans-44" transform="translate(8296.34375 0)"/>
    <use xlink:href="#DejaVuSans-51" transform="translate(8357.625 0)"/>
    <use xlink:href="#DejaVuSans-4a" transform="translate(8421 0)"/>
    <use xlink:href="#DejaVuSans-58" transform="translate(8484.484375 0)"/>
    <use xlink:href="#DejaVuSans-4f" transform="translate(8547.859375 0)"/>
    <use xlink:href="#DejaVuSans-44" transform="translate(8575.640625 0)"/>
    <use xlink:href="#DejaVuSans-55" transform="translate(8636.921875 0)"/>
    <use xlink:href="#DejaVuSans-11" transform="translate(8668.859375 0)"/>
    <use xlink:href="#DejaVuSans-3" transform="translate(8700.640625 0)"/>
    <use xlink:href="#DejaVuSans-37" transform="translate(8732.421875 0)"/>
    <use xlink:href="#DejaVuSans-55" transform="translate(8778.796875 0)"/>
    <use xlink:href="#DejaVuSans-44" transform="translate(8819.90625 0)"/>
    <use xlink:href="#DejaVuSans-4d" transform="translate(8881.1875 0)"/>
    <use xlink:href="#DejaVuSans-48" transform="translate(8908.96875 0)"/>
    <use xlink:href="#DejaVuSans-57" transform="translate(8970.5 0)"/>
    <use xlink:href="#DejaVuSans-b5" transform="translate(9009.703125 0)"/>
    <use xlink:href="#DejaVuSans-55" transform="translate(9070.890625 0)"/>
    <use xlink:href="#DejaVuSans-4c" transform="translate(9112 0)"/>
    <use xlink:href="#DejaVuSans-44" transform="translate(9139.78125 0)"/>
    <use xlink:href="#DejaVuSans-3" transform="translate(9201.0625 0)"/>
    <use xlink:href="#DejaVuSans-46" transform="translate(9232.84375 0)"/>
    <use xlink:href="#DejaVuSans-4c" transform="translate(9287.828125 0)"/>
    <use xlink:href="#DejaVuSans-55" transform="translate(9315.609375 0)"/>
    <use xlink:href="#DejaVuSans-46" transform="translate(9354.515625 0)"/>
    <use xlink:href="#DejaVuSans-58" transform="translate(9409.5 0)"/>
    <use xlink:href="#DejaVuSans-4f" transform="translate(9472.875 0)"/>
    <use xlink:href="#DejaVuSans-44" transform="translate(9500.65625 0)"/>
    <use xlink:href="#DejaVuSans-55" transform="translate(9561.9375 0)"/>
    <use xlink:href="#DejaVuSans-42" transform="translate(9603.046875 0)"/>
    <use xlink:href="#DejaVuSans-50" transform="translate(9653.046875 0)"/>
    <use xlink:href="#DejaVuSans-58" transform="translate(9750.453125 0)"/>
    <use xlink:href="#DejaVuSans-4f" transform="translate(9813.828125 0)"/>
    <use xlink:href="#DejaVuSans-57" transform="translate(9841.609375 0)"/>
    <use xlink:href="#DejaVuSans-4c" transform="translate(9880.8125 0)"/>
    <use xlink:href="#DejaVuSans-4d" transform="translate(9908.59375 0)"/>
    <use xlink:href="#DejaVuSans-52" transform="translate(9936.375 0)"/>
    <use xlink:href="#DejaVuSans-4c" transform="translate(9997.5625 0)"/>
    <use xlink:href="#DejaVuSans-51" transform="translate(10025.34375 0)"/>
    <use xlink:href="#DejaVuSans-57" transform="translate(10088.71875 0)"/>
    <use xlink:href="#DejaVuSans-3" transform="translate(10127.921875 0)"/>
    <use xlink:href="#DejaVuSans-b" transform="translate(10159.703125 0)"/>
    <use xlink:href="#DejaVuSans-56" transform="translate(10198.71875 0)"/>
    <use xlink:href="#DejaVuSans-48" transform="translate(10250.8125 0)"/>
    <use xlink:href="#DejaVuSans-54" transform="translate(10312.34375 0)"/>
    <use xlink:href="#DejaVuSans-11" transform="translate(10375.828125 0)"/>
    <use xlink:href="#DejaVuSans-3" transform="translate(10407.609375 0)"/>
    <use xlink:href="#DejaVuSans-14" transform="translate(10439.390625 0)"/>
    <use xlink:href="#DejaVuSans-af5" transform="translate(10503.015625 0)"/>
    <use xlink:href="#DejaVuSans-14" transform="translate(10553.015625 0)"/>
    <use xlink:href="#DejaVuSans-1a" transform="translate(10616.640625 0)"/>
    <use xlink:href="#DejaVuSans-c" transform="translate(10680.265625 0)"/>
    <use xlink:href="#DejaVuSans-11" transform="translate(10719.28125 0)"/>
    <use xlink:href="#DejaVuSans-3" transform="translate(10751.0625 0)"/>
    <use xlink:href="#DejaVuSans-33" transform="translate(10782.84375 0)"/>
    <use xlink:href="#DejaVuSans-55" transform="translate(10841.390625 0)"/>
    <use xlink:href="#DejaVuSans-52" transform="translate(10880.296875 0)"/>
    <use xlink:href="#DejaVuSans-57" transform="translate(10941.484375 0)"/>
    <use xlink:href="#DejaVuSans-b5" transform="translate(10980.6875 0)"/>
    <use xlink:href="#DejaVuSans-57" transform="translate(11041.875 0)"/>
    <use xlink:href="#DejaVuSans-4c" transform="translate(11081.078125 0)"/>
    <use xlink:href="#DejaVuSans-53" transform="translate(11108.859375 0)"/>
    <use xlink:href="#DejaVuSans-52" transform="translate(11172.34375 0)"/>
    <use xlink:href="#DejaVuSans-3" transform="translate(11233.53125 0)"/>
    <use xlink:href="#DejaVuSans-20" transform="translate(11265.3125 0)"/>
    <use xlink:href="#DejaVuSans-3" transform="translate(11349.109375 0)"/>
    <use xlink:href="#DejaVuSans-46" transform="translate(11380.890625 0)"/>
    <use xlink:href="#DejaVuSans-52" transform="translate(11435.875 0)"/>
    <use xlink:href="#DejaVuSans-10" transform="translate(11498.921875 0)"/>
    <use xlink:href="#DejaVuSans-56" transform="translate(11535 0)"/>
    <use xlink:href="#DejaVuSans-4c" transform="translate(11587.09375 0)"/>
    <use xlink:href="#DejaVuSans-50" transform="translate(11614.875 0)"/>
    <use xlink:href="#DejaVuSans-3" transform="translate(11712.28125 0)"/>
    <use xlink:href="#DejaVuSans-56" transform="translate(11744.0625 0)"/>
    <use xlink:href="#DejaVuSans-af" transform="translate(11796.15625 0)"/>
    <use xlink:href="#DejaVuSans-51" transform="translate(11823.9375 0)"/>
    <use xlink:href="#DejaVuSans-46" transform="translate(11887.3125 0)"/>
    <use xlink:href="#DejaVuSans-55" transform="translate(11942.296875 0)"/>
    <use xlink:href="#DejaVuSans-52" transform="translate(11981.203125 0)"/>
    <use xlink:href="#DejaVuSans-51" transform="translate(12042.390625 0)"/>
    <use xlink:href="#DejaVuSans-44" transform="translate(12105.765625 0)"/>
    <use xlink:href="#DejaVuSans-3" transform="translate(12167.046875 0)"/>
    <use xlink:href="#DejaVuSans-b" transform="translate(12198.828125 0)"/>
    <use xlink:href="#DejaVuSans-4f" transform="translate(12237.84375 0)"/>
    <use xlink:href="#DejaVuSans-52" transform="translate(12265.625 0)"/>
    <use xlink:href="#DejaVuSans-46" transform="translate(12326.8125 0)"/>
    <use xlink:href="#DejaVuSans-4e" transform="translate(12381.796875 0)"/>
    <use xlink:href="#DejaVuSans-56" transform="translate(12439.703125 0)"/>
    <use xlink:href="#DejaVuSans-57" transform="translate(12491.796875 0)"/>
    <use xlink:href="#DejaVuSans-48" transform="translate(12531 0)"/>
    <use xlink:href="#DejaVuSans-53" transform="translate(12592.53125 0)"/>
    <use xlink:href="#DejaVuSans-f" transform="translate(12656.015625 0)"/>
    <use xlink:href="#DejaVuSans-3" transform="translate(12687.796875 0)"/>
    <use xlink:href="#DejaVuSans-2e" transform="translate(12719.578125 0)"/>
    <use xlink:href="#DejaVuSans-47" transform="translate(12785.15625 0)"/>
    <use xlink:href="#DejaVuSans-20" transform="translate(12848.640625 0)"/>
    <use xlink:href="#DejaVuSans-13" transform="translate(12932.4375 0)"/>
    <use xlink:href="#DejaVuSans-f" transform="translate(12996.0625 0)"/>
    <use xlink:href="#DejaVuSans-14" transform="translate(13027.84375 0)"/>
    <use xlink:href="#DejaVuSans-c" transform="translate(13091.46875 0)"/>
    <use xlink:href="#DejaVuSans-11" transform="translate(13130.484375 0)"/>
   </g>
  </g>
 </g>
 <defs>
  <clipPath id="p176559620d">
   <rect x="59.4" y="10.8" width="457.2" height="457.2"/>
  </clipPath>
 </defs>
</svg>
