<?xml version="1.0" encoding="utf-8" standalone="no"?>
<!DOCTYPE svg PUBLIC "-//W3C//DTD SVG 1.1//EN"
  "http://www.w3.org/Graphics/SVG/1.1/DTD/svg11.dtd">
<svg xmlns:xlink="http://www.w3.org/1999/xlink" width="864pt" height="576pt" viewBox="0 0 864 576" xmlns="http://www.w3.org/2000/svg" version="1.1">
 <metadata>
  <rdf:RDF xmlns:dc="http://purl.org/dc/elements/1.1/" xmlns:cc="http://creativecommons.org/ns#" xmlns:rdf="http://www.w3.org/1999/02/22-rdf-syntax-ns#">
   <cc:Work>
    <dc:type rdf:resource="http://purl.org/dc/dcmitype/StillImage"/>
    <dc:date>2026-06-19T13:22:41.087438</dc:date>
    <dc:format>image/svg+xml</dc:format>
    <dc:creator>
     <cc:Agent>
      <dc:title>Matplotlib v3.11.0, https://matplotlib.org/</dc:title>
     </cc:Agent>
    </dc:creator>
   </cc:Work>
  </rdf:RDF>
 </metadata>
 <defs>
  <style type="text/css">*{stroke-linejoin: round; stroke-linecap: butt}</style>
 </defs>
 <g id="figure_1">
  <g id="patch_1">
   <path d="M 0 576 
L 864 576 
L 864 0 
L 0 0 
z
" style="fill: #ffffff"/>
  </g>
  <g id="axes_1">
   <g id="patch_2">
    <path d="M 182.9295 155.49625 
L 831.56931 155.49625 
L 831.56931 82.570313 
L 182.9295 82.570313 
z
" style="fill: #ffffff"/>
   </g>
   <g id="patch_3">
    <path d="M 182.9295 155.49625 
L 652.142025 155.49625 
L 652.142025 82.570313 
L 182.9295 82.570313 
z
" clip-path="url(#p36e3f5a933)" style="fill: #ef4444; opacity: 0.08; stroke: #ef4444; stroke-linejoin: miter"/>
   </g>
   <g id="matplotlib.axis_1">
    <g id="xtick_1">
     <g id="line2d_1">
      <path d="M 182.9295 155.49625 
L 182.9295 82.570313 
" clip-path="url(#p36e3f5a933)" style="fill: none; stroke-dasharray: 2.96,1.28; stroke-dashoffset: 0; stroke: #b0b0b0; stroke-opacity: 0.5; stroke-width: 0.8"/>
     </g>
     <g id="line2d_2">
      <defs>
       <path id="m00919433f0" d="M 0 0 
L 0 3.5 
" style="stroke: #000000; stroke-width: 0.8"/>
      </defs>
      <g>
       <use xlink:href="#m00919433f0" x="182.9295" y="155.49625" style="stroke: #000000; stroke-width: 0.8"/>
      </g>
     </g>
    </g>
    <g id="xtick_2">
     <g id="line2d_3">
      <path d="M 291.036135 155.49625 
L 291.036135 82.570313 
" clip-path="url(#p36e3f5a933)" style="fill: none; stroke-dasharray: 2.96,1.28; stroke-dashoffset: 0; stroke: #b0b0b0; stroke-opacity: 0.5; stroke-width: 0.8"/>
     </g>
     <g id="line2d_4">
      <g>
       <use xlink:href="#m00919433f0" x="291.036135" y="155.49625" style="stroke: #000000; stroke-width: 0.8"/>
      </g>
     </g>
    </g>
    <g id="xtick_3">
     <g id="line2d_5">
      <path d="M 399.14277 155.49625 
L 399.14277 82.570313 
" clip-path="url(#p36e3f5a933)" style="fill: none; stroke-dasharray: 2.96,1.28; stroke-dashoffset: 0; stroke: #b0b0b0; stroke-opacity: 0.5; stroke-width: 0.8"/>
     </g>
     <g id="line2d_6">
      <g>
       <use xlink:href="#m00919433f0" x="399.14277" y="155.49625" style="stroke: #000000; stroke-width: 0.8"/>
      </g>
     </g>
    </g>
    <g id="xtick_4">
     <g id="line2d_7">
      <path d="M 507.249405 155.49625 
L 507.249405 82.570313 
" clip-path="url(#p36e3f5a933)" style="fill: none; stroke-dasharray: 2.96,1.28; stroke-dashoffset: 0; stroke: #b0b0b0; stroke-opacity: 0.5; stroke-width: 0.8"/>
     </g>
     <g id="line2d_8">
      <g>
       <use xlink:href="#m00919433f0" x="507.249405" y="155.49625" style="stroke: #000000; stroke-width: 0.8"/>
      </g>
     </g>
    </g>
    <g id="xtick_5">
     <g id="line2d_9">
      <path d="M 615.35604 155.49625 
L 615.35604 82.570313 
" clip-path="url(#p36e3f5a933)" style="fill: none; stroke-dasharray: 2.96,1.28; stroke-dashoffset: 0; stroke: #b0b0b0; stroke-opacity: 0.5; stroke-width: 0.8"/>
     </g>
     <g id="line2d_10">
      <g>
       <use xlink:href="#m00919433f0" x="615.35604" y="155.49625" style="stroke: #000000; stroke-width: 0.8"/>
      </g>
     </g>
    </g>
    <g id="xtick_6">
     <g id="line2d_11">
      <path d="M 723.462675 155.49625 
L 723.462675 82.570313 
" clip-path="url(#p36e3f5a933)" style="fill: none; stroke-dasharray: 2.96,1.28; stroke-dashoffset: 0; stroke: #b0b0b0; stroke-opacity: 0.5; stroke-width: 0.8"/>
     </g>
     <g id="line2d_12">
      <g>
       <use xlink:href="#m00919433f0" x="723.462675" y="155.49625" style="stroke: #000000; stroke-width: 0.8"/>
      </g>
     </g>
    </g>
    <g id="xtick_7">
     <g id="line2d_13">
      <path d="M 831.56931 155.49625 
L 831.56931 82.570313 
" clip-path="url(#p36e3f5a933)" style="fill: none; stroke-dasharray: 2.96,1.28; stroke-dashoffset: 0; stroke: #b0b0b0; stroke-opacity: 0.5; stroke-width: 0.8"/>
     </g>
     <g id="line2d_14">
      <g>
       <use xlink:href="#m00919433f0" x="831.56931" y="155.49625" style="stroke: #000000; stroke-width: 0.8"/>
      </g>
     </g>
    </g>
   </g>
   <g id="matplotlib.axis_2">
    <g id="ytick_1">
     <g id="line2d_15">
      <path d="M 182.9295 145.078259 
L 831.56931 145.078259 
" clip-path="url(#p36e3f5a933)" style="fill: none; stroke-dasharray: 2.96,1.28; stroke-dashoffset: 0; stroke: #b0b0b0; stroke-opacity: 0.5; stroke-width: 0.8"/>
     </g>
     <g id="line2d_16">
      <defs>
       <path id="mbb4d6511d4" d="M 0 0 
L -3.5 0 
" style="stroke: #000000; stroke-width: 0.8"/>
      </defs>
      <g>
       <use xlink:href="#mbb4d6511d4" x="182.9295" y="145.078259" style="stroke: #000000; stroke-width: 0.8"/>
      </g>
     </g>
     <g id="text_1">
      <!-- 0V -->
      <g transform="translate(162.702313 148.497204) scale(0.09 -0.09)">
       <defs>
        <path id="DejaVuSans-Bold-13" d="M 2944 2338 
Q 2944 3213 2780 3570 
Q 2616 3928 2228 3928 
Q 1841 3928 1675 3570 
Q 1509 3213 1509 2338 
Q 1509 1453 1675 1090 
Q 1841 728 2228 728 
Q 2613 728 2778 1090 
Q 2944 1453 2944 2338 
z
M 4147 2328 
Q 4147 1169 3647 539 
Q 3147 -91 2228 -91 
Q 1306 -91 806 539 
Q 306 1169 306 2328 
Q 306 3491 806 4120 
Q 1306 4750 2228 4750 
Q 3147 4750 3647 4120 
Q 4147 3491 4147 2328 
z
" transform="scale(0.015625)"/>
        <path id="DejaVuSans-Bold-39" d="M 31 4666 
L 1241 4666 
L 2478 1222 
L 3713 4666 
L 4922 4666 
L 3194 0 
L 1759 0 
L 31 4666 
z
" transform="scale(0.015625)"/>
       </defs>
       <use xlink:href="#DejaVuSans-Bold-13"/>
       <use xlink:href="#DejaVuSans-Bold-39" transform="translate(69.578125 0)"/>
      </g>
     </g>
    </g>
    <g id="ytick_2">
     <g id="line2d_17">
      <path d="M 182.9295 92.988304 
L 831.56931 92.988304 
" clip-path="url(#p36e3f5a933)" style="fill: none; stroke-dasharray: 2.96,1.28; stroke-dashoffset: 0; stroke: #b0b0b0; stroke-opacity: 0.5; stroke-width: 0.8"/>
     </g>
     <g id="line2d_18">
      <g>
       <use xlink:href="#mbb4d6511d4" x="182.9295" y="92.988304" style="stroke: #000000; stroke-width: 0.8"/>
      </g>
     </g>
     <g id="text_2">
      <!-- Alto -->
      <g transform="translate(155.394031 96.4076) scale(0.09 -0.09)">
       <defs>
        <path id="DejaVuSans-Bold-24" d="M 3419 850 
L 1538 850 
L 1241 0 
L 31 0 
L 1759 4666 
L 3194 4666 
L 4922 0 
L 3713 0 
L 3419 850 
z
M 1838 1716 
L 3116 1716 
L 2478 3572 
L 1838 1716 
z
" transform="scale(0.015625)"/>
        <path id="DejaVuSans-Bold-4f" d="M 538 4863 
L 1656 4863 
L 1656 0 
L 538 0 
L 538 4863 
z
" transform="scale(0.015625)"/>
        <path id="DejaVuSans-Bold-57" d="M 1759 4494 
L 1759 3500 
L 2913 3500 
L 2913 2700 
L 1759 2700 
L 1759 1216 
Q 1759 972 1856 886 
Q 1953 800 2241 800 
L 2816 800 
L 2816 0 
L 1856 0 
Q 1194 0 917 276 
Q 641 553 641 1216 
L 641 2700 
L 84 2700 
L 84 3500 
L 641 3500 
L 641 4494 
L 1759 4494 
z
" transform="scale(0.015625)"/>
        <path id="DejaVuSans-Bold-52" d="M 2203 2784 
Q 1831 2784 1636 2517 
Q 1441 2250 1441 1747 
Q 1441 1244 1636 976 
Q 1831 709 2203 709 
Q 2569 709 2762 976 
Q 2956 1244 2956 1747 
Q 2956 2250 2762 2517 
Q 2569 2784 2203 2784 
z
M 2203 3584 
Q 3106 3584 3614 3096 
Q 4122 2609 4122 1747 
Q 4122 884 3614 396 
Q 3106 -91 2203 -91 
Q 1297 -91 786 396 
Q 275 884 275 1747 
Q 275 2609 786 3096 
Q 1297 3584 2203 3584 
z
" transform="scale(0.015625)"/>
       </defs>
       <use xlink:href="#DejaVuSans-Bold-24"/>
       <use xlink:href="#DejaVuSans-Bold-4f" transform="translate(77.390625 0)"/>
       <use xlink:href="#DejaVuSans-Bold-57" transform="translate(111.671875 0)"/>
       <use xlink:href="#DejaVuSans-Bold-52" transform="translate(159.46875 0)"/>
      </g>
     </g>
    </g>
   </g>
   <g id="line2d_19">
    <path d="M 182.9295 145.078259 
L 652.425293 145.078259 
L 652.425293 92.988304 
L 831.56931 92.988304 
L 831.56931 92.988304 
" clip-path="url(#p36e3f5a933)" style="fill: none; stroke: #8b5cf6; stroke-width: 2; stroke-linecap: square"/>
   </g>
   <g id="patch_4">
    <path d="M 182.9295 155.49625 
L 182.9295 82.570313 
" style="fill: none; stroke: #000000; stroke-width: 0.8; stroke-linejoin: miter; stroke-linecap: square"/>
   </g>
   <g id="patch_5">
    <path d="M 182.9295 155.49625 
L 831.56931 155.49625 
" style="fill: none; stroke: #000000; stroke-width: 0.8; stroke-linejoin: miter; stroke-linecap: square"/>
   </g>
   <g id="text_3">
    <!-- Canal 1: TX UART (ESP32) -->
    <g style="fill: #1e293b" transform="translate(25.117641 121.631328) scale(0.1 -0.1)">
     <defs>
      <path id="DejaVuSans-Bold-26" d="M 4288 256 
Q 3956 84 3597 -3 
Q 3238 -91 2847 -91 
Q 1681 -91 1000 561 
Q 319 1213 319 2328 
Q 319 3447 1000 4098 
Q 1681 4750 2847 4750 
Q 3238 4750 3597 4662 
Q 3956 4575 4288 4403 
L 4288 3438 
Q 3953 3666 3628 3772 
Q 3303 3878 2944 3878 
Q 2300 3878 1931 3465 
Q 1563 3053 1563 2328 
Q 1563 1606 1931 1193 
Q 2300 781 2944 781 
Q 3303 781 3628 887 
Q 3953 994 4288 1222 
L 4288 256 
z
" transform="scale(0.015625)"/>
      <path id="DejaVuSans-Bold-44" d="M 2106 1575 
Q 1756 1575 1579 1456 
Q 1403 1338 1403 1106 
Q 1403 894 1545 773 
Q 1688 653 1941 653 
Q 2256 653 2472 879 
Q 2688 1106 2688 1447 
L 2688 1575 
L 2106 1575 
z
M 3816 1997 
L 3816 0 
L 2688 0 
L 2688 519 
Q 2463 200 2181 54 
Q 1900 -91 1497 -91 
Q 953 -91 614 226 
Q 275 544 275 1050 
Q 275 1666 698 1953 
Q 1122 2241 2028 2241 
L 2688 2241 
L 2688 2328 
Q 2688 2594 2478 2717 
Q 2269 2841 1825 2841 
Q 1466 2841 1156 2769 
Q 847 2697 581 2553 
L 581 3406 
Q 941 3494 1303 3539 
Q 1666 3584 2028 3584 
Q 2975 3584 3395 3211 
Q 3816 2838 3816 1997 
z
" transform="scale(0.015625)"/>
      <path id="DejaVuSans-Bold-51" d="M 4056 2131 
L 4056 0 
L 2931 0 
L 2931 347 
L 2931 1631 
Q 2931 2084 2911 2256 
Q 2891 2428 2841 2509 
Q 2775 2619 2662 2680 
Q 2550 2741 2406 2741 
Q 2056 2741 1856 2470 
Q 1656 2200 1656 1722 
L 1656 0 
L 538 0 
L 538 3500 
L 1656 3500 
L 1656 2988 
Q 1909 3294 2193 3439 
Q 2478 3584 2822 3584 
Q 3428 3584 3742 3212 
Q 4056 2841 4056 2131 
z
" transform="scale(0.015625)"/>
      <path id="DejaVuSans-Bold-3" transform="scale(0.015625)"/>
      <path id="DejaVuSans-Bold-14" d="M 750 831 
L 1813 831 
L 1813 3847 
L 722 3622 
L 722 4441 
L 1806 4666 
L 2950 4666 
L 2950 831 
L 4013 831 
L 4013 0 
L 750 0 
L 750 831 
z
" transform="scale(0.015625)"/>
      <path id="DejaVuSans-Bold-1d" d="M 716 3500 
L 1844 3500 
L 1844 2291 
L 716 2291 
L 716 3500 
z
M 716 1209 
L 1844 1209 
L 1844 0 
L 716 0 
L 716 1209 
z
" transform="scale(0.015625)"/>
      <path id="DejaVuSans-Bold-37" d="M 31 4666 
L 4331 4666 
L 4331 3756 
L 2784 3756 
L 2784 0 
L 1581 0 
L 1581 3756 
L 31 3756 
L 31 4666 
z
" transform="scale(0.015625)"/>
      <path id="DejaVuSans-Bold-3b" d="M 3188 2381 
L 4806 0 
L 3553 0 
L 2463 1594 
L 1381 0 
L 122 0 
L 1741 2381 
L 184 4666 
L 1441 4666 
L 2463 3163 
L 3481 4666 
L 4744 4666 
L 3188 2381 
z
" transform="scale(0.015625)"/>
      <path id="DejaVuSans-Bold-38" d="M 588 4666 
L 1791 4666 
L 1791 1869 
Q 1791 1291 1980 1042 
Q 2169 794 2597 794 
Q 3028 794 3217 1042 
Q 3406 1291 3406 1869 
L 3406 4666 
L 4609 4666 
L 4609 1869 
Q 4609 878 4112 393 
Q 3616 -91 2597 -91 
Q 1581 -91 1084 393 
Q 588 878 588 1869 
L 588 4666 
z
" transform="scale(0.015625)"/>
      <path id="DejaVuSans-Bold-35" d="M 2297 2597 
Q 2675 2597 2839 2737 
Q 3003 2878 3003 3200 
Q 3003 3519 2839 3656 
Q 2675 3794 2297 3794 
L 1791 3794 
L 1791 2597 
L 2297 2597 
z
M 1791 1766 
L 1791 0 
L 588 0 
L 588 4666 
L 2425 4666 
Q 3347 4666 3776 4356 
Q 4206 4047 4206 3378 
Q 4206 2916 3982 2619 
Q 3759 2322 3309 2181 
Q 3556 2125 3751 1926 
Q 3947 1728 4147 1325 
L 4800 0 
L 3519 0 
L 2950 1159 
Q 2778 1509 2601 1637 
Q 2425 1766 2131 1766 
L 1791 1766 
z
" transform="scale(0.015625)"/>
      <path id="DejaVuSans-Bold-b" d="M 2413 -844 
L 1484 -844 
Q 1006 -72 778 623 
Q 550 1319 550 2003 
Q 550 2688 779 3389 
Q 1009 4091 1484 4856 
L 2413 4856 
Q 2013 4116 1813 3408 
Q 1613 2700 1613 2009 
Q 1613 1319 1811 609 
Q 2009 -100 2413 -844 
z
" transform="scale(0.015625)"/>
      <path id="DejaVuSans-Bold-28" d="M 588 4666 
L 3834 4666 
L 3834 3756 
L 1791 3756 
L 1791 2888 
L 3713 2888 
L 3713 1978 
L 1791 1978 
L 1791 909 
L 3903 909 
L 3903 0 
L 588 0 
L 588 4666 
z
" transform="scale(0.015625)"/>
      <path id="DejaVuSans-Bold-36" d="M 3834 4519 
L 3834 3531 
Q 3450 3703 3084 3790 
Q 2719 3878 2394 3878 
Q 1963 3878 1756 3759 
Q 1550 3641 1550 3391 
Q 1550 3203 1689 3098 
Q 1828 2994 2194 2919 
L 2706 2816 
Q 3484 2659 3812 2340 
Q 4141 2022 4141 1434 
Q 4141 663 3683 286 
Q 3225 -91 2284 -91 
Q 1841 -91 1394 -6 
Q 947 78 500 244 
L 500 1259 
Q 947 1022 1364 901 
Q 1781 781 2169 781 
Q 2563 781 2772 912 
Q 2981 1044 2981 1288 
Q 2981 1506 2839 1625 
Q 2697 1744 2272 1838 
L 1806 1941 
Q 1106 2091 782 2419 
Q 459 2747 459 3303 
Q 459 4000 909 4375 
Q 1359 4750 2203 4750 
Q 2588 4750 2994 4692 
Q 3400 4634 3834 4519 
z
" transform="scale(0.015625)"/>
      <path id="DejaVuSans-Bold-33" d="M 588 4666 
L 2584 4666 
Q 3475 4666 3951 4270 
Q 4428 3875 4428 3144 
Q 4428 2409 3951 2014 
Q 3475 1619 2584 1619 
L 1791 1619 
L 1791 0 
L 588 0 
L 588 4666 
z
M 1791 3794 
L 1791 2491 
L 2456 2491 
Q 2806 2491 2997 2661 
Q 3188 2831 3188 3144 
Q 3188 3456 2997 3625 
Q 2806 3794 2456 3794 
L 1791 3794 
z
" transform="scale(0.015625)"/>
      <path id="DejaVuSans-Bold-16" d="M 2981 2516 
Q 3453 2394 3698 2092 
Q 3944 1791 3944 1325 
Q 3944 631 3412 270 
Q 2881 -91 1863 -91 
Q 1503 -91 1142 -33 
Q 781 25 428 141 
L 428 1069 
Q 766 900 1098 814 
Q 1431 728 1753 728 
Q 2231 728 2486 893 
Q 2741 1059 2741 1369 
Q 2741 1688 2480 1852 
Q 2219 2016 1709 2016 
L 1228 2016 
L 1228 2791 
L 1734 2791 
Q 2188 2791 2409 2933 
Q 2631 3075 2631 3366 
Q 2631 3634 2415 3781 
Q 2200 3928 1806 3928 
Q 1516 3928 1219 3862 
Q 922 3797 628 3669 
L 628 4550 
Q 984 4650 1334 4700 
Q 1684 4750 2022 4750 
Q 2931 4750 3382 4451 
Q 3834 4153 3834 3553 
Q 3834 3144 3618 2883 
Q 3403 2622 2981 2516 
z
" transform="scale(0.015625)"/>
      <path id="DejaVuSans-Bold-15" d="M 1844 884 
L 3897 884 
L 3897 0 
L 506 0 
L 506 884 
L 2209 2388 
Q 2438 2594 2547 2791 
Q 2656 2988 2656 3200 
Q 2656 3528 2436 3728 
Q 2216 3928 1850 3928 
Q 1569 3928 1234 3808 
Q 900 3688 519 3450 
L 519 4475 
Q 925 4609 1322 4679 
Q 1719 4750 2100 4750 
Q 2938 4750 3402 4381 
Q 3866 4013 3866 3353 
Q 3866 2972 3669 2642 
Q 3472 2313 2841 1759 
L 1844 884 
z
" transform="scale(0.015625)"/>
      <path id="DejaVuSans-Bold-c" d="M 513 -844 
Q 913 -100 1113 609 
Q 1313 1319 1313 2009 
Q 1313 2700 1113 3408 
Q 913 4116 513 4856 
L 1441 4856 
Q 1916 4091 2145 3389 
Q 2375 2688 2375 2003 
Q 2375 1319 2147 623 
Q 1919 -72 1441 -844 
L 513 -844 
z
" transform="scale(0.015625)"/>
     </defs>
     <use xlink:href="#DejaVuSans-Bold-26"/>
     <use xlink:href="#DejaVuSans-Bold-44" transform="translate(73.390625 0)"/>
     <use xlink:href="#DejaVuSans-Bold-51" transform="translate(140.875 0)"/>
     <use xlink:href="#DejaVuSans-Bold-44" transform="translate(212.0625 0)"/>
     <use xlink:href="#DejaVuSans-Bold-4f" transform="translate(279.546875 0)"/>
     <use xlink:href="#DejaVuSans-Bold-3" transform="translate(313.828125 0)"/>
     <use xlink:href="#DejaVuSans-Bold-14" transform="translate(348.640625 0)"/>
     <use xlink:href="#DejaVuSans-Bold-1d" transform="translate(418.21875 0)"/>
     <use xlink:href="#DejaVuSans-Bold-3" transform="translate(458.203125 0)"/>
     <use xlink:href="#DejaVuSans-Bold-37" transform="translate(493.015625 0)"/>
     <use xlink:href="#DejaVuSans-Bold-3b" transform="translate(561.234375 0)"/>
     <use xlink:href="#DejaVuSans-Bold-3" transform="translate(638.328125 0)"/>
     <use xlink:href="#DejaVuSans-Bold-38" transform="translate(673.140625 0)"/>
     <use xlink:href="#DejaVuSans-Bold-24" transform="translate(751.265625 0)"/>
     <use xlink:href="#DejaVuSans-Bold-35" transform="translate(828.65625 0)"/>
     <use xlink:href="#DejaVuSans-Bold-37" transform="translate(901.171875 0)"/>
     <use xlink:href="#DejaVuSans-Bold-3" transform="translate(969.390625 0)"/>
     <use xlink:href="#DejaVuSans-Bold-b" transform="translate(1004.203125 0)"/>
     <use xlink:href="#DejaVuSans-Bold-28" transform="translate(1049.90625 0)"/>
     <use xlink:href="#DejaVuSans-Bold-36" transform="translate(1118.21875 0)"/>
     <use xlink:href="#DejaVuSans-Bold-33" transform="translate(1190.234375 0)"/>
     <use xlink:href="#DejaVuSans-Bold-16" transform="translate(1263.53125 0)"/>
     <use xlink:href="#DejaVuSans-Bold-15" transform="translate(1333.109375 0)"/>
     <use xlink:href="#DejaVuSans-Bold-c" transform="translate(1402.6875 0)"/>
    </g>
   </g>
   <g id="text_4">
    <!-- T1 = 868.1 us -->
    <g style="fill: #ef4444" transform="translate(382.749356 121.371172) scale(0.09 -0.09)">
     <defs>
      <path id="DejaVuSans-Bold-20" d="M 678 3084 
L 4684 3084 
L 4684 2350 
L 678 2350 
L 678 3084 
z
M 678 1663 
L 4684 1663 
L 4684 922 
L 678 922 
L 678 1663 
z
" transform="scale(0.015625)"/>
      <path id="DejaVuSans-Bold-1b" d="M 2228 2088 
Q 1891 2088 1709 1903 
Q 1528 1719 1528 1375 
Q 1528 1031 1709 848 
Q 1891 666 2228 666 
Q 2563 666 2741 848 
Q 2919 1031 2919 1375 
Q 2919 1722 2741 1905 
Q 2563 2088 2228 2088 
z
M 1350 2484 
Q 925 2613 709 2878 
Q 494 3144 494 3541 
Q 494 4131 934 4440 
Q 1375 4750 2228 4750 
Q 3075 4750 3515 4442 
Q 3956 4134 3956 3541 
Q 3956 3144 3739 2878 
Q 3522 2613 3097 2484 
Q 3572 2353 3814 2058 
Q 4056 1763 4056 1313 
Q 4056 619 3595 264 
Q 3134 -91 2228 -91 
Q 1319 -91 855 264 
Q 391 619 391 1313 
Q 391 1763 633 2058 
Q 875 2353 1350 2484 
z
M 1631 3419 
Q 1631 3141 1786 2991 
Q 1941 2841 2228 2841 
Q 2509 2841 2662 2991 
Q 2816 3141 2816 3419 
Q 2816 3697 2662 3845 
Q 2509 3994 2228 3994 
Q 1941 3994 1786 3844 
Q 1631 3694 1631 3419 
z
" transform="scale(0.015625)"/>
      <path id="DejaVuSans-Bold-19" d="M 2316 2303 
Q 2000 2303 1842 2098 
Q 1684 1894 1684 1484 
Q 1684 1075 1842 870 
Q 2000 666 2316 666 
Q 2634 666 2792 870 
Q 2950 1075 2950 1484 
Q 2950 1894 2792 2098 
Q 2634 2303 2316 2303 
z
M 3803 4544 
L 3803 3681 
Q 3506 3822 3243 3889 
Q 2981 3956 2731 3956 
Q 2194 3956 1894 3657 
Q 1594 3359 1544 2772 
Q 1750 2925 1990 3001 
Q 2231 3078 2516 3078 
Q 3231 3078 3670 2659 
Q 4109 2241 4109 1563 
Q 4109 813 3618 361 
Q 3128 -91 2303 -91 
Q 1394 -91 895 523 
Q 397 1138 397 2266 
Q 397 3422 980 4083 
Q 1563 4744 2578 4744 
Q 2900 4744 3203 4694 
Q 3506 4644 3803 4544 
z
" transform="scale(0.015625)"/>
      <path id="DejaVuSans-Bold-11" d="M 653 1209 
L 1778 1209 
L 1778 0 
L 653 0 
L 653 1209 
z
" transform="scale(0.015625)"/>
      <path id="DejaVuSans-Bold-58" d="M 500 1363 
L 500 3500 
L 1625 3500 
L 1625 3150 
Q 1625 2866 1622 2436 
Q 1619 2006 1619 1863 
Q 1619 1441 1641 1255 
Q 1663 1069 1716 984 
Q 1784 875 1895 815 
Q 2006 756 2150 756 
Q 2500 756 2700 1025 
Q 2900 1294 2900 1772 
L 2900 3500 
L 4019 3500 
L 4019 0 
L 2900 0 
L 2900 506 
Q 2647 200 2364 54 
Q 2081 -91 1741 -91 
Q 1134 -91 817 281 
Q 500 653 500 1363 
z
" transform="scale(0.015625)"/>
      <path id="DejaVuSans-Bold-56" d="M 3272 3391 
L 3272 2541 
Q 2913 2691 2578 2766 
Q 2244 2841 1947 2841 
Q 1628 2841 1473 2761 
Q 1319 2681 1319 2516 
Q 1319 2381 1436 2309 
Q 1553 2238 1856 2203 
L 2053 2175 
Q 2913 2066 3209 1816 
Q 3506 1566 3506 1031 
Q 3506 472 3093 190 
Q 2681 -91 1863 -91 
Q 1516 -91 1145 -36 
Q 775 19 384 128 
L 384 978 
Q 719 816 1070 734 
Q 1422 653 1784 653 
Q 2113 653 2278 743 
Q 2444 834 2444 1013 
Q 2444 1163 2330 1236 
Q 2216 1309 1875 1350 
L 1678 1375 
Q 931 1469 631 1722 
Q 331 1975 331 2491 
Q 331 3047 712 3315 
Q 1094 3584 1881 3584 
Q 2191 3584 2531 3537 
Q 2872 3491 3272 3391 
z
" transform="scale(0.015625)"/>
     </defs>
     <use xlink:href="#DejaVuSans-Bold-37"/>
     <use xlink:href="#DejaVuSans-Bold-14" transform="translate(68.21875 0)"/>
     <use xlink:href="#DejaVuSans-Bold-3" transform="translate(137.796875 0)"/>
     <use xlink:href="#DejaVuSans-Bold-20" transform="translate(172.609375 0)"/>
     <use xlink:href="#DejaVuSans-Bold-3" transform="translate(256.40625 0)"/>
     <use xlink:href="#DejaVuSans-Bold-1b" transform="translate(291.21875 0)"/>
     <use xlink:href="#DejaVuSans-Bold-19" transform="translate(360.796875 0)"/>
     <use xlink:href="#DejaVuSans-Bold-1b" transform="translate(430.375 0)"/>
     <use xlink:href="#DejaVuSans-Bold-11" transform="translate(499.953125 0)"/>
     <use xlink:href="#DejaVuSans-Bold-14" transform="translate(537.9375 0)"/>
     <use xlink:href="#DejaVuSans-Bold-3" transform="translate(607.515625 0)"/>
     <use xlink:href="#DejaVuSans-Bold-58" transform="translate(642.328125 0)"/>
     <use xlink:href="#DejaVuSans-Bold-56" transform="translate(713.515625 0)"/>
    </g>
   </g>
  </g>
  <g id="axes_2">
   <g id="patch_6">
    <path d="M 182.9295 242.722187 
L 831.56931 242.722187 
L 831.56931 169.79625 
L 182.9295 169.79625 
z
" style="fill: #ffffff"/>
   </g>
   <g id="patch_7">
    <path d="M 652.142025 242.722187 
L 712.681741 242.722187 
L 712.681741 169.79625 
L 652.142025 169.79625 
z
" clip-path="url(#pe2a1fed52a)" style="fill: #ef4444; opacity: 0.08; stroke: #ef4444; stroke-linejoin: miter"/>
   </g>
   <g id="matplotlib.axis_3">
    <g id="xtick_8">
     <g id="line2d_20">
      <path d="M 182.9295 242.722187 
L 182.9295 169.79625 
" clip-path="url(#pe2a1fed52a)" style="fill: none; stroke-dasharray: 2.96,1.28; stroke-dashoffset: 0; stroke: #b0b0b0; stroke-opacity: 0.5; stroke-width: 0.8"/>
     </g>
     <g id="line2d_21">
      <g>
       <use xlink:href="#m00919433f0" x="182.9295" y="242.722187" style="stroke: #000000; stroke-width: 0.8"/>
      </g>
     </g>
    </g>
    <g id="xtick_9">
     <g id="line2d_22">
      <path d="M 291.036135 242.722187 
L 291.036135 169.79625 
" clip-path="url(#pe2a1fed52a)" style="fill: none; stroke-dasharray: 2.96,1.28; stroke-dashoffset: 0; stroke: #b0b0b0; stroke-opacity: 0.5; stroke-width: 0.8"/>
     </g>
     <g id="line2d_23">
      <g>
       <use xlink:href="#m00919433f0" x="291.036135" y="242.722187" style="stroke: #000000; stroke-width: 0.8"/>
      </g>
     </g>
    </g>
    <g id="xtick_10">
     <g id="line2d_24">
      <path d="M 399.14277 242.722187 
L 399.14277 169.79625 
" clip-path="url(#pe2a1fed52a)" style="fill: none; stroke-dasharray: 2.96,1.28; stroke-dashoffset: 0; stroke: #b0b0b0; stroke-opacity: 0.5; stroke-width: 0.8"/>
     </g>
     <g id="line2d_25">
      <g>
       <use xlink:href="#m00919433f0" x="399.14277" y="242.722187" style="stroke: #000000; stroke-width: 0.8"/>
      </g>
     </g>
    </g>
    <g id="xtick_11">
     <g id="line2d_26">
      <path d="M 507.249405 242.722187 
L 507.249405 169.79625 
" clip-path="url(#pe2a1fed52a)" style="fill: none; stroke-dasharray: 2.96,1.28; stroke-dashoffset: 0; stroke: #b0b0b0; stroke-opacity: 0.5; stroke-width: 0.8"/>
     </g>
     <g id="line2d_27">
      <g>
       <use xlink:href="#m00919433f0" x="507.249405" y="242.722187" style="stroke: #000000; stroke-width: 0.8"/>
      </g>
     </g>
    </g>
    <g id="xtick_12">
     <g id="line2d_28">
      <path d="M 615.35604 242.722187 
L 615.35604 169.79625 
" clip-path="url(#pe2a1fed52a)" style="fill: none; stroke-dasharray: 2.96,1.28; stroke-dashoffset: 0; stroke: #b0b0b0; stroke-opacity: 0.5; stroke-width: 0.8"/>
     </g>
     <g id="line2d_29">
      <g>
       <use xlink:href="#m00919433f0" x="615.35604" y="242.722187" style="stroke: #000000; stroke-width: 0.8"/>
      </g>
     </g>
    </g>
    <g id="xtick_13">
     <g id="line2d_30">
      <path d="M 723.462675 242.722187 
L 723.462675 169.79625 
" clip-path="url(#pe2a1fed52a)" style="fill: none; stroke-dasharray: 2.96,1.28; stroke-dashoffset: 0; stroke: #b0b0b0; stroke-opacity: 0.5; stroke-width: 0.8"/>
     </g>
     <g id="line2d_31">
      <g>
       <use xlink:href="#m00919433f0" x="723.462675" y="242.722187" style="stroke: #000000; stroke-width: 0.8"/>
      </g>
     </g>
    </g>
    <g id="xtick_14">
     <g id="line2d_32">
      <path d="M 831.56931 242.722187 
L 831.56931 169.79625 
" clip-path="url(#pe2a1fed52a)" style="fill: none; stroke-dasharray: 2.96,1.28; stroke-dashoffset: 0; stroke: #b0b0b0; stroke-opacity: 0.5; stroke-width: 0.8"/>
     </g>
     <g id="line2d_33">
      <g>
       <use xlink:href="#m00919433f0" x="831.56931" y="242.722187" style="stroke: #000000; stroke-width: 0.8"/>
      </g>
     </g>
    </g>
   </g>
   <g id="matplotlib.axis_4">
    <g id="ytick_3">
     <g id="line2d_34">
      <path d="M 182.9295 232.304196 
L 831.56931 232.304196 
" clip-path="url(#pe2a1fed52a)" style="fill: none; stroke-dasharray: 2.96,1.28; stroke-dashoffset: 0; stroke: #b0b0b0; stroke-opacity: 0.5; stroke-width: 0.8"/>
     </g>
     <g id="line2d_35">
      <g>
       <use xlink:href="#mbb4d6511d4" x="182.9295" y="232.304196" style="stroke: #000000; stroke-width: 0.8"/>
      </g>
     </g>
     <g id="text_5">
      <!-- 0V -->
      <g transform="translate(162.702313 235.723142) scale(0.09 -0.09)">
       <use xlink:href="#DejaVuSans-Bold-13"/>
       <use xlink:href="#DejaVuSans-Bold-39" transform="translate(69.578125 0)"/>
      </g>
     </g>
    </g>
    <g id="ytick_4">
     <g id="line2d_36">
      <path d="M 182.9295 180.214241 
L 831.56931 180.214241 
" clip-path="url(#pe2a1fed52a)" style="fill: none; stroke-dasharray: 2.96,1.28; stroke-dashoffset: 0; stroke: #b0b0b0; stroke-opacity: 0.5; stroke-width: 0.8"/>
     </g>
     <g id="line2d_37">
      <g>
       <use xlink:href="#mbb4d6511d4" x="182.9295" y="180.214241" style="stroke: #000000; stroke-width: 0.8"/>
      </g>
     </g>
     <g id="text_6">
      <!-- Alto -->
      <g transform="translate(155.394031 183.633538) scale(0.09 -0.09)">
       <use xlink:href="#DejaVuSans-Bold-24"/>
       <use xlink:href="#DejaVuSans-Bold-4f" transform="translate(77.390625 0)"/>
       <use xlink:href="#DejaVuSans-Bold-57" transform="translate(111.671875 0)"/>
       <use xlink:href="#DejaVuSans-Bold-52" transform="translate(159.46875 0)"/>
      </g>
     </g>
    </g>
   </g>
   <g id="line2d_38">
    <path d="M 182.9295 180.214241 
L 713.005395 180.214241 
L 713.005395 232.304196 
L 759.738617 232.304196 
L 759.738617 180.214241 
L 831.56931 180.214241 
L 831.56931 180.214241 
" clip-path="url(#pe2a1fed52a)" style="fill: none; stroke: #ec4899; stroke-width: 2; stroke-linecap: square"/>
   </g>
   <g id="patch_8">
    <path d="M 182.9295 242.722187 
L 182.9295 169.79625 
" style="fill: none; stroke: #000000; stroke-width: 0.8; stroke-linejoin: miter; stroke-linecap: square"/>
   </g>
   <g id="patch_9">
    <path d="M 182.9295 242.722187 
L 831.56931 242.722187 
" style="fill: none; stroke: #000000; stroke-width: 0.8; stroke-linejoin: miter; stroke-linecap: square"/>
   </g>
   <g id="text_7">
    <!-- Canal 2: ACK (Arduino) -->
    <g style="fill: #1e293b" transform="translate(40.842641 208.857266) scale(0.1 -0.1)">
     <defs>
      <path id="DejaVuSans-Bold-2e" d="M 588 4666 
L 1791 4666 
L 1791 2963 
L 3525 4666 
L 4922 4666 
L 2675 2456 
L 5153 0 
L 3647 0 
L 1791 1838 
L 1791 0 
L 588 0 
L 588 4666 
z
" transform="scale(0.015625)"/>
      <path id="DejaVuSans-Bold-55" d="M 3138 2547 
Q 2991 2616 2845 2648 
Q 2700 2681 2553 2681 
Q 2122 2681 1889 2404 
Q 1656 2128 1656 1613 
L 1656 0 
L 538 0 
L 538 3500 
L 1656 3500 
L 1656 2925 
Q 1872 3269 2151 3426 
Q 2431 3584 2822 3584 
Q 2878 3584 2943 3579 
Q 3009 3575 3134 3559 
L 3138 2547 
z
" transform="scale(0.015625)"/>
      <path id="DejaVuSans-Bold-47" d="M 2919 2988 
L 2919 4863 
L 4044 4863 
L 4044 0 
L 2919 0 
L 2919 506 
Q 2688 197 2409 53 
Q 2131 -91 1766 -91 
Q 1119 -91 703 423 
Q 288 938 288 1747 
Q 288 2556 703 3070 
Q 1119 3584 1766 3584 
Q 2128 3584 2408 3439 
Q 2688 3294 2919 2988 
z
M 2181 722 
Q 2541 722 2730 984 
Q 2919 1247 2919 1747 
Q 2919 2247 2730 2509 
Q 2541 2772 2181 2772 
Q 1825 2772 1636 2509 
Q 1447 2247 1447 1747 
Q 1447 1247 1636 984 
Q 1825 722 2181 722 
z
" transform="scale(0.015625)"/>
      <path id="DejaVuSans-Bold-4c" d="M 538 3500 
L 1656 3500 
L 1656 0 
L 538 0 
L 538 3500 
z
M 538 4863 
L 1656 4863 
L 1656 3950 
L 538 3950 
L 538 4863 
z
" transform="scale(0.015625)"/>
     </defs>
     <use xlink:href="#DejaVuSans-Bold-26"/>
     <use xlink:href="#DejaVuSans-Bold-44" transform="translate(73.390625 0)"/>
     <use xlink:href="#DejaVuSans-Bold-51" transform="translate(140.875 0)"/>
     <use xlink:href="#DejaVuSans-Bold-44" transform="translate(212.0625 0)"/>
     <use xlink:href="#DejaVuSans-Bold-4f" transform="translate(279.546875 0)"/>
     <use xlink:href="#DejaVuSans-Bold-3" transform="translate(313.828125 0)"/>
     <use xlink:href="#DejaVuSans-Bold-15" transform="translate(348.640625 0)"/>
     <use xlink:href="#DejaVuSans-Bold-1d" transform="translate(418.21875 0)"/>
     <use xlink:href="#DejaVuSans-Bold-3" transform="translate(458.203125 0)"/>
     <use xlink:href="#DejaVuSans-Bold-24" transform="translate(493.015625 0)"/>
     <use xlink:href="#DejaVuSans-Bold-26" transform="translate(570.40625 0)"/>
     <use xlink:href="#DejaVuSans-Bold-2e" transform="translate(643.796875 0)"/>
     <use xlink:href="#DejaVuSans-Bold-3" transform="translate(721.28125 0)"/>
     <use xlink:href="#DejaVuSans-Bold-b" transform="translate(756.09375 0)"/>
     <use xlink:href="#DejaVuSans-Bold-24" transform="translate(801.796875 0)"/>
     <use xlink:href="#DejaVuSans-Bold-55" transform="translate(879.1875 0)"/>
     <use xlink:href="#DejaVuSans-Bold-47" transform="translate(928.5 0)"/>
     <use xlink:href="#DejaVuSans-Bold-58" transform="translate(1000.078125 0)"/>
     <use xlink:href="#DejaVuSans-Bold-4c" transform="translate(1071.265625 0)"/>
     <use xlink:href="#DejaVuSans-Bold-51" transform="translate(1105.546875 0)"/>
     <use xlink:href="#DejaVuSans-Bold-52" transform="translate(1176.734375 0)"/>
     <use xlink:href="#DejaVuSans-Bold-c" transform="translate(1245.4375 0)"/>
    </g>
   </g>
   <g id="text_8">
    <!-- T2 = 112.0 us -->
    <g style="fill: #ef4444" transform="translate(647.625477 208.597109) scale(0.09 -0.09)">
     <use xlink:href="#DejaVuSans-Bold-37"/>
     <use xlink:href="#DejaVuSans-Bold-15" transform="translate(68.21875 0)"/>
     <use xlink:href="#DejaVuSans-Bold-3" transform="translate(137.796875 0)"/>
     <use xlink:href="#DejaVuSans-Bold-20" transform="translate(172.609375 0)"/>
     <use xlink:href="#DejaVuSans-Bold-3" transform="translate(256.40625 0)"/>
     <use xlink:href="#DejaVuSans-Bold-14" transform="translate(291.21875 0)"/>
     <use xlink:href="#DejaVuSans-Bold-14" transform="translate(360.796875 0)"/>
     <use xlink:href="#DejaVuSans-Bold-15" transform="translate(430.375 0)"/>
     <use xlink:href="#DejaVuSans-Bold-11" transform="translate(499.953125 0)"/>
     <use xlink:href="#DejaVuSans-Bold-13" transform="translate(537.9375 0)"/>
     <use xlink:href="#DejaVuSans-Bold-3" transform="translate(607.515625 0)"/>
     <use xlink:href="#DejaVuSans-Bold-58" transform="translate(642.328125 0)"/>
     <use xlink:href="#DejaVuSans-Bold-56" transform="translate(713.515625 0)"/>
    </g>
   </g>
  </g>
  <g id="axes_3">
   <g id="patch_10">
    <path d="M 182.9295 329.948125 
L 831.56931 329.948125 
L 831.56931 257.022187 
L 182.9295 257.022187 
z
" style="fill: #ffffff"/>
   </g>
   <g id="matplotlib.axis_5">
    <g id="xtick_15">
     <g id="line2d_39">
      <path d="M 182.9295 329.948125 
L 182.9295 257.022187 
" clip-path="url(#pb4863f7e01)" style="fill: none; stroke-dasharray: 2.96,1.28; stroke-dashoffset: 0; stroke: #b0b0b0; stroke-opacity: 0.5; stroke-width: 0.8"/>
     </g>
     <g id="line2d_40">
      <g>
       <use xlink:href="#m00919433f0" x="182.9295" y="329.948125" style="stroke: #000000; stroke-width: 0.8"/>
      </g>
     </g>
    </g>
    <g id="xtick_16">
     <g id="line2d_41">
      <path d="M 291.036135 329.948125 
L 291.036135 257.022187 
" clip-path="url(#pb4863f7e01)" style="fill: none; stroke-dasharray: 2.96,1.28; stroke-dashoffset: 0; stroke: #b0b0b0; stroke-opacity: 0.5; stroke-width: 0.8"/>
     </g>
     <g id="line2d_42">
      <g>
       <use xlink:href="#m00919433f0" x="291.036135" y="329.948125" style="stroke: #000000; stroke-width: 0.8"/>
      </g>
     </g>
    </g>
    <g id="xtick_17">
     <g id="line2d_43">
      <path d="M 399.14277 329.948125 
L 399.14277 257.022187 
" clip-path="url(#pb4863f7e01)" style="fill: none; stroke-dasharray: 2.96,1.28; stroke-dashoffset: 0; stroke: #b0b0b0; stroke-opacity: 0.5; stroke-width: 0.8"/>
     </g>
     <g id="line2d_44">
      <g>
       <use xlink:href="#m00919433f0" x="399.14277" y="329.948125" style="stroke: #000000; stroke-width: 0.8"/>
      </g>
     </g>
    </g>
    <g id="xtick_18">
     <g id="line2d_45">
      <path d="M 507.249405 329.948125 
L 507.249405 257.022187 
" clip-path="url(#pb4863f7e01)" style="fill: none; stroke-dasharray: 2.96,1.28; stroke-dashoffset: 0; stroke: #b0b0b0; stroke-opacity: 0.5; stroke-width: 0.8"/>
     </g>
     <g id="line2d_46">
      <g>
       <use xlink:href="#m00919433f0" x="507.249405" y="329.948125" style="stroke: #000000; stroke-width: 0.8"/>
      </g>
     </g>
    </g>
    <g id="xtick_19">
     <g id="line2d_47">
      <path d="M 615.35604 329.948125 
L 615.35604 257.022187 
" clip-path="url(#pb4863f7e01)" style="fill: none; stroke-dasharray: 2.96,1.28; stroke-dashoffset: 0; stroke: #b0b0b0; stroke-opacity: 0.5; stroke-width: 0.8"/>
     </g>
     <g id="line2d_48">
      <g>
       <use xlink:href="#m00919433f0" x="615.35604" y="329.948125" style="stroke: #000000; stroke-width: 0.8"/>
      </g>
     </g>
    </g>
    <g id="xtick_20">
     <g id="line2d_49">
      <path d="M 723.462675 329.948125 
L 723.462675 257.022187 
" clip-path="url(#pb4863f7e01)" style="fill: none; stroke-dasharray: 2.96,1.28; stroke-dashoffset: 0; stroke: #b0b0b0; stroke-opacity: 0.5; stroke-width: 0.8"/>
     </g>
     <g id="line2d_50">
      <g>
       <use xlink:href="#m00919433f0" x="723.462675" y="329.948125" style="stroke: #000000; stroke-width: 0.8"/>
      </g>
     </g>
    </g>
    <g id="xtick_21">
     <g id="line2d_51">
      <path d="M 831.56931 329.948125 
L 831.56931 257.022187 
" clip-path="url(#pb4863f7e01)" style="fill: none; stroke-dasharray: 2.96,1.28; stroke-dashoffset: 0; stroke: #b0b0b0; stroke-opacity: 0.5; stroke-width: 0.8"/>
     </g>
     <g id="line2d_52">
      <g>
       <use xlink:href="#m00919433f0" x="831.56931" y="329.948125" style="stroke: #000000; stroke-width: 0.8"/>
      </g>
     </g>
    </g>
   </g>
   <g id="matplotlib.axis_6">
    <g id="ytick_5">
     <g id="line2d_53">
      <path d="M 182.9295 319.530134 
L 831.56931 319.530134 
" clip-path="url(#pb4863f7e01)" style="fill: none; stroke-dasharray: 2.96,1.28; stroke-dashoffset: 0; stroke: #b0b0b0; stroke-opacity: 0.5; stroke-width: 0.8"/>
     </g>
     <g id="line2d_54">
      <g>
       <use xlink:href="#mbb4d6511d4" x="182.9295" y="319.530134" style="stroke: #000000; stroke-width: 0.8"/>
      </g>
     </g>
     <g id="text_9">
      <!-- 0V -->
      <g transform="translate(162.702313 322.949079) scale(0.09 -0.09)">
       <use xlink:href="#DejaVuSans-Bold-13"/>
       <use xlink:href="#DejaVuSans-Bold-39" transform="translate(69.578125 0)"/>
      </g>
     </g>
    </g>
    <g id="ytick_6">
     <g id="line2d_55">
      <path d="M 182.9295 267.440179 
L 831.56931 267.440179 
" clip-path="url(#pb4863f7e01)" style="fill: none; stroke-dasharray: 2.96,1.28; stroke-dashoffset: 0; stroke: #b0b0b0; stroke-opacity: 0.5; stroke-width: 0.8"/>
     </g>
     <g id="line2d_56">
      <g>
       <use xlink:href="#mbb4d6511d4" x="182.9295" y="267.440179" style="stroke: #000000; stroke-width: 0.8"/>
      </g>
     </g>
     <g id="text_10">
      <!-- Alto -->
      <g transform="translate(155.394031 270.859475) scale(0.09 -0.09)">
       <use xlink:href="#DejaVuSans-Bold-24"/>
       <use xlink:href="#DejaVuSans-Bold-4f" transform="translate(77.390625 0)"/>
       <use xlink:href="#DejaVuSans-Bold-57" transform="translate(111.671875 0)"/>
       <use xlink:href="#DejaVuSans-Bold-52" transform="translate(159.46875 0)"/>
      </g>
     </g>
    </g>
   </g>
   <g id="line2d_57">
    <path d="M 182.9295 267.440179 
L 739.833726 267.440179 
L 739.833726 319.530134 
L 742.430017 319.530134 
L 742.430017 267.440179 
L 831.56931 267.440179 
L 831.56931 267.440179 
" clip-path="url(#pb4863f7e01)" style="fill: none; stroke: #0ea5e9; stroke-width: 2; stroke-linecap: square"/>
   </g>
   <g id="line2d_58">
    <path d="M 739.7084 329.948125 
L 739.7084 257.022187 
" clip-path="url(#pb4863f7e01)" style="fill: none; stroke-dasharray: 5.55,2.4; stroke-dashoffset: 0; stroke: #ef4444; stroke-width: 1.5"/>
   </g>
   <g id="patch_11">
    <path d="M 182.9295 329.948125 
L 182.9295 257.022187 
" style="fill: none; stroke: #000000; stroke-width: 0.8; stroke-linejoin: miter; stroke-linecap: square"/>
   </g>
   <g id="patch_12">
    <path d="M 182.9295 329.948125 
L 831.56931 329.948125 
" style="fill: none; stroke: #000000; stroke-width: 0.8; stroke-linejoin: miter; stroke-linecap: square"/>
   </g>
   <g id="text_11">
    <!-- Canal 3: Trigger (Hardware) -->
    <g style="fill: #1e293b" transform="translate(13.012954 296.083203) scale(0.1 -0.1)">
     <defs>
      <path id="DejaVuSans-Bold-4a" d="M 2919 594 
Q 2688 288 2409 144 
Q 2131 0 1766 0 
Q 1125 0 706 504 
Q 288 1009 288 1791 
Q 288 2575 706 3076 
Q 1125 3578 1766 3578 
Q 2131 3578 2409 3434 
Q 2688 3291 2919 2981 
L 2919 3500 
L 4044 3500 
L 4044 353 
Q 4044 -491 3511 -936 
Q 2978 -1381 1966 -1381 
Q 1638 -1381 1331 -1331 
Q 1025 -1281 716 -1178 
L 716 -306 
Q 1009 -475 1290 -558 
Q 1572 -641 1856 -641 
Q 2406 -641 2662 -400 
Q 2919 -159 2919 353 
L 2919 594 
z
M 2181 2772 
Q 1834 2772 1640 2515 
Q 1447 2259 1447 1791 
Q 1447 1309 1634 1061 
Q 1822 813 2181 813 
Q 2531 813 2725 1069 
Q 2919 1325 2919 1791 
Q 2919 2259 2725 2515 
Q 2531 2772 2181 2772 
z
" transform="scale(0.015625)"/>
      <path id="DejaVuSans-Bold-48" d="M 4031 1759 
L 4031 1441 
L 1416 1441 
Q 1456 1047 1700 850 
Q 1944 653 2381 653 
Q 2734 653 3104 758 
Q 3475 863 3866 1075 
L 3866 213 
Q 3469 63 3072 -14 
Q 2675 -91 2278 -91 
Q 1328 -91 801 392 
Q 275 875 275 1747 
Q 275 2603 792 3093 
Q 1309 3584 2216 3584 
Q 3041 3584 3536 3087 
Q 4031 2591 4031 1759 
z
M 2881 2131 
Q 2881 2450 2695 2645 
Q 2509 2841 2209 2841 
Q 1884 2841 1681 2658 
Q 1478 2475 1428 2131 
L 2881 2131 
z
" transform="scale(0.015625)"/>
      <path id="DejaVuSans-Bold-2b" d="M 588 4666 
L 1791 4666 
L 1791 2888 
L 3566 2888 
L 3566 4666 
L 4769 4666 
L 4769 0 
L 3566 0 
L 3566 1978 
L 1791 1978 
L 1791 0 
L 588 0 
L 588 4666 
z
" transform="scale(0.015625)"/>
      <path id="DejaVuSans-Bold-5a" d="M 225 3500 
L 1313 3500 
L 1900 1088 
L 2491 3500 
L 3425 3500 
L 4013 1113 
L 4603 3500 
L 5691 3500 
L 4769 0 
L 3547 0 
L 2956 2406 
L 2369 0 
L 1147 0 
L 225 3500 
z
" transform="scale(0.015625)"/>
     </defs>
     <use xlink:href="#DejaVuSans-Bold-26"/>
     <use xlink:href="#DejaVuSans-Bold-44" transform="translate(73.390625 0)"/>
     <use xlink:href="#DejaVuSans-Bold-51" transform="translate(140.875 0)"/>
     <use xlink:href="#DejaVuSans-Bold-44" transform="translate(212.0625 0)"/>
     <use xlink:href="#DejaVuSans-Bold-4f" transform="translate(279.546875 0)"/>
     <use xlink:href="#DejaVuSans-Bold-3" transform="translate(313.828125 0)"/>
     <use xlink:href="#DejaVuSans-Bold-16" transform="translate(348.640625 0)"/>
     <use xlink:href="#DejaVuSans-Bold-1d" transform="translate(418.21875 0)"/>
     <use xlink:href="#DejaVuSans-Bold-3" transform="translate(458.203125 0)"/>
     <use xlink:href="#DejaVuSans-Bold-37" transform="translate(493.015625 0)"/>
     <use xlink:href="#DejaVuSans-Bold-55" transform="translate(550.25 0)"/>
     <use xlink:href="#DejaVuSans-Bold-4c" transform="translate(599.5625 0)"/>
     <use xlink:href="#DejaVuSans-Bold-4a" transform="translate(633.84375 0)"/>
     <use xlink:href="#DejaVuSans-Bold-4a" transform="translate(705.421875 0)"/>
     <use xlink:href="#DejaVuSans-Bold-48" transform="translate(777 0)"/>
     <use xlink:href="#DejaVuSans-Bold-55" transform="translate(844.828125 0)"/>
     <use xlink:href="#DejaVuSans-Bold-3" transform="translate(894.140625 0)"/>
     <use xlink:href="#DejaVuSans-Bold-b" transform="translate(928.953125 0)"/>
     <use xlink:href="#DejaVuSans-Bold-2b" transform="translate(974.65625 0)"/>
     <use xlink:href="#DejaVuSans-Bold-44" transform="translate(1058.34375 0)"/>
     <use xlink:href="#DejaVuSans-Bold-55" transform="translate(1125.828125 0)"/>
     <use xlink:href="#DejaVuSans-Bold-47" transform="translate(1175.140625 0)"/>
     <use xlink:href="#DejaVuSans-Bold-5a" transform="translate(1246.71875 0)"/>
     <use xlink:href="#DejaVuSans-Bold-44" transform="translate(1339.109375 0)"/>
     <use xlink:href="#DejaVuSans-Bold-55" transform="translate(1406.59375 0)"/>
     <use xlink:href="#DejaVuSans-Bold-48" transform="translate(1455.90625 0)"/>
     <use xlink:href="#DejaVuSans-Bold-c" transform="translate(1523.734375 0)"/>
    </g>
   </g>
   <g id="text_12">
    <!-- TRIGGER (1030.1 us) -->
    <g style="fill: #ef4444" transform="translate(745.113731 295.823047) scale(0.09 -0.09)">
     <defs>
      <path id="DejaVuSans-Bold-2c" d="M 588 4666 
L 1791 4666 
L 1791 0 
L 588 0 
L 588 4666 
z
" transform="scale(0.015625)"/>
      <path id="DejaVuSans-Bold-2a" d="M 4781 347 
Q 4331 128 3847 18 
Q 3363 -91 2847 -91 
Q 1681 -91 1000 561 
Q 319 1213 319 2328 
Q 319 3456 1012 4103 
Q 1706 4750 2913 4750 
Q 3378 4750 3804 4662 
Q 4231 4575 4609 4403 
L 4609 3438 
Q 4219 3659 3833 3768 
Q 3447 3878 3059 3878 
Q 2341 3878 1952 3476 
Q 1563 3075 1563 2328 
Q 1563 1588 1938 1184 
Q 2313 781 3003 781 
Q 3191 781 3352 804 
Q 3513 828 3641 878 
L 3641 1784 
L 2906 1784 
L 2906 2591 
L 4781 2591 
L 4781 347 
z
" transform="scale(0.015625)"/>
     </defs>
     <use xlink:href="#DejaVuSans-Bold-37"/>
     <use xlink:href="#DejaVuSans-Bold-35" transform="translate(68.21875 0)"/>
     <use xlink:href="#DejaVuSans-Bold-2c" transform="translate(145.21875 0)"/>
     <use xlink:href="#DejaVuSans-Bold-2a" transform="translate(182.421875 0)"/>
     <use xlink:href="#DejaVuSans-Bold-2a" transform="translate(264.5 0)"/>
     <use xlink:href="#DejaVuSans-Bold-28" transform="translate(346.578125 0)"/>
     <use xlink:href="#DejaVuSans-Bold-35" transform="translate(414.890625 0)"/>
     <use xlink:href="#DejaVuSans-Bold-3" transform="translate(491.890625 0)"/>
     <use xlink:href="#DejaVuSans-Bold-b" transform="translate(526.703125 0)"/>
     <use xlink:href="#DejaVuSans-Bold-14" transform="translate(572.40625 0)"/>
     <use xlink:href="#DejaVuSans-Bold-13" transform="translate(641.984375 0)"/>
     <use xlink:href="#DejaVuSans-Bold-16" transform="translate(711.5625 0)"/>
     <use xlink:href="#DejaVuSans-Bold-13" transform="translate(781.140625 0)"/>
     <use xlink:href="#DejaVuSans-Bold-11" transform="translate(850.71875 0)"/>
     <use xlink:href="#DejaVuSans-Bold-14" transform="translate(888.703125 0)"/>
     <use xlink:href="#DejaVuSans-Bold-3" transform="translate(958.28125 0)"/>
     <use xlink:href="#DejaVuSans-Bold-58" transform="translate(993.09375 0)"/>
     <use xlink:href="#DejaVuSans-Bold-56" transform="translate(1064.28125 0)"/>
     <use xlink:href="#DejaVuSans-Bold-c" transform="translate(1123.796875 0)"/>
    </g>
   </g>
  </g>
  <g id="axes_4">
   <g id="patch_13">
    <path d="M 182.9295 417.174062 
L 831.56931 417.174062 
L 831.56931 344.248125 
L 182.9295 344.248125 
z
" style="fill: #ffffff"/>
   </g>
   <g id="matplotlib.axis_7">
    <g id="xtick_22">
     <g id="line2d_59">
      <path d="M 182.9295 417.174062 
L 182.9295 344.248125 
" clip-path="url(#p469de6f4ea)" style="fill: none; stroke-dasharray: 2.96,1.28; stroke-dashoffset: 0; stroke: #b0b0b0; stroke-opacity: 0.5; stroke-width: 0.8"/>
     </g>
     <g id="line2d_60">
      <g>
       <use xlink:href="#m00919433f0" x="182.9295" y="417.174062" style="stroke: #000000; stroke-width: 0.8"/>
      </g>
     </g>
    </g>
    <g id="xtick_23">
     <g id="line2d_61">
      <path d="M 291.036135 417.174062 
L 291.036135 344.248125 
" clip-path="url(#p469de6f4ea)" style="fill: none; stroke-dasharray: 2.96,1.28; stroke-dashoffset: 0; stroke: #b0b0b0; stroke-opacity: 0.5; stroke-width: 0.8"/>
     </g>
     <g id="line2d_62">
      <g>
       <use xlink:href="#m00919433f0" x="291.036135" y="417.174062" style="stroke: #000000; stroke-width: 0.8"/>
      </g>
     </g>
    </g>
    <g id="xtick_24">
     <g id="line2d_63">
      <path d="M 399.14277 417.174062 
L 399.14277 344.248125 
" clip-path="url(#p469de6f4ea)" style="fill: none; stroke-dasharray: 2.96,1.28; stroke-dashoffset: 0; stroke: #b0b0b0; stroke-opacity: 0.5; stroke-width: 0.8"/>
     </g>
     <g id="line2d_64">
      <g>
       <use xlink:href="#m00919433f0" x="399.14277" y="417.174062" style="stroke: #000000; stroke-width: 0.8"/>
      </g>
     </g>
    </g>
    <g id="xtick_25">
     <g id="line2d_65">
      <path d="M 507.249405 417.174062 
L 507.249405 344.248125 
" clip-path="url(#p469de6f4ea)" style="fill: none; stroke-dasharray: 2.96,1.28; stroke-dashoffset: 0; stroke: #b0b0b0; stroke-opacity: 0.5; stroke-width: 0.8"/>
     </g>
     <g id="line2d_66">
      <g>
       <use xlink:href="#m00919433f0" x="507.249405" y="417.174062" style="stroke: #000000; stroke-width: 0.8"/>
      </g>
     </g>
    </g>
    <g id="xtick_26">
     <g id="line2d_67">
      <path d="M 615.35604 417.174062 
L 615.35604 344.248125 
" clip-path="url(#p469de6f4ea)" style="fill: none; stroke-dasharray: 2.96,1.28; stroke-dashoffset: 0; stroke: #b0b0b0; stroke-opacity: 0.5; stroke-width: 0.8"/>
     </g>
     <g id="line2d_68">
      <g>
       <use xlink:href="#m00919433f0" x="615.35604" y="417.174062" style="stroke: #000000; stroke-width: 0.8"/>
      </g>
     </g>
    </g>
    <g id="xtick_27">
     <g id="line2d_69">
      <path d="M 723.462675 417.174062 
L 723.462675 344.248125 
" clip-path="url(#p469de6f4ea)" style="fill: none; stroke-dasharray: 2.96,1.28; stroke-dashoffset: 0; stroke: #b0b0b0; stroke-opacity: 0.5; stroke-width: 0.8"/>
     </g>
     <g id="line2d_70">
      <g>
       <use xlink:href="#m00919433f0" x="723.462675" y="417.174062" style="stroke: #000000; stroke-width: 0.8"/>
      </g>
     </g>
    </g>
    <g id="xtick_28">
     <g id="line2d_71">
      <path d="M 831.56931 417.174062 
L 831.56931 344.248125 
" clip-path="url(#p469de6f4ea)" style="fill: none; stroke-dasharray: 2.96,1.28; stroke-dashoffset: 0; stroke: #b0b0b0; stroke-opacity: 0.5; stroke-width: 0.8"/>
     </g>
     <g id="line2d_72">
      <g>
       <use xlink:href="#m00919433f0" x="831.56931" y="417.174062" style="stroke: #000000; stroke-width: 0.8"/>
      </g>
     </g>
    </g>
   </g>
   <g id="matplotlib.axis_8">
    <g id="ytick_7">
     <g id="line2d_73">
      <path d="M 182.9295 406.756071 
L 831.56931 406.756071 
" clip-path="url(#p469de6f4ea)" style="fill: none; stroke-dasharray: 2.96,1.28; stroke-dashoffset: 0; stroke: #b0b0b0; stroke-opacity: 0.5; stroke-width: 0.8"/>
     </g>
     <g id="line2d_74">
      <g>
       <use xlink:href="#mbb4d6511d4" x="182.9295" y="406.756071" style="stroke: #000000; stroke-width: 0.8"/>
      </g>
     </g>
     <g id="text_13">
      <!-- 0V -->
      <g transform="translate(162.702313 410.175017) scale(0.09 -0.09)">
       <use xlink:href="#DejaVuSans-Bold-13"/>
       <use xlink:href="#DejaVuSans-Bold-39" transform="translate(69.578125 0)"/>
      </g>
     </g>
    </g>
    <g id="ytick_8">
     <g id="line2d_75">
      <path d="M 182.9295 354.666116 
L 831.56931 354.666116 
" clip-path="url(#p469de6f4ea)" style="fill: none; stroke-dasharray: 2.96,1.28; stroke-dashoffset: 0; stroke: #b0b0b0; stroke-opacity: 0.5; stroke-width: 0.8"/>
     </g>
     <g id="line2d_76">
      <g>
       <use xlink:href="#mbb4d6511d4" x="182.9295" y="354.666116" style="stroke: #000000; stroke-width: 0.8"/>
      </g>
     </g>
     <g id="text_14">
      <!-- Pulsos -->
      <g transform="translate(142.9445 358.085413) scale(0.09 -0.09)">
       <use xlink:href="#DejaVuSans-Bold-33"/>
       <use xlink:href="#DejaVuSans-Bold-58" transform="translate(73.296875 0)"/>
       <use xlink:href="#DejaVuSans-Bold-4f" transform="translate(144.484375 0)"/>
       <use xlink:href="#DejaVuSans-Bold-56" transform="translate(178.765625 0)"/>
       <use xlink:href="#DejaVuSans-Bold-52" transform="translate(238.28125 0)"/>
       <use xlink:href="#DejaVuSans-Bold-56" transform="translate(306.984375 0)"/>
      </g>
     </g>
    </g>
   </g>
   <g id="line2d_77">
    <path d="M 182.9295 406.756071 
L 741.131872 406.756071 
L 741.131872 354.666116 
L 742.430017 354.666116 
L 742.430017 406.756071 
L 768.392918 406.756071 
L 768.392918 354.666116 
L 769.258348 354.666116 
L 769.258348 406.756071 
L 795.221249 406.756071 
L 795.221249 354.666116 
L 796.519394 354.666116 
L 796.519394 406.756071 
L 831.56931 406.756071 
L 831.56931 406.756071 
" clip-path="url(#p469de6f4ea)" style="fill: none; stroke: #f97316; stroke-width: 2; stroke-linecap: square"/>
   </g>
   <g id="patch_14">
    <path d="M 182.9295 417.174062 
L 182.9295 344.248125 
" style="fill: none; stroke: #000000; stroke-width: 0.8; stroke-linejoin: miter; stroke-linecap: square"/>
   </g>
   <g id="patch_15">
    <path d="M 182.9295 417.174062 
L 831.56931 417.174062 
" style="fill: none; stroke: #000000; stroke-width: 0.8; stroke-linejoin: miter; stroke-linecap: square"/>
   </g>
   <g id="text_15">
    <!-- Canal 4: PUL J1 (ESP32) -->
    <g style="fill: #1e293b" transform="translate(36.773891 383.309141) scale(0.1 -0.1)">
     <defs>
      <path id="DejaVuSans-Bold-17" d="M 2356 3675 
L 1038 1722 
L 2356 1722 
L 2356 3675 
z
M 2156 4666 
L 3494 4666 
L 3494 1722 
L 4159 1722 
L 4159 850 
L 3494 850 
L 3494 0 
L 2356 0 
L 2356 850 
L 288 850 
L 288 1881 
L 2156 4666 
z
" transform="scale(0.015625)"/>
      <path id="DejaVuSans-Bold-2f" d="M 588 4666 
L 1791 4666 
L 1791 909 
L 3903 909 
L 3903 0 
L 588 0 
L 588 4666 
z
" transform="scale(0.015625)"/>
      <path id="DejaVuSans-Bold-2d" d="M 588 4666 
L 1791 4666 
L 1791 453 
Q 1791 -419 1317 -850 
Q 844 -1281 -116 -1281 
L -359 -1281 
L -359 -372 
L -172 -372 
Q 203 -372 395 -162 
Q 588 47 588 453 
L 588 4666 
z
" transform="scale(0.015625)"/>
     </defs>
     <use xlink:href="#DejaVuSans-Bold-26"/>
     <use xlink:href="#DejaVuSans-Bold-44" transform="translate(73.390625 0)"/>
     <use xlink:href="#DejaVuSans-Bold-51" transform="translate(140.875 0)"/>
     <use xlink:href="#DejaVuSans-Bold-44" transform="translate(212.0625 0)"/>
     <use xlink:href="#DejaVuSans-Bold-4f" transform="translate(279.546875 0)"/>
     <use xlink:href="#DejaVuSans-Bold-3" transform="translate(313.828125 0)"/>
     <use xlink:href="#DejaVuSans-Bold-17" transform="translate(348.640625 0)"/>
     <use xlink:href="#DejaVuSans-Bold-1d" transform="translate(418.21875 0)"/>
     <use xlink:href="#DejaVuSans-Bold-3" transform="translate(458.203125 0)"/>
     <use xlink:href="#DejaVuSans-Bold-33" transform="translate(493.015625 0)"/>
     <use xlink:href="#DejaVuSans-Bold-38" transform="translate(566.3125 0)"/>
     <use xlink:href="#DejaVuSans-Bold-2f" transform="translate(647.515625 0)"/>
     <use xlink:href="#DejaVuSans-Bold-3" transform="translate(711.234375 0)"/>
     <use xlink:href="#DejaVuSans-Bold-2d" transform="translate(746.046875 0)"/>
     <use xlink:href="#DejaVuSans-Bold-14" transform="translate(783.25 0)"/>
     <use xlink:href="#DejaVuSans-Bold-3" transform="translate(852.828125 0)"/>
     <use xlink:href="#DejaVuSans-Bold-b" transform="translate(887.640625 0)"/>
     <use xlink:href="#DejaVuSans-Bold-28" transform="translate(933.34375 0)"/>
     <use xlink:href="#DejaVuSans-Bold-36" transform="translate(1001.65625 0)"/>
     <use xlink:href="#DejaVuSans-Bold-33" transform="translate(1073.671875 0)"/>
     <use xlink:href="#DejaVuSans-Bold-16" transform="translate(1146.96875 0)"/>
     <use xlink:href="#DejaVuSans-Bold-15" transform="translate(1216.546875 0)"/>
     <use xlink:href="#DejaVuSans-Bold-c" transform="translate(1286.125 0)"/>
    </g>
   </g>
  </g>
  <g id="axes_5">
   <g id="patch_16">
    <path d="M 182.9295 504.4 
L 831.56931 504.4 
L 831.56931 431.474062 
L 182.9295 431.474062 
z
" style="fill: #ffffff"/>
   </g>
   <g id="patch_17">
    <path d="M 739.805696 504.4 
L 741.005679 504.4 
L 741.005679 431.474062 
L 739.805696 431.474062 
z
" clip-path="url(#pbe7b6ef1a6)" style="fill: #ef4444; opacity: 0.2; stroke: #ef4444; stroke-linejoin: miter"/>
   </g>
   <g id="matplotlib.axis_9">
    <g id="xtick_29">
     <g id="line2d_78">
      <path d="M 182.9295 504.4 
L 182.9295 431.474062 
" clip-path="url(#pbe7b6ef1a6)" style="fill: none; stroke-dasharray: 2.96,1.28; stroke-dashoffset: 0; stroke: #b0b0b0; stroke-opacity: 0.5; stroke-width: 0.8"/>
     </g>
     <g id="line2d_79">
      <g>
       <use xlink:href="#m00919433f0" x="182.9295" y="504.4" style="stroke: #000000; stroke-width: 0.8"/>
      </g>
     </g>
     <g id="text_16">
      <!-- 0 -->
      <g transform="translate(179.74825 518.997656) scale(0.1 -0.1)">
       <defs>
        <path id="DejaVuSans-13" d="M 2034 4250 
Q 1547 4250 1301 3770 
Q 1056 3291 1056 2328 
Q 1056 1369 1301 889 
Q 1547 409 2034 409 
Q 2525 409 2770 889 
Q 3016 1369 3016 2328 
Q 3016 3291 2770 3770 
Q 2525 4250 2034 4250 
z
M 2034 4750 
Q 2819 4750 3233 4129 
Q 3647 3509 3647 2328 
Q 3647 1150 3233 529 
Q 2819 -91 2034 -91 
Q 1250 -91 836 529 
Q 422 1150 422 2328 
Q 422 3509 836 4129 
Q 1250 4750 2034 4750 
z
" transform="scale(0.015625)"/>
       </defs>
       <use xlink:href="#DejaVuSans-13"/>
      </g>
     </g>
    </g>
    <g id="xtick_30">
     <g id="line2d_80">
      <path d="M 291.036135 504.4 
L 291.036135 431.474062 
" clip-path="url(#pbe7b6ef1a6)" style="fill: none; stroke-dasharray: 2.96,1.28; stroke-dashoffset: 0; stroke: #b0b0b0; stroke-opacity: 0.5; stroke-width: 0.8"/>
     </g>
     <g id="line2d_81">
      <g>
       <use xlink:href="#m00919433f0" x="291.036135" y="504.4" style="stroke: #000000; stroke-width: 0.8"/>
      </g>
     </g>
     <g id="text_17">
      <!-- 200 -->
      <g transform="translate(281.492385 518.997656) scale(0.1 -0.1)">
       <defs>
        <path id="DejaVuSans-15" d="M 1228 531 
L 3431 531 
L 3431 0 
L 469 0 
L 469 531 
Q 828 903 1448 1529 
Q 2069 2156 2228 2338 
Q 2531 2678 2651 2914 
Q 2772 3150 2772 3378 
Q 2772 3750 2511 3984 
Q 2250 4219 1831 4219 
Q 1534 4219 1204 4116 
Q 875 4013 500 3803 
L 500 4441 
Q 881 4594 1212 4672 
Q 1544 4750 1819 4750 
Q 2544 4750 2975 4387 
Q 3406 4025 3406 3419 
Q 3406 3131 3298 2873 
Q 3191 2616 2906 2266 
Q 2828 2175 2409 1742 
Q 1991 1309 1228 531 
z
" transform="scale(0.015625)"/>
       </defs>
       <use xlink:href="#DejaVuSans-15"/>
       <use xlink:href="#DejaVuSans-13" transform="translate(63.625 0)"/>
       <use xlink:href="#DejaVuSans-13" transform="translate(127.25 0)"/>
      </g>
     </g>
    </g>
    <g id="xtick_31">
     <g id="line2d_82">
      <path d="M 399.14277 504.4 
L 399.14277 431.474062 
" clip-path="url(#pbe7b6ef1a6)" style="fill: none; stroke-dasharray: 2.96,1.28; stroke-dashoffset: 0; stroke: #b0b0b0; stroke-opacity: 0.5; stroke-width: 0.8"/>
     </g>
     <g id="line2d_83">
      <g>
       <use xlink:href="#m00919433f0" x="399.14277" y="504.4" style="stroke: #000000; stroke-width: 0.8"/>
      </g>
     </g>
     <g id="text_18">
      <!-- 400 -->
      <g transform="translate(389.59902 518.997656) scale(0.1 -0.1)">
       <defs>
        <path id="DejaVuSans-17" d="M 2419 4116 
L 825 1625 
L 2419 1625 
L 2419 4116 
z
M 2253 4666 
L 3047 4666 
L 3047 1625 
L 3713 1625 
L 3713 1100 
L 3047 1100 
L 3047 0 
L 2419 0 
L 2419 1100 
L 313 1100 
L 313 1709 
L 2253 4666 
z
" transform="scale(0.015625)"/>
       </defs>
       <use xlink:href="#DejaVuSans-17"/>
       <use xlink:href="#DejaVuSans-13" transform="translate(63.625 0)"/>
       <use xlink:href="#DejaVuSans-13" transform="translate(127.25 0)"/>
      </g>
     </g>
    </g>
    <g id="xtick_32">
     <g id="line2d_84">
      <path d="M 507.249405 504.4 
L 507.249405 431.474062 
" clip-path="url(#pbe7b6ef1a6)" style="fill: none; stroke-dasharray: 2.96,1.28; stroke-dashoffset: 0; stroke: #b0b0b0; stroke-opacity: 0.5; stroke-width: 0.8"/>
     </g>
     <g id="line2d_85">
      <g>
       <use xlink:href="#m00919433f0" x="507.249405" y="504.4" style="stroke: #000000; stroke-width: 0.8"/>
      </g>
     </g>
     <g id="text_19">
      <!-- 600 -->
      <g transform="translate(497.705655 518.997656) scale(0.1 -0.1)">
       <defs>
        <path id="DejaVuSans-19" d="M 2113 2584 
Q 1688 2584 1439 2293 
Q 1191 2003 1191 1497 
Q 1191 994 1439 701 
Q 1688 409 2113 409 
Q 2538 409 2786 701 
Q 3034 994 3034 1497 
Q 3034 2003 2786 2293 
Q 2538 2584 2113 2584 
z
M 3366 4563 
L 3366 3988 
Q 3128 4100 2886 4159 
Q 2644 4219 2406 4219 
Q 1781 4219 1451 3797 
Q 1122 3375 1075 2522 
Q 1259 2794 1537 2939 
Q 1816 3084 2150 3084 
Q 2853 3084 3261 2657 
Q 3669 2231 3669 1497 
Q 3669 778 3244 343 
Q 2819 -91 2113 -91 
Q 1303 -91 875 529 
Q 447 1150 447 2328 
Q 447 3434 972 4092 
Q 1497 4750 2381 4750 
Q 2619 4750 2861 4703 
Q 3103 4656 3366 4563 
z
" transform="scale(0.015625)"/>
       </defs>
       <use xlink:href="#DejaVuSans-19"/>
       <use xlink:href="#DejaVuSans-13" transform="translate(63.625 0)"/>
       <use xlink:href="#DejaVuSans-13" transform="translate(127.25 0)"/>
      </g>
     </g>
    </g>
    <g id="xtick_33">
     <g id="line2d_86">
      <path d="M 615.35604 504.4 
L 615.35604 431.474062 
" clip-path="url(#pbe7b6ef1a6)" style="fill: none; stroke-dasharray: 2.96,1.28; stroke-dashoffset: 0; stroke: #b0b0b0; stroke-opacity: 0.5; stroke-width: 0.8"/>
     </g>
     <g id="line2d_87">
      <g>
       <use xlink:href="#m00919433f0" x="615.35604" y="504.4" style="stroke: #000000; stroke-width: 0.8"/>
      </g>
     </g>
     <g id="text_20">
      <!-- 800 -->
      <g transform="translate(605.81229 518.997656) scale(0.1 -0.1)">
       <defs>
        <path id="DejaVuSans-1b" d="M 2034 2216 
Q 1584 2216 1326 1975 
Q 1069 1734 1069 1313 
Q 1069 891 1326 650 
Q 1584 409 2034 409 
Q 2484 409 2743 651 
Q 3003 894 3003 1313 
Q 3003 1734 2745 1975 
Q 2488 2216 2034 2216 
z
M 1403 2484 
Q 997 2584 770 2862 
Q 544 3141 544 3541 
Q 544 4100 942 4425 
Q 1341 4750 2034 4750 
Q 2731 4750 3128 4425 
Q 3525 4100 3525 3541 
Q 3525 3141 3298 2862 
Q 3072 2584 2669 2484 
Q 3125 2378 3379 2068 
Q 3634 1759 3634 1313 
Q 3634 634 3220 271 
Q 2806 -91 2034 -91 
Q 1263 -91 848 271 
Q 434 634 434 1313 
Q 434 1759 690 2068 
Q 947 2378 1403 2484 
z
M 1172 3481 
Q 1172 3119 1398 2916 
Q 1625 2713 2034 2713 
Q 2441 2713 2670 2916 
Q 2900 3119 2900 3481 
Q 2900 3844 2670 4047 
Q 2441 4250 2034 4250 
Q 1625 4250 1398 4047 
Q 1172 3844 1172 3481 
z
" transform="scale(0.015625)"/>
       </defs>
       <use xlink:href="#DejaVuSans-1b"/>
       <use xlink:href="#DejaVuSans-13" transform="translate(63.625 0)"/>
       <use xlink:href="#DejaVuSans-13" transform="translate(127.25 0)"/>
      </g>
     </g>
    </g>
    <g id="xtick_34">
     <g id="line2d_88">
      <path d="M 723.462675 504.4 
L 723.462675 431.474062 
" clip-path="url(#pbe7b6ef1a6)" style="fill: none; stroke-dasharray: 2.96,1.28; stroke-dashoffset: 0; stroke: #b0b0b0; stroke-opacity: 0.5; stroke-width: 0.8"/>
     </g>
     <g id="line2d_89">
      <g>
       <use xlink:href="#m00919433f0" x="723.462675" y="504.4" style="stroke: #000000; stroke-width: 0.8"/>
      </g>
     </g>
     <g id="text_21">
      <!-- 1000 -->
      <g transform="translate(710.737675 518.997656) scale(0.1 -0.1)">
       <defs>
        <path id="DejaVuSans-14" d="M 794 531 
L 1825 531 
L 1825 4091 
L 703 3866 
L 703 4441 
L 1819 4666 
L 2450 4666 
L 2450 531 
L 3481 531 
L 3481 0 
L 794 0 
L 794 531 
z
" transform="scale(0.015625)"/>
       </defs>
       <use xlink:href="#DejaVuSans-14"/>
       <use xlink:href="#DejaVuSans-13" transform="translate(63.625 0)"/>
       <use xlink:href="#DejaVuSans-13" transform="translate(127.25 0)"/>
       <use xlink:href="#DejaVuSans-13" transform="translate(190.875 0)"/>
      </g>
     </g>
    </g>
    <g id="xtick_35">
     <g id="line2d_90">
      <path d="M 831.56931 504.4 
L 831.56931 431.474062 
" clip-path="url(#pbe7b6ef1a6)" style="fill: none; stroke-dasharray: 2.96,1.28; stroke-dashoffset: 0; stroke: #b0b0b0; stroke-opacity: 0.5; stroke-width: 0.8"/>
     </g>
     <g id="line2d_91">
      <g>
       <use xlink:href="#m00919433f0" x="831.56931" y="504.4" style="stroke: #000000; stroke-width: 0.8"/>
      </g>
     </g>
     <g id="text_22">
      <!-- 1200 -->
      <g transform="translate(818.84431 518.997656) scale(0.1 -0.1)">
       <use xlink:href="#DejaVuSans-14"/>
       <use xlink:href="#DejaVuSans-15" transform="translate(63.625 0)"/>
       <use xlink:href="#DejaVuSans-13" transform="translate(127.25 0)"/>
       <use xlink:href="#DejaVuSans-13" transform="translate(190.875 0)"/>
      </g>
     </g>
    </g>
    <g id="text_23">
     <!-- Tempo (us) -->
     <g transform="translate(472.919952 533.757422) scale(0.11 -0.11)">
      <defs>
       <path id="DejaVuSans-Bold-50" d="M 3781 2919 
Q 3994 3244 4286 3414 
Q 4578 3584 4928 3584 
Q 5531 3584 5847 3212 
Q 6163 2841 6163 2131 
L 6163 0 
L 5038 0 
L 5038 1825 
Q 5041 1866 5042 1909 
Q 5044 1953 5044 2034 
Q 5044 2406 4934 2573 
Q 4825 2741 4581 2741 
Q 4263 2741 4089 2478 
Q 3916 2216 3909 1719 
L 3909 0 
L 2784 0 
L 2784 1825 
Q 2784 2406 2684 2573 
Q 2584 2741 2328 2741 
Q 2006 2741 1831 2477 
Q 1656 2213 1656 1722 
L 1656 0 
L 531 0 
L 531 3500 
L 1656 3500 
L 1656 2988 
Q 1863 3284 2130 3434 
Q 2397 3584 2719 3584 
Q 3081 3584 3359 3409 
Q 3638 3234 3781 2919 
z
" transform="scale(0.015625)"/>
       <path id="DejaVuSans-Bold-53" d="M 1656 506 
L 1656 -1331 
L 538 -1331 
L 538 3500 
L 1656 3500 
L 1656 2988 
Q 1888 3294 2169 3439 
Q 2450 3584 2816 3584 
Q 3463 3584 3878 3070 
Q 4294 2556 4294 1747 
Q 4294 938 3878 423 
Q 3463 -91 2816 -91 
Q 2450 -91 2169 54 
Q 1888 200 1656 506 
z
M 2400 2772 
Q 2041 2772 1848 2508 
Q 1656 2244 1656 1747 
Q 1656 1250 1848 986 
Q 2041 722 2400 722 
Q 2759 722 2948 984 
Q 3138 1247 3138 1747 
Q 3138 2247 2948 2509 
Q 2759 2772 2400 2772 
z
" transform="scale(0.015625)"/>
      </defs>
      <use xlink:href="#DejaVuSans-Bold-37"/>
      <use xlink:href="#DejaVuSans-Bold-48" transform="translate(54.9375 0)"/>
      <use xlink:href="#DejaVuSans-Bold-50" transform="translate(122.765625 0)"/>
      <use xlink:href="#DejaVuSans-Bold-53" transform="translate(226.96875 0)"/>
      <use xlink:href="#DejaVuSans-Bold-52" transform="translate(298.546875 0)"/>
      <use xlink:href="#DejaVuSans-Bold-3" transform="translate(367.25 0)"/>
      <use xlink:href="#DejaVuSans-Bold-b" transform="translate(402.0625 0)"/>
      <use xlink:href="#DejaVuSans-Bold-58" transform="translate(447.765625 0)"/>
      <use xlink:href="#DejaVuSans-Bold-56" transform="translate(518.953125 0)"/>
      <use xlink:href="#DejaVuSans-Bold-c" transform="translate(578.46875 0)"/>
     </g>
    </g>
   </g>
   <g id="matplotlib.axis_10">
    <g id="ytick_9">
     <g id="line2d_92">
      <path d="M 182.9295 493.982009 
L 831.56931 493.982009 
" clip-path="url(#pbe7b6ef1a6)" style="fill: none; stroke-dasharray: 2.96,1.28; stroke-dashoffset: 0; stroke: #b0b0b0; stroke-opacity: 0.5; stroke-width: 0.8"/>
     </g>
     <g id="line2d_93">
      <g>
       <use xlink:href="#mbb4d6511d4" x="182.9295" y="493.982009" style="stroke: #000000; stroke-width: 0.8"/>
      </g>
     </g>
     <g id="text_24">
      <!-- 0V -->
      <g transform="translate(162.702313 497.400954) scale(0.09 -0.09)">
       <use xlink:href="#DejaVuSans-Bold-13"/>
       <use xlink:href="#DejaVuSans-Bold-39" transform="translate(69.578125 0)"/>
      </g>
     </g>
    </g>
    <g id="ytick_10">
     <g id="line2d_94">
      <path d="M 182.9295 441.892054 
L 831.56931 441.892054 
" clip-path="url(#pbe7b6ef1a6)" style="fill: none; stroke-dasharray: 2.96,1.28; stroke-dashoffset: 0; stroke: #b0b0b0; stroke-opacity: 0.5; stroke-width: 0.8"/>
     </g>
     <g id="line2d_95">
      <g>
       <use xlink:href="#mbb4d6511d4" x="182.9295" y="441.892054" style="stroke: #000000; stroke-width: 0.8"/>
      </g>
     </g>
     <g id="text_25">
      <!-- Pulsos -->
      <g transform="translate(142.9445 445.31135) scale(0.09 -0.09)">
       <use xlink:href="#DejaVuSans-Bold-33"/>
       <use xlink:href="#DejaVuSans-Bold-58" transform="translate(73.296875 0)"/>
       <use xlink:href="#DejaVuSans-Bold-4f" transform="translate(144.484375 0)"/>
       <use xlink:href="#DejaVuSans-Bold-56" transform="translate(178.765625 0)"/>
       <use xlink:href="#DejaVuSans-Bold-52" transform="translate(238.28125 0)"/>
       <use xlink:href="#DejaVuSans-Bold-56" transform="translate(306.984375 0)"/>
      </g>
     </g>
    </g>
   </g>
   <g id="line2d_96">
    <path d="M 182.9295 493.982009 
L 739.833726 493.982009 
L 739.833726 441.892054 
L 741.131872 441.892054 
L 741.131872 493.982009 
L 767.094773 493.982009 
L 767.094773 441.892054 
L 767.960203 441.892054 
L 767.960203 493.982009 
L 793.923104 493.982009 
L 793.923104 441.892054 
L 795.221249 441.892054 
L 795.221249 493.982009 
L 831.56931 493.982009 
L 831.56931 493.982009 
" clip-path="url(#pbe7b6ef1a6)" style="fill: none; stroke: #10b981; stroke-width: 2; stroke-linecap: square"/>
   </g>
   <g id="patch_18">
    <path d="M 182.9295 504.4 
L 182.9295 431.474062 
" style="fill: none; stroke: #000000; stroke-width: 0.8; stroke-linejoin: miter; stroke-linecap: square"/>
   </g>
   <g id="patch_19">
    <path d="M 182.9295 504.4 
L 831.56931 504.4 
" style="fill: none; stroke: #000000; stroke-width: 0.8; stroke-linejoin: miter; stroke-linecap: square"/>
   </g>
   <g id="text_26">
    <!-- Canal 5: PUL J4 (Arduino) -->
    <g style="fill: #1e293b" transform="translate(27.687954 470.535078) scale(0.1 -0.1)">
     <defs>
      <path id="DejaVuSans-Bold-18" d="M 678 4666 
L 3669 4666 
L 3669 3781 
L 1638 3781 
L 1638 3059 
Q 1775 3097 1914 3117 
Q 2053 3138 2203 3138 
Q 3056 3138 3531 2711 
Q 4006 2284 4006 1522 
Q 4006 766 3489 337 
Q 2972 -91 2053 -91 
Q 1656 -91 1267 -14 
Q 878 63 494 219 
L 494 1166 
Q 875 947 1217 837 
Q 1559 728 1863 728 
Q 2300 728 2551 942 
Q 2803 1156 2803 1522 
Q 2803 1891 2551 2103 
Q 2300 2316 1863 2316 
Q 1603 2316 1309 2248 
Q 1016 2181 678 2041 
L 678 4666 
z
" transform="scale(0.015625)"/>
     </defs>
     <use xlink:href="#DejaVuSans-Bold-26"/>
     <use xlink:href="#DejaVuSans-Bold-44" transform="translate(73.390625 0)"/>
     <use xlink:href="#DejaVuSans-Bold-51" transform="translate(140.875 0)"/>
     <use xlink:href="#DejaVuSans-Bold-44" transform="translate(212.0625 0)"/>
     <use xlink:href="#DejaVuSans-Bold-4f" transform="translate(279.546875 0)"/>
     <use xlink:href="#DejaVuSans-Bold-3" transform="translate(313.828125 0)"/>
     <use xlink:href="#DejaVuSans-Bold-18" transform="translate(348.640625 0)"/>
     <use xlink:href="#DejaVuSans-Bold-1d" transform="translate(418.21875 0)"/>
     <use xlink:href="#DejaVuSans-Bold-3" transform="translate(458.203125 0)"/>
     <use xlink:href="#DejaVuSans-Bold-33" transform="translate(493.015625 0)"/>
     <use xlink:href="#DejaVuSans-Bold-38" transform="translate(566.3125 0)"/>
     <use xlink:href="#DejaVuSans-Bold-2f" transform="translate(647.515625 0)"/>
     <use xlink:href="#DejaVuSans-Bold-3" transform="translate(711.234375 0)"/>
     <use xlink:href="#DejaVuSans-Bold-2d" transform="translate(746.046875 0)"/>
     <use xlink:href="#DejaVuSans-Bold-17" transform="translate(783.25 0)"/>
     <use xlink:href="#DejaVuSans-Bold-3" transform="translate(852.828125 0)"/>
     <use xlink:href="#DejaVuSans-Bold-b" transform="translate(887.640625 0)"/>
     <use xlink:href="#DejaVuSans-Bold-24" transform="translate(933.34375 0)"/>
     <use xlink:href="#DejaVuSans-Bold-55" transform="translate(1010.734375 0)"/>
     <use xlink:href="#DejaVuSans-Bold-47" transform="translate(1060.046875 0)"/>
     <use xlink:href="#DejaVuSans-Bold-58" transform="translate(1131.625 0)"/>
     <use xlink:href="#DejaVuSans-Bold-4c" transform="translate(1202.8125 0)"/>
     <use xlink:href="#DejaVuSans-Bold-51" transform="translate(1237.09375 0)"/>
     <use xlink:href="#DejaVuSans-Bold-52" transform="translate(1308.28125 0)"/>
     <use xlink:href="#DejaVuSans-Bold-c" transform="translate(1376.984375 0)"/>
    </g>
   </g>
   <g id="text_27">
    <!-- Jitter: 2.220 us -->
    <g style="fill: #ef4444" transform="translate(746.411011 470.275273) scale(0.09 -0.09)">
     <use xlink:href="#DejaVuSans-Bold-2d"/>
     <use xlink:href="#DejaVuSans-Bold-4c" transform="translate(37.203125 0)"/>
     <use xlink:href="#DejaVuSans-Bold-57" transform="translate(71.484375 0)"/>
     <use xlink:href="#DejaVuSans-Bold-57" transform="translate(119.28125 0)"/>
     <use xlink:href="#DejaVuSans-Bold-48" transform="translate(167.078125 0)"/>
     <use xlink:href="#DejaVuSans-Bold-55" transform="translate(234.90625 0)"/>
     <use xlink:href="#DejaVuSans-Bold-1d" transform="translate(284.21875 0)"/>
     <use xlink:href="#DejaVuSans-Bold-3" transform="translate(324.203125 0)"/>
     <use xlink:href="#DejaVuSans-Bold-15" transform="translate(359.015625 0)"/>
     <use xlink:href="#DejaVuSans-Bold-11" transform="translate(428.59375 0)"/>
     <use xlink:href="#DejaVuSans-Bold-15" transform="translate(466.578125 0)"/>
     <use xlink:href="#DejaVuSans-Bold-15" transform="translate(536.15625 0)"/>
     <use xlink:href="#DejaVuSans-Bold-13" transform="translate(605.734375 0)"/>
     <use xlink:href="#DejaVuSans-Bold-3" transform="translate(675.3125 0)"/>
     <use xlink:href="#DejaVuSans-Bold-58" transform="translate(710.125 0)"/>
     <use xlink:href="#DejaVuSans-Bold-56" transform="translate(781.3125 0)"/>
    </g>
   </g>
  </g>
  <g id="text_28">
   <!-- ANALISADOR LÓGICO — VALIDAÇÃO DE SINCRONISMO (EB15) -->
   <g style="fill: #1e3a8a" transform="translate(225.428438 23.894297) scale(0.12 -0.12)">
    <defs>
     <path id="DejaVuSans-Bold-31" d="M 588 4666 
L 1931 4666 
L 3628 1466 
L 3628 4666 
L 4769 4666 
L 4769 0 
L 3425 0 
L 1728 3200 
L 1728 0 
L 588 0 
L 588 4666 
z
" transform="scale(0.015625)"/>
     <path id="DejaVuSans-Bold-27" d="M 1791 3756 
L 1791 909 
L 2222 909 
Q 2959 909 3348 1275 
Q 3738 1641 3738 2338 
Q 3738 3031 3350 3393 
Q 2963 3756 2222 3756 
L 1791 3756 
z
M 588 4666 
L 1856 4666 
Q 2919 4666 3439 4514 
Q 3959 4363 4331 4000 
Q 4659 3684 4818 3271 
Q 4978 2859 4978 2338 
Q 4978 1809 4818 1395 
Q 4659 981 4331 666 
Q 3956 303 3431 151 
Q 2906 0 1856 0 
L 588 0 
L 588 4666 
z
" transform="scale(0.015625)"/>
     <path id="DejaVuSans-Bold-32" d="M 2719 3878 
Q 2169 3878 1866 3472 
Q 1563 3066 1563 2328 
Q 1563 1594 1866 1187 
Q 2169 781 2719 781 
Q 3272 781 3575 1187 
Q 3878 1594 3878 2328 
Q 3878 3066 3575 3472 
Q 3272 3878 2719 3878 
z
M 2719 4750 
Q 3844 4750 4481 4106 
Q 5119 3463 5119 2328 
Q 5119 1197 4481 553 
Q 3844 -91 2719 -91 
Q 1597 -91 958 553 
Q 319 1197 319 2328 
Q 319 3463 958 4106 
Q 1597 4750 2719 4750 
z
" transform="scale(0.015625)"/>
     <path id="DejaVuSans-Bold-95" d="M 2719 3878 
Q 2169 3878 1866 3472 
Q 1563 3066 1563 2328 
Q 1563 1594 1866 1187 
Q 2169 781 2719 781 
Q 3272 781 3575 1187 
Q 3878 1594 3878 2328 
Q 3878 3066 3575 3472 
Q 3272 3878 2719 3878 
z
M 2719 4750 
Q 3844 4750 4481 4106 
Q 5119 3463 5119 2328 
Q 5119 1197 4481 553 
Q 3844 -91 2719 -91 
Q 1597 -91 958 553 
Q 319 1197 319 2328 
Q 319 3463 958 4106 
Q 1597 4750 2719 4750 
z
M 2803 5935 
L 3688 5935 
L 2797 5110 
L 2185 5110 
L 2803 5935 
z
" transform="scale(0.015625)"/>
     <path id="DejaVuSans-Bold-af6" d="M 344 2156 
L 6056 2156 
L 6056 1350 
L 344 1350 
L 344 2156 
z
" transform="scale(0.015625)"/>
     <path id="DejaVuSans-Bold-89" d="M 4288 256 
Q 3956 84 3597 -3 
Q 3238 -91 2847 -91 
Q 1681 -91 1000 561 
Q 319 1213 319 2328 
Q 319 3447 1000 4098 
Q 1681 4750 2847 4750 
Q 3238 4750 3597 4662 
Q 3956 4575 4288 4403 
L 4288 3438 
Q 3953 3666 3628 3772 
Q 3303 3878 2944 3878 
Q 2300 3878 1931 3465 
Q 1563 3053 1563 2328 
Q 1563 1606 1931 1193 
Q 2300 781 2944 781 
Q 3303 781 3628 887 
Q 3953 994 4288 1222 
L 4288 256 
z
M 3040 0 
Q 3222 -194 3307 -359 
Q 3393 -525 3393 -672 
Q 3393 -969 3201 -1111 
Q 3009 -1253 2612 -1253 
Q 2462 -1253 2302 -1233 
Q 2143 -1213 1981 -1172 
L 1978 -697 
Q 2134 -747 2263 -770 
Q 2393 -794 2497 -794 
Q 2678 -794 2779 -722 
Q 2881 -650 2881 -525 
Q 2881 -444 2814 -316 
Q 2747 -188 2606 0 
L 3040 0 
z
" transform="scale(0.015625)"/>
     <path id="DejaVuSans-Bold-85" d="M 3419 850 
L 1538 850 
L 1241 0 
L 31 0 
L 1759 4666 
L 3194 4666 
L 4922 0 
L 3713 0 
L 3419 850 
z
M 1838 1716 
L 3116 1716 
L 2478 3572 
L 1838 1716 
z
M 2481 5281 
L 2306 5390 
Q 2297 5397 2275 5409 
Q 2134 5490 2047 5490 
Q 1947 5490 1884 5396 
Q 1822 5303 1822 5147 
L 1822 5128 
L 1387 5128 
Q 1387 5143 1390 5174 
Q 1394 5206 1394 5222 
Q 1394 5553 1561 5756 
Q 1728 5959 2000 5959 
Q 2116 5959 2231 5920 
Q 2347 5881 2469 5806 
L 2653 5684 
Q 2719 5640 2780 5616 
Q 2841 5593 2891 5593 
Q 3006 5593 3067 5687 
Q 3128 5781 3128 5959 
L 3562 5959 
Q 3562 5940 3559 5909 
Q 3556 5878 3556 5862 
Q 3556 5531 3389 5329 
Q 3222 5128 2950 5128 
Q 2831 5128 2721 5162 
Q 2612 5197 2481 5281 
z
" transform="scale(0.015625)"/>
     <path id="DejaVuSans-Bold-30" d="M 588 4666 
L 2119 4666 
L 3181 2169 
L 4250 4666 
L 5778 4666 
L 5778 0 
L 4641 0 
L 4641 3413 
L 3566 897 
L 2803 897 
L 1728 3413 
L 1728 0 
L 588 0 
L 588 4666 
z
" transform="scale(0.015625)"/>
     <path id="DejaVuSans-Bold-25" d="M 2456 2859 
Q 2741 2859 2887 2984 
Q 3034 3109 3034 3353 
Q 3034 3594 2887 3720 
Q 2741 3847 2456 3847 
L 1791 3847 
L 1791 2859 
L 2456 2859 
z
M 2497 819 
Q 2859 819 3042 972 
Q 3225 1125 3225 1434 
Q 3225 1738 3044 1889 
Q 2863 2041 2497 2041 
L 1791 2041 
L 1791 819 
L 2497 819 
z
M 3616 2497 
Q 4003 2384 4215 2081 
Q 4428 1778 4428 1338 
Q 4428 663 3972 331 
Q 3516 0 2584 0 
L 588 0 
L 588 4666 
L 2394 4666 
Q 3366 4666 3802 4372 
Q 4238 4078 4238 3431 
Q 4238 3091 4078 2852 
Q 3919 2613 3616 2497 
z
" transform="scale(0.015625)"/>
    </defs>
    <use xlink:href="#DejaVuSans-Bold-24"/>
    <use xlink:href="#DejaVuSans-Bold-31" transform="translate(77.390625 0)"/>
    <use xlink:href="#DejaVuSans-Bold-24" transform="translate(161.078125 0)"/>
    <use xlink:href="#DejaVuSans-Bold-2f" transform="translate(238.46875 0)"/>
    <use xlink:href="#DejaVuSans-Bold-2c" transform="translate(302.1875 0)"/>
    <use xlink:href="#DejaVuSans-Bold-36" transform="translate(339.390625 0)"/>
    <use xlink:href="#DejaVuSans-Bold-24" transform="translate(411.40625 0)"/>
    <use xlink:href="#DejaVuSans-Bold-27" transform="translate(488.796875 0)"/>
    <use xlink:href="#DejaVuSans-Bold-32" transform="translate(571.8125 0)"/>
    <use xlink:href="#DejaVuSans-Bold-35" transform="translate(656.828125 0)"/>
    <use xlink:href="#DejaVuSans-Bold-3" transform="translate(733.828125 0)"/>
    <use xlink:href="#DejaVuSans-Bold-2f" transform="translate(768.640625 0)"/>
    <use xlink:href="#DejaVuSans-Bold-95" transform="translate(828.796875 0)"/>
    <use xlink:href="#DejaVuSans-Bold-2a" transform="translate(913.8125 0)"/>
    <use xlink:href="#DejaVuSans-Bold-2c" transform="translate(995.890625 0)"/>
    <use xlink:href="#DejaVuSans-Bold-26" transform="translate(1033.09375 0)"/>
    <use xlink:href="#DejaVuSans-Bold-32" transform="translate(1106.484375 0)"/>
    <use xlink:href="#DejaVuSans-Bold-3" transform="translate(1191.5 0)"/>
    <use xlink:href="#DejaVuSans-Bold-af6" transform="translate(1226.3125 0)"/>
    <use xlink:href="#DejaVuSans-Bold-3" transform="translate(1326.3125 0)"/>
    <use xlink:href="#DejaVuSans-Bold-39" transform="translate(1361.125 0)"/>
    <use xlink:href="#DejaVuSans-Bold-24" transform="translate(1431.734375 0)"/>
    <use xlink:href="#DejaVuSans-Bold-2f" transform="translate(1509.125 0)"/>
    <use xlink:href="#DejaVuSans-Bold-2c" transform="translate(1572.84375 0)"/>
    <use xlink:href="#DejaVuSans-Bold-27" transform="translate(1610.046875 0)"/>
    <use xlink:href="#DejaVuSans-Bold-24" transform="translate(1693.0625 0)"/>
    <use xlink:href="#DejaVuSans-Bold-89" transform="translate(1770.453125 0)"/>
    <use xlink:href="#DejaVuSans-Bold-85" transform="translate(1843.84375 0)"/>
    <use xlink:href="#DejaVuSans-Bold-32" transform="translate(1921.234375 0)"/>
    <use xlink:href="#DejaVuSans-Bold-3" transform="translate(2006.25 0)"/>
    <use xlink:href="#DejaVuSans-Bold-27" transform="translate(2041.0625 0)"/>
    <use xlink:href="#DejaVuSans-Bold-28" transform="translate(2124.078125 0)"/>
    <use xlink:href="#DejaVuSans-Bold-3" transform="translate(2192.390625 0)"/>
    <use xlink:href="#DejaVuSans-Bold-36" transform="translate(2227.203125 0)"/>
    <use xlink:href="#DejaVuSans-Bold-2c" transform="translate(2299.21875 0)"/>
    <use xlink:href="#DejaVuSans-Bold-31" transform="translate(2336.421875 0)"/>
    <use xlink:href="#DejaVuSans-Bold-26" transform="translate(2420.109375 0)"/>
    <use xlink:href="#DejaVuSans-Bold-35" transform="translate(2493.5 0)"/>
    <use xlink:href="#DejaVuSans-Bold-32" transform="translate(2570.5 0)"/>
    <use xlink:href="#DejaVuSans-Bold-31" transform="translate(2655.515625 0)"/>
    <use xlink:href="#DejaVuSans-Bold-2c" transform="translate(2739.203125 0)"/>
    <use xlink:href="#DejaVuSans-Bold-36" transform="translate(2776.40625 0)"/>
    <use xlink:href="#DejaVuSans-Bold-30" transform="translate(2848.421875 0)"/>
    <use xlink:href="#DejaVuSans-Bold-32" transform="translate(2947.9375 0)"/>
    <use xlink:href="#DejaVuSans-Bold-3" transform="translate(3032.953125 0)"/>
    <use xlink:href="#DejaVuSans-Bold-b" transform="translate(3067.765625 0)"/>
    <use xlink:href="#DejaVuSans-Bold-28" transform="translate(3113.46875 0)"/>
    <use xlink:href="#DejaVuSans-Bold-25" transform="translate(3181.78125 0)"/>
    <use xlink:href="#DejaVuSans-Bold-14" transform="translate(3258 0)"/>
    <use xlink:href="#DejaVuSans-Bold-18" transform="translate(3327.578125 0)"/>
    <use xlink:href="#DejaVuSans-Bold-c" transform="translate(3397.15625 0)"/>
   </g>
   <!-- Co-Simulação Headless | AVR 16 MHz / Xtensa 240 MHz | Base: VCD Real -->
   <g style="fill: #1e3a8a" transform="translate(187.534688 38.513203) scale(0.12 -0.12)">
    <defs>
     <path id="DejaVuSans-Bold-10" d="M 347 2297 
L 2309 2297 
L 2309 1388 
L 347 1388 
L 347 2297 
z
" transform="scale(0.015625)"/>
     <path id="DejaVuSans-Bold-a9" d="M 3366 3391 
L 3366 2478 
Q 3138 2634 2908 2709 
Q 2678 2784 2431 2784 
Q 1963 2784 1702 2511 
Q 1441 2238 1441 1747 
Q 1441 1256 1702 982 
Q 1963 709 2431 709 
Q 2694 709 2930 787 
Q 3166 866 3366 1019 
L 3366 103 
Q 3103 6 2833 -42 
Q 2563 -91 2291 -91 
Q 1344 -91 809 395 
Q 275 881 275 1747 
Q 275 2613 809 3098 
Q 1344 3584 2291 3584 
Q 2566 3584 2833 3536 
Q 3100 3488 3366 3391 
z
M 2456 0 
Q 2638 -194 2723 -359 
Q 2809 -525 2809 -672 
Q 2809 -969 2617 -1111 
Q 2425 -1253 2028 -1253 
Q 1878 -1253 1718 -1233 
Q 1559 -1213 1397 -1172 
L 1394 -697 
Q 1550 -747 1679 -770 
Q 1809 -794 1913 -794 
Q 2094 -794 2195 -722 
Q 2297 -650 2297 -525 
Q 2297 -444 2230 -316 
Q 2163 -188 2022 0 
L 2456 0 
z
" transform="scale(0.015625)"/>
     <path id="DejaVuSans-Bold-a5" d="M 2106 1575 
Q 1756 1575 1579 1456 
Q 1403 1338 1403 1106 
Q 1403 894 1545 773 
Q 1688 653 1941 653 
Q 2256 653 2472 879 
Q 2688 1106 2688 1447 
L 2688 1575 
L 2106 1575 
z
M 3816 1997 
L 3816 0 
L 2688 0 
L 2688 519 
Q 2463 200 2181 54 
Q 1900 -91 1497 -91 
Q 953 -91 614 226 
Q 275 544 275 1050 
Q 275 1666 698 1953 
Q 1122 2241 2028 2241 
L 2688 2241 
L 2688 2328 
Q 2688 2594 2478 2717 
Q 2269 2841 1825 2841 
Q 1466 2841 1156 2769 
Q 847 2697 581 2553 
L 581 3406 
Q 941 3494 1303 3539 
Q 1666 3584 2028 3584 
Q 2975 3584 3395 3211 
Q 3816 2838 3816 1997 
z
M 2187 4263 
L 2015 4378 
Q 2003 4384 1984 4397 
Q 1837 4494 1759 4494 
Q 1647 4494 1587 4397 
Q 1528 4300 1528 4116 
L 1528 4091 
L 1094 4091 
Q 1094 4516 1254 4747 
Q 1415 4978 1706 4978 
Q 1819 4978 1933 4936 
Q 2047 4894 2175 4800 
L 2365 4666 
Q 2434 4619 2492 4594 
Q 2550 4569 2597 4569 
Q 2709 4569 2771 4669 
Q 2834 4769 2834 4947 
L 2834 4972 
L 3269 4972 
Q 3269 4547 3108 4315 
Q 2947 4084 2656 4084 
Q 2544 4084 2439 4121 
Q 2334 4159 2187 4263 
z
" transform="scale(0.015625)"/>
     <path id="DejaVuSans-Bold-5f" d="M 1522 4891 
L 1522 -1509 
L 813 -1509 
L 813 4891 
L 1522 4891 
z
" transform="scale(0.015625)"/>
     <path id="DejaVuSans-Bold-5d" d="M 366 3500 
L 3419 3500 
L 3419 2719 
L 1575 800 
L 3419 800 
L 3419 0 
L 288 0 
L 288 781 
L 2131 2700 
L 366 2700 
L 366 3500 
z
" transform="scale(0.015625)"/>
     <path id="DejaVuSans-Bold-12" d="M 1644 4666 
L 2338 4666 
L 691 -594 
L 0 -594 
L 1644 4666 
z
" transform="scale(0.015625)"/>
    </defs>
    <use xlink:href="#DejaVuSans-Bold-26"/>
    <use xlink:href="#DejaVuSans-Bold-52" transform="translate(73.390625 0)"/>
    <use xlink:href="#DejaVuSans-Bold-10" transform="translate(142.09375 0)"/>
    <use xlink:href="#DejaVuSans-Bold-36" transform="translate(183.59375 0)"/>
    <use xlink:href="#DejaVuSans-Bold-4c" transform="translate(255.609375 0)"/>
    <use xlink:href="#DejaVuSans-Bold-50" transform="translate(289.890625 0)"/>
    <use xlink:href="#DejaVuSans-Bold-58" transform="translate(394.09375 0)"/>
    <use xlink:href="#DejaVuSans-Bold-4f" transform="translate(465.28125 0)"/>
    <use xlink:href="#DejaVuSans-Bold-44" transform="translate(499.5625 0)"/>
    <use xlink:href="#DejaVuSans-Bold-a9" transform="translate(567.046875 0)"/>
    <use xlink:href="#DejaVuSans-Bold-a5" transform="translate(626.328125 0)"/>
    <use xlink:href="#DejaVuSans-Bold-52" transform="translate(693.8125 0)"/>
    <use xlink:href="#DejaVuSans-Bold-3" transform="translate(762.515625 0)"/>
    <use xlink:href="#DejaVuSans-Bold-2b" transform="translate(797.328125 0)"/>
    <use xlink:href="#DejaVuSans-Bold-48" transform="translate(881.015625 0)"/>
    <use xlink:href="#DejaVuSans-Bold-44" transform="translate(948.84375 0)"/>
    <use xlink:href="#DejaVuSans-Bold-47" transform="translate(1016.328125 0)"/>
    <use xlink:href="#DejaVuSans-Bold-4f" transform="translate(1087.90625 0)"/>
    <use xlink:href="#DejaVuSans-Bold-48" transform="translate(1122.1875 0)"/>
    <use xlink:href="#DejaVuSans-Bold-56" transform="translate(1190.015625 0)"/>
    <use xlink:href="#DejaVuSans-Bold-56" transform="translate(1249.53125 0)"/>
    <use xlink:href="#DejaVuSans-Bold-3" transform="translate(1309.046875 0)"/>
    <use xlink:href="#DejaVuSans-Bold-5f" transform="translate(1343.859375 0)"/>
    <use xlink:href="#DejaVuSans-Bold-3" transform="translate(1380.390625 0)"/>
    <use xlink:href="#DejaVuSans-Bold-24" transform="translate(1415.203125 0)"/>
    <use xlink:href="#DejaVuSans-Bold-39" transform="translate(1485.8125 0)"/>
    <use xlink:href="#DejaVuSans-Bold-35" transform="translate(1563.203125 0)"/>
    <use xlink:href="#DejaVuSans-Bold-3" transform="translate(1640.203125 0)"/>
    <use xlink:href="#DejaVuSans-Bold-14" transform="translate(1675.015625 0)"/>
    <use xlink:href="#DejaVuSans-Bold-19" transform="translate(1744.59375 0)"/>
    <use xlink:href="#DejaVuSans-Bold-3" transform="translate(1814.171875 0)"/>
    <use xlink:href="#DejaVuSans-Bold-30" transform="translate(1848.984375 0)"/>
    <use xlink:href="#DejaVuSans-Bold-2b" transform="translate(1948.5 0)"/>
    <use xlink:href="#DejaVuSans-Bold-5d" transform="translate(2032.1875 0)"/>
    <use xlink:href="#DejaVuSans-Bold-3" transform="translate(2090.390625 0)"/>
    <use xlink:href="#DejaVuSans-Bold-12" transform="translate(2125.203125 0)"/>
    <use xlink:href="#DejaVuSans-Bold-3" transform="translate(2161.734375 0)"/>
    <use xlink:href="#DejaVuSans-Bold-3b" transform="translate(2196.546875 0)"/>
    <use xlink:href="#DejaVuSans-Bold-57" transform="translate(2273.640625 0)"/>
    <use xlink:href="#DejaVuSans-Bold-48" transform="translate(2321.4375 0)"/>
    <use xlink:href="#DejaVuSans-Bold-51" transform="translate(2389.265625 0)"/>
    <use xlink:href="#DejaVuSans-Bold-56" transform="translate(2460.453125 0)"/>
    <use xlink:href="#DejaVuSans-Bold-44" transform="translate(2519.96875 0)"/>
    <use xlink:href="#DejaVuSans-Bold-3" transform="translate(2587.453125 0)"/>
    <use xlink:href="#DejaVuSans-Bold-15" transform="translate(2622.265625 0)"/>
    <use xlink:href="#DejaVuSans-Bold-17" transform="translate(2691.84375 0)"/>
    <use xlink:href="#DejaVuSans-Bold-13" transform="translate(2761.421875 0)"/>
    <use xlink:href="#DejaVuSans-Bold-3" transform="translate(2831 0)"/>
    <use xlink:href="#DejaVuSans-Bold-30" transform="translate(2865.8125 0)"/>
    <use xlink:href="#DejaVuSans-Bold-2b" transform="translate(2965.328125 0)"/>
    <use xlink:href="#DejaVuSans-Bold-5d" transform="translate(3049.015625 0)"/>
    <use xlink:href="#DejaVuSans-Bold-3" transform="translate(3107.21875 0)"/>
    <use xlink:href="#DejaVuSans-Bold-5f" transform="translate(3142.03125 0)"/>
    <use xlink:href="#DejaVuSans-Bold-3" transform="translate(3178.5625 0)"/>
    <use xlink:href="#DejaVuSans-Bold-25" transform="translate(3213.375 0)"/>
    <use xlink:href="#DejaVuSans-Bold-44" transform="translate(3289.59375 0)"/>
    <use xlink:href="#DejaVuSans-Bold-56" transform="translate(3357.078125 0)"/>
    <use xlink:href="#DejaVuSans-Bold-48" transform="translate(3416.59375 0)"/>
    <use xlink:href="#DejaVuSans-Bold-1d" transform="translate(3484.421875 0)"/>
    <use xlink:href="#DejaVuSans-Bold-3" transform="translate(3524.40625 0)"/>
    <use xlink:href="#DejaVuSans-Bold-39" transform="translate(3559.21875 0)"/>
    <use xlink:href="#DejaVuSans-Bold-26" transform="translate(3636.609375 0)"/>
    <use xlink:href="#DejaVuSans-Bold-27" transform="translate(3710 0)"/>
    <use xlink:href="#DejaVuSans-Bold-3" transform="translate(3793.015625 0)"/>
    <use xlink:href="#DejaVuSans-Bold-35" transform="translate(3827.828125 0)"/>
    <use xlink:href="#DejaVuSans-Bold-48" transform="translate(3904.828125 0)"/>
    <use xlink:href="#DejaVuSans-Bold-44" transform="translate(3972.65625 0)"/>
    <use xlink:href="#DejaVuSans-Bold-4f" transform="translate(4040.140625 0)"/>
   </g>
  </g>
  <g id="text_29">
   <g id="patch_20">
    <path d="M 166.089375 576.902109 
L 697.910625 576.902109 
Q 702.410625 576.902109 702.410625 572.402109 
L 702.410625 563.362031 
Q 702.410625 558.862031 697.910625 558.862031 
L 166.089375 558.862031 
Q 161.589375 558.862031 161.589375 563.362031 
L 161.589375 572.402109 
Q 161.589375 576.902109 166.089375 576.902109 
z
" style="fill: #f8fafc; stroke: #cbd5e1; stroke-linejoin: miter"/>
   </g>
   <!-- T1 = 868.1us (UART) | T2 = 112.0us (ACK) | J1 = 2.400us | J4 = 0.180us | Jitter = 2.220us | HOMOLOGADO -->
   <g style="fill: #1e3a8a" transform="translate(166.089375 570.24) scale(0.09 -0.09)">
    <use xlink:href="#DejaVuSans-Bold-37"/>
    <use xlink:href="#DejaVuSans-Bold-14" transform="translate(68.21875 0)"/>
    <use xlink:href="#DejaVuSans-Bold-3" transform="translate(137.796875 0)"/>
    <use xlink:href="#DejaVuSans-Bold-20" transform="translate(172.609375 0)"/>
    <use xlink:href="#DejaVuSans-Bold-3" transform="translate(256.40625 0)"/>
    <use xlink:href="#DejaVuSans-Bold-1b" transform="translate(291.21875 0)"/>
    <use xlink:href="#DejaVuSans-Bold-19" transform="translate(360.796875 0)"/>
    <use xlink:href="#DejaVuSans-Bold-1b" transform="translate(430.375 0)"/>
    <use xlink:href="#DejaVuSans-Bold-11" transform="translate(499.953125 0)"/>
    <use xlink:href="#DejaVuSans-Bold-14" transform="translate(537.9375 0)"/>
    <use xlink:href="#DejaVuSans-Bold-58" transform="translate(607.515625 0)"/>
    <use xlink:href="#DejaVuSans-Bold-56" transform="translate(678.703125 0)"/>
    <use xlink:href="#DejaVuSans-Bold-3" transform="translate(738.21875 0)"/>
    <use xlink:href="#DejaVuSans-Bold-b" transform="translate(773.03125 0)"/>
    <use xlink:href="#DejaVuSans-Bold-38" transform="translate(818.734375 0)"/>
    <use xlink:href="#DejaVuSans-Bold-24" transform="translate(896.859375 0)"/>
    <use xlink:href="#DejaVuSans-Bold-35" transform="translate(974.25 0)"/>
    <use xlink:href="#DejaVuSans-Bold-37" transform="translate(1046.765625 0)"/>
    <use xlink:href="#DejaVuSans-Bold-c" transform="translate(1114.984375 0)"/>
    <use xlink:href="#DejaVuSans-Bold-3" transform="translate(1160.6875 0)"/>
    <use xlink:href="#DejaVuSans-Bold-5f" transform="translate(1195.5 0)"/>
    <use xlink:href="#DejaVuSans-Bold-3" transform="translate(1232.03125 0)"/>
    <use xlink:href="#DejaVuSans-Bold-37" transform="translate(1266.84375 0)"/>
    <use xlink:href="#DejaVuSans-Bold-15" transform="translate(1335.0625 0)"/>
    <use xlink:href="#DejaVuSans-Bold-3" transform="translate(1404.640625 0)"/>
    <use xlink:href="#DejaVuSans-Bold-20" transform="translate(1439.453125 0)"/>
    <use xlink:href="#DejaVuSans-Bold-3" transform="translate(1523.25 0)"/>
    <use xlink:href="#DejaVuSans-Bold-14" transform="translate(1558.0625 0)"/>
    <use xlink:href="#DejaVuSans-Bold-14" transform="translate(1627.640625 0)"/>
    <use xlink:href="#DejaVuSans-Bold-15" transform="translate(1697.21875 0)"/>
    <use xlink:href="#DejaVuSans-Bold-11" transform="translate(1766.796875 0)"/>
    <use xlink:href="#DejaVuSans-Bold-13" transform="translate(1804.78125 0)"/>
    <use xlink:href="#DejaVuSans-Bold-58" transform="translate(1874.359375 0)"/>
    <use xlink:href="#DejaVuSans-Bold-56" transform="translate(1945.546875 0)"/>
    <use xlink:href="#DejaVuSans-Bold-3" transform="translate(2005.0625 0)"/>
    <use xlink:href="#DejaVuSans-Bold-b" transform="translate(2039.875 0)"/>
    <use xlink:href="#DejaVuSans-Bold-24" transform="translate(2085.578125 0)"/>
    <use xlink:href="#DejaVuSans-Bold-26" transform="translate(2162.96875 0)"/>
    <use xlink:href="#DejaVuSans-Bold-2e" transform="translate(2236.359375 0)"/>
    <use xlink:href="#DejaVuSans-Bold-c" transform="translate(2313.84375 0)"/>
    <use xlink:href="#DejaVuSans-Bold-3" transform="translate(2359.546875 0)"/>
    <use xlink:href="#DejaVuSans-Bold-5f" transform="translate(2394.359375 0)"/>
    <use xlink:href="#DejaVuSans-Bold-3" transform="translate(2430.890625 0)"/>
    <use xlink:href="#DejaVuSans-Bold-2d" transform="translate(2465.703125 0)"/>
    <use xlink:href="#DejaVuSans-Bold-14" transform="translate(2502.90625 0)"/>
    <use xlink:href="#DejaVuSans-Bold-3" transform="translate(2572.484375 0)"/>
    <use xlink:href="#DejaVuSans-Bold-20" transform="translate(2607.296875 0)"/>
    <use xlink:href="#DejaVuSans-Bold-3" transform="translate(2691.09375 0)"/>
    <use xlink:href="#DejaVuSans-Bold-15" transform="translate(2725.90625 0)"/>
    <use xlink:href="#DejaVuSans-Bold-11" transform="translate(2795.484375 0)"/>
    <use xlink:href="#DejaVuSans-Bold-17" transform="translate(2833.46875 0)"/>
    <use xlink:href="#DejaVuSans-Bold-13" transform="translate(2903.046875 0)"/>
    <use xlink:href="#DejaVuSans-Bold-13" transform="translate(2972.625 0)"/>
    <use xlink:href="#DejaVuSans-Bold-58" transform="translate(3042.203125 0)"/>
    <use xlink:href="#DejaVuSans-Bold-56" transform="translate(3113.390625 0)"/>
    <use xlink:href="#DejaVuSans-Bold-3" transform="translate(3172.90625 0)"/>
    <use xlink:href="#DejaVuSans-Bold-5f" transform="translate(3207.71875 0)"/>
    <use xlink:href="#DejaVuSans-Bold-3" transform="translate(3244.25 0)"/>
    <use xlink:href="#DejaVuSans-Bold-2d" transform="translate(3279.0625 0)"/>
    <use xlink:href="#DejaVuSans-Bold-17" transform="translate(3316.265625 0)"/>
    <use xlink:href="#DejaVuSans-Bold-3" transform="translate(3385.84375 0)"/>
    <use xlink:href="#DejaVuSans-Bold-20" transform="translate(3420.65625 0)"/>
    <use xlink:href="#DejaVuSans-Bold-3" transform="translate(3504.453125 0)"/>
    <use xlink:href="#DejaVuSans-Bold-13" transform="translate(3539.265625 0)"/>
    <use xlink:href="#DejaVuSans-Bold-11" transform="translate(3608.84375 0)"/>
    <use xlink:href="#DejaVuSans-Bold-14" transform="translate(3646.828125 0)"/>
    <use xlink:href="#DejaVuSans-Bold-1b" transform="translate(3716.40625 0)"/>
    <use xlink:href="#DejaVuSans-Bold-13" transform="translate(3785.984375 0)"/>
    <use xlink:href="#DejaVuSans-Bold-58" transform="translate(3855.5625 0)"/>
    <use xlink:href="#DejaVuSans-Bold-56" transform="translate(3926.75 0)"/>
    <use xlink:href="#DejaVuSans-Bold-3" transform="translate(3986.265625 0)"/>
    <use xlink:href="#DejaVuSans-Bold-5f" transform="translate(4021.078125 0)"/>
    <use xlink:href="#DejaVuSans-Bold-3" transform="translate(4057.609375 0)"/>
    <use xlink:href="#DejaVuSans-Bold-2d" transform="translate(4092.421875 0)"/>
    <use xlink:href="#DejaVuSans-Bold-4c" transform="translate(4129.625 0)"/>
    <use xlink:href="#DejaVuSans-Bold-57" transform="translate(4163.90625 0)"/>
    <use xlink:href="#DejaVuSans-Bold-57" transform="translate(4211.703125 0)"/>
    <use xlink:href="#DejaVuSans-Bold-48" transform="translate(4259.5 0)"/>
    <use xlink:href="#DejaVuSans-Bold-55" transform="translate(4327.328125 0)"/>
    <use xlink:href="#DejaVuSans-Bold-3" transform="translate(4376.640625 0)"/>
    <use xlink:href="#DejaVuSans-Bold-20" transform="translate(4411.453125 0)"/>
    <use xlink:href="#DejaVuSans-Bold-3" transform="translate(4495.25 0)"/>
    <use xlink:href="#DejaVuSans-Bold-15" transform="translate(4530.0625 0)"/>
    <use xlink:href="#DejaVuSans-Bold-11" transform="translate(4599.640625 0)"/>
    <use xlink:href="#DejaVuSans-Bold-15" transform="translate(4637.625 0)"/>
    <use xlink:href="#DejaVuSans-Bold-15" transform="translate(4707.203125 0)"/>
    <use xlink:href="#DejaVuSans-Bold-13" transform="translate(4776.78125 0)"/>
    <use xlink:href="#DejaVuSans-Bold-58" transform="translate(4846.359375 0)"/>
    <use xlink:href="#DejaVuSans-Bold-56" transform="translate(4917.546875 0)"/>
    <use xlink:href="#DejaVuSans-Bold-3" transform="translate(4977.0625 0)"/>
    <use xlink:href="#DejaVuSans-Bold-5f" transform="translate(5011.875 0)"/>
    <use xlink:href="#DejaVuSans-Bold-3" transform="translate(5048.40625 0)"/>
    <use xlink:href="#DejaVuSans-Bold-2b" transform="translate(5083.21875 0)"/>
    <use xlink:href="#DejaVuSans-Bold-32" transform="translate(5166.90625 0)"/>
    <use xlink:href="#DejaVuSans-Bold-30" transform="translate(5251.921875 0)"/>
    <use xlink:href="#DejaVuSans-Bold-32" transform="translate(5351.4375 0)"/>
    <use xlink:href="#DejaVuSans-Bold-2f" transform="translate(5436.453125 0)"/>
    <use xlink:href="#DejaVuSans-Bold-32" transform="translate(5496.609375 0)"/>
    <use xlink:href="#DejaVuSans-Bold-2a" transform="translate(5581.625 0)"/>
    <use xlink:href="#DejaVuSans-Bold-24" transform="translate(5663.703125 0)"/>
    <use xlink:href="#DejaVuSans-Bold-27" transform="translate(5741.09375 0)"/>
    <use xlink:href="#DejaVuSans-Bold-32" transform="translate(5824.109375 0)"/>
   </g>
  </g>
 </g>
 <defs>
  <clipPath id="p36e3f5a933">
   <rect x="182.9295" y="82.570313" width="648.63981" height="72.925937"/>
  </clipPath>
  <clipPath id="pe2a1fed52a">
   <rect x="182.9295" y="169.79625" width="648.63981" height="72.925937"/>
  </clipPath>
  <clipPath id="pb4863f7e01">
   <rect x="182.9295" y="257.022187" width="648.63981" height="72.925938"/>
  </clipPath>
  <clipPath id="p469de6f4ea">
   <rect x="182.9295" y="344.248125" width="648.63981" height="72.925937"/>
  </clipPath>
  <clipPath id="pbe7b6ef1a6">
   <rect x="182.9295" y="431.474062" width="648.63981" height="72.925937"/>
  </clipPath>
 </defs>
</svg>
