<svg xmlns="http://www.w3.org/2000/svg" width="800" height="400">
  <rect width="800" height="400" fill="white"/>
  <text x="400" y="18" text-anchor="middle" font-size="13" font-weight="bold">
    circular_multijoint — Q (deg) — run 1</text>
  <polyline points="40,200 40,200 40,200 41,200 41,200 42,200 42,200 43,200 43,200 44,200 44,200 45,200 45,200 46,200 46,200 47,200 47,200 48,200 48,200 49,200 49,200 49,200 50,200 50,200 51,200 51,200 52,200 52,200 53,200 53,200 54,200 54,200 55,200 55,200 56,200 56,200 57,200 57,200 58,200 58,200 58,200 59,200 59,200 60,200 60,200 61,200 61,200 62,200 62,200 63,200 63,200 64,200 64,200 65,200 65,200 66,200 66,200 67,200 67,200 67,200 68,200 68,200 69,200 69,200 70,200 70,200 71,200 71,200 72,200 72,200 73,200 73,200 74,200 74,200 75,200 75,200 76,200 76,200 76,200 77,200 77,200 78,200 78,200 79,200 79,200 80,200 80,200 81,200 81,200 82,200 82,200 83,200 83,200 84,200 84,200 85,200 85,200 85,200 86,200 86,200 87,200 87,196 88,193 88,189 89,186 89,182 90,179 90,175 91,172 91,168 92,165 92,161 93,158 93,155 94,151 94,148 94,144 95,141 95,137 96,134 96,130 97,127 97,123 98,120 98,117 99,113 99,110 100,106 100,103 101,99 101,96 102,92 102,89 103,85 103,82 103,79 104,75 104,72 105,68 105,65 106,61 106,58 107,54 107,51 108,47 108,44 109,41 109,40 110,40 110,40 111,40 111,40 112,40 112,40 112,40 113,40 113,40 114,40 114,40 115,40 115,40 116,40 116,40 117,40 117,40 118,40 118,40 119,40 119,40 120,40 120,40 121,40 121,40 122,40 122,40 122,40 123,40 123,40 124,40 124,40 125,40 125,40 126,40 126,40 127,40 127,40 128,40 128,40 129,40 129,40 130,40 130,40 131,40 131,40 131,40 132,40 132,40 133,40 133,40 134,40 134,40 135,40 135,40 136,40 136,40 137,40 137,40 138,40 138,40 139,40 139,40 140,40 140,40 140,40 141,40 141,40 142,40 142,40 143,40 143,42 144,46 144,49 145,52 145,56 146,59 146,63 147,66 147,70 148,73 148,77 149,80 149,84 149,86 150,86 150,86 151,86 151,86 152,86 152,86 153,86 153,86 154,86 154,86 155,86 155,86 156,86 156,86 157,86 157,86 158,86 158,86 158,86 159,86 159,86 160,86 160,86 161,86 161,86 162,86 162,86 163,86 163,86 164,86 164,86 165,86 165,86 166,86 166,86 167,86 167,86 167,86 168,86 168,86 169,86 169,86 170,86 170,86 171,86 171,86 172,86 172,86 173,86 173,86 174,86 174,87 175,91 175,94 176,98 176,101 176,105 177,108 177,111 178,115 178,118 179,122 179,125 180,129 180,132 181,136 181,139 182,143 182,146 183,149 183,153 184,156 184,160 185,163 185,167 186,170 186,174 186,177 187,181 187,184 188,187 188,191 189,194 189,198 190,200 190,200 191,200 191,200 192,200 192,200 193,200 193,200 194,200 194,200 195,200 195,200 195,200 196,200 196,200 197,200 197,200 198,200 198,200 199,200 199,200 200,200 200,200 201,200 201,200 202,200 202,200 203,200 203,200 204,200 204,200 204,200 205,200 205,200 206,200 206,200 207,200 207,200 208,200 208,200 209,200 209,200 210,200 210,200 211,200 211,200 212,200 212,200 213,200 213,200 213,200 214,200 214,200 215,200 215,200 216,200 216,200 217,200 217,201 218,205 218,208 219,212 219,215 220,219 220,222 221,225 221,229 222,232 222,236 222,239 223,243 223,246 224,250 224,253 225,257 225,260 226,263 226,267 227,270 227,274 228,277 228,281 229,284 229,288 230,291 230,295 231,298 231,301 231,305 232,308 232,312 233,313 233,313 234,313 234,313 235,313 235,313 236,313 236,313 237,313 237,313 238,313 238,313 239,313 239,313 240,313 240,313 240,313 241,313 241,313 242,313 242,313 243,313 243,313 244,313 244,313 245,313 245,313 246,313 246,313 247,313 247,313 248,313 248,313 249,313 249,313 249,313 250,313 250,313 251,313 251,313 252,313 252,313 253,313 253,313 254,313 254,313 255,313 255,313 256,313 256,313 257,313 257,313 258,313 258,313 258,313 259,313 259,313 260,313 260,313 261,313 261,314 262,318 262,321 263,325 263,328 264,332 264,335 265,339 265,342 266,345 266,349 267,352 267,356 268,359 268,360 268,360 269,360 269,360 270,360 270,360 271,360 271,360 272,360 272,360 273,360 273,360 274,360 274,360 275,360 275,360 276,360 276,360 277,360 277,360 277,360 278,360 278,360 279,360 279,360 280,360 280,360 281,360 281,360 282,360 282,360 283,360 283,360 284,360 284,360 285,360 285,360 286,360 286,360 286,360 287,360 287,360 288,360 288,360 289,360 289,360 290,360 290,360 291,360 291,360 292,360 292,360 293,356 293,353 294,349 294,346 295,342 295,339 295,335 296,332 296,328 297,325 297,321 298,318 298,315 299,313 299,313 300,313 300,313 301,313 301,313 302,313 302,313 303,313 303,313 304,313 304,313 304,313 305,313 305,313 306,313 306,313 307,313 307,313 308,313 308,313 309,313 309,313 310,313 310,313 311,313 311,313 312,313 312,313 313,313 313,313 313,313 314,313 314,313 315,313 315,313 316,313 316,313 317,313 317,313 318,313 318,313 319,313 319,313 320,313 320,313 321,313 321,313 322,313 322,313 322,313 323,313 323,311 324,307 324,304 325,301 325,297 326,294 326,290 327,287 327,283 328,280 328,276 329,273 329,269 330,266 330,263 331,259 331,256 331,252 332,249 332,245 333,242 333,238 334,235 334,231 335,228 335,225 336,221 336,218 337,214 337,211 338,207 338,204 339,200 339,200 340,200 340,200 340,200 341,200 341,200 342,200 342,200 343,200 343,200 344,200 344,200 345,200 345,200 346,200 346,200 347,200 347,200 348,200 348,200 349,200 349,200 349,200 350,200 350,200 351,200 351,200 352,200 352,200 353,200 353,200 354,200 354,200 355,200 355,200 356,200 356,200 357,200 357,200 358,200 358,200 359,200 359,200 359,200 360,200 360,200 361,200 361,200 362,200 362,200 363,200 363,200 364,200 364,200 365,200 365,200 366,200 366,200 367,197 367,193 368,190 368,187 368,183 369,180 369,176 370,173 370,169 371,166 371,162 372,159 372,155 373,152 373,149 374,145 374,142 375,138 375,135 376,131 376,128 377,124 377,121 377,117 378,114 378,111 379,107 379,104 380,100 380,97 381,93 381,90 382,86 382,86 383,86 383,86 384,86 384,86 385,86 385,86 386,86 386,86 386,86 387,86 387,86 388,86 388,86 389,86 389,86 390,86 390,86 391,86 391,86 392,86 392,86 393,86 393,86 394,86 394,86 395,86 395,86 395,86 396,86 396,86 397,86 397,86 398,86 398,86 399,86 399,86 400,86 400,86 401,86 401,86 402,86 402,86 403,86 403,86 404,86 404,86 404,86 405,86 405,86 406,86 406,86 407,86 407,86 408,86 408,86 409,86 409,85 410,82 410,79 411,75 411,72 412,68 412,65 413,61 413,58 413,54 414,51 414,47 415,44 415,41 416,40 416,40 417,40 417,40 418,40 418,40 419,40 419,40 420,40 420,40 421,40 421,40 422,40 422,40 422,40 423,40 423,40 424,40 424,40 425,40 425,40 426,40 426,40 427,40 427,40 428,40 428,40 429,40 429,40 430,40 430,40 431,40 431,40 432,40 432,40 432,40 433,40 433,40 434,40 434,40 435,40 435,40 436,40 436,40 437,40 437,40 438,40 438,40 439,40 439,40 440,40 440,40 441,42 441,46 441,49 442,52 442,56 443,59 443,63 444,66 444,70 445,73 445,77 446,80 446,84 447,86 447,86 448,86 448,86 449,86 449,86 450,86 450,86 450,86 451,86 451,86 452,86 452,86 453,86 453,86 454,86 454,86 455,86 455,86 456,86 456,86 457,86 457,86 458,86 458,86 459,86 459,86 459,86 460,86 460,86 461,86 461,86 462,86 462,86 463,86 463,86 464,86 464,86 465,86 465,86 466,86 466,86 467,86 467,86 468,86 468,86 468,86 469,86 469,86 470,86 470,86 471,86 471,87 472,91 472,94 473,98 473,101 474,105 474,108 475,111 475,115 476,118 476,122 477,125 477,129 477,132 478,136 478,139 479,143 479,146 480,149 480,153 481,156 481,160 482,163 482,167 483,170 483,174 484,177 484,181 485,184 485,187 486,191 486,194 486,198 487,200 487,200 488,200 488,200 489,200 489,200 490,200 490,200 491,200 491,200 492,200 492,200 493,200 493,200 494,200 494,200 495,200 495,200 495,200 496,200 496,200 497,200 497,200 498,200 498,200 499,200 499,200 500,200 500,200 501,200 501,200 502,200 502,200 503,200 503,200 504,200 504,200 504,200 505,200 505,200 506,200 506,200 507,200 507,200 508,200 508,200 509,200 509,200 510,200 510,200 511,200 511,200 512,200 512,200 513,200 513,200 513,200 514,200 514,202 515,206 515,209 516,212 516,216 517,219 517,223 518,226 518,230 519,233 519,237 520,240 520,244 521,247 521,250 522,254 522,257 523,261 523,264 523,268 524,271 524,275 525,278 525,282 526,285 526,288 527,292 527,295 528,299 528,302 529,306 529,309 530,313 530,313 531,313 531,313 532,313 532,313 532,313 533,313 533,313 534,313 534,313 535,313 535,313 536,313 536,313 537,313 537,313 538,313 538,313 539,313 539,313 540,313 540,313 541,313 541,313 541,313 542,313 542,313 543,313 543,313 544,313 544,313 545,313 545,313 546,313 546,313 547,313 547,313 548,313 548,313 549,313 549,313 550,313 550,313 550,313 551,313 551,313 552,313 552,313 553,313 553,313 554,313 554,313 555,313 555,313 556,313 556,313 557,313 557,313 558,316 558,320 559,323 559,326 559,330 560,333 560,337 561,340 561,344 562,347 562,351 563,354 563,358 564,360 564,360 565,360 565,360 566,360 566,360 567,360 567,360 568,360 568,360 568,360 569,360 569,360 570,360 570,360 571,360 571,360 572,360 572,360 573,360 573,360 574,360 574,360 575,360 575,360 576,360 576,360 577,360 577,360 577,360 578,360 578,360 579,360 579,360 580,360 580,360 581,360 581,360 582,360 582,360 583,360 583,360 584,360 584,360 585,360 585,360 586,360 586,360 586,360 587,360 587,360 588,360 588,358 589,354 589,351 590,347 590,344 591,340 591,337 592,334 592,330 593,327 593,323 594,320 594,316 595,313 595,313 595,313 596,313 596,313 597,313 597,313 598,313 598,313 599,313 599,313 600,313 600,313 601,313 601,313 602,313 602,313 603,313 603,313 604,313 604,313 605,313 605,313 605,313 606,313 606,313 607,313 607,313 608,313 608,313 609,313 609,313 610,313 610,313 611,313 611,313 612,313 612,313 613,313 613,313 614,313 614,313 614,313 615,313 615,313 616,313 616,313 617,313 617,313 618,313 618,313 619,313 619,312 620,308 620,305 621,301 621,298 622,294 622,291 623,288 623,284 623,281 624,277 624,274 625,270 625,267 626,263 626,260 627,256 627,253 628,250 628,246 629,243 629,239 630,236 630,232 631,229 631,225 632,222 632,218 632,215 633,212 633,208 634,205 634,201 635,200 635,200 636,200 636,200 637,200 637,200 638,200 638,200 639,200 639,200 640,200 640,200 641,200 641,200 641,200 642,200 642,200 643,200 643,200 644,200 644,200 645,200 645,200 646,200 646,200 647,200 647,200 648,200 648,200 649,200 649,200 650,200 650,200 650,200 651,200 651,200 652,200 652,200 653,200 653,200 654,200 654,200 655,200 655,200 656,200 656,200 657,200 657,200 658,200 658,200 659,200 659,200 659,200 660,200 660,200 661,200 661,200 662,200 662,198 663,194 663,191 664,187 664,184 665,180 665,177 666,174 666,170 667,167 667,163 668,160 668,156 668,153 669,149 669,146 670,142 670,139 671,136 671,132 672,129 672,125 673,122 673,118 674,115 674,111 675,108 675,104 676,101 676,98 677,94 677,91 678,87 678,86 678,86 679,86 679,86 680,86 680,86 681,86 681,86 682,86 682,86 683,86 683,86 684,86 684,86 685,86 685,86 686,86 686,86 687,86 687,86 687,86 688,86 688,86 689,86 689,86 690,86 690,86 691,86 691,86 692,86 692,86 693,86 693,86 694,86 694,86 695,86 695,86 696,86 696,86 696,86 697,86 697,86 698,86 698,86 699,86 699,86 700,86 700,86 701,86 701,86 702,86 702,86 703,86 703,86 704,86 704,86 705,86 705,86 705,90 706,93 706,97 707,100 707,104 708,107 708,111 709,114 709,117 710,121 710,124 711,128 711,131 712,135 712,138 713,142 713,145 714,149 714,152 714,155 715,159 715,162 716,166 716,169 717,173 717,176 718,180 718,183 719,187 719,190 720,193 720,197 721,200 721,200 722,200 722,200 723,200 723,200 723,200 724,200 724,200 725,200 725,200 726,200 726,200 727,200 727,200 728,200 728,200 729,200 729,200 730,200 730,200 731,200 731,200 732,200 732,200 732,200 733,200 733,200 734,200 734,200 735,200 735,200 736,200 736,200 737,200 737,200 738,200 738,200 739,200 739,200 740,200 740,200 741,200 741,200 741,200 742,200 742,200 743,200 743,200 744,200 744,200 745,200 745,200 746,200 746,200 747,200 747,200 748,200 748,200 749,200 749,200 750,200 750,200 750,200 751,200 751,200 752,200 752,200 753,200 753,200 754,200 754,200 755,200 755,200 756,200 756,200 757,200 757,200 758,200 758,200 759,200 759,200 760,200" stroke="#e41a1c" fill="none" stroke-width="1.5" opacity="0.85"/><polyline points="40,200 40,200 40,200 41,200 41,200 42,200 42,200 43,200 43,200 44,200 44,200 45,200 45,200 46,200 46,200 47,200 47,200 48,200 48,200 49,200 49,200 49,200 50,200 50,200 51,200 51,200 52,200 52,200 53,200 53,200 54,200 54,200 55,200 55,200 56,200 56,200 57,200 57,200 58,200 58,200 58,200 59,200 59,200 60,200 60,200 61,200 61,200 62,200 62,200 63,200 63,200 64,200 64,200 65,200 65,200 66,200 66,200 67,200 67,200 67,200 68,200 68,200 69,200 69,200 70,200 70,200 71,200 71,200 72,200 72,200 73,200 73,200 74,200 74,200 75,200 75,200 76,200 76,200 76,200 77,200 77,200 78,200 78,200 79,200 79,200 80,200 80,200 81,200 81,200 82,200 82,200 83,200 83,200 84,200 84,200 85,200 85,200 85,200 86,200 86,200 87,200 87,200 88,200 88,200 89,200 89,200 90,200 90,200 91,200 91,200 92,200 92,200 93,200 93,200 94,200 94,200 94,200 95,200 95,200 96,200 96,200 97,200 97,200 98,200 98,200 99,200 99,200 100,200 100,200 101,200 101,200 102,200 102,200 103,200 103,200 103,200 104,200 104,200 105,200 105,200 106,200 106,200 107,200 107,200 108,200 108,200 109,200 109,200 110,200 110,200 111,200 111,200 112,200 112,200 112,200 113,200 113,200 114,200 114,200 115,200 115,200 116,200 116,200 117,200 117,200 118,200 118,200 119,200 119,200 120,200 120,200 121,200 121,200 122,200 122,200 122,200 123,200 123,200 124,200 124,200 125,200 125,200 126,200 126,200 127,200 127,200 128,200 128,200 129,200 129,200 130,200 130,200 131,200 131,200 131,200 132,200 132,200 133,200 133,200 134,200 134,200 135,200 135,200 136,200 136,200 137,200 137,200 138,200 138,200 139,200 139,200 140,200 140,200 140,200 141,200 141,200 142,200 142,200 143,200 143,197 144,193 144,190 145,187 145,183 146,180 146,176 147,173 147,169 148,166 148,162 149,159 149,155 149,152 150,149 150,145 151,142 151,138 152,135 152,132 153,132 153,132 154,132 154,132 155,132 155,132 156,132 156,132 157,132 157,132 158,132 158,132 158,132 159,132 159,132 160,132 160,132 161,132 161,132 162,132 162,132 163,132 163,132 164,132 164,132 165,132 165,132 166,132 166,132 167,132 167,132 167,132 168,132 168,132 169,132 169,132 170,132 170,132 171,132 171,132 172,132 172,132 173,132 173,132 174,132 174,131 175,127 175,124 176,120 176,117 176,113 177,110 177,107 178,104 178,104 179,104 179,104 180,104 180,104 181,104 181,104 182,104 182,104 183,104 183,104 184,104 184,104 185,104 185,104 186,104 186,104 186,104 187,104 187,104 188,104 188,104 189,104 189,104 190,104 190,104 191,104 191,104 192,104 192,104 193,104 193,104 194,104 194,104 195,104 195,104 195,104 196,104 196,104 197,104 197,104 198,104 198,104 199,104 199,104 200,104 200,104 201,104 201,104 202,104 202,104 203,104 203,104 204,104 204,104 204,104 205,104 205,104 206,104 206,104 207,104 207,104 208,104 208,104 209,104 209,104 210,104 210,104 211,104 211,104 212,104 212,104 213,104 213,104 213,104 214,104 214,104 215,104 215,104 216,104 216,104 217,104 217,105 218,109 218,112 219,116 219,119 220,123 220,126 221,129 221,132 222,132 222,132 222,132 223,132 223,132 224,132 224,132 225,132 225,132 226,132 226,132 227,132 227,132 228,132 228,132 229,132 229,132 230,132 230,132 231,132 231,132 231,132 232,132 232,132 233,132 233,132 234,132 234,132 235,132 235,132 236,132 236,132 237,132 237,132 238,132 238,132 239,132 239,132 240,132 240,132 240,132 241,132 241,132 242,132 242,132 243,132 243,132 244,132 244,132 245,132 245,132 246,132 246,132 247,132 247,132 248,132 248,132 249,132 249,132 249,132 250,132 250,132 251,132 251,132 252,132 252,132 253,132 253,132 254,132 254,132 255,132 255,132 256,132 256,132 257,132 257,132 258,132 258,132 258,132 259,132 259,132 260,132 260,132 261,132 261,133 262,137 262,140 263,144 263,147 264,151 264,154 265,158 265,161 266,164 266,168 267,171 267,175 268,178 268,182 268,185 269,189 269,192 270,196 270,199 271,200 271,200 272,200 272,200 273,200 273,200 274,200 274,200 275,200 275,200 276,200 276,200 277,200 277,200 277,200 278,200 278,200 279,200 279,200 280,200 280,200 281,200 281,200 282,200 282,200 283,200 283,200 284,200 284,200 285,200 285,200 286,200 286,200 286,200 287,200 287,200 288,200 288,200 289,200 289,200 290,200 290,200 291,200 291,200 292,200 292,200 293,203 293,206 294,210 294,213 295,217 295,220 295,224 296,227 296,231 297,234 297,238 298,241 298,244 299,248 299,251 300,255 300,258 301,262 301,265 302,267 302,267 303,267 303,267 304,267 304,267 304,267 305,267 305,267 306,267 306,267 307,267 307,267 308,267 308,267 309,267 309,267 310,267 310,267 311,267 311,267 312,267 312,267 313,267 313,267 313,267 314,267 314,267 315,267 315,267 316,267 316,267 317,267 317,267 318,267 318,267 319,267 319,267 320,267 320,267 321,267 321,267 322,267 322,267 322,267 323,267 323,269 324,273 324,276 325,279 325,283 326,286 326,290 327,293 327,296 328,296 328,296 329,296 329,296 330,296 330,296 331,296 331,296 331,296 332,296 332,296 333,296 333,296 334,296 334,296 335,296 335,296 336,296 336,296 337,296 337,296 338,296 338,296 339,296 339,296 340,296 340,296 340,296 341,296 341,296 342,296 342,296 343,296 343,296 344,296 344,296 345,296 345,296 346,296 346,296 347,296 347,296 348,296 348,296 349,296 349,296 349,296 350,296 350,296 351,296 351,296 352,296 352,296 353,296 353,296 354,296 354,296 355,296 355,296 356,296 356,296 357,296 357,296 358,296 358,296 359,296 359,296 359,296 360,296 360,296 361,296 361,296 362,296 362,296 363,296 363,296 364,296 364,296 365,296 365,296 366,296 366,296 367,293 367,289 368,286 368,283 368,279 369,276 369,272 370,269 370,267 371,267 371,267 372,267 372,267 373,267 373,267 374,267 374,267 375,267 375,267 376,267 376,267 377,267 377,267 377,267 378,267 378,267 379,267 379,267 380,267 380,267 381,267 381,267 382,267 382,267 383,267 383,267 384,267 384,267 385,267 385,267 386,267 386,267 386,267 387,267 387,267 388,267 388,267 389,267 389,267 390,267 390,267 391,267 391,267 392,267 392,267 393,267 393,267 394,267 394,267 395,267 395,267 395,267 396,267 396,267 397,267 397,267 398,267 398,267 399,267 399,267 400,267 400,267 401,267 401,267 402,267 402,267 403,267 403,267 404,267 404,267 404,267 405,267 405,267 406,267 406,267 407,267 407,267 408,267 408,267 409,267 409,267 410,263 410,260 411,256 411,253 412,249 412,246 413,242 413,239 413,235 414,232 414,229 415,225 415,222 416,218 416,215 417,211 417,208 418,204 418,201 419,200 419,200 420,200 420,200 421,200 421,200 422,200 422,200 422,200 423,200 423,200 424,200 424,200 425,200 425,200 426,200 426,200 427,200 427,200 428,200 428,200 429,200 429,200 430,200 430,200 431,200 431,200 432,200 432,200 432,200 433,200 433,200 434,200 434,200 435,200 435,200 436,200 436,200 437,200 437,200 438,200 438,200 439,200 439,200 440,200 440,200 441,197 441,193 441,190 442,187 442,183 443,180 443,176 444,173 444,169 445,166 445,162 446,159 446,155 447,152 447,149 448,145 448,142 449,138 449,135 450,132 450,132 450,132 451,132 451,132 452,132 452,132 453,132 453,132 454,132 454,132 455,132 455,132 456,132 456,132 457,132 457,132 458,132 458,132 459,132 459,132 459,132 460,132 460,132 461,132 461,132 462,132 462,132 463,132 463,132 464,132 464,132 465,132 465,132 466,132 466,132 467,132 467,132 468,132 468,132 468,132 469,132 469,132 470,132 470,132 471,132 471,131 472,127 472,124 473,120 473,117 474,113 474,110 475,107 475,104 476,104 476,104 477,104 477,104 477,104 478,104 478,104 479,104 479,104 480,104 480,104 481,104 481,104 482,104 482,104 483,104 483,104 484,104 484,104 485,104 485,104 486,104 486,104 486,104 487,104 487,104 488,104 488,104 489,104 489,104 490,104 490,104 491,104 491,104 492,104 492,104 493,104 493,104 494,104 494,104 495,104 495,104 495,104 496,104 496,104 497,104 497,104 498,104 498,104 499,104 499,104 500,104 500,104 501,104 501,104 502,104 502,104 503,104 503,104 504,104 504,104 504,104 505,104 505,104 506,104 506,104 507,104 507,104 508,104 508,104 509,104 509,104 510,104 510,104 511,104 511,104 512,104 512,104 513,104 513,104 513,104 514,104 514,106 515,110 515,113 516,116 516,120 517,123 517,127 518,130 518,132 519,132 519,132 520,132 520,132 521,132 521,132 522,132 522,132 523,132 523,132 523,132 524,132 524,132 525,132 525,132 526,132 526,132 527,132 527,132 528,132 528,132 529,132 529,132 530,132 530,132 531,132 531,132 532,132 532,132 532,132 533,132 533,132 534,132 534,132 535,132 535,132 536,132 536,132 537,132 537,132 538,132 538,132 539,132 539,132 540,132 540,132 541,132 541,132 541,132 542,132 542,132 543,132 543,132 544,132 544,132 545,132 545,132 546,132 546,132 547,132 547,132 548,132 548,132 549,132 549,132 550,132 550,132 550,132 551,132 551,132 552,132 552,132 553,132 553,132 554,132 554,132 555,132 555,132 556,132 556,132 557,132 557,132 558,135 558,139 559,142 559,145 559,149 560,152 560,156 561,159 561,163 562,166 562,170 563,173 563,177 564,180 564,183 565,187 565,190 566,194 566,197 567,200 567,200 568,200 568,200 568,200 569,200 569,200 570,200 570,200 571,200 571,200 572,200 572,200 573,200 573,200 574,200 574,200 575,200 575,200 576,200 576,200 577,200 577,200 577,200 578,200 578,200 579,200 579,200 580,200 580,200 581,200 581,200 582,200 582,200 583,200 583,200 584,200 584,200 585,200 585,200 586,200 586,200 586,200 587,200 587,200 588,200 588,201 589,205 589,208 590,212 590,215 591,219 591,222 592,225 592,229 593,232 593,236 594,239 594,243 595,246 595,250 595,253 596,257 596,260 597,263 597,267 598,267 598,267 599,267 599,267 600,267 600,267 601,267 601,267 602,267 602,267 603,267 603,267 604,267 604,267 605,267 605,267 605,267 606,267 606,267 607,267 607,267 608,267 608,267 609,267 609,267 610,267 610,267 611,267 611,267 612,267 612,267 613,267 613,267 614,267 614,267 614,267 615,267 615,267 616,267 616,267 617,267 617,267 618,267 618,267 619,267 619,268 620,272 620,275 621,279 621,282 622,286 622,289 623,292 623,296 623,296 624,296 624,296 625,296 625,296 626,296 626,296 627,296 627,296 628,296 628,296 629,296 629,296 630,296 630,296 631,296 631,296 632,296 632,296 632,296 633,296 633,296 634,296 634,296 635,296 635,296 636,296 636,296 637,296 637,296 638,296 638,296 639,296 639,296 640,296 640,296 641,296 641,296 641,296 642,296 642,296 643,296 643,296 644,296 644,296 645,296 645,296 646,296 646,296 647,296 647,296 648,296 648,296 649,296 649,296 650,296 650,296 650,296 651,296 651,296 652,296 652,296 653,296 653,296 654,296 654,296 655,296 655,296 656,296 656,296 657,296 657,296 658,296 658,296 659,296 659,296 659,296 660,296 660,296 661,296 661,296 662,296 662,294 663,290 663,287 664,283 664,280 665,276 665,273 666,270 666,267 667,267 667,267 668,267 668,267 668,267 669,267 669,267 670,267 670,267 671,267 671,267 672,267 672,267 673,267 673,267 674,267 674,267 675,267 675,267 676,267 676,267 677,267 677,267 678,267 678,267 678,267 679,267 679,267 680,267 680,267 681,267 681,267 682,267 682,267 683,267 683,267 684,267 684,267 685,267 685,267 686,267 686,267 687,267 687,267 687,267 688,267 688,267 689,267 689,267 690,267 690,267 691,267 691,267 692,267 692,267 693,267 693,267 694,267 694,267 695,267 695,267 696,267 696,267 696,267 697,267 697,267 698,267 698,267 699,267 699,267 700,267 700,267 701,267 701,267 702,267 702,267 703,267 703,267 704,267 704,267 705,267 705,267 705,264 706,260 706,257 707,254 707,250 708,247 708,243 709,240 709,236 710,233 710,229 711,226 711,222 712,219 712,216 713,212 713,209 714,205 714,202 714,200 715,200 715,200 716,200 716,200 717,200 717,200 718,200 718,200 719,200 719,200 720,200 720,200 721,200 721,200 722,200 722,200 723,200 723,200 723,200 724,200 724,200 725,200 725,200 726,200 726,200 727,200 727,200 728,200 728,200 729,200 729,200 730,200 730,200 731,200 731,200 732,200 732,200 732,200 733,200 733,200 734,200 734,200 735,200 735,200 736,200 736,200 737,200 737,200 738,200 738,200 739,200 739,200 740,200 740,200 741,200 741,200 741,200 742,200 742,200 743,200 743,200 744,200 744,200 745,200 745,200 746,200 746,200 747,200 747,200 748,200 748,200 749,200 749,200 750,200 750,200 750,200 751,200 751,200 752,200 752,200 753,200 753,200 754,200 754,200 755,200 755,200 756,200 756,200 757,200 757,200 758,200 758,200 759,200 759,200 760,200" stroke="#377eb8" fill="none" stroke-width="1.5" opacity="0.85"/><polyline points="40,200 40,200 40,200 41,200 41,200 42,200 42,200 43,200 43,200 44,200 44,200 45,200 45,200 46,200 46,200 47,200 47,200 48,200 48,200 49,200 49,200 49,200 50,200 50,200 51,200 51,200 52,200 52,200 53,200 53,200 54,200 54,200 55,200 55,200 56,200 56,200 57,200 57,200 58,200 58,200 58,200 59,200 59,200 60,200 60,200 61,200 61,200 62,200 62,200 63,200 63,200 64,200 64,200 65,200 65,200 66,200 66,200 67,200 67,200 67,200 68,200 68,200 69,200 69,200 70,200 70,200 71,200 71,200 72,200 72,200 73,200 73,200 74,200 74,200 75,200 75,200 76,200 76,200 76,200 77,200 77,200 78,200 78,200 79,200 79,200 80,200 80,200 81,200 81,200 82,200 82,200 83,200 83,200 84,200 84,200 85,200 85,200 85,200 86,200 86,200 87,200 87,196 88,193 88,189 89,186 89,182 90,179 90,175 91,172 91,168 92,165 92,161 93,158 93,155 94,154 94,154 94,154 95,154 95,154 96,154 96,154 97,154 97,154 98,154 98,154 99,154 99,154 100,154 100,154 101,154 101,154 102,154 102,154 103,154 103,154 103,154 104,154 104,154 105,154 105,154 106,154 106,154 107,154 107,154 108,154 108,154 109,154 109,154 110,154 110,154 111,154 111,154 112,154 112,154 112,154 113,154 113,154 114,154 114,154 115,154 115,154 116,154 116,154 117,154 117,154 118,154 118,154 119,154 119,154 120,154 120,154 121,154 121,154 122,154 122,154 122,154 123,154 123,154 124,154 124,154 125,154 125,154 126,154 126,154 127,154 127,154 128,154 128,154 129,154 129,154 130,154 130,154 131,154 131,154 131,154 132,154 132,154 133,154 133,154 134,154 134,154 135,154 135,154 136,154 136,154 137,154 137,154 138,154 138,154 139,154 139,154 140,154 140,154 140,154 141,154 141,154 142,154 142,154 143,154 143,157 144,160 144,164 145,167 145,171 146,174 146,178 147,181 147,184 148,188 148,191 149,195 149,198 149,200 150,200 150,200 151,200 151,200 152,200 152,200 153,200 153,200 154,200 154,200 155,200 155,200 156,200 156,200 157,200 157,200 158,200 158,200 158,200 159,200 159,200 160,200 160,200 161,200 161,200 162,200 162,200 163,200 163,200 164,200 164,200 165,200 165,200 166,200 166,200 167,200 167,200 167,200 168,200 168,200 169,200 169,200 170,200 170,200 171,200 171,200 172,200 172,200 173,200 173,200 174,200 174,200 175,204 175,207 176,211 176,214 176,218 177,221 177,225 178,228 178,231 179,235 179,238 180,242 180,245 181,245 181,245 182,245 182,245 183,245 183,245 184,245 184,245 185,245 185,245 186,245 186,245 186,245 187,245 187,245 188,245 188,245 189,245 189,245 190,245 190,245 191,245 191,245 192,245 192,245 193,245 193,245 194,245 194,245 195,245 195,245 195,245 196,245 196,245 197,245 197,245 198,245 198,245 199,245 199,245 200,245 200,245 201,245 201,245 202,245 202,245 203,245 203,245 204,245 204,245 204,245 205,245 205,245 206,245 206,245 207,245 207,245 208,245 208,245 209,245 209,245 210,245 210,245 211,245 211,245 212,245 212,245 213,245 213,245 213,245 214,245 214,245 215,245 215,245 216,245 216,245 217,245 217,246 218,250 218,253 219,257 219,260 220,264 220,264 221,264 221,264 222,264 222,264 222,264 223,264 223,264 224,264 224,264 225,264 225,264 226,264 226,264 227,264 227,264 228,264 228,264 229,264 229,264 230,264 230,264 231,264 231,264 231,264 232,264 232,264 233,264 233,264 234,264 234,264 235,264 235,264 236,264 236,264 237,264 237,264 238,264 238,264 239,264 239,264 240,264 240,264 240,264 241,264 241,264 242,264 242,264 243,264 243,264 244,264 244,264 245,264 245,264 246,264 246,264 247,264 247,264 248,264 248,264 249,264 249,264 249,264 250,264 250,264 251,264 251,264 252,264 252,264 253,264 253,264 254,264 254,264 255,264 255,264 256,264 256,264 257,264 257,264 258,264 258,264 258,264 259,264 259,264 260,264 260,264 261,264 261,262 262,258 262,255 263,251 263,248 264,245 264,245 265,245 265,245 266,245 266,245 267,245 267,245 268,245 268,245 268,245 269,245 269,245 270,245 270,245 271,245 271,245 272,245 272,245 273,245 273,245 274,245 274,245 275,245 275,245 276,245 276,245 277,245 277,245 277,245 278,245 278,245 279,245 279,245 280,245 280,245 281,245 281,245 282,245 282,245 283,245 283,245 284,245 284,245 285,245 285,245 286,245 286,245 286,245 287,245 287,245 288,245 288,245 289,245 289,245 290,245 290,245 291,245 291,245 292,245 292,245 293,241 293,238 294,234 294,231 295,227 295,224 295,221 296,217 296,214 297,210 297,207 298,203 298,200 299,200 299,200 300,200 300,200 301,200 301,200 302,200 302,200 303,200 303,200 304,200 304,200 304,200 305,200 305,200 306,200 306,200 307,200 307,200 308,200 308,200 309,200 309,200 310,200 310,200 311,200 311,200 312,200 312,200 313,200 313,200 313,200 314,200 314,200 315,200 315,200 316,200 316,200 317,200 317,200 318,200 318,200 319,200 319,200 320,200 320,200 321,200 321,200 322,200 322,200 322,200 323,200 323,198 324,194 324,191 325,187 325,184 326,180 326,177 327,174 327,170 328,167 328,163 329,160 329,156 330,154 330,154 331,154 331,154 331,154 332,154 332,154 333,154 333,154 334,154 334,154 335,154 335,154 336,154 336,154 337,154 337,154 338,154 338,154 339,154 339,154 340,154 340,154 340,154 341,154 341,154 342,154 342,154 343,154 343,154 344,154 344,154 345,154 345,154 346,154 346,154 347,154 347,154 348,154 348,154 349,154 349,154 349,154 350,154 350,154 351,154 351,154 352,154 352,154 353,154 353,154 354,154 354,154 355,154 355,154 356,154 356,154 357,154 357,154 358,154 358,154 359,154 359,154 359,154 360,154 360,154 361,154 361,154 362,154 362,154 363,154 363,154 364,154 364,154 365,154 365,154 366,154 366,154 367,152 367,148 368,145 368,141 368,138 369,136 369,136 370,136 370,136 371,136 371,136 372,136 372,136 373,136 373,136 374,136 374,136 375,136 375,136 376,136 376,136 377,136 377,136 377,136 378,136 378,136 379,136 379,136 380,136 380,136 381,136 381,136 382,136 382,136 383,136 383,136 384,136 384,136 385,136 385,136 386,136 386,136 386,136 387,136 387,136 388,136 388,136 389,136 389,136 390,136 390,136 391,136 391,136 392,136 392,136 393,136 393,136 394,136 394,136 395,136 395,136 395,136 396,136 396,136 397,136 397,136 398,136 398,136 399,136 399,136 400,136 400,136 401,136 401,136 402,136 402,136 403,136 403,136 404,136 404,136 404,136 405,136 405,136 406,136 406,136 407,136 407,136 408,136 408,136 409,136 409,136 410,140 410,143 411,147 411,150 412,154 412,154 413,154 413,154 413,154 414,154 414,154 415,154 415,154 416,154 416,154 417,154 417,154 418,154 418,154 419,154 419,154 420,154 420,154 421,154 421,154 422,154 422,154 422,154 423,154 423,154 424,154 424,154 425,154 425,154 426,154 426,154 427,154 427,154 428,154 428,154 429,154 429,154 430,154 430,154 431,154 431,154 432,154 432,154 432,154 433,154 433,154 434,154 434,154 435,154 435,154 436,154 436,154 437,154 437,154 438,154 438,154 439,154 439,154 440,154 440,154 441,157 441,160 441,164 442,167 442,171 443,174 443,178 444,181 444,184 445,188 445,191 446,195 446,198 447,200 447,200 448,200 448,200 449,200 449,200 450,200 450,200 450,200 451,200 451,200 452,200 452,200 453,200 453,200 454,200 454,200 455,200 455,200 456,200 456,200 457,200 457,200 458,200 458,200 459,200 459,200 459,200 460,200 460,200 461,200 461,200 462,200 462,200 463,200 463,200 464,200 464,200 465,200 465,200 466,200 466,200 467,200 467,200 468,200 468,200 468,200 469,200 469,200 470,200 470,200 471,200 471,200 472,204 472,207 473,211 473,214 474,218 474,221 475,225 475,228 476,231 476,235 477,238 477,242 477,245 478,245 478,245 479,245 479,245 480,245 480,245 481,245 481,245 482,245 482,245 483,245 483,245 484,245 484,245 485,245 485,245 486,245 486,245 486,245 487,245 487,245 488,245 488,245 489,245 489,245 490,245 490,245 491,245 491,245 492,245 492,245 493,245 493,245 494,245 494,245 495,245 495,245 495,245 496,245 496,245 497,245 497,245 498,245 498,245 499,245 499,245 500,245 500,245 501,245 501,245 502,245 502,245 503,245 503,245 504,245 504,245 504,245 505,245 505,245 506,245 506,245 507,245 507,245 508,245 508,245 509,245 509,245 510,245 510,245 511,245 511,245 512,245 512,245 513,245 513,245 513,245 514,245 514,247 515,251 515,254 516,258 516,261 517,264 517,264 518,264 518,264 519,264 519,264 520,264 520,264 521,264 521,264 522,264 522,264 523,264 523,264 523,264 524,264 524,264 525,264 525,264 526,264 526,264 527,264 527,264 528,264 528,264 529,264 529,264 530,264 530,264 531,264 531,264 532,264 532,264 532,264 533,264 533,264 534,264 534,264 535,264 535,264 536,264 536,264 537,264 537,264 538,264 538,264 539,264 539,264 540,264 540,264 541,264 541,264 541,264 542,264 542,264 543,264 543,264 544,264 544,264 545,264 545,264 546,264 546,264 547,264 547,264 548,264 548,264 549,264 549,264 550,264 550,264 550,264 551,264 551,264 552,264 552,264 553,264 553,264 554,264 554,264 555,264 555,264 556,264 556,264 557,264 557,264 558,260 558,257 559,253 559,250 559,246 560,245 560,245 561,245 561,245 562,245 562,245 563,245 563,245 564,245 564,245 565,245 565,245 566,245 566,245 567,245 567,245 568,245 568,245 568,245 569,245 569,245 570,245 570,245 571,245 571,245 572,245 572,245 573,245 573,245 574,245 574,245 575,245 575,245 576,245 576,245 577,245 577,245 577,245 578,245 578,245 579,245 579,245 580,245 580,245 581,245 581,245 582,245 582,245 583,245 583,245 584,245 584,245 585,245 585,245 586,245 586,245 586,245 587,245 587,245 588,245 588,243 589,240 589,236 590,233 590,229 591,226 591,222 592,219 592,215 593,212 593,208 594,205 594,202 595,200 595,200 595,200 596,200 596,200 597,200 597,200 598,200 598,200 599,200 599,200 600,200 600,200 601,200 601,200 602,200 602,200 603,200 603,200 604,200 604,200 605,200 605,200 605,200 606,200 606,200 607,200 607,200 608,200 608,200 609,200 609,200 610,200 610,200 611,200 611,200 612,200 612,200 613,200 613,200 614,200 614,200 614,200 615,200 615,200 616,200 616,200 617,200 617,200 618,200 618,200 619,200 619,199 620,195 620,192 621,188 621,185 622,181 622,178 623,174 623,171 623,168 624,164 624,161 625,157 625,154 626,154 626,154 627,154 627,154 628,154 628,154 629,154 629,154 630,154 630,154 631,154 631,154 632,154 632,154 632,154 633,154 633,154 634,154 634,154 635,154 635,154 636,154 636,154 637,154 637,154 638,154 638,154 639,154 639,154 640,154 640,154 641,154 641,154 641,154 642,154 642,154 643,154 643,154 644,154 644,154 645,154 645,154 646,154 646,154 647,154 647,154 648,154 648,154 649,154 649,154 650,154 650,154 650,154 651,154 651,154 652,154 652,154 653,154 653,154 654,154 654,154 655,154 655,154 656,154 656,154 657,154 657,154 658,154 658,154 659,154 659,154 659,154 660,154 660,154 661,154 661,154 662,154 662,153 663,149 663,146 664,142 664,139 665,136 665,136 666,136 666,136 667,136 667,136 668,136 668,136 668,136 669,136 669,136 670,136 670,136 671,136 671,136 672,136 672,136 673,136 673,136 674,136 674,136 675,136 675,136 676,136 676,136 677,136 677,136 678,136 678,136 678,136 679,136 679,136 680,136 680,136 681,136 681,136 682,136 682,136 683,136 683,136 684,136 684,136 685,136 685,136 686,136 686,136 687,136 687,136 687,136 688,136 688,136 689,136 689,136 690,136 690,136 691,136 691,136 692,136 692,136 693,136 693,136 694,136 694,136 695,136 695,136 696,136 696,136 696,136 697,136 697,136 698,136 698,136 699,136 699,136 700,136 700,136 701,136 701,136 702,136 702,136 703,136 703,136 704,136 704,136 705,136 705,136 705,139 706,142 706,146 707,149 707,153 708,156 708,160 709,163 709,167 710,170 710,174 711,177 711,180 712,184 712,187 713,191 713,194 714,198 714,200 714,200 715,200 715,200 716,200 716,200 717,200 717,200 718,200 718,200 719,200 719,200 720,200 720,200 721,200 721,200 722,200 722,200 723,200 723,200 723,200 724,200 724,200 725,200 725,200 726,200 726,200 727,200 727,200 728,200 728,200 729,200 729,200 730,200 730,200 731,200 731,200 732,200 732,200 732,200 733,200 733,200 734,200 734,200 735,200 735,200 736,200 736,200 737,200 737,200 738,200 738,200 739,200 739,200 740,200 740,200 741,200 741,200 741,200 742,200 742,200 743,200 743,200 744,200 744,200 745,200 745,200 746,200 746,200 747,200 747,200 748,200 748,200 749,200 749,200 750,200 750,200 750,200 751,200 751,200 752,200 752,200 753,200 753,200 754,200 754,200 755,200 755,200 756,200 756,200 757,200 757,200 758,200 758,200 759,200 759,200 760,200" stroke="#4daf4a" fill="none" stroke-width="1.5" opacity="0.85"/><polyline points="40,200 40,200 40,200 41,200 41,200 42,200 42,200 43,200 43,200 44,200 44,200 45,200 45,200 46,200 46,200 47,200 47,200 48,200 48,200 49,200 49,200 49,200 50,200 50,200 51,200 51,200 52,200 52,200 53,200 53,200 54,200 54,200 55,200 55,200 56,200 56,200 57,200 57,200 58,200 58,200 58,200 59,200 59,200 60,200 60,200 61,200 61,200 62,200 62,200 63,200 63,200 64,200 64,200 65,200 65,200 66,200 66,200 67,200 67,200 67,200 68,200 68,200 69,200 69,200 70,200 70,200 71,200 71,200 72,200 72,200 73,200 73,200 74,200 74,200 75,200 75,200 76,200 76,200 76,200 77,200 77,200 78,200 78,200 79,200 79,200 80,200 80,200 81,200 81,200 82,200 82,200 83,200 83,200 84,200 84,200 85,200 85,200 85,200 86,200 86,200 87,200 87,200 88,200 88,200 89,200 89,200 90,200 90,200 91,200 91,200 92,200 92,200 93,200 93,200 94,200 94,200 94,200 95,200 95,200 96,200 96,200 97,200 97,200 98,200 98,200 99,200 99,200 100,200 100,200 101,200 101,200 102,200 102,200 103,200 103,200 103,200 104,200 104,200 105,200 105,200 106,200 106,200 107,200 107,200 108,200 108,200 109,200 109,200 110,200 110,200 111,200 111,200 112,200 112,200 112,200 113,200 113,200 114,200 114,200 115,200 115,200 116,200 116,200 117,200 117,200 118,200 118,200 119,200 119,200 120,200 120,200 121,200 121,200 122,200 122,200 122,200 123,200 123,200 124,200 124,200 125,200 125,200 126,200 126,200 127,200 127,200 128,200 128,200 129,200 129,200 130,200 130,200 131,200 131,200 131,200 132,200 132,200 133,200 133,200 134,200 134,200 135,200 135,200 136,200 136,200 137,200 137,200 138,200 138,200 139,200 139,200 140,200 140,200 140,200 141,200 141,200 142,200 142,200 143,200 143,197 144,193 144,190 145,187 145,183 146,180 146,176 147,173 147,169 148,166 148,162 149,159 149,155 149,152 150,149 150,145 151,142 151,138 152,135 152,131 153,128 153,124 154,121 154,117 155,114 155,111 156,109 156,109 157,109 157,109 158,109 158,109 158,109 159,109 159,109 160,109 160,109 161,109 161,109 162,109 162,109 163,109 163,109 164,109 164,109 165,109 165,109 166,109 166,109 167,109 167,109 167,109 168,109 168,109 169,109 169,109 170,109 170,109 171,109 171,109 172,109 172,109 173,109 173,109 174,109 174,108 175,105 175,101 176,98 176,94 176,91 177,87 177,84 178,80 178,77 179,74 179,72 180,72 180,72 181,72 181,72 182,72 182,72 183,72 183,72 184,72 184,72 185,72 185,72 186,72 186,72 186,72 187,72 187,72 188,72 188,72 189,72 189,72 190,72 190,72 191,72 191,72 192,72 192,72 193,72 193,72 194,72 194,72 195,72 195,72 195,72 196,72 196,72 197,72 197,72 198,72 198,72 199,72 199,72 200,72 200,72 201,72 201,72 202,72 202,72 203,72 203,72 204,72 204,72 204,72 205,72 205,72 206,72 206,72 207,72 207,72 208,72 208,72 209,72 209,72 210,72 210,72 211,72 211,72 212,72 212,72 213,72 213,72 213,72 214,72 214,72 215,72 215,72 216,72 216,72 217,72 217,73 218,77 218,80 219,84 219,87 220,91 220,94 221,97 221,101 222,104 222,108 222,109 223,109 223,109 224,109 224,109 225,109 225,109 226,109 226,109 227,109 227,109 228,109 228,109 229,109 229,109 230,109 230,109 231,109 231,109 231,109 232,109 232,109 233,109 233,109 234,109 234,109 235,109 235,109 236,109 236,109 237,109 237,109 238,109 238,109 239,109 239,109 240,109 240,109 240,109 241,109 241,109 242,109 242,109 243,109 243,109 244,109 244,109 245,109 245,109 246,109 246,109 247,109 247,109 248,109 248,109 249,109 249,109 249,109 250,109 250,109 251,109 251,109 252,109 252,109 253,109 253,109 254,109 254,109 255,109 255,109 256,109 256,109 257,109 257,109 258,109 258,109 258,109 259,109 259,109 260,109 260,109 261,109 261,111 262,114 262,118 263,121 263,125 264,128 264,131 265,135 265,138 266,142 266,145 267,149 267,152 268,156 268,159 268,163 269,166 269,169 270,173 270,176 271,180 271,183 272,187 272,190 273,194 273,197 274,200 274,200 275,200 275,200 276,200 276,200 277,200 277,200 277,200 278,200 278,200 279,200 279,200 280,200 280,200 281,200 281,200 282,200 282,200 283,200 283,200 284,200 284,200 285,200 285,200 286,200 286,200 286,200 287,200 287,200 288,200 288,200 289,200 289,200 290,200 290,200 291,200 291,200 292,200 292,200 293,203 293,206 294,210 294,213 295,217 295,220 295,224 296,227 296,231 297,234 297,238 298,241 298,244 299,248 299,251 300,255 300,258 301,262 301,265 302,269 302,272 303,276 303,279 304,282 304,286 304,289 305,290 305,290 306,290 306,290 307,290 307,290 308,290 308,290 309,290 309,290 310,290 310,290 311,290 311,290 312,290 312,290 313,290 313,290 313,290 314,290 314,290 315,290 315,290 316,290 316,290 317,290 317,290 318,290 318,290 319,290 319,290 320,290 320,290 321,290 321,290 322,290 322,290 322,290 323,290 323,292 324,295 324,299 325,302 325,306 326,309 326,312 327,316 327,319 328,323 328,326 329,328 329,328 330,328 330,328 331,328 331,328 331,328 332,328 332,328 333,328 333,328 334,328 334,328 335,328 335,328 336,328 336,328 337,328 337,328 338,328 338,328 339,328 339,328 340,328 340,328 340,328 341,328 341,328 342,328 342,328 343,328 343,328 344,328 344,328 345,328 345,328 346,328 346,328 347,328 347,328 348,328 348,328 349,328 349,328 349,328 350,328 350,328 351,328 351,328 352,328 352,328 353,328 353,328 354,328 354,328 355,328 355,328 356,328 356,328 357,328 357,328 358,328 358,328 359,328 359,328 359,328 360,328 360,328 361,328 361,328 362,328 362,328 363,328 363,328 364,328 364,328 365,328 365,328 366,328 366,328 367,325 367,321 368,318 368,315 368,311 369,308 369,304 370,301 370,297 371,294 371,290 372,290 372,290 373,290 373,290 374,290 374,290 375,290 375,290 376,290 376,290 377,290 377,290 377,290 378,290 378,290 379,290 379,290 380,290 380,290 381,290 381,290 382,290 382,290 383,290 383,290 384,290 384,290 385,290 385,290 386,290 386,290 386,290 387,290 387,290 388,290 388,290 389,290 389,290 390,290 390,290 391,290 391,290 392,290 392,290 393,290 393,290 394,290 394,290 395,290 395,290 395,290 396,290 396,290 397,290 397,290 398,290 398,290 399,290 399,290 400,290 400,290 401,290 401,290 402,290 402,290 403,290 403,290 404,290 404,290 404,290 405,290 405,290 406,290 406,290 407,290 407,290 408,290 408,290 409,290 409,289 410,286 410,282 411,279 411,275 412,272 412,268 413,265 413,261 413,258 414,255 414,251 415,248 415,244 416,241 416,237 417,234 417,230 418,227 418,223 419,220 419,217 420,213 420,210 421,206 421,203 422,200 422,200 422,200 423,200 423,200 424,200 424,200 425,200 425,200 426,200 426,200 427,200 427,200 428,200 428,200 429,200 429,200 430,200 430,200 431,200 431,200 432,200 432,200 432,200 433,200 433,200 434,200 434,200 435,200 435,200 436,200 436,200 437,200 437,200 438,200 438,200 439,200 439,200 440,200 440,200 441,197 441,193 441,190 442,187 442,183 443,180 443,176 444,173 444,169 445,166 445,162 446,159 446,155 447,152 447,149 448,145 448,142 449,138 449,135 450,131 450,128 450,124 451,121 451,117 452,114 452,111 453,109 453,109 454,109 454,109 455,109 455,109 456,109 456,109 457,109 457,109 458,109 458,109 459,109 459,109 459,109 460,109 460,109 461,109 461,109 462,109 462,109 463,109 463,109 464,109 464,109 465,109 465,109 466,109 466,109 467,109 467,109 468,109 468,109 468,109 469,109 469,109 470,109 470,109 471,109 471,108 472,105 472,101 473,98 473,94 474,91 474,87 475,84 475,80 476,77 476,74 477,72 477,72 477,72 478,72 478,72 479,72 479,72 480,72 480,72 481,72 481,72 482,72 482,72 483,72 483,72 484,72 484,72 485,72 485,72 486,72 486,72 486,72 487,72 487,72 488,72 488,72 489,72 489,72 490,72 490,72 491,72 491,72 492,72 492,72 493,72 493,72 494,72 494,72 495,72 495,72 495,72 496,72 496,72 497,72 497,72 498,72 498,72 499,72 499,72 500,72 500,72 501,72 501,72 502,72 502,72 503,72 503,72 504,72 504,72 504,72 505,72 505,72 506,72 506,72 507,72 507,72 508,72 508,72 509,72 509,72 510,72 510,72 511,72 511,72 512,72 512,72 513,72 513,72 513,72 514,72 514,74 515,78 515,81 516,84 516,88 517,91 517,95 518,98 518,102 519,105 519,109 520,109 520,109 521,109 521,109 522,109 522,109 523,109 523,109 523,109 524,109 524,109 525,109 525,109 526,109 526,109 527,109 527,109 528,109 528,109 529,109 529,109 530,109 530,109 531,109 531,109 532,109 532,109 532,109 533,109 533,109 534,109 534,109 535,109 535,109 536,109 536,109 537,109 537,109 538,109 538,109 539,109 539,109 540,109 540,109 541,109 541,109 541,109 542,109 542,109 543,109 543,109 544,109 544,109 545,109 545,109 546,109 546,109 547,109 547,109 548,109 548,109 549,109 549,109 550,109 550,109 550,109 551,109 551,109 552,109 552,109 553,109 553,109 554,109 554,109 555,109 555,109 556,109 556,109 557,109 557,109 558,112 558,116 559,119 559,123 559,126 560,130 560,133 561,137 561,140 562,144 562,147 563,150 563,154 564,157 564,161 565,164 565,168 566,171 566,175 567,178 567,182 568,185 568,188 568,192 569,195 569,199 570,200 570,200 571,200 571,200 572,200 572,200 573,200 573,200 574,200 574,200 575,200 575,200 576,200 576,200 577,200 577,200 577,200 578,200 578,200 579,200 579,200 580,200 580,200 581,200 581,200 582,200 582,200 583,200 583,200 584,200 584,200 585,200 585,200 586,200 586,200 586,200 587,200 587,200 588,200 588,201 589,205 589,208 590,212 590,215 591,219 591,222 592,225 592,229 593,232 593,236 594,239 594,243 595,246 595,250 595,253 596,257 596,260 597,263 597,267 598,270 598,274 599,277 599,281 600,284 600,288 601,290 601,290 602,290 602,290 603,290 603,290 604,290 604,290 605,290 605,290 605,290 606,290 606,290 607,290 607,290 608,290 608,290 609,290 609,290 610,290 610,290 611,290 611,290 612,290 612,290 613,290 613,290 614,290 614,290 614,290 615,290 615,290 616,290 616,290 617,290 617,290 618,290 618,290 619,290 619,291 620,294 620,298 621,301 621,305 622,308 622,312 623,315 623,319 623,322 624,325 624,328 625,328 625,328 626,328 626,328 627,328 627,328 628,328 628,328 629,328 629,328 630,328 630,328 631,328 631,328 632,328 632,328 632,328 633,328 633,328 634,328 634,328 635,328 635,328 636,328 636,328 637,328 637,328 638,328 638,328 639,328 639,328 640,328 640,328 641,328 641,328 641,328 642,328 642,328 643,328 643,328 644,328 644,328 645,328 645,328 646,328 646,328 647,328 647,328 648,328 648,328 649,328 649,328 650,328 650,328 650,328 651,328 651,328 652,328 652,328 653,328 653,328 654,328 654,328 655,328 655,328 656,328 656,328 657,328 657,328 658,328 658,328 659,328 659,328 659,328 660,328 660,328 661,328 661,328 662,328 662,326 663,322 663,319 664,315 664,312 665,308 665,305 666,302 666,298 667,295 667,291 668,290 668,290 668,290 669,290 669,290 670,290 670,290 671,290 671,290 672,290 672,290 673,290 673,290 674,290 674,290 675,290 675,290 676,290 676,290 677,290 677,290 678,290 678,290 678,290 679,290 679,290 680,290 680,290 681,290 681,290 682,290 682,290 683,290 683,290 684,290 684,290 685,290 685,290 686,290 686,290 687,290 687,290 687,290 688,290 688,290 689,290 689,290 690,290 690,290 691,290 691,290 692,290 692,290 693,290 693,290 694,290 694,290 695,290 695,290 696,290 696,290 696,290 697,290 697,290 698,290 698,290 699,290 699,290 700,290 700,290 701,290 701,290 702,290 702,290 703,290 703,290 704,290 704,290 705,290 705,290 705,287 706,283 706,280 707,276 707,273 708,269 708,266 709,262 709,259 710,255 710,252 711,249 711,245 712,242 712,238 713,235 713,231 714,228 714,224 714,221 715,217 715,214 716,211 716,207 717,204 717,200 718,200 718,200 719,200 719,200 720,200 720,200 721,200 721,200 722,200 722,200 723,200 723,200 723,200 724,200 724,200 725,200 725,200 726,200 726,200 727,200 727,200 728,200 728,200 729,200 729,200 730,200 730,200 731,200 731,200 732,200 732,200 732,200 733,200 733,200 734,200 734,200 735,200 735,200 736,200 736,200 737,200 737,200 738,200 738,200 739,200 739,200 740,200 740,200 741,200 741,200 741,200 742,200 742,200 743,200 743,200 744,200 744,200 745,200 745,200 746,200 746,200 747,200 747,200 748,200 748,200 749,200 749,200 750,200 750,200 750,200 751,200 751,200 752,200 752,200 753,200 753,200 754,200 754,200 755,200 755,200 756,200 756,200 757,200 757,200 758,200 758,200 759,200 759,200 760,200" stroke="#984ea3" fill="none" stroke-width="1.5" opacity="0.85"/><polyline points="40,200 40,200 40,200 41,200 41,200 42,200 42,200 43,200 43,200 44,200 44,200 45,200 45,200 46,200 46,200 47,200 47,200 48,200 48,200 49,200 49,200 49,200 50,200 50,200 51,200 51,200 52,200 52,200 53,200 53,200 54,200 54,200 55,200 55,200 56,200 56,200 57,200 57,200 58,200 58,200 58,200 59,200 59,200 60,200 60,200 61,200 61,200 62,200 62,200 63,200 63,200 64,200 64,200 65,200 65,200 66,200 66,200 67,200 67,200 67,200 68,200 68,200 69,200 69,200 70,200 70,200 71,200 71,200 72,200 72,200 73,200 73,200 74,200 74,200 75,200 75,200 76,200 76,200 76,200 77,200 77,200 78,200 78,200 79,200 79,200 80,200 80,200 81,200 81,200 82,200 82,200 83,200 83,200 84,200 84,200 85,200 85,200 85,200 86,200 86,200 87,200 87,196 88,193 88,189 89,186 89,182 90,179 90,175 91,172 91,168 92,165 92,161 93,158 93,155 94,151 94,148 94,144 95,141 95,137 96,136 96,136 97,136 97,136 98,136 98,136 99,136 99,136 100,136 100,136 101,136 101,136 102,136 102,136 103,136 103,136 103,136 104,136 104,136 105,136 105,136 106,136 106,136 107,136 107,136 108,136 108,136 109,136 109,136 110,136 110,136 111,136 111,136 112,136 112,136 112,136 113,136 113,136 114,136 114,136 115,136 115,136 116,136 116,136 117,136 117,136 118,136 118,136 119,136 119,136 120,136 120,136 121,136 121,136 122,136 122,136 122,136 123,136 123,136 124,136 124,136 125,136 125,136 126,136 126,136 127,136 127,136 128,136 128,136 129,136 129,136 130,136 130,136 131,136 131,136 131,136 132,136 132,136 133,136 133,136 134,136 134,136 135,136 135,136 136,136 136,136 137,136 137,136 138,136 138,136 139,136 139,136 140,136 140,136 140,136 141,136 141,136 142,136 142,136 143,136 143,138 144,142 144,145 145,148 145,152 146,154 146,154 147,154 147,154 148,154 148,154 149,154 149,154 149,154 150,154 150,154 151,154 151,154 152,154 152,154 153,154 153,154 154,154 154,154 155,154 155,154 156,154 156,154 157,154 157,154 158,154 158,154 158,154 159,154 159,154 160,154 160,154 161,154 161,154 162,154 162,154 163,154 163,154 164,154 164,154 165,154 165,154 166,154 166,154 167,154 167,154 167,154 168,154 168,154 169,154 169,154 170,154 170,154 171,154 171,154 172,154 172,154 173,154 173,154 174,154 174,155 175,159 175,162 176,165 176,169 176,172 177,176 177,179 178,183 178,186 179,190 179,193 180,197 180,200 181,200 181,200 182,200 182,200 183,200 183,200 184,200 184,200 185,200 185,200 186,200 186,200 186,200 187,200 187,200 188,200 188,200 189,200 189,200 190,200 190,200 191,200 191,200 192,200 192,200 193,200 193,200 194,200 194,200 195,200 195,200 195,200 196,200 196,200 197,200 197,200 198,200 198,200 199,200 199,200 200,200 200,200 201,200 201,200 202,200 202,200 203,200 203,200 204,200 204,200 204,200 205,200 205,200 206,200 206,200 207,200 207,200 208,200 208,200 209,200 209,200 210,200 210,200 211,200 211,200 212,200 212,200 213,200 213,200 213,200 214,200 214,200 215,200 215,200 216,200 216,200 217,200 217,201 218,205 218,208 219,212 219,215 220,219 220,222 221,225 221,229 222,232 222,236 222,239 223,243 223,245 224,245 224,245 225,245 225,245 226,245 226,245 227,245 227,245 228,245 228,245 229,245 229,245 230,245 230,245 231,245 231,245 231,245 232,245 232,245 233,245 233,245 234,245 234,245 235,245 235,245 236,245 236,245 237,245 237,245 238,245 238,245 239,245 239,245 240,245 240,245 240,245 241,245 241,245 242,245 242,245 243,245 243,245 244,245 244,245 245,245 245,245 246,245 246,245 247,245 247,245 248,245 248,245 249,245 249,245 249,245 250,245 250,245 251,245 251,245 252,245 252,245 253,245 253,245 254,245 254,245 255,245 255,245 256,245 256,245 257,245 257,245 258,245 258,245 258,245 259,245 259,245 260,245 260,245 261,245 261,246 262,250 262,253 263,257 263,260 264,264 264,264 265,264 265,264 266,264 266,264 267,264 267,264 268,264 268,264 268,264 269,264 269,264 270,264 270,264 271,264 271,264 272,264 272,264 273,264 273,264 274,264 274,264 275,264 275,264 276,264 276,264 277,264 277,264 277,264 278,264 278,264 279,264 279,264 280,264 280,264 281,264 281,264 282,264 282,264 283,264 283,264 284,264 284,264 285,264 285,264 286,264 286,264 286,264 287,264 287,264 288,264 288,264 289,264 289,264 290,264 290,264 291,264 291,264 292,264 292,264 293,260 293,257 294,253 294,250 295,246 295,245 295,245 296,245 296,245 297,245 297,245 298,245 298,245 299,245 299,245 300,245 300,245 301,245 301,245 302,245 302,245 303,245 303,245 304,245 304,245 304,245 305,245 305,245 306,245 306,245 307,245 307,245 308,245 308,245 309,245 309,245 310,245 310,245 311,245 311,245 312,245 312,245 313,245 313,245 313,245 314,245 314,245 315,245 315,245 316,245 316,245 317,245 317,245 318,245 318,245 319,245 319,245 320,245 320,245 321,245 321,245 322,245 322,245 322,245 323,245 323,243 324,240 324,236 325,233 325,229 326,226 326,222 327,219 327,215 328,212 328,208 329,205 329,202 330,200 330,200 331,200 331,200 331,200 332,200 332,200 333,200 333,200 334,200 334,200 335,200 335,200 336,200 336,200 337,200 337,200 338,200 338,200 339,200 339,200 340,200 340,200 340,200 341,200 341,200 342,200 342,200 343,200 343,200 344,200 344,200 345,200 345,200 346,200 346,200 347,200 347,200 348,200 348,200 349,200 349,200 349,200 350,200 350,200 351,200 351,200 352,200 352,200 353,200 353,200 354,200 354,200 355,200 355,200 356,200 356,200 357,200 357,200 358,200 358,200 359,200 359,200 359,200 360,200 360,200 361,200 361,200 362,200 362,200 363,200 363,200 364,200 364,200 365,200 365,200 366,200 366,200 367,197 367,193 368,190 368,187 368,183 369,180 369,176 370,173 370,169 371,166 371,162 372,159 372,155 373,154 373,154 374,154 374,154 375,154 375,154 376,154 376,154 377,154 377,154 377,154 378,154 378,154 379,154 379,154 380,154 380,154 381,154 381,154 382,154 382,154 383,154 383,154 384,154 384,154 385,154 385,154 386,154 386,154 386,154 387,154 387,154 388,154 388,154 389,154 389,154 390,154 390,154 391,154 391,154 392,154 392,154 393,154 393,154 394,154 394,154 395,154 395,154 395,154 396,154 396,154 397,154 397,154 398,154 398,154 399,154 399,154 400,154 400,154 401,154 401,154 402,154 402,154 403,154 403,154 404,154 404,154 404,154 405,154 405,154 406,154 406,154 407,154 407,154 408,154 408,154 409,154 409,153 410,150 410,146 411,143 411,140 412,136 412,136 413,136 413,136 413,136 414,136 414,136 415,136 415,136 416,136 416,136 417,136 417,136 418,136 418,136 419,136 419,136 420,136 420,136 421,136 421,136 422,136 422,136 422,136 423,136 423,136 424,136 424,136 425,136 425,136 426,136 426,136 427,136 427,136 428,136 428,136 429,136 429,136 430,136 430,136 431,136 431,136 432,136 432,136 432,136 433,136 433,136 434,136 434,136 435,136 435,136 436,136 436,136 437,136 437,136 438,136 438,136 439,136 439,136 440,136 440,136 441,138 441,142 441,145 442,148 442,152 443,154 443,154 444,154 444,154 445,154 445,154 446,154 446,154 447,154 447,154 448,154 448,154 449,154 449,154 450,154 450,154 450,154 451,154 451,154 452,154 452,154 453,154 453,154 454,154 454,154 455,154 455,154 456,154 456,154 457,154 457,154 458,154 458,154 459,154 459,154 459,154 460,154 460,154 461,154 461,154 462,154 462,154 463,154 463,154 464,154 464,154 465,154 465,154 466,154 466,154 467,154 467,154 468,154 468,154 468,154 469,154 469,154 470,154 470,154 471,154 471,155 472,159 472,162 473,165 473,169 474,172 474,176 475,179 475,183 476,186 476,190 477,193 477,197 477,200 478,200 478,200 479,200 479,200 480,200 480,200 481,200 481,200 482,200 482,200 483,200 483,200 484,200 484,200 485,200 485,200 486,200 486,200 486,200 487,200 487,200 488,200 488,200 489,200 489,200 490,200 490,200 491,200 491,200 492,200 492,200 493,200 493,200 494,200 494,200 495,200 495,200 495,200 496,200 496,200 497,200 497,200 498,200 498,200 499,200 499,200 500,200 500,200 501,200 501,200 502,200 502,200 503,200 503,200 504,200 504,200 504,200 505,200 505,200 506,200 506,200 507,200 507,200 508,200 508,200 509,200 509,200 510,200 510,200 511,200 511,200 512,200 512,200 513,200 513,200 513,200 514,200 514,202 515,206 515,209 516,212 516,216 517,219 517,223 518,226 518,230 519,233 519,237 520,240 520,244 521,245 521,245 522,245 522,245 523,245 523,245 523,245 524,245 524,245 525,245 525,245 526,245 526,245 527,245 527,245 528,245 528,245 529,245 529,245 530,245 530,245 531,245 531,245 532,245 532,245 532,245 533,245 533,245 534,245 534,245 535,245 535,245 536,245 536,245 537,245 537,245 538,245 538,245 539,245 539,245 540,245 540,245 541,245 541,245 541,245 542,245 542,245 543,245 543,245 544,245 544,245 545,245 545,245 546,245 546,245 547,245 547,245 548,245 548,245 549,245 549,245 550,245 550,245 550,245 551,245 551,245 552,245 552,245 553,245 553,245 554,245 554,245 555,245 555,245 556,245 556,245 557,245 557,245 558,248 558,252 559,255 559,259 559,262 560,264 560,264 561,264 561,264 562,264 562,264 563,264 563,264 564,264 564,264 565,264 565,264 566,264 566,264 567,264 567,264 568,264 568,264 568,264 569,264 569,264 570,264 570,264 571,264 571,264 572,264 572,264 573,264 573,264 574,264 574,264 575,264 575,264 576,264 576,264 577,264 577,264 577,264 578,264 578,264 579,264 579,264 580,264 580,264 581,264 581,264 582,264 582,264 583,264 583,264 584,264 584,264 585,264 585,264 586,264 586,264 586,264 587,264 587,264 588,264 588,262 589,258 589,255 590,251 590,248 591,245 591,245 592,245 592,245 593,245 593,245 594,245 594,245 595,245 595,245 595,245 596,245 596,245 597,245 597,245 598,245 598,245 599,245 599,245 600,245 600,245 601,245 601,245 602,245 602,245 603,245 603,245 604,245 604,245 605,245 605,245 605,245 606,245 606,245 607,245 607,245 608,245 608,245 609,245 609,245 610,245 610,245 611,245 611,245 612,245 612,245 613,245 613,245 614,245 614,245 614,245 615,245 615,245 616,245 616,245 617,245 617,245 618,245 618,245 619,245 619,244 620,240 620,237 621,234 621,230 622,227 622,223 623,220 623,216 623,213 624,209 624,206 625,202 625,200 626,200 626,200 627,200 627,200 628,200 628,200 629,200 629,200 630,200 630,200 631,200 631,200 632,200 632,200 632,200 633,200 633,200 634,200 634,200 635,200 635,200 636,200 636,200 637,200 637,200 638,200 638,200 639,200 639,200 640,200 640,200 641,200 641,200 641,200 642,200 642,200 643,200 643,200 644,200 644,200 645,200 645,200 646,200 646,200 647,200 647,200 648,200 648,200 649,200 649,200 650,200 650,200 650,200 651,200 651,200 652,200 652,200 653,200 653,200 654,200 654,200 655,200 655,200 656,200 656,200 657,200 657,200 658,200 658,200 659,200 659,200 659,200 660,200 660,200 661,200 661,200 662,200 662,198 663,194 663,191 664,187 664,184 665,180 665,177 666,174 666,170 667,167 667,163 668,160 668,156 668,154 669,154 669,154 670,154 670,154 671,154 671,154 672,154 672,154 673,154 673,154 674,154 674,154 675,154 675,154 676,154 676,154 677,154 677,154 678,154 678,154 678,154 679,154 679,154 680,154 680,154 681,154 681,154 682,154 682,154 683,154 683,154 684,154 684,154 685,154 685,154 686,154 686,154 687,154 687,154 687,154 688,154 688,154 689,154 689,154 690,154 690,154 691,154 691,154 692,154 692,154 693,154 693,154 694,154 694,154 695,154 695,154 696,154 696,154 696,154 697,154 697,154 698,154 698,154 699,154 699,154 700,154 700,154 701,154 701,154 702,154 702,154 703,154 703,154 704,154 704,154 705,154 705,154 705,158 706,161 706,165 707,168 707,172 708,175 708,178 709,182 709,185 710,189 710,192 711,196 711,199 712,200 712,200 713,200 713,200 714,200 714,200 714,200 715,200 715,200 716,200 716,200 717,200 717,200 718,200 718,200 719,200 719,200 720,200 720,200 721,200 721,200 722,200 722,200 723,200 723,200 723,200 724,200 724,200 725,200 725,200 726,200 726,200 727,200 727,200 728,200 728,200 729,200 729,200 730,200 730,200 731,200 731,200 732,200 732,200 732,200 733,200 733,200 734,200 734,200 735,200 735,200 736,200 736,200 737,200 737,200 738,200 738,200 739,200 739,200 740,200 740,200 741,200 741,200 741,200 742,200 742,200 743,200 743,200 744,200 744,200 745,200 745,200 746,200 746,200 747,200 747,200 748,200 748,200 749,200 749,200 750,200 750,200 750,200 751,200 751,200 752,200 752,200 753,200 753,200 754,200 754,200 755,200 755,200 756,200 756,200 757,200 757,200 758,200 758,200 759,200 759,200 760,200" stroke="#ff7f00" fill="none" stroke-width="1.5" opacity="0.85"/><polyline points="40,200 40,200 40,200 41,200 41,200 42,200 42,200 43,200 43,200 44,200 44,200 45,200 45,200 46,200 46,200 47,200 47,200 48,200 48,200 49,200 49,200 49,200 50,200 50,200 51,200 51,200 52,200 52,200 53,200 53,200 54,200 54,200 55,200 55,200 56,200 56,200 57,200 57,200 58,200 58,200 58,200 59,200 59,200 60,200 60,200 61,200 61,200 62,200 62,200 63,200 63,200 64,200 64,200 65,200 65,200 66,200 66,200 67,200 67,200 67,200 68,200 68,200 69,200 69,200 70,200 70,200 71,200 71,200 72,200 72,200 73,200 73,200 74,200 74,200 75,200 75,200 76,200 76,200 76,200 77,200 77,200 78,200 78,200 79,200 79,200 80,200 80,200 81,200 81,200 82,200 82,200 83,200 83,200 84,200 84,200 85,200 85,200 85,200 86,200 86,200 87,200 87,200 88,200 88,200 89,200 89,200 90,200 90,200 91,200 91,200 92,200 92,200 93,200 93,200 94,200 94,200 94,200 95,200 95,200 96,200 96,200 97,200 97,200 98,200 98,200 99,200 99,200 100,200 100,200 101,200 101,200 102,200 102,200 103,200 103,200 103,200 104,200 104,200 105,200 105,200 106,200 106,200 107,200 107,200 108,200 108,200 109,200 109,200 110,200 110,200 111,200 111,200 112,200 112,200 112,200 113,200 113,200 114,200 114,200 115,200 115,200 116,200 116,200 117,200 117,200 118,200 118,200 119,200 119,200 120,200 120,200 121,200 121,200 122,200 122,200 122,200 123,200 123,200 124,200 124,200 125,200 125,200 126,200 126,200 127,200 127,200 128,200 128,200 129,200 129,200 130,200 130,200 131,200 131,200 131,200 132,200 132,200 133,200 133,200 134,200 134,200 135,200 135,200 136,200 136,200 137,200 137,200 138,200 138,200 139,200 139,200 140,200 140,200 140,200 141,200 141,200 142,200 142,200 143,200 143,200 144,200 144,200 145,200 145,200 146,200 146,200 147,200 147,200 148,200 148,200 149,200 149,200 149,200 150,200 150,200 151,200 151,200 152,200 152,200 153,200 153,200 154,200 154,200 155,200 155,200 156,200 156,200 157,200 157,200 158,200 158,200 158,200 159,200 159,200 160,200 160,200 161,200 161,200 162,200 162,200 163,200 163,200 164,200 164,200 165,200 165,200 166,200 166,200 167,200 167,200 167,200 168,200 168,200 169,200 169,200 170,200 170,200 171,200 171,200 172,200 172,200 173,200 173,200 174,200 174,200 175,200 175,200 176,200 176,200 176,200 177,200 177,200 178,200 178,200 179,200 179,200 180,200 180,200 181,200 181,200 182,200 182,200 183,200 183,200 184,200 184,200 185,200 185,200 186,200 186,200 186,200 187,200 187,200 188,200 188,200 189,200 189,200 190,200 190,200 191,200 191,200 192,200 192,200 193,200 193,200 194,200 194,200 195,200 195,200 195,200 196,200 196,200 197,200 197,200 198,200 198,200 199,200 199,200 200,200 200,200 201,200 201,200 202,200 202,200 203,200 203,200 204,200 204,200 204,200 205,200 205,200 206,200 206,200 207,200 207,200 208,200 208,200 209,200 209,200 210,200 210,200 211,200 211,200 212,200 212,200 213,200 213,200 213,200 214,200 214,200 215,200 215,200 216,200 216,200 217,200 217,200 218,200 218,200 219,200 219,200 220,200 220,200 221,200 221,200 222,200 222,200 222,200 223,200 223,200 224,200 224,200 225,200 225,200 226,200 226,200 227,200 227,200 228,200 228,200 229,200 229,200 230,200 230,200 231,200 231,200 231,200 232,200 232,200 233,200 233,200 234,200 234,200 235,200 235,200 236,200 236,200 237,200 237,200 238,200 238,200 239,200 239,200 240,200 240,200 240,200 241,200 241,200 242,200 242,200 243,200 243,200 244,200 244,200 245,200 245,200 246,200 246,200 247,200 247,200 248,200 248,200 249,200 249,200 249,200 250,200 250,200 251,200 251,200 252,200 252,200 253,200 253,200 254,200 254,200 255,200 255,200 256,200 256,200 257,200 257,200 258,200 258,200 258,200 259,200 259,200 260,200 260,200 261,200 261,200 262,200 262,200 263,200 263,200 264,200 264,200 265,200 265,200 266,200 266,200 267,200 267,200 268,200 268,200 268,200 269,200 269,200 270,200 270,200 271,200 271,200 272,200 272,200 273,200 273,200 274,200 274,200 275,200 275,200 276,200 276,200 277,200 277,200 277,200 278,200 278,200 279,200 279,200 280,200 280,200 281,200 281,200 282,200 282,200 283,200 283,200 284,200 284,200 285,200 285,200 286,200 286,200 286,200 287,200 287,200 288,200 288,200 289,200 289,200 290,200 290,200 291,200 291,200 292,200 292,200 293,200 293,200 294,200 294,200 295,200 295,200 295,200 296,200 296,200 297,200 297,200 298,200 298,200 299,200 299,200 300,200 300,200 301,200 301,200 302,200 302,200 303,200 303,200 304,200 304,200 304,200 305,200 305,200 306,200 306,200 307,200 307,200 308,200 308,200 309,200 309,200 310,200 310,200 311,200 311,200 312,200 312,200 313,200 313,200 313,200 314,200 314,200 315,200 315,200 316,200 316,200 317,200 317,200 318,200 318,200 319,200 319,200 320,200 320,200 321,200 321,200 322,200 322,200 322,200 323,200 323,200 324,200 324,200 325,200 325,200 326,200 326,200 327,200 327,200 328,200 328,200 329,200 329,200 330,200 330,200 331,200 331,200 331,200 332,200 332,200 333,200 333,200 334,200 334,200 335,200 335,200 336,200 336,200 337,200 337,200 338,200 338,200 339,200 339,200 340,200 340,200 340,200 341,200 341,200 342,200 342,200 343,200 343,200 344,200 344,200 345,200 345,200 346,200 346,200 347,200 347,200 348,200 348,200 349,200 349,200 349,200 350,200 350,200 351,200 351,200 352,200 352,200 353,200 353,200 354,200 354,200 355,200 355,200 356,200 356,200 357,200 357,200 358,200 358,200 359,200 359,200 359,200 360,200 360,200 361,200 361,200 362,200 362,200 363,200 363,200 364,200 364,200 365,200 365,200 366,200 366,200 367,200 367,200 368,200 368,200 368,200 369,200 369,200 370,200 370,200 371,200 371,200 372,200 372,200 373,200 373,200 374,200 374,200 375,200 375,200 376,200 376,200 377,200 377,200 377,200 378,200 378,200 379,200 379,200 380,200 380,200 381,200 381,200 382,200 382,200 383,200 383,200 384,200 384,200 385,200 385,200 386,200 386,200 386,200 387,200 387,200 388,200 388,200 389,200 389,200 390,200 390,200 391,200 391,200 392,200 392,200 393,200 393,200 394,200 394,200 395,200 395,200 395,200 396,200 396,200 397,200 397,200 398,200 398,200 399,200 399,200 400,200 400,200 401,200 401,200 402,200 402,200 403,200 403,200 404,200 404,200 404,200 405,200 405,200 406,200 406,200 407,200 407,200 408,200 408,200 409,200 409,200 410,200 410,200 411,200 411,200 412,200 412,200 413,200 413,200 413,200 414,200 414,200 415,200 415,200 416,200 416,200 417,200 417,200 418,200 418,200 419,200 419,200 420,200 420,200 421,200 421,200 422,200 422,200 422,200 423,200 423,200 424,200 424,200 425,200 425,200 426,200 426,200 427,200 427,200 428,200 428,200 429,200 429,200 430,200 430,200 431,200 431,200 432,200 432,200 432,200 433,200 433,200 434,200 434,200 435,200 435,200 436,200 436,200 437,200 437,200 438,200 438,200 439,200 439,200 440,200 440,200 441,200 441,200 441,200 442,200 442,200 443,200 443,200 444,200 444,200 445,200 445,200 446,200 446,200 447,200 447,200 448,200 448,200 449,200 449,200 450,200 450,200 450,200 451,200 451,200 452,200 452,200 453,200 453,200 454,200 454,200 455,200 455,200 456,200 456,200 457,200 457,200 458,200 458,200 459,200 459,200 459,200 460,200 460,200 461,200 461,200 462,200 462,200 463,200 463,200 464,200 464,200 465,200 465,200 466,200 466,200 467,200 467,200 468,200 468,200 468,200 469,200 469,200 470,200 470,200 471,200 471,200 472,200 472,200 473,200 473,200 474,200 474,200 475,200 475,200 476,200 476,200 477,200 477,200 477,200 478,200 478,200 479,200 479,200 480,200 480,200 481,200 481,200 482,200 482,200 483,200 483,200 484,200 484,200 485,200 485,200 486,200 486,200 486,200 487,200 487,200 488,200 488,200 489,200 489,200 490,200 490,200 491,200 491,200 492,200 492,200 493,200 493,200 494,200 494,200 495,200 495,200 495,200 496,200 496,200 497,200 497,200 498,200 498,200 499,200 499,200 500,200 500,200 501,200 501,200 502,200 502,200 503,200 503,200 504,200 504,200 504,200 505,200 505,200 506,200 506,200 507,200 507,200 508,200 508,200 509,200 509,200 510,200 510,200 511,200 511,200 512,200 512,200 513,200 513,200 513,200 514,200 514,200 515,200 515,200 516,200 516,200 517,200 517,200 518,200 518,200 519,200 519,200 520,200 520,200 521,200 521,200 522,200 522,200 523,200 523,200 523,200 524,200 524,200 525,200 525,200 526,200 526,200 527,200 527,200 528,200 528,200 529,200 529,200 530,200 530,200 531,200 531,200 532,200 532,200 532,200 533,200 533,200 534,200 534,200 535,200 535,200 536,200 536,200 537,200 537,200 538,200 538,200 539,200 539,200 540,200 540,200 541,200 541,200 541,200 542,200 542,200 543,200 543,200 544,200 544,200 545,200 545,200 546,200 546,200 547,200 547,200 548,200 548,200 549,200 549,200 550,200 550,200 550,200 551,200 551,200 552,200 552,200 553,200 553,200 554,200 554,200 555,200 555,200 556,200 556,200 557,200 557,200 558,200 558,200 559,200 559,200 559,200 560,200 560,200 561,200 561,200 562,200 562,200 563,200 563,200 564,200 564,200 565,200 565,200 566,200 566,200 567,200 567,200 568,200 568,200 568,200 569,200 569,200 570,200 570,200 571,200 571,200 572,200 572,200 573,200 573,200 574,200 574,200 575,200 575,200 576,200 576,200 577,200 577,200 577,200 578,200 578,200 579,200 579,200 580,200 580,200 581,200 581,200 582,200 582,200 583,200 583,200 584,200 584,200 585,200 585,200 586,200 586,200 586,200 587,200 587,200 588,200 588,200 589,200 589,200 590,200 590,200 591,200 591,200 592,200 592,200 593,200 593,200 594,200 594,200 595,200 595,200 595,200 596,200 596,200 597,200 597,200 598,200 598,200 599,200 599,200 600,200 600,200 601,200 601,200 602,200 602,200 603,200 603,200 604,200 604,200 605,200 605,200 605,200 606,200 606,200 607,200 607,200 608,200 608,200 609,200 609,200 610,200 610,200 611,200 611,200 612,200 612,200 613,200 613,200 614,200 614,200 614,200 615,200 615,200 616,200 616,200 617,200 617,200 618,200 618,200 619,200 619,200 620,200 620,200 621,200 621,200 622,200 622,200 623,200 623,200 623,200 624,200 624,200 625,200 625,200 626,200 626,200 627,200 627,200 628,200 628,200 629,200 629,200 630,200 630,200 631,200 631,200 632,200 632,200 632,200 633,200 633,200 634,200 634,200 635,200 635,200 636,200 636,200 637,200 637,200 638,200 638,200 639,200 639,200 640,200 640,200 641,200 641,200 641,200 642,200 642,200 643,200 643,200 644,200 644,200 645,200 645,200 646,200 646,200 647,200 647,200 648,200 648,200 649,200 649,200 650,200 650,200 650,200 651,200 651,200 652,200 652,200 653,200 653,200 654,200 654,200 655,200 655,200 656,200 656,200 657,200 657,200 658,200 658,200 659,200 659,200 659,200 660,200 660,200 661,200 661,200 662,200 662,200 663,200 663,200 664,200 664,200 665,200 665,200 666,200 666,200 667,200 667,200 668,200 668,200 668,200 669,200 669,200 670,200 670,200 671,200 671,200 672,200 672,200 673,200 673,200 674,200 674,200 675,200 675,200 676,200 676,200 677,200 677,200 678,200 678,200 678,200 679,200 679,200 680,200 680,200 681,200 681,200 682,200 682,200 683,200 683,200 684,200 684,200 685,200 685,200 686,200 686,200 687,200 687,200 687,200 688,200 688,200 689,200 689,200 690,200 690,200 691,200 691,200 692,200 692,200 693,200 693,200 694,200 694,200 695,200 695,200 696,200 696,200 696,200 697,200 697,200 698,200 698,200 699,200 699,200 700,200 700,200 701,200 701,200 702,200 702,200 703,200 703,200 704,200 704,200 705,200 705,200 705,200 706,200 706,200 707,200 707,200 708,200 708,200 709,200 709,200 710,200 710,200 711,200 711,200 712,200 712,200 713,200 713,200 714,200 714,200 714,200 715,200 715,200 716,200 716,200 717,200 717,200 718,200 718,200 719,200 719,200 720,200 720,200 721,200 721,200 722,200 722,200 723,200 723,200 723,200 724,200 724,200 725,200 725,200 726,200 726,200 727,200 727,200 728,200 728,200 729,200 729,200 730,200 730,200 731,200 731,200 732,200 732,200 732,200 733,200 733,200 734,200 734,200 735,200 735,200 736,200 736,200 737,200 737,200 738,200 738,200 739,200 739,200 740,200 740,200 741,200 741,200 741,200 742,200 742,200 743,200 743,200 744,200 744,200 745,200 745,200 746,200 746,200 747,200 747,200 748,200 748,200 749,200 749,200 750,200 750,200 750,200 751,200 751,200 752,200 752,200 753,200 753,200 754,200 754,200 755,200 755,200 756,200 756,200 757,200 757,200 758,200 758,200 759,200 759,200 760,200" stroke="#a65628" fill="none" stroke-width="1.5" opacity="0.85"/>
  <text x="700" y="30" font-size="10" fill="#e41a1c">J1</text><text x="760" y="30" font-size="10" fill="#377eb8">J2</text><text x="820" y="30" font-size="10" fill="#4daf4a">J3</text><text x="700" y="44" font-size="10" fill="#984ea3">J4</text><text x="760" y="44" font-size="10" fill="#ff7f00">J5</text><text x="820" y="44" font-size="10" fill="#a65628">J6</text>
  <line x1="40" y1="360" x2="760" y2="360" stroke="#999" stroke-width="1"/>
  <line x1="40" y1="40" x2="40" y2="360" stroke="#999" stroke-width="1"/>
  <text x="400" y="396" text-anchor="middle" font-size="10" fill="#555">tempo (s)</text>
</svg>