<svg xmlns="http://www.w3.org/2000/svg" width="800" height="400">
  <rect width="800" height="400" fill="white"/>
  <text x="400" y="18" text-anchor="middle" font-size="13" font-weight="bold">
    linear_x — QD (deg/s) — run 1</text>
  <polyline points="40,199 40,199 41,199 42,199 43,199 44,199 45,199 45,199 46,199 47,199 48,199 49,199 50,199 51,199 51,199 52,199 53,199 54,199 55,199 56,199 56,199 57,199 58,199 59,199 60,199 61,199 62,199 62,199 63,199 64,199 65,199 66,199 67,199 67,199 68,199 69,199 70,199 71,199 72,199 73,199 73,199 74,199 75,199 76,199 77,199 78,199 79,199 79,199 80,199 81,199 82,199 83,199 84,199 84,199 85,199 86,199 87,199 88,199 89,199 90,199 90,199 91,199 92,199 93,199 94,199 95,199 95,199 96,199 97,199 98,199 99,199 100,199 101,199 101,199 102,199 103,199 104,199 105,199 106,199 106,199 107,199 108,199 109,199 110,199 111,199 112,199 112,199 113,199 114,199 115,199 116,199 117,199 118,199 118,199 119,199 120,199 121,199 122,199 123,199 123,199 124,120 125,49 126,49 127,49 128,41 129,47 129,45 130,50 131,52 132,42 133,48 134,51 134,43 135,44 136,49 137,48 138,48 139,46 140,50 140,43 141,47 142,49 143,47 144,44 145,47 145,44 146,54 147,43 148,45 149,46 150,53 151,45 151,45 152,46 153,44 154,49 155,50 156,45 157,46 157,53 158,41 159,49 160,46 161,53 162,44 162,43 163,53 164,40 165,181 166,199 167,199 168,199 168,199 169,199 170,199 171,199 172,199 173,199 173,199 174,199 175,199 176,199 177,199 178,199 179,199 179,199 180,199 181,199 182,199 183,199 184,199 185,199 185,199 186,199 187,199 188,199 189,199 190,199 190,199 191,199 192,199 193,199 194,199 195,199 196,199 196,199 197,199 198,199 199,199 200,199 201,199 201,199 202,199 203,199 204,199 205,199 206,199 207,199 207,199 208,199 209,199 210,199 211,199 212,199 212,199 213,199 214,199 215,199 216,199 217,199 218,199 218,199 219,199 220,199 221,199 222,199 223,199 224,199 224,199 225,199 226,199 227,276 228,347 229,352 229,357 230,349 231,352 232,345 233,354 234,352 235,354 235,350 236,348 237,350 238,352 239,351 240,353 240,348 241,352 242,353 243,352 244,345 245,355 246,350 246,355 247,353 248,349 249,346 250,355 251,353 251,352 252,350 253,349 254,348 255,351 256,360 257,349 257,352 258,349 259,346 260,354 261,351 262,350 263,358 263,349 264,353 265,347 266,348 267,356 268,217 268,199 269,199 270,199 271,199 272,199 273,199 274,199 274,199 275,199 276,199 277,199 278,199 279,199 279,199 280,199 281,199 282,199 283,199 284,199 285,199 285,199 286,199 287,199 288,199 289,199 290,199 291,199 291,199 292,199 293,199 294,199 295,199 296,199 296,199 297,199 298,199 299,199 300,199 301,199 302,199 302,199 303,199 304,199 305,199 306,199 307,199 307,199 308,199 309,199 310,199 311,199 312,199 313,199 313,199 314,199 315,199 316,199 317,199 318,199 319,199 319,199 320,199 321,199 322,199 323,199 324,199 324,199 325,199 326,199 327,199 328,199 329,199 330,86 330,41 331,50 332,46 333,44 334,51 335,49 335,41 336,47 337,51 338,41 339,48 340,47 341,48 341,44 342,54 343,46 344,47 345,44 346,49 346,42 347,49 348,47 349,51 350,42 351,45 352,53 352,40 353,51 354,45 355,44 356,51 357,49 358,45 358,46 359,48 360,45 361,54 362,46 363,42 363,45 364,54 365,43 366,47 367,47 368,49 369,44 369,68 370,199 371,199 372,199 373,199 374,199 375,199 375,199 376,199 377,199 378,199 379,199 380,199 380,199 381,199 382,199 383,199 384,199 385,199 385,199 386,199 387,199 388,199 389,199 390,199 391,199 391,199 392,199 393,199 394,199 395,199 396,199 397,199 397,199 398,199 399,199 400,199 401,199 402,199 402,199 403,199 404,199 405,199 406,199 407,199 408,199 408,199 409,199 410,199 411,199 412,199 413,199 413,199 414,199 415,199 416,199 417,199 418,199 419,199 419,199 420,199 421,199 422,199 423,199 424,199 425,199 425,199 426,199 427,199 428,199 429,199 430,199 430,199 431,199 432,313 433,354 434,344 435,357 436,347 436,353 437,350 438,353 439,355 440,344 441,358 441,348 442,349 443,354 444,354 445,345 446,353 447,353 447,350 448,355 449,352 450,349 451,351 452,354 453,346 453,357 454,346 455,353 456,353 457,351 458,351 458,353 459,353 460,346 461,353 462,350 463,350 464,358 464,346 465,351 466,354 467,352 468,349 469,352 469,358 470,344 471,354 472,333 473,199 474,199 475,199 475,199 476,199 477,199 478,199 479,199 480,199 481,199 481,199 482,199 483,199 484,199 485,199 486,199 486,199 487,199 488,199 489,199 490,199 491,199 492,199 492,199 493,199 494,199 495,199 496,199 497,199 497,199 498,199 499,199 500,199 501,199 502,199 503,199 503,199 504,199 505,199 506,199 507,199 508,199 508,199 509,199 510,199 511,199 512,199 513,199 514,199 514,199 515,199 516,199 517,199 518,199 519,199 519,199 520,199 521,199 522,199 523,199 524,199 525,199 525,199 526,199 527,199 528,199 529,199 530,199 531,199 531,199 532,199 533,199 534,199 535,51 536,42 536,52 537,40 538,52 539,48 540,41 541,48 542,51 542,43 543,48 544,45 545,47 546,51 547,45 548,51 548,41 549,49 550,46 551,45 552,46 553,46 553,53 554,45 555,44 556,48 557,46 558,53 559,43 559,47 560,44 561,54 562,46 563,42 564,52 564,45 565,46 566,48 567,48 568,41 569,52 570,45 570,47 571,47 572,49 573,41 574,52 575,105 575,199 576,199 577,199 578,199 579,199 580,199 581,199 581,199 582,199 583,199 584,199 585,199 586,199 587,199 587,199 588,199 589,199 590,199 591,199 592,199 592,199 593,199 594,199 595,199 596,199 597,199 598,199 598,199 599,199 600,199 601,199 602,199 603,199 603,199 604,199 605,199 606,199 607,199 608,199 609,199 609,199 610,199 611,199 612,199 613,199 614,199 614,199 615,199 616,199 617,199 618,199 619,199 620,199 620,199 621,199 622,199 623,199 624,199 625,199 626,199 626,199 627,199 628,199 629,199 630,199 631,199 631,199 632,199 633,199 634,199 635,199 636,199 637,238 637,346 638,350 639,352 640,355 641,351 642,351 643,347 643,357 644,350 645,348 646,349 647,352 648,351 648,353 649,354 650,350 651,345 652,353 653,352 654,352 654,352 655,351 656,353 657,352 658,353 659,349 659,353 660,347 661,357 662,351 663,346 664,350 665,352 665,350 666,359 667,345 668,351 669,355 670,354 670,344 671,357 672,351 673,352 674,351 675,345 676,353 676,357 677,253 678,199 679,199 680,199 681,199 682,199 682,199 683,199 684,199 685,199 686,199 687,199 687,199 688,199 689,199 690,199 691,199 692,199 693,199 693,199 694,199 695,199 696,199 697,199 698,199 698,199 699,199 700,199 701,199 702,199 703,199 704,199 704,199 705,199 706,199 707,199 708,199 709,199 710,199 710,199 711,199 712,199 713,199 714,199 715,199 715,199 716,199 717,199 718,199 719,199 720,199 721,199 721,199 722,199 723,199 724,199 725,199 726,199 726,199 727,199 728,199 729,199 730,199 731,199 732,199 732,199 733,199 734,199 735,199 736,199 737,199 737,199 738,199 739,199 740,199 741,199 742,199 743,199 743,199 744,199 745,199 746,199 747,199 748,199 748,199 749,199 750,199 751,199 752,199 753,199 754,199 754,199 755,199 756,199 757,199 758,199 759,199 760,199" stroke="#e41a1c" fill="none" stroke-width="1.5" opacity="0.85"/><polyline points="40,199 40,199 41,199 42,199 43,199 44,199 45,199 45,199 46,199 47,199 48,199 49,199 50,199 51,199 51,199 52,199 53,199 54,199 55,199 56,199 56,199 57,199 58,199 59,199 60,199 61,199 62,199 62,199 63,199 64,199 65,199 66,199 67,199 67,199 68,199 69,199 70,199 71,199 72,199 73,199 73,199 74,199 75,199 76,199 77,199 78,199 79,199 79,199 80,199 81,199 82,199 83,199 84,199 84,199 85,199 86,199 87,199 88,199 89,199 90,199 90,199 91,199 92,199 93,199 94,199 95,199 95,199 96,199 97,199 98,199 99,199 100,199 101,199 101,199 102,199 103,199 104,199 105,199 106,199 106,199 107,199 108,199 109,199 110,199 111,199 112,199 112,199 113,199 114,199 115,199 116,199 117,199 118,199 118,199 119,199 120,199 121,199 122,199 123,199 123,199 124,120 125,49 126,49 127,49 128,41 129,47 129,45 130,50 131,52 132,42 133,48 134,51 134,43 135,44 136,49 137,48 138,143 139,199 140,199 140,199 141,199 142,199 143,199 144,199 145,199 145,199 146,199 147,199 148,199 149,199 150,199 151,199 151,199 152,199 153,199 154,199 155,199 156,199 157,199 157,199 158,199 159,199 160,199 161,199 162,199 162,199 163,199 164,199 165,199 166,199 167,199 168,199 168,199 169,199 170,199 171,199 172,199 173,199 173,199 174,199 175,199 176,199 177,199 178,199 179,199 179,199 180,199 181,199 182,199 183,199 184,199 185,199 185,199 186,199 187,199 188,199 189,199 190,199 190,199 191,199 192,199 193,199 194,199 195,199 196,199 196,199 197,199 198,199 199,199 200,199 201,199 201,199 202,199 203,199 204,199 205,199 206,199 207,199 207,199 208,199 209,199 210,199 211,199 212,199 212,199 213,199 214,199 215,199 216,199 217,199 218,199 218,199 219,199 220,199 221,199 222,199 223,199 224,199 224,199 225,199 226,199 227,276 228,347 229,352 229,357 230,349 231,352 232,345 233,354 234,352 235,354 235,350 236,348 237,350 238,352 239,351 240,353 240,255 241,199 242,199 243,199 244,199 245,199 246,199 246,199 247,199 248,199 249,199 250,199 251,199 251,199 252,199 253,199 254,199 255,199 256,199 257,199 257,199 258,199 259,199 260,199 261,199 262,199 263,199 263,199 264,199 265,199 266,199 267,199 268,199 268,199 269,199 270,199 271,199 272,199 273,199 274,199 274,199 275,199 276,199 277,199 278,199 279,199 279,199 280,199 281,199 282,199 283,199 284,199 285,199 285,199 286,199 287,199 288,199 289,199 290,199 291,199 291,199 292,199 293,199 294,199 295,199 296,199 296,199 297,199 298,199 299,199 300,199 301,199 302,199 302,199 303,199 304,199 305,199 306,199 307,199 307,199 308,199 309,199 310,199 311,199 312,199 313,199 313,199 314,199 315,199 316,199 317,199 318,199 319,199 319,199 320,199 321,199 322,199 323,199 324,199 324,199 325,199 326,199 327,199 328,199 329,199 330,86 330,41 331,50 332,46 333,44 334,51 335,49 335,41 336,47 337,51 338,41 339,48 340,47 341,48 341,44 342,54 343,180 344,199 345,199 346,199 346,199 347,199 348,199 349,199 350,199 351,199 352,199 352,199 353,199 354,199 355,199 356,199 357,199 358,199 358,199 359,199 360,199 361,199 362,199 363,199 363,199 364,199 365,199 366,199 367,199 368,199 369,199 369,199 370,199 371,199 372,199 373,199 374,199 375,199 375,199 376,199 377,199 378,199 379,199 380,199 380,199 381,199 382,199 383,199 384,199 385,199 385,199 386,199 387,199 388,199 389,199 390,199 391,199 391,199 392,199 393,199 394,199 395,199 396,199 397,199 397,199 398,199 399,199 400,199 401,199 402,199 402,199 403,199 404,199 405,199 406,199 407,199 408,199 408,199 409,199 410,199 411,199 412,199 413,199 413,199 414,199 415,199 416,199 417,199 418,199 419,199 419,199 420,199 421,199 422,199 423,199 424,199 425,199 425,199 426,199 427,199 428,199 429,199 430,199 430,199 431,199 432,313 433,354 434,344 435,357 436,347 436,353 437,350 438,353 439,355 440,344 441,358 441,348 442,349 443,354 444,354 445,345 446,218 447,199 447,199 448,199 449,199 450,199 451,199 452,199 453,199 453,199 454,199 455,199 456,199 457,199 458,199 458,199 459,199 460,199 461,199 462,199 463,199 464,199 464,199 465,199 466,199 467,199 468,199 469,199 469,199 470,199 471,199 472,199 473,199 474,199 475,199 475,199 476,199 477,199 478,199 479,199 480,199 481,199 481,199 482,199 483,199 484,199 485,199 486,199 486,199 487,199 488,199 489,199 490,199 491,199 492,199 492,199 493,199 494,199 495,199 496,199 497,199 497,199 498,199 499,199 500,199 501,199 502,199 503,199 503,199 504,199 505,199 506,199 507,199 508,199 508,199 509,199 510,199 511,199 512,199 513,199 514,199 514,199 515,199 516,199 517,199 518,199 519,199 519,199 520,199 521,199 522,199 523,199 524,199 525,199 525,199 526,199 527,199 528,199 529,199 530,199 531,199 531,199 532,199 533,199 534,199 535,51 536,42 536,52 537,40 538,52 539,48 540,41 541,48 542,51 542,43 543,48 544,45 545,47 546,51 547,45 548,69 548,199 549,199 550,199 551,199 552,199 553,199 553,199 554,199 555,199 556,199 557,199 558,199 559,199 559,199 560,199 561,199 562,199 563,199 564,199 564,199 565,199 566,199 567,199 568,199 569,199 570,199 570,199 571,199 572,199 573,199 574,199 575,199 575,199 576,199 577,199 578,199 579,199 580,199 581,199 581,199 582,199 583,199 584,199 585,199 586,199 587,199 587,199 588,199 589,199 590,199 591,199 592,199 592,199 593,199 594,199 595,199 596,199 597,199 598,199 598,199 599,199 600,199 601,199 602,199 603,199 603,199 604,199 605,199 606,199 607,199 608,199 609,199 609,199 610,199 611,199 612,199 613,199 614,199 614,199 615,199 616,199 617,199 618,199 619,199 620,199 620,199 621,199 622,199 623,199 624,199 625,199 626,199 626,199 627,199 628,199 629,199 630,199 631,199 631,199 632,199 633,199 634,199 635,199 636,199 637,238 637,346 638,350 639,352 640,355 641,351 642,351 643,347 643,357 644,350 645,348 646,349 647,352 648,351 648,353 649,354 650,293 651,199 652,199 653,199 654,199 654,199 655,199 656,199 657,199 658,199 659,199 659,199 660,199 661,199 662,199 663,199 664,199 665,199 665,199 666,199 667,199 668,199 669,199 670,199 670,199 671,199 672,199 673,199 674,199 675,199 676,199 676,199 677,199 678,199 679,199 680,199 681,199 682,199 682,199 683,199 684,199 685,199 686,199 687,199 687,199 688,199 689,199 690,199 691,199 692,199 693,199 693,199 694,199 695,199 696,199 697,199 698,199 698,199 699,199 700,199 701,199 702,199 703,199 704,199 704,199 705,199 706,199 707,199 708,199 709,199 710,199 710,199 711,199 712,199 713,199 714,199 715,199 715,199 716,199 717,199 718,199 719,199 720,199 721,199 721,199 722,199 723,199 724,199 725,199 726,199 726,199 727,199 728,199 729,199 730,199 731,199 732,199 732,199 733,199 734,199 735,199 736,199 737,199 737,199 738,199 739,199 740,199 741,199 742,199 743,199 743,199 744,199 745,199 746,199 747,199 748,199 748,199 749,199 750,199 751,199 752,199 753,199 754,199 754,199 755,199 756,199 757,199 758,199 759,199 760,199" stroke="#377eb8" fill="none" stroke-width="1.5" opacity="0.85"/><polyline points="40,199 40,199 41,199 42,199 43,199 44,199 45,199 45,199 46,199 47,199 48,199 49,199 50,199 51,199 51,199 52,199 53,199 54,199 55,199 56,199 56,199 57,199 58,199 59,199 60,199 61,199 62,199 62,199 63,199 64,199 65,199 66,199 67,199 67,199 68,199 69,199 70,199 71,199 72,199 73,199 73,199 74,199 75,199 76,199 77,199 78,199 79,199 79,199 80,199 81,199 82,199 83,199 84,199 84,199 85,199 86,199 87,199 88,199 89,199 90,199 90,199 91,199 92,199 93,199 94,199 95,199 95,199 96,199 97,199 98,199 99,199 100,199 101,199 101,199 102,199 103,199 104,199 105,199 106,199 106,199 107,199 108,199 109,199 110,199 111,199 112,199 112,199 113,199 114,199 115,199 116,199 117,199 118,199 118,199 119,199 120,199 121,199 122,199 123,199 123,199 124,120 125,49 126,49 127,49 128,41 129,47 129,45 130,50 131,135 132,199 133,199 134,199 134,199 135,199 136,199 137,199 138,199 139,199 140,199 140,199 141,199 142,199 143,199 144,199 145,199 145,199 146,199 147,199 148,199 149,199 150,199 151,199 151,199 152,199 153,199 154,199 155,199 156,199 157,199 157,199 158,199 159,199 160,199 161,199 162,199 162,199 163,199 164,199 165,199 166,199 167,199 168,199 168,199 169,199 170,199 171,199 172,199 173,199 173,199 174,199 175,199 176,199 177,199 178,199 179,199 179,199 180,199 181,199 182,199 183,199 184,199 185,199 185,199 186,199 187,199 188,199 189,199 190,199 190,199 191,199 192,199 193,199 194,199 195,199 196,199 196,199 197,199 198,199 199,199 200,199 201,199 201,199 202,199 203,199 204,199 205,199 206,199 207,199 207,199 208,199 209,199 210,199 211,199 212,199 212,199 213,199 214,199 215,199 216,199 217,199 218,199 218,199 219,199 220,199 221,199 222,199 223,199 224,199 224,199 225,199 226,199 227,276 228,347 229,352 229,357 230,349 231,352 232,345 233,354 234,266 235,199 235,199 236,199 237,199 238,199 239,199 240,199 240,199 241,199 242,199 243,199 244,199 245,199 246,199 246,199 247,199 248,199 249,199 250,199 251,199 251,199 252,199 253,199 254,199 255,199 256,199 257,199 257,199 258,199 259,199 260,199 261,199 262,199 263,199 263,199 264,199 265,199 266,199 267,199 268,199 268,199 269,199 270,199 271,199 272,199 273,199 274,199 274,199 275,199 276,199 277,199 278,199 279,199 279,199 280,199 281,199 282,199 283,199 284,199 285,199 285,199 286,199 287,199 288,199 289,199 290,199 291,199 291,199 292,199 293,199 294,199 295,199 296,199 296,199 297,199 298,199 299,199 300,199 301,199 302,199 302,199 303,199 304,199 305,199 306,199 307,199 307,199 308,199 309,199 310,199 311,199 312,199 313,199 313,199 314,199 315,199 316,199 317,199 318,199 319,199 319,199 320,199 321,199 322,199 323,199 324,199 324,199 325,199 326,199 327,199 328,199 329,199 330,86 330,41 331,50 332,46 333,44 334,51 335,49 335,41 336,171 337,199 338,199 339,199 340,199 341,199 341,199 342,199 343,199 344,199 345,199 346,199 346,199 347,199 348,199 349,199 350,199 351,199 352,199 352,199 353,199 354,199 355,199 356,199 357,199 358,199 358,199 359,199 360,199 361,199 362,199 363,199 363,199 364,199 365,199 366,199 367,199 368,199 369,199 369,199 370,199 371,199 372,199 373,199 374,199 375,199 375,199 376,199 377,199 378,199 379,199 380,199 380,199 381,199 382,199 383,199 384,199 385,199 385,199 386,199 387,199 388,199 389,199 390,199 391,199 391,199 392,199 393,199 394,199 395,199 396,199 397,199 397,199 398,199 399,199 400,199 401,199 402,199 402,199 403,199 404,199 405,199 406,199 407,199 408,199 408,199 409,199 410,199 411,199 412,199 413,199 413,199 414,199 415,199 416,199 417,199 418,199 419,199 419,199 420,199 421,199 422,199 423,199 424,199 425,199 425,199 426,199 427,199 428,199 429,199 430,199 430,199 431,199 432,313 433,354 434,344 435,357 436,347 436,353 437,350 438,353 439,228 440,199 441,199 441,199 442,199 443,199 444,199 445,199 446,199 447,199 447,199 448,199 449,199 450,199 451,199 452,199 453,199 453,199 454,199 455,199 456,199 457,199 458,199 458,199 459,199 460,199 461,199 462,199 463,199 464,199 464,199 465,199 466,199 467,199 468,199 469,199 469,199 470,199 471,199 472,199 473,199 474,199 475,199 475,199 476,199 477,199 478,199 479,199 480,199 481,199 481,199 482,199 483,199 484,199 485,199 486,199 486,199 487,199 488,199 489,199 490,199 491,199 492,199 492,199 493,199 494,199 495,199 496,199 497,199 497,199 498,199 499,199 500,199 501,199 502,199 503,199 503,199 504,199 505,199 506,199 507,199 508,199 508,199 509,199 510,199 511,199 512,199 513,199 514,199 514,199 515,199 516,199 517,199 518,199 519,199 519,199 520,199 521,199 522,199 523,199 524,199 525,199 525,199 526,199 527,199 528,199 529,199 530,199 531,199 531,199 532,199 533,199 534,199 535,51 536,42 536,52 537,40 538,52 539,48 540,41 541,57 542,199 542,199 543,199 544,199 545,199 546,199 547,199 548,199 548,199 549,199 550,199 551,199 552,199 553,199 553,199 554,199 555,199 556,199 557,199 558,199 559,199 559,199 560,199 561,199 562,199 563,199 564,199 564,199 565,199 566,199 567,199 568,199 569,199 570,199 570,199 571,199 572,199 573,199 574,199 575,199 575,199 576,199 577,199 578,199 579,199 580,199 581,199 581,199 582,199 583,199 584,199 585,199 586,199 587,199 587,199 588,199 589,199 590,199 591,199 592,199 592,199 593,199 594,199 595,199 596,199 597,199 598,199 598,199 599,199 600,199 601,199 602,199 603,199 603,199 604,199 605,199 606,199 607,199 608,199 609,199 609,199 610,199 611,199 612,199 613,199 614,199 614,199 615,199 616,199 617,199 618,199 619,199 620,199 620,199 621,199 622,199 623,199 624,199 625,199 626,199 626,199 627,199 628,199 629,199 630,199 631,199 631,199 632,199 633,199 634,199 635,199 636,199 637,238 637,346 638,350 639,352 640,355 641,351 642,351 643,347 643,308 644,199 645,199 646,199 647,199 648,199 648,199 649,199 650,199 651,199 652,199 653,199 654,199 654,199 655,199 656,199 657,199 658,199 659,199 659,199 660,199 661,199 662,199 663,199 664,199 665,199 665,199 666,199 667,199 668,199 669,199 670,199 670,199 671,199 672,199 673,199 674,199 675,199 676,199 676,199 677,199 678,199 679,199 680,199 681,199 682,199 682,199 683,199 684,199 685,199 686,199 687,199 687,199 688,199 689,199 690,199 691,199 692,199 693,199 693,199 694,199 695,199 696,199 697,199 698,199 698,199 699,199 700,199 701,199 702,199 703,199 704,199 704,199 705,199 706,199 707,199 708,199 709,199 710,199 710,199 711,199 712,199 713,199 714,199 715,199 715,199 716,199 717,199 718,199 719,199 720,199 721,199 721,199 722,199 723,199 724,199 725,199 726,199 726,199 727,199 728,199 729,199 730,199 731,199 732,199 732,199 733,199 734,199 735,199 736,199 737,199 737,199 738,199 739,199 740,199 741,199 742,199 743,199 743,199 744,199 745,199 746,199 747,199 748,199 748,199 749,199 750,199 751,199 752,199 753,199 754,199 754,199 755,199 756,199 757,199 758,199 759,199 760,199" stroke="#4daf4a" fill="none" stroke-width="1.5" opacity="0.85"/><polyline points="40,199 40,199 41,199 42,199 43,199 44,199 45,199 45,199 46,199 47,199 48,199 49,199 50,199 51,199 51,199 52,199 53,199 54,199 55,199 56,199 56,199 57,199 58,199 59,199 60,199 61,199 62,199 62,199 63,199 64,199 65,199 66,199 67,199 67,199 68,199 69,199 70,199 71,199 72,199 73,199 73,199 74,199 75,199 76,199 77,199 78,199 79,199 79,199 80,199 81,199 82,199 83,199 84,199 84,199 85,199 86,199 87,199 88,199 89,199 90,199 90,199 91,199 92,199 93,199 94,199 95,199 95,199 96,199 97,199 98,199 99,199 100,199 101,199 101,199 102,199 103,199 104,199 105,199 106,199 106,199 107,199 108,199 109,199 110,199 111,199 112,199 112,199 113,199 114,199 115,199 116,199 117,199 118,199 118,199 119,199 120,199 121,199 122,199 123,199 123,199 124,199 125,199 126,199 127,199 128,199 129,199 129,199 130,199 131,199 132,199 133,199 134,199 134,199 135,199 136,199 137,199 138,199 139,199 140,199 140,199 141,199 142,199 143,199 144,199 145,199 145,199 146,199 147,199 148,199 149,199 150,199 151,199 151,199 152,199 153,199 154,199 155,199 156,199 157,199 157,199 158,199 159,199 160,199 161,199 162,199 162,199 163,199 164,199 165,199 166,199 167,199 168,199 168,199 169,199 170,199 171,199 172,199 173,199 173,199 174,199 175,199 176,199 177,199 178,199 179,199 179,199 180,199 181,199 182,199 183,199 184,199 185,199 185,199 186,199 187,199 188,199 189,199 190,199 190,199 191,199 192,199 193,199 194,199 195,199 196,199 196,199 197,199 198,199 199,199 200,199 201,199 201,199 202,199 203,199 204,199 205,199 206,199 207,199 207,199 208,199 209,199 210,199 211,199 212,199 212,199 213,199 214,199 215,199 216,199 217,199 218,199 218,199 219,199 220,199 221,199 222,199 223,199 224,199 224,199 225,199 226,199 227,199 228,199 229,199 229,199 230,199 231,199 232,199 233,199 234,199 235,199 235,199 236,199 237,199 238,199 239,199 240,199 240,199 241,199 242,199 243,199 244,199 245,199 246,199 246,199 247,199 248,199 249,199 250,199 251,199 251,199 252,199 253,199 254,199 255,199 256,199 257,199 257,199 258,199 259,199 260,199 261,199 262,199 263,199 263,199 264,199 265,199 266,199 267,199 268,199 268,199 269,199 270,199 271,199 272,199 273,199 274,199 274,199 275,199 276,199 277,199 278,199 279,199 279,199 280,199 281,199 282,199 283,199 284,199 285,199 285,199 286,199 287,199 288,199 289,199 290,199 291,199 291,199 292,199 293,199 294,199 295,199 296,199 296,199 297,199 298,199 299,199 300,199 301,199 302,199 302,199 303,199 304,199 305,199 306,199 307,199 307,199 308,199 309,199 310,199 311,199 312,199 313,199 313,199 314,199 315,199 316,199 317,199 318,199 319,199 319,199 320,199 321,199 322,199 323,199 324,199 324,199 325,199 326,199 327,199 328,199 329,199 330,199 330,199 331,199 332,199 333,199 334,199 335,199 335,199 336,199 337,199 338,199 339,199 340,199 341,199 341,199 342,199 343,199 344,199 345,199 346,199 346,199 347,199 348,199 349,199 350,199 351,199 352,199 352,199 353,199 354,199 355,199 356,199 357,199 358,199 358,199 359,199 360,199 361,199 362,199 363,199 363,199 364,199 365,199 366,199 367,199 368,199 369,199 369,199 370,199 371,199 372,199 373,199 374,199 375,199 375,199 376,199 377,199 378,199 379,199 380,199 380,199 381,199 382,199 383,199 384,199 385,199 385,199 386,199 387,199 388,199 389,199 390,199 391,199 391,199 392,199 393,199 394,199 395,199 396,199 397,199 397,199 398,199 399,199 400,199 401,199 402,199 402,199 403,199 404,199 405,199 406,199 407,199 408,199 408,199 409,199 410,199 411,199 412,199 413,199 413,199 414,199 415,199 416,199 417,199 418,199 419,199 419,199 420,199 421,199 422,199 423,199 424,199 425,199 425,199 426,199 427,199 428,199 429,199 430,199 430,199 431,199 432,199 433,199 434,199 435,199 436,199 436,199 437,199 438,199 439,199 440,199 441,199 441,199 442,199 443,199 444,199 445,199 446,199 447,199 447,199 448,199 449,199 450,199 451,199 452,199 453,199 453,199 454,199 455,199 456,199 457,199 458,199 458,199 459,199 460,199 461,199 462,199 463,199 464,199 464,199 465,199 466,199 467,199 468,199 469,199 469,199 470,199 471,199 472,199 473,199 474,199 475,199 475,199 476,199 477,199 478,199 479,199 480,199 481,199 481,199 482,199 483,199 484,199 485,199 486,199 486,199 487,199 488,199 489,199 490,199 491,199 492,199 492,199 493,199 494,199 495,199 496,199 497,199 497,199 498,199 499,199 500,199 501,199 502,199 503,199 503,199 504,199 505,199 506,199 507,199 508,199 508,199 509,199 510,199 511,199 512,199 513,199 514,199 514,199 515,199 516,199 517,199 518,199 519,199 519,199 520,199 521,199 522,199 523,199 524,199 525,199 525,199 526,199 527,199 528,199 529,199 530,199 531,199 531,199 532,199 533,199 534,199 535,199 536,199 536,199 537,199 538,199 539,199 540,199 541,199 542,199 542,199 543,199 544,199 545,199 546,199 547,199 548,199 548,199 549,199 550,199 551,199 552,199 553,199 553,199 554,199 555,199 556,199 557,199 558,199 559,199 559,199 560,199 561,199 562,199 563,199 564,199 564,199 565,199 566,199 567,199 568,199 569,199 570,199 570,199 571,199 572,199 573,199 574,199 575,199 575,199 576,199 577,199 578,199 579,199 580,199 581,199 581,199 582,199 583,199 584,199 585,199 586,199 587,199 587,199 588,199 589,199 590,199 591,199 592,199 592,199 593,199 594,199 595,199 596,199 597,199 598,199 598,199 599,199 600,199 601,199 602,199 603,199 603,199 604,199 605,199 606,199 607,199 608,199 609,199 609,199 610,199 611,199 612,199 613,199 614,199 614,199 615,199 616,199 617,199 618,199 619,199 620,199 620,199 621,199 622,199 623,199 624,199 625,199 626,199 626,199 627,199 628,199 629,199 630,199 631,199 631,199 632,199 633,199 634,199 635,199 636,199 637,199 637,199 638,199 639,199 640,199 641,199 642,199 643,199 643,199 644,199 645,199 646,199 647,199 648,199 648,199 649,199 650,199 651,199 652,199 653,199 654,199 654,199 655,199 656,199 657,199 658,199 659,199 659,199 660,199 661,199 662,199 663,199 664,199 665,199 665,199 666,199 667,199 668,199 669,199 670,199 670,199 671,199 672,199 673,199 674,199 675,199 676,199 676,199 677,199 678,199 679,199 680,199 681,199 682,199 682,199 683,199 684,199 685,199 686,199 687,199 687,199 688,199 689,199 690,199 691,199 692,199 693,199 693,199 694,199 695,199 696,199 697,199 698,199 698,199 699,199 700,199 701,199 702,199 703,199 704,199 704,199 705,199 706,199 707,199 708,199 709,199 710,199 710,199 711,199 712,199 713,199 714,199 715,199 715,199 716,199 717,199 718,199 719,199 720,199 721,199 721,199 722,199 723,199 724,199 725,199 726,199 726,199 727,199 728,199 729,199 730,199 731,199 732,199 732,199 733,199 734,199 735,199 736,199 737,199 737,199 738,199 739,199 740,199 741,199 742,199 743,199 743,199 744,199 745,199 746,199 747,199 748,199 748,199 749,199 750,199 751,199 752,199 753,199 754,199 754,199 755,199 756,199 757,199 758,199 759,199 760,199" stroke="#984ea3" fill="none" stroke-width="1.5" opacity="0.85"/><polyline points="40,199 40,199 41,199 42,199 43,199 44,199 45,199 45,199 46,199 47,199 48,199 49,199 50,199 51,199 51,199 52,199 53,199 54,199 55,199 56,199 56,199 57,199 58,199 59,199 60,199 61,199 62,199 62,199 63,199 64,199 65,199 66,199 67,199 67,199 68,199 69,199 70,199 71,199 72,199 73,199 73,199 74,199 75,199 76,199 77,199 78,199 79,199 79,199 80,199 81,199 82,199 83,199 84,199 84,199 85,199 86,199 87,199 88,199 89,199 90,199 90,199 91,199 92,199 93,199 94,199 95,199 95,199 96,199 97,199 98,199 99,199 100,199 101,199 101,199 102,199 103,199 104,199 105,199 106,199 106,199 107,199 108,199 109,199 110,199 111,199 112,199 112,199 113,199 114,199 115,199 116,199 117,199 118,199 118,199 119,199 120,199 121,199 122,199 123,199 123,199 124,199 125,199 126,199 127,199 128,199 129,199 129,199 130,199 131,199 132,199 133,199 134,199 134,199 135,199 136,199 137,199 138,199 139,199 140,199 140,199 141,199 142,199 143,199 144,199 145,199 145,199 146,199 147,199 148,199 149,199 150,199 151,199 151,199 152,199 153,199 154,199 155,199 156,199 157,199 157,199 158,199 159,199 160,199 161,199 162,199 162,199 163,199 164,199 165,199 166,199 167,199 168,199 168,199 169,199 170,199 171,199 172,199 173,199 173,199 174,199 175,199 176,199 177,199 178,199 179,199 179,199 180,199 181,199 182,199 183,199 184,199 185,199 185,199 186,199 187,199 188,199 189,199 190,199 190,199 191,199 192,199 193,199 194,199 195,199 196,199 196,199 197,199 198,199 199,199 200,199 201,199 201,199 202,199 203,199 204,199 205,199 206,199 207,199 207,199 208,199 209,199 210,199 211,199 212,199 212,199 213,199 214,199 215,199 216,199 217,199 218,199 218,199 219,199 220,199 221,199 222,199 223,199 224,199 224,199 225,199 226,199 227,199 228,199 229,199 229,199 230,199 231,199 232,199 233,199 234,199 235,199 235,199 236,199 237,199 238,199 239,199 240,199 240,199 241,199 242,199 243,199 244,199 245,199 246,199 246,199 247,199 248,199 249,199 250,199 251,199 251,199 252,199 253,199 254,199 255,199 256,199 257,199 257,199 258,199 259,199 260,199 261,199 262,199 263,199 263,199 264,199 265,199 266,199 267,199 268,199 268,199 269,199 270,199 271,199 272,199 273,199 274,199 274,199 275,199 276,199 277,199 278,199 279,199 279,199 280,199 281,199 282,199 283,199 284,199 285,199 285,199 286,199 287,199 288,199 289,199 290,199 291,199 291,199 292,199 293,199 294,199 295,199 296,199 296,199 297,199 298,199 299,199 300,199 301,199 302,199 302,199 303,199 304,199 305,199 306,199 307,199 307,199 308,199 309,199 310,199 311,199 312,199 313,199 313,199 314,199 315,199 316,199 317,199 318,199 319,199 319,199 320,199 321,199 322,199 323,199 324,199 324,199 325,199 326,199 327,199 328,199 329,199 330,199 330,199 331,199 332,199 333,199 334,199 335,199 335,199 336,199 337,199 338,199 339,199 340,199 341,199 341,199 342,199 343,199 344,199 345,199 346,199 346,199 347,199 348,199 349,199 350,199 351,199 352,199 352,199 353,199 354,199 355,199 356,199 357,199 358,199 358,199 359,199 360,199 361,199 362,199 363,199 363,199 364,199 365,199 366,199 367,199 368,199 369,199 369,199 370,199 371,199 372,199 373,199 374,199 375,199 375,199 376,199 377,199 378,199 379,199 380,199 380,199 381,199 382,199 383,199 384,199 385,199 385,199 386,199 387,199 388,199 389,199 390,199 391,199 391,199 392,199 393,199 394,199 395,199 396,199 397,199 397,199 398,199 399,199 400,199 401,199 402,199 402,199 403,199 404,199 405,199 406,199 407,199 408,199 408,199 409,199 410,199 411,199 412,199 413,199 413,199 414,199 415,199 416,199 417,199 418,199 419,199 419,199 420,199 421,199 422,199 423,199 424,199 425,199 425,199 426,199 427,199 428,199 429,199 430,199 430,199 431,199 432,199 433,199 434,199 435,199 436,199 436,199 437,199 438,199 439,199 440,199 441,199 441,199 442,199 443,199 444,199 445,199 446,199 447,199 447,199 448,199 449,199 450,199 451,199 452,199 453,199 453,199 454,199 455,199 456,199 457,199 458,199 458,199 459,199 460,199 461,199 462,199 463,199 464,199 464,199 465,199 466,199 467,199 468,199 469,199 469,199 470,199 471,199 472,199 473,199 474,199 475,199 475,199 476,199 477,199 478,199 479,199 480,199 481,199 481,199 482,199 483,199 484,199 485,199 486,199 486,199 487,199 488,199 489,199 490,199 491,199 492,199 492,199 493,199 494,199 495,199 496,199 497,199 497,199 498,199 499,199 500,199 501,199 502,199 503,199 503,199 504,199 505,199 506,199 507,199 508,199 508,199 509,199 510,199 511,199 512,199 513,199 514,199 514,199 515,199 516,199 517,199 518,199 519,199 519,199 520,199 521,199 522,199 523,199 524,199 525,199 525,199 526,199 527,199 528,199 529,199 530,199 531,199 531,199 532,199 533,199 534,199 535,199 536,199 536,199 537,199 538,199 539,199 540,199 541,199 542,199 542,199 543,199 544,199 545,199 546,199 547,199 548,199 548,199 549,199 550,199 551,199 552,199 553,199 553,199 554,199 555,199 556,199 557,199 558,199 559,199 559,199 560,199 561,199 562,199 563,199 564,199 564,199 565,199 566,199 567,199 568,199 569,199 570,199 570,199 571,199 572,199 573,199 574,199 575,199 575,199 576,199 577,199 578,199 579,199 580,199 581,199 581,199 582,199 583,199 584,199 585,199 586,199 587,199 587,199 588,199 589,199 590,199 591,199 592,199 592,199 593,199 594,199 595,199 596,199 597,199 598,199 598,199 599,199 600,199 601,199 602,199 603,199 603,199 604,199 605,199 606,199 607,199 608,199 609,199 609,199 610,199 611,199 612,199 613,199 614,199 614,199 615,199 616,199 617,199 618,199 619,199 620,199 620,199 621,199 622,199 623,199 624,199 625,199 626,199 626,199 627,199 628,199 629,199 630,199 631,199 631,199 632,199 633,199 634,199 635,199 636,199 637,199 637,199 638,199 639,199 640,199 641,199 642,199 643,199 643,199 644,199 645,199 646,199 647,199 648,199 648,199 649,199 650,199 651,199 652,199 653,199 654,199 654,199 655,199 656,199 657,199 658,199 659,199 659,199 660,199 661,199 662,199 663,199 664,199 665,199 665,199 666,199 667,199 668,199 669,199 670,199 670,199 671,199 672,199 673,199 674,199 675,199 676,199 676,199 677,199 678,199 679,199 680,199 681,199 682,199 682,199 683,199 684,199 685,199 686,199 687,199 687,199 688,199 689,199 690,199 691,199 692,199 693,199 693,199 694,199 695,199 696,199 697,199 698,199 698,199 699,199 700,199 701,199 702,199 703,199 704,199 704,199 705,199 706,199 707,199 708,199 709,199 710,199 710,199 711,199 712,199 713,199 714,199 715,199 715,199 716,199 717,199 718,199 719,199 720,199 721,199 721,199 722,199 723,199 724,199 725,199 726,199 726,199 727,199 728,199 729,199 730,199 731,199 732,199 732,199 733,199 734,199 735,199 736,199 737,199 737,199 738,199 739,199 740,199 741,199 742,199 743,199 743,199 744,199 745,199 746,199 747,199 748,199 748,199 749,199 750,199 751,199 752,199 753,199 754,199 754,199 755,199 756,199 757,199 758,199 759,199 760,199" stroke="#ff7f00" fill="none" stroke-width="1.5" opacity="0.85"/><polyline points="40,199 40,199 41,199 42,199 43,199 44,199 45,199 45,199 46,199 47,199 48,199 49,199 50,199 51,199 51,199 52,199 53,199 54,199 55,199 56,199 56,199 57,199 58,199 59,199 60,199 61,199 62,199 62,199 63,199 64,199 65,199 66,199 67,199 67,199 68,199 69,199 70,199 71,199 72,199 73,199 73,199 74,199 75,199 76,199 77,199 78,199 79,199 79,199 80,199 81,199 82,199 83,199 84,199 84,199 85,199 86,199 87,199 88,199 89,199 90,199 90,199 91,199 92,199 93,199 94,199 95,199 95,199 96,199 97,199 98,199 99,199 100,199 101,199 101,199 102,199 103,199 104,199 105,199 106,199 106,199 107,199 108,199 109,199 110,199 111,199 112,199 112,199 113,199 114,199 115,199 116,199 117,199 118,199 118,199 119,199 120,199 121,199 122,199 123,199 123,199 124,199 125,199 126,199 127,199 128,199 129,199 129,199 130,199 131,199 132,199 133,199 134,199 134,199 135,199 136,199 137,199 138,199 139,199 140,199 140,199 141,199 142,199 143,199 144,199 145,199 145,199 146,199 147,199 148,199 149,199 150,199 151,199 151,199 152,199 153,199 154,199 155,199 156,199 157,199 157,199 158,199 159,199 160,199 161,199 162,199 162,199 163,199 164,199 165,199 166,199 167,199 168,199 168,199 169,199 170,199 171,199 172,199 173,199 173,199 174,199 175,199 176,199 177,199 178,199 179,199 179,199 180,199 181,199 182,199 183,199 184,199 185,199 185,199 186,199 187,199 188,199 189,199 190,199 190,199 191,199 192,199 193,199 194,199 195,199 196,199 196,199 197,199 198,199 199,199 200,199 201,199 201,199 202,199 203,199 204,199 205,199 206,199 207,199 207,199 208,199 209,199 210,199 211,199 212,199 212,199 213,199 214,199 215,199 216,199 217,199 218,199 218,199 219,199 220,199 221,199 222,199 223,199 224,199 224,199 225,199 226,199 227,199 228,199 229,199 229,199 230,199 231,199 232,199 233,199 234,199 235,199 235,199 236,199 237,199 238,199 239,199 240,199 240,199 241,199 242,199 243,199 244,199 245,199 246,199 246,199 247,199 248,199 249,199 250,199 251,199 251,199 252,199 253,199 254,199 255,199 256,199 257,199 257,199 258,199 259,199 260,199 261,199 262,199 263,199 263,199 264,199 265,199 266,199 267,199 268,199 268,199 269,199 270,199 271,199 272,199 273,199 274,199 274,199 275,199 276,199 277,199 278,199 279,199 279,199 280,199 281,199 282,199 283,199 284,199 285,199 285,199 286,199 287,199 288,199 289,199 290,199 291,199 291,199 292,199 293,199 294,199 295,199 296,199 296,199 297,199 298,199 299,199 300,199 301,199 302,199 302,199 303,199 304,199 305,199 306,199 307,199 307,199 308,199 309,199 310,199 311,199 312,199 313,199 313,199 314,199 315,199 316,199 317,199 318,199 319,199 319,199 320,199 321,199 322,199 323,199 324,199 324,199 325,199 326,199 327,199 328,199 329,199 330,199 330,199 331,199 332,199 333,199 334,199 335,199 335,199 336,199 337,199 338,199 339,199 340,199 341,199 341,199 342,199 343,199 344,199 345,199 346,199 346,199 347,199 348,199 349,199 350,199 351,199 352,199 352,199 353,199 354,199 355,199 356,199 357,199 358,199 358,199 359,199 360,199 361,199 362,199 363,199 363,199 364,199 365,199 366,199 367,199 368,199 369,199 369,199 370,199 371,199 372,199 373,199 374,199 375,199 375,199 376,199 377,199 378,199 379,199 380,199 380,199 381,199 382,199 383,199 384,199 385,199 385,199 386,199 387,199 388,199 389,199 390,199 391,199 391,199 392,199 393,199 394,199 395,199 396,199 397,199 397,199 398,199 399,199 400,199 401,199 402,199 402,199 403,199 404,199 405,199 406,199 407,199 408,199 408,199 409,199 410,199 411,199 412,199 413,199 413,199 414,199 415,199 416,199 417,199 418,199 419,199 419,199 420,199 421,199 422,199 423,199 424,199 425,199 425,199 426,199 427,199 428,199 429,199 430,199 430,199 431,199 432,199 433,199 434,199 435,199 436,199 436,199 437,199 438,199 439,199 440,199 441,199 441,199 442,199 443,199 444,199 445,199 446,199 447,199 447,199 448,199 449,199 450,199 451,199 452,199 453,199 453,199 454,199 455,199 456,199 457,199 458,199 458,199 459,199 460,199 461,199 462,199 463,199 464,199 464,199 465,199 466,199 467,199 468,199 469,199 469,199 470,199 471,199 472,199 473,199 474,199 475,199 475,199 476,199 477,199 478,199 479,199 480,199 481,199 481,199 482,199 483,199 484,199 485,199 486,199 486,199 487,199 488,199 489,199 490,199 491,199 492,199 492,199 493,199 494,199 495,199 496,199 497,199 497,199 498,199 499,199 500,199 501,199 502,199 503,199 503,199 504,199 505,199 506,199 507,199 508,199 508,199 509,199 510,199 511,199 512,199 513,199 514,199 514,199 515,199 516,199 517,199 518,199 519,199 519,199 520,199 521,199 522,199 523,199 524,199 525,199 525,199 526,199 527,199 528,199 529,199 530,199 531,199 531,199 532,199 533,199 534,199 535,199 536,199 536,199 537,199 538,199 539,199 540,199 541,199 542,199 542,199 543,199 544,199 545,199 546,199 547,199 548,199 548,199 549,199 550,199 551,199 552,199 553,199 553,199 554,199 555,199 556,199 557,199 558,199 559,199 559,199 560,199 561,199 562,199 563,199 564,199 564,199 565,199 566,199 567,199 568,199 569,199 570,199 570,199 571,199 572,199 573,199 574,199 575,199 575,199 576,199 577,199 578,199 579,199 580,199 581,199 581,199 582,199 583,199 584,199 585,199 586,199 587,199 587,199 588,199 589,199 590,199 591,199 592,199 592,199 593,199 594,199 595,199 596,199 597,199 598,199 598,199 599,199 600,199 601,199 602,199 603,199 603,199 604,199 605,199 606,199 607,199 608,199 609,199 609,199 610,199 611,199 612,199 613,199 614,199 614,199 615,199 616,199 617,199 618,199 619,199 620,199 620,199 621,199 622,199 623,199 624,199 625,199 626,199 626,199 627,199 628,199 629,199 630,199 631,199 631,199 632,199 633,199 634,199 635,199 636,199 637,199 637,199 638,199 639,199 640,199 641,199 642,199 643,199 643,199 644,199 645,199 646,199 647,199 648,199 648,199 649,199 650,199 651,199 652,199 653,199 654,199 654,199 655,199 656,199 657,199 658,199 659,199 659,199 660,199 661,199 662,199 663,199 664,199 665,199 665,199 666,199 667,199 668,199 669,199 670,199 670,199 671,199 672,199 673,199 674,199 675,199 676,199 676,199 677,199 678,199 679,199 680,199 681,199 682,199 682,199 683,199 684,199 685,199 686,199 687,199 687,199 688,199 689,199 690,199 691,199 692,199 693,199 693,199 694,199 695,199 696,199 697,199 698,199 698,199 699,199 700,199 701,199 702,199 703,199 704,199 704,199 705,199 706,199 707,199 708,199 709,199 710,199 710,199 711,199 712,199 713,199 714,199 715,199 715,199 716,199 717,199 718,199 719,199 720,199 721,199 721,199 722,199 723,199 724,199 725,199 726,199 726,199 727,199 728,199 729,199 730,199 731,199 732,199 732,199 733,199 734,199 735,199 736,199 737,199 737,199 738,199 739,199 740,199 741,199 742,199 743,199 743,199 744,199 745,199 746,199 747,199 748,199 748,199 749,199 750,199 751,199 752,199 753,199 754,199 754,199 755,199 756,199 757,199 758,199 759,199 760,199" stroke="#a65628" fill="none" stroke-width="1.5" opacity="0.85"/>
  <text x="700" y="30" font-size="10" fill="#e41a1c">J1</text><text x="760" y="30" font-size="10" fill="#377eb8">J2</text><text x="820" y="30" font-size="10" fill="#4daf4a">J3</text><text x="700" y="44" font-size="10" fill="#984ea3">J4</text><text x="760" y="44" font-size="10" fill="#ff7f00">J5</text><text x="820" y="44" font-size="10" fill="#a65628">J6</text>
  <line x1="40" y1="360" x2="760" y2="360" stroke="#999" stroke-width="1"/>
  <line x1="40" y1="40" x2="40" y2="360" stroke="#999" stroke-width="1"/>
  <text x="400" y="396" text-anchor="middle" font-size="10" fill="#555">tempo (s)</text>
</svg>