<svg xmlns="http://www.w3.org/2000/svg" width="800" height="400">
  <rect width="800" height="400" fill="white"/>
  <text x="400" y="18" text-anchor="middle" font-size="13" font-weight="bold">
    linear_x — Q (deg) — run 1</text>
  <polyline points="40,360 40,360 41,360 42,360 43,360 44,360 45,360 45,360 46,360 47,360 48,360 49,360 50,360 51,360 51,360 52,360 53,360 54,360 55,360 56,360 56,360 57,360 58,360 59,360 60,360 61,360 62,360 62,360 63,360 64,360 65,360 66,360 67,360 67,360 68,360 69,360 70,360 71,360 72,360 73,360 73,360 74,360 75,360 76,360 77,360 78,360 79,360 79,360 80,360 81,360 82,360 83,360 84,360 84,360 85,360 86,360 87,360 88,360 89,360 90,360 90,360 91,360 92,360 93,360 94,360 95,360 95,360 96,360 97,360 98,360 99,360 100,360 101,360 101,360 102,360 103,360 104,360 105,360 106,360 106,360 107,360 108,360 109,360 110,360 111,360 112,360 112,360 113,360 114,360 115,360 116,360 117,360 118,360 118,360 119,360 120,360 121,360 122,360 123,360 123,360 124,356 125,349 126,343 127,336 128,329 129,323 129,316 130,309 131,302 132,296 133,289 134,282 134,276 135,269 136,262 137,255 138,249 139,242 140,235 140,228 141,222 142,215 143,208 144,202 145,195 145,188 146,181 147,175 148,168 149,161 150,155 151,148 151,141 152,134 153,128 154,121 155,114 156,108 157,101 157,94 158,87 159,81 160,74 161,67 162,60 162,54 163,47 164,40 165,40 166,40 167,40 168,40 168,40 169,40 170,40 171,40 172,40 173,40 173,40 174,40 175,40 176,40 177,40 178,40 179,40 179,40 180,40 181,40 182,40 183,40 184,40 185,40 185,40 186,40 187,40 188,40 189,40 190,40 190,40 191,40 192,40 193,40 194,40 195,40 196,40 196,40 197,40 198,40 199,40 200,40 201,40 201,40 202,40 203,40 204,40 205,40 206,40 207,40 207,40 208,40 209,40 210,40 211,40 212,40 212,40 213,40 214,40 215,40 216,40 217,40 218,40 218,40 219,40 220,40 221,40 222,40 223,40 224,40 224,40 225,40 226,40 227,43 228,50 229,56 229,63 230,70 231,76 232,83 233,90 234,97 235,103 235,110 236,117 237,124 238,130 239,137 240,144 240,150 241,157 242,164 243,171 244,177 245,184 246,191 246,197 247,204 248,211 249,218 250,224 251,231 251,238 252,244 253,251 254,258 255,265 256,271 257,278 257,285 258,292 259,298 260,305 261,312 262,318 263,325 263,332 264,339 265,345 266,352 267,359 268,360 268,360 269,360 270,360 271,360 272,360 273,360 274,360 274,360 275,360 276,360 277,360 278,360 279,360 279,360 280,360 281,360 282,360 283,360 284,360 285,360 285,360 286,360 287,360 288,360 289,360 290,360 291,360 291,360 292,360 293,360 294,360 295,360 296,360 296,360 297,360 298,360 299,360 300,360 301,360 302,360 302,360 303,360 304,360 305,360 306,360 307,360 307,360 308,360 309,360 310,360 311,360 312,360 313,360 313,360 314,360 315,360 316,360 317,360 318,360 319,360 319,360 320,360 321,360 322,360 323,360 324,360 324,360 325,360 326,360 327,360 328,360 329,360 330,354 330,348 331,341 332,334 333,328 334,321 335,314 335,307 336,301 337,294 338,287 339,281 340,274 341,267 341,260 342,254 343,247 344,240 345,234 346,227 346,220 347,213 348,207 349,200 350,193 351,186 352,180 352,173 353,166 354,160 355,153 356,146 357,139 358,133 358,126 359,119 360,113 361,106 362,99 363,92 363,86 364,79 365,72 366,66 367,59 368,52 369,45 369,40 370,40 371,40 372,40 373,40 374,40 375,40 375,40 376,40 377,40 378,40 379,40 380,40 380,40 381,40 382,40 383,40 384,40 385,40 385,40 386,40 387,40 388,40 389,40 390,40 391,40 391,40 392,40 393,40 394,40 395,40 396,40 397,40 397,40 398,40 399,40 400,40 401,40 402,40 402,40 403,40 404,40 405,40 406,40 407,40 408,40 408,40 409,40 410,40 411,40 412,40 413,40 413,40 414,40 415,40 416,40 417,40 418,40 419,40 419,40 420,40 421,40 422,40 423,40 424,40 425,40 425,40 426,40 427,40 428,40 429,40 430,40 430,40 431,40 432,45 433,51 434,58 435,65 436,71 436,78 437,85 438,92 439,98 440,105 441,112 441,118 442,125 443,132 444,139 445,145 446,152 447,159 447,166 448,172 449,179 450,186 451,192 452,199 453,206 453,213 454,219 455,226 456,233 457,239 458,246 458,253 459,260 460,266 461,273 462,280 463,286 464,293 464,300 465,307 466,313 467,320 468,327 469,334 469,340 470,347 471,354 472,360 473,360 474,360 475,360 475,360 476,360 477,360 478,360 479,360 480,360 481,360 481,360 482,360 483,360 484,360 485,360 486,360 486,360 487,360 488,360 489,360 490,360 491,360 492,360 492,360 493,360 494,360 495,360 496,360 497,360 497,360 498,360 499,360 500,360 501,360 502,360 503,360 503,360 504,360 505,360 506,360 507,360 508,360 508,360 509,360 510,360 511,360 512,360 513,360 514,360 514,360 515,360 516,360 517,360 518,360 519,360 519,360 520,360 521,360 522,360 523,360 524,360 525,360 525,360 526,360 527,360 528,360 529,360 530,360 531,360 531,360 532,360 533,360 534,360 535,353 536,346 536,339 537,333 538,326 539,319 540,312 541,306 542,299 542,292 543,286 544,279 545,272 546,265 547,259 548,252 548,245 549,239 550,232 551,225 552,218 553,212 553,205 554,198 555,192 556,185 557,178 558,171 559,165 559,158 560,151 561,144 562,138 563,131 564,124 564,118 565,111 566,104 567,97 568,91 569,84 570,77 570,71 571,64 572,57 573,50 574,44 575,40 575,40 576,40 577,40 578,40 579,40 580,40 581,40 581,40 582,40 583,40 584,40 585,40 586,40 587,40 587,40 588,40 589,40 590,40 591,40 592,40 592,40 593,40 594,40 595,40 596,40 597,40 598,40 598,40 599,40 600,40 601,40 602,40 603,40 603,40 604,40 605,40 606,40 607,40 608,40 609,40 609,40 610,40 611,40 612,40 613,40 614,40 614,40 615,40 616,40 617,40 618,40 619,40 620,40 620,40 621,40 622,40 623,40 624,40 625,40 626,40 626,40 627,40 628,40 629,40 630,40 631,40 631,40 632,40 633,40 634,40 635,40 636,40 637,41 637,48 638,55 639,61 640,68 641,75 642,82 643,88 643,95 644,102 645,108 646,115 647,122 648,129 648,135 649,142 650,149 651,155 652,162 653,169 654,176 654,182 655,189 656,196 657,202 658,209 659,216 659,223 660,229 661,236 662,243 663,250 664,256 665,263 665,270 666,276 667,283 668,290 669,297 670,303 670,310 671,317 672,323 673,330 674,337 675,344 676,350 676,357 677,360 678,360 679,360 680,360 681,360 682,360 682,360 683,360 684,360 685,360 686,360 687,360 687,360 688,360 689,360 690,360 691,360 692,360 693,360 693,360 694,360 695,360 696,360 697,360 698,360 698,360 699,360 700,360 701,360 702,360 703,360 704,360 704,360 705,360 706,360 707,360 708,360 709,360 710,360 710,360 711,360 712,360 713,360 714,360 715,360 715,360 716,360 717,360 718,360 719,360 720,360 721,360 721,360 722,360 723,360 724,360 725,360 726,360 726,360 727,360 728,360 729,360 730,360 731,360 732,360 732,360 733,360 734,360 735,360 736,360 737,360 737,360 738,360 739,360 740,360 741,360 742,360 743,360 743,360 744,360 745,360 746,360 747,360 748,360 748,360 749,360 750,360 751,360 752,360 753,360 754,360 754,360 755,360 756,360 757,360 758,360 759,360 760,360" stroke="#e41a1c" fill="none" stroke-width="1.5" opacity="0.85"/><polyline points="40,360 40,360 41,360 42,360 43,360 44,360 45,360 45,360 46,360 47,360 48,360 49,360 50,360 51,360 51,360 52,360 53,360 54,360 55,360 56,360 56,360 57,360 58,360 59,360 60,360 61,360 62,360 62,360 63,360 64,360 65,360 66,360 67,360 67,360 68,360 69,360 70,360 71,360 72,360 73,360 73,360 74,360 75,360 76,360 77,360 78,360 79,360 79,360 80,360 81,360 82,360 83,360 84,360 84,360 85,360 86,360 87,360 88,360 89,360 90,360 90,360 91,360 92,360 93,360 94,360 95,360 95,360 96,360 97,360 98,360 99,360 100,360 101,360 101,360 102,360 103,360 104,360 105,360 106,360 106,360 107,360 108,360 109,360 110,360 111,360 112,360 112,360 113,360 114,360 115,360 116,360 117,360 118,360 118,360 119,360 120,360 121,360 122,360 123,360 123,360 124,356 125,349 126,343 127,336 128,329 129,323 129,316 130,309 131,302 132,296 133,289 134,282 134,276 135,269 136,262 137,255 138,253 139,253 140,253 140,253 141,253 142,253 143,253 144,253 145,253 145,253 146,253 147,253 148,253 149,253 150,253 151,253 151,253 152,253 153,253 154,253 155,253 156,253 157,253 157,253 158,253 159,253 160,253 161,253 162,253 162,253 163,253 164,253 165,253 166,253 167,253 168,253 168,253 169,253 170,253 171,253 172,253 173,253 173,253 174,253 175,253 176,253 177,253 178,253 179,253 179,253 180,253 181,253 182,253 183,253 184,253 185,253 185,253 186,253 187,253 188,253 189,253 190,253 190,253 191,253 192,253 193,253 194,253 195,253 196,253 196,253 197,253 198,253 199,253 200,253 201,253 201,253 202,253 203,253 204,253 205,253 206,253 207,253 207,253 208,253 209,253 210,253 211,253 212,253 212,253 213,253 214,253 215,253 216,253 217,253 218,253 218,253 219,253 220,253 221,253 222,253 223,253 224,253 224,253 225,253 226,253 227,256 228,263 229,270 229,276 230,283 231,290 232,297 233,303 234,310 235,317 235,323 236,330 237,337 238,344 239,350 240,357 240,360 241,360 242,360 243,360 244,360 245,360 246,360 246,360 247,360 248,360 249,360 250,360 251,360 251,360 252,360 253,360 254,360 255,360 256,360 257,360 257,360 258,360 259,360 260,360 261,360 262,360 263,360 263,360 264,360 265,360 266,360 267,360 268,360 268,360 269,360 270,360 271,360 272,360 273,360 274,360 274,360 275,360 276,360 277,360 278,360 279,360 279,360 280,360 281,360 282,360 283,360 284,360 285,360 285,360 286,360 287,360 288,360 289,360 290,360 291,360 291,360 292,360 293,360 294,360 295,360 296,360 296,360 297,360 298,360 299,360 300,360 301,360 302,360 302,360 303,360 304,360 305,360 306,360 307,360 307,360 308,360 309,360 310,360 311,360 312,360 313,360 313,360 314,360 315,360 316,360 317,360 318,360 319,360 319,360 320,360 321,360 322,360 323,360 324,360 324,360 325,360 326,360 327,360 328,360 329,360 330,354 330,348 331,341 332,334 333,328 334,321 335,314 335,307 336,301 337,294 338,287 339,281 340,274 341,267 341,260 342,254 343,253 344,253 345,253 346,253 346,253 347,253 348,253 349,253 350,253 351,253 352,253 352,253 353,253 354,253 355,253 356,253 357,253 358,253 358,253 359,253 360,253 361,253 362,253 363,253 363,253 364,253 365,253 366,253 367,253 368,253 369,253 369,253 370,253 371,253 372,253 373,253 374,253 375,253 375,253 376,253 377,253 378,253 379,253 380,253 380,253 381,253 382,253 383,253 384,253 385,253 385,253 386,253 387,253 388,253 389,253 390,253 391,253 391,253 392,253 393,253 394,253 395,253 396,253 397,253 397,253 398,253 399,253 400,253 401,253 402,253 402,253 403,253 404,253 405,253 406,253 407,253 408,253 408,253 409,253 410,253 411,253 412,253 413,253 413,253 414,253 415,253 416,253 417,253 418,253 419,253 419,253 420,253 421,253 422,253 423,253 424,253 425,253 425,253 426,253 427,253 428,253 429,253 430,253 430,253 431,253 432,258 433,265 434,271 435,278 436,285 436,291 437,298 438,305 439,312 440,318 441,325 441,332 442,339 443,345 444,352 445,359 446,360 447,360 447,360 448,360 449,360 450,360 451,360 452,360 453,360 453,360 454,360 455,360 456,360 457,360 458,360 458,360 459,360 460,360 461,360 462,360 463,360 464,360 464,360 465,360 466,360 467,360 468,360 469,360 469,360 470,360 471,360 472,360 473,360 474,360 475,360 475,360 476,360 477,360 478,360 479,360 480,360 481,360 481,360 482,360 483,360 484,360 485,360 486,360 486,360 487,360 488,360 489,360 490,360 491,360 492,360 492,360 493,360 494,360 495,360 496,360 497,360 497,360 498,360 499,360 500,360 501,360 502,360 503,360 503,360 504,360 505,360 506,360 507,360 508,360 508,360 509,360 510,360 511,360 512,360 513,360 514,360 514,360 515,360 516,360 517,360 518,360 519,360 519,360 520,360 521,360 522,360 523,360 524,360 525,360 525,360 526,360 527,360 528,360 529,360 530,360 531,360 531,360 532,360 533,360 534,360 535,353 536,346 536,339 537,333 538,326 539,319 540,312 541,306 542,299 542,292 543,286 544,279 545,272 546,265 547,259 548,253 548,253 549,253 550,253 551,253 552,253 553,253 553,253 554,253 555,253 556,253 557,253 558,253 559,253 559,253 560,253 561,253 562,253 563,253 564,253 564,253 565,253 566,253 567,253 568,253 569,253 570,253 570,253 571,253 572,253 573,253 574,253 575,253 575,253 576,253 577,253 578,253 579,253 580,253 581,253 581,253 582,253 583,253 584,253 585,253 586,253 587,253 587,253 588,253 589,253 590,253 591,253 592,253 592,253 593,253 594,253 595,253 596,253 597,253 598,253 598,253 599,253 600,253 601,253 602,253 603,253 603,253 604,253 605,253 606,253 607,253 608,253 609,253 609,253 610,253 611,253 612,253 613,253 614,253 614,253 615,253 616,253 617,253 618,253 619,253 620,253 620,253 621,253 622,253 623,253 624,253 625,253 626,253 626,253 627,253 628,253 629,253 630,253 631,253 631,253 632,253 633,253 634,253 635,253 636,253 637,255 637,261 638,268 639,275 640,281 641,288 642,295 643,302 643,308 644,315 645,322 646,328 647,335 648,342 648,349 649,355 650,360 651,360 652,360 653,360 654,360 654,360 655,360 656,360 657,360 658,360 659,360 659,360 660,360 661,360 662,360 663,360 664,360 665,360 665,360 666,360 667,360 668,360 669,360 670,360 670,360 671,360 672,360 673,360 674,360 675,360 676,360 676,360 677,360 678,360 679,360 680,360 681,360 682,360 682,360 683,360 684,360 685,360 686,360 687,360 687,360 688,360 689,360 690,360 691,360 692,360 693,360 693,360 694,360 695,360 696,360 697,360 698,360 698,360 699,360 700,360 701,360 702,360 703,360 704,360 704,360 705,360 706,360 707,360 708,360 709,360 710,360 710,360 711,360 712,360 713,360 714,360 715,360 715,360 716,360 717,360 718,360 719,360 720,360 721,360 721,360 722,360 723,360 724,360 725,360 726,360 726,360 727,360 728,360 729,360 730,360 731,360 732,360 732,360 733,360 734,360 735,360 736,360 737,360 737,360 738,360 739,360 740,360 741,360 742,360 743,360 743,360 744,360 745,360 746,360 747,360 748,360 748,360 749,360 750,360 751,360 752,360 753,360 754,360 754,360 755,360 756,360 757,360 758,360 759,360 760,360" stroke="#377eb8" fill="none" stroke-width="1.5" opacity="0.85"/><polyline points="40,360 40,360 41,360 42,360 43,360 44,360 45,360 45,360 46,360 47,360 48,360 49,360 50,360 51,360 51,360 52,360 53,360 54,360 55,360 56,360 56,360 57,360 58,360 59,360 60,360 61,360 62,360 62,360 63,360 64,360 65,360 66,360 67,360 67,360 68,360 69,360 70,360 71,360 72,360 73,360 73,360 74,360 75,360 76,360 77,360 78,360 79,360 79,360 80,360 81,360 82,360 83,360 84,360 84,360 85,360 86,360 87,360 88,360 89,360 90,360 90,360 91,360 92,360 93,360 94,360 95,360 95,360 96,360 97,360 98,360 99,360 100,360 101,360 101,360 102,360 103,360 104,360 105,360 106,360 106,360 107,360 108,360 109,360 110,360 111,360 112,360 112,360 113,360 114,360 115,360 116,360 117,360 118,360 118,360 119,360 120,360 121,360 122,360 123,360 123,360 124,356 125,349 126,343 127,336 128,329 129,323 129,316 130,309 131,306 132,306 133,306 134,306 134,306 135,306 136,306 137,306 138,306 139,306 140,306 140,306 141,306 142,306 143,306 144,306 145,306 145,306 146,306 147,306 148,306 149,306 150,306 151,306 151,306 152,306 153,306 154,306 155,306 156,306 157,306 157,306 158,306 159,306 160,306 161,306 162,306 162,306 163,306 164,306 165,306 166,306 167,306 168,306 168,306 169,306 170,306 171,306 172,306 173,306 173,306 174,306 175,306 176,306 177,306 178,306 179,306 179,306 180,306 181,306 182,306 183,306 184,306 185,306 185,306 186,306 187,306 188,306 189,306 190,306 190,306 191,306 192,306 193,306 194,306 195,306 196,306 196,306 197,306 198,306 199,306 200,306 201,306 201,306 202,306 203,306 204,306 205,306 206,306 207,306 207,306 208,306 209,306 210,306 211,306 212,306 212,306 213,306 214,306 215,306 216,306 217,306 218,306 218,306 219,306 220,306 221,306 222,306 223,306 224,306 224,306 225,306 226,306 227,310 228,316 229,323 229,330 230,336 231,343 232,350 233,357 234,360 235,360 235,360 236,360 237,360 238,360 239,360 240,360 240,360 241,360 242,360 243,360 244,360 245,360 246,360 246,360 247,360 248,360 249,360 250,360 251,360 251,360 252,360 253,360 254,360 255,360 256,360 257,360 257,360 258,360 259,360 260,360 261,360 262,360 263,360 263,360 264,360 265,360 266,360 267,360 268,360 268,360 269,360 270,360 271,360 272,360 273,360 274,360 274,360 275,360 276,360 277,360 278,360 279,360 279,360 280,360 281,360 282,360 283,360 284,360 285,360 285,360 286,360 287,360 288,360 289,360 290,360 291,360 291,360 292,360 293,360 294,360 295,360 296,360 296,360 297,360 298,360 299,360 300,360 301,360 302,360 302,360 303,360 304,360 305,360 306,360 307,360 307,360 308,360 309,360 310,360 311,360 312,360 313,360 313,360 314,360 315,360 316,360 317,360 318,360 319,360 319,360 320,360 321,360 322,360 323,360 324,360 324,360 325,360 326,360 327,360 328,360 329,360 330,354 330,348 331,341 332,334 333,328 334,321 335,314 335,307 336,306 337,306 338,306 339,306 340,306 341,306 341,306 342,306 343,306 344,306 345,306 346,306 346,306 347,306 348,306 349,306 350,306 351,306 352,306 352,306 353,306 354,306 355,306 356,306 357,306 358,306 358,306 359,306 360,306 361,306 362,306 363,306 363,306 364,306 365,306 366,306 367,306 368,306 369,306 369,306 370,306 371,306 372,306 373,306 374,306 375,306 375,306 376,306 377,306 378,306 379,306 380,306 380,306 381,306 382,306 383,306 384,306 385,306 385,306 386,306 387,306 388,306 389,306 390,306 391,306 391,306 392,306 393,306 394,306 395,306 396,306 397,306 397,306 398,306 399,306 400,306 401,306 402,306 402,306 403,306 404,306 405,306 406,306 407,306 408,306 408,306 409,306 410,306 411,306 412,306 413,306 413,306 414,306 415,306 416,306 417,306 418,306 419,306 419,306 420,306 421,306 422,306 423,306 424,306 425,306 425,306 426,306 427,306 428,306 429,306 430,306 430,306 431,306 432,311 433,318 434,325 435,331 436,338 436,345 437,352 438,358 439,360 440,360 441,360 441,360 442,360 443,360 444,360 445,360 446,360 447,360 447,360 448,360 449,360 450,360 451,360 452,360 453,360 453,360 454,360 455,360 456,360 457,360 458,360 458,360 459,360 460,360 461,360 462,360 463,360 464,360 464,360 465,360 466,360 467,360 468,360 469,360 469,360 470,360 471,360 472,360 473,360 474,360 475,360 475,360 476,360 477,360 478,360 479,360 480,360 481,360 481,360 482,360 483,360 484,360 485,360 486,360 486,360 487,360 488,360 489,360 490,360 491,360 492,360 492,360 493,360 494,360 495,360 496,360 497,360 497,360 498,360 499,360 500,360 501,360 502,360 503,360 503,360 504,360 505,360 506,360 507,360 508,360 508,360 509,360 510,360 511,360 512,360 513,360 514,360 514,360 515,360 516,360 517,360 518,360 519,360 519,360 520,360 521,360 522,360 523,360 524,360 525,360 525,360 526,360 527,360 528,360 529,360 530,360 531,360 531,360 532,360 533,360 534,360 535,353 536,346 536,339 537,333 538,326 539,319 540,312 541,306 542,306 542,306 543,306 544,306 545,306 546,306 547,306 548,306 548,306 549,306 550,306 551,306 552,306 553,306 553,306 554,306 555,306 556,306 557,306 558,306 559,306 559,306 560,306 561,306 562,306 563,306 564,306 564,306 565,306 566,306 567,306 568,306 569,306 570,306 570,306 571,306 572,306 573,306 574,306 575,306 575,306 576,306 577,306 578,306 579,306 580,306 581,306 581,306 582,306 583,306 584,306 585,306 586,306 587,306 587,306 588,306 589,306 590,306 591,306 592,306 592,306 593,306 594,306 595,306 596,306 597,306 598,306 598,306 599,306 600,306 601,306 602,306 603,306 603,306 604,306 605,306 606,306 607,306 608,306 609,306 609,306 610,306 611,306 612,306 613,306 614,306 614,306 615,306 616,306 617,306 618,306 619,306 620,306 620,306 621,306 622,306 623,306 624,306 625,306 626,306 626,306 627,306 628,306 629,306 630,306 631,306 631,306 632,306 633,306 634,306 635,306 636,306 637,308 637,315 638,321 639,328 640,335 641,341 642,348 643,355 643,360 644,360 645,360 646,360 647,360 648,360 648,360 649,360 650,360 651,360 652,360 653,360 654,360 654,360 655,360 656,360 657,360 658,360 659,360 659,360 660,360 661,360 662,360 663,360 664,360 665,360 665,360 666,360 667,360 668,360 669,360 670,360 670,360 671,360 672,360 673,360 674,360 675,360 676,360 676,360 677,360 678,360 679,360 680,360 681,360 682,360 682,360 683,360 684,360 685,360 686,360 687,360 687,360 688,360 689,360 690,360 691,360 692,360 693,360 693,360 694,360 695,360 696,360 697,360 698,360 698,360 699,360 700,360 701,360 702,360 703,360 704,360 704,360 705,360 706,360 707,360 708,360 709,360 710,360 710,360 711,360 712,360 713,360 714,360 715,360 715,360 716,360 717,360 718,360 719,360 720,360 721,360 721,360 722,360 723,360 724,360 725,360 726,360 726,360 727,360 728,360 729,360 730,360 731,360 732,360 732,360 733,360 734,360 735,360 736,360 737,360 737,360 738,360 739,360 740,360 741,360 742,360 743,360 743,360 744,360 745,360 746,360 747,360 748,360 748,360 749,360 750,360 751,360 752,360 753,360 754,360 754,360 755,360 756,360 757,360 758,360 759,360 760,360" stroke="#4daf4a" fill="none" stroke-width="1.5" opacity="0.85"/><polyline points="40,360 40,360 41,360 42,360 43,360 44,360 45,360 45,360 46,360 47,360 48,360 49,360 50,360 51,360 51,360 52,360 53,360 54,360 55,360 56,360 56,360 57,360 58,360 59,360 60,360 61,360 62,360 62,360 63,360 64,360 65,360 66,360 67,360 67,360 68,360 69,360 70,360 71,360 72,360 73,360 73,360 74,360 75,360 76,360 77,360 78,360 79,360 79,360 80,360 81,360 82,360 83,360 84,360 84,360 85,360 86,360 87,360 88,360 89,360 90,360 90,360 91,360 92,360 93,360 94,360 95,360 95,360 96,360 97,360 98,360 99,360 100,360 101,360 101,360 102,360 103,360 104,360 105,360 106,360 106,360 107,360 108,360 109,360 110,360 111,360 112,360 112,360 113,360 114,360 115,360 116,360 117,360 118,360 118,360 119,360 120,360 121,360 122,360 123,360 123,360 124,360 125,360 126,360 127,360 128,360 129,360 129,360 130,360 131,360 132,360 133,360 134,360 134,360 135,360 136,360 137,360 138,360 139,360 140,360 140,360 141,360 142,360 143,360 144,360 145,360 145,360 146,360 147,360 148,360 149,360 150,360 151,360 151,360 152,360 153,360 154,360 155,360 156,360 157,360 157,360 158,360 159,360 160,360 161,360 162,360 162,360 163,360 164,360 165,360 166,360 167,360 168,360 168,360 169,360 170,360 171,360 172,360 173,360 173,360 174,360 175,360 176,360 177,360 178,360 179,360 179,360 180,360 181,360 182,360 183,360 184,360 185,360 185,360 186,360 187,360 188,360 189,360 190,360 190,360 191,360 192,360 193,360 194,360 195,360 196,360 196,360 197,360 198,360 199,360 200,360 201,360 201,360 202,360 203,360 204,360 205,360 206,360 207,360 207,360 208,360 209,360 210,360 211,360 212,360 212,360 213,360 214,360 215,360 216,360 217,360 218,360 218,360 219,360 220,360 221,360 222,360 223,360 224,360 224,360 225,360 226,360 227,360 228,360 229,360 229,360 230,360 231,360 232,360 233,360 234,360 235,360 235,360 236,360 237,360 238,360 239,360 240,360 240,360 241,360 242,360 243,360 244,360 245,360 246,360 246,360 247,360 248,360 249,360 250,360 251,360 251,360 252,360 253,360 254,360 255,360 256,360 257,360 257,360 258,360 259,360 260,360 261,360 262,360 263,360 263,360 264,360 265,360 266,360 267,360 268,360 268,360 269,360 270,360 271,360 272,360 273,360 274,360 274,360 275,360 276,360 277,360 278,360 279,360 279,360 280,360 281,360 282,360 283,360 284,360 285,360 285,360 286,360 287,360 288,360 289,360 290,360 291,360 291,360 292,360 293,360 294,360 295,360 296,360 296,360 297,360 298,360 299,360 300,360 301,360 302,360 302,360 303,360 304,360 305,360 306,360 307,360 307,360 308,360 309,360 310,360 311,360 312,360 313,360 313,360 314,360 315,360 316,360 317,360 318,360 319,360 319,360 320,360 321,360 322,360 323,360 324,360 324,360 325,360 326,360 327,360 328,360 329,360 330,360 330,360 331,360 332,360 333,360 334,360 335,360 335,360 336,360 337,360 338,360 339,360 340,360 341,360 341,360 342,360 343,360 344,360 345,360 346,360 346,360 347,360 348,360 349,360 350,360 351,360 352,360 352,360 353,360 354,360 355,360 356,360 357,360 358,360 358,360 359,360 360,360 361,360 362,360 363,360 363,360 364,360 365,360 366,360 367,360 368,360 369,360 369,360 370,360 371,360 372,360 373,360 374,360 375,360 375,360 376,360 377,360 378,360 379,360 380,360 380,360 381,360 382,360 383,360 384,360 385,360 385,360 386,360 387,360 388,360 389,360 390,360 391,360 391,360 392,360 393,360 394,360 395,360 396,360 397,360 397,360 398,360 399,360 400,360 401,360 402,360 402,360 403,360 404,360 405,360 406,360 407,360 408,360 408,360 409,360 410,360 411,360 412,360 413,360 413,360 414,360 415,360 416,360 417,360 418,360 419,360 419,360 420,360 421,360 422,360 423,360 424,360 425,360 425,360 426,360 427,360 428,360 429,360 430,360 430,360 431,360 432,360 433,360 434,360 435,360 436,360 436,360 437,360 438,360 439,360 440,360 441,360 441,360 442,360 443,360 444,360 445,360 446,360 447,360 447,360 448,360 449,360 450,360 451,360 452,360 453,360 453,360 454,360 455,360 456,360 457,360 458,360 458,360 459,360 460,360 461,360 462,360 463,360 464,360 464,360 465,360 466,360 467,360 468,360 469,360 469,360 470,360 471,360 472,360 473,360 474,360 475,360 475,360 476,360 477,360 478,360 479,360 480,360 481,360 481,360 482,360 483,360 484,360 485,360 486,360 486,360 487,360 488,360 489,360 490,360 491,360 492,360 492,360 493,360 494,360 495,360 496,360 497,360 497,360 498,360 499,360 500,360 501,360 502,360 503,360 503,360 504,360 505,360 506,360 507,360 508,360 508,360 509,360 510,360 511,360 512,360 513,360 514,360 514,360 515,360 516,360 517,360 518,360 519,360 519,360 520,360 521,360 522,360 523,360 524,360 525,360 525,360 526,360 527,360 528,360 529,360 530,360 531,360 531,360 532,360 533,360 534,360 535,360 536,360 536,360 537,360 538,360 539,360 540,360 541,360 542,360 542,360 543,360 544,360 545,360 546,360 547,360 548,360 548,360 549,360 550,360 551,360 552,360 553,360 553,360 554,360 555,360 556,360 557,360 558,360 559,360 559,360 560,360 561,360 562,360 563,360 564,360 564,360 565,360 566,360 567,360 568,360 569,360 570,360 570,360 571,360 572,360 573,360 574,360 575,360 575,360 576,360 577,360 578,360 579,360 580,360 581,360 581,360 582,360 583,360 584,360 585,360 586,360 587,360 587,360 588,360 589,360 590,360 591,360 592,360 592,360 593,360 594,360 595,360 596,360 597,360 598,360 598,360 599,360 600,360 601,360 602,360 603,360 603,360 604,360 605,360 606,360 607,360 608,360 609,360 609,360 610,360 611,360 612,360 613,360 614,360 614,360 615,360 616,360 617,360 618,360 619,360 620,360 620,360 621,360 622,360 623,360 624,360 625,360 626,360 626,360 627,360 628,360 629,360 630,360 631,360 631,360 632,360 633,360 634,360 635,360 636,360 637,360 637,360 638,360 639,360 640,360 641,360 642,360 643,360 643,360 644,360 645,360 646,360 647,360 648,360 648,360 649,360 650,360 651,360 652,360 653,360 654,360 654,360 655,360 656,360 657,360 658,360 659,360 659,360 660,360 661,360 662,360 663,360 664,360 665,360 665,360 666,360 667,360 668,360 669,360 670,360 670,360 671,360 672,360 673,360 674,360 675,360 676,360 676,360 677,360 678,360 679,360 680,360 681,360 682,360 682,360 683,360 684,360 685,360 686,360 687,360 687,360 688,360 689,360 690,360 691,360 692,360 693,360 693,360 694,360 695,360 696,360 697,360 698,360 698,360 699,360 700,360 701,360 702,360 703,360 704,360 704,360 705,360 706,360 707,360 708,360 709,360 710,360 710,360 711,360 712,360 713,360 714,360 715,360 715,360 716,360 717,360 718,360 719,360 720,360 721,360 721,360 722,360 723,360 724,360 725,360 726,360 726,360 727,360 728,360 729,360 730,360 731,360 732,360 732,360 733,360 734,360 735,360 736,360 737,360 737,360 738,360 739,360 740,360 741,360 742,360 743,360 743,360 744,360 745,360 746,360 747,360 748,360 748,360 749,360 750,360 751,360 752,360 753,360 754,360 754,360 755,360 756,360 757,360 758,360 759,360 760,360" stroke="#984ea3" fill="none" stroke-width="1.5" opacity="0.85"/><polyline points="40,360 40,360 41,360 42,360 43,360 44,360 45,360 45,360 46,360 47,360 48,360 49,360 50,360 51,360 51,360 52,360 53,360 54,360 55,360 56,360 56,360 57,360 58,360 59,360 60,360 61,360 62,360 62,360 63,360 64,360 65,360 66,360 67,360 67,360 68,360 69,360 70,360 71,360 72,360 73,360 73,360 74,360 75,360 76,360 77,360 78,360 79,360 79,360 80,360 81,360 82,360 83,360 84,360 84,360 85,360 86,360 87,360 88,360 89,360 90,360 90,360 91,360 92,360 93,360 94,360 95,360 95,360 96,360 97,360 98,360 99,360 100,360 101,360 101,360 102,360 103,360 104,360 105,360 106,360 106,360 107,360 108,360 109,360 110,360 111,360 112,360 112,360 113,360 114,360 115,360 116,360 117,360 118,360 118,360 119,360 120,360 121,360 122,360 123,360 123,360 124,360 125,360 126,360 127,360 128,360 129,360 129,360 130,360 131,360 132,360 133,360 134,360 134,360 135,360 136,360 137,360 138,360 139,360 140,360 140,360 141,360 142,360 143,360 144,360 145,360 145,360 146,360 147,360 148,360 149,360 150,360 151,360 151,360 152,360 153,360 154,360 155,360 156,360 157,360 157,360 158,360 159,360 160,360 161,360 162,360 162,360 163,360 164,360 165,360 166,360 167,360 168,360 168,360 169,360 170,360 171,360 172,360 173,360 173,360 174,360 175,360 176,360 177,360 178,360 179,360 179,360 180,360 181,360 182,360 183,360 184,360 185,360 185,360 186,360 187,360 188,360 189,360 190,360 190,360 191,360 192,360 193,360 194,360 195,360 196,360 196,360 197,360 198,360 199,360 200,360 201,360 201,360 202,360 203,360 204,360 205,360 206,360 207,360 207,360 208,360 209,360 210,360 211,360 212,360 212,360 213,360 214,360 215,360 216,360 217,360 218,360 218,360 219,360 220,360 221,360 222,360 223,360 224,360 224,360 225,360 226,360 227,360 228,360 229,360 229,360 230,360 231,360 232,360 233,360 234,360 235,360 235,360 236,360 237,360 238,360 239,360 240,360 240,360 241,360 242,360 243,360 244,360 245,360 246,360 246,360 247,360 248,360 249,360 250,360 251,360 251,360 252,360 253,360 254,360 255,360 256,360 257,360 257,360 258,360 259,360 260,360 261,360 262,360 263,360 263,360 264,360 265,360 266,360 267,360 268,360 268,360 269,360 270,360 271,360 272,360 273,360 274,360 274,360 275,360 276,360 277,360 278,360 279,360 279,360 280,360 281,360 282,360 283,360 284,360 285,360 285,360 286,360 287,360 288,360 289,360 290,360 291,360 291,360 292,360 293,360 294,360 295,360 296,360 296,360 297,360 298,360 299,360 300,360 301,360 302,360 302,360 303,360 304,360 305,360 306,360 307,360 307,360 308,360 309,360 310,360 311,360 312,360 313,360 313,360 314,360 315,360 316,360 317,360 318,360 319,360 319,360 320,360 321,360 322,360 323,360 324,360 324,360 325,360 326,360 327,360 328,360 329,360 330,360 330,360 331,360 332,360 333,360 334,360 335,360 335,360 336,360 337,360 338,360 339,360 340,360 341,360 341,360 342,360 343,360 344,360 345,360 346,360 346,360 347,360 348,360 349,360 350,360 351,360 352,360 352,360 353,360 354,360 355,360 356,360 357,360 358,360 358,360 359,360 360,360 361,360 362,360 363,360 363,360 364,360 365,360 366,360 367,360 368,360 369,360 369,360 370,360 371,360 372,360 373,360 374,360 375,360 375,360 376,360 377,360 378,360 379,360 380,360 380,360 381,360 382,360 383,360 384,360 385,360 385,360 386,360 387,360 388,360 389,360 390,360 391,360 391,360 392,360 393,360 394,360 395,360 396,360 397,360 397,360 398,360 399,360 400,360 401,360 402,360 402,360 403,360 404,360 405,360 406,360 407,360 408,360 408,360 409,360 410,360 411,360 412,360 413,360 413,360 414,360 415,360 416,360 417,360 418,360 419,360 419,360 420,360 421,360 422,360 423,360 424,360 425,360 425,360 426,360 427,360 428,360 429,360 430,360 430,360 431,360 432,360 433,360 434,360 435,360 436,360 436,360 437,360 438,360 439,360 440,360 441,360 441,360 442,360 443,360 444,360 445,360 446,360 447,360 447,360 448,360 449,360 450,360 451,360 452,360 453,360 453,360 454,360 455,360 456,360 457,360 458,360 458,360 459,360 460,360 461,360 462,360 463,360 464,360 464,360 465,360 466,360 467,360 468,360 469,360 469,360 470,360 471,360 472,360 473,360 474,360 475,360 475,360 476,360 477,360 478,360 479,360 480,360 481,360 481,360 482,360 483,360 484,360 485,360 486,360 486,360 487,360 488,360 489,360 490,360 491,360 492,360 492,360 493,360 494,360 495,360 496,360 497,360 497,360 498,360 499,360 500,360 501,360 502,360 503,360 503,360 504,360 505,360 506,360 507,360 508,360 508,360 509,360 510,360 511,360 512,360 513,360 514,360 514,360 515,360 516,360 517,360 518,360 519,360 519,360 520,360 521,360 522,360 523,360 524,360 525,360 525,360 526,360 527,360 528,360 529,360 530,360 531,360 531,360 532,360 533,360 534,360 535,360 536,360 536,360 537,360 538,360 539,360 540,360 541,360 542,360 542,360 543,360 544,360 545,360 546,360 547,360 548,360 548,360 549,360 550,360 551,360 552,360 553,360 553,360 554,360 555,360 556,360 557,360 558,360 559,360 559,360 560,360 561,360 562,360 563,360 564,360 564,360 565,360 566,360 567,360 568,360 569,360 570,360 570,360 571,360 572,360 573,360 574,360 575,360 575,360 576,360 577,360 578,360 579,360 580,360 581,360 581,360 582,360 583,360 584,360 585,360 586,360 587,360 587,360 588,360 589,360 590,360 591,360 592,360 592,360 593,360 594,360 595,360 596,360 597,360 598,360 598,360 599,360 600,360 601,360 602,360 603,360 603,360 604,360 605,360 606,360 607,360 608,360 609,360 609,360 610,360 611,360 612,360 613,360 614,360 614,360 615,360 616,360 617,360 618,360 619,360 620,360 620,360 621,360 622,360 623,360 624,360 625,360 626,360 626,360 627,360 628,360 629,360 630,360 631,360 631,360 632,360 633,360 634,360 635,360 636,360 637,360 637,360 638,360 639,360 640,360 641,360 642,360 643,360 643,360 644,360 645,360 646,360 647,360 648,360 648,360 649,360 650,360 651,360 652,360 653,360 654,360 654,360 655,360 656,360 657,360 658,360 659,360 659,360 660,360 661,360 662,360 663,360 664,360 665,360 665,360 666,360 667,360 668,360 669,360 670,360 670,360 671,360 672,360 673,360 674,360 675,360 676,360 676,360 677,360 678,360 679,360 680,360 681,360 682,360 682,360 683,360 684,360 685,360 686,360 687,360 687,360 688,360 689,360 690,360 691,360 692,360 693,360 693,360 694,360 695,360 696,360 697,360 698,360 698,360 699,360 700,360 701,360 702,360 703,360 704,360 704,360 705,360 706,360 707,360 708,360 709,360 710,360 710,360 711,360 712,360 713,360 714,360 715,360 715,360 716,360 717,360 718,360 719,360 720,360 721,360 721,360 722,360 723,360 724,360 725,360 726,360 726,360 727,360 728,360 729,360 730,360 731,360 732,360 732,360 733,360 734,360 735,360 736,360 737,360 737,360 738,360 739,360 740,360 741,360 742,360 743,360 743,360 744,360 745,360 746,360 747,360 748,360 748,360 749,360 750,360 751,360 752,360 753,360 754,360 754,360 755,360 756,360 757,360 758,360 759,360 760,360" stroke="#ff7f00" fill="none" stroke-width="1.5" opacity="0.85"/><polyline points="40,360 40,360 41,360 42,360 43,360 44,360 45,360 45,360 46,360 47,360 48,360 49,360 50,360 51,360 51,360 52,360 53,360 54,360 55,360 56,360 56,360 57,360 58,360 59,360 60,360 61,360 62,360 62,360 63,360 64,360 65,360 66,360 67,360 67,360 68,360 69,360 70,360 71,360 72,360 73,360 73,360 74,360 75,360 76,360 77,360 78,360 79,360 79,360 80,360 81,360 82,360 83,360 84,360 84,360 85,360 86,360 87,360 88,360 89,360 90,360 90,360 91,360 92,360 93,360 94,360 95,360 95,360 96,360 97,360 98,360 99,360 100,360 101,360 101,360 102,360 103,360 104,360 105,360 106,360 106,360 107,360 108,360 109,360 110,360 111,360 112,360 112,360 113,360 114,360 115,360 116,360 117,360 118,360 118,360 119,360 120,360 121,360 122,360 123,360 123,360 124,360 125,360 126,360 127,360 128,360 129,360 129,360 130,360 131,360 132,360 133,360 134,360 134,360 135,360 136,360 137,360 138,360 139,360 140,360 140,360 141,360 142,360 143,360 144,360 145,360 145,360 146,360 147,360 148,360 149,360 150,360 151,360 151,360 152,360 153,360 154,360 155,360 156,360 157,360 157,360 158,360 159,360 160,360 161,360 162,360 162,360 163,360 164,360 165,360 166,360 167,360 168,360 168,360 169,360 170,360 171,360 172,360 173,360 173,360 174,360 175,360 176,360 177,360 178,360 179,360 179,360 180,360 181,360 182,360 183,360 184,360 185,360 185,360 186,360 187,360 188,360 189,360 190,360 190,360 191,360 192,360 193,360 194,360 195,360 196,360 196,360 197,360 198,360 199,360 200,360 201,360 201,360 202,360 203,360 204,360 205,360 206,360 207,360 207,360 208,360 209,360 210,360 211,360 212,360 212,360 213,360 214,360 215,360 216,360 217,360 218,360 218,360 219,360 220,360 221,360 222,360 223,360 224,360 224,360 225,360 226,360 227,360 228,360 229,360 229,360 230,360 231,360 232,360 233,360 234,360 235,360 235,360 236,360 237,360 238,360 239,360 240,360 240,360 241,360 242,360 243,360 244,360 245,360 246,360 246,360 247,360 248,360 249,360 250,360 251,360 251,360 252,360 253,360 254,360 255,360 256,360 257,360 257,360 258,360 259,360 260,360 261,360 262,360 263,360 263,360 264,360 265,360 266,360 267,360 268,360 268,360 269,360 270,360 271,360 272,360 273,360 274,360 274,360 275,360 276,360 277,360 278,360 279,360 279,360 280,360 281,360 282,360 283,360 284,360 285,360 285,360 286,360 287,360 288,360 289,360 290,360 291,360 291,360 292,360 293,360 294,360 295,360 296,360 296,360 297,360 298,360 299,360 300,360 301,360 302,360 302,360 303,360 304,360 305,360 306,360 307,360 307,360 308,360 309,360 310,360 311,360 312,360 313,360 313,360 314,360 315,360 316,360 317,360 318,360 319,360 319,360 320,360 321,360 322,360 323,360 324,360 324,360 325,360 326,360 327,360 328,360 329,360 330,360 330,360 331,360 332,360 333,360 334,360 335,360 335,360 336,360 337,360 338,360 339,360 340,360 341,360 341,360 342,360 343,360 344,360 345,360 346,360 346,360 347,360 348,360 349,360 350,360 351,360 352,360 352,360 353,360 354,360 355,360 356,360 357,360 358,360 358,360 359,360 360,360 361,360 362,360 363,360 363,360 364,360 365,360 366,360 367,360 368,360 369,360 369,360 370,360 371,360 372,360 373,360 374,360 375,360 375,360 376,360 377,360 378,360 379,360 380,360 380,360 381,360 382,360 383,360 384,360 385,360 385,360 386,360 387,360 388,360 389,360 390,360 391,360 391,360 392,360 393,360 394,360 395,360 396,360 397,360 397,360 398,360 399,360 400,360 401,360 402,360 402,360 403,360 404,360 405,360 406,360 407,360 408,360 408,360 409,360 410,360 411,360 412,360 413,360 413,360 414,360 415,360 416,360 417,360 418,360 419,360 419,360 420,360 421,360 422,360 423,360 424,360 425,360 425,360 426,360 427,360 428,360 429,360 430,360 430,360 431,360 432,360 433,360 434,360 435,360 436,360 436,360 437,360 438,360 439,360 440,360 441,360 441,360 442,360 443,360 444,360 445,360 446,360 447,360 447,360 448,360 449,360 450,360 451,360 452,360 453,360 453,360 454,360 455,360 456,360 457,360 458,360 458,360 459,360 460,360 461,360 462,360 463,360 464,360 464,360 465,360 466,360 467,360 468,360 469,360 469,360 470,360 471,360 472,360 473,360 474,360 475,360 475,360 476,360 477,360 478,360 479,360 480,360 481,360 481,360 482,360 483,360 484,360 485,360 486,360 486,360 487,360 488,360 489,360 490,360 491,360 492,360 492,360 493,360 494,360 495,360 496,360 497,360 497,360 498,360 499,360 500,360 501,360 502,360 503,360 503,360 504,360 505,360 506,360 507,360 508,360 508,360 509,360 510,360 511,360 512,360 513,360 514,360 514,360 515,360 516,360 517,360 518,360 519,360 519,360 520,360 521,360 522,360 523,360 524,360 525,360 525,360 526,360 527,360 528,360 529,360 530,360 531,360 531,360 532,360 533,360 534,360 535,360 536,360 536,360 537,360 538,360 539,360 540,360 541,360 542,360 542,360 543,360 544,360 545,360 546,360 547,360 548,360 548,360 549,360 550,360 551,360 552,360 553,360 553,360 554,360 555,360 556,360 557,360 558,360 559,360 559,360 560,360 561,360 562,360 563,360 564,360 564,360 565,360 566,360 567,360 568,360 569,360 570,360 570,360 571,360 572,360 573,360 574,360 575,360 575,360 576,360 577,360 578,360 579,360 580,360 581,360 581,360 582,360 583,360 584,360 585,360 586,360 587,360 587,360 588,360 589,360 590,360 591,360 592,360 592,360 593,360 594,360 595,360 596,360 597,360 598,360 598,360 599,360 600,360 601,360 602,360 603,360 603,360 604,360 605,360 606,360 607,360 608,360 609,360 609,360 610,360 611,360 612,360 613,360 614,360 614,360 615,360 616,360 617,360 618,360 619,360 620,360 620,360 621,360 622,360 623,360 624,360 625,360 626,360 626,360 627,360 628,360 629,360 630,360 631,360 631,360 632,360 633,360 634,360 635,360 636,360 637,360 637,360 638,360 639,360 640,360 641,360 642,360 643,360 643,360 644,360 645,360 646,360 647,360 648,360 648,360 649,360 650,360 651,360 652,360 653,360 654,360 654,360 655,360 656,360 657,360 658,360 659,360 659,360 660,360 661,360 662,360 663,360 664,360 665,360 665,360 666,360 667,360 668,360 669,360 670,360 670,360 671,360 672,360 673,360 674,360 675,360 676,360 676,360 677,360 678,360 679,360 680,360 681,360 682,360 682,360 683,360 684,360 685,360 686,360 687,360 687,360 688,360 689,360 690,360 691,360 692,360 693,360 693,360 694,360 695,360 696,360 697,360 698,360 698,360 699,360 700,360 701,360 702,360 703,360 704,360 704,360 705,360 706,360 707,360 708,360 709,360 710,360 710,360 711,360 712,360 713,360 714,360 715,360 715,360 716,360 717,360 718,360 719,360 720,360 721,360 721,360 722,360 723,360 724,360 725,360 726,360 726,360 727,360 728,360 729,360 730,360 731,360 732,360 732,360 733,360 734,360 735,360 736,360 737,360 737,360 738,360 739,360 740,360 741,360 742,360 743,360 743,360 744,360 745,360 746,360 747,360 748,360 748,360 749,360 750,360 751,360 752,360 753,360 754,360 754,360 755,360 756,360 757,360 758,360 759,360 760,360" stroke="#a65628" fill="none" stroke-width="1.5" opacity="0.85"/>
  <text x="700" y="30" font-size="10" fill="#e41a1c">J1</text><text x="760" y="30" font-size="10" fill="#377eb8">J2</text><text x="820" y="30" font-size="10" fill="#4daf4a">J3</text><text x="700" y="44" font-size="10" fill="#984ea3">J4</text><text x="760" y="44" font-size="10" fill="#ff7f00">J5</text><text x="820" y="44" font-size="10" fill="#a65628">J6</text>
  <line x1="40" y1="360" x2="760" y2="360" stroke="#999" stroke-width="1"/>
  <line x1="40" y1="40" x2="40" y2="360" stroke="#999" stroke-width="1"/>
  <text x="400" y="396" text-anchor="middle" font-size="10" fill="#555">tempo (s)</text>
</svg>