<svg xmlns="http://www.w3.org/2000/svg" width="800" height="400">
  <rect width="800" height="400" fill="white"/>
  <text x="400" y="18" text-anchor="middle" font-size="13" font-weight="bold">
    circular_multijoint — QD (deg/s) — run 1</text>
  <polyline points="40,205 40,205 40,205 41,205 41,205 42,205 42,205 43,205 43,205 44,205 44,205 45,205 45,205 46,205 46,205 47,205 47,205 48,205 48,205 49,205 49,205 49,205 50,205 50,205 51,205 51,205 52,205 52,205 53,205 53,205 54,205 54,205 55,205 55,205 56,205 56,205 57,205 57,205 58,205 58,205 58,205 59,205 59,205 60,205 60,205 61,205 61,205 62,205 62,205 63,205 63,205 64,205 64,205 65,205 65,205 66,205 66,205 67,205 67,205 67,205 68,205 68,205 69,205 69,205 70,205 70,205 71,205 71,205 72,205 72,205 73,205 73,205 74,205 74,205 75,205 75,205 76,205 76,205 76,205 77,205 77,205 78,205 78,205 79,205 79,205 80,205 80,205 81,205 81,205 82,205 82,205 83,205 83,205 84,205 84,205 85,205 85,205 85,205 86,205 86,205 87,205 87,60 88,61 88,61 89,65 89,58 90,63 90,65 91,58 91,60 92,65 92,58 93,64 93,58 94,63 94,63 94,60 95,62 95,60 96,61 96,63 97,63 97,59 98,64 98,61 99,65 99,60 100,59 100,60 101,65 101,61 102,58 102,62 103,63 103,63 103,60 104,62 104,61 105,60 105,63 106,79 106,40 107,59 107,64 108,61 108,59 109,63 109,162 110,205 110,205 111,205 111,205 112,205 112,205 112,205 113,205 113,205 114,205 114,205 115,205 115,205 116,205 116,205 117,205 117,205 118,205 118,205 119,205 119,205 120,205 120,205 121,205 121,205 122,205 122,205 122,205 123,205 123,205 124,205 124,205 125,205 125,205 126,205 126,205 127,205 127,205 128,205 128,205 129,205 129,205 130,205 130,205 131,205 131,205 131,205 132,205 132,205 133,205 133,205 134,205 134,205 135,205 135,205 136,205 136,205 137,205 137,205 138,205 138,205 139,205 139,205 140,205 140,205 140,205 141,205 141,205 142,205 142,205 143,205 143,311 144,351 144,349 145,346 145,350 146,347 146,350 147,349 147,351 148,347 148,350 149,349 149,348 149,322 150,205 150,205 151,205 151,205 152,205 152,205 153,205 153,205 154,205 154,205 155,205 155,205 156,205 156,205 157,205 157,205 158,205 158,205 158,205 159,205 159,205 160,205 160,205 161,205 161,205 162,205 162,205 163,205 163,205 164,205 164,205 165,205 165,205 166,205 166,205 167,205 167,205 167,205 168,205 168,205 169,205 169,205 170,205 170,205 171,205 171,205 172,205 172,205 173,205 173,205 174,205 174,241 175,348 175,351 176,350 176,350 176,348 177,350 177,347 178,351 178,348 179,348 179,349 180,351 180,348 181,350 181,345 182,352 182,347 183,348 183,349 184,351 184,349 185,346 185,348 186,348 186,351 186,351 187,350 187,346 188,349 188,350 189,347 189,348 190,276 190,205 191,205 191,205 192,205 192,205 193,205 193,205 194,205 194,205 195,205 195,205 195,205 196,205 196,205 197,205 197,205 198,205 198,205 199,205 199,205 200,205 200,205 201,205 201,205 202,205 202,205 203,205 203,205 204,205 204,205 204,205 205,205 205,205 206,205 206,205 207,205 207,205 208,205 208,205 209,205 209,205 210,205 210,205 211,205 211,205 212,205 212,205 213,205 213,205 213,205 214,205 214,205 215,205 215,205 216,205 216,205 217,205 217,278 218,350 218,347 219,349 219,350 220,349 220,348 221,350 221,347 222,348 222,349 222,350 223,351 223,347 224,350 224,348 225,349 225,350 226,347 226,351 227,348 227,350 228,344 228,350 229,353 229,347 230,351 230,345 231,349 231,348 231,350 232,350 232,349 233,239 233,205 234,205 234,205 235,205 235,205 236,205 236,205 237,205 237,205 238,205 238,205 239,205 239,205 240,205 240,205 240,205 241,205 241,205 242,205 242,205 243,205 243,205 244,205 244,205 245,205 245,205 246,205 246,205 247,205 247,205 248,205 248,205 249,205 249,205 249,205 250,205 250,205 251,205 251,205 252,205 252,205 253,205 253,205 254,205 254,205 255,205 255,205 256,205 256,205 257,205 257,205 258,205 258,205 258,205 259,205 259,205 260,205 260,205 261,205 261,276 262,350 262,351 263,347 263,350 264,347 264,347 265,351 265,351 266,347 266,352 267,346 267,348 268,349 268,214 268,205 269,205 269,205 270,205 270,205 271,205 271,205 272,205 272,205 273,205 273,205 274,205 274,205 275,205 275,205 276,205 276,205 277,205 277,205 277,205 278,205 278,205 279,205 279,205 280,205 280,205 281,205 281,205 282,205 282,205 283,205 283,205 284,205 284,205 285,205 285,205 286,205 286,205 286,205 287,205 287,205 288,205 288,205 289,205 289,205 290,205 290,205 291,205 291,205 292,205 292,205 293,60 293,62 294,64 294,60 295,60 295,63 295,62 296,61 296,62 297,59 297,64 298,59 298,64 299,124 299,205 300,205 300,205 301,205 301,205 302,205 302,205 303,205 303,205 304,205 304,205 304,205 305,205 305,205 306,205 306,205 307,205 307,205 308,205 308,205 309,205 309,205 310,205 310,205 311,205 311,205 312,205 312,205 313,205 313,205 313,205 314,205 314,205 315,205 315,205 316,205 316,205 317,205 317,205 318,205 318,205 319,205 319,205 320,205 320,205 321,205 321,205 322,205 322,205 322,205 323,205 323,135 324,61 324,59 325,63 325,63 326,59 326,63 327,63 327,60 328,61 328,63 329,61 329,62 330,61 330,60 331,64 331,62 331,62 332,61 332,60 333,63 333,61 334,61 334,62 335,61 335,60 336,64 336,59 337,63 337,61 338,64 338,60 339,61 339,171 340,205 340,205 340,205 341,205 341,205 342,205 342,205 343,205 343,205 344,205 344,205 345,205 345,205 346,205 346,205 347,205 347,205 348,205 348,205 349,205 349,205 349,205 350,205 350,205 351,205 351,205 352,205 352,205 353,205 353,205 354,205 354,205 355,205 355,205 356,205 356,205 357,205 357,205 358,205 358,205 359,205 359,205 359,205 360,205 360,205 361,205 361,205 362,205 362,205 363,205 363,205 364,205 364,205 365,205 365,205 366,205 366,205 367,96 367,59 368,63 368,60 368,61 369,63 369,60 370,62 370,63 371,60 371,62 372,64 372,60 373,62 373,59 374,61 374,62 375,62 375,61 376,62 376,63 377,62 377,62 377,59 378,64 378,58 379,62 379,63 380,59 380,63 381,60 381,63 382,61 382,205 383,205 383,205 384,205 384,205 385,205 385,205 386,205 386,205 386,205 387,205 387,205 388,205 388,205 389,205 389,205 390,205 390,205 391,205 391,205 392,205 392,205 393,205 393,205 394,205 394,205 395,205 395,205 395,205 396,205 396,205 397,205 397,205 398,205 398,205 399,205 399,205 400,205 400,205 401,205 401,205 402,205 402,205 403,205 403,205 404,205 404,205 404,205 405,205 405,205 406,205 406,205 407,205 407,205 408,205 408,205 409,205 409,170 410,58 410,64 411,60 411,64 412,60 412,61 413,63 413,61 413,61 414,64 414,59 415,60 415,64 416,161 416,205 417,205 417,205 418,205 418,205 419,205 419,205 420,205 420,205 421,205 421,205 422,205 422,205 422,205 423,205 423,205 424,205 424,205 425,205 425,205 426,205 426,205 427,205 427,205 428,205 428,205 429,205 429,205 430,205 430,205 431,205 431,205 432,205 432,205 432,205 433,205 433,205 434,205 434,205 435,205 435,205 436,205 436,205 437,205 437,205 438,205 438,205 439,205 439,205 440,205 440,205 441,312 441,349 441,347 442,350 442,350 443,347 443,347 444,349 444,352 445,346 445,348 446,349 446,350 447,323 447,205 448,205 448,205 449,205 449,205 450,205 450,205 450,205 451,205 451,205 452,205 452,205 453,205 453,205 454,205 454,205 455,205 455,205 456,205 456,205 457,205 457,205 458,205 458,205 459,205 459,205 459,205 460,205 460,205 461,205 461,205 462,205 462,205 463,205 463,205 464,205 464,205 465,205 465,205 466,205 466,205 467,205 467,205 468,205 468,205 468,205 469,205 469,205 470,205 470,205 471,205 471,241 472,350 472,350 473,346 473,350 474,348 474,348 475,351 475,347 476,351 476,355 477,342 477,348 477,351 478,347 478,351 479,347 479,347 480,351 480,347 481,351 481,346 482,352 482,347 483,352 483,348 484,347 484,351 485,349 485,348 486,355 486,342 486,348 487,276 487,205 488,205 488,205 489,205 489,205 490,205 490,205 491,205 491,205 492,205 492,205 493,205 493,205 494,205 494,205 495,205 495,205 495,205 496,205 496,205 497,205 497,205 498,205 498,205 499,205 499,205 500,205 500,205 501,205 501,205 502,205 502,205 503,205 503,205 504,205 504,205 504,205 505,205 505,205 506,205 506,205 507,205 507,205 508,205 508,205 509,205 509,205 510,205 510,205 511,205 511,205 512,205 512,205 513,205 513,205 513,205 514,205 514,312 515,347 515,351 516,348 516,351 517,347 517,350 518,347 518,351 519,348 519,354 520,343 520,348 521,357 521,342 522,349 522,349 523,348 523,349 523,351 524,347 524,349 525,348 525,350 526,349 526,348 527,350 527,354 528,343 528,350 529,354 529,345 530,345 530,205 531,205 531,205 532,205 532,205 532,205 533,205 533,205 534,205 534,205 535,205 535,205 536,205 536,205 537,205 537,205 538,205 538,205 539,205 539,205 540,205 540,205 541,205 541,205 541,205 542,205 542,205 543,205 543,205 544,205 544,205 545,205 545,205 546,205 546,205 547,205 547,205 548,205 548,205 549,205 549,205 550,205 550,205 550,205 551,205 551,205 552,205 552,205 553,205 553,205 554,205 554,205 555,205 555,205 556,205 556,205 557,205 557,205 558,344 558,354 559,344 559,348 559,351 560,349 560,350 561,347 561,354 562,345 562,348 563,353 563,342 564,289 564,205 565,205 565,205 566,205 566,205 567,205 567,205 568,205 568,205 568,205 569,205 569,205 570,205 570,205 571,205 571,205 572,205 572,205 573,205 573,205 574,205 574,205 575,205 575,205 576,205 576,205 577,205 577,205 577,205 578,205 578,205 579,205 579,205 580,205 580,205 581,205 581,205 582,205 582,205 583,205 583,205 584,205 584,205 585,205 585,205 586,205 586,205 586,205 587,205 587,205 588,205 588,132 589,63 589,56 590,63 590,67 591,55 591,61 592,66 592,57 593,68 593,60 594,61 594,56 595,67 595,197 595,205 596,205 596,205 597,205 597,205 598,205 598,205 599,205 599,205 600,205 600,205 601,205 601,205 602,205 602,205 603,205 603,205 604,205 604,205 605,205 605,205 605,205 606,205 606,205 607,205 607,205 608,205 608,205 609,205 609,205 610,205 610,205 611,205 611,205 612,205 612,205 613,205 613,205 614,205 614,205 614,205 615,205 615,205 616,205 616,205 617,205 617,205 618,205 618,205 619,205 619,169 620,62 620,57 621,61 621,65 622,64 622,61 623,62 623,59 623,64 624,54 624,62 625,62 625,66 626,60 626,64 627,55 627,66 628,64 628,56 629,66 629,62 630,61 630,56 631,61 631,67 632,60 632,57 632,68 633,55 633,61 634,68 634,56 635,137 635,205 636,205 636,205 637,205 637,205 638,205 638,205 639,205 639,205 640,205 640,205 641,205 641,205 641,205 642,205 642,205 643,205 643,205 644,205 644,205 645,205 645,205 646,205 646,205 647,205 647,205 648,205 648,205 649,205 649,205 650,205 650,205 650,205 651,205 651,205 652,205 652,205 653,205 653,205 654,205 654,205 655,205 655,205 656,205 656,205 657,205 657,205 658,205 658,205 659,205 659,205 659,205 660,205 660,205 661,205 661,205 662,205 662,133 663,62 663,56 664,62 664,67 665,55 665,66 666,61 666,61 667,63 667,55 668,61 668,67 668,60 669,58 669,67 670,63 670,61 671,61 671,56 672,64 672,62 673,63 673,61 674,63 674,62 675,61 675,59 676,61 676,62 677,63 677,60 678,63 678,170 678,205 679,205 679,205 680,205 680,205 681,205 681,205 682,205 682,205 683,205 683,205 684,205 684,205 685,205 685,205 686,205 686,205 687,205 687,205 687,205 688,205 688,205 689,205 689,205 690,205 690,205 691,205 691,205 692,205 692,205 693,205 693,205 694,205 694,205 695,205 695,205 696,205 696,205 696,205 697,205 697,205 698,205 698,205 699,205 699,205 700,205 700,205 701,205 701,205 702,205 702,205 703,205 703,205 704,205 704,205 705,205 705,205 705,353 706,351 706,348 707,345 707,347 708,354 708,344 709,348 709,355 710,344 710,348 711,351 711,348 712,348 712,355 713,349 713,344 714,350 714,352 714,344 715,354 715,344 716,355 716,347 717,350 717,349 718,341 718,360 719,346 719,345 720,351 720,347 721,310 721,205 722,205 722,205 723,205 723,205 723,205 724,205 724,205 725,205 725,205 726,205 726,205 727,205 727,205 728,205 728,205 729,205 729,205 730,205 730,205 731,205 731,205 732,205 732,205 732,205 733,205 733,205 734,205 734,205 735,205 735,205 736,205 736,205 737,205 737,205 738,205 738,205 739,205 739,205 740,205 740,205 741,205 741,205 741,205 742,205 742,205 743,205 743,205 744,205 744,205 745,205 745,205 746,205 746,205 747,205 747,205 748,205 748,205 749,205 749,205 750,205 750,205 750,205 751,205 751,205 752,205 752,205 753,205 753,205 754,205 754,205 755,205 755,205 756,205 756,205 757,205 757,205 758,205 758,205 759,205 759,205 760,205" stroke="#e41a1c" fill="none" stroke-width="1.5" opacity="0.85"/><polyline points="40,205 40,205 40,205 41,205 41,205 42,205 42,205 43,205 43,205 44,205 44,205 45,205 45,205 46,205 46,205 47,205 47,205 48,205 48,205 49,205 49,205 49,205 50,205 50,205 51,205 51,205 52,205 52,205 53,205 53,205 54,205 54,205 55,205 55,205 56,205 56,205 57,205 57,205 58,205 58,205 58,205 59,205 59,205 60,205 60,205 61,205 61,205 62,205 62,205 63,205 63,205 64,205 64,205 65,205 65,205 66,205 66,205 67,205 67,205 67,205 68,205 68,205 69,205 69,205 70,205 70,205 71,205 71,205 72,205 72,205 73,205 73,205 74,205 74,205 75,205 75,205 76,205 76,205 76,205 77,205 77,205 78,205 78,205 79,205 79,205 80,205 80,205 81,205 81,205 82,205 82,205 83,205 83,205 84,205 84,205 85,205 85,205 85,205 86,205 86,205 87,205 87,205 88,205 88,205 89,205 89,205 90,205 90,205 91,205 91,205 92,205 92,205 93,205 93,205 94,205 94,205 94,205 95,205 95,205 96,205 96,205 97,205 97,205 98,205 98,205 99,205 99,205 100,205 100,205 101,205 101,205 102,205 102,205 103,205 103,205 103,205 104,205 104,205 105,205 105,205 106,205 106,205 107,205 107,205 108,205 108,205 109,205 109,205 110,205 110,205 111,205 111,205 112,205 112,205 112,205 113,205 113,205 114,205 114,205 115,205 115,205 116,205 116,205 117,205 117,205 118,205 118,205 119,205 119,205 120,205 120,205 121,205 121,205 122,205 122,205 122,205 123,205 123,205 124,205 124,205 125,205 125,205 126,205 126,205 127,205 127,205 128,205 128,205 129,205 129,205 130,205 130,205 131,205 131,205 131,205 132,205 132,205 133,205 133,205 134,205 134,205 135,205 135,205 136,205 136,205 137,205 137,205 138,205 138,205 139,205 139,205 140,205 140,205 140,205 141,205 141,205 142,205 142,205 143,205 143,99 144,59 144,61 145,65 145,60 146,64 146,60 147,62 147,59 148,63 148,60 149,61 149,63 149,61 150,63 150,63 151,60 151,61 152,59 152,76 153,205 153,205 154,205 154,205 155,205 155,205 156,205 156,205 157,205 157,205 158,205 158,205 158,205 159,205 159,205 160,205 160,205 161,205 161,205 162,205 162,205 163,205 163,205 164,205 164,205 165,205 165,205 166,205 166,205 167,205 167,205 167,205 168,205 168,205 169,205 169,205 170,205 170,205 171,205 171,205 172,205 172,205 173,205 173,205 174,205 174,169 175,63 175,60 176,61 176,61 176,63 177,60 177,63 178,76 178,205 179,205 179,205 180,205 180,205 181,205 181,205 182,205 182,205 183,205 183,205 184,205 184,205 185,205 185,205 186,205 186,205 186,205 187,205 187,205 188,205 188,205 189,205 189,205 190,205 190,205 191,205 191,205 192,205 192,205 193,205 193,205 194,205 194,205 195,205 195,205 195,205 196,205 196,205 197,205 197,205 198,205 198,205 199,205 199,205 200,205 200,205 201,205 201,205 202,205 202,205 203,205 203,205 204,205 204,205 204,205 205,205 205,205 206,205 206,205 207,205 207,205 208,205 208,205 209,205 209,205 210,205 210,205 211,205 211,205 212,205 212,205 213,205 213,205 213,205 214,205 214,205 215,205 215,205 216,205 216,205 217,205 217,278 218,350 218,347 219,349 219,350 220,349 220,348 221,350 221,295 222,205 222,205 222,205 223,205 223,205 224,205 224,205 225,205 225,205 226,205 226,205 227,205 227,205 228,205 228,205 229,205 229,205 230,205 230,205 231,205 231,205 231,205 232,205 232,205 233,205 233,205 234,205 234,205 235,205 235,205 236,205 236,205 237,205 237,205 238,205 238,205 239,205 239,205 240,205 240,205 240,205 241,205 241,205 242,205 242,205 243,205 243,205 244,205 244,205 245,205 245,205 246,205 246,205 247,205 247,205 248,205 248,205 249,205 249,205 249,205 250,205 250,205 251,205 251,205 252,205 252,205 253,205 253,205 254,205 254,205 255,205 255,205 256,205 256,205 257,205 257,205 258,205 258,205 258,205 259,205 259,205 260,205 260,205 261,205 261,276 262,350 262,351 263,347 263,350 264,347 264,347 265,351 265,351 266,347 266,352 267,346 267,348 268,349 268,349 268,351 269,346 269,349 270,349 270,350 271,225 271,205 272,205 272,205 273,205 273,205 274,205 274,205 275,205 275,205 276,205 276,205 277,205 277,205 277,205 278,205 278,205 279,205 279,205 280,205 280,205 281,205 281,205 282,205 282,205 283,205 283,205 284,205 284,205 285,205 285,205 286,205 286,205 286,205 287,205 287,205 288,205 288,205 289,205 289,205 290,205 290,205 291,205 291,205 292,205 292,205 293,350 293,349 294,346 294,350 295,350 295,347 295,348 296,349 296,349 297,351 297,346 298,351 298,346 299,350 299,347 300,350 300,350 301,350 301,347 302,298 302,205 303,205 303,205 304,205 304,205 304,205 305,205 305,205 306,205 306,205 307,205 307,205 308,205 308,205 309,205 309,205 310,205 310,205 311,205 311,205 312,205 312,205 313,205 313,205 313,205 314,205 314,205 315,205 315,205 316,205 316,205 317,205 317,205 318,205 318,205 319,205 319,205 320,205 320,205 321,205 321,205 322,205 322,205 322,205 323,205 323,276 324,349 324,352 325,348 325,347 326,351 326,348 327,347 327,298 328,205 328,205 329,205 329,205 330,205 330,205 331,205 331,205 331,205 332,205 332,205 333,205 333,205 334,205 334,205 335,205 335,205 336,205 336,205 337,205 337,205 338,205 338,205 339,205 339,205 340,205 340,205 340,205 341,205 341,205 342,205 342,205 343,205 343,205 344,205 344,205 345,205 345,205 346,205 346,205 347,205 347,205 348,205 348,205 349,205 349,205 349,205 350,205 350,205 351,205 351,205 352,205 352,205 353,205 353,205 354,205 354,205 355,205 355,205 356,205 356,205 357,205 357,205 358,205 358,205 359,205 359,205 359,205 360,205 360,205 361,205 361,205 362,205 362,205 363,205 363,205 364,205 364,205 365,205 365,205 366,205 366,205 367,96 367,59 368,63 368,60 368,61 369,63 369,60 370,62 370,150 371,205 371,205 372,205 372,205 373,205 373,205 374,205 374,205 375,205 375,205 376,205 376,205 377,205 377,205 377,205 378,205 378,205 379,205 379,205 380,205 380,205 381,205 381,205 382,205 382,205 383,205 383,205 384,205 384,205 385,205 385,205 386,205 386,205 386,205 387,205 387,205 388,205 388,205 389,205 389,205 390,205 390,205 391,205 391,205 392,205 392,205 393,205 393,205 394,205 394,205 395,205 395,205 395,205 396,205 396,205 397,205 397,205 398,205 398,205 399,205 399,205 400,205 400,205 401,205 401,205 402,205 402,205 403,205 403,205 404,205 404,205 404,205 405,205 405,205 406,205 406,205 407,205 407,205 408,205 408,205 409,205 409,170 410,58 410,64 411,60 411,64 412,60 412,61 413,63 413,61 413,61 414,64 414,59 415,60 415,64 416,63 416,59 417,60 417,63 418,62 418,63 419,148 419,205 420,205 420,205 421,205 421,205 422,205 422,205 422,205 423,205 423,205 424,205 424,205 425,205 425,205 426,205 426,205 427,205 427,205 428,205 428,205 429,205 429,205 430,205 430,205 431,205 431,205 432,205 432,205 432,205 433,205 433,205 434,205 434,205 435,205 435,205 436,205 436,205 437,205 437,205 438,205 438,205 439,205 439,205 440,205 440,205 441,98 441,61 441,63 442,60 442,60 443,63 443,63 444,61 444,58 445,64 445,62 446,61 446,60 447,60 447,62 448,61 448,63 449,61 449,63 450,78 450,205 450,205 451,205 451,205 452,205 452,205 453,205 453,205 454,205 454,205 455,205 455,205 456,205 456,205 457,205 457,205 458,205 458,205 459,205 459,205 459,205 460,205 460,205 461,205 461,205 462,205 462,205 463,205 463,205 464,205 464,205 465,205 465,205 466,205 466,205 467,205 467,205 468,205 468,205 468,205 469,205 469,205 470,205 470,205 471,205 471,169 472,61 472,60 473,64 473,60 474,62 474,62 475,60 475,79 476,205 476,205 477,205 477,205 477,205 478,205 478,205 479,205 479,205 480,205 480,205 481,205 481,205 482,205 482,205 483,205 483,205 484,205 484,205 485,205 485,205 486,205 486,205 486,205 487,205 487,205 488,205 488,205 489,205 489,205 490,205 490,205 491,205 491,205 492,205 492,205 493,205 493,205 494,205 494,205 495,205 495,205 495,205 496,205 496,205 497,205 497,205 498,205 498,205 499,205 499,205 500,205 500,205 501,205 501,205 502,205 502,205 503,205 503,205 504,205 504,205 504,205 505,205 505,205 506,205 506,205 507,205 507,205 508,205 508,205 509,205 509,205 510,205 510,205 511,205 511,205 512,205 512,205 513,205 513,205 513,205 514,205 514,312 515,347 515,351 516,348 516,351 517,347 517,350 518,347 518,262 519,205 519,205 520,205 520,205 521,205 521,205 522,205 522,205 523,205 523,205 523,205 524,205 524,205 525,205 525,205 526,205 526,205 527,205 527,205 528,205 528,205 529,205 529,205 530,205 530,205 531,205 531,205 532,205 532,205 532,205 533,205 533,205 534,205 534,205 535,205 535,205 536,205 536,205 537,205 537,205 538,205 538,205 539,205 539,205 540,205 540,205 541,205 541,205 541,205 542,205 542,205 543,205 543,205 544,205 544,205 545,205 545,205 546,205 546,205 547,205 547,205 548,205 548,205 549,205 549,205 550,205 550,205 550,205 551,205 551,205 552,205 552,205 553,205 553,205 554,205 554,205 555,205 555,205 556,205 556,205 557,205 557,205 558,344 558,354 559,344 559,348 559,351 560,349 560,350 561,347 561,354 562,345 562,348 563,353 563,342 564,356 564,345 565,347 565,349 566,350 566,347 567,298 567,205 568,205 568,205 568,205 569,205 569,205 570,205 570,205 571,205 571,205 572,205 572,205 573,205 573,205 574,205 574,205 575,205 575,205 576,205 576,205 577,205 577,205 577,205 578,205 578,205 579,205 579,205 580,205 580,205 581,205 581,205 582,205 582,205 583,205 583,205 584,205 584,205 585,205 585,205 586,205 586,205 586,205 587,205 587,205 588,205 588,278 589,347 589,355 590,348 590,343 591,355 591,349 592,345 592,354 593,343 593,350 594,349 594,354 595,343 595,348 595,350 596,348 596,347 597,351 597,347 598,226 598,205 599,205 599,205 600,205 600,205 601,205 601,205 602,205 602,205 603,205 603,205 604,205 604,205 605,205 605,205 605,205 606,205 606,205 607,205 607,205 608,205 608,205 609,205 609,205 610,205 610,205 611,205 611,205 612,205 612,205 613,205 613,205 614,205 614,205 614,205 615,205 615,205 616,205 616,205 617,205 617,205 618,205 618,205 619,205 619,241 620,349 620,354 621,350 621,345 622,347 622,349 623,348 623,334 623,205 624,205 624,205 625,205 625,205 626,205 626,205 627,205 627,205 628,205 628,205 629,205 629,205 630,205 630,205 631,205 631,205 632,205 632,205 632,205 633,205 633,205 634,205 634,205 635,205 635,205 636,205 636,205 637,205 637,205 638,205 638,205 639,205 639,205 640,205 640,205 641,205 641,205 641,205 642,205 642,205 643,205 643,205 644,205 644,205 645,205 645,205 646,205 646,205 647,205 647,205 648,205 648,205 649,205 649,205 650,205 650,205 650,205 651,205 651,205 652,205 652,205 653,205 653,205 654,205 654,205 655,205 655,205 656,205 656,205 657,205 657,205 658,205 658,205 659,205 659,205 659,205 660,205 660,205 661,205 661,205 662,205 662,133 663,62 663,56 664,62 664,67 665,55 665,66 666,61 666,113 667,205 667,205 668,205 668,205 668,205 669,205 669,205 670,205 670,205 671,205 671,205 672,205 672,205 673,205 673,205 674,205 674,205 675,205 675,205 676,205 676,205 677,205 677,205 678,205 678,205 678,205 679,205 679,205 680,205 680,205 681,205 681,205 682,205 682,205 683,205 683,205 684,205 684,205 685,205 685,205 686,205 686,205 687,205 687,205 687,205 688,205 688,205 689,205 689,205 690,205 690,205 691,205 691,205 692,205 692,205 693,205 693,205 694,205 694,205 695,205 695,205 696,205 696,205 696,205 697,205 697,205 698,205 698,205 699,205 699,205 700,205 700,205 701,205 701,205 702,205 702,205 703,205 703,205 704,205 704,205 705,205 705,205 705,57 706,60 706,63 707,65 707,63 708,56 708,67 709,62 709,55 710,66 710,62 711,59 711,63 712,63 712,56 713,61 713,67 714,60 714,59 714,116 715,205 715,205 716,205 716,205 717,205 717,205 718,205 718,205 719,205 719,205 720,205 720,205 721,205 721,205 722,205 722,205 723,205 723,205 723,205 724,205 724,205 725,205 725,205 726,205 726,205 727,205 727,205 728,205 728,205 729,205 729,205 730,205 730,205 731,205 731,205 732,205 732,205 732,205 733,205 733,205 734,205 734,205 735,205 735,205 736,205 736,205 737,205 737,205 738,205 738,205 739,205 739,205 740,205 740,205 741,205 741,205 741,205 742,205 742,205 743,205 743,205 744,205 744,205 745,205 745,205 746,205 746,205 747,205 747,205 748,205 748,205 749,205 749,205 750,205 750,205 750,205 751,205 751,205 752,205 752,205 753,205 753,205 754,205 754,205 755,205 755,205 756,205 756,205 757,205 757,205 758,205 758,205 759,205 759,205 760,205" stroke="#377eb8" fill="none" stroke-width="1.5" opacity="0.85"/><polyline points="40,205 40,205 40,205 41,205 41,205 42,205 42,205 43,205 43,205 44,205 44,205 45,205 45,205 46,205 46,205 47,205 47,205 48,205 48,205 49,205 49,205 49,205 50,205 50,205 51,205 51,205 52,205 52,205 53,205 53,205 54,205 54,205 55,205 55,205 56,205 56,205 57,205 57,205 58,205 58,205 58,205 59,205 59,205 60,205 60,205 61,205 61,205 62,205 62,205 63,205 63,205 64,205 64,205 65,205 65,205 66,205 66,205 67,205 67,205 67,205 68,205 68,205 69,205 69,205 70,205 70,205 71,205 71,205 72,205 72,205 73,205 73,205 74,205 74,205 75,205 75,205 76,205 76,205 76,205 77,205 77,205 78,205 78,205 79,205 79,205 80,205 80,205 81,205 81,205 82,205 82,205 83,205 83,205 84,205 84,205 85,205 85,205 85,205 86,205 86,205 87,205 87,60 88,61 88,61 89,65 89,58 90,63 90,65 91,58 91,60 92,65 92,58 93,64 93,58 94,192 94,205 94,205 95,205 95,205 96,205 96,205 97,205 97,205 98,205 98,205 99,205 99,205 100,205 100,205 101,205 101,205 102,205 102,205 103,205 103,205 103,205 104,205 104,205 105,205 105,205 106,205 106,205 107,205 107,205 108,205 108,205 109,205 109,205 110,205 110,205 111,205 111,205 112,205 112,205 112,205 113,205 113,205 114,205 114,205 115,205 115,205 116,205 116,205 117,205 117,205 118,205 118,205 119,205 119,205 120,205 120,205 121,205 121,205 122,205 122,205 122,205 123,205 123,205 124,205 124,205 125,205 125,205 126,205 126,205 127,205 127,205 128,205 128,205 129,205 129,205 130,205 130,205 131,205 131,205 131,205 132,205 132,205 133,205 133,205 134,205 134,205 135,205 135,205 136,205 136,205 137,205 137,205 138,205 138,205 139,205 139,205 140,205 140,205 140,205 141,205 141,205 142,205 142,205 143,205 143,311 144,351 144,349 145,346 145,350 146,347 146,350 147,349 147,351 148,347 148,350 149,349 149,348 149,255 150,205 150,205 151,205 151,205 152,205 152,205 153,205 153,205 154,205 154,205 155,205 155,205 156,205 156,205 157,205 157,205 158,205 158,205 158,205 159,205 159,205 160,205 160,205 161,205 161,205 162,205 162,205 163,205 163,205 164,205 164,205 165,205 165,205 166,205 166,205 167,205 167,205 167,205 168,205 168,205 169,205 169,205 170,205 170,205 171,205 171,205 172,205 172,205 173,205 173,205 174,205 174,241 175,348 175,351 176,350 176,350 176,348 177,350 177,347 178,351 178,348 179,348 179,349 180,351 180,326 181,205 181,205 182,205 182,205 183,205 183,205 184,205 184,205 185,205 185,205 186,205 186,205 186,205 187,205 187,205 188,205 188,205 189,205 189,205 190,205 190,205 191,205 191,205 192,205 192,205 193,205 193,205 194,205 194,205 195,205 195,205 195,205 196,205 196,205 197,205 197,205 198,205 198,205 199,205 199,205 200,205 200,205 201,205 201,205 202,205 202,205 203,205 203,205 204,205 204,205 204,205 205,205 205,205 206,205 206,205 207,205 207,205 208,205 208,205 209,205 209,205 210,205 210,205 211,205 211,205 212,205 212,205 213,205 213,205 213,205 214,205 214,205 215,205 215,205 216,205 216,205 217,205 217,278 218,350 218,347 219,349 219,350 220,338 220,205 221,205 221,205 222,205 222,205 222,205 223,205 223,205 224,205 224,205 225,205 225,205 226,205 226,205 227,205 227,205 228,205 228,205 229,205 229,205 230,205 230,205 231,205 231,205 231,205 232,205 232,205 233,205 233,205 234,205 234,205 235,205 235,205 236,205 236,205 237,205 237,205 238,205 238,205 239,205 239,205 240,205 240,205 240,205 241,205 241,205 242,205 242,205 243,205 243,205 244,205 244,205 245,205 245,205 246,205 246,205 247,205 247,205 248,205 248,205 249,205 249,205 249,205 250,205 250,205 251,205 251,205 252,205 252,205 253,205 253,205 254,205 254,205 255,205 255,205 256,205 256,205 257,205 257,205 258,205 258,205 258,205 259,205 259,205 260,205 260,205 261,205 261,135 262,61 262,60 263,63 263,60 264,75 264,205 265,205 265,205 266,205 266,205 267,205 267,205 268,205 268,205 268,205 269,205 269,205 270,205 270,205 271,205 271,205 272,205 272,205 273,205 273,205 274,205 274,205 275,205 275,205 276,205 276,205 277,205 277,205 277,205 278,205 278,205 279,205 279,205 280,205 280,205 281,205 281,205 282,205 282,205 283,205 283,205 284,205 284,205 285,205 285,205 286,205 286,205 286,205 287,205 287,205 288,205 288,205 289,205 289,205 290,205 290,205 291,205 291,205 292,205 292,205 293,60 293,62 294,64 294,60 295,60 295,63 295,62 296,61 296,62 297,59 297,64 298,59 298,64 299,191 299,205 300,205 300,205 301,205 301,205 302,205 302,205 303,205 303,205 304,205 304,205 304,205 305,205 305,205 306,205 306,205 307,205 307,205 308,205 308,205 309,205 309,205 310,205 310,205 311,205 311,205 312,205 312,205 313,205 313,205 313,205 314,205 314,205 315,205 315,205 316,205 316,205 317,205 317,205 318,205 318,205 319,205 319,205 320,205 320,205 321,205 321,205 322,205 322,205 322,205 323,205 323,135 324,61 324,59 325,63 325,63 326,59 326,63 327,63 327,60 328,61 328,63 329,61 329,62 330,120 330,205 331,205 331,205 331,205 332,205 332,205 333,205 333,205 334,205 334,205 335,205 335,205 336,205 336,205 337,205 337,205 338,205 338,205 339,205 339,205 340,205 340,205 340,205 341,205 341,205 342,205 342,205 343,205 343,205 344,205 344,205 345,205 345,205 346,205 346,205 347,205 347,205 348,205 348,205 349,205 349,205 349,205 350,205 350,205 351,205 351,205 352,205 352,205 353,205 353,205 354,205 354,205 355,205 355,205 356,205 356,205 357,205 357,205 358,205 358,205 359,205 359,205 359,205 360,205 360,205 361,205 361,205 362,205 362,205 363,205 363,205 364,205 364,205 365,205 365,205 366,205 366,205 367,96 367,59 368,63 368,60 368,61 369,109 369,205 370,205 370,205 371,205 371,205 372,205 372,205 373,205 373,205 374,205 374,205 375,205 375,205 376,205 376,205 377,205 377,205 377,205 378,205 378,205 379,205 379,205 380,205 380,205 381,205 381,205 382,205 382,205 383,205 383,205 384,205 384,205 385,205 385,205 386,205 386,205 386,205 387,205 387,205 388,205 388,205 389,205 389,205 390,205 390,205 391,205 391,205 392,205 392,205 393,205 393,205 394,205 394,205 395,205 395,205 395,205 396,205 396,205 397,205 397,205 398,205 398,205 399,205 399,205 400,205 400,205 401,205 401,205 402,205 402,205 403,205 403,205 404,205 404,205 404,205 405,205 405,205 406,205 406,205 407,205 407,205 408,205 408,205 409,205 409,241 410,352 410,347 411,351 411,346 412,351 412,230 413,205 413,205 413,205 414,205 414,205 415,205 415,205 416,205 416,205 417,205 417,205 418,205 418,205 419,205 419,205 420,205 420,205 421,205 421,205 422,205 422,205 422,205 423,205 423,205 424,205 424,205 425,205 425,205 426,205 426,205 427,205 427,205 428,205 428,205 429,205 429,205 430,205 430,205 431,205 431,205 432,205 432,205 432,205 433,205 433,205 434,205 434,205 435,205 435,205 436,205 436,205 437,205 437,205 438,205 438,205 439,205 439,205 440,205 440,205 441,312 441,349 441,347 442,350 442,350 443,347 443,347 444,349 444,352 445,346 445,348 446,349 446,350 447,255 447,205 448,205 448,205 449,205 449,205 450,205 450,205 450,205 451,205 451,205 452,205 452,205 453,205 453,205 454,205 454,205 455,205 455,205 456,205 456,205 457,205 457,205 458,205 458,205 459,205 459,205 459,205 460,205 460,205 461,205 461,205 462,205 462,205 463,205 463,205 464,205 464,205 465,205 465,205 466,205 466,205 467,205 467,205 468,205 468,205 468,205 469,205 469,205 470,205 470,205 471,205 471,241 472,350 472,350 473,346 473,350 474,348 474,348 475,351 475,347 476,351 476,355 477,342 477,348 477,329 478,205 478,205 479,205 479,205 480,205 480,205 481,205 481,205 482,205 482,205 483,205 483,205 484,205 484,205 485,205 485,205 486,205 486,205 486,205 487,205 487,205 488,205 488,205 489,205 489,205 490,205 490,205 491,205 491,205 492,205 492,205 493,205 493,205 494,205 494,205 495,205 495,205 495,205 496,205 496,205 497,205 497,205 498,205 498,205 499,205 499,205 500,205 500,205 501,205 501,205 502,205 502,205 503,205 503,205 504,205 504,205 504,205 505,205 505,205 506,205 506,205 507,205 507,205 508,205 508,205 509,205 509,205 510,205 510,205 511,205 511,205 512,205 512,205 513,205 513,205 513,205 514,205 514,312 515,347 515,351 516,348 516,351 517,301 517,205 518,205 518,205 519,205 519,205 520,205 520,205 521,205 521,205 522,205 522,205 523,205 523,205 523,205 524,205 524,205 525,205 525,205 526,205 526,205 527,205 527,205 528,205 528,205 529,205 529,205 530,205 530,205 531,205 531,205 532,205 532,205 532,205 533,205 533,205 534,205 534,205 535,205 535,205 536,205 536,205 537,205 537,205 538,205 538,205 539,205 539,205 540,205 540,205 541,205 541,205 541,205 542,205 542,205 543,205 543,205 544,205 544,205 545,205 545,205 546,205 546,205 547,205 547,205 548,205 548,205 549,205 549,205 550,205 550,205 550,205 551,205 551,205 552,205 552,205 553,205 553,205 554,205 554,205 555,205 555,205 556,205 556,205 557,205 557,205 558,66 558,56 559,67 559,63 559,59 560,144 560,205 561,205 561,205 562,205 562,205 563,205 563,205 564,205 564,205 565,205 565,205 566,205 566,205 567,205 567,205 568,205 568,205 568,205 569,205 569,205 570,205 570,205 571,205 571,205 572,205 572,205 573,205 573,205 574,205 574,205 575,205 575,205 576,205 576,205 577,205 577,205 577,205 578,205 578,205 579,205 579,205 580,205 580,205 581,205 581,205 582,205 582,205 583,205 583,205 584,205 584,205 585,205 585,205 586,205 586,205 586,205 587,205 587,205 588,205 588,132 589,63 589,56 590,63 590,67 591,55 591,61 592,66 592,57 593,68 593,60 594,61 594,56 595,123 595,205 595,205 596,205 596,205 597,205 597,205 598,205 598,205 599,205 599,205 600,205 600,205 601,205 601,205 602,205 602,205 603,205 603,205 604,205 604,205 605,205 605,205 605,205 606,205 606,205 607,205 607,205 608,205 608,205 609,205 609,205 610,205 610,205 611,205 611,205 612,205 612,205 613,205 613,205 614,205 614,205 614,205 615,205 615,205 616,205 616,205 617,205 617,205 618,205 618,205 619,205 619,169 620,62 620,57 621,61 621,65 622,64 622,61 623,62 623,59 623,64 624,54 624,62 625,62 625,87 626,205 626,205 627,205 627,205 628,205 628,205 629,205 629,205 630,205 630,205 631,205 631,205 632,205 632,205 632,205 633,205 633,205 634,205 634,205 635,205 635,205 636,205 636,205 637,205 637,205 638,205 638,205 639,205 639,205 640,205 640,205 641,205 641,205 641,205 642,205 642,205 643,205 643,205 644,205 644,205 645,205 645,205 646,205 646,205 647,205 647,205 648,205 648,205 649,205 649,205 650,205 650,205 650,205 651,205 651,205 652,205 652,205 653,205 653,205 654,205 654,205 655,205 655,205 656,205 656,205 657,205 657,205 658,205 658,205 659,205 659,205 659,205 660,205 660,205 661,205 661,205 662,205 662,133 663,62 663,56 664,62 664,67 665,67 665,205 666,205 666,205 667,205 667,205 668,205 668,205 668,205 669,205 669,205 670,205 670,205 671,205 671,205 672,205 672,205 673,205 673,205 674,205 674,205 675,205 675,205 676,205 676,205 677,205 677,205 678,205 678,205 678,205 679,205 679,205 680,205 680,205 681,205 681,205 682,205 682,205 683,205 683,205 684,205 684,205 685,205 685,205 686,205 686,205 687,205 687,205 687,205 688,205 688,205 689,205 689,205 690,205 690,205 691,205 691,205 692,205 692,205 693,205 693,205 694,205 694,205 695,205 695,205 696,205 696,205 696,205 697,205 697,205 698,205 698,205 699,205 699,205 700,205 700,205 701,205 701,205 702,205 702,205 703,205 703,205 704,205 704,205 705,205 705,205 705,353 706,351 706,348 707,345 707,347 708,354 708,344 709,348 709,355 710,344 710,348 711,351 711,348 712,348 712,355 713,349 713,344 714,350 714,281 714,205 715,205 715,205 716,205 716,205 717,205 717,205 718,205 718,205 719,205 719,205 720,205 720,205 721,205 721,205 722,205 722,205 723,205 723,205 723,205 724,205 724,205 725,205 725,205 726,205 726,205 727,205 727,205 728,205 728,205 729,205 729,205 730,205 730,205 731,205 731,205 732,205 732,205 732,205 733,205 733,205 734,205 734,205 735,205 735,205 736,205 736,205 737,205 737,205 738,205 738,205 739,205 739,205 740,205 740,205 741,205 741,205 741,205 742,205 742,205 743,205 743,205 744,205 744,205 745,205 745,205 746,205 746,205 747,205 747,205 748,205 748,205 749,205 749,205 750,205 750,205 750,205 751,205 751,205 752,205 752,205 753,205 753,205 754,205 754,205 755,205 755,205 756,205 756,205 757,205 757,205 758,205 758,205 759,205 759,205 760,205" stroke="#4daf4a" fill="none" stroke-width="1.5" opacity="0.85"/><polyline points="40,205 40,205 40,205 41,205 41,205 42,205 42,205 43,205 43,205 44,205 44,205 45,205 45,205 46,205 46,205 47,205 47,205 48,205 48,205 49,205 49,205 49,205 50,205 50,205 51,205 51,205 52,205 52,205 53,205 53,205 54,205 54,205 55,205 55,205 56,205 56,205 57,205 57,205 58,205 58,205 58,205 59,205 59,205 60,205 60,205 61,205 61,205 62,205 62,205 63,205 63,205 64,205 64,205 65,205 65,205 66,205 66,205 67,205 67,205 67,205 68,205 68,205 69,205 69,205 70,205 70,205 71,205 71,205 72,205 72,205 73,205 73,205 74,205 74,205 75,205 75,205 76,205 76,205 76,205 77,205 77,205 78,205 78,205 79,205 79,205 80,205 80,205 81,205 81,205 82,205 82,205 83,205 83,205 84,205 84,205 85,205 85,205 85,205 86,205 86,205 87,205 87,205 88,205 88,205 89,205 89,205 90,205 90,205 91,205 91,205 92,205 92,205 93,205 93,205 94,205 94,205 94,205 95,205 95,205 96,205 96,205 97,205 97,205 98,205 98,205 99,205 99,205 100,205 100,205 101,205 101,205 102,205 102,205 103,205 103,205 103,205 104,205 104,205 105,205 105,205 106,205 106,205 107,205 107,205 108,205 108,205 109,205 109,205 110,205 110,205 111,205 111,205 112,205 112,205 112,205 113,205 113,205 114,205 114,205 115,205 115,205 116,205 116,205 117,205 117,205 118,205 118,205 119,205 119,205 120,205 120,205 121,205 121,205 122,205 122,205 122,205 123,205 123,205 124,205 124,205 125,205 125,205 126,205 126,205 127,205 127,205 128,205 128,205 129,205 129,205 130,205 130,205 131,205 131,205 131,205 132,205 132,205 133,205 133,205 134,205 134,205 135,205 135,205 136,205 136,205 137,205 137,205 138,205 138,205 139,205 139,205 140,205 140,205 140,205 141,205 141,205 142,205 142,205 143,205 143,99 144,59 144,61 145,65 145,60 146,64 146,60 147,62 147,59 148,63 148,60 149,61 149,63 149,61 150,63 150,63 151,60 151,61 152,59 152,60 153,63 153,60 154,64 154,60 155,65 155,59 156,143 156,205 157,205 157,205 158,205 158,205 158,205 159,205 159,205 160,205 160,205 161,205 161,205 162,205 162,205 163,205 163,205 164,205 164,205 165,205 165,205 166,205 166,205 167,205 167,205 167,205 168,205 168,205 169,205 169,205 170,205 170,205 171,205 171,205 172,205 172,205 173,205 173,205 174,205 174,169 175,63 175,60 176,61 176,61 176,63 177,60 177,63 178,60 178,62 179,62 179,119 180,205 180,205 181,205 181,205 182,205 182,205 183,205 183,205 184,205 184,205 185,205 185,205 186,205 186,205 186,205 187,205 187,205 188,205 188,205 189,205 189,205 190,205 190,205 191,205 191,205 192,205 192,205 193,205 193,205 194,205 194,205 195,205 195,205 195,205 196,205 196,205 197,205 197,205 198,205 198,205 199,205 199,205 200,205 200,205 201,205 201,205 202,205 202,205 203,205 203,205 204,205 204,205 204,205 205,205 205,205 206,205 206,205 207,205 207,205 208,205 208,205 209,205 209,205 210,205 210,205 211,205 211,205 212,205 212,205 213,205 213,205 213,205 214,205 214,205 215,205 215,205 216,205 216,205 217,205 217,278 218,350 218,347 219,349 219,350 220,349 220,348 221,350 221,347 222,348 222,349 222,255 223,205 223,205 224,205 224,205 225,205 225,205 226,205 226,205 227,205 227,205 228,205 228,205 229,205 229,205 230,205 230,205 231,205 231,205 231,205 232,205 232,205 233,205 233,205 234,205 234,205 235,205 235,205 236,205 236,205 237,205 237,205 238,205 238,205 239,205 239,205 240,205 240,205 240,205 241,205 241,205 242,205 242,205 243,205 243,205 244,205 244,205 245,205 245,205 246,205 246,205 247,205 247,205 248,205 248,205 249,205 249,205 249,205 250,205 250,205 251,205 251,205 252,205 252,205 253,205 253,205 254,205 254,205 255,205 255,205 256,205 256,205 257,205 257,205 258,205 258,205 258,205 259,205 259,205 260,205 260,205 261,205 261,276 262,350 262,351 263,347 263,350 264,347 264,347 265,351 265,351 266,347 266,352 267,346 267,348 268,349 268,349 268,351 269,346 269,349 270,349 270,350 271,349 271,346 272,350 272,351 273,350 273,347 274,304 274,205 275,205 275,205 276,205 276,205 277,205 277,205 277,205 278,205 278,205 279,205 279,205 280,205 280,205 281,205 281,205 282,205 282,205 283,205 283,205 284,205 284,205 285,205 285,205 286,205 286,205 286,205 287,205 287,205 288,205 288,205 289,205 289,205 290,205 290,205 291,205 291,205 292,205 292,205 293,350 293,349 294,346 294,350 295,350 295,347 295,348 296,349 296,349 297,351 297,346 298,351 298,346 299,350 299,347 300,350 300,350 301,350 301,347 302,351 302,346 303,352 303,347 304,349 304,349 304,347 305,233 305,205 306,205 306,205 307,205 307,205 308,205 308,205 309,205 309,205 310,205 310,205 311,205 311,205 312,205 312,205 313,205 313,205 313,205 314,205 314,205 315,205 315,205 316,205 316,205 317,205 317,205 318,205 318,205 319,205 319,205 320,205 320,205 321,205 321,205 322,205 322,205 322,205 323,205 323,276 324,349 324,352 325,348 325,347 326,351 326,348 327,347 327,350 328,350 328,347 329,255 329,205 330,205 330,205 331,205 331,205 331,205 332,205 332,205 333,205 333,205 334,205 334,205 335,205 335,205 336,205 336,205 337,205 337,205 338,205 338,205 339,205 339,205 340,205 340,205 340,205 341,205 341,205 342,205 342,205 343,205 343,205 344,205 344,205 345,205 345,205 346,205 346,205 347,205 347,205 348,205 348,205 349,205 349,205 349,205 350,205 350,205 351,205 351,205 352,205 352,205 353,205 353,205 354,205 354,205 355,205 355,205 356,205 356,205 357,205 357,205 358,205 358,205 359,205 359,205 359,205 360,205 360,205 361,205 361,205 362,205 362,205 363,205 363,205 364,205 364,205 365,205 365,205 366,205 366,205 367,96 367,59 368,63 368,60 368,61 369,63 369,60 370,62 370,63 371,60 371,62 372,191 372,205 373,205 373,205 374,205 374,205 375,205 375,205 376,205 376,205 377,205 377,205 377,205 378,205 378,205 379,205 379,205 380,205 380,205 381,205 381,205 382,205 382,205 383,205 383,205 384,205 384,205 385,205 385,205 386,205 386,205 386,205 387,205 387,205 388,205 388,205 389,205 389,205 390,205 390,205 391,205 391,205 392,205 392,205 393,205 393,205 394,205 394,205 395,205 395,205 395,205 396,205 396,205 397,205 397,205 398,205 398,205 399,205 399,205 400,205 400,205 401,205 401,205 402,205 402,205 403,205 403,205 404,205 404,205 404,205 405,205 405,205 406,205 406,205 407,205 407,205 408,205 408,205 409,205 409,170 410,58 410,64 411,60 411,64 412,60 412,61 413,63 413,61 413,61 414,64 414,59 415,60 415,64 416,63 416,59 417,60 417,63 418,62 418,63 419,60 419,63 420,61 420,60 421,63 421,61 422,70 422,205 422,205 423,205 423,205 424,205 424,205 425,205 425,205 426,205 426,205 427,205 427,205 428,205 428,205 429,205 429,205 430,205 430,205 431,205 431,205 432,205 432,205 432,205 433,205 433,205 434,205 434,205 435,205 435,205 436,205 436,205 437,205 437,205 438,205 438,205 439,205 439,205 440,205 440,205 441,98 441,61 441,63 442,60 442,60 443,63 443,63 444,61 444,58 445,64 445,62 446,61 446,60 447,60 447,62 448,61 448,63 449,61 449,63 450,62 450,60 450,60 451,62 451,63 452,60 452,61 453,142 453,205 454,205 454,205 455,205 455,205 456,205 456,205 457,205 457,205 458,205 458,205 459,205 459,205 459,205 460,205 460,205 461,205 461,205 462,205 462,205 463,205 463,205 464,205 464,205 465,205 465,205 466,205 466,205 467,205 467,205 468,205 468,205 468,205 469,205 469,205 470,205 470,205 471,205 471,169 472,61 472,60 473,64 473,60 474,62 474,62 475,60 475,63 476,59 476,56 477,123 477,205 477,205 478,205 478,205 479,205 479,205 480,205 480,205 481,205 481,205 482,205 482,205 483,205 483,205 484,205 484,205 485,205 485,205 486,205 486,205 486,205 487,205 487,205 488,205 488,205 489,205 489,205 490,205 490,205 491,205 491,205 492,205 492,205 493,205 493,205 494,205 494,205 495,205 495,205 495,205 496,205 496,205 497,205 497,205 498,205 498,205 499,205 499,205 500,205 500,205 501,205 501,205 502,205 502,205 503,205 503,205 504,205 504,205 504,205 505,205 505,205 506,205 506,205 507,205 507,205 508,205 508,205 509,205 509,205 510,205 510,205 511,205 511,205 512,205 512,205 513,205 513,205 513,205 514,205 514,312 515,347 515,351 516,348 516,351 517,347 517,350 518,347 518,351 519,348 519,354 520,219 520,205 521,205 521,205 522,205 522,205 523,205 523,205 523,205 524,205 524,205 525,205 525,205 526,205 526,205 527,205 527,205 528,205 528,205 529,205 529,205 530,205 530,205 531,205 531,205 532,205 532,205 532,205 533,205 533,205 534,205 534,205 535,205 535,205 536,205 536,205 537,205 537,205 538,205 538,205 539,205 539,205 540,205 540,205 541,205 541,205 541,205 542,205 542,205 543,205 543,205 544,205 544,205 545,205 545,205 546,205 546,205 547,205 547,205 548,205 548,205 549,205 549,205 550,205 550,205 550,205 551,205 551,205 552,205 552,205 553,205 553,205 554,205 554,205 555,205 555,205 556,205 556,205 557,205 557,205 558,344 558,354 559,344 559,348 559,351 560,349 560,350 561,347 561,354 562,345 562,348 563,353 563,342 564,356 564,345 565,347 565,349 566,350 566,347 567,350 567,347 568,350 568,354 568,349 569,342 569,349 570,234 570,205 571,205 571,205 572,205 572,205 573,205 573,205 574,205 574,205 575,205 575,205 576,205 576,205 577,205 577,205 577,205 578,205 578,205 579,205 579,205 580,205 580,205 581,205 581,205 582,205 582,205 583,205 583,205 584,205 584,205 585,205 585,205 586,205 586,205 586,205 587,205 587,205 588,205 588,278 589,347 589,355 590,348 590,343 591,355 591,349 592,345 592,354 593,343 593,350 594,349 594,354 595,343 595,348 595,350 596,348 596,347 597,351 597,347 598,351 598,354 599,348 599,342 600,350 600,350 601,307 601,205 602,205 602,205 603,205 603,205 604,205 604,205 605,205 605,205 605,205 606,205 606,205 607,205 607,205 608,205 608,205 609,205 609,205 610,205 610,205 611,205 611,205 612,205 612,205 613,205 613,205 614,205 614,205 614,205 615,205 615,205 616,205 616,205 617,205 617,205 618,205 618,205 619,205 619,241 620,349 620,354 621,350 621,345 622,347 622,349 623,348 623,351 623,346 624,356 624,291 625,205 625,205 626,205 626,205 627,205 627,205 628,205 628,205 629,205 629,205 630,205 630,205 631,205 631,205 632,205 632,205 632,205 633,205 633,205 634,205 634,205 635,205 635,205 636,205 636,205 637,205 637,205 638,205 638,205 639,205 639,205 640,205 640,205 641,205 641,205 641,205 642,205 642,205 643,205 643,205 644,205 644,205 645,205 645,205 646,205 646,205 647,205 647,205 648,205 648,205 649,205 649,205 650,205 650,205 650,205 651,205 651,205 652,205 652,205 653,205 653,205 654,205 654,205 655,205 655,205 656,205 656,205 657,205 657,205 658,205 658,205 659,205 659,205 659,205 660,205 660,205 661,205 661,205 662,205 662,133 663,62 663,56 664,62 664,67 665,55 665,66 666,61 666,61 667,63 667,55 668,155 668,205 668,205 669,205 669,205 670,205 670,205 671,205 671,205 672,205 672,205 673,205 673,205 674,205 674,205 675,205 675,205 676,205 676,205 677,205 677,205 678,205 678,205 678,205 679,205 679,205 680,205 680,205 681,205 681,205 682,205 682,205 683,205 683,205 684,205 684,205 685,205 685,205 686,205 686,205 687,205 687,205 687,205 688,205 688,205 689,205 689,205 690,205 690,205 691,205 691,205 692,205 692,205 693,205 693,205 694,205 694,205 695,205 695,205 696,205 696,205 696,205 697,205 697,205 698,205 698,205 699,205 699,205 700,205 700,205 701,205 701,205 702,205 702,205 703,205 703,205 704,205 704,205 705,205 705,205 705,57 706,60 706,63 707,65 707,63 708,56 708,67 709,62 709,55 710,66 710,62 711,59 711,63 712,63 712,56 713,61 713,67 714,60 714,59 714,66 715,56 715,67 716,55 716,63 717,61 717,61 718,179 718,205 719,205 719,205 720,205 720,205 721,205 721,205 722,205 722,205 723,205 723,205 723,205 724,205 724,205 725,205 725,205 726,205 726,205 727,205 727,205 728,205 728,205 729,205 729,205 730,205 730,205 731,205 731,205 732,205 732,205 732,205 733,205 733,205 734,205 734,205 735,205 735,205 736,205 736,205 737,205 737,205 738,205 738,205 739,205 739,205 740,205 740,205 741,205 741,205 741,205 742,205 742,205 743,205 743,205 744,205 744,205 745,205 745,205 746,205 746,205 747,205 747,205 748,205 748,205 749,205 749,205 750,205 750,205 750,205 751,205 751,205 752,205 752,205 753,205 753,205 754,205 754,205 755,205 755,205 756,205 756,205 757,205 757,205 758,205 758,205 759,205 759,205 760,205" stroke="#984ea3" fill="none" stroke-width="1.5" opacity="0.85"/><polyline points="40,205 40,205 40,205 41,205 41,205 42,205 42,205 43,205 43,205 44,205 44,205 45,205 45,205 46,205 46,205 47,205 47,205 48,205 48,205 49,205 49,205 49,205 50,205 50,205 51,205 51,205 52,205 52,205 53,205 53,205 54,205 54,205 55,205 55,205 56,205 56,205 57,205 57,205 58,205 58,205 58,205 59,205 59,205 60,205 60,205 61,205 61,205 62,205 62,205 63,205 63,205 64,205 64,205 65,205 65,205 66,205 66,205 67,205 67,205 67,205 68,205 68,205 69,205 69,205 70,205 70,205 71,205 71,205 72,205 72,205 73,205 73,205 74,205 74,205 75,205 75,205 76,205 76,205 76,205 77,205 77,205 78,205 78,205 79,205 79,205 80,205 80,205 81,205 81,205 82,205 82,205 83,205 83,205 84,205 84,205 85,205 85,205 85,205 86,205 86,205 87,205 87,60 88,61 88,61 89,65 89,58 90,63 90,65 91,58 91,60 92,65 92,58 93,64 93,58 94,63 94,63 94,60 95,62 95,60 96,131 96,205 97,205 97,205 98,205 98,205 99,205 99,205 100,205 100,205 101,205 101,205 102,205 102,205 103,205 103,205 103,205 104,205 104,205 105,205 105,205 106,205 106,205 107,205 107,205 108,205 108,205 109,205 109,205 110,205 110,205 111,205 111,205 112,205 112,205 112,205 113,205 113,205 114,205 114,205 115,205 115,205 116,205 116,205 117,205 117,205 118,205 118,205 119,205 119,205 120,205 120,205 121,205 121,205 122,205 122,205 122,205 123,205 123,205 124,205 124,205 125,205 125,205 126,205 126,205 127,205 127,205 128,205 128,205 129,205 129,205 130,205 130,205 131,205 131,205 131,205 132,205 132,205 133,205 133,205 134,205 134,205 135,205 135,205 136,205 136,205 137,205 137,205 138,205 138,205 139,205 139,205 140,205 140,205 140,205 141,205 141,205 142,205 142,205 143,205 143,311 144,351 144,349 145,346 145,350 146,300 146,205 147,205 147,205 148,205 148,205 149,205 149,205 149,205 150,205 150,205 151,205 151,205 152,205 152,205 153,205 153,205 154,205 154,205 155,205 155,205 156,205 156,205 157,205 157,205 158,205 158,205 158,205 159,205 159,205 160,205 160,205 161,205 161,205 162,205 162,205 163,205 163,205 164,205 164,205 165,205 165,205 166,205 166,205 167,205 167,205 167,205 168,205 168,205 169,205 169,205 170,205 170,205 171,205 171,205 172,205 172,205 173,205 173,205 174,205 174,241 175,348 175,351 176,350 176,350 176,348 177,350 177,347 178,351 178,348 179,348 179,349 180,351 180,326 181,205 181,205 182,205 182,205 183,205 183,205 184,205 184,205 185,205 185,205 186,205 186,205 186,205 187,205 187,205 188,205 188,205 189,205 189,205 190,205 190,205 191,205 191,205 192,205 192,205 193,205 193,205 194,205 194,205 195,205 195,205 195,205 196,205 196,205 197,205 197,205 198,205 198,205 199,205 199,205 200,205 200,205 201,205 201,205 202,205 202,205 203,205 203,205 204,205 204,205 204,205 205,205 205,205 206,205 206,205 207,205 207,205 208,205 208,205 209,205 209,205 210,205 210,205 211,205 211,205 212,205 212,205 213,205 213,205 213,205 214,205 214,205 215,205 215,205 216,205 216,205 217,205 217,278 218,350 218,347 219,349 219,350 220,349 220,348 221,350 221,347 222,348 222,349 222,350 223,351 223,289 224,205 224,205 225,205 225,205 226,205 226,205 227,205 227,205 228,205 228,205 229,205 229,205 230,205 230,205 231,205 231,205 231,205 232,205 232,205 233,205 233,205 234,205 234,205 235,205 235,205 236,205 236,205 237,205 237,205 238,205 238,205 239,205 239,205 240,205 240,205 240,205 241,205 241,205 242,205 242,205 243,205 243,205 244,205 244,205 245,205 245,205 246,205 246,205 247,205 247,205 248,205 248,205 249,205 249,205 249,205 250,205 250,205 251,205 251,205 252,205 252,205 253,205 253,205 254,205 254,205 255,205 255,205 256,205 256,205 257,205 257,205 258,205 258,205 258,205 259,205 259,205 260,205 260,205 261,205 261,276 262,350 262,351 263,347 263,350 264,336 264,205 265,205 265,205 266,205 266,205 267,205 267,205 268,205 268,205 268,205 269,205 269,205 270,205 270,205 271,205 271,205 272,205 272,205 273,205 273,205 274,205 274,205 275,205 275,205 276,205 276,205 277,205 277,205 277,205 278,205 278,205 279,205 279,205 280,205 280,205 281,205 281,205 282,205 282,205 283,205 283,205 284,205 284,205 285,205 285,205 286,205 286,205 286,205 287,205 287,205 288,205 288,205 289,205 289,205 290,205 290,205 291,205 291,205 292,205 292,205 293,60 293,62 294,64 294,60 295,60 295,145 295,205 296,205 296,205 297,205 297,205 298,205 298,205 299,205 299,205 300,205 300,205 301,205 301,205 302,205 302,205 303,205 303,205 304,205 304,205 304,205 305,205 305,205 306,205 306,205 307,205 307,205 308,205 308,205 309,205 309,205 310,205 310,205 311,205 311,205 312,205 312,205 313,205 313,205 313,205 314,205 314,205 315,205 315,205 316,205 316,205 317,205 317,205 318,205 318,205 319,205 319,205 320,205 320,205 321,205 321,205 322,205 322,205 322,205 323,205 323,135 324,61 324,59 325,63 325,63 326,59 326,63 327,63 327,60 328,61 328,63 329,61 329,62 330,120 330,205 331,205 331,205 331,205 332,205 332,205 333,205 333,205 334,205 334,205 335,205 335,205 336,205 336,205 337,205 337,205 338,205 338,205 339,205 339,205 340,205 340,205 340,205 341,205 341,205 342,205 342,205 343,205 343,205 344,205 344,205 345,205 345,205 346,205 346,205 347,205 347,205 348,205 348,205 349,205 349,205 349,205 350,205 350,205 351,205 351,205 352,205 352,205 353,205 353,205 354,205 354,205 355,205 355,205 356,205 356,205 357,205 357,205 358,205 358,205 359,205 359,205 359,205 360,205 360,205 361,205 361,205 362,205 362,205 363,205 363,205 364,205 364,205 365,205 365,205 366,205 366,205 367,96 367,59 368,63 368,60 368,61 369,63 369,60 370,62 370,63 371,60 371,62 372,64 372,60 373,156 373,205 374,205 374,205 375,205 375,205 376,205 376,205 377,205 377,205 377,205 378,205 378,205 379,205 379,205 380,205 380,205 381,205 381,205 382,205 382,205 383,205 383,205 384,205 384,205 385,205 385,205 386,205 386,205 386,205 387,205 387,205 388,205 388,205 389,205 389,205 390,205 390,205 391,205 391,205 392,205 392,205 393,205 393,205 394,205 394,205 395,205 395,205 395,205 396,205 396,205 397,205 397,205 398,205 398,205 399,205 399,205 400,205 400,205 401,205 401,205 402,205 402,205 403,205 403,205 404,205 404,205 404,205 405,205 405,205 406,205 406,205 407,205 407,205 408,205 408,205 409,205 409,170 410,58 410,64 411,60 411,64 412,60 412,180 413,205 413,205 413,205 414,205 414,205 415,205 415,205 416,205 416,205 417,205 417,205 418,205 418,205 419,205 419,205 420,205 420,205 421,205 421,205 422,205 422,205 422,205 423,205 423,205 424,205 424,205 425,205 425,205 426,205 426,205 427,205 427,205 428,205 428,205 429,205 429,205 430,205 430,205 431,205 431,205 432,205 432,205 432,205 433,205 433,205 434,205 434,205 435,205 435,205 436,205 436,205 437,205 437,205 438,205 438,205 439,205 439,205 440,205 440,205 441,312 441,349 441,347 442,350 442,350 443,301 443,205 444,205 444,205 445,205 445,205 446,205 446,205 447,205 447,205 448,205 448,205 449,205 449,205 450,205 450,205 450,205 451,205 451,205 452,205 452,205 453,205 453,205 454,205 454,205 455,205 455,205 456,205 456,205 457,205 457,205 458,205 458,205 459,205 459,205 459,205 460,205 460,205 461,205 461,205 462,205 462,205 463,205 463,205 464,205 464,205 465,205 465,205 466,205 466,205 467,205 467,205 468,205 468,205 468,205 469,205 469,205 470,205 470,205 471,205 471,241 472,350 472,350 473,346 473,350 474,348 474,348 475,351 475,347 476,351 476,355 477,342 477,348 477,329 478,205 478,205 479,205 479,205 480,205 480,205 481,205 481,205 482,205 482,205 483,205 483,205 484,205 484,205 485,205 485,205 486,205 486,205 486,205 487,205 487,205 488,205 488,205 489,205 489,205 490,205 490,205 491,205 491,205 492,205 492,205 493,205 493,205 494,205 494,205 495,205 495,205 495,205 496,205 496,205 497,205 497,205 498,205 498,205 499,205 499,205 500,205 500,205 501,205 501,205 502,205 502,205 503,205 503,205 504,205 504,205 504,205 505,205 505,205 506,205 506,205 507,205 507,205 508,205 508,205 509,205 509,205 510,205 510,205 511,205 511,205 512,205 512,205 513,205 513,205 513,205 514,205 514,312 515,347 515,351 516,348 516,351 517,347 517,350 518,347 518,351 519,348 519,354 520,343 520,348 521,257 521,205 522,205 522,205 523,205 523,205 523,205 524,205 524,205 525,205 525,205 526,205 526,205 527,205 527,205 528,205 528,205 529,205 529,205 530,205 530,205 531,205 531,205 532,205 532,205 532,205 533,205 533,205 534,205 534,205 535,205 535,205 536,205 536,205 537,205 537,205 538,205 538,205 539,205 539,205 540,205 540,205 541,205 541,205 541,205 542,205 542,205 543,205 543,205 544,205 544,205 545,205 545,205 546,205 546,205 547,205 547,205 548,205 548,205 549,205 549,205 550,205 550,205 550,205 551,205 551,205 552,205 552,205 553,205 553,205 554,205 554,205 555,205 555,205 556,205 556,205 557,205 557,205 558,344 558,354 559,344 559,348 559,351 560,266 560,205 561,205 561,205 562,205 562,205 563,205 563,205 564,205 564,205 565,205 565,205 566,205 566,205 567,205 567,205 568,205 568,205 568,205 569,205 569,205 570,205 570,205 571,205 571,205 572,205 572,205 573,205 573,205 574,205 574,205 575,205 575,205 576,205 576,205 577,205 577,205 577,205 578,205 578,205 579,205 579,205 580,205 580,205 581,205 581,205 582,205 582,205 583,205 583,205 584,205 584,205 585,205 585,205 586,205 586,205 586,205 587,205 587,205 588,205 588,132 589,63 589,56 590,63 590,67 591,67 591,205 592,205 592,205 593,205 593,205 594,205 594,205 595,205 595,205 595,205 596,205 596,205 597,205 597,205 598,205 598,205 599,205 599,205 600,205 600,205 601,205 601,205 602,205 602,205 603,205 603,205 604,205 604,205 605,205 605,205 605,205 606,205 606,205 607,205 607,205 608,205 608,205 609,205 609,205 610,205 610,205 611,205 611,205 612,205 612,205 613,205 613,205 614,205 614,205 614,205 615,205 615,205 616,205 616,205 617,205 617,205 618,205 618,205 619,205 619,169 620,62 620,57 621,61 621,65 622,64 622,61 623,62 623,59 623,64 624,54 624,62 625,62 625,87 626,205 626,205 627,205 627,205 628,205 628,205 629,205 629,205 630,205 630,205 631,205 631,205 632,205 632,205 632,205 633,205 633,205 634,205 634,205 635,205 635,205 636,205 636,205 637,205 637,205 638,205 638,205 639,205 639,205 640,205 640,205 641,205 641,205 641,205 642,205 642,205 643,205 643,205 644,205 644,205 645,205 645,205 646,205 646,205 647,205 647,205 648,205 648,205 649,205 649,205 650,205 650,205 650,205 651,205 651,205 652,205 652,205 653,205 653,205 654,205 654,205 655,205 655,205 656,205 656,205 657,205 657,205 658,205 658,205 659,205 659,205 659,205 660,205 660,205 661,205 661,205 662,205 662,133 663,62 663,56 664,62 664,67 665,55 665,66 666,61 666,61 667,63 667,55 668,61 668,67 668,119 669,205 669,205 670,205 670,205 671,205 671,205 672,205 672,205 673,205 673,205 674,205 674,205 675,205 675,205 676,205 676,205 677,205 677,205 678,205 678,205 678,205 679,205 679,205 680,205 680,205 681,205 681,205 682,205 682,205 683,205 683,205 684,205 684,205 685,205 685,205 686,205 686,205 687,205 687,205 687,205 688,205 688,205 689,205 689,205 690,205 690,205 691,205 691,205 692,205 692,205 693,205 693,205 694,205 694,205 695,205 695,205 696,205 696,205 696,205 697,205 697,205 698,205 698,205 699,205 699,205 700,205 700,205 701,205 701,205 702,205 702,205 703,205 703,205 704,205 704,205 705,205 705,205 705,353 706,351 706,348 707,345 707,347 708,354 708,344 709,348 709,355 710,344 710,348 711,351 711,348 712,219 712,205 713,205 713,205 714,205 714,205 714,205 715,205 715,205 716,205 716,205 717,205 717,205 718,205 718,205 719,205 719,205 720,205 720,205 721,205 721,205 722,205 722,205 723,205 723,205 723,205 724,205 724,205 725,205 725,205 726,205 726,205 727,205 727,205 728,205 728,205 729,205 729,205 730,205 730,205 731,205 731,205 732,205 732,205 732,205 733,205 733,205 734,205 734,205 735,205 735,205 736,205 736,205 737,205 737,205 738,205 738,205 739,205 739,205 740,205 740,205 741,205 741,205 741,205 742,205 742,205 743,205 743,205 744,205 744,205 745,205 745,205 746,205 746,205 747,205 747,205 748,205 748,205 749,205 749,205 750,205 750,205 750,205 751,205 751,205 752,205 752,205 753,205 753,205 754,205 754,205 755,205 755,205 756,205 756,205 757,205 757,205 758,205 758,205 759,205 759,205 760,205" stroke="#ff7f00" fill="none" stroke-width="1.5" opacity="0.85"/><polyline points="40,205 40,205 40,205 41,205 41,205 42,205 42,205 43,205 43,205 44,205 44,205 45,205 45,205 46,205 46,205 47,205 47,205 48,205 48,205 49,205 49,205 49,205 50,205 50,205 51,205 51,205 52,205 52,205 53,205 53,205 54,205 54,205 55,205 55,205 56,205 56,205 57,205 57,205 58,205 58,205 58,205 59,205 59,205 60,205 60,205 61,205 61,205 62,205 62,205 63,205 63,205 64,205 64,205 65,205 65,205 66,205 66,205 67,205 67,205 67,205 68,205 68,205 69,205 69,205 70,205 70,205 71,205 71,205 72,205 72,205 73,205 73,205 74,205 74,205 75,205 75,205 76,205 76,205 76,205 77,205 77,205 78,205 78,205 79,205 79,205 80,205 80,205 81,205 81,205 82,205 82,205 83,205 83,205 84,205 84,205 85,205 85,205 85,205 86,205 86,205 87,205 87,205 88,205 88,205 89,205 89,205 90,205 90,205 91,205 91,205 92,205 92,205 93,205 93,205 94,205 94,205 94,205 95,205 95,205 96,205 96,205 97,205 97,205 98,205 98,205 99,205 99,205 100,205 100,205 101,205 101,205 102,205 102,205 103,205 103,205 103,205 104,205 104,205 105,205 105,205 106,205 106,205 107,205 107,205 108,205 108,205 109,205 109,205 110,205 110,205 111,205 111,205 112,205 112,205 112,205 113,205 113,205 114,205 114,205 115,205 115,205 116,205 116,205 117,205 117,205 118,205 118,205 119,205 119,205 120,205 120,205 121,205 121,205 122,205 122,205 122,205 123,205 123,205 124,205 124,205 125,205 125,205 126,205 126,205 127,205 127,205 128,205 128,205 129,205 129,205 130,205 130,205 131,205 131,205 131,205 132,205 132,205 133,205 133,205 134,205 134,205 135,205 135,205 136,205 136,205 137,205 137,205 138,205 138,205 139,205 139,205 140,205 140,205 140,205 141,205 141,205 142,205 142,205 143,205 143,205 144,205 144,205 145,205 145,205 146,205 146,205 147,205 147,205 148,205 148,205 149,205 149,205 149,205 150,205 150,205 151,205 151,205 152,205 152,205 153,205 153,205 154,205 154,205 155,205 155,205 156,205 156,205 157,205 157,205 158,205 158,205 158,205 159,205 159,205 160,205 160,205 161,205 161,205 162,205 162,205 163,205 163,205 164,205 164,205 165,205 165,205 166,205 166,205 167,205 167,205 167,205 168,205 168,205 169,205 169,205 170,205 170,205 171,205 171,205 172,205 172,205 173,205 173,205 174,205 174,205 175,205 175,205 176,205 176,205 176,205 177,205 177,205 178,205 178,205 179,205 179,205 180,205 180,205 181,205 181,205 182,205 182,205 183,205 183,205 184,205 184,205 185,205 185,205 186,205 186,205 186,205 187,205 187,205 188,205 188,205 189,205 189,205 190,205 190,205 191,205 191,205 192,205 192,205 193,205 193,205 194,205 194,205 195,205 195,205 195,205 196,205 196,205 197,205 197,205 198,205 198,205 199,205 199,205 200,205 200,205 201,205 201,205 202,205 202,205 203,205 203,205 204,205 204,205 204,205 205,205 205,205 206,205 206,205 207,205 207,205 208,205 208,205 209,205 209,205 210,205 210,205 211,205 211,205 212,205 212,205 213,205 213,205 213,205 214,205 214,205 215,205 215,205 216,205 216,205 217,205 217,205 218,205 218,205 219,205 219,205 220,205 220,205 221,205 221,205 222,205 222,205 222,205 223,205 223,205 224,205 224,205 225,205 225,205 226,205 226,205 227,205 227,205 228,205 228,205 229,205 229,205 230,205 230,205 231,205 231,205 231,205 232,205 232,205 233,205 233,205 234,205 234,205 235,205 235,205 236,205 236,205 237,205 237,205 238,205 238,205 239,205 239,205 240,205 240,205 240,205 241,205 241,205 242,205 242,205 243,205 243,205 244,205 244,205 245,205 245,205 246,205 246,205 247,205 247,205 248,205 248,205 249,205 249,205 249,205 250,205 250,205 251,205 251,205 252,205 252,205 253,205 253,205 254,205 254,205 255,205 255,205 256,205 256,205 257,205 257,205 258,205 258,205 258,205 259,205 259,205 260,205 260,205 261,205 261,205 262,205 262,205 263,205 263,205 264,205 264,205 265,205 265,205 266,205 266,205 267,205 267,205 268,205 268,205 268,205 269,205 269,205 270,205 270,205 271,205 271,205 272,205 272,205 273,205 273,205 274,205 274,205 275,205 275,205 276,205 276,205 277,205 277,205 277,205 278,205 278,205 279,205 279,205 280,205 280,205 281,205 281,205 282,205 282,205 283,205 283,205 284,205 284,205 285,205 285,205 286,205 286,205 286,205 287,205 287,205 288,205 288,205 289,205 289,205 290,205 290,205 291,205 291,205 292,205 292,205 293,205 293,205 294,205 294,205 295,205 295,205 295,205 296,205 296,205 297,205 297,205 298,205 298,205 299,205 299,205 300,205 300,205 301,205 301,205 302,205 302,205 303,205 303,205 304,205 304,205 304,205 305,205 305,205 306,205 306,205 307,205 307,205 308,205 308,205 309,205 309,205 310,205 310,205 311,205 311,205 312,205 312,205 313,205 313,205 313,205 314,205 314,205 315,205 315,205 316,205 316,205 317,205 317,205 318,205 318,205 319,205 319,205 320,205 320,205 321,205 321,205 322,205 322,205 322,205 323,205 323,205 324,205 324,205 325,205 325,205 326,205 326,205 327,205 327,205 328,205 328,205 329,205 329,205 330,205 330,205 331,205 331,205 331,205 332,205 332,205 333,205 333,205 334,205 334,205 335,205 335,205 336,205 336,205 337,205 337,205 338,205 338,205 339,205 339,205 340,205 340,205 340,205 341,205 341,205 342,205 342,205 343,205 343,205 344,205 344,205 345,205 345,205 346,205 346,205 347,205 347,205 348,205 348,205 349,205 349,205 349,205 350,205 350,205 351,205 351,205 352,205 352,205 353,205 353,205 354,205 354,205 355,205 355,205 356,205 356,205 357,205 357,205 358,205 358,205 359,205 359,205 359,205 360,205 360,205 361,205 361,205 362,205 362,205 363,205 363,205 364,205 364,205 365,205 365,205 366,205 366,205 367,205 367,205 368,205 368,205 368,205 369,205 369,205 370,205 370,205 371,205 371,205 372,205 372,205 373,205 373,205 374,205 374,205 375,205 375,205 376,205 376,205 377,205 377,205 377,205 378,205 378,205 379,205 379,205 380,205 380,205 381,205 381,205 382,205 382,205 383,205 383,205 384,205 384,205 385,205 385,205 386,205 386,205 386,205 387,205 387,205 388,205 388,205 389,205 389,205 390,205 390,205 391,205 391,205 392,205 392,205 393,205 393,205 394,205 394,205 395,205 395,205 395,205 396,205 396,205 397,205 397,205 398,205 398,205 399,205 399,205 400,205 400,205 401,205 401,205 402,205 402,205 403,205 403,205 404,205 404,205 404,205 405,205 405,205 406,205 406,205 407,205 407,205 408,205 408,205 409,205 409,205 410,205 410,205 411,205 411,205 412,205 412,205 413,205 413,205 413,205 414,205 414,205 415,205 415,205 416,205 416,205 417,205 417,205 418,205 418,205 419,205 419,205 420,205 420,205 421,205 421,205 422,205 422,205 422,205 423,205 423,205 424,205 424,205 425,205 425,205 426,205 426,205 427,205 427,205 428,205 428,205 429,205 429,205 430,205 430,205 431,205 431,205 432,205 432,205 432,205 433,205 433,205 434,205 434,205 435,205 435,205 436,205 436,205 437,205 437,205 438,205 438,205 439,205 439,205 440,205 440,205 441,205 441,205 441,205 442,205 442,205 443,205 443,205 444,205 444,205 445,205 445,205 446,205 446,205 447,205 447,205 448,205 448,205 449,205 449,205 450,205 450,205 450,205 451,205 451,205 452,205 452,205 453,205 453,205 454,205 454,205 455,205 455,205 456,205 456,205 457,205 457,205 458,205 458,205 459,205 459,205 459,205 460,205 460,205 461,205 461,205 462,205 462,205 463,205 463,205 464,205 464,205 465,205 465,205 466,205 466,205 467,205 467,205 468,205 468,205 468,205 469,205 469,205 470,205 470,205 471,205 471,205 472,205 472,205 473,205 473,205 474,205 474,205 475,205 475,205 476,205 476,205 477,205 477,205 477,205 478,205 478,205 479,205 479,205 480,205 480,205 481,205 481,205 482,205 482,205 483,205 483,205 484,205 484,205 485,205 485,205 486,205 486,205 486,205 487,205 487,205 488,205 488,205 489,205 489,205 490,205 490,205 491,205 491,205 492,205 492,205 493,205 493,205 494,205 494,205 495,205 495,205 495,205 496,205 496,205 497,205 497,205 498,205 498,205 499,205 499,205 500,205 500,205 501,205 501,205 502,205 502,205 503,205 503,205 504,205 504,205 504,205 505,205 505,205 506,205 506,205 507,205 507,205 508,205 508,205 509,205 509,205 510,205 510,205 511,205 511,205 512,205 512,205 513,205 513,205 513,205 514,205 514,205 515,205 515,205 516,205 516,205 517,205 517,205 518,205 518,205 519,205 519,205 520,205 520,205 521,205 521,205 522,205 522,205 523,205 523,205 523,205 524,205 524,205 525,205 525,205 526,205 526,205 527,205 527,205 528,205 528,205 529,205 529,205 530,205 530,205 531,205 531,205 532,205 532,205 532,205 533,205 533,205 534,205 534,205 535,205 535,205 536,205 536,205 537,205 537,205 538,205 538,205 539,205 539,205 540,205 540,205 541,205 541,205 541,205 542,205 542,205 543,205 543,205 544,205 544,205 545,205 545,205 546,205 546,205 547,205 547,205 548,205 548,205 549,205 549,205 550,205 550,205 550,205 551,205 551,205 552,205 552,205 553,205 553,205 554,205 554,205 555,205 555,205 556,205 556,205 557,205 557,205 558,205 558,205 559,205 559,205 559,205 560,205 560,205 561,205 561,205 562,205 562,205 563,205 563,205 564,205 564,205 565,205 565,205 566,205 566,205 567,205 567,205 568,205 568,205 568,205 569,205 569,205 570,205 570,205 571,205 571,205 572,205 572,205 573,205 573,205 574,205 574,205 575,205 575,205 576,205 576,205 577,205 577,205 577,205 578,205 578,205 579,205 579,205 580,205 580,205 581,205 581,205 582,205 582,205 583,205 583,205 584,205 584,205 585,205 585,205 586,205 586,205 586,205 587,205 587,205 588,205 588,205 589,205 589,205 590,205 590,205 591,205 591,205 592,205 592,205 593,205 593,205 594,205 594,205 595,205 595,205 595,205 596,205 596,205 597,205 597,205 598,205 598,205 599,205 599,205 600,205 600,205 601,205 601,205 602,205 602,205 603,205 603,205 604,205 604,205 605,205 605,205 605,205 606,205 606,205 607,205 607,205 608,205 608,205 609,205 609,205 610,205 610,205 611,205 611,205 612,205 612,205 613,205 613,205 614,205 614,205 614,205 615,205 615,205 616,205 616,205 617,205 617,205 618,205 618,205 619,205 619,205 620,205 620,205 621,205 621,205 622,205 622,205 623,205 623,205 623,205 624,205 624,205 625,205 625,205 626,205 626,205 627,205 627,205 628,205 628,205 629,205 629,205 630,205 630,205 631,205 631,205 632,205 632,205 632,205 633,205 633,205 634,205 634,205 635,205 635,205 636,205 636,205 637,205 637,205 638,205 638,205 639,205 639,205 640,205 640,205 641,205 641,205 641,205 642,205 642,205 643,205 643,205 644,205 644,205 645,205 645,205 646,205 646,205 647,205 647,205 648,205 648,205 649,205 649,205 650,205 650,205 650,205 651,205 651,205 652,205 652,205 653,205 653,205 654,205 654,205 655,205 655,205 656,205 656,205 657,205 657,205 658,205 658,205 659,205 659,205 659,205 660,205 660,205 661,205 661,205 662,205 662,205 663,205 663,205 664,205 664,205 665,205 665,205 666,205 666,205 667,205 667,205 668,205 668,205 668,205 669,205 669,205 670,205 670,205 671,205 671,205 672,205 672,205 673,205 673,205 674,205 674,205 675,205 675,205 676,205 676,205 677,205 677,205 678,205 678,205 678,205 679,205 679,205 680,205 680,205 681,205 681,205 682,205 682,205 683,205 683,205 684,205 684,205 685,205 685,205 686,205 686,205 687,205 687,205 687,205 688,205 688,205 689,205 689,205 690,205 690,205 691,205 691,205 692,205 692,205 693,205 693,205 694,205 694,205 695,205 695,205 696,205 696,205 696,205 697,205 697,205 698,205 698,205 699,205 699,205 700,205 700,205 701,205 701,205 702,205 702,205 703,205 703,205 704,205 704,205 705,205 705,205 705,205 706,205 706,205 707,205 707,205 708,205 708,205 709,205 709,205 710,205 710,205 711,205 711,205 712,205 712,205 713,205 713,205 714,205 714,205 714,205 715,205 715,205 716,205 716,205 717,205 717,205 718,205 718,205 719,205 719,205 720,205 720,205 721,205 721,205 722,205 722,205 723,205 723,205 723,205 724,205 724,205 725,205 725,205 726,205 726,205 727,205 727,205 728,205 728,205 729,205 729,205 730,205 730,205 731,205 731,205 732,205 732,205 732,205 733,205 733,205 734,205 734,205 735,205 735,205 736,205 736,205 737,205 737,205 738,205 738,205 739,205 739,205 740,205 740,205 741,205 741,205 741,205 742,205 742,205 743,205 743,205 744,205 744,205 745,205 745,205 746,205 746,205 747,205 747,205 748,205 748,205 749,205 749,205 750,205 750,205 750,205 751,205 751,205 752,205 752,205 753,205 753,205 754,205 754,205 755,205 755,205 756,205 756,205 757,205 757,205 758,205 758,205 759,205 759,205 760,205" stroke="#a65628" fill="none" stroke-width="1.5" opacity="0.85"/>
  <text x="700" y="30" font-size="10" fill="#e41a1c">J1</text><text x="760" y="30" font-size="10" fill="#377eb8">J2</text><text x="820" y="30" font-size="10" fill="#4daf4a">J3</text><text x="700" y="44" font-size="10" fill="#984ea3">J4</text><text x="760" y="44" font-size="10" fill="#ff7f00">J5</text><text x="820" y="44" font-size="10" fill="#a65628">J6</text>
  <line x1="40" y1="360" x2="760" y2="360" stroke="#999" stroke-width="1"/>
  <line x1="40" y1="40" x2="40" y2="360" stroke="#999" stroke-width="1"/>
  <text x="400" y="396" text-anchor="middle" font-size="10" fill="#555">tempo (s)</text>
</svg>