<svg xmlns="http://www.w3.org/2000/svg" width="800" height="400">
  <rect width="800" height="400" fill="white"/>
  <text x="400" y="18" text-anchor="middle" font-size="13" font-weight="bold">
    circular_multijoint — QDD (deg/s2) — run 1</text>
  <polyline points="40,199 40,199 40,199 41,199 41,199 42,199 42,199 43,199 43,199 44,199 44,199 45,199 45,199 46,199 46,199 47,199 47,199 48,199 48,199 49,199 49,199 49,199 50,199 50,199 51,199 51,199 52,199 52,199 53,199 53,199 54,199 54,199 55,199 55,199 56,199 56,199 57,199 57,199 58,199 58,199 58,199 59,199 59,199 60,199 60,199 61,199 61,199 62,199 62,199 63,199 63,199 64,199 64,199 65,199 65,199 66,199 66,199 67,199 67,199 67,199 68,199 68,199 69,199 69,199 70,199 70,199 71,199 71,199 72,199 72,199 73,199 73,199 74,199 74,199 75,199 75,199 76,199 76,199 76,199 77,199 77,199 78,199 78,199 79,199 79,199 80,199 80,199 81,199 81,199 82,199 82,199 83,199 83,199 84,199 84,199 85,199 85,199 85,199 86,199 86,199 87,199 87,47 88,199 88,199 89,199 89,199 90,199 90,199 91,199 91,199 92,199 92,199 93,199 93,199 94,199 94,199 94,199 95,199 95,199 96,199 96,199 97,199 97,199 98,199 98,199 99,199 99,199 100,199 100,199 101,199 101,199 102,200 102,199 103,200 103,199 103,200 104,199 104,200 105,199 105,200 106,199 106,200 107,199 107,200 108,199 108,200 109,199 109,306 110,245 110,199 111,199 111,199 112,199 112,199 112,199 113,199 113,199 114,199 114,199 115,199 115,199 116,199 116,199 117,199 117,199 118,199 118,199 119,199 119,199 120,199 120,199 121,199 121,199 122,199 122,199 122,199 123,199 123,199 124,199 124,199 125,199 125,199 126,199 126,199 127,199 127,199 128,199 128,199 129,199 129,199 130,199 130,199 131,199 131,199 131,199 132,199 132,199 133,199 133,199 134,199 134,199 135,199 135,199 136,199 136,199 137,199 137,199 138,199 138,199 139,199 139,199 140,199 140,199 140,199 141,199 141,199 142,199 142,199 143,199 143,309 144,238 144,200 145,199 145,200 146,199 146,200 147,199 147,200 148,199 148,200 149,199 149,200 149,171 150,81 150,199 151,199 151,199 152,199 152,199 153,199 153,199 154,199 154,199 155,199 155,199 156,199 156,199 157,199 157,199 158,199 158,199 158,199 159,199 159,199 160,199 160,199 161,199 161,199 162,199 162,199 163,199 163,199 164,199 164,199 165,199 165,199 166,199 166,199 167,199 167,199 167,199 168,199 168,199 169,199 169,199 170,199 170,199 171,199 171,199 172,199 172,199 173,199 173,199 174,199 174,237 175,311 175,200 176,199 176,199 176,199 177,199 177,199 178,199 178,199 179,199 179,199 180,199 180,199 181,199 181,199 182,199 182,199 183,199 183,199 184,199 184,199 185,199 185,199 186,199 186,199 186,199 187,199 187,199 188,199 188,199 189,199 189,199 190,119 190,126 191,199 191,199 192,199 192,199 193,199 193,199 194,199 194,199 195,199 195,199 195,199 196,199 196,199 197,199 197,199 198,199 198,199 199,199 199,199 200,199 200,199 201,199 201,199 202,199 202,199 203,199 203,199 204,199 204,199 204,199 205,199 205,199 206,199 206,199 207,199 207,199 208,199 208,199 209,199 209,199 210,199 210,199 211,199 211,199 212,199 212,199 213,199 213,199 213,199 214,199 214,199 215,199 215,199 216,199 216,199 217,199 217,276 218,276 218,199 219,199 219,199 220,199 220,199 221,199 221,199 222,199 222,199 222,199 223,199 223,199 224,199 224,199 225,199 225,199 226,199 226,199 227,199 227,199 228,199 228,199 229,199 229,200 230,199 230,199 231,199 231,199 231,199 232,200 232,199 233,85 233,164 234,199 234,199 235,199 235,199 236,199 236,199 237,199 237,199 238,199 238,199 239,199 239,199 240,199 240,199 240,199 241,199 241,199 242,199 242,199 243,199 243,199 244,199 244,199 245,199 245,199 246,199 246,199 247,199 247,199 248,199 248,199 249,199 249,199 249,199 250,199 250,199 251,199 251,199 252,199 252,199 253,199 253,199 254,199 254,199 255,199 255,199 256,199 256,199 257,199 257,199 258,199 258,199 258,199 259,199 259,199 260,199 260,199 261,199 261,272 262,276 262,200 263,199 263,200 264,199 264,200 265,199 265,200 266,199 266,200 267,199 267,200 268,199 268,58 268,190 269,199 269,199 270,199 270,199 271,199 271,199 272,199 272,199 273,199 273,199 274,199 274,199 275,199 275,199 276,199 276,199 277,199 277,199 277,199 278,199 278,199 279,199 279,199 280,199 280,199 281,199 281,199 282,199 282,199 283,199 283,199 284,199 284,199 285,199 285,199 286,199 286,199 286,199 287,199 287,199 288,199 288,199 289,199 289,199 290,199 290,199 291,199 291,199 292,199 292,199 293,46 293,200 294,199 294,200 295,199 295,200 295,199 296,200 296,199 297,200 297,199 298,200 298,199 299,267 299,282 300,199 300,199 301,199 301,199 302,199 302,199 303,199 303,199 304,199 304,199 304,199 305,199 305,199 306,199 306,199 307,199 307,199 308,199 308,199 309,199 309,199 310,199 310,199 311,199 311,199 312,199 312,199 313,199 313,199 313,199 314,199 314,199 315,199 315,199 316,199 316,199 317,199 317,199 318,199 318,199 319,199 319,199 320,199 320,199 321,199 321,199 322,199 322,199 322,199 323,199 323,127 324,124 324,199 325,200 325,199 326,199 326,199 327,199 327,199 328,199 328,199 329,199 329,199 330,199 330,199 331,199 331,199 331,199 332,199 332,199 333,199 333,199 334,199 334,199 335,199 335,199 336,199 336,199 337,199 337,199 338,199 338,199 339,199 339,316 340,234 340,199 340,199 341,199 341,199 342,199 342,199 343,199 343,199 344,199 344,199 345,199 345,199 346,199 346,199 347,199 347,199 348,199 348,199 349,199 349,199 349,199 350,199 350,199 351,199 351,199 352,199 352,199 353,199 353,199 354,199 354,199 355,199 355,199 356,199 356,199 357,199 357,199 358,199 358,199 359,199 359,199 359,199 360,199 360,199 361,199 361,199 362,199 362,199 363,199 363,199 364,199 364,199 365,199 365,199 366,199 366,199 367,84 367,161 368,199 368,199 368,199 369,199 369,199 370,199 370,199 371,199 371,199 372,199 372,199 373,199 373,199 374,199 374,199 375,199 375,199 376,199 376,199 377,199 377,199 377,199 378,199 378,199 379,199 379,199 380,199 380,199 381,200 381,199 382,202 382,345 383,199 383,199 384,199 384,199 385,199 385,199 386,199 386,199 386,199 387,199 387,199 388,199 388,199 389,199 389,199 390,199 390,199 391,199 391,199 392,199 392,199 393,199 393,199 394,199 394,199 395,199 395,199 395,199 396,199 396,199 397,199 397,199 398,199 398,199 399,199 399,199 400,199 400,199 401,199 401,199 402,199 402,199 403,199 403,199 404,199 404,199 404,199 405,199 405,199 406,199 406,199 407,199 407,199 408,199 408,199 409,199 409,163 410,81 410,199 411,200 411,199 412,200 412,199 413,200 413,199 413,199 414,200 414,199 415,200 415,199 416,301 416,248 417,199 417,199 418,199 418,199 419,199 419,199 420,199 420,199 421,199 421,199 422,199 422,199 422,199 423,199 423,199 424,199 424,199 425,199 425,199 426,199 426,199 427,199 427,199 428,199 428,199 429,199 429,199 430,199 430,199 431,199 431,199 432,199 432,199 432,199 433,199 433,199 434,199 434,199 435,199 435,199 436,199 436,199 437,199 437,199 438,199 438,199 439,199 439,199 440,199 440,199 441,312 441,237 441,200 442,199 442,200 443,199 443,200 444,199 444,200 445,199 445,200 446,199 446,200 447,170 447,78 448,199 448,199 449,199 449,199 450,199 450,199 450,199 451,199 451,199 452,199 452,199 453,199 453,199 454,199 454,199 455,199 455,199 456,199 456,199 457,199 457,199 458,199 458,199 459,199 459,199 459,199 460,199 460,199 461,199 461,199 462,199 462,199 463,199 463,199 464,199 464,199 465,199 465,199 466,199 466,199 467,199 467,199 468,199 468,199 468,199 469,199 469,199 470,199 470,199 471,199 471,237 472,314 472,200 473,199 473,199 474,199 474,199 475,199 475,199 476,199 476,199 477,199 477,199 477,199 478,199 478,199 479,199 479,199 480,199 480,199 481,199 481,199 482,199 482,199 483,199 483,199 484,199 484,199 485,199 485,199 486,199 486,199 486,199 487,119 487,121 488,199 488,199 489,199 489,199 490,199 490,199 491,199 491,199 492,199 492,199 493,199 493,199 494,199 494,199 495,199 495,199 495,199 496,199 496,199 497,199 497,199 498,199 498,199 499,199 499,199 500,199 500,199 501,199 501,199 502,199 502,199 503,199 503,199 504,199 504,199 504,199 505,199 505,199 506,199 506,199 507,199 507,199 508,199 508,199 509,199 509,199 510,199 510,199 511,199 511,199 512,199 512,199 513,199 513,199 513,199 514,199 514,311 515,236 515,199 516,199 516,199 517,199 517,199 518,199 518,199 519,199 519,199 520,199 520,199 521,199 521,199 522,199 522,199 523,199 523,199 523,199 524,199 524,199 525,199 525,199 526,199 526,199 527,199 527,199 528,199 528,200 529,199 529,200 530,198 530,51 531,199 531,199 532,199 532,199 532,199 533,199 533,199 534,199 534,199 535,199 535,199 536,199 536,199 537,199 537,199 538,199 538,199 539,199 539,199 540,199 540,199 541,199 541,199 541,199 542,199 542,199 543,199 543,199 544,199 544,199 545,199 545,199 546,199 546,199 547,199 547,199 548,199 548,199 549,199 549,199 550,199 550,199 550,199 551,199 551,199 552,199 552,199 553,199 553,199 554,199 554,199 555,199 555,199 556,199 556,199 557,199 557,199 558,340 558,200 559,199 559,199 559,200 560,199 560,200 561,199 561,200 562,199 562,200 563,199 563,200 564,127 564,119 565,199 565,199 566,199 566,199 567,199 567,199 568,199 568,199 568,199 569,199 569,199 570,199 570,199 571,199 571,199 572,199 572,199 573,199 573,199 574,199 574,199 575,199 575,199 576,199 576,199 577,199 577,199 577,199 578,199 578,199 579,199 579,199 580,199 580,199 581,199 581,199 582,199 582,199 583,199 583,199 584,199 584,199 585,199 585,199 586,199 586,199 586,199 587,199 587,199 588,199 588,121 589,126 589,199 590,200 590,199 591,200 591,199 592,200 592,199 593,200 593,199 594,200 594,199 595,199 595,339 595,209 596,199 596,199 597,199 597,199 598,199 598,199 599,199 599,199 600,199 600,199 601,199 601,199 602,199 602,199 603,199 603,199 604,199 604,199 605,199 605,199 605,199 606,199 606,199 607,199 607,199 608,199 608,199 609,199 609,199 610,199 610,199 611,199 611,199 612,199 612,199 613,199 613,199 614,199 614,199 614,199 615,199 615,199 616,199 616,199 617,199 617,199 618,199 618,199 619,199 619,162 620,87 620,199 621,200 621,199 622,199 622,199 623,199 623,199 623,199 624,199 624,199 625,199 625,199 626,199 626,199 627,199 627,199 628,199 628,200 629,199 629,199 630,199 630,199 631,199 631,199 632,199 632,199 632,199 633,199 633,199 634,199 634,199 635,273 635,271 636,199 636,199 637,199 637,199 638,199 638,199 639,199 639,199 640,199 640,199 641,199 641,199 641,199 642,199 642,199 643,199 643,199 644,199 644,199 645,199 645,199 646,199 646,199 647,199 647,199 648,199 648,199 649,199 649,199 650,199 650,199 650,199 651,199 651,199 652,199 652,199 653,199 653,199 654,199 654,199 655,199 655,199 656,199 656,199 657,199 657,199 658,199 658,199 659,199 659,199 659,199 660,199 660,199 661,199 661,199 662,199 662,123 663,125 663,199 664,199 664,199 665,199 665,199 666,199 666,199 667,199 667,199 668,199 668,199 668,199 669,199 669,199 670,199 670,199 671,199 671,199 672,199 672,199 673,199 673,199 674,199 674,199 675,200 675,199 676,199 676,199 677,200 677,199 678,200 678,325 678,235 679,199 679,199 680,199 680,199 681,199 681,199 682,199 682,199 683,199 683,199 684,199 684,199 685,199 685,199 686,199 686,199 687,199 687,199 687,199 688,199 688,199 689,199 689,199 690,199 690,199 691,199 691,199 692,199 692,199 693,199 693,199 694,199 694,199 695,199 695,199 696,199 696,199 696,199 697,199 697,199 698,199 698,199 699,199 699,199 700,199 700,199 701,199 701,199 702,199 702,199 703,199 703,199 704,199 704,199 705,199 705,199 705,360 706,199 706,200 707,199 707,200 708,199 708,199 709,199 709,199 710,199 710,199 711,200 711,199 712,199 712,199 713,199 713,199 714,199 714,199 714,199 715,199 715,199 716,199 716,199 717,199 717,199 718,199 718,199 719,199 719,199 720,199 720,199 721,161 721,86 722,199 722,199 723,199 723,199 723,199 724,199 724,199 725,199 725,199 726,199 726,199 727,199 727,199 728,199 728,199 729,199 729,199 730,199 730,199 731,199 731,199 732,199 732,199 732,199 733,199 733,199 734,199 734,199 735,199 735,199 736,199 736,199 737,199 737,199 738,199 738,199 739,199 739,199 740,199 740,199 741,199 741,199 741,199 742,199 742,199 743,199 743,199 744,199 744,199 745,199 745,199 746,199 746,199 747,199 747,199 748,199 748,199 749,199 749,199 750,199 750,199 750,199 751,199 751,199 752,199 752,199 753,199 753,199 754,199 754,199 755,199 755,199 756,199 756,199 757,199 757,199 758,199 758,199 759,199 759,199 760,199" stroke="#e41a1c" fill="none" stroke-width="1.5" opacity="0.85"/><polyline points="40,199 40,199 40,199 41,199 41,199 42,199 42,199 43,199 43,199 44,199 44,199 45,199 45,199 46,199 46,199 47,199 47,199 48,199 48,199 49,199 49,199 49,199 50,199 50,199 51,199 51,199 52,199 52,199 53,199 53,199 54,199 54,199 55,199 55,199 56,199 56,199 57,199 57,199 58,199 58,199 58,199 59,199 59,199 60,199 60,199 61,199 61,199 62,199 62,199 63,199 63,199 64,199 64,199 65,199 65,199 66,199 66,199 67,199 67,199 67,199 68,199 68,199 69,199 69,199 70,199 70,199 71,199 71,199 72,199 72,199 73,199 73,199 74,199 74,199 75,199 75,199 76,199 76,199 76,199 77,199 77,199 78,199 78,199 79,199 79,199 80,199 80,199 81,199 81,199 82,199 82,199 83,199 83,199 84,199 84,199 85,199 85,199 85,199 86,199 86,199 87,199 87,199 88,199 88,199 89,199 89,199 90,199 90,199 91,199 91,199 92,199 92,199 93,199 93,199 94,199 94,199 94,199 95,199 95,199 96,199 96,199 97,199 97,199 98,199 98,199 99,199 99,199 100,199 100,199 101,199 101,199 102,199 102,199 103,199 103,199 103,199 104,199 104,199 105,199 105,199 106,199 106,199 107,199 107,199 108,199 108,199 109,199 109,199 110,199 110,199 111,199 111,199 112,199 112,199 112,199 113,199 113,199 114,199 114,199 115,199 115,199 116,199 116,199 117,199 117,199 118,199 118,199 119,199 119,199 120,199 120,199 121,199 121,199 122,199 122,199 122,199 123,199 123,199 124,199 124,199 125,199 125,199 126,199 126,199 127,199 127,199 128,199 128,199 129,199 129,199 130,199 130,199 131,199 131,199 131,199 132,199 132,199 133,199 133,199 134,199 134,199 135,199 135,199 136,199 136,199 137,199 137,199 138,199 138,199 139,199 139,199 140,199 140,199 140,199 141,199 141,199 142,199 142,199 143,199 143,90 144,161 144,199 145,199 145,199 146,199 146,199 147,199 147,199 148,199 148,199 149,199 149,199 149,199 150,199 150,199 151,199 151,199 152,199 152,216 153,331 153,199 154,199 154,199 155,199 155,199 156,199 156,199 157,199 157,199 158,199 158,199 158,199 159,199 159,199 160,199 160,199 161,199 161,199 162,199 162,199 163,199 163,199 164,199 164,199 165,199 165,199 166,199 166,199 167,199 167,199 167,199 168,199 168,199 169,199 169,199 170,199 170,199 171,199 171,199 172,199 172,199 173,199 173,199 174,199 174,162 175,88 175,199 176,199 176,199 176,199 177,199 177,199 178,217 178,331 179,199 179,199 180,199 180,199 181,199 181,199 182,199 182,199 183,199 183,199 184,199 184,199 185,199 185,199 186,199 186,199 186,199 187,199 187,199 188,199 188,199 189,199 189,199 190,199 190,199 191,199 191,199 192,199 192,199 193,199 193,199 194,199 194,199 195,199 195,199 195,199 196,199 196,199 197,199 197,199 198,199 198,199 199,199 199,199 200,199 200,199 201,199 201,199 202,199 202,199 203,199 203,199 204,199 204,199 204,199 205,199 205,199 206,199 206,199 207,199 207,199 208,199 208,199 209,199 209,199 210,199 210,199 211,199 211,199 212,199 212,199 213,199 213,199 213,199 214,199 214,199 215,199 215,199 216,199 216,199 217,199 217,276 218,276 218,199 219,199 219,199 220,199 220,199 221,199 221,146 222,105 222,199 222,199 223,199 223,199 224,199 224,199 225,199 225,199 226,199 226,199 227,199 227,199 228,199 228,199 229,199 229,199 230,199 230,199 231,199 231,199 231,199 232,199 232,199 233,199 233,199 234,199 234,199 235,199 235,199 236,199 236,199 237,199 237,199 238,199 238,199 239,199 239,199 240,199 240,199 240,199 241,199 241,199 242,199 242,199 243,199 243,199 244,199 244,199 245,199 245,199 246,199 246,199 247,199 247,199 248,199 248,199 249,199 249,199 249,199 250,199 250,199 251,199 251,199 252,199 252,199 253,199 253,199 254,199 254,199 255,199 255,199 256,199 256,199 257,199 257,199 258,199 258,199 258,199 259,199 259,199 260,199 260,199 261,199 261,272 262,276 262,199 263,199 263,199 264,199 264,199 265,199 265,199 266,199 266,199 267,199 267,199 268,199 268,199 268,199 269,199 269,199 270,199 270,199 271,71 271,179 272,199 272,199 273,199 273,199 274,199 274,199 275,199 275,199 276,199 276,199 277,199 277,199 277,199 278,199 278,199 279,199 279,199 280,199 280,199 281,199 281,199 282,199 282,199 283,199 283,199 284,199 284,199 285,199 285,199 286,199 286,199 286,199 287,199 287,199 288,199 288,199 289,199 289,199 290,199 290,199 291,199 291,199 292,199 292,199 293,353 293,199 294,199 294,199 295,199 295,199 295,199 296,199 296,199 297,199 297,199 298,199 298,199 299,199 299,199 300,199 300,199 301,199 301,199 302,144 302,107 303,199 303,199 304,199 304,199 304,199 305,199 305,199 306,199 306,199 307,199 307,199 308,199 308,199 309,199 309,199 310,199 310,199 311,199 311,199 312,199 312,199 313,199 313,199 313,199 314,199 314,199 315,199 315,199 316,199 316,199 317,199 317,199 318,199 318,199 319,199 319,199 320,199 320,199 321,199 321,199 322,199 322,199 322,199 323,199 323,272 324,275 324,199 325,199 325,199 326,199 326,199 327,199 327,143 328,103 328,199 329,199 329,199 330,199 330,199 331,199 331,199 331,199 332,199 332,199 333,199 333,199 334,199 334,199 335,199 335,199 336,199 336,199 337,199 337,199 338,199 338,199 339,199 339,199 340,199 340,199 340,199 341,199 341,199 342,199 342,199 343,199 343,199 344,199 344,199 345,199 345,199 346,199 346,199 347,199 347,199 348,199 348,199 349,199 349,199 349,199 350,199 350,199 351,199 351,199 352,199 352,199 353,199 353,199 354,199 354,199 355,199 355,199 356,199 356,199 357,199 357,199 358,199 358,199 359,199 359,199 359,199 360,199 360,199 361,199 361,199 362,199 362,199 363,199 363,199 364,199 364,199 365,199 365,199 366,199 366,199 367,84 367,161 368,199 368,199 368,199 369,199 369,199 370,200 370,290 371,259 371,199 372,199 372,199 373,199 373,199 374,199 374,199 375,199 375,199 376,199 376,199 377,199 377,199 377,199 378,199 378,199 379,199 379,199 380,199 380,199 381,199 381,199 382,199 382,199 383,199 383,199 384,199 384,199 385,199 385,199 386,199 386,199 386,199 387,199 387,199 388,199 388,199 389,199 389,199 390,199 390,199 391,199 391,199 392,199 392,199 393,199 393,199 394,199 394,199 395,199 395,199 395,199 396,199 396,199 397,199 397,199 398,199 398,199 399,199 399,199 400,199 400,199 401,199 401,199 402,199 402,199 403,199 403,199 404,199 404,199 404,199 405,199 405,199 406,199 406,199 407,199 407,199 408,199 408,199 409,199 409,163 410,81 410,199 411,199 411,199 412,199 412,199 413,199 413,199 413,199 414,199 414,199 415,199 415,199 416,199 416,199 417,199 417,199 418,199 418,199 419,293 419,257 420,199 420,199 421,199 421,199 422,199 422,199 422,199 423,199 423,199 424,199 424,199 425,199 425,199 426,199 426,199 427,199 427,199 428,199 428,199 429,199 429,199 430,199 430,199 431,199 431,199 432,199 432,199 432,199 433,199 433,199 434,199 434,199 435,199 435,199 436,199 436,199 437,199 437,199 438,199 438,199 439,199 439,199 440,199 440,199 441,87 441,162 441,199 442,199 442,199 443,199 443,199 444,199 444,199 445,199 445,199 446,199 446,199 447,199 447,199 448,199 448,199 449,199 449,199 450,216 450,336 450,199 451,199 451,199 452,199 452,199 453,199 453,199 454,199 454,199 455,199 455,199 456,199 456,199 457,199 457,199 458,199 458,199 459,199 459,199 459,199 460,199 460,199 461,199 461,199 462,199 462,199 463,199 463,199 464,199 464,199 465,199 465,199 466,199 466,199 467,199 467,199 468,199 468,199 468,199 469,199 469,199 470,199 470,199 471,199 471,162 472,85 472,199 473,199 473,199 474,199 474,199 475,199 475,216 476,337 476,199 477,199 477,199 477,199 478,199 478,199 479,199 479,199 480,199 480,199 481,199 481,199 482,199 482,199 483,199 483,199 484,199 484,199 485,199 485,199 486,199 486,199 486,199 487,199 487,199 488,199 488,199 489,199 489,199 490,199 490,199 491,199 491,199 492,199 492,199 493,199 493,199 494,199 494,199 495,199 495,199 495,199 496,199 496,199 497,199 497,199 498,199 498,199 499,199 499,199 500,199 500,199 501,199 501,199 502,199 502,199 503,199 503,199 504,199 504,199 504,199 505,199 505,199 506,199 506,199 507,199 507,199 508,199 508,199 509,199 509,199 510,199 510,199 511,199 511,199 512,199 512,199 513,199 513,199 513,199 514,199 514,311 515,236 515,199 516,199 516,199 517,199 517,200 518,199 518,104 519,142 519,199 520,199 520,199 521,199 521,199 522,199 522,199 523,199 523,199 523,199 524,199 524,199 525,199 525,199 526,199 526,199 527,199 527,199 528,199 528,199 529,199 529,199 530,199 530,199 531,199 531,199 532,199 532,199 532,199 533,199 533,199 534,199 534,199 535,199 535,199 536,199 536,199 537,199 537,199 538,199 538,199 539,199 539,199 540,199 540,199 541,199 541,199 541,199 542,199 542,199 543,199 543,199 544,199 544,199 545,199 545,199 546,199 546,199 547,199 547,199 548,199 548,199 549,199 549,199 550,199 550,199 550,199 551,199 551,199 552,199 552,199 553,199 553,199 554,199 554,199 555,199 555,199 556,199 556,199 557,199 557,199 558,340 558,199 559,199 559,199 559,199 560,199 560,199 561,199 561,199 562,199 562,199 563,199 563,199 564,199 564,199 565,199 565,199 566,199 566,199 567,145 567,105 568,199 568,199 568,199 569,199 569,199 570,199 570,199 571,199 571,199 572,199 572,199 573,199 573,199 574,199 574,199 575,199 575,199 576,199 576,199 577,199 577,199 577,199 578,199 578,199 579,199 579,199 580,199 580,199 581,199 581,199 582,199 582,199 583,199 583,199 584,199 584,199 585,199 585,199 586,199 586,199 586,199 587,199 587,199 588,199 588,278 589,273 589,199 590,199 590,199 591,199 591,199 592,199 592,199 593,199 593,199 594,199 594,199 595,199 595,199 595,199 596,199 596,199 597,199 597,199 598,66 598,177 599,199 599,199 600,199 600,199 601,199 601,199 602,199 602,199 603,199 603,199 604,199 604,199 605,199 605,199 605,199 606,199 606,199 607,199 607,199 608,199 608,199 609,199 609,199 610,199 610,199 611,199 611,199 612,199 612,199 613,199 613,199 614,199 614,199 614,199 615,199 615,199 616,199 616,199 617,199 617,199 618,199 618,199 619,199 619,237 620,312 620,199 621,199 621,199 622,199 622,199 623,199 623,182 623,71 624,199 624,199 625,199 625,199 626,199 626,199 627,199 627,199 628,199 628,199 629,199 629,199 630,199 630,199 631,199 631,199 632,199 632,199 632,199 633,199 633,199 634,199 634,199 635,199 635,199 636,199 636,199 637,199 637,199 638,199 638,199 639,199 639,199 640,199 640,199 641,199 641,199 641,199 642,199 642,199 643,199 643,199 644,199 644,199 645,199 645,199 646,199 646,199 647,199 647,199 648,199 648,199 649,199 649,199 650,199 650,199 650,199 651,199 651,199 652,199 652,199 653,199 653,199 654,199 654,199 655,199 655,199 656,199 656,199 657,199 657,199 658,199 658,199 659,199 659,199 659,199 660,199 660,199 661,199 661,199 662,199 662,123 663,125 663,199 664,199 664,199 665,199 665,199 666,199 666,255 667,293 667,199 668,199 668,199 668,199 669,199 669,199 670,199 670,199 671,199 671,199 672,199 672,199 673,199 673,199 674,199 674,199 675,199 675,199 676,199 676,199 677,199 677,199 678,199 678,199 678,199 679,199 679,199 680,199 680,199 681,199 681,199 682,199 682,199 683,199 683,199 684,199 684,199 685,199 685,199 686,199 686,199 687,199 687,199 687,199 688,199 688,199 689,199 689,199 690,199 690,199 691,199 691,199 692,199 692,199 693,199 693,199 694,199 694,199 695,199 695,199 696,199 696,199 696,199 697,199 697,199 698,199 698,199 699,199 699,199 700,199 700,199 701,199 701,199 702,199 702,199 703,199 703,199 704,199 704,199 705,199 705,199 705,40 706,199 706,199 707,199 707,199 708,199 708,199 709,199 709,199 710,199 710,199 711,199 711,200 712,199 712,199 713,199 713,199 714,199 714,199 714,250 715,304 715,199 716,199 716,199 717,199 717,199 718,199 718,199 719,199 719,199 720,199 720,199 721,199 721,199 722,199 722,199 723,199 723,199 723,199 724,199 724,199 725,199 725,199 726,199 726,199 727,199 727,199 728,199 728,199 729,199 729,199 730,199 730,199 731,199 731,199 732,199 732,199 732,199 733,199 733,199 734,199 734,199 735,199 735,199 736,199 736,199 737,199 737,199 738,199 738,199 739,199 739,199 740,199 740,199 741,199 741,199 741,199 742,199 742,199 743,199 743,199 744,199 744,199 745,199 745,199 746,199 746,199 747,199 747,199 748,199 748,199 749,199 749,199 750,199 750,199 750,199 751,199 751,199 752,199 752,199 753,199 753,199 754,199 754,199 755,199 755,199 756,199 756,199 757,199 757,199 758,199 758,199 759,199 759,199 760,199" stroke="#377eb8" fill="none" stroke-width="1.5" opacity="0.85"/><polyline points="40,199 40,199 40,199 41,199 41,199 42,199 42,199 43,199 43,199 44,199 44,199 45,199 45,199 46,199 46,199 47,199 47,199 48,199 48,199 49,199 49,199 49,199 50,199 50,199 51,199 51,199 52,199 52,199 53,199 53,199 54,199 54,199 55,199 55,199 56,199 56,199 57,199 57,199 58,199 58,199 58,199 59,199 59,199 60,199 60,199 61,199 61,199 62,199 62,199 63,199 63,199 64,199 64,199 65,199 65,199 66,199 66,199 67,199 67,199 67,199 68,199 68,199 69,199 69,199 70,199 70,199 71,199 71,199 72,199 72,199 73,199 73,199 74,199 74,199 75,199 75,199 76,199 76,199 76,199 77,199 77,199 78,199 78,199 79,199 79,199 80,199 80,199 81,199 81,199 82,199 82,199 83,199 83,199 84,199 84,199 85,199 85,199 85,199 86,199 86,199 87,199 87,47 88,199 88,199 89,199 89,199 90,199 90,199 91,199 91,199 92,199 92,199 93,199 93,199 94,332 94,213 94,199 95,199 95,199 96,199 96,199 97,199 97,199 98,199 98,199 99,199 99,199 100,199 100,199 101,199 101,199 102,199 102,199 103,199 103,199 103,199 104,199 104,199 105,199 105,199 106,199 106,199 107,199 107,199 108,199 108,199 109,199 109,199 110,199 110,199 111,199 111,199 112,199 112,199 112,199 113,199 113,199 114,199 114,199 115,199 115,199 116,199 116,199 117,199 117,199 118,199 118,199 119,199 119,199 120,199 120,199 121,199 121,199 122,199 122,199 122,199 123,199 123,199 124,199 124,199 125,199 125,199 126,199 126,199 127,199 127,199 128,199 128,199 129,199 129,199 130,199 130,199 131,199 131,199 131,199 132,199 132,199 133,199 133,199 134,199 134,199 135,199 135,199 136,199 136,199 137,199 137,199 138,199 138,199 139,199 139,199 140,199 140,199 140,199 141,199 141,199 142,199 142,199 143,199 143,309 144,238 144,199 145,199 145,199 146,199 146,199 147,199 147,199 148,199 148,199 149,199 149,199 149,100 150,149 150,199 151,199 151,199 152,199 152,199 153,199 153,199 154,199 154,199 155,199 155,199 156,199 156,199 157,199 157,199 158,199 158,199 158,199 159,199 159,199 160,199 160,199 161,199 161,199 162,199 162,199 163,199 163,199 164,199 164,199 165,199 165,199 166,199 166,199 167,199 167,199 167,199 168,199 168,199 169,199 169,199 170,199 170,199 171,199 171,199 172,199 172,199 173,199 173,199 174,199 174,237 175,311 175,199 176,199 176,199 176,199 177,199 177,199 178,199 178,199 179,199 179,199 180,199 180,176 181,71 181,199 182,199 182,199 183,199 183,199 184,199 184,199 185,199 185,199 186,199 186,199 186,199 187,199 187,199 188,199 188,199 189,199 189,199 190,199 190,199 191,199 191,199 192,199 192,199 193,199 193,199 194,199 194,199 195,199 195,199 195,199 196,199 196,199 197,199 197,199 198,199 198,199 199,199 199,199 200,199 200,199 201,199 201,199 202,199 202,199 203,199 203,199 204,199 204,199 204,199 205,199 205,199 206,199 206,199 207,199 207,199 208,199 208,199 209,199 209,199 210,199 210,199 211,199 211,199 212,199 212,199 213,199 213,199 213,199 214,199 214,199 215,199 215,199 216,199 216,199 217,199 217,276 218,276 218,199 219,199 219,199 220,188 220,63 221,199 221,199 222,199 222,199 222,199 223,199 223,199 224,199 224,199 225,199 225,199 226,199 226,199 227,199 227,199 228,199 228,199 229,199 229,199 230,199 230,199 231,199 231,199 231,199 232,199 232,199 233,199 233,199 234,199 234,199 235,199 235,199 236,199 236,199 237,199 237,199 238,199 238,199 239,199 239,199 240,199 240,199 240,199 241,199 241,199 242,199 242,199 243,199 243,199 244,199 244,199 245,199 245,199 246,199 246,199 247,199 247,199 248,199 248,199 249,199 249,199 249,199 250,199 250,199 251,199 251,199 252,199 252,199 253,199 253,199 254,199 254,199 255,199 255,199 256,199 256,199 257,199 257,199 258,199 258,199 258,199 259,199 259,199 260,199 260,199 261,199 261,127 262,123 262,199 263,199 263,199 264,211 264,335 265,199 265,199 266,199 266,199 267,199 267,199 268,199 268,199 268,199 269,199 269,199 270,199 270,199 271,199 271,199 272,199 272,199 273,199 273,199 274,199 274,199 275,199 275,199 276,199 276,199 277,199 277,199 277,199 278,199 278,199 279,199 279,199 280,199 280,199 281,199 281,199 282,199 282,199 283,199 283,199 284,199 284,199 285,199 285,199 286,199 286,199 286,199 287,199 287,199 288,199 288,199 289,199 289,199 290,199 290,199 291,199 291,199 292,199 292,199 293,46 293,199 294,199 294,199 295,199 295,199 295,199 296,199 296,199 297,199 297,199 298,199 298,199 299,337 299,213 300,199 300,199 301,199 301,199 302,199 302,199 303,199 303,199 304,199 304,199 304,199 305,199 305,199 306,199 306,199 307,199 307,199 308,199 308,199 309,199 309,199 310,199 310,199 311,199 311,199 312,199 312,199 313,199 313,199 313,199 314,199 314,199 315,199 315,199 316,199 316,199 317,199 317,199 318,199 318,199 319,199 319,199 320,199 320,199 321,199 321,199 322,199 322,199 322,199 323,199 323,127 324,124 324,199 325,199 325,199 326,199 326,199 327,199 327,199 328,199 328,199 329,199 329,199 330,261 330,291 331,199 331,199 331,199 332,199 332,199 333,199 333,199 334,199 334,199 335,199 335,199 336,199 336,199 337,199 337,199 338,199 338,199 339,199 339,199 340,199 340,199 340,199 341,199 341,199 342,199 342,199 343,199 343,199 344,199 344,199 345,199 345,199 346,199 346,199 347,199 347,199 348,199 348,199 349,199 349,199 349,199 350,199 350,199 351,199 351,199 352,199 352,199 353,199 353,199 354,199 354,199 355,199 355,199 356,199 356,199 357,199 357,199 358,199 358,199 359,199 359,199 359,199 360,199 360,199 361,199 361,199 362,199 362,199 363,199 363,199 364,199 364,199 365,199 365,199 366,199 366,199 367,84 367,161 368,199 368,199 368,199 369,248 369,303 370,199 370,199 371,199 371,199 372,199 372,199 373,199 373,199 374,199 374,199 375,199 375,199 376,199 376,199 377,199 377,199 377,199 378,199 378,199 379,199 379,199 380,199 380,199 381,199 381,199 382,199 382,199 383,199 383,199 384,199 384,199 385,199 385,199 386,199 386,199 386,199 387,199 387,199 388,199 388,199 389,199 389,199 390,199 390,199 391,199 391,199 392,199 392,199 393,199 393,199 394,199 394,199 395,199 395,199 395,199 396,199 396,199 397,199 397,199 398,199 398,199 399,199 399,199 400,199 400,199 401,199 401,199 402,199 402,199 403,199 403,199 404,199 404,199 404,199 405,199 405,199 406,199 406,199 407,199 407,199 408,199 408,199 409,199 409,236 410,318 410,199 411,199 411,199 412,199 412,74 413,174 413,199 413,199 414,199 414,199 415,199 415,199 416,199 416,199 417,199 417,199 418,199 418,199 419,199 419,199 420,199 420,199 421,199 421,199 422,199 422,199 422,199 423,199 423,199 424,199 424,199 425,199 425,199 426,199 426,199 427,199 427,199 428,199 428,199 429,199 429,199 430,199 430,199 431,199 431,199 432,199 432,199 432,199 433,199 433,199 434,199 434,199 435,199 435,199 436,199 436,199 437,199 437,199 438,199 438,199 439,199 439,199 440,199 440,199 441,312 441,237 441,199 442,199 442,199 443,199 443,199 444,199 444,199 445,199 445,199 446,199 446,199 447,99 447,148 448,199 448,199 449,199 449,199 450,199 450,199 450,199 451,199 451,199 452,199 452,199 453,199 453,199 454,199 454,199 455,199 455,199 456,199 456,199 457,199 457,199 458,199 458,199 459,199 459,199 459,199 460,199 460,199 461,199 461,199 462,199 462,199 463,199 463,199 464,199 464,199 465,199 465,199 466,199 466,199 467,199 467,199 468,199 468,199 468,199 469,199 469,199 470,199 470,199 471,199 471,237 472,314 472,199 473,199 473,199 474,199 474,199 475,199 475,199 476,199 476,199 477,199 477,199 477,175 478,76 478,199 479,199 479,199 480,199 480,199 481,199 481,199 482,199 482,199 483,199 483,199 484,199 484,199 485,199 485,199 486,199 486,199 486,199 487,199 487,199 488,199 488,199 489,199 489,199 490,199 490,199 491,199 491,199 492,199 492,199 493,199 493,199 494,199 494,199 495,199 495,199 495,199 496,199 496,199 497,199 497,199 498,199 498,199 499,199 499,199 500,199 500,199 501,199 501,199 502,199 502,199 503,199 503,199 504,199 504,199 504,199 505,199 505,199 506,199 506,199 507,199 507,199 508,199 508,199 509,199 509,199 510,199 510,199 511,199 511,199 512,199 512,199 513,199 513,199 513,199 514,199 514,311 515,236 515,199 516,199 516,199 517,152 517,96 518,199 518,199 519,199 519,199 520,199 520,199 521,199 521,199 522,199 522,199 523,199 523,199 523,199 524,199 524,199 525,199 525,199 526,199 526,199 527,199 527,199 528,199 528,199 529,199 529,199 530,199 530,199 531,199 531,199 532,199 532,199 532,199 533,199 533,199 534,199 534,199 535,199 535,199 536,199 536,199 537,199 537,199 538,199 538,199 539,199 539,199 540,199 540,199 541,199 541,199 541,199 542,199 542,199 543,199 543,199 544,199 544,199 545,199 545,199 546,199 546,199 547,199 547,199 548,199 548,199 549,199 549,199 550,199 550,199 550,199 551,199 551,199 552,199 552,199 553,199 553,199 554,199 554,199 555,199 555,199 556,199 556,199 557,199 557,199 558,59 558,199 559,199 559,199 559,199 560,287 560,264 561,199 561,199 562,199 562,199 563,199 563,199 564,199 564,199 565,199 565,199 566,199 566,199 567,199 567,199 568,199 568,199 568,199 569,199 569,199 570,199 570,199 571,199 571,199 572,199 572,199 573,199 573,199 574,199 574,199 575,199 575,199 576,199 576,199 577,199 577,199 577,199 578,199 578,199 579,199 579,199 580,199 580,199 581,199 581,199 582,199 582,199 583,199 583,199 584,199 584,199 585,199 585,199 586,199 586,199 586,199 587,199 587,199 588,199 588,121 589,126 589,199 590,199 590,199 591,199 591,199 592,199 592,199 593,199 593,199 594,199 594,199 595,256 595,288 595,199 596,199 596,199 597,199 597,199 598,199 598,199 599,199 599,199 600,199 600,199 601,199 601,199 602,199 602,199 603,199 603,199 604,199 604,199 605,199 605,199 605,199 606,199 606,199 607,199 607,199 608,199 608,199 609,199 609,199 610,199 610,199 611,199 611,199 612,199 612,199 613,199 613,199 614,199 614,199 614,199 615,199 615,199 616,199 616,199 617,199 617,199 618,199 618,199 619,199 619,162 620,87 620,199 621,199 621,199 622,199 622,199 623,199 623,199 623,199 624,199 624,199 625,199 625,222 626,330 626,199 627,199 627,199 628,199 628,199 629,199 629,199 630,199 630,199 631,199 631,199 632,199 632,199 632,199 633,199 633,199 634,199 634,199 635,199 635,199 636,199 636,199 637,199 637,199 638,199 638,199 639,199 639,199 640,199 640,199 641,199 641,199 641,199 642,199 642,199 643,199 643,199 644,199 644,199 645,199 645,199 646,199 646,199 647,199 647,199 648,199 648,199 649,199 649,199 650,199 650,199 650,199 651,199 651,199 652,199 652,199 653,199 653,199 654,199 654,199 655,199 655,199 656,199 656,199 657,199 657,199 658,199 658,199 659,199 659,199 659,199 660,199 660,199 661,199 661,199 662,199 662,123 663,125 663,200 664,199 664,199 665,212 665,330 666,199 666,199 667,199 667,199 668,199 668,199 668,199 669,199 669,199 670,199 670,199 671,199 671,199 672,199 672,199 673,199 673,199 674,199 674,199 675,199 675,199 676,199 676,199 677,199 677,199 678,199 678,199 678,199 679,199 679,199 680,199 680,199 681,199 681,199 682,199 682,199 683,199 683,199 684,199 684,199 685,199 685,199 686,199 686,199 687,199 687,199 687,199 688,199 688,199 689,199 689,199 690,199 690,199 691,199 691,199 692,199 692,199 693,199 693,199 694,199 694,199 695,199 695,199 696,199 696,199 696,199 697,199 697,199 698,199 698,199 699,199 699,199 700,199 700,199 701,199 701,199 702,199 702,199 703,199 703,199 704,199 704,199 705,199 705,199 705,359 706,199 706,199 707,199 707,199 708,199 708,199 709,199 709,199 710,199 710,199 711,199 711,199 712,199 712,199 713,199 713,199 714,199 714,124 714,126 715,199 715,199 716,199 716,199 717,199 717,199 718,199 718,199 719,199 719,199 720,199 720,199 721,199 721,199 722,199 722,199 723,199 723,199 723,199 724,199 724,199 725,199 725,199 726,199 726,199 727,199 727,199 728,199 728,199 729,199 729,199 730,199 730,199 731,199 731,199 732,199 732,199 732,199 733,199 733,199 734,199 734,199 735,199 735,199 736,199 736,199 737,199 737,199 738,199 738,199 739,199 739,199 740,199 740,199 741,199 741,199 741,199 742,199 742,199 743,199 743,199 744,199 744,199 745,199 745,199 746,199 746,199 747,199 747,199 748,199 748,199 749,199 749,199 750,199 750,199 750,199 751,199 751,199 752,199 752,199 753,199 753,199 754,199 754,199 755,199 755,199 756,199 756,199 757,199 757,199 758,199 758,199 759,199 759,199 760,199" stroke="#4daf4a" fill="none" stroke-width="1.5" opacity="0.85"/><polyline points="40,199 40,199 40,199 41,199 41,199 42,199 42,199 43,199 43,199 44,199 44,199 45,199 45,199 46,199 46,199 47,199 47,199 48,199 48,199 49,199 49,199 49,199 50,199 50,199 51,199 51,199 52,199 52,199 53,199 53,199 54,199 54,199 55,199 55,199 56,199 56,199 57,199 57,199 58,199 58,199 58,199 59,199 59,199 60,199 60,199 61,199 61,199 62,199 62,199 63,199 63,199 64,199 64,199 65,199 65,199 66,199 66,199 67,199 67,199 67,199 68,199 68,199 69,199 69,199 70,199 70,199 71,199 71,199 72,199 72,199 73,199 73,199 74,199 74,199 75,199 75,199 76,199 76,199 76,199 77,199 77,199 78,199 78,199 79,199 79,199 80,199 80,199 81,199 81,199 82,199 82,199 83,199 83,199 84,199 84,199 85,199 85,199 85,199 86,199 86,199 87,199 87,199 88,199 88,199 89,199 89,199 90,199 90,199 91,199 91,199 92,199 92,199 93,199 93,199 94,199 94,199 94,199 95,199 95,199 96,199 96,199 97,199 97,199 98,199 98,199 99,199 99,199 100,199 100,199 101,199 101,199 102,199 102,199 103,199 103,199 103,199 104,199 104,199 105,199 105,199 106,199 106,199 107,199 107,199 108,199 108,199 109,199 109,199 110,199 110,199 111,199 111,199 112,199 112,199 112,199 113,199 113,199 114,199 114,199 115,199 115,199 116,199 116,199 117,199 117,199 118,199 118,199 119,199 119,199 120,199 120,199 121,199 121,199 122,199 122,199 122,199 123,199 123,199 124,199 124,199 125,199 125,199 126,199 126,199 127,199 127,199 128,199 128,199 129,199 129,199 130,199 130,199 131,199 131,199 131,199 132,199 132,199 133,199 133,199 134,199 134,199 135,199 135,199 136,199 136,199 137,199 137,199 138,199 138,199 139,199 139,199 140,199 140,199 140,199 141,199 141,199 142,199 142,199 143,199 143,90 144,161 144,199 145,199 145,199 146,199 146,199 147,199 147,199 148,199 148,199 149,199 149,199 149,199 150,199 150,199 151,199 151,199 152,199 152,199 153,199 153,199 154,199 154,199 155,199 155,199 156,283 156,267 157,199 157,199 158,199 158,199 158,199 159,199 159,199 160,199 160,199 161,199 161,199 162,199 162,199 163,199 163,199 164,199 164,199 165,199 165,199 166,199 166,199 167,199 167,199 167,199 168,199 168,199 169,199 169,199 170,199 170,199 171,199 171,199 172,199 172,199 173,199 173,199 174,199 174,162 175,88 175,199 176,199 176,200 176,199 177,200 177,199 178,200 178,199 179,200 179,260 180,292 180,199 181,199 181,199 182,199 182,199 183,199 183,199 184,199 184,199 185,199 185,199 186,199 186,199 186,199 187,199 187,199 188,199 188,199 189,199 189,199 190,199 190,199 191,199 191,199 192,199 192,199 193,199 193,199 194,199 194,199 195,199 195,199 195,199 196,199 196,199 197,199 197,199 198,199 198,199 199,199 199,199 200,199 200,199 201,199 201,199 202,199 202,199 203,199 203,199 204,199 204,199 204,199 205,199 205,199 206,199 206,199 207,199 207,199 208,199 208,199 209,199 209,199 210,199 210,199 211,199 211,199 212,199 212,199 213,199 213,199 213,199 214,199 214,199 215,199 215,199 216,199 216,199 217,199 217,276 218,276 218,200 219,199 219,200 220,199 220,200 221,199 221,199 222,199 222,199 222,100 223,146 223,199 224,199 224,199 225,199 225,199 226,199 226,199 227,199 227,199 228,199 228,199 229,199 229,199 230,199 230,199 231,199 231,199 231,199 232,199 232,199 233,199 233,199 234,199 234,199 235,199 235,199 236,199 236,199 237,199 237,199 238,199 238,199 239,199 239,199 240,199 240,199 240,199 241,199 241,199 242,199 242,199 243,199 243,199 244,199 244,199 245,199 245,199 246,199 246,199 247,199 247,199 248,199 248,199 249,199 249,199 249,199 250,199 250,199 251,199 251,199 252,199 252,199 253,199 253,199 254,199 254,199 255,199 255,199 256,199 256,199 257,199 257,199 258,199 258,199 258,199 259,199 259,199 260,199 260,199 261,199 261,272 262,276 262,199 263,199 263,199 264,199 264,199 265,199 265,199 266,199 266,199 267,199 267,199 268,199 268,199 268,199 269,199 269,199 270,199 270,199 271,199 271,199 272,199 272,199 273,199 273,199 274,153 274,95 275,199 275,199 276,199 276,199 277,199 277,199 277,199 278,199 278,199 279,199 279,199 280,199 280,199 281,199 281,199 282,199 282,199 283,199 283,199 284,199 284,199 285,199 285,199 286,199 286,199 286,199 287,199 287,199 288,199 288,199 289,199 289,199 290,199 290,199 291,199 291,199 292,199 292,199 293,353 293,199 294,199 294,199 295,199 295,199 295,199 296,199 296,199 297,199 297,199 298,199 298,199 299,199 299,199 300,199 300,199 301,199 301,199 302,199 302,199 303,199 303,199 304,199 304,199 304,199 305,73 305,171 306,199 306,199 307,199 307,199 308,199 308,199 309,199 309,199 310,199 310,199 311,199 311,199 312,199 312,199 313,199 313,199 313,199 314,199 314,199 315,199 315,199 316,199 316,199 317,199 317,199 318,199 318,199 319,199 319,199 320,199 320,199 321,199 321,199 322,199 322,199 322,199 323,199 323,272 324,275 324,199 325,200 325,199 326,200 326,199 327,200 327,199 328,200 328,199 329,101 329,147 330,199 330,199 331,199 331,199 331,199 332,199 332,199 333,199 333,199 334,199 334,199 335,199 335,199 336,199 336,199 337,199 337,199 338,199 338,199 339,199 339,199 340,199 340,199 340,199 341,199 341,199 342,199 342,199 343,199 343,199 344,199 344,199 345,199 345,199 346,199 346,199 347,199 347,199 348,199 348,199 349,199 349,199 349,199 350,199 350,199 351,199 351,199 352,199 352,199 353,199 353,199 354,199 354,199 355,199 355,199 356,199 356,199 357,199 357,199 358,199 358,199 359,199 359,199 359,199 360,199 360,199 361,199 361,199 362,199 362,199 363,199 363,199 364,199 364,199 365,199 365,199 366,199 366,199 367,84 367,161 368,199 368,200 368,199 369,200 369,199 370,200 370,199 371,199 371,199 372,330 372,215 373,199 373,199 374,199 374,199 375,199 375,199 376,199 376,199 377,199 377,199 377,199 378,199 378,199 379,199 379,199 380,199 380,199 381,199 381,199 382,199 382,199 383,199 383,199 384,199 384,199 385,199 385,199 386,199 386,199 386,199 387,199 387,199 388,199 388,199 389,199 389,199 390,199 390,199 391,199 391,199 392,199 392,199 393,199 393,199 394,199 394,199 395,199 395,199 395,199 396,199 396,199 397,199 397,199 398,199 398,199 399,199 399,199 400,199 400,199 401,199 401,199 402,199 402,199 403,199 403,199 404,199 404,199 404,199 405,199 405,199 406,199 406,199 407,199 407,199 408,199 408,199 409,199 409,163 410,81 410,199 411,199 411,199 412,199 412,199 413,199 413,199 413,199 414,199 414,200 415,199 415,199 416,199 416,199 417,199 417,199 418,199 418,199 419,199 419,199 420,199 420,199 421,199 421,199 422,209 422,343 422,199 423,199 423,199 424,199 424,199 425,199 425,199 426,199 426,199 427,199 427,199 428,199 428,199 429,199 429,199 430,199 430,199 431,199 431,199 432,199 432,199 432,199 433,199 433,199 434,199 434,199 435,199 435,199 436,199 436,199 437,199 437,199 438,199 438,199 439,199 439,199 440,199 440,199 441,87 441,162 441,199 442,199 442,199 443,199 443,199 444,199 444,199 445,199 445,199 446,199 446,199 447,199 447,199 448,199 448,199 449,199 449,199 450,199 450,199 450,199 451,199 451,199 452,199 452,199 453,284 453,264 454,199 454,199 455,199 455,199 456,199 456,199 457,199 457,199 458,199 458,199 459,199 459,199 459,199 460,199 460,199 461,199 461,199 462,199 462,199 463,199 463,199 464,199 464,199 465,199 465,199 466,199 466,199 467,199 467,199 468,199 468,199 468,199 469,199 469,199 470,199 470,199 471,199 471,162 472,85 472,199 473,199 473,200 474,199 474,200 475,199 475,200 476,199 476,200 477,255 477,288 477,199 478,199 478,199 479,199 479,199 480,199 480,199 481,199 481,199 482,199 482,199 483,199 483,199 484,199 484,199 485,199 485,199 486,199 486,199 486,199 487,199 487,199 488,199 488,199 489,199 489,199 490,199 490,199 491,199 491,199 492,199 492,199 493,199 493,199 494,199 494,199 495,199 495,199 495,199 496,199 496,199 497,199 497,199 498,199 498,199 499,199 499,199 500,199 500,199 501,199 501,199 502,199 502,199 503,199 503,199 504,199 504,199 504,199 505,199 505,199 506,199 506,199 507,199 507,199 508,199 508,199 509,199 509,199 510,199 510,199 511,199 511,199 512,199 512,199 513,199 513,199 513,199 514,199 514,311 515,236 515,200 516,199 516,200 517,199 517,200 518,199 518,199 519,199 519,199 520,74 520,185 521,199 521,199 522,199 522,199 523,199 523,199 523,199 524,199 524,199 525,199 525,199 526,199 526,199 527,199 527,199 528,199 528,199 529,199 529,199 530,199 530,199 531,199 531,199 532,199 532,199 532,199 533,199 533,199 534,199 534,199 535,199 535,199 536,199 536,199 537,199 537,199 538,199 538,199 539,199 539,199 540,199 540,199 541,199 541,199 541,199 542,199 542,199 543,199 543,199 544,199 544,199 545,199 545,199 546,199 546,199 547,199 547,199 548,199 548,199 549,199 549,199 550,199 550,199 550,199 551,199 551,199 552,199 552,199 553,199 553,199 554,199 554,199 555,199 555,199 556,199 556,199 557,199 557,199 558,340 558,199 559,199 559,200 559,199 560,199 560,199 561,199 561,199 562,199 562,199 563,199 563,199 564,199 564,199 565,199 565,199 566,199 566,199 567,199 567,199 568,199 568,199 568,199 569,199 569,199 570,66 570,173 571,199 571,199 572,199 572,199 573,199 573,199 574,199 574,199 575,199 575,199 576,199 576,199 577,199 577,199 577,199 578,199 578,199 579,199 579,199 580,199 580,199 581,199 581,199 582,199 582,199 583,199 583,199 584,199 584,199 585,199 585,199 586,199 586,199 586,199 587,199 587,199 588,199 588,278 589,273 589,199 590,199 590,199 591,199 591,199 592,199 592,199 593,199 593,199 594,199 594,199 595,199 595,199 595,199 596,199 596,199 597,199 597,199 598,199 598,199 599,199 599,199 600,199 600,200 601,150 601,104 602,199 602,199 603,199 603,199 604,199 604,199 605,199 605,199 605,199 606,199 606,199 607,199 607,199 608,199 608,199 609,199 609,199 610,199 610,199 611,199 611,199 612,199 612,199 613,199 613,199 614,199 614,199 614,199 615,199 615,199 616,199 616,199 617,199 617,199 618,199 618,199 619,199 619,237 620,312 620,199 621,200 621,199 622,200 622,199 623,200 623,199 623,200 624,199 624,140 625,110 625,199 626,199 626,199 627,199 627,199 628,199 628,199 629,199 629,199 630,199 630,199 631,199 631,199 632,199 632,199 632,199 633,199 633,199 634,199 634,199 635,199 635,199 636,199 636,199 637,199 637,199 638,199 638,199 639,199 639,199 640,199 640,199 641,199 641,199 641,199 642,199 642,199 643,199 643,199 644,199 644,199 645,199 645,199 646,199 646,199 647,199 647,199 648,199 648,199 649,199 649,199 650,199 650,199 650,199 651,199 651,199 652,199 652,199 653,199 653,199 654,199 654,199 655,199 655,199 656,199 656,199 657,199 657,199 658,199 658,199 659,199 659,199 659,199 660,199 660,199 661,199 661,199 662,199 662,123 663,125 663,199 664,200 664,199 665,200 665,199 666,200 666,199 667,199 667,199 668,299 668,248 668,199 669,199 669,199 670,199 670,199 671,199 671,199 672,199 672,199 673,199 673,199 674,199 674,199 675,199 675,199 676,199 676,199 677,199 677,199 678,199 678,199 678,199 679,199 679,199 680,199 680,199 681,199 681,199 682,199 682,199 683,199 683,199 684,199 684,199 685,199 685,199 686,199 686,199 687,199 687,199 687,199 688,199 688,199 689,199 689,199 690,199 690,199 691,199 691,199 692,199 692,199 693,199 693,199 694,199 694,199 695,199 695,199 696,199 696,199 696,199 697,199 697,199 698,199 698,199 699,199 699,199 700,199 700,199 701,199 701,199 702,199 702,199 703,199 703,199 704,199 704,199 705,199 705,199 705,40 706,199 706,199 707,199 707,200 708,199 708,199 709,199 709,199 710,199 710,199 711,199 711,199 712,199 712,199 713,199 713,199 714,199 714,199 714,199 715,199 715,199 716,199 716,199 717,199 717,199 718,309 718,232 719,199 719,199 720,199 720,199 721,199 721,199 722,199 722,199 723,199 723,199 723,199 724,199 724,199 725,199 725,199 726,199 726,199 727,199 727,199 728,199 728,199 729,199 729,199 730,199 730,199 731,199 731,199 732,199 732,199 732,199 733,199 733,199 734,199 734,199 735,199 735,199 736,199 736,199 737,199 737,199 738,199 738,199 739,199 739,199 740,199 740,199 741,199 741,199 741,199 742,199 742,199 743,199 743,199 744,199 744,199 745,199 745,199 746,199 746,199 747,199 747,199 748,199 748,199 749,199 749,199 750,199 750,199 750,199 751,199 751,199 752,199 752,199 753,199 753,199 754,199 754,199 755,199 755,199 756,199 756,199 757,199 757,199 758,199 758,199 759,199 759,199 760,199" stroke="#984ea3" fill="none" stroke-width="1.5" opacity="0.85"/><polyline points="40,199 40,199 40,199 41,199 41,199 42,199 42,199 43,199 43,199 44,199 44,199 45,199 45,199 46,199 46,199 47,199 47,199 48,199 48,199 49,199 49,199 49,199 50,199 50,199 51,199 51,199 52,199 52,199 53,199 53,199 54,199 54,199 55,199 55,199 56,199 56,199 57,199 57,199 58,199 58,199 58,199 59,199 59,199 60,199 60,199 61,199 61,199 62,199 62,199 63,199 63,199 64,199 64,199 65,199 65,199 66,199 66,199 67,199 67,199 67,199 68,199 68,199 69,199 69,199 70,199 70,199 71,199 71,199 72,199 72,199 73,199 73,199 74,199 74,199 75,199 75,199 76,199 76,199 76,199 77,199 77,199 78,199 78,199 79,199 79,199 80,199 80,199 81,199 81,199 82,199 82,199 83,199 83,199 84,199 84,199 85,199 85,199 85,199 86,199 86,199 87,199 87,47 88,199 88,199 89,199 89,199 90,199 90,199 91,199 91,199 92,199 92,199 93,199 93,199 94,199 94,199 94,199 95,199 95,199 96,272 96,276 97,199 97,199 98,199 98,199 99,199 99,199 100,199 100,199 101,199 101,199 102,199 102,199 103,199 103,199 103,199 104,199 104,199 105,199 105,199 106,199 106,199 107,199 107,199 108,199 108,199 109,199 109,199 110,199 110,199 111,199 111,199 112,199 112,199 112,199 113,199 113,199 114,199 114,199 115,199 115,199 116,199 116,199 117,199 117,199 118,199 118,199 119,199 119,199 120,199 120,199 121,199 121,199 122,199 122,199 122,199 123,199 123,199 124,199 124,199 125,199 125,199 126,199 126,199 127,199 127,199 128,199 128,199 129,199 129,199 130,199 130,199 131,199 131,199 131,199 132,199 132,199 133,199 133,199 134,199 134,199 135,199 135,199 136,199 136,199 137,199 137,199 138,199 138,199 139,199 139,199 140,199 140,199 140,199 141,199 141,199 142,199 142,199 143,199 143,309 144,238 144,199 145,199 145,199 146,152 146,96 147,199 147,199 148,199 148,199 149,199 149,199 149,199 150,199 150,199 151,199 151,199 152,199 152,199 153,199 153,199 154,199 154,199 155,199 155,199 156,199 156,199 157,199 157,199 158,199 158,199 158,199 159,199 159,199 160,199 160,199 161,199 161,199 162,199 162,199 163,199 163,199 164,199 164,199 165,199 165,199 166,199 166,199 167,199 167,199 167,199 168,199 168,199 169,199 169,199 170,199 170,199 171,199 171,199 172,199 172,199 173,199 173,199 174,199 174,237 175,311 175,199 176,199 176,199 176,199 177,199 177,199 178,199 178,199 179,199 179,199 180,199 180,176 181,71 181,199 182,199 182,199 183,199 183,199 184,199 184,199 185,199 185,199 186,199 186,199 186,199 187,199 187,199 188,199 188,199 189,199 189,199 190,199 190,199 191,199 191,199 192,199 192,199 193,199 193,199 194,199 194,199 195,199 195,199 195,199 196,199 196,199 197,199 197,199 198,199 198,199 199,199 199,199 200,199 200,199 201,199 201,199 202,199 202,199 203,199 203,199 204,199 204,199 204,199 205,199 205,199 206,199 206,199 207,199 207,199 208,199 208,199 209,199 209,199 210,199 210,199 211,199 211,199 212,199 212,199 213,199 213,199 213,199 214,199 214,199 215,199 215,199 216,199 216,199 217,199 217,276 218,276 218,199 219,199 219,199 220,199 220,199 221,199 221,199 222,199 222,199 222,199 223,199 223,140 224,109 224,199 225,199 225,199 226,199 226,199 227,199 227,199 228,199 228,199 229,199 229,199 230,199 230,199 231,199 231,199 231,199 232,199 232,199 233,199 233,199 234,199 234,199 235,199 235,199 236,199 236,199 237,199 237,199 238,199 238,199 239,199 239,199 240,199 240,199 240,199 241,199 241,199 242,199 242,199 243,199 243,199 244,199 244,199 245,199 245,199 246,199 246,199 247,199 247,199 248,199 248,199 249,199 249,199 249,199 250,199 250,199 251,199 251,199 252,199 252,199 253,199 253,199 254,199 254,199 255,199 255,199 256,199 256,199 257,199 257,199 258,199 258,199 258,199 259,199 259,199 260,199 260,199 261,199 261,272 262,276 262,199 263,199 263,199 264,188 264,64 265,199 265,199 266,199 266,199 267,199 267,199 268,199 268,199 268,199 269,199 269,199 270,199 270,199 271,199 271,199 272,199 272,199 273,199 273,199 274,199 274,199 275,199 275,199 276,199 276,199 277,199 277,199 277,199 278,199 278,199 279,199 279,199 280,199 280,199 281,199 281,199 282,199 282,199 283,199 283,199 284,199 284,199 285,199 285,199 286,199 286,199 286,199 287,199 287,199 288,199 288,199 289,199 289,199 290,199 290,199 291,199 291,199 292,199 292,199 293,46 293,199 294,199 294,199 295,199 295,284 295,263 296,199 296,199 297,199 297,199 298,199 298,199 299,199 299,199 300,199 300,199 301,199 301,199 302,199 302,199 303,199 303,199 304,199 304,199 304,199 305,199 305,199 306,199 306,199 307,199 307,199 308,199 308,199 309,199 309,199 310,199 310,199 311,199 311,199 312,199 312,199 313,199 313,199 313,199 314,199 314,199 315,199 315,199 316,199 316,199 317,199 317,199 318,199 318,199 319,199 319,199 320,199 320,199 321,199 321,199 322,199 322,199 322,199 323,199 323,127 324,124 324,199 325,199 325,199 326,199 326,199 327,199 327,199 328,199 328,199 329,199 329,199 330,261 330,291 331,199 331,199 331,199 332,199 332,199 333,199 333,199 334,199 334,199 335,199 335,199 336,199 336,199 337,199 337,199 338,199 338,199 339,199 339,199 340,199 340,199 340,199 341,199 341,199 342,199 342,199 343,199 343,199 344,199 344,199 345,199 345,199 346,199 346,199 347,199 347,199 348,199 348,199 349,199 349,199 349,199 350,199 350,199 351,199 351,199 352,199 352,199 353,199 353,199 354,199 354,199 355,199 355,199 356,199 356,199 357,199 357,199 358,199 358,199 359,199 359,199 359,199 360,199 360,199 361,199 361,199 362,199 362,199 363,199 363,199 364,199 364,199 365,199 365,199 366,199 366,199 367,84 367,161 368,199 368,199 368,199 369,199 369,199 370,199 370,199 371,199 371,199 372,199 372,199 373,297 373,253 374,199 374,199 375,199 375,199 376,199 376,199 377,199 377,199 377,199 378,199 378,199 379,199 379,199 380,199 380,199 381,199 381,199 382,199 382,199 383,199 383,199 384,199 384,199 385,199 385,199 386,199 386,199 386,199 387,199 387,199 388,199 388,199 389,199 389,199 390,199 390,199 391,199 391,199 392,199 392,199 393,199 393,199 394,199 394,199 395,199 395,199 395,199 396,199 396,199 397,199 397,199 398,199 398,199 399,199 399,199 400,199 400,199 401,199 401,199 402,199 402,199 403,199 403,199 404,199 404,199 404,199 405,199 405,199 406,199 406,199 407,199 407,199 408,199 408,199 409,199 409,163 410,81 410,199 411,199 411,199 412,199 412,325 413,225 413,199 413,199 414,199 414,199 415,199 415,199 416,199 416,199 417,199 417,199 418,199 418,199 419,199 419,199 420,199 420,199 421,199 421,199 422,199 422,199 422,199 423,199 423,199 424,199 424,199 425,199 425,199 426,199 426,199 427,199 427,199 428,199 428,199 429,199 429,199 430,199 430,199 431,199 431,199 432,199 432,199 432,199 433,199 433,199 434,199 434,199 435,199 435,199 436,199 436,199 437,199 437,199 438,199 438,199 439,199 439,199 440,199 440,199 441,312 441,237 441,199 442,199 442,199 443,151 443,100 444,199 444,199 445,199 445,199 446,199 446,199 447,199 447,199 448,199 448,199 449,199 449,199 450,199 450,199 450,199 451,199 451,199 452,199 452,199 453,199 453,199 454,199 454,199 455,199 455,199 456,199 456,199 457,199 457,199 458,199 458,199 459,199 459,199 459,199 460,199 460,199 461,199 461,199 462,199 462,199 463,199 463,199 464,199 464,199 465,199 465,199 466,199 466,199 467,199 467,199 468,199 468,199 468,199 469,199 469,199 470,199 470,199 471,199 471,237 472,314 472,199 473,199 473,199 474,199 474,199 475,199 475,199 476,199 476,199 477,199 477,199 477,175 478,76 478,199 479,199 479,199 480,199 480,199 481,199 481,199 482,199 482,199 483,199 483,199 484,199 484,199 485,199 485,199 486,199 486,199 486,199 487,199 487,199 488,199 488,199 489,199 489,199 490,199 490,199 491,199 491,199 492,199 492,199 493,199 493,199 494,199 494,199 495,199 495,199 495,199 496,199 496,199 497,199 497,199 498,199 498,199 499,199 499,199 500,199 500,199 501,199 501,199 502,199 502,199 503,199 503,199 504,199 504,199 504,199 505,199 505,199 506,199 506,199 507,199 507,199 508,199 508,199 509,199 509,199 510,199 510,199 511,199 511,199 512,199 512,199 513,199 513,199 513,199 514,199 514,311 515,236 515,199 516,199 516,199 517,199 517,199 518,199 518,199 519,199 519,199 520,199 520,199 521,90 521,152 522,199 522,199 523,199 523,199 523,199 524,199 524,199 525,199 525,199 526,199 526,199 527,199 527,199 528,199 528,199 529,199 529,199 530,199 530,199 531,199 531,199 532,199 532,199 532,199 533,199 533,199 534,199 534,199 535,199 535,199 536,199 536,199 537,199 537,199 538,199 538,199 539,199 539,199 540,199 540,199 541,199 541,199 541,199 542,199 542,199 543,199 543,199 544,199 544,199 545,199 545,199 546,199 546,199 547,199 547,199 548,199 548,199 549,199 549,199 550,199 550,199 550,199 551,199 551,199 552,199 552,199 553,199 553,199 554,199 554,199 555,199 555,199 556,199 556,199 557,199 557,199 558,340 558,199 559,199 559,199 559,199 560,112 560,135 561,199 561,199 562,199 562,199 563,199 563,199 564,199 564,199 565,199 565,199 566,199 566,199 567,199 567,199 568,199 568,199 568,199 569,199 569,199 570,199 570,199 571,199 571,199 572,199 572,199 573,199 573,199 574,199 574,199 575,199 575,199 576,199 576,199 577,199 577,199 577,199 578,199 578,199 579,199 579,199 580,199 580,199 581,199 581,199 582,199 582,199 583,199 583,199 584,199 584,199 585,199 585,199 586,199 586,199 586,199 587,199 587,199 588,199 588,121 589,126 589,199 590,199 590,199 591,212 591,339 592,199 592,199 593,199 593,199 594,199 594,199 595,199 595,199 595,199 596,199 596,199 597,199 597,199 598,199 598,199 599,199 599,199 600,199 600,199 601,199 601,199 602,199 602,199 603,199 603,199 604,199 604,199 605,199 605,199 605,199 606,199 606,199 607,199 607,199 608,199 608,199 609,199 609,199 610,199 610,199 611,199 611,199 612,199 612,199 613,199 613,199 614,199 614,199 614,199 615,199 615,199 616,199 616,199 617,199 617,199 618,199 618,199 619,199 619,162 620,87 620,199 621,199 621,199 622,199 622,199 623,199 623,199 623,199 624,199 624,199 625,199 625,222 626,330 626,199 627,199 627,199 628,199 628,199 629,199 629,199 630,199 630,199 631,199 631,199 632,199 632,199 632,199 633,199 633,199 634,199 634,199 635,199 635,199 636,199 636,199 637,199 637,199 638,199 638,199 639,199 639,199 640,199 640,199 641,199 641,199 641,199 642,199 642,199 643,199 643,199 644,199 644,199 645,199 645,199 646,199 646,199 647,199 647,199 648,199 648,199 649,199 649,199 650,199 650,199 650,199 651,199 651,199 652,199 652,199 653,199 653,199 654,199 654,199 655,199 655,199 656,199 656,199 657,199 657,199 658,199 658,199 659,199 659,199 659,199 660,199 660,199 661,199 661,199 662,199 662,123 663,125 663,199 664,199 664,199 665,199 665,199 666,199 666,199 667,199 667,199 668,199 668,199 668,262 669,293 669,199 670,199 670,199 671,199 671,199 672,199 672,199 673,199 673,199 674,199 674,199 675,199 675,199 676,199 676,199 677,199 677,199 678,199 678,199 678,199 679,199 679,199 680,199 680,199 681,199 681,199 682,199 682,199 683,199 683,199 684,199 684,199 685,199 685,199 686,199 686,199 687,199 687,199 687,199 688,199 688,199 689,199 689,199 690,199 690,199 691,199 691,199 692,199 692,199 693,199 693,199 694,199 694,199 695,199 695,199 696,199 696,199 696,199 697,199 697,199 698,199 698,199 699,199 699,199 700,199 700,199 701,199 701,199 702,199 702,199 703,199 703,199 704,199 704,199 705,199 705,199 705,359 706,199 706,199 707,199 707,199 708,199 708,199 709,199 709,199 710,199 710,199 711,199 711,199 712,65 712,184 713,199 713,199 714,199 714,199 714,199 715,199 715,199 716,199 716,199 717,199 717,199 718,199 718,199 719,199 719,199 720,199 720,199 721,199 721,199 722,199 722,199 723,199 723,199 723,199 724,199 724,199 725,199 725,199 726,199 726,199 727,199 727,199 728,199 728,199 729,199 729,199 730,199 730,199 731,199 731,199 732,199 732,199 732,199 733,199 733,199 734,199 734,199 735,199 735,199 736,199 736,199 737,199 737,199 738,199 738,199 739,199 739,199 740,199 740,199 741,199 741,199 741,199 742,199 742,199 743,199 743,199 744,199 744,199 745,199 745,199 746,199 746,199 747,199 747,199 748,199 748,199 749,199 749,199 750,199 750,199 750,199 751,199 751,199 752,199 752,199 753,199 753,199 754,199 754,199 755,199 755,199 756,199 756,199 757,199 757,199 758,199 758,199 759,199 759,199 760,199" stroke="#ff7f00" fill="none" stroke-width="1.5" opacity="0.85"/><polyline points="40,199 40,199 40,199 41,199 41,199 42,199 42,199 43,199 43,199 44,199 44,199 45,199 45,199 46,199 46,199 47,199 47,199 48,199 48,199 49,199 49,199 49,199 50,199 50,199 51,199 51,199 52,199 52,199 53,199 53,199 54,199 54,199 55,199 55,199 56,199 56,199 57,199 57,199 58,199 58,199 58,199 59,199 59,199 60,199 60,199 61,199 61,199 62,199 62,199 63,199 63,199 64,199 64,199 65,199 65,199 66,199 66,199 67,199 67,199 67,199 68,199 68,199 69,199 69,199 70,199 70,199 71,199 71,199 72,199 72,199 73,199 73,199 74,199 74,199 75,199 75,199 76,199 76,199 76,199 77,199 77,199 78,199 78,199 79,199 79,199 80,199 80,199 81,199 81,199 82,199 82,199 83,199 83,199 84,199 84,199 85,199 85,199 85,199 86,199 86,199 87,199 87,199 88,199 88,199 89,199 89,199 90,199 90,199 91,199 91,199 92,199 92,199 93,199 93,199 94,199 94,199 94,199 95,199 95,199 96,199 96,199 97,199 97,199 98,199 98,199 99,199 99,199 100,199 100,199 101,199 101,199 102,199 102,199 103,199 103,199 103,199 104,199 104,199 105,199 105,199 106,199 106,199 107,199 107,199 108,199 108,199 109,199 109,199 110,199 110,199 111,199 111,199 112,199 112,199 112,199 113,199 113,199 114,199 114,199 115,199 115,199 116,199 116,199 117,199 117,199 118,199 118,199 119,199 119,199 120,199 120,199 121,199 121,199 122,199 122,199 122,199 123,199 123,199 124,199 124,199 125,199 125,199 126,199 126,199 127,199 127,199 128,199 128,199 129,199 129,199 130,199 130,199 131,199 131,199 131,199 132,199 132,199 133,199 133,199 134,199 134,199 135,199 135,199 136,199 136,199 137,199 137,199 138,199 138,199 139,199 139,199 140,199 140,199 140,199 141,199 141,199 142,199 142,199 143,199 143,199 144,199 144,199 145,199 145,199 146,199 146,199 147,199 147,199 148,199 148,199 149,199 149,199 149,199 150,199 150,199 151,199 151,199 152,199 152,199 153,199 153,199 154,199 154,199 155,199 155,199 156,199 156,199 157,199 157,199 158,199 158,199 158,199 159,199 159,199 160,199 160,199 161,199 161,199 162,199 162,199 163,199 163,199 164,199 164,199 165,199 165,199 166,199 166,199 167,199 167,199 167,199 168,199 168,199 169,199 169,199 170,199 170,199 171,199 171,199 172,199 172,199 173,199 173,199 174,199 174,199 175,199 175,199 176,199 176,199 176,199 177,199 177,199 178,199 178,199 179,199 179,199 180,199 180,199 181,199 181,199 182,199 182,199 183,199 183,199 184,199 184,199 185,199 185,199 186,199 186,199 186,199 187,199 187,199 188,199 188,199 189,199 189,199 190,199 190,199 191,199 191,199 192,199 192,199 193,199 193,199 194,199 194,199 195,199 195,199 195,199 196,199 196,199 197,199 197,199 198,199 198,199 199,199 199,199 200,199 200,199 201,199 201,199 202,199 202,199 203,199 203,199 204,199 204,199 204,199 205,199 205,199 206,199 206,199 207,199 207,199 208,199 208,199 209,199 209,199 210,199 210,199 211,199 211,199 212,199 212,199 213,199 213,199 213,199 214,199 214,199 215,199 215,199 216,199 216,199 217,199 217,199 218,199 218,199 219,199 219,199 220,199 220,199 221,199 221,199 222,199 222,199 222,199 223,199 223,199 224,199 224,199 225,199 225,199 226,199 226,199 227,199 227,199 228,199 228,199 229,199 229,199 230,199 230,199 231,199 231,199 231,199 232,199 232,199 233,199 233,199 234,199 234,199 235,199 235,199 236,199 236,199 237,199 237,199 238,199 238,199 239,199 239,199 240,199 240,199 240,199 241,199 241,199 242,199 242,199 243,199 243,199 244,199 244,199 245,199 245,199 246,199 246,199 247,199 247,199 248,199 248,199 249,199 249,199 249,199 250,199 250,199 251,199 251,199 252,199 252,199 253,199 253,199 254,199 254,199 255,199 255,199 256,199 256,199 257,199 257,199 258,199 258,199 258,199 259,199 259,199 260,199 260,199 261,199 261,199 262,199 262,199 263,199 263,199 264,199 264,199 265,199 265,199 266,199 266,199 267,199 267,199 268,199 268,199 268,199 269,199 269,199 270,199 270,199 271,199 271,199 272,199 272,199 273,199 273,199 274,199 274,199 275,199 275,199 276,199 276,199 277,199 277,199 277,199 278,199 278,199 279,199 279,199 280,199 280,199 281,199 281,199 282,199 282,199 283,199 283,199 284,199 284,199 285,199 285,199 286,199 286,199 286,199 287,199 287,199 288,199 288,199 289,199 289,199 290,199 290,199 291,199 291,199 292,199 292,199 293,199 293,199 294,199 294,199 295,199 295,199 295,199 296,199 296,199 297,199 297,199 298,199 298,199 299,199 299,199 300,199 300,199 301,199 301,199 302,199 302,199 303,199 303,199 304,199 304,199 304,199 305,199 305,199 306,199 306,199 307,199 307,199 308,199 308,199 309,199 309,199 310,199 310,199 311,199 311,199 312,199 312,199 313,199 313,199 313,199 314,199 314,199 315,199 315,199 316,199 316,199 317,199 317,199 318,199 318,199 319,199 319,199 320,199 320,199 321,199 321,199 322,199 322,199 322,199 323,199 323,199 324,199 324,199 325,199 325,199 326,199 326,199 327,199 327,199 328,199 328,199 329,199 329,199 330,199 330,199 331,199 331,199 331,199 332,199 332,199 333,199 333,199 334,199 334,199 335,199 335,199 336,199 336,199 337,199 337,199 338,199 338,199 339,199 339,199 340,199 340,199 340,199 341,199 341,199 342,199 342,199 343,199 343,199 344,199 344,199 345,199 345,199 346,199 346,199 347,199 347,199 348,199 348,199 349,199 349,199 349,199 350,199 350,199 351,199 351,199 352,199 352,199 353,199 353,199 354,199 354,199 355,199 355,199 356,199 356,199 357,199 357,199 358,199 358,199 359,199 359,199 359,199 360,199 360,199 361,199 361,199 362,199 362,199 363,199 363,199 364,199 364,199 365,199 365,199 366,199 366,199 367,199 367,199 368,199 368,199 368,199 369,199 369,199 370,199 370,199 371,199 371,199 372,199 372,199 373,199 373,199 374,199 374,199 375,199 375,199 376,199 376,199 377,199 377,199 377,199 378,199 378,199 379,199 379,199 380,199 380,199 381,199 381,199 382,199 382,199 383,199 383,199 384,199 384,199 385,199 385,199 386,199 386,199 386,199 387,199 387,199 388,199 388,199 389,199 389,199 390,199 390,199 391,199 391,199 392,199 392,199 393,199 393,199 394,199 394,199 395,199 395,199 395,199 396,199 396,199 397,199 397,199 398,199 398,199 399,199 399,199 400,199 400,199 401,199 401,199 402,199 402,199 403,199 403,199 404,199 404,199 404,199 405,199 405,199 406,199 406,199 407,199 407,199 408,199 408,199 409,199 409,199 410,199 410,199 411,199 411,199 412,199 412,199 413,199 413,199 413,199 414,199 414,199 415,199 415,199 416,199 416,199 417,199 417,199 418,199 418,199 419,199 419,199 420,199 420,199 421,199 421,199 422,199 422,199 422,199 423,199 423,199 424,199 424,199 425,199 425,199 426,199 426,199 427,199 427,199 428,199 428,199 429,199 429,199 430,199 430,199 431,199 431,199 432,199 432,199 432,199 433,199 433,199 434,199 434,199 435,199 435,199 436,199 436,199 437,199 437,199 438,199 438,199 439,199 439,199 440,199 440,199 441,199 441,199 441,199 442,199 442,199 443,199 443,199 444,199 444,199 445,199 445,199 446,199 446,199 447,199 447,199 448,199 448,199 449,199 449,199 450,199 450,199 450,199 451,199 451,199 452,199 452,199 453,199 453,199 454,199 454,199 455,199 455,199 456,199 456,199 457,199 457,199 458,199 458,199 459,199 459,199 459,199 460,199 460,199 461,199 461,199 462,199 462,199 463,199 463,199 464,199 464,199 465,199 465,199 466,199 466,199 467,199 467,199 468,199 468,199 468,199 469,199 469,199 470,199 470,199 471,199 471,199 472,199 472,199 473,199 473,199 474,199 474,199 475,199 475,199 476,199 476,199 477,199 477,199 477,199 478,199 478,199 479,199 479,199 480,199 480,199 481,199 481,199 482,199 482,199 483,199 483,199 484,199 484,199 485,199 485,199 486,199 486,199 486,199 487,199 487,199 488,199 488,199 489,199 489,199 490,199 490,199 491,199 491,199 492,199 492,199 493,199 493,199 494,199 494,199 495,199 495,199 495,199 496,199 496,199 497,199 497,199 498,199 498,199 499,199 499,199 500,199 500,199 501,199 501,199 502,199 502,199 503,199 503,199 504,199 504,199 504,199 505,199 505,199 506,199 506,199 507,199 507,199 508,199 508,199 509,199 509,199 510,199 510,199 511,199 511,199 512,199 512,199 513,199 513,199 513,199 514,199 514,199 515,199 515,199 516,199 516,199 517,199 517,199 518,199 518,199 519,199 519,199 520,199 520,199 521,199 521,199 522,199 522,199 523,199 523,199 523,199 524,199 524,199 525,199 525,199 526,199 526,199 527,199 527,199 528,199 528,199 529,199 529,199 530,199 530,199 531,199 531,199 532,199 532,199 532,199 533,199 533,199 534,199 534,199 535,199 535,199 536,199 536,199 537,199 537,199 538,199 538,199 539,199 539,199 540,199 540,199 541,199 541,199 541,199 542,199 542,199 543,199 543,199 544,199 544,199 545,199 545,199 546,199 546,199 547,199 547,199 548,199 548,199 549,199 549,199 550,199 550,199 550,199 551,199 551,199 552,199 552,199 553,199 553,199 554,199 554,199 555,199 555,199 556,199 556,199 557,199 557,199 558,199 558,199 559,199 559,199 559,199 560,199 560,199 561,199 561,199 562,199 562,199 563,199 563,199 564,199 564,199 565,199 565,199 566,199 566,199 567,199 567,199 568,199 568,199 568,199 569,199 569,199 570,199 570,199 571,199 571,199 572,199 572,199 573,199 573,199 574,199 574,199 575,199 575,199 576,199 576,199 577,199 577,199 577,199 578,199 578,199 579,199 579,199 580,199 580,199 581,199 581,199 582,199 582,199 583,199 583,199 584,199 584,199 585,199 585,199 586,199 586,199 586,199 587,199 587,199 588,199 588,199 589,199 589,199 590,199 590,199 591,199 591,199 592,199 592,199 593,199 593,199 594,199 594,199 595,199 595,199 595,199 596,199 596,199 597,199 597,199 598,199 598,199 599,199 599,199 600,199 600,199 601,199 601,199 602,199 602,199 603,199 603,199 604,199 604,199 605,199 605,199 605,199 606,199 606,199 607,199 607,199 608,199 608,199 609,199 609,199 610,199 610,199 611,199 611,199 612,199 612,199 613,199 613,199 614,199 614,199 614,199 615,199 615,199 616,199 616,199 617,199 617,199 618,199 618,199 619,199 619,199 620,199 620,199 621,199 621,199 622,199 622,199 623,199 623,199 623,199 624,199 624,199 625,199 625,199 626,199 626,199 627,199 627,199 628,199 628,199 629,199 629,199 630,199 630,199 631,199 631,199 632,199 632,199 632,199 633,199 633,199 634,199 634,199 635,199 635,199 636,199 636,199 637,199 637,199 638,199 638,199 639,199 639,199 640,199 640,199 641,199 641,199 641,199 642,199 642,199 643,199 643,199 644,199 644,199 645,199 645,199 646,199 646,199 647,199 647,199 648,199 648,199 649,199 649,199 650,199 650,199 650,199 651,199 651,199 652,199 652,199 653,199 653,199 654,199 654,199 655,199 655,199 656,199 656,199 657,199 657,199 658,199 658,199 659,199 659,199 659,199 660,199 660,199 661,199 661,199 662,199 662,199 663,199 663,199 664,199 664,199 665,199 665,199 666,199 666,199 667,199 667,199 668,199 668,199 668,199 669,199 669,199 670,199 670,199 671,199 671,199 672,199 672,199 673,199 673,199 674,199 674,199 675,199 675,199 676,199 676,199 677,199 677,199 678,199 678,199 678,199 679,199 679,199 680,199 680,199 681,199 681,199 682,199 682,199 683,199 683,199 684,199 684,199 685,199 685,199 686,199 686,199 687,199 687,199 687,199 688,199 688,199 689,199 689,199 690,199 690,199 691,199 691,199 692,199 692,199 693,199 693,199 694,199 694,199 695,199 695,199 696,199 696,199 696,199 697,199 697,199 698,199 698,199 699,199 699,199 700,199 700,199 701,199 701,199 702,199 702,199 703,199 703,199 704,199 704,199 705,199 705,199 705,199 706,199 706,199 707,199 707,199 708,199 708,199 709,199 709,199 710,199 710,199 711,199 711,199 712,199 712,199 713,199 713,199 714,199 714,199 714,199 715,199 715,199 716,199 716,199 717,199 717,199 718,199 718,199 719,199 719,199 720,199 720,199 721,199 721,199 722,199 722,199 723,199 723,199 723,199 724,199 724,199 725,199 725,199 726,199 726,199 727,199 727,199 728,199 728,199 729,199 729,199 730,199 730,199 731,199 731,199 732,199 732,199 732,199 733,199 733,199 734,199 734,199 735,199 735,199 736,199 736,199 737,199 737,199 738,199 738,199 739,199 739,199 740,199 740,199 741,199 741,199 741,199 742,199 742,199 743,199 743,199 744,199 744,199 745,199 745,199 746,199 746,199 747,199 747,199 748,199 748,199 749,199 749,199 750,199 750,199 750,199 751,199 751,199 752,199 752,199 753,199 753,199 754,199 754,199 755,199 755,199 756,199 756,199 757,199 757,199 758,199 758,199 759,199 759,199 760,199" stroke="#a65628" fill="none" stroke-width="1.5" opacity="0.85"/>
  <text x="700" y="30" font-size="10" fill="#e41a1c">J1</text><text x="760" y="30" font-size="10" fill="#377eb8">J2</text><text x="820" y="30" font-size="10" fill="#4daf4a">J3</text><text x="700" y="44" font-size="10" fill="#984ea3">J4</text><text x="760" y="44" font-size="10" fill="#ff7f00">J5</text><text x="820" y="44" font-size="10" fill="#a65628">J6</text>
  <line x1="40" y1="360" x2="760" y2="360" stroke="#999" stroke-width="1"/>
  <line x1="40" y1="40" x2="40" y2="360" stroke="#999" stroke-width="1"/>
  <text x="400" y="396" text-anchor="middle" font-size="10" fill="#555">tempo (s)</text>
</svg>