<svg xmlns="http://www.w3.org/2000/svg" width="800" height="400">
  <rect width="800" height="400" fill="white"/>
  <text x="400" y="18" text-anchor="middle" font-size="13" font-weight="bold">
    pick_and_place — Q (deg) — run 1</text>
  <polyline points="40,360 40,360 41,360 42,360 42,360 43,360 44,360 45,360 45,360 46,360 47,360 47,360 48,360 49,360 50,360 50,360 51,360 52,360 53,360 53,360 54,360 55,360 55,360 56,360 57,360 58,360 58,360 59,360 60,360 60,360 61,360 62,360 63,360 63,360 64,360 65,360 66,360 66,360 67,360 68,360 68,360 69,360 70,360 71,360 71,360 72,360 73,360 74,360 74,360 75,360 76,360 76,360 77,360 78,360 79,360 79,360 80,360 81,360 81,360 82,360 83,360 84,360 84,360 85,360 86,360 87,360 87,360 88,360 89,360 89,360 90,360 91,360 92,360 92,360 93,360 94,360 95,360 95,360 96,360 97,360 97,360 98,360 99,360 100,360 100,360 101,360 102,360 102,360 103,360 104,360 105,360 105,360 106,360 107,360 108,360 108,360 109,360 110,360 110,360 111,360 112,360 113,360 113,360 114,360 115,360 116,360 116,360 117,360 118,360 118,360 119,360 120,360 121,360 121,360 122,360 123,360 123,360 124,360 125,360 126,360 126,360 127,360 128,360 129,360 129,360 130,360 131,360 131,360 132,360 133,360 134,360 134,360 135,360 136,360 136,360 137,360 138,360 139,360 139,360 140,360 141,360 142,360 142,360 143,360 144,360 144,360 145,360 146,360 147,360 147,360 148,360 149,360 150,360 150,360 151,360 152,360 152,360 153,360 154,360 155,360 155,360 156,360 157,360 157,360 158,360 159,360 160,360 160,360 161,360 162,360 163,360 163,360 164,360 165,360 165,360 166,360 167,360 168,360 168,360 169,360 170,360 170,360 171,360 172,360 173,360 173,360 174,360 175,360 176,360 176,360 177,360 178,360 178,360 179,360 180,360 181,360 181,360 182,360 183,360 184,360 184,360 185,360 186,360 186,360 187,360 188,360 189,360 189,360 190,360 191,360 191,360 192,360 193,360 194,360 194,360 195,360 196,360 197,360 197,360 198,360 199,360 199,360 200,360 201,360 202,360 202,360 203,360 204,360 205,360 205,360 206,360 207,360 207,360 208,360 209,360 210,360 210,360 211,360 212,360 212,356 213,352 214,348 215,344 215,340 216,336 217,333 218,329 218,325 219,321 220,317 220,313 221,310 222,306 223,302 223,298 224,294 225,290 225,287 226,283 227,279 228,275 228,271 229,267 230,264 231,260 231,256 232,252 233,248 233,244 234,240 235,237 236,233 236,229 237,225 238,221 239,217 239,217 240,217 241,217 241,217 242,217 243,217 244,217 244,217 245,217 246,217 246,217 247,217 248,217 249,217 249,217 250,217 251,217 252,217 252,217 253,217 254,217 254,217 255,217 256,217 257,217 257,217 258,217 259,217 260,217 260,217 261,217 262,217 262,217 263,217 264,217 265,217 265,217 266,217 267,217 267,217 268,217 269,217 270,217 270,217 271,217 272,217 273,217 273,217 274,217 275,217 275,217 276,217 277,217 278,217 278,217 279,217 280,217 280,217 281,217 282,217 283,217 283,217 284,217 285,217 286,217 286,217 287,217 288,217 288,217 289,217 290,217 291,217 291,217 292,217 293,217 294,217 294,217 295,217 296,217 296,217 297,217 298,217 299,217 299,217 300,217 301,217 301,217 302,217 303,217 304,217 304,217 305,217 306,217 307,217 307,217 308,217 309,217 309,217 310,217 311,217 312,217 312,217 313,217 314,217 314,217 315,217 316,217 317,217 317,217 318,217 319,217 320,217 320,217 321,217 322,217 322,217 323,217 324,217 325,217 325,217 326,217 327,217 328,217 328,217 329,217 330,217 330,217 331,217 332,217 333,217 333,217 334,217 335,217 335,217 336,217 337,217 338,217 338,217 339,217 340,217 341,217 341,217 342,217 343,217 343,217 344,217 345,217 346,217 346,217 347,217 348,217 348,217 349,217 350,217 351,217 351,217 352,217 353,217 354,217 354,217 355,217 356,217 356,217 357,217 358,217 359,217 359,217 360,217 361,217 362,217 362,217 363,217 364,217 364,217 365,217 366,217 367,217 367,217 368,217 369,217 369,217 370,217 371,217 372,217 372,217 373,217 374,217 375,217 375,217 376,217 377,217 377,217 378,217 379,217 380,217 380,217 381,217 382,217 383,217 383,217 384,217 385,217 385,217 386,217 387,217 388,217 388,217 389,217 390,217 390,217 391,217 392,217 393,217 393,217 394,217 395,217 396,217 396,217 397,217 398,217 398,217 399,217 400,217 401,217 401,217 402,217 403,217 403,217 404,217 405,217 406,217 406,217 407,217 408,217 409,217 409,217 410,217 411,217 411,217 412,217 413,217 414,217 414,217 415,217 416,217 417,217 417,217 418,217 419,217 419,217 420,217 421,217 422,217 422,217 423,217 424,217 424,217 425,217 426,217 427,217 427,217 428,217 429,217 430,217 430,217 431,217 432,217 432,217 433,217 434,217 435,217 435,217 436,217 437,217 437,217 438,217 439,217 440,217 440,217 441,217 442,217 443,217 443,217 444,217 445,217 445,217 446,217 447,217 448,217 448,217 449,217 450,217 451,217 451,217 452,217 453,217 453,217 454,217 455,217 456,217 456,217 457,217 458,217 458,217 459,217 460,217 461,217 461,217 462,217 463,217 464,217 464,217 465,217 466,217 466,217 467,217 468,217 469,217 469,217 470,217 471,217 472,217 472,217 473,217 474,217 474,217 475,217 476,217 477,217 477,217 478,217 479,217 479,217 480,217 481,217 482,217 482,217 483,217 484,217 485,217 485,217 486,217 487,217 487,217 488,217 489,217 490,217 490,217 491,217 492,217 492,217 493,217 494,217 495,217 495,217 496,217 497,217 498,217 498,217 499,217 500,217 500,217 501,217 502,217 503,217 503,217 504,217 505,217 506,217 506,217 507,217 508,217 508,217 509,217 510,217 511,217 511,217 512,217 513,217 513,217 514,217 515,217 516,217 516,217 517,217 518,217 519,217 519,217 520,217 521,217 521,217 522,217 523,217 524,217 524,217 525,217 526,217 527,217 527,217 528,217 529,217 529,217 530,217 531,217 532,217 532,217 533,217 534,217 534,217 535,217 536,217 537,217 537,217 538,217 539,217 540,217 540,217 541,217 542,217 542,217 543,217 544,217 545,217 545,217 546,217 547,217 547,217 548,217 549,217 550,217 550,217 551,217 552,217 553,217 553,217 554,217 555,217 555,217 556,217 557,217 558,217 558,217 559,217 560,217 561,217 561,217 562,217 563,217 563,217 564,217 565,217 566,217 566,217 567,217 568,217 568,217 569,217 570,217 571,217 571,217 572,217 573,217 574,217 574,217 575,217 576,217 576,217 577,217 578,217 579,217 579,217 580,217 581,217 581,217 582,217 583,217 584,217 584,217 585,217 586,217 587,217 587,217 588,217 589,217 589,217 590,217 591,217 592,217 592,217 593,217 594,217 595,217 595,217 596,217 597,217 597,217 598,217 599,217 600,217 600,217 601,217 602,217 602,217 603,217 604,217 605,217 605,217 606,217 607,217 608,217 608,217 609,217 610,217 610,217 611,217 612,217 613,217 613,217 614,217 615,217 616,217 616,217 617,217 618,217 618,217 619,217 620,217 621,217 621,217 622,217 623,217 623,217 624,217 625,217 626,217 626,217 627,217 628,217 629,217 629,217 630,217 631,217 631,217 632,217 633,217 634,217 634,217 635,217 636,217 636,217 637,217 638,217 639,217 639,217 640,217 641,217 642,217 642,217 643,217 644,217 644,217 645,217 646,217 647,217 647,217 648,217 649,217 649,217 650,217 651,217 652,217 652,217 653,217 654,217 655,217 655,217 656,217 657,217 657,217 658,217 659,217 660,217 660,217 661,217 662,217 663,217 663,217 664,219 665,223 665,227 666,231 667,235 668,238 668,242 669,246 670,250 671,254 671,258 672,261 673,265 673,269 674,273 675,277 676,281 676,284 677,288 678,292 678,296 679,300 680,304 681,308 681,311 682,315 683,319 684,323 684,327 685,331 686,334 686,338 687,342 688,346 689,350 689,354 690,357 691,360 691,360 692,360 693,360 694,360 694,360 695,360 696,360 697,360 697,360 698,360 699,360 699,360 700,360 701,360 702,360 702,360 703,360 704,360 705,360 705,360 706,360 707,360 707,360 708,360 709,360 710,360 710,360 711,360 712,360 712,360 713,360 714,360 715,360 715,360 716,360 717,360 718,360 718,360 719,360 720,360 720,360 721,360 722,360 723,360 723,360 724,360 725,360 725,360 726,360 727,360 728,360 728,360 729,360 730,360 731,360 731,360 732,360 733,360 733,360 734,360 735,360 736,360 736,360 737,360 738,360 739,360 739,360 740,360 741,360 741,360 742,360 743,360 744,360 744,360 745,360 746,360 746,360 747,360 748,360 749,360 749,360 750,360 751,360 752,360 752,360 753,360 754,360 754,360 755,360 756,360 757,360 757,360 758,360 759,360 760,360" stroke="#e41a1c" fill="none" stroke-width="1.5" opacity="0.85"/><polyline points="40,360 40,360 41,360 42,360 42,360 43,360 44,360 45,360 45,360 46,360 47,360 47,360 48,360 49,360 50,360 50,360 51,360 52,360 53,360 53,360 54,360 55,360 55,360 56,360 57,360 58,360 58,360 59,360 60,360 60,360 61,360 62,360 63,360 63,360 64,360 65,360 66,360 66,360 67,360 68,360 68,360 69,360 70,360 71,360 71,360 72,360 73,360 74,360 74,360 75,360 76,360 76,360 77,360 78,360 79,360 79,360 80,360 81,360 81,360 82,360 83,360 84,360 84,360 85,360 86,360 87,360 87,360 88,360 89,360 89,360 90,360 91,360 92,360 92,360 93,360 94,360 95,360 95,360 96,360 97,360 97,360 98,360 99,360 100,360 100,360 101,360 102,360 102,360 103,360 104,360 105,360 105,360 106,360 107,360 108,360 108,360 109,360 110,360 110,360 111,360 112,358 113,354 113,350 114,346 115,342 116,338 116,335 117,331 118,327 118,323 119,319 120,315 121,312 121,308 122,304 123,300 123,296 124,292 125,288 126,285 126,281 127,277 128,273 129,269 129,265 130,262 131,258 131,254 132,250 133,246 134,242 134,239 135,235 136,231 136,227 137,223 138,219 139,216 139,212 140,208 141,204 142,200 142,196 143,192 144,189 144,185 145,181 146,177 147,173 147,169 148,166 149,162 150,158 150,154 151,150 152,146 152,146 153,146 154,146 155,146 155,146 156,146 157,146 157,146 158,146 159,146 160,146 160,146 161,146 162,146 163,146 163,146 164,146 165,146 165,146 166,146 167,146 168,146 168,146 169,146 170,146 170,146 171,146 172,146 173,146 173,146 174,146 175,146 176,146 176,146 177,146 178,146 178,146 179,146 180,146 181,146 181,146 182,146 183,146 184,146 184,146 185,146 186,146 186,146 187,146 188,146 189,146 189,146 190,146 191,146 191,146 192,146 193,146 194,146 194,146 195,146 196,146 197,146 197,146 198,146 199,146 199,146 200,146 201,146 202,146 202,146 203,146 204,146 205,146 205,146 206,146 207,146 207,146 208,146 209,146 210,146 210,146 211,146 212,146 212,146 213,146 214,146 215,146 215,146 216,146 217,146 218,146 218,146 219,146 220,146 220,146 221,146 222,146 223,146 223,146 224,146 225,146 225,146 226,146 227,146 228,146 228,146 229,146 230,146 231,146 231,146 232,146 233,146 233,146 234,146 235,146 236,146 236,146 237,146 238,146 239,146 239,146 240,146 241,146 241,146 242,146 243,146 244,146 244,146 245,146 246,146 246,146 247,146 248,146 249,146 249,146 250,146 251,146 252,146 252,146 253,146 254,146 254,146 255,146 256,146 257,146 257,146 258,146 259,146 260,146 260,146 261,146 262,146 262,146 263,146 264,146 265,146 265,146 266,146 267,146 267,146 268,146 269,146 270,146 270,146 271,146 272,146 273,146 273,146 274,146 275,146 275,146 276,146 277,146 278,146 278,146 279,146 280,146 280,146 281,146 282,146 283,146 283,146 284,146 285,147 286,151 286,155 287,159 288,162 288,166 289,170 290,174 291,178 291,182 292,186 293,189 294,193 294,197 295,201 296,205 296,209 297,212 298,216 299,220 299,224 300,228 301,232 301,235 302,239 303,243 304,247 304,251 305,255 306,258 307,262 307,266 308,270 309,274 309,278 310,282 311,285 312,289 312,293 313,297 314,301 314,305 315,308 316,312 317,316 317,320 318,324 319,328 320,331 320,335 321,339 322,343 322,347 323,351 324,354 325,358 325,360 326,360 327,360 328,360 328,360 329,360 330,360 330,360 331,360 332,360 333,360 333,360 334,360 335,360 335,360 336,360 337,360 338,360 338,360 339,360 340,360 341,360 341,360 342,360 343,360 343,360 344,360 345,360 346,360 346,360 347,360 348,360 348,360 349,360 350,360 351,360 351,360 352,360 353,360 354,360 354,360 355,360 356,360 356,360 357,360 358,360 359,360 359,360 360,360 361,360 362,360 362,360 363,360 364,360 364,360 365,360 366,360 367,360 367,360 368,360 369,360 369,360 370,360 371,360 372,360 372,360 373,360 374,360 375,360 375,360 376,360 377,360 377,360 378,360 379,360 380,360 380,360 381,360 382,360 383,360 383,360 384,360 385,360 385,360 386,360 387,360 388,360 388,360 389,360 390,360 390,360 391,360 392,360 393,360 393,360 394,360 395,360 396,360 396,360 397,360 398,360 398,360 399,360 400,360 401,360 401,360 402,360 403,360 403,360 404,360 405,360 406,360 406,360 407,360 408,360 409,360 409,360 410,360 411,360 411,360 412,360 413,360 414,360 414,360 415,360 416,360 417,360 417,360 418,360 419,360 419,360 420,360 421,360 422,360 422,360 423,360 424,360 424,360 425,360 426,360 427,360 427,360 428,360 429,360 430,360 430,360 431,360 432,360 432,360 433,360 434,360 435,360 435,360 436,360 437,360 437,360 438,360 439,360 440,360 440,360 441,360 442,360 443,360 443,360 444,360 445,360 445,360 446,360 447,360 448,360 448,360 449,360 450,360 451,360 451,360 452,360 453,360 453,360 454,360 455,360 456,360 456,360 457,360 458,360 458,360 459,360 460,360 461,360 461,360 462,360 463,360 464,358 464,354 465,350 466,346 466,342 467,338 468,335 469,331 469,327 470,323 471,319 472,315 472,312 473,308 474,304 474,300 475,296 476,292 477,288 477,285 478,281 479,277 479,273 480,269 481,265 482,262 482,258 483,254 484,250 485,246 485,242 486,239 487,235 487,231 488,227 489,223 490,219 490,216 491,212 492,208 492,204 493,200 494,196 495,192 495,189 496,185 497,181 498,177 498,173 499,169 500,166 500,162 501,158 502,154 503,150 503,146 504,146 505,146 506,146 506,146 507,146 508,146 508,146 509,146 510,146 511,146 511,146 512,146 513,146 513,146 514,146 515,146 516,146 516,146 517,146 518,146 519,146 519,146 520,146 521,146 521,146 522,146 523,146 524,146 524,146 525,146 526,146 527,146 527,146 528,146 529,146 529,146 530,146 531,146 532,146 532,146 533,146 534,146 534,146 535,146 536,146 537,146 537,146 538,146 539,146 540,146 540,146 541,146 542,146 542,146 543,146 544,146 545,146 545,146 546,146 547,146 547,146 548,146 549,146 550,146 550,146 551,146 552,146 553,146 553,146 554,146 555,146 555,146 556,146 557,146 558,146 558,146 559,146 560,146 561,146 561,146 562,146 563,146 563,146 564,150 565,154 566,158 566,162 567,165 568,169 568,173 569,177 570,181 571,185 571,188 572,192 573,196 574,200 574,204 575,208 576,211 576,215 577,219 578,223 579,227 579,231 580,234 581,238 581,242 582,246 583,250 584,254 584,258 585,261 586,265 587,269 587,273 588,277 589,281 589,284 590,288 591,292 592,296 592,300 593,304 594,307 595,311 595,315 596,319 597,323 597,327 598,330 599,334 600,338 600,342 601,346 602,350 602,354 603,357 604,360 605,360 605,360 606,360 607,360 608,360 608,360 609,360 610,360 610,360 611,360 612,360 613,360 613,360 614,360 615,360 616,360 616,360 617,360 618,360 618,360 619,360 620,360 621,360 621,360 622,360 623,360 623,360 624,360 625,360 626,360 626,360 627,360 628,360 629,360 629,360 630,360 631,360 631,360 632,360 633,360 634,360 634,360 635,360 636,360 636,360 637,360 638,360 639,360 639,360 640,360 641,360 642,360 642,360 643,360 644,360 644,360 645,360 646,360 647,360 647,360 648,360 649,360 649,360 650,360 651,360 652,360 652,360 653,360 654,360 655,360 655,360 656,360 657,360 657,360 658,360 659,360 660,360 660,360 661,360 662,360 663,360 663,360 664,360 665,360 665,360 666,360 667,360 668,360 668,360 669,360 670,360 671,360 671,360 672,360 673,360 673,360 674,360 675,360 676,360 676,360 677,360 678,360 678,360 679,360 680,360 681,360 681,360 682,360 683,360 684,360 684,360 685,360 686,360 686,360 687,360 688,360 689,360 689,360 690,360 691,360 691,360 692,360 693,360 694,360 694,360 695,360 696,360 697,360 697,360 698,360 699,360 699,360 700,360 701,360 702,360 702,360 703,360 704,360 705,360 705,360 706,360 707,360 707,360 708,360 709,360 710,360 710,360 711,360 712,360 712,360 713,360 714,360 715,360 715,360 716,360 717,360 718,360 718,360 719,360 720,360 720,360 721,360 722,360 723,360 723,360 724,360 725,360 725,360 726,360 727,360 728,360 728,360 729,360 730,360 731,360 731,360 732,360 733,360 733,360 734,360 735,360 736,360 736,360 737,360 738,360 739,360 739,360 740,360 741,360 741,360 742,360 743,360 744,360 744,360 745,360 746,360 746,360 747,360 748,360 749,360 749,360 750,360 751,360 752,360 752,360 753,360 754,360 754,360 755,360 756,360 757,360 757,360 758,360 759,360 760,360" stroke="#377eb8" fill="none" stroke-width="1.5" opacity="0.85"/><polyline points="40,360 40,360 41,360 42,360 42,360 43,360 44,360 45,360 45,360 46,360 47,360 47,360 48,360 49,360 50,360 50,360 51,360 52,360 53,360 53,360 54,360 55,360 55,360 56,360 57,360 58,360 58,360 59,360 60,360 60,360 61,360 62,360 63,360 63,360 64,360 65,360 66,360 66,360 67,360 68,360 68,360 69,360 70,360 71,360 71,360 72,360 73,360 74,360 74,360 75,360 76,360 76,360 77,360 78,360 79,360 79,360 80,360 81,360 81,360 82,360 83,360 84,360 84,360 85,360 86,360 87,360 87,360 88,360 89,360 89,360 90,360 91,360 92,360 92,360 93,360 94,360 95,360 95,360 96,360 97,360 97,360 98,360 99,360 100,360 100,360 101,360 102,360 102,360 103,360 104,360 105,360 105,360 106,360 107,360 108,360 108,360 109,360 110,360 110,360 111,360 112,358 113,354 113,350 114,346 115,342 116,338 116,335 117,331 118,327 118,323 119,319 120,315 121,312 121,308 122,304 123,300 123,296 124,292 125,288 126,285 126,281 127,277 128,273 129,269 129,265 130,262 131,258 131,254 132,250 133,246 134,242 134,239 135,235 136,231 136,227 137,223 138,219 139,216 139,212 140,208 141,204 142,200 142,196 143,192 144,189 144,185 145,181 146,177 147,173 147,169 148,166 149,162 150,158 150,154 151,150 152,146 152,146 153,146 154,146 155,146 155,146 156,146 157,146 157,146 158,146 159,146 160,146 160,146 161,146 162,146 163,146 163,146 164,146 165,146 165,146 166,146 167,146 168,146 168,146 169,146 170,146 170,146 171,146 172,146 173,146 173,146 174,146 175,146 176,146 176,146 177,146 178,146 178,146 179,146 180,146 181,146 181,146 182,146 183,146 184,146 184,146 185,146 186,146 186,146 187,146 188,146 189,146 189,146 190,146 191,146 191,146 192,146 193,146 194,146 194,146 195,146 196,146 197,146 197,146 198,146 199,146 199,146 200,146 201,146 202,146 202,146 203,146 204,146 205,146 205,146 206,146 207,146 207,146 208,146 209,146 210,146 210,146 211,146 212,146 212,146 213,146 214,146 215,146 215,146 216,146 217,146 218,146 218,146 219,146 220,146 220,146 221,146 222,146 223,146 223,146 224,146 225,146 225,146 226,146 227,146 228,146 228,146 229,146 230,146 231,146 231,146 232,146 233,146 233,146 234,146 235,146 236,146 236,146 237,146 238,146 239,146 239,146 240,146 241,146 241,146 242,146 243,146 244,146 244,146 245,146 246,146 246,146 247,146 248,146 249,146 249,146 250,146 251,146 252,146 252,146 253,146 254,146 254,146 255,146 256,146 257,146 257,146 258,146 259,146 260,146 260,146 261,146 262,146 262,146 263,146 264,146 265,146 265,146 266,146 267,146 267,146 268,146 269,146 270,146 270,146 271,146 272,146 273,146 273,146 274,146 275,146 275,146 276,146 277,146 278,146 278,146 279,146 280,146 280,146 281,146 282,146 283,146 283,146 284,146 285,147 286,151 286,155 287,159 288,162 288,166 289,170 290,174 291,178 291,182 292,186 293,189 294,193 294,197 295,201 296,205 296,209 297,212 298,216 299,220 299,224 300,228 301,232 301,235 302,239 303,243 304,247 304,251 305,255 306,258 307,262 307,266 308,270 309,274 309,278 310,282 311,285 312,289 312,293 313,297 314,301 314,305 315,308 316,312 317,316 317,320 318,324 319,328 320,331 320,335 321,339 322,343 322,347 323,351 324,354 325,358 325,360 326,360 327,360 328,360 328,360 329,360 330,360 330,360 331,360 332,360 333,360 333,360 334,360 335,360 335,360 336,360 337,360 338,360 338,360 339,360 340,360 341,360 341,360 342,360 343,360 343,360 344,360 345,360 346,360 346,360 347,360 348,360 348,360 349,360 350,360 351,360 351,360 352,360 353,360 354,360 354,360 355,360 356,360 356,360 357,360 358,360 359,360 359,360 360,360 361,360 362,360 362,360 363,360 364,360 364,360 365,360 366,360 367,360 367,360 368,360 369,360 369,360 370,360 371,360 372,360 372,360 373,360 374,360 375,360 375,360 376,360 377,360 377,360 378,360 379,360 380,360 380,360 381,360 382,360 383,360 383,360 384,360 385,360 385,360 386,360 387,360 388,360 388,360 389,360 390,360 390,360 391,360 392,360 393,360 393,360 394,360 395,360 396,360 396,360 397,360 398,360 398,360 399,360 400,360 401,360 401,360 402,360 403,360 403,360 404,360 405,360 406,360 406,360 407,360 408,360 409,360 409,360 410,360 411,360 411,360 412,360 413,360 414,360 414,360 415,360 416,360 417,360 417,360 418,360 419,360 419,360 420,360 421,360 422,360 422,360 423,360 424,360 424,360 425,360 426,360 427,360 427,360 428,360 429,360 430,360 430,360 431,360 432,360 432,360 433,360 434,360 435,360 435,360 436,360 437,360 437,360 438,360 439,360 440,360 440,360 441,360 442,360 443,360 443,360 444,360 445,360 445,360 446,360 447,360 448,360 448,360 449,360 450,360 451,360 451,360 452,360 453,360 453,360 454,360 455,360 456,360 456,360 457,360 458,360 458,360 459,360 460,360 461,360 461,360 462,360 463,360 464,358 464,354 465,350 466,346 466,342 467,338 468,335 469,331 469,327 470,323 471,319 472,315 472,312 473,308 474,304 474,300 475,296 476,292 477,288 477,285 478,281 479,277 479,273 480,269 481,265 482,262 482,258 483,254 484,250 485,246 485,242 486,239 487,235 487,231 488,227 489,223 490,219 490,216 491,212 492,208 492,204 493,200 494,196 495,192 495,189 496,185 497,181 498,177 498,173 499,169 500,166 500,162 501,158 502,154 503,150 503,146 504,146 505,146 506,146 506,146 507,146 508,146 508,146 509,146 510,146 511,146 511,146 512,146 513,146 513,146 514,146 515,146 516,146 516,146 517,146 518,146 519,146 519,146 520,146 521,146 521,146 522,146 523,146 524,146 524,146 525,146 526,146 527,146 527,146 528,146 529,146 529,146 530,146 531,146 532,146 532,146 533,146 534,146 534,146 535,146 536,146 537,146 537,146 538,146 539,146 540,146 540,146 541,146 542,146 542,146 543,146 544,146 545,146 545,146 546,146 547,146 547,146 548,146 549,146 550,146 550,146 551,146 552,146 553,146 553,146 554,146 555,146 555,146 556,146 557,146 558,146 558,146 559,146 560,146 561,146 561,146 562,146 563,146 563,146 564,150 565,154 566,158 566,162 567,165 568,169 568,173 569,177 570,181 571,185 571,188 572,192 573,196 574,200 574,204 575,208 576,211 576,215 577,219 578,223 579,227 579,231 580,234 581,238 581,242 582,246 583,250 584,254 584,258 585,261 586,265 587,269 587,273 588,277 589,281 589,284 590,288 591,292 592,296 592,300 593,304 594,307 595,311 595,315 596,319 597,323 597,327 598,330 599,334 600,338 600,342 601,346 602,350 602,354 603,357 604,360 605,360 605,360 606,360 607,360 608,360 608,360 609,360 610,360 610,360 611,360 612,360 613,360 613,360 614,360 615,360 616,360 616,360 617,360 618,360 618,360 619,360 620,360 621,360 621,360 622,360 623,360 623,360 624,360 625,360 626,360 626,360 627,360 628,360 629,360 629,360 630,360 631,360 631,360 632,360 633,360 634,360 634,360 635,360 636,360 636,360 637,360 638,360 639,360 639,360 640,360 641,360 642,360 642,360 643,360 644,360 644,360 645,360 646,360 647,360 647,360 648,360 649,360 649,360 650,360 651,360 652,360 652,360 653,360 654,360 655,360 655,360 656,360 657,360 657,360 658,360 659,360 660,360 660,360 661,360 662,360 663,360 663,360 664,360 665,360 665,360 666,360 667,360 668,360 668,360 669,360 670,360 671,360 671,360 672,360 673,360 673,360 674,360 675,360 676,360 676,360 677,360 678,360 678,360 679,360 680,360 681,360 681,360 682,360 683,360 684,360 684,360 685,360 686,360 686,360 687,360 688,360 689,360 689,360 690,360 691,360 691,360 692,360 693,360 694,360 694,360 695,360 696,360 697,360 697,360 698,360 699,360 699,360 700,360 701,360 702,360 702,360 703,360 704,360 705,360 705,360 706,360 707,360 707,360 708,360 709,360 710,360 710,360 711,360 712,360 712,360 713,360 714,360 715,360 715,360 716,360 717,360 718,360 718,360 719,360 720,360 720,360 721,360 722,360 723,360 723,360 724,360 725,360 725,360 726,360 727,360 728,360 728,360 729,360 730,360 731,360 731,360 732,360 733,360 733,360 734,360 735,360 736,360 736,360 737,360 738,360 739,360 739,360 740,360 741,360 741,360 742,360 743,360 744,360 744,360 745,360 746,360 746,360 747,360 748,360 749,360 749,360 750,360 751,360 752,360 752,360 753,360 754,360 754,360 755,360 756,360 757,360 757,360 758,360 759,360 760,360" stroke="#4daf4a" fill="none" stroke-width="1.5" opacity="0.85"/><polyline points="40,360 40,360 41,360 42,360 42,360 43,360 44,360 45,360 45,360 46,360 47,360 47,360 48,360 49,360 50,360 50,360 51,360 52,360 53,360 53,360 54,360 55,360 55,360 56,360 57,360 58,360 58,360 59,360 60,360 60,360 61,360 62,360 63,360 63,360 64,360 65,360 66,360 66,360 67,360 68,360 68,360 69,360 70,360 71,360 71,360 72,360 73,360 74,360 74,360 75,360 76,360 76,360 77,360 78,360 79,360 79,360 80,360 81,360 81,360 82,360 83,360 84,360 84,360 85,360 86,360 87,360 87,360 88,360 89,360 89,360 90,360 91,360 92,360 92,360 93,360 94,360 95,360 95,360 96,360 97,360 97,360 98,360 99,360 100,360 100,360 101,360 102,360 102,360 103,360 104,360 105,360 105,360 106,360 107,360 108,360 108,360 109,360 110,360 110,360 111,360 112,360 113,360 113,360 114,360 115,360 116,360 116,360 117,360 118,360 118,360 119,360 120,360 121,360 121,360 122,360 123,360 123,360 124,360 125,360 126,360 126,360 127,360 128,360 129,360 129,360 130,360 131,360 131,360 132,360 133,360 134,360 134,360 135,360 136,360 136,360 137,360 138,360 139,360 139,360 140,360 141,360 142,360 142,360 143,360 144,360 144,360 145,360 146,360 147,360 147,360 148,360 149,360 150,360 150,360 151,360 152,360 152,360 153,360 154,360 155,360 155,360 156,360 157,360 157,360 158,360 159,360 160,360 160,360 161,360 162,360 163,360 163,360 164,360 165,360 165,360 166,360 167,360 168,360 168,360 169,360 170,360 170,360 171,360 172,360 173,360 173,360 174,360 175,360 176,360 176,360 177,360 178,360 178,360 179,360 180,360 181,360 181,360 182,360 183,360 184,360 184,360 185,360 186,360 186,360 187,360 188,360 189,360 189,360 190,360 191,360 191,360 192,360 193,360 194,360 194,360 195,360 196,360 197,360 197,360 198,360 199,360 199,360 200,360 201,360 202,360 202,360 203,360 204,360 205,360 205,360 206,360 207,360 207,360 208,360 209,360 210,360 210,360 211,360 212,360 212,360 213,360 214,360 215,360 215,360 216,360 217,360 218,360 218,360 219,360 220,360 220,360 221,360 222,360 223,360 223,360 224,360 225,360 225,360 226,360 227,360 228,360 228,360 229,360 230,360 231,360 231,360 232,360 233,360 233,360 234,360 235,360 236,360 236,360 237,360 238,360 239,360 239,360 240,360 241,360 241,360 242,360 243,360 244,360 244,360 245,360 246,360 246,360 247,360 248,360 249,360 249,360 250,360 251,360 252,360 252,360 253,360 254,360 254,360 255,360 256,360 257,360 257,360 258,360 259,360 260,360 260,360 261,360 262,360 262,360 263,360 264,360 265,360 265,360 266,360 267,360 267,360 268,360 269,360 270,360 270,360 271,360 272,360 273,360 273,360 274,360 275,360 275,360 276,360 277,360 278,360 278,360 279,360 280,360 280,360 281,360 282,360 283,360 283,360 284,360 285,360 286,360 286,360 287,360 288,360 288,360 289,360 290,360 291,360 291,360 292,360 293,360 294,360 294,360 295,360 296,360 296,360 297,360 298,360 299,360 299,360 300,360 301,360 301,360 302,360 303,360 304,360 304,360 305,360 306,360 307,360 307,360 308,360 309,360 309,360 310,360 311,360 312,360 312,360 313,360 314,360 314,360 315,360 316,360 317,360 317,360 318,360 319,360 320,360 320,360 321,360 322,360 322,360 323,360 324,360 325,360 325,360 326,360 327,360 328,360 328,360 329,360 330,360 330,360 331,360 332,360 333,360 333,360 334,360 335,360 335,360 336,360 337,360 338,360 338,360 339,360 340,360 341,360 341,360 342,360 343,360 343,360 344,360 345,360 346,360 346,360 347,360 348,360 348,360 349,360 350,360 351,360 351,360 352,360 353,360 354,360 354,360 355,360 356,360 356,360 357,360 358,360 359,360 359,360 360,360 361,360 362,360 362,360 363,360 364,360 364,360 365,360 366,360 367,360 367,360 368,360 369,360 369,360 370,360 371,360 372,360 372,360 373,360 374,360 375,360 375,360 376,360 377,360 377,360 378,360 379,360 380,360 380,360 381,360 382,360 383,360 383,360 384,360 385,360 385,360 386,360 387,360 388,360 388,360 389,360 390,360 390,360 391,360 392,360 393,360 393,360 394,360 395,360 396,360 396,360 397,360 398,360 398,360 399,360 400,360 401,360 401,360 402,360 403,360 403,360 404,360 405,360 406,360 406,360 407,360 408,360 409,360 409,360 410,360 411,360 411,360 412,360 413,360 414,360 414,360 415,360 416,360 417,360 417,360 418,360 419,360 419,360 420,360 421,360 422,360 422,360 423,360 424,360 424,360 425,360 426,360 427,360 427,360 428,360 429,360 430,360 430,360 431,360 432,360 432,360 433,360 434,360 435,360 435,360 436,360 437,360 437,360 438,360 439,360 440,360 440,360 441,360 442,360 443,360 443,360 444,360 445,360 445,360 446,360 447,360 448,360 448,360 449,360 450,360 451,360 451,360 452,360 453,360 453,360 454,360 455,360 456,360 456,360 457,360 458,360 458,360 459,360 460,360 461,360 461,360 462,360 463,360 464,360 464,360 465,360 466,360 466,360 467,360 468,360 469,360 469,360 470,360 471,360 472,360 472,360 473,360 474,360 474,360 475,360 476,360 477,360 477,360 478,360 479,360 479,360 480,360 481,360 482,360 482,360 483,360 484,360 485,360 485,360 486,360 487,360 487,360 488,360 489,360 490,360 490,360 491,360 492,360 492,360 493,360 494,360 495,360 495,360 496,360 497,360 498,360 498,360 499,360 500,360 500,360 501,360 502,360 503,360 503,360 504,360 505,360 506,360 506,360 507,360 508,360 508,360 509,360 510,360 511,360 511,360 512,360 513,360 513,360 514,360 515,360 516,360 516,360 517,360 518,360 519,360 519,360 520,360 521,360 521,360 522,360 523,360 524,360 524,360 525,360 526,360 527,360 527,360 528,360 529,360 529,360 530,360 531,360 532,360 532,360 533,360 534,360 534,360 535,360 536,360 537,360 537,360 538,360 539,360 540,360 540,360 541,360 542,360 542,360 543,360 544,360 545,360 545,360 546,360 547,360 547,360 548,360 549,360 550,360 550,360 551,360 552,360 553,360 553,360 554,360 555,360 555,360 556,360 557,360 558,360 558,360 559,360 560,360 561,360 561,360 562,360 563,360 563,360 564,360 565,360 566,360 566,360 567,360 568,360 568,360 569,360 570,360 571,360 571,360 572,360 573,360 574,360 574,360 575,360 576,360 576,360 577,360 578,360 579,360 579,360 580,360 581,360 581,360 582,360 583,360 584,360 584,360 585,360 586,360 587,360 587,360 588,360 589,360 589,360 590,360 591,360 592,360 592,360 593,360 594,360 595,360 595,360 596,360 597,360 597,360 598,360 599,360 600,360 600,360 601,360 602,360 602,360 603,360 604,360 605,360 605,360 606,360 607,360 608,360 608,360 609,360 610,360 610,360 611,360 612,360 613,360 613,360 614,360 615,360 616,360 616,360 617,360 618,360 618,360 619,360 620,360 621,360 621,360 622,360 623,360 623,360 624,360 625,360 626,360 626,360 627,360 628,360 629,360 629,360 630,360 631,360 631,360 632,360 633,360 634,360 634,360 635,360 636,360 636,360 637,360 638,360 639,360 639,360 640,360 641,360 642,360 642,360 643,360 644,360 644,360 645,360 646,360 647,360 647,360 648,360 649,360 649,360 650,360 651,360 652,360 652,360 653,360 654,360 655,360 655,360 656,360 657,360 657,360 658,360 659,360 660,360 660,360 661,360 662,360 663,360 663,360 664,360 665,360 665,360 666,360 667,360 668,360 668,360 669,360 670,360 671,360 671,360 672,360 673,360 673,360 674,360 675,360 676,360 676,360 677,360 678,360 678,360 679,360 680,360 681,360 681,360 682,360 683,360 684,360 684,360 685,360 686,360 686,360 687,360 688,360 689,360 689,360 690,360 691,360 691,360 692,360 693,360 694,360 694,360 695,360 696,360 697,360 697,360 698,360 699,360 699,360 700,360 701,360 702,360 702,360 703,360 704,360 705,360 705,360 706,360 707,360 707,360 708,360 709,360 710,360 710,360 711,360 712,360 712,360 713,360 714,360 715,360 715,360 716,360 717,360 718,360 718,360 719,360 720,360 720,360 721,360 722,360 723,360 723,360 724,360 725,360 725,360 726,360 727,360 728,360 728,360 729,360 730,360 731,360 731,360 732,360 733,360 733,360 734,360 735,360 736,360 736,360 737,360 738,360 739,360 739,360 740,360 741,360 741,360 742,360 743,360 744,360 744,360 745,360 746,360 746,360 747,360 748,360 749,360 749,360 750,360 751,360 752,360 752,360 753,360 754,360 754,360 755,360 756,360 757,360 757,360 758,360 759,360 760,360" stroke="#984ea3" fill="none" stroke-width="1.5" opacity="0.85"/><polyline points="40,360 40,360 41,360 42,360 42,360 43,360 44,360 45,360 45,360 46,360 47,360 47,360 48,360 49,360 50,360 50,360 51,360 52,360 53,360 53,360 54,360 55,360 55,360 56,360 57,360 58,360 58,360 59,360 60,360 60,360 61,360 62,360 63,360 63,360 64,360 65,360 66,360 66,360 67,360 68,360 68,360 69,360 70,360 71,360 71,360 72,360 73,360 74,360 74,360 75,360 76,360 76,360 77,360 78,360 79,360 79,360 80,360 81,360 81,360 82,360 83,360 84,360 84,360 85,360 86,360 87,360 87,360 88,360 89,360 89,360 90,360 91,360 92,360 92,360 93,360 94,360 95,360 95,360 96,360 97,360 97,360 98,360 99,360 100,360 100,360 101,360 102,360 102,360 103,360 104,360 105,360 105,360 106,360 107,360 108,360 108,360 109,360 110,360 110,360 111,360 112,360 113,360 113,360 114,360 115,360 116,360 116,360 117,360 118,360 118,360 119,360 120,360 121,360 121,360 122,360 123,360 123,360 124,360 125,360 126,360 126,360 127,360 128,360 129,360 129,360 130,360 131,360 131,360 132,360 133,360 134,360 134,360 135,360 136,360 136,360 137,360 138,360 139,360 139,360 140,360 141,360 142,360 142,360 143,360 144,360 144,360 145,360 146,360 147,360 147,360 148,360 149,360 150,360 150,360 151,360 152,360 152,360 153,360 154,360 155,360 155,360 156,360 157,360 157,360 158,360 159,360 160,360 160,360 161,360 162,360 163,360 163,360 164,360 165,360 165,360 166,360 167,360 168,360 168,360 169,360 170,360 170,360 171,360 172,360 173,360 173,360 174,360 175,360 176,360 176,360 177,360 178,360 178,360 179,360 180,360 181,360 181,360 182,360 183,360 184,360 184,360 185,360 186,360 186,360 187,360 188,360 189,360 189,360 190,360 191,360 191,360 192,360 193,360 194,360 194,360 195,360 196,360 197,360 197,360 198,360 199,360 199,360 200,360 201,360 202,360 202,360 203,360 204,360 205,360 205,360 206,360 207,360 207,360 208,360 209,360 210,360 210,360 211,360 212,360 212,360 213,360 214,360 215,360 215,360 216,360 217,360 218,360 218,360 219,360 220,360 220,360 221,360 222,360 223,360 223,360 224,360 225,360 225,360 226,360 227,360 228,360 228,360 229,360 230,360 231,360 231,360 232,360 233,360 233,360 234,360 235,360 236,360 236,360 237,360 238,360 239,360 239,360 240,360 241,360 241,360 242,360 243,360 244,360 244,360 245,360 246,360 246,360 247,360 248,360 249,360 249,360 250,360 251,360 252,360 252,360 253,360 254,360 254,360 255,360 256,360 257,360 257,360 258,360 259,360 260,360 260,360 261,360 262,360 262,360 263,360 264,360 265,360 265,360 266,360 267,360 267,360 268,360 269,360 270,360 270,360 271,360 272,360 273,360 273,360 274,360 275,360 275,360 276,360 277,360 278,360 278,360 279,360 280,360 280,360 281,360 282,360 283,360 283,360 284,360 285,360 286,360 286,360 287,360 288,360 288,360 289,360 290,360 291,360 291,360 292,360 293,360 294,360 294,360 295,360 296,360 296,360 297,360 298,360 299,360 299,360 300,360 301,360 301,360 302,360 303,360 304,360 304,360 305,360 306,360 307,360 307,360 308,360 309,360 309,360 310,360 311,360 312,360 312,360 313,360 314,360 314,360 315,360 316,360 317,360 317,360 318,360 319,360 320,360 320,360 321,360 322,360 322,360 323,360 324,360 325,360 325,360 326,360 327,360 328,360 328,360 329,360 330,360 330,360 331,360 332,360 333,360 333,360 334,360 335,360 335,360 336,360 337,360 338,360 338,360 339,360 340,360 341,360 341,360 342,360 343,360 343,360 344,360 345,360 346,360 346,360 347,360 348,360 348,360 349,360 350,360 351,360 351,360 352,360 353,360 354,360 354,360 355,360 356,360 356,360 357,360 358,360 359,360 359,360 360,360 361,360 362,360 362,360 363,360 364,360 364,360 365,360 366,360 367,360 367,360 368,360 369,360 369,360 370,360 371,360 372,360 372,360 373,360 374,360 375,360 375,360 376,360 377,360 377,360 378,360 379,360 380,360 380,360 381,360 382,360 383,360 383,360 384,360 385,360 385,360 386,360 387,360 388,360 388,360 389,360 390,360 390,360 391,360 392,360 393,360 393,360 394,360 395,360 396,360 396,360 397,360 398,360 398,360 399,360 400,360 401,360 401,360 402,360 403,360 403,360 404,360 405,360 406,360 406,360 407,360 408,360 409,360 409,360 410,360 411,360 411,360 412,360 413,360 414,360 414,360 415,360 416,360 417,360 417,360 418,360 419,360 419,360 420,360 421,360 422,360 422,360 423,360 424,360 424,360 425,360 426,360 427,360 427,360 428,360 429,360 430,360 430,360 431,360 432,360 432,360 433,360 434,360 435,360 435,360 436,360 437,360 437,360 438,360 439,360 440,360 440,360 441,360 442,360 443,360 443,360 444,360 445,360 445,360 446,360 447,360 448,360 448,360 449,360 450,360 451,360 451,360 452,360 453,360 453,360 454,360 455,360 456,360 456,360 457,360 458,360 458,360 459,360 460,360 461,360 461,360 462,360 463,360 464,360 464,360 465,360 466,360 466,360 467,360 468,360 469,360 469,360 470,360 471,360 472,360 472,360 473,360 474,360 474,360 475,360 476,360 477,360 477,360 478,360 479,360 479,360 480,360 481,360 482,360 482,360 483,360 484,360 485,360 485,360 486,360 487,360 487,360 488,360 489,360 490,360 490,360 491,360 492,360 492,360 493,360 494,360 495,360 495,360 496,360 497,360 498,360 498,360 499,360 500,360 500,360 501,360 502,360 503,360 503,360 504,360 505,360 506,360 506,360 507,360 508,360 508,360 509,360 510,360 511,360 511,360 512,360 513,360 513,360 514,360 515,360 516,360 516,360 517,360 518,360 519,360 519,360 520,360 521,360 521,360 522,360 523,360 524,360 524,360 525,360 526,360 527,360 527,360 528,360 529,360 529,360 530,360 531,360 532,360 532,360 533,360 534,360 534,360 535,360 536,360 537,360 537,360 538,360 539,360 540,360 540,360 541,360 542,360 542,360 543,360 544,360 545,360 545,360 546,360 547,360 547,360 548,360 549,360 550,360 550,360 551,360 552,360 553,360 553,360 554,360 555,360 555,360 556,360 557,360 558,360 558,360 559,360 560,360 561,360 561,360 562,360 563,360 563,360 564,360 565,360 566,360 566,360 567,360 568,360 568,360 569,360 570,360 571,360 571,360 572,360 573,360 574,360 574,360 575,360 576,360 576,360 577,360 578,360 579,360 579,360 580,360 581,360 581,360 582,360 583,360 584,360 584,360 585,360 586,360 587,360 587,360 588,360 589,360 589,360 590,360 591,360 592,360 592,360 593,360 594,360 595,360 595,360 596,360 597,360 597,360 598,360 599,360 600,360 600,360 601,360 602,360 602,360 603,360 604,360 605,360 605,360 606,360 607,360 608,360 608,360 609,360 610,360 610,360 611,360 612,360 613,360 613,360 614,360 615,360 616,360 616,360 617,360 618,360 618,360 619,360 620,360 621,360 621,360 622,360 623,360 623,360 624,360 625,360 626,360 626,360 627,360 628,360 629,360 629,360 630,360 631,360 631,360 632,360 633,360 634,360 634,360 635,360 636,360 636,360 637,360 638,360 639,360 639,360 640,360 641,360 642,360 642,360 643,360 644,360 644,360 645,360 646,360 647,360 647,360 648,360 649,360 649,360 650,360 651,360 652,360 652,360 653,360 654,360 655,360 655,360 656,360 657,360 657,360 658,360 659,360 660,360 660,360 661,360 662,360 663,360 663,360 664,360 665,360 665,360 666,360 667,360 668,360 668,360 669,360 670,360 671,360 671,360 672,360 673,360 673,360 674,360 675,360 676,360 676,360 677,360 678,360 678,360 679,360 680,360 681,360 681,360 682,360 683,360 684,360 684,360 685,360 686,360 686,360 687,360 688,360 689,360 689,360 690,360 691,360 691,360 692,360 693,360 694,360 694,360 695,360 696,360 697,360 697,360 698,360 699,360 699,360 700,360 701,360 702,360 702,360 703,360 704,360 705,360 705,360 706,360 707,360 707,360 708,360 709,360 710,360 710,360 711,360 712,360 712,360 713,360 714,360 715,360 715,360 716,360 717,360 718,360 718,360 719,360 720,360 720,360 721,360 722,360 723,360 723,360 724,360 725,360 725,360 726,360 727,360 728,360 728,360 729,360 730,360 731,360 731,360 732,360 733,360 733,360 734,360 735,360 736,360 736,360 737,360 738,360 739,360 739,360 740,360 741,360 741,360 742,360 743,360 744,360 744,360 745,360 746,360 746,360 747,360 748,360 749,360 749,360 750,360 751,360 752,360 752,360 753,360 754,360 754,360 755,360 756,360 757,360 757,360 758,360 759,360 760,360" stroke="#ff7f00" fill="none" stroke-width="1.5" opacity="0.85"/><polyline points="40,360 40,360 41,360 42,360 42,360 43,360 44,360 45,360 45,360 46,360 47,360 47,360 48,360 49,360 50,360 50,360 51,360 52,360 53,360 53,360 54,360 55,360 55,360 56,360 57,360 58,360 58,360 59,360 60,360 60,360 61,360 62,360 63,360 63,360 64,360 65,360 66,360 66,360 67,360 68,360 68,360 69,360 70,360 71,360 71,360 72,360 73,360 74,360 74,360 75,360 76,360 76,360 77,360 78,360 79,360 79,360 80,360 81,360 81,360 82,360 83,360 84,360 84,360 85,360 86,360 87,360 87,360 88,360 89,360 89,360 90,360 91,360 92,360 92,360 93,360 94,360 95,360 95,360 96,360 97,360 97,360 98,360 99,360 100,360 100,360 101,360 102,360 102,360 103,360 104,360 105,360 105,360 106,360 107,360 108,360 108,360 109,360 110,360 110,360 111,360 112,360 113,360 113,360 114,360 115,360 116,360 116,360 117,360 118,360 118,360 119,360 120,360 121,360 121,360 122,360 123,360 123,360 124,360 125,360 126,360 126,360 127,360 128,360 129,360 129,360 130,360 131,360 131,360 132,360 133,360 134,360 134,360 135,360 136,360 136,360 137,360 138,360 139,360 139,360 140,360 141,360 142,360 142,360 143,360 144,360 144,360 145,360 146,360 147,360 147,360 148,360 149,360 150,360 150,360 151,360 152,360 152,360 153,360 154,360 155,360 155,360 156,360 157,360 157,360 158,360 159,360 160,360 160,360 161,360 162,360 163,360 163,360 164,360 165,360 165,360 166,360 167,360 168,360 168,360 169,360 170,360 170,360 171,360 172,360 173,360 173,360 174,360 175,360 176,360 176,360 177,360 178,360 178,360 179,360 180,360 181,360 181,360 182,360 183,360 184,360 184,360 185,360 186,360 186,360 187,360 188,360 189,360 189,360 190,360 191,360 191,360 192,360 193,360 194,360 194,360 195,360 196,360 197,360 197,360 198,360 199,360 199,360 200,360 201,360 202,360 202,360 203,360 204,360 205,360 205,360 206,360 207,360 207,360 208,360 209,360 210,360 210,360 211,360 212,360 212,360 213,360 214,360 215,360 215,360 216,360 217,360 218,360 218,360 219,360 220,360 220,360 221,360 222,360 223,360 223,360 224,360 225,360 225,360 226,360 227,360 228,360 228,360 229,360 230,360 231,360 231,360 232,360 233,360 233,360 234,360 235,360 236,360 236,360 237,360 238,360 239,360 239,360 240,360 241,360 241,360 242,360 243,360 244,360 244,360 245,360 246,360 246,360 247,360 248,360 249,360 249,360 250,360 251,360 252,360 252,360 253,360 254,360 254,360 255,360 256,360 257,360 257,360 258,360 259,360 260,360 260,360 261,360 262,360 262,360 263,360 264,360 265,360 265,360 266,360 267,360 267,360 268,360 269,360 270,360 270,360 271,360 272,360 273,360 273,360 274,360 275,360 275,360 276,360 277,360 278,360 278,360 279,360 280,360 280,360 281,360 282,360 283,360 283,360 284,360 285,360 286,360 286,360 287,360 288,360 288,360 289,360 290,360 291,360 291,360 292,360 293,360 294,360 294,360 295,360 296,360 296,360 297,360 298,360 299,360 299,360 300,360 301,360 301,360 302,360 303,360 304,360 304,360 305,360 306,360 307,360 307,360 308,360 309,360 309,360 310,360 311,360 312,360 312,360 313,360 314,360 314,360 315,360 316,360 317,360 317,360 318,360 319,360 320,360 320,360 321,360 322,360 322,360 323,360 324,360 325,360 325,360 326,360 327,360 328,360 328,360 329,360 330,360 330,360 331,360 332,360 333,360 333,360 334,360 335,360 335,360 336,360 337,360 338,360 338,360 339,360 340,360 341,360 341,360 342,360 343,360 343,360 344,360 345,360 346,360 346,360 347,360 348,360 348,360 349,360 350,360 351,360 351,360 352,360 353,360 354,360 354,360 355,360 356,360 356,360 357,360 358,360 359,360 359,360 360,360 361,360 362,360 362,360 363,360 364,360 364,360 365,360 366,360 367,360 367,360 368,360 369,360 369,360 370,360 371,360 372,360 372,360 373,360 374,360 375,360 375,360 376,360 377,360 377,360 378,360 379,360 380,360 380,360 381,360 382,360 383,360 383,360 384,360 385,360 385,357 386,353 387,349 388,345 388,341 389,337 390,334 390,330 391,326 392,322 393,318 393,314 394,311 395,307 396,303 396,299 397,295 398,291 398,288 399,284 400,280 401,276 401,272 402,268 403,264 403,261 404,257 405,253 406,249 406,245 407,241 408,238 409,234 409,230 410,226 411,222 411,218 412,215 413,211 414,207 414,203 415,199 416,195 417,192 417,188 418,184 419,180 419,176 420,172 421,168 422,165 422,161 423,157 424,153 424,149 425,145 426,142 427,138 427,134 428,130 429,126 430,122 430,119 431,115 432,111 432,107 433,103 434,99 435,96 435,92 436,88 437,84 437,80 438,76 439,72 440,69 440,65 441,61 442,57 443,53 443,49 444,46 445,42 445,40 446,40 447,40 448,40 448,40 449,40 450,40 451,40 451,40 452,40 453,40 453,40 454,40 455,40 456,40 456,40 457,40 458,40 458,40 459,40 460,40 461,40 461,40 462,40 463,40 464,40 464,40 465,40 466,40 466,40 467,40 468,40 469,40 469,40 470,40 471,40 472,40 472,40 473,40 474,40 474,40 475,40 476,40 477,40 477,40 478,40 479,40 479,40 480,40 481,40 482,40 482,40 483,40 484,40 485,40 485,40 486,40 487,40 487,40 488,40 489,40 490,40 490,40 491,40 492,40 492,40 493,40 494,40 495,40 495,40 496,40 497,40 498,40 498,40 499,40 500,40 500,40 501,40 502,40 503,40 503,40 504,40 505,40 506,40 506,40 507,40 508,40 508,40 509,40 510,40 511,40 511,40 512,40 513,40 513,40 514,40 515,40 516,40 516,40 517,40 518,40 519,40 519,40 520,40 521,40 521,40 522,40 523,40 524,40 524,40 525,40 526,40 527,40 527,40 528,40 529,40 529,40 530,40 531,40 532,40 532,40 533,40 534,40 534,40 535,40 536,40 537,40 537,40 538,40 539,40 540,40 540,40 541,40 542,40 542,40 543,40 544,40 545,40 545,40 546,40 547,40 547,40 548,40 549,40 550,40 550,40 551,40 552,40 553,40 553,40 554,40 555,40 555,40 556,40 557,40 558,40 558,40 559,40 560,40 561,40 561,40 562,40 563,40 563,40 564,40 565,40 566,40 566,40 567,40 568,40 568,40 569,40 570,40 571,40 571,40 572,40 573,40 574,40 574,40 575,40 576,40 576,40 577,40 578,40 579,40 579,40 580,40 581,40 581,40 582,40 583,40 584,40 584,40 585,40 586,40 587,40 587,40 588,40 589,40 589,40 590,40 591,40 592,40 592,40 593,40 594,40 595,40 595,40 596,40 597,40 597,40 598,40 599,40 600,40 600,40 601,40 602,40 602,40 603,40 604,40 605,40 605,40 606,40 607,40 608,40 608,40 609,40 610,40 610,40 611,40 612,40 613,40 613,40 614,40 615,40 616,40 616,40 617,40 618,40 618,40 619,40 620,40 621,40 621,40 622,40 623,40 623,40 624,40 625,40 626,40 626,40 627,40 628,40 629,40 629,40 630,40 631,40 631,40 632,40 633,40 634,40 634,40 635,40 636,40 636,40 637,40 638,40 639,40 639,40 640,40 641,40 642,40 642,40 643,40 644,40 644,40 645,40 646,40 647,40 647,40 648,40 649,40 649,40 650,40 651,40 652,40 652,40 653,40 654,40 655,40 655,40 656,40 657,40 657,40 658,40 659,40 660,40 660,40 661,40 662,40 663,40 663,40 664,41 665,45 665,49 666,53 667,57 668,61 668,64 669,68 670,72 671,76 671,80 672,84 673,88 673,91 674,95 675,99 676,103 676,107 677,111 678,114 678,118 679,122 680,126 681,130 681,134 682,137 683,141 684,145 684,149 685,153 686,157 686,160 687,164 688,168 689,172 689,176 690,180 691,184 691,187 692,191 693,195 694,199 694,203 695,207 696,210 697,214 697,218 698,222 699,226 699,230 700,233 701,237 702,241 702,245 703,249 704,253 705,256 705,260 706,264 707,268 707,272 708,276 709,280 710,283 710,287 711,291 712,295 712,299 713,303 714,306 715,310 715,314 716,318 717,322 718,326 718,329 719,333 720,337 720,341 721,345 722,349 723,352 723,356 724,360 725,360 725,360 726,360 727,360 728,360 728,360 729,360 730,360 731,360 731,360 732,360 733,360 733,360 734,360 735,360 736,360 736,360 737,360 738,360 739,360 739,360 740,360 741,360 741,360 742,360 743,360 744,360 744,360 745,360 746,360 746,360 747,360 748,360 749,360 749,360 750,360 751,360 752,360 752,360 753,360 754,360 754,360 755,360 756,360 757,360 757,360 758,360 759,360 760,360" stroke="#a65628" fill="none" stroke-width="1.5" opacity="0.85"/>
  <text x="700" y="30" font-size="10" fill="#e41a1c">J1</text><text x="760" y="30" font-size="10" fill="#377eb8">J2</text><text x="820" y="30" font-size="10" fill="#4daf4a">J3</text><text x="700" y="44" font-size="10" fill="#984ea3">J4</text><text x="760" y="44" font-size="10" fill="#ff7f00">J5</text><text x="820" y="44" font-size="10" fill="#a65628">J6</text>
  <line x1="40" y1="360" x2="760" y2="360" stroke="#999" stroke-width="1"/>
  <line x1="40" y1="40" x2="40" y2="360" stroke="#999" stroke-width="1"/>
  <text x="400" y="396" text-anchor="middle" font-size="10" fill="#555">tempo (s)</text>
</svg>