<svg xmlns="http://www.w3.org/2000/svg" width="800" height="400">
  <rect width="800" height="400" fill="white"/>
  <text x="400" y="18" text-anchor="middle" font-size="13" font-weight="bold">
    pick_and_place — QDD (deg/s2) — run 1</text>
  <polyline points="40,195 40,195 41,195 42,195 42,195 43,195 44,195 45,195 45,195 46,195 47,195 47,195 48,195 49,195 50,195 50,195 51,195 52,195 53,195 53,195 54,195 55,195 55,195 56,195 57,195 58,195 58,195 59,195 60,195 60,195 61,195 62,195 63,195 63,195 64,195 65,195 66,195 66,195 67,195 68,195 68,195 69,195 70,195 71,195 71,195 72,195 73,195 74,195 74,195 75,195 76,195 76,195 77,195 78,195 79,195 79,195 80,195 81,195 81,195 82,195 83,195 84,195 84,195 85,195 86,195 87,195 87,195 88,195 89,195 89,195 90,195 91,195 92,195 92,195 93,195 94,195 95,195 95,195 96,195 97,195 97,195 98,195 99,195 100,195 100,195 101,195 102,195 102,195 103,195 104,195 105,195 105,195 106,195 107,195 108,195 108,195 109,195 110,195 110,195 111,195 112,195 113,195 113,195 114,195 115,195 116,195 116,195 117,195 118,195 118,195 119,195 120,195 121,195 121,195 122,195 123,195 123,195 124,195 125,195 126,195 126,195 127,195 128,195 129,195 129,195 130,195 131,195 131,195 132,195 133,195 134,195 134,195 135,195 136,195 136,195 137,195 138,195 139,195 139,195 140,195 141,195 142,195 142,195 143,195 144,195 144,195 145,195 146,195 147,195 147,195 148,195 149,195 150,195 150,195 151,195 152,195 152,195 153,195 154,195 155,195 155,195 156,195 157,195 157,195 158,195 159,195 160,195 160,195 161,195 162,195 163,195 163,195 164,195 165,195 165,195 166,195 167,195 168,195 168,195 169,195 170,195 170,195 171,195 172,195 173,195 173,195 174,195 175,195 176,195 176,195 177,195 178,195 178,195 179,195 180,195 181,195 181,195 182,195 183,195 184,195 184,195 185,195 186,195 186,195 187,195 188,195 189,195 189,195 190,195 191,195 191,195 192,195 193,195 194,195 194,195 195,195 196,195 197,195 197,195 198,195 199,195 199,195 200,195 201,195 202,195 202,195 203,195 204,195 205,195 205,195 206,195 207,195 207,195 208,195 209,195 210,195 210,195 211,195 212,195 212,40 213,195 214,195 215,195 215,195 216,195 217,195 218,195 218,195 219,195 220,195 220,195 221,195 222,195 223,195 223,195 224,195 225,195 225,195 226,195 227,195 228,195 228,195 229,195 230,195 231,195 231,195 232,195 233,195 233,195 234,195 235,195 236,195 236,195 237,195 238,195 239,195 239,357 240,202 241,195 241,195 242,195 243,195 244,195 244,195 245,195 246,195 246,195 247,195 248,195 249,195 249,195 250,195 251,195 252,195 252,195 253,195 254,195 254,195 255,195 256,195 257,195 257,195 258,195 259,195 260,195 260,195 261,195 262,195 262,195 263,195 264,195 265,195 265,195 266,195 267,195 267,195 268,195 269,195 270,195 270,195 271,195 272,195 273,195 273,195 274,195 275,195 275,195 276,195 277,195 278,195 278,195 279,195 280,195 280,195 281,195 282,195 283,195 283,195 284,195 285,195 286,195 286,195 287,195 288,195 288,195 289,195 290,195 291,195 291,195 292,195 293,195 294,195 294,195 295,195 296,195 296,195 297,195 298,195 299,195 299,195 300,195 301,195 301,195 302,195 303,195 304,195 304,195 305,195 306,195 307,195 307,195 308,195 309,195 309,195 310,195 311,195 312,195 312,195 313,195 314,195 314,195 315,195 316,195 317,195 317,195 318,195 319,195 320,195 320,195 321,195 322,195 322,195 323,195 324,195 325,195 325,195 326,195 327,195 328,195 328,195 329,195 330,195 330,195 331,195 332,195 333,195 333,195 334,195 335,195 335,195 336,195 337,195 338,195 338,195 339,195 340,195 341,195 341,195 342,195 343,195 343,195 344,195 345,195 346,195 346,195 347,195 348,195 348,195 349,195 350,195 351,195 351,195 352,195 353,195 354,195 354,195 355,195 356,195 356,195 357,195 358,195 359,195 359,195 360,195 361,195 362,195 362,195 363,195 364,195 364,195 365,195 366,195 367,195 367,195 368,195 369,195 369,195 370,195 371,195 372,195 372,195 373,195 374,195 375,195 375,195 376,195 377,195 377,195 378,195 379,195 380,195 380,195 381,195 382,195 383,195 383,195 384,195 385,195 385,195 386,195 387,195 388,195 388,195 389,195 390,195 390,195 391,195 392,195 393,195 393,195 394,195 395,195 396,195 396,195 397,195 398,195 398,195 399,195 400,195 401,195 401,195 402,195 403,195 403,195 404,195 405,195 406,195 406,195 407,195 408,195 409,195 409,195 410,195 411,195 411,195 412,195 413,195 414,195 414,195 415,195 416,195 417,195 417,195 418,195 419,195 419,195 420,195 421,195 422,195 422,195 423,195 424,195 424,195 425,195 426,195 427,195 427,195 428,195 429,195 430,195 430,195 431,195 432,195 432,195 433,195 434,195 435,195 435,195 436,195 437,195 437,195 438,195 439,195 440,195 440,195 441,195 442,195 443,195 443,195 444,195 445,195 445,195 446,195 447,195 448,195 448,195 449,195 450,195 451,195 451,195 452,195 453,195 453,195 454,195 455,195 456,195 456,195 457,195 458,195 458,195 459,195 460,195 461,195 461,195 462,195 463,195 464,195 464,195 465,195 466,195 466,195 467,195 468,195 469,195 469,195 470,195 471,195 472,195 472,195 473,195 474,195 474,195 475,195 476,195 477,195 477,195 478,195 479,195 479,195 480,195 481,195 482,195 482,195 483,195 484,195 485,195 485,195 486,195 487,195 487,195 488,195 489,195 490,195 490,195 491,195 492,195 492,195 493,195 494,195 495,195 495,195 496,195 497,195 498,195 498,195 499,195 500,195 500,195 501,195 502,195 503,195 503,195 504,195 505,195 506,195 506,195 507,195 508,195 508,195 509,195 510,195 511,195 511,195 512,195 513,195 513,195 514,195 515,195 516,195 516,195 517,195 518,195 519,195 519,195 520,195 521,195 521,195 522,195 523,195 524,195 524,195 525,195 526,195 527,195 527,195 528,195 529,195 529,195 530,195 531,195 532,195 532,195 533,195 534,195 534,195 535,195 536,195 537,195 537,195 538,195 539,195 540,195 540,195 541,195 542,195 542,195 543,195 544,195 545,195 545,195 546,195 547,195 547,195 548,195 549,195 550,195 550,195 551,195 552,195 553,195 553,195 554,195 555,195 555,195 556,195 557,195 558,195 558,195 559,195 560,195 561,195 561,195 562,195 563,195 563,195 564,195 565,195 566,195 566,195 567,195 568,195 568,195 569,195 570,195 571,195 571,195 572,195 573,195 574,195 574,195 575,195 576,195 576,195 577,195 578,195 579,195 579,195 580,195 581,195 581,195 582,195 583,195 584,195 584,195 585,195 586,195 587,195 587,195 588,195 589,195 589,195 590,195 591,195 592,195 592,195 593,195 594,195 595,195 595,195 596,195 597,195 597,195 598,195 599,195 600,195 600,195 601,195 602,195 602,195 603,195 604,195 605,195 605,195 606,195 607,195 608,195 608,195 609,195 610,195 610,195 611,195 612,195 613,195 613,195 614,195 615,195 616,195 616,195 617,195 618,195 618,195 619,195 620,195 621,195 621,195 622,195 623,195 623,195 624,195 625,195 626,195 626,195 627,195 628,195 629,195 629,195 630,195 631,195 631,195 632,195 633,195 634,195 634,195 635,195 636,195 636,195 637,195 638,195 639,195 639,195 640,195 641,195 642,195 642,195 643,195 644,195 644,195 645,195 646,195 647,195 647,195 648,195 649,195 649,195 650,195 651,195 652,195 652,195 653,195 654,195 655,195 655,195 656,195 657,195 657,195 658,195 659,195 660,195 660,195 661,195 662,195 663,195 663,195 664,284 665,273 665,195 666,195 667,195 668,195 668,195 669,195 670,195 671,195 671,195 672,195 673,195 673,195 674,195 675,195 676,195 676,195 677,195 678,195 678,195 679,195 680,195 681,195 681,195 682,195 683,195 684,195 684,195 685,195 686,195 686,195 687,195 688,195 689,195 689,195 690,195 691,121 691,101 692,195 693,195 694,195 694,195 695,195 696,195 697,195 697,195 698,195 699,195 699,195 700,195 701,195 702,195 702,195 703,195 704,195 705,195 705,195 706,195 707,195 707,195 708,195 709,195 710,195 710,195 711,195 712,195 712,195 713,195 714,195 715,195 715,195 716,195 717,195 718,195 718,195 719,195 720,195 720,195 721,195 722,195 723,195 723,195 724,195 725,195 725,195 726,195 727,195 728,195 728,195 729,195 730,195 731,195 731,195 732,195 733,195 733,195 734,195 735,195 736,195 736,195 737,195 738,195 739,195 739,195 740,195 741,195 741,195 742,195 743,195 744,195 744,195 745,195 746,195 746,195 747,195 748,195 749,195 749,195 750,195 751,195 752,195 752,195 753,195 754,195 754,195 755,195 756,195 757,195 757,195 758,195 759,195 760,195" stroke="#e41a1c" fill="none" stroke-width="1.5" opacity="0.85"/><polyline points="40,195 40,195 41,195 42,195 42,195 43,195 44,195 45,195 45,195 46,195 47,195 47,195 48,195 49,195 50,195 50,195 51,195 52,195 53,195 53,195 54,195 55,195 55,195 56,195 57,195 58,195 58,195 59,195 60,195 60,195 61,195 62,195 63,195 63,195 64,195 65,195 66,195 66,195 67,195 68,195 68,195 69,195 70,195 71,195 71,195 72,195 73,195 74,195 74,195 75,195 76,195 76,195 77,195 78,195 79,195 79,195 80,195 81,195 81,195 82,195 83,195 84,195 84,195 85,195 86,195 87,195 87,195 88,195 89,195 89,195 90,195 91,195 92,195 92,195 93,195 94,195 95,195 95,195 96,195 97,195 97,195 98,195 99,195 100,195 100,195 101,195 102,195 102,195 103,195 104,195 105,195 105,195 106,195 107,195 108,195 108,195 109,195 110,195 110,195 111,195 112,105 113,114 113,195 114,195 115,195 116,195 116,195 117,195 118,195 118,195 119,195 120,195 121,195 121,195 122,195 123,195 123,195 124,195 125,195 126,195 126,195 127,195 128,195 129,195 129,195 130,195 131,195 131,195 132,195 133,195 134,195 134,195 135,195 136,195 136,195 137,195 138,195 139,195 139,195 140,195 141,195 142,195 142,195 143,195 144,195 144,195 145,195 146,195 147,195 147,195 148,195 149,195 150,195 150,195 151,195 152,195 152,355 153,205 154,195 155,195 155,195 156,195 157,195 157,195 158,195 159,195 160,195 160,195 161,195 162,195 163,195 163,195 164,195 165,195 165,195 166,195 167,195 168,195 168,195 169,195 170,195 170,195 171,195 172,195 173,195 173,195 174,195 175,195 176,195 176,195 177,195 178,195 178,195 179,195 180,195 181,195 181,195 182,195 183,195 184,195 184,195 185,195 186,195 186,195 187,195 188,195 189,195 189,195 190,195 191,195 191,195 192,195 193,195 194,195 194,195 195,195 196,195 197,195 197,195 198,195 199,195 199,195 200,195 201,195 202,195 202,195 203,195 204,195 205,195 205,195 206,195 207,195 207,195 208,195 209,195 210,195 210,195 211,195 212,195 212,195 213,195 214,195 215,195 215,195 216,195 217,195 218,195 218,195 219,195 220,195 220,195 221,195 222,195 223,195 223,195 224,195 225,195 225,195 226,195 227,195 228,195 228,195 229,195 230,195 231,195 231,195 232,195 233,195 233,195 234,195 235,195 236,195 236,195 237,195 238,195 239,195 239,195 240,195 241,195 241,195 242,195 243,195 244,195 244,195 245,195 246,195 246,195 247,195 248,195 249,195 249,195 250,195 251,195 252,195 252,195 253,195 254,195 254,195 255,195 256,195 257,195 257,195 258,195 259,195 260,195 260,195 261,195 262,195 262,195 263,195 264,195 265,195 265,195 266,195 267,195 267,195 268,195 269,195 270,195 270,195 271,195 272,195 273,195 273,195 274,195 275,195 275,195 276,195 277,195 278,195 278,195 279,195 280,195 280,195 281,195 282,195 283,195 283,195 284,195 285,241 286,318 286,195 287,195 288,195 288,195 289,195 290,195 291,195 291,195 292,195 293,195 294,195 294,195 295,195 296,195 296,195 297,195 298,195 299,195 299,195 300,195 301,195 301,195 302,195 303,195 304,195 304,195 305,195 306,195 307,195 307,195 308,195 309,195 309,195 310,195 311,195 312,195 312,195 313,195 314,195 314,195 315,195 316,195 317,195 317,195 318,195 319,195 320,195 320,195 321,195 322,195 322,195 323,195 324,195 325,195 325,76 326,147 327,195 328,195 328,195 329,195 330,195 330,195 331,195 332,195 333,195 333,195 334,195 335,195 335,195 336,195 337,195 338,195 338,195 339,195 340,195 341,195 341,195 342,195 343,195 343,195 344,195 345,195 346,195 346,195 347,195 348,195 348,195 349,195 350,195 351,195 351,195 352,195 353,195 354,195 354,195 355,195 356,195 356,195 357,195 358,195 359,195 359,195 360,195 361,195 362,195 362,195 363,195 364,195 364,195 365,195 366,195 367,195 367,195 368,195 369,195 369,195 370,195 371,195 372,195 372,195 373,195 374,195 375,195 375,195 376,195 377,195 377,195 378,195 379,195 380,195 380,195 381,195 382,195 383,195 383,195 384,195 385,195 385,195 386,195 387,195 388,195 388,195 389,195 390,195 390,195 391,195 392,195 393,195 393,195 394,195 395,195 396,195 396,195 397,195 398,195 398,195 399,195 400,195 401,195 401,195 402,195 403,195 403,195 404,195 405,195 406,195 406,195 407,195 408,195 409,195 409,195 410,195 411,195 411,195 412,195 413,195 414,195 414,195 415,195 416,195 417,195 417,195 418,195 419,195 419,195 420,195 421,195 422,195 422,195 423,195 424,195 424,195 425,195 426,195 427,195 427,195 428,195 429,195 430,195 430,195 431,195 432,195 432,195 433,195 434,195 435,195 435,195 436,195 437,195 437,195 438,195 439,195 440,195 440,195 441,195 442,195 443,195 443,195 444,195 445,195 445,195 446,195 447,195 448,195 448,195 449,195 450,195 451,195 451,195 452,195 453,195 453,195 454,195 455,195 456,195 456,195 457,195 458,195 458,195 459,195 460,195 461,195 461,195 462,195 463,195 464,106 464,116 465,195 466,195 466,195 467,195 468,195 469,195 469,195 470,195 471,195 472,195 472,195 473,195 474,195 474,195 475,195 476,195 477,195 477,195 478,195 479,195 479,195 480,195 481,195 482,195 482,195 483,195 484,195 485,195 485,195 486,195 487,195 487,195 488,195 489,195 490,195 490,195 491,195 492,195 492,195 493,195 494,195 495,195 495,195 496,195 497,195 498,195 498,195 499,195 500,195 500,195 501,195 502,195 503,195 503,195 504,358 505,205 506,195 506,195 507,195 508,195 508,195 509,195 510,195 511,195 511,195 512,195 513,195 513,195 514,195 515,195 516,195 516,195 517,195 518,195 519,195 519,195 520,195 521,195 521,195 522,195 523,195 524,195 524,195 525,195 526,195 527,195 527,195 528,195 529,195 529,195 530,195 531,195 532,195 532,195 533,195 534,195 534,195 535,195 536,195 537,195 537,195 538,195 539,195 540,195 540,195 541,195 542,195 542,195 543,195 544,195 545,195 545,195 546,195 547,195 547,195 548,195 549,195 550,195 550,195 551,195 552,195 553,195 553,195 554,195 555,195 555,195 556,195 557,195 558,195 558,195 559,195 560,195 561,195 561,195 562,195 563,195 563,195 564,360 565,195 566,195 566,195 567,195 568,195 568,195 569,195 570,195 571,195 571,195 572,195 573,195 574,195 574,195 575,195 576,195 576,195 577,195 578,195 579,195 579,195 580,195 581,195 581,195 582,195 583,195 584,195 584,195 585,195 586,195 587,195 587,195 588,195 589,195 589,195 590,195 591,195 592,195 592,195 593,195 594,195 595,195 595,195 596,195 597,195 597,195 598,195 599,195 600,195 600,195 601,195 602,195 602,195 603,195 604,120 605,104 605,195 606,195 607,195 608,195 608,195 609,195 610,195 610,195 611,195 612,195 613,195 613,195 614,195 615,195 616,195 616,195 617,195 618,195 618,195 619,195 620,195 621,195 621,195 622,195 623,195 623,195 624,195 625,195 626,195 626,195 627,195 628,195 629,195 629,195 630,195 631,195 631,195 632,195 633,195 634,195 634,195 635,195 636,195 636,195 637,195 638,195 639,195 639,195 640,195 641,195 642,195 642,195 643,195 644,195 644,195 645,195 646,195 647,195 647,195 648,195 649,195 649,195 650,195 651,195 652,195 652,195 653,195 654,195 655,195 655,195 656,195 657,195 657,195 658,195 659,195 660,195 660,195 661,195 662,195 663,195 663,195 664,195 665,195 665,195 666,195 667,195 668,195 668,195 669,195 670,195 671,195 671,195 672,195 673,195 673,195 674,195 675,195 676,195 676,195 677,195 678,195 678,195 679,195 680,195 681,195 681,195 682,195 683,195 684,195 684,195 685,195 686,195 686,195 687,195 688,195 689,195 689,195 690,195 691,195 691,195 692,195 693,195 694,195 694,195 695,195 696,195 697,195 697,195 698,195 699,195 699,195 700,195 701,195 702,195 702,195 703,195 704,195 705,195 705,195 706,195 707,195 707,195 708,195 709,195 710,195 710,195 711,195 712,195 712,195 713,195 714,195 715,195 715,195 716,195 717,195 718,195 718,195 719,195 720,195 720,195 721,195 722,195 723,195 723,195 724,195 725,195 725,195 726,195 727,195 728,195 728,195 729,195 730,195 731,195 731,195 732,195 733,195 733,195 734,195 735,195 736,195 736,195 737,195 738,195 739,195 739,195 740,195 741,195 741,195 742,195 743,195 744,195 744,195 745,195 746,195 746,195 747,195 748,195 749,195 749,195 750,195 751,195 752,195 752,195 753,195 754,195 754,195 755,195 756,195 757,195 757,195 758,195 759,195 760,195" stroke="#377eb8" fill="none" stroke-width="1.5" opacity="0.85"/><polyline points="40,195 40,195 41,195 42,195 42,195 43,195 44,195 45,195 45,195 46,195 47,195 47,195 48,195 49,195 50,195 50,195 51,195 52,195 53,195 53,195 54,195 55,195 55,195 56,195 57,195 58,195 58,195 59,195 60,195 60,195 61,195 62,195 63,195 63,195 64,195 65,195 66,195 66,195 67,195 68,195 68,195 69,195 70,195 71,195 71,195 72,195 73,195 74,195 74,195 75,195 76,195 76,195 77,195 78,195 79,195 79,195 80,195 81,195 81,195 82,195 83,195 84,195 84,195 85,195 86,195 87,195 87,195 88,195 89,195 89,195 90,195 91,195 92,195 92,195 93,195 94,195 95,195 95,195 96,195 97,195 97,195 98,195 99,195 100,195 100,195 101,195 102,195 102,195 103,195 104,195 105,195 105,195 106,195 107,195 108,195 108,195 109,195 110,195 110,195 111,195 112,105 113,114 113,195 114,195 115,195 116,195 116,195 117,195 118,195 118,195 119,195 120,195 121,195 121,195 122,195 123,195 123,195 124,195 125,195 126,195 126,195 127,195 128,195 129,195 129,195 130,195 131,195 131,195 132,195 133,195 134,195 134,195 135,195 136,195 136,195 137,195 138,195 139,195 139,195 140,195 141,195 142,195 142,195 143,195 144,195 144,195 145,195 146,195 147,195 147,195 148,195 149,195 150,195 150,195 151,195 152,195 152,355 153,205 154,195 155,195 155,195 156,195 157,195 157,195 158,195 159,195 160,195 160,195 161,195 162,195 163,195 163,195 164,195 165,195 165,195 166,195 167,195 168,195 168,195 169,195 170,195 170,195 171,195 172,195 173,195 173,195 174,195 175,195 176,195 176,195 177,195 178,195 178,195 179,195 180,195 181,195 181,195 182,195 183,195 184,195 184,195 185,195 186,195 186,195 187,195 188,195 189,195 189,195 190,195 191,195 191,195 192,195 193,195 194,195 194,195 195,195 196,195 197,195 197,195 198,195 199,195 199,195 200,195 201,195 202,195 202,195 203,195 204,195 205,195 205,195 206,195 207,195 207,195 208,195 209,195 210,195 210,195 211,195 212,195 212,195 213,195 214,195 215,195 215,195 216,195 217,195 218,195 218,195 219,195 220,195 220,195 221,195 222,195 223,195 223,195 224,195 225,195 225,195 226,195 227,195 228,195 228,195 229,195 230,195 231,195 231,195 232,195 233,195 233,195 234,195 235,195 236,195 236,195 237,195 238,195 239,195 239,195 240,195 241,195 241,195 242,195 243,195 244,195 244,195 245,195 246,195 246,195 247,195 248,195 249,195 249,195 250,195 251,195 252,195 252,195 253,195 254,195 254,195 255,195 256,195 257,195 257,195 258,195 259,195 260,195 260,195 261,195 262,195 262,195 263,195 264,195 265,195 265,195 266,195 267,195 267,195 268,195 269,195 270,195 270,195 271,195 272,195 273,195 273,195 274,195 275,195 275,195 276,195 277,195 278,195 278,195 279,195 280,195 280,195 281,195 282,195 283,195 283,195 284,195 285,241 286,318 286,195 287,195 288,195 288,195 289,195 290,195 291,195 291,195 292,195 293,195 294,195 294,195 295,195 296,195 296,195 297,195 298,195 299,195 299,195 300,195 301,195 301,195 302,195 303,195 304,195 304,195 305,195 306,195 307,195 307,195 308,195 309,195 309,195 310,195 311,195 312,195 312,195 313,195 314,195 314,195 315,195 316,195 317,195 317,195 318,195 319,195 320,195 320,195 321,195 322,195 322,195 323,195 324,195 325,195 325,76 326,147 327,195 328,195 328,195 329,195 330,195 330,195 331,195 332,195 333,195 333,195 334,195 335,195 335,195 336,195 337,195 338,195 338,195 339,195 340,195 341,195 341,195 342,195 343,195 343,195 344,195 345,195 346,195 346,195 347,195 348,195 348,195 349,195 350,195 351,195 351,195 352,195 353,195 354,195 354,195 355,195 356,195 356,195 357,195 358,195 359,195 359,195 360,195 361,195 362,195 362,195 363,195 364,195 364,195 365,195 366,195 367,195 367,195 368,195 369,195 369,195 370,195 371,195 372,195 372,195 373,195 374,195 375,195 375,195 376,195 377,195 377,195 378,195 379,195 380,195 380,195 381,195 382,195 383,195 383,195 384,195 385,195 385,195 386,195 387,195 388,195 388,195 389,195 390,195 390,195 391,195 392,195 393,195 393,195 394,195 395,195 396,195 396,195 397,195 398,195 398,195 399,195 400,195 401,195 401,195 402,195 403,195 403,195 404,195 405,195 406,195 406,195 407,195 408,195 409,195 409,195 410,195 411,195 411,195 412,195 413,195 414,195 414,195 415,195 416,195 417,195 417,195 418,195 419,195 419,195 420,195 421,195 422,195 422,195 423,195 424,195 424,195 425,195 426,195 427,195 427,195 428,195 429,195 430,195 430,195 431,195 432,195 432,195 433,195 434,195 435,195 435,195 436,195 437,195 437,195 438,195 439,195 440,195 440,195 441,195 442,195 443,195 443,195 444,195 445,195 445,195 446,195 447,195 448,195 448,195 449,195 450,195 451,195 451,195 452,195 453,195 453,195 454,195 455,195 456,195 456,195 457,195 458,195 458,195 459,195 460,195 461,195 461,195 462,195 463,195 464,106 464,116 465,195 466,195 466,195 467,195 468,195 469,195 469,195 470,195 471,195 472,195 472,195 473,195 474,195 474,195 475,195 476,195 477,195 477,195 478,195 479,195 479,195 480,195 481,195 482,195 482,195 483,195 484,195 485,195 485,195 486,195 487,195 487,195 488,195 489,195 490,195 490,195 491,195 492,195 492,195 493,195 494,195 495,195 495,195 496,195 497,195 498,195 498,195 499,195 500,195 500,195 501,195 502,195 503,195 503,195 504,358 505,205 506,195 506,195 507,195 508,195 508,195 509,195 510,195 511,195 511,195 512,195 513,195 513,195 514,195 515,195 516,195 516,195 517,195 518,195 519,195 519,195 520,195 521,195 521,195 522,195 523,195 524,195 524,195 525,195 526,195 527,195 527,195 528,195 529,195 529,195 530,195 531,195 532,195 532,195 533,195 534,195 534,195 535,195 536,195 537,195 537,195 538,195 539,195 540,195 540,195 541,195 542,195 542,195 543,195 544,195 545,195 545,195 546,195 547,195 547,195 548,195 549,195 550,195 550,195 551,195 552,195 553,195 553,195 554,195 555,195 555,195 556,195 557,195 558,195 558,195 559,195 560,195 561,195 561,195 562,195 563,195 563,195 564,360 565,195 566,195 566,195 567,195 568,195 568,195 569,195 570,195 571,195 571,195 572,195 573,195 574,195 574,195 575,195 576,195 576,195 577,195 578,195 579,195 579,195 580,195 581,195 581,195 582,195 583,195 584,195 584,195 585,195 586,195 587,195 587,195 588,195 589,195 589,195 590,195 591,195 592,195 592,195 593,195 594,195 595,195 595,195 596,195 597,195 597,195 598,195 599,195 600,195 600,195 601,195 602,195 602,195 603,195 604,120 605,104 605,195 606,195 607,195 608,195 608,195 609,195 610,195 610,195 611,195 612,195 613,195 613,195 614,195 615,195 616,195 616,195 617,195 618,195 618,195 619,195 620,195 621,195 621,195 622,195 623,195 623,195 624,195 625,195 626,195 626,195 627,195 628,195 629,195 629,195 630,195 631,195 631,195 632,195 633,195 634,195 634,195 635,195 636,195 636,195 637,195 638,195 639,195 639,195 640,195 641,195 642,195 642,195 643,195 644,195 644,195 645,195 646,195 647,195 647,195 648,195 649,195 649,195 650,195 651,195 652,195 652,195 653,195 654,195 655,195 655,195 656,195 657,195 657,195 658,195 659,195 660,195 660,195 661,195 662,195 663,195 663,195 664,195 665,195 665,195 666,195 667,195 668,195 668,195 669,195 670,195 671,195 671,195 672,195 673,195 673,195 674,195 675,195 676,195 676,195 677,195 678,195 678,195 679,195 680,195 681,195 681,195 682,195 683,195 684,195 684,195 685,195 686,195 686,195 687,195 688,195 689,195 689,195 690,195 691,195 691,195 692,195 693,195 694,195 694,195 695,195 696,195 697,195 697,195 698,195 699,195 699,195 700,195 701,195 702,195 702,195 703,195 704,195 705,195 705,195 706,195 707,195 707,195 708,195 709,195 710,195 710,195 711,195 712,195 712,195 713,195 714,195 715,195 715,195 716,195 717,195 718,195 718,195 719,195 720,195 720,195 721,195 722,195 723,195 723,195 724,195 725,195 725,195 726,195 727,195 728,195 728,195 729,195 730,195 731,195 731,195 732,195 733,195 733,195 734,195 735,195 736,195 736,195 737,195 738,195 739,195 739,195 740,195 741,195 741,195 742,195 743,195 744,195 744,195 745,195 746,195 746,195 747,195 748,195 749,195 749,195 750,195 751,195 752,195 752,195 753,195 754,195 754,195 755,195 756,195 757,195 757,195 758,195 759,195 760,195" stroke="#4daf4a" fill="none" stroke-width="1.5" opacity="0.85"/><polyline points="40,195 40,195 41,195 42,195 42,195 43,195 44,195 45,195 45,195 46,195 47,195 47,195 48,195 49,195 50,195 50,195 51,195 52,195 53,195 53,195 54,195 55,195 55,195 56,195 57,195 58,195 58,195 59,195 60,195 60,195 61,195 62,195 63,195 63,195 64,195 65,195 66,195 66,195 67,195 68,195 68,195 69,195 70,195 71,195 71,195 72,195 73,195 74,195 74,195 75,195 76,195 76,195 77,195 78,195 79,195 79,195 80,195 81,195 81,195 82,195 83,195 84,195 84,195 85,195 86,195 87,195 87,195 88,195 89,195 89,195 90,195 91,195 92,195 92,195 93,195 94,195 95,195 95,195 96,195 97,195 97,195 98,195 99,195 100,195 100,195 101,195 102,195 102,195 103,195 104,195 105,195 105,195 106,195 107,195 108,195 108,195 109,195 110,195 110,195 111,195 112,195 113,195 113,195 114,195 115,195 116,195 116,195 117,195 118,195 118,195 119,195 120,195 121,195 121,195 122,195 123,195 123,195 124,195 125,195 126,195 126,195 127,195 128,195 129,195 129,195 130,195 131,195 131,195 132,195 133,195 134,195 134,195 135,195 136,195 136,195 137,195 138,195 139,195 139,195 140,195 141,195 142,195 142,195 143,195 144,195 144,195 145,195 146,195 147,195 147,195 148,195 149,195 150,195 150,195 151,195 152,195 152,195 153,195 154,195 155,195 155,195 156,195 157,195 157,195 158,195 159,195 160,195 160,195 161,195 162,195 163,195 163,195 164,195 165,195 165,195 166,195 167,195 168,195 168,195 169,195 170,195 170,195 171,195 172,195 173,195 173,195 174,195 175,195 176,195 176,195 177,195 178,195 178,195 179,195 180,195 181,195 181,195 182,195 183,195 184,195 184,195 185,195 186,195 186,195 187,195 188,195 189,195 189,195 190,195 191,195 191,195 192,195 193,195 194,195 194,195 195,195 196,195 197,195 197,195 198,195 199,195 199,195 200,195 201,195 202,195 202,195 203,195 204,195 205,195 205,195 206,195 207,195 207,195 208,195 209,195 210,195 210,195 211,195 212,195 212,195 213,195 214,195 215,195 215,195 216,195 217,195 218,195 218,195 219,195 220,195 220,195 221,195 222,195 223,195 223,195 224,195 225,195 225,195 226,195 227,195 228,195 228,195 229,195 230,195 231,195 231,195 232,195 233,195 233,195 234,195 235,195 236,195 236,195 237,195 238,195 239,195 239,195 240,195 241,195 241,195 242,195 243,195 244,195 244,195 245,195 246,195 246,195 247,195 248,195 249,195 249,195 250,195 251,195 252,195 252,195 253,195 254,195 254,195 255,195 256,195 257,195 257,195 258,195 259,195 260,195 260,195 261,195 262,195 262,195 263,195 264,195 265,195 265,195 266,195 267,195 267,195 268,195 269,195 270,195 270,195 271,195 272,195 273,195 273,195 274,195 275,195 275,195 276,195 277,195 278,195 278,195 279,195 280,195 280,195 281,195 282,195 283,195 283,195 284,195 285,195 286,195 286,195 287,195 288,195 288,195 289,195 290,195 291,195 291,195 292,195 293,195 294,195 294,195 295,195 296,195 296,195 297,195 298,195 299,195 299,195 300,195 301,195 301,195 302,195 303,195 304,195 304,195 305,195 306,195 307,195 307,195 308,195 309,195 309,195 310,195 311,195 312,195 312,195 313,195 314,195 314,195 315,195 316,195 317,195 317,195 318,195 319,195 320,195 320,195 321,195 322,195 322,195 323,195 324,195 325,195 325,195 326,195 327,195 328,195 328,195 329,195 330,195 330,195 331,195 332,195 333,195 333,195 334,195 335,195 335,195 336,195 337,195 338,195 338,195 339,195 340,195 341,195 341,195 342,195 343,195 343,195 344,195 345,195 346,195 346,195 347,195 348,195 348,195 349,195 350,195 351,195 351,195 352,195 353,195 354,195 354,195 355,195 356,195 356,195 357,195 358,195 359,195 359,195 360,195 361,195 362,195 362,195 363,195 364,195 364,195 365,195 366,195 367,195 367,195 368,195 369,195 369,195 370,195 371,195 372,195 372,195 373,195 374,195 375,195 375,195 376,195 377,195 377,195 378,195 379,195 380,195 380,195 381,195 382,195 383,195 383,195 384,195 385,195 385,195 386,195 387,195 388,195 388,195 389,195 390,195 390,195 391,195 392,195 393,195 393,195 394,195 395,195 396,195 396,195 397,195 398,195 398,195 399,195 400,195 401,195 401,195 402,195 403,195 403,195 404,195 405,195 406,195 406,195 407,195 408,195 409,195 409,195 410,195 411,195 411,195 412,195 413,195 414,195 414,195 415,195 416,195 417,195 417,195 418,195 419,195 419,195 420,195 421,195 422,195 422,195 423,195 424,195 424,195 425,195 426,195 427,195 427,195 428,195 429,195 430,195 430,195 431,195 432,195 432,195 433,195 434,195 435,195 435,195 436,195 437,195 437,195 438,195 439,195 440,195 440,195 441,195 442,195 443,195 443,195 444,195 445,195 445,195 446,195 447,195 448,195 448,195 449,195 450,195 451,195 451,195 452,195 453,195 453,195 454,195 455,195 456,195 456,195 457,195 458,195 458,195 459,195 460,195 461,195 461,195 462,195 463,195 464,195 464,195 465,195 466,195 466,195 467,195 468,195 469,195 469,195 470,195 471,195 472,195 472,195 473,195 474,195 474,195 475,195 476,195 477,195 477,195 478,195 479,195 479,195 480,195 481,195 482,195 482,195 483,195 484,195 485,195 485,195 486,195 487,195 487,195 488,195 489,195 490,195 490,195 491,195 492,195 492,195 493,195 494,195 495,195 495,195 496,195 497,195 498,195 498,195 499,195 500,195 500,195 501,195 502,195 503,195 503,195 504,195 505,195 506,195 506,195 507,195 508,195 508,195 509,195 510,195 511,195 511,195 512,195 513,195 513,195 514,195 515,195 516,195 516,195 517,195 518,195 519,195 519,195 520,195 521,195 521,195 522,195 523,195 524,195 524,195 525,195 526,195 527,195 527,195 528,195 529,195 529,195 530,195 531,195 532,195 532,195 533,195 534,195 534,195 535,195 536,195 537,195 537,195 538,195 539,195 540,195 540,195 541,195 542,195 542,195 543,195 544,195 545,195 545,195 546,195 547,195 547,195 548,195 549,195 550,195 550,195 551,195 552,195 553,195 553,195 554,195 555,195 555,195 556,195 557,195 558,195 558,195 559,195 560,195 561,195 561,195 562,195 563,195 563,195 564,195 565,195 566,195 566,195 567,195 568,195 568,195 569,195 570,195 571,195 571,195 572,195 573,195 574,195 574,195 575,195 576,195 576,195 577,195 578,195 579,195 579,195 580,195 581,195 581,195 582,195 583,195 584,195 584,195 585,195 586,195 587,195 587,195 588,195 589,195 589,195 590,195 591,195 592,195 592,195 593,195 594,195 595,195 595,195 596,195 597,195 597,195 598,195 599,195 600,195 600,195 601,195 602,195 602,195 603,195 604,195 605,195 605,195 606,195 607,195 608,195 608,195 609,195 610,195 610,195 611,195 612,195 613,195 613,195 614,195 615,195 616,195 616,195 617,195 618,195 618,195 619,195 620,195 621,195 621,195 622,195 623,195 623,195 624,195 625,195 626,195 626,195 627,195 628,195 629,195 629,195 630,195 631,195 631,195 632,195 633,195 634,195 634,195 635,195 636,195 636,195 637,195 638,195 639,195 639,195 640,195 641,195 642,195 642,195 643,195 644,195 644,195 645,195 646,195 647,195 647,195 648,195 649,195 649,195 650,195 651,195 652,195 652,195 653,195 654,195 655,195 655,195 656,195 657,195 657,195 658,195 659,195 660,195 660,195 661,195 662,195 663,195 663,195 664,195 665,195 665,195 666,195 667,195 668,195 668,195 669,195 670,195 671,195 671,195 672,195 673,195 673,195 674,195 675,195 676,195 676,195 677,195 678,195 678,195 679,195 680,195 681,195 681,195 682,195 683,195 684,195 684,195 685,195 686,195 686,195 687,195 688,195 689,195 689,195 690,195 691,195 691,195 692,195 693,195 694,195 694,195 695,195 696,195 697,195 697,195 698,195 699,195 699,195 700,195 701,195 702,195 702,195 703,195 704,195 705,195 705,195 706,195 707,195 707,195 708,195 709,195 710,195 710,195 711,195 712,195 712,195 713,195 714,195 715,195 715,195 716,195 717,195 718,195 718,195 719,195 720,195 720,195 721,195 722,195 723,195 723,195 724,195 725,195 725,195 726,195 727,195 728,195 728,195 729,195 730,195 731,195 731,195 732,195 733,195 733,195 734,195 735,195 736,195 736,195 737,195 738,195 739,195 739,195 740,195 741,195 741,195 742,195 743,195 744,195 744,195 745,195 746,195 746,195 747,195 748,195 749,195 749,195 750,195 751,195 752,195 752,195 753,195 754,195 754,195 755,195 756,195 757,195 757,195 758,195 759,195 760,195" stroke="#984ea3" fill="none" stroke-width="1.5" opacity="0.85"/><polyline points="40,195 40,195 41,195 42,195 42,195 43,195 44,195 45,195 45,195 46,195 47,195 47,195 48,195 49,195 50,195 50,195 51,195 52,195 53,195 53,195 54,195 55,195 55,195 56,195 57,195 58,195 58,195 59,195 60,195 60,195 61,195 62,195 63,195 63,195 64,195 65,195 66,195 66,195 67,195 68,195 68,195 69,195 70,195 71,195 71,195 72,195 73,195 74,195 74,195 75,195 76,195 76,195 77,195 78,195 79,195 79,195 80,195 81,195 81,195 82,195 83,195 84,195 84,195 85,195 86,195 87,195 87,195 88,195 89,195 89,195 90,195 91,195 92,195 92,195 93,195 94,195 95,195 95,195 96,195 97,195 97,195 98,195 99,195 100,195 100,195 101,195 102,195 102,195 103,195 104,195 105,195 105,195 106,195 107,195 108,195 108,195 109,195 110,195 110,195 111,195 112,195 113,195 113,195 114,195 115,195 116,195 116,195 117,195 118,195 118,195 119,195 120,195 121,195 121,195 122,195 123,195 123,195 124,195 125,195 126,195 126,195 127,195 128,195 129,195 129,195 130,195 131,195 131,195 132,195 133,195 134,195 134,195 135,195 136,195 136,195 137,195 138,195 139,195 139,195 140,195 141,195 142,195 142,195 143,195 144,195 144,195 145,195 146,195 147,195 147,195 148,195 149,195 150,195 150,195 151,195 152,195 152,195 153,195 154,195 155,195 155,195 156,195 157,195 157,195 158,195 159,195 160,195 160,195 161,195 162,195 163,195 163,195 164,195 165,195 165,195 166,195 167,195 168,195 168,195 169,195 170,195 170,195 171,195 172,195 173,195 173,195 174,195 175,195 176,195 176,195 177,195 178,195 178,195 179,195 180,195 181,195 181,195 182,195 183,195 184,195 184,195 185,195 186,195 186,195 187,195 188,195 189,195 189,195 190,195 191,195 191,195 192,195 193,195 194,195 194,195 195,195 196,195 197,195 197,195 198,195 199,195 199,195 200,195 201,195 202,195 202,195 203,195 204,195 205,195 205,195 206,195 207,195 207,195 208,195 209,195 210,195 210,195 211,195 212,195 212,195 213,195 214,195 215,195 215,195 216,195 217,195 218,195 218,195 219,195 220,195 220,195 221,195 222,195 223,195 223,195 224,195 225,195 225,195 226,195 227,195 228,195 228,195 229,195 230,195 231,195 231,195 232,195 233,195 233,195 234,195 235,195 236,195 236,195 237,195 238,195 239,195 239,195 240,195 241,195 241,195 242,195 243,195 244,195 244,195 245,195 246,195 246,195 247,195 248,195 249,195 249,195 250,195 251,195 252,195 252,195 253,195 254,195 254,195 255,195 256,195 257,195 257,195 258,195 259,195 260,195 260,195 261,195 262,195 262,195 263,195 264,195 265,195 265,195 266,195 267,195 267,195 268,195 269,195 270,195 270,195 271,195 272,195 273,195 273,195 274,195 275,195 275,195 276,195 277,195 278,195 278,195 279,195 280,195 280,195 281,195 282,195 283,195 283,195 284,195 285,195 286,195 286,195 287,195 288,195 288,195 289,195 290,195 291,195 291,195 292,195 293,195 294,195 294,195 295,195 296,195 296,195 297,195 298,195 299,195 299,195 300,195 301,195 301,195 302,195 303,195 304,195 304,195 305,195 306,195 307,195 307,195 308,195 309,195 309,195 310,195 311,195 312,195 312,195 313,195 314,195 314,195 315,195 316,195 317,195 317,195 318,195 319,195 320,195 320,195 321,195 322,195 322,195 323,195 324,195 325,195 325,195 326,195 327,195 328,195 328,195 329,195 330,195 330,195 331,195 332,195 333,195 333,195 334,195 335,195 335,195 336,195 337,195 338,195 338,195 339,195 340,195 341,195 341,195 342,195 343,195 343,195 344,195 345,195 346,195 346,195 347,195 348,195 348,195 349,195 350,195 351,195 351,195 352,195 353,195 354,195 354,195 355,195 356,195 356,195 357,195 358,195 359,195 359,195 360,195 361,195 362,195 362,195 363,195 364,195 364,195 365,195 366,195 367,195 367,195 368,195 369,195 369,195 370,195 371,195 372,195 372,195 373,195 374,195 375,195 375,195 376,195 377,195 377,195 378,195 379,195 380,195 380,195 381,195 382,195 383,195 383,195 384,195 385,195 385,195 386,195 387,195 388,195 388,195 389,195 390,195 390,195 391,195 392,195 393,195 393,195 394,195 395,195 396,195 396,195 397,195 398,195 398,195 399,195 400,195 401,195 401,195 402,195 403,195 403,195 404,195 405,195 406,195 406,195 407,195 408,195 409,195 409,195 410,195 411,195 411,195 412,195 413,195 414,195 414,195 415,195 416,195 417,195 417,195 418,195 419,195 419,195 420,195 421,195 422,195 422,195 423,195 424,195 424,195 425,195 426,195 427,195 427,195 428,195 429,195 430,195 430,195 431,195 432,195 432,195 433,195 434,195 435,195 435,195 436,195 437,195 437,195 438,195 439,195 440,195 440,195 441,195 442,195 443,195 443,195 444,195 445,195 445,195 446,195 447,195 448,195 448,195 449,195 450,195 451,195 451,195 452,195 453,195 453,195 454,195 455,195 456,195 456,195 457,195 458,195 458,195 459,195 460,195 461,195 461,195 462,195 463,195 464,195 464,195 465,195 466,195 466,195 467,195 468,195 469,195 469,195 470,195 471,195 472,195 472,195 473,195 474,195 474,195 475,195 476,195 477,195 477,195 478,195 479,195 479,195 480,195 481,195 482,195 482,195 483,195 484,195 485,195 485,195 486,195 487,195 487,195 488,195 489,195 490,195 490,195 491,195 492,195 492,195 493,195 494,195 495,195 495,195 496,195 497,195 498,195 498,195 499,195 500,195 500,195 501,195 502,195 503,195 503,195 504,195 505,195 506,195 506,195 507,195 508,195 508,195 509,195 510,195 511,195 511,195 512,195 513,195 513,195 514,195 515,195 516,195 516,195 517,195 518,195 519,195 519,195 520,195 521,195 521,195 522,195 523,195 524,195 524,195 525,195 526,195 527,195 527,195 528,195 529,195 529,195 530,195 531,195 532,195 532,195 533,195 534,195 534,195 535,195 536,195 537,195 537,195 538,195 539,195 540,195 540,195 541,195 542,195 542,195 543,195 544,195 545,195 545,195 546,195 547,195 547,195 548,195 549,195 550,195 550,195 551,195 552,195 553,195 553,195 554,195 555,195 555,195 556,195 557,195 558,195 558,195 559,195 560,195 561,195 561,195 562,195 563,195 563,195 564,195 565,195 566,195 566,195 567,195 568,195 568,195 569,195 570,195 571,195 571,195 572,195 573,195 574,195 574,195 575,195 576,195 576,195 577,195 578,195 579,195 579,195 580,195 581,195 581,195 582,195 583,195 584,195 584,195 585,195 586,195 587,195 587,195 588,195 589,195 589,195 590,195 591,195 592,195 592,195 593,195 594,195 595,195 595,195 596,195 597,195 597,195 598,195 599,195 600,195 600,195 601,195 602,195 602,195 603,195 604,195 605,195 605,195 606,195 607,195 608,195 608,195 609,195 610,195 610,195 611,195 612,195 613,195 613,195 614,195 615,195 616,195 616,195 617,195 618,195 618,195 619,195 620,195 621,195 621,195 622,195 623,195 623,195 624,195 625,195 626,195 626,195 627,195 628,195 629,195 629,195 630,195 631,195 631,195 632,195 633,195 634,195 634,195 635,195 636,195 636,195 637,195 638,195 639,195 639,195 640,195 641,195 642,195 642,195 643,195 644,195 644,195 645,195 646,195 647,195 647,195 648,195 649,195 649,195 650,195 651,195 652,195 652,195 653,195 654,195 655,195 655,195 656,195 657,195 657,195 658,195 659,195 660,195 660,195 661,195 662,195 663,195 663,195 664,195 665,195 665,195 666,195 667,195 668,195 668,195 669,195 670,195 671,195 671,195 672,195 673,195 673,195 674,195 675,195 676,195 676,195 677,195 678,195 678,195 679,195 680,195 681,195 681,195 682,195 683,195 684,195 684,195 685,195 686,195 686,195 687,195 688,195 689,195 689,195 690,195 691,195 691,195 692,195 693,195 694,195 694,195 695,195 696,195 697,195 697,195 698,195 699,195 699,195 700,195 701,195 702,195 702,195 703,195 704,195 705,195 705,195 706,195 707,195 707,195 708,195 709,195 710,195 710,195 711,195 712,195 712,195 713,195 714,195 715,195 715,195 716,195 717,195 718,195 718,195 719,195 720,195 720,195 721,195 722,195 723,195 723,195 724,195 725,195 725,195 726,195 727,195 728,195 728,195 729,195 730,195 731,195 731,195 732,195 733,195 733,195 734,195 735,195 736,195 736,195 737,195 738,195 739,195 739,195 740,195 741,195 741,195 742,195 743,195 744,195 744,195 745,195 746,195 746,195 747,195 748,195 749,195 749,195 750,195 751,195 752,195 752,195 753,195 754,195 754,195 755,195 756,195 757,195 757,195 758,195 759,195 760,195" stroke="#ff7f00" fill="none" stroke-width="1.5" opacity="0.85"/><polyline points="40,195 40,195 41,195 42,195 42,195 43,195 44,195 45,195 45,195 46,195 47,195 47,195 48,195 49,195 50,195 50,195 51,195 52,195 53,195 53,195 54,195 55,195 55,195 56,195 57,195 58,195 58,195 59,195 60,195 60,195 61,195 62,195 63,195 63,195 64,195 65,195 66,195 66,195 67,195 68,195 68,195 69,195 70,195 71,195 71,195 72,195 73,195 74,195 74,195 75,195 76,195 76,195 77,195 78,195 79,195 79,195 80,195 81,195 81,195 82,195 83,195 84,195 84,195 85,195 86,195 87,195 87,195 88,195 89,195 89,195 90,195 91,195 92,195 92,195 93,195 94,195 95,195 95,195 96,195 97,195 97,195 98,195 99,195 100,195 100,195 101,195 102,195 102,195 103,195 104,195 105,195 105,195 106,195 107,195 108,195 108,195 109,195 110,195 110,195 111,195 112,195 113,195 113,195 114,195 115,195 116,195 116,195 117,195 118,195 118,195 119,195 120,195 121,195 121,195 122,195 123,195 123,195 124,195 125,195 126,195 126,195 127,195 128,195 129,195 129,195 130,195 131,195 131,195 132,195 133,195 134,195 134,195 135,195 136,195 136,195 137,195 138,195 139,195 139,195 140,195 141,195 142,195 142,195 143,195 144,195 144,195 145,195 146,195 147,195 147,195 148,195 149,195 150,195 150,195 151,195 152,195 152,195 153,195 154,195 155,195 155,195 156,195 157,195 157,195 158,195 159,195 160,195 160,195 161,195 162,195 163,195 163,195 164,195 165,195 165,195 166,195 167,195 168,195 168,195 169,195 170,195 170,195 171,195 172,195 173,195 173,195 174,195 175,195 176,195 176,195 177,195 178,195 178,195 179,195 180,195 181,195 181,195 182,195 183,195 184,195 184,195 185,195 186,195 186,195 187,195 188,195 189,195 189,195 190,195 191,195 191,195 192,195 193,195 194,195 194,195 195,195 196,195 197,195 197,195 198,195 199,195 199,195 200,195 201,195 202,195 202,195 203,195 204,195 205,195 205,195 206,195 207,195 207,195 208,195 209,195 210,195 210,195 211,195 212,195 212,195 213,195 214,195 215,195 215,195 216,195 217,195 218,195 218,195 219,195 220,195 220,195 221,195 222,195 223,195 223,195 224,195 225,195 225,195 226,195 227,195 228,195 228,195 229,195 230,195 231,195 231,195 232,195 233,195 233,195 234,195 235,195 236,195 236,195 237,195 238,195 239,195 239,195 240,195 241,195 241,195 242,195 243,195 244,195 244,195 245,195 246,195 246,195 247,195 248,195 249,195 249,195 250,195 251,195 252,195 252,195 253,195 254,195 254,195 255,195 256,195 257,195 257,195 258,195 259,195 260,195 260,195 261,195 262,195 262,195 263,195 264,195 265,195 265,195 266,195 267,195 267,195 268,195 269,195 270,195 270,195 271,195 272,195 273,195 273,195 274,195 275,195 275,195 276,195 277,195 278,195 278,195 279,195 280,195 280,195 281,195 282,195 283,195 283,195 284,195 285,195 286,195 286,195 287,195 288,195 288,195 289,195 290,195 291,195 291,195 292,195 293,195 294,195 294,195 295,195 296,195 296,195 297,195 298,195 299,195 299,195 300,195 301,195 301,195 302,195 303,195 304,195 304,195 305,195 306,195 307,195 307,195 308,195 309,195 309,195 310,195 311,195 312,195 312,195 313,195 314,195 314,195 315,195 316,195 317,195 317,195 318,195 319,195 320,195 320,195 321,195 322,195 322,195 323,195 324,195 325,195 325,195 326,195 327,195 328,195 328,195 329,195 330,195 330,195 331,195 332,195 333,195 333,195 334,195 335,195 335,195 336,195 337,195 338,195 338,195 339,195 340,195 341,195 341,195 342,195 343,195 343,195 344,195 345,195 346,195 346,195 347,195 348,195 348,195 349,195 350,195 351,195 351,195 352,195 353,195 354,195 354,195 355,195 356,195 356,195 357,195 358,195 359,195 359,195 360,195 361,195 362,195 362,195 363,195 364,195 364,195 365,195 366,195 367,195 367,195 368,195 369,195 369,195 370,195 371,195 372,195 372,195 373,195 374,195 375,195 375,195 376,195 377,195 377,195 378,195 379,195 380,195 380,195 381,195 382,195 383,195 383,195 384,195 385,195 385,79 386,154 387,195 388,195 388,195 389,195 390,195 390,195 391,195 392,195 393,195 393,195 394,195 395,195 396,195 396,195 397,195 398,195 398,195 399,195 400,195 401,195 401,195 402,195 403,195 403,195 404,195 405,195 406,195 406,195 407,195 408,195 409,195 409,195 410,195 411,195 411,195 412,195 413,195 414,195 414,195 415,195 416,195 417,195 417,195 418,195 419,195 419,195 420,195 421,195 422,195 422,195 423,195 424,195 424,195 425,195 426,195 427,195 427,195 428,195 429,195 430,195 430,195 431,195 432,195 432,195 433,195 434,195 435,195 435,195 436,195 437,195 437,195 438,195 439,195 440,195 440,195 441,195 442,195 443,195 443,195 444,195 445,195 445,265 446,286 447,195 448,195 448,195 449,195 450,195 451,195 451,195 452,195 453,195 453,195 454,195 455,195 456,195 456,195 457,195 458,195 458,195 459,195 460,195 461,195 461,195 462,195 463,195 464,195 464,195 465,195 466,195 466,195 467,195 468,195 469,195 469,195 470,195 471,195 472,195 472,195 473,195 474,195 474,195 475,195 476,195 477,195 477,195 478,195 479,195 479,195 480,195 481,195 482,195 482,195 483,195 484,195 485,195 485,195 486,195 487,195 487,195 488,195 489,195 490,195 490,195 491,195 492,195 492,195 493,195 494,195 495,195 495,195 496,195 497,195 498,195 498,195 499,195 500,195 500,195 501,195 502,195 503,195 503,195 504,195 505,195 506,195 506,195 507,195 508,195 508,195 509,195 510,195 511,195 511,195 512,195 513,195 513,195 514,195 515,195 516,195 516,195 517,195 518,195 519,195 519,195 520,195 521,195 521,195 522,195 523,195 524,195 524,195 525,195 526,195 527,195 527,195 528,195 529,195 529,195 530,195 531,195 532,195 532,195 533,195 534,195 534,195 535,195 536,195 537,195 537,195 538,195 539,195 540,195 540,195 541,195 542,195 542,195 543,195 544,195 545,195 545,195 546,195 547,195 547,195 548,195 549,195 550,195 550,195 551,195 552,195 553,195 553,195 554,195 555,195 555,195 556,195 557,195 558,195 558,195 559,195 560,195 561,195 561,195 562,195 563,195 563,195 564,195 565,195 566,195 566,195 567,195 568,195 568,195 569,195 570,195 571,195 571,195 572,195 573,195 574,195 574,195 575,195 576,195 576,195 577,195 578,195 579,195 579,195 580,195 581,195 581,195 582,195 583,195 584,195 584,195 585,195 586,195 587,195 587,195 588,195 589,195 589,195 590,195 591,195 592,195 592,195 593,195 594,195 595,195 595,195 596,195 597,195 597,195 598,195 599,195 600,195 600,195 601,195 602,195 602,195 603,195 604,195 605,195 605,195 606,195 607,195 608,195 608,195 609,195 610,195 610,195 611,195 612,195 613,195 613,195 614,195 615,195 616,195 616,195 617,195 618,195 618,195 619,195 620,195 621,195 621,195 622,195 623,195 623,195 624,195 625,195 626,195 626,195 627,195 628,195 629,195 629,195 630,195 631,195 631,195 632,195 633,195 634,195 634,195 635,195 636,195 636,195 637,195 638,195 639,195 639,195 640,195 641,195 642,195 642,195 643,195 644,195 644,195 645,195 646,195 647,195 647,195 648,195 649,195 649,195 650,195 651,195 652,195 652,195 653,195 654,195 655,195 655,195 656,195 657,195 657,195 658,195 659,195 660,195 660,195 661,195 662,195 663,195 663,195 664,284 665,273 665,195 666,195 667,195 668,195 668,195 669,195 670,195 671,195 671,195 672,195 673,195 673,195 674,195 675,195 676,195 676,195 677,195 678,195 678,195 679,195 680,195 681,195 681,195 682,195 683,195 684,195 684,195 685,195 686,195 686,195 687,195 688,195 689,195 689,195 690,195 691,195 691,195 692,195 693,195 694,195 694,195 695,195 696,195 697,195 697,195 698,195 699,195 699,195 700,195 701,195 702,195 702,195 703,195 704,195 705,195 705,195 706,195 707,195 707,195 708,195 709,195 710,195 710,195 711,195 712,195 712,195 713,195 714,195 715,195 715,195 716,195 717,195 718,195 718,195 719,195 720,195 720,195 721,195 722,195 723,195 723,195 724,168 725,52 725,195 726,195 727,195 728,195 728,195 729,195 730,195 731,195 731,195 732,195 733,195 733,195 734,195 735,195 736,195 736,195 737,195 738,195 739,195 739,195 740,195 741,195 741,195 742,195 743,195 744,195 744,195 745,195 746,195 746,195 747,195 748,195 749,195 749,195 750,195 751,195 752,195 752,195 753,195 754,195 754,195 755,195 756,195 757,195 757,195 758,195 759,195 760,195" stroke="#a65628" fill="none" stroke-width="1.5" opacity="0.85"/>
  <text x="700" y="30" font-size="10" fill="#e41a1c">J1</text><text x="760" y="30" font-size="10" fill="#377eb8">J2</text><text x="820" y="30" font-size="10" fill="#4daf4a">J3</text><text x="700" y="44" font-size="10" fill="#984ea3">J4</text><text x="760" y="44" font-size="10" fill="#ff7f00">J5</text><text x="820" y="44" font-size="10" fill="#a65628">J6</text>
  <line x1="40" y1="360" x2="760" y2="360" stroke="#999" stroke-width="1"/>
  <line x1="40" y1="40" x2="40" y2="360" stroke="#999" stroke-width="1"/>
  <text x="400" y="396" text-anchor="middle" font-size="10" fill="#555">tempo (s)</text>
</svg>