<svg xmlns="http://www.w3.org/2000/svg" width="800" height="400">
  <rect width="800" height="400" fill="white"/>
  <text x="400" y="18" text-anchor="middle" font-size="13" font-weight="bold">
    pick_and_place — QD (deg/s) — run 1</text>
  <polyline points="40,199 40,199 41,199 42,199 42,199 43,199 44,199 45,199 45,199 46,199 47,199 47,199 48,199 49,199 50,199 50,199 51,199 52,199 53,199 53,199 54,199 55,199 55,199 56,199 57,199 58,199 58,199 59,199 60,199 60,199 61,199 62,199 63,199 63,199 64,199 65,199 66,199 66,199 67,199 68,199 68,199 69,199 70,199 71,199 71,199 72,199 73,199 74,199 74,199 75,199 76,199 76,199 77,199 78,199 79,199 79,199 80,199 81,199 81,199 82,199 83,199 84,199 84,199 85,199 86,199 87,199 87,199 88,199 89,199 89,199 90,199 91,199 92,199 92,199 93,199 94,199 95,199 95,199 96,199 97,199 97,199 98,199 99,199 100,199 100,199 101,199 102,199 102,199 103,199 104,199 105,199 105,199 106,199 107,199 108,199 108,199 109,199 110,199 110,199 111,199 112,199 113,199 113,199 114,199 115,199 116,199 116,199 117,199 118,199 118,199 119,199 120,199 121,199 121,199 122,199 123,199 123,199 124,199 125,199 126,199 126,199 127,199 128,199 129,199 129,199 130,199 131,199 131,199 132,199 133,199 134,199 134,199 135,199 136,199 136,199 137,199 138,199 139,199 139,199 140,199 141,199 142,199 142,199 143,199 144,199 144,199 145,199 146,199 147,199 147,199 148,199 149,199 150,199 150,199 151,199 152,199 152,199 153,199 154,199 155,199 155,199 156,199 157,199 157,199 158,199 159,199 160,199 160,199 161,199 162,199 163,199 163,199 164,199 165,199 165,199 166,199 167,199 168,199 168,199 169,199 170,199 170,199 171,199 172,199 173,199 173,199 174,199 175,199 176,199 176,199 177,199 178,199 178,199 179,199 180,199 181,199 181,199 182,199 183,199 184,199 184,199 185,199 186,199 186,199 187,199 188,199 189,199 189,199 190,199 191,199 191,199 192,199 193,199 194,199 194,199 195,199 196,199 197,199 197,199 198,199 199,199 199,199 200,199 201,199 202,199 202,199 203,199 204,199 205,199 205,199 206,199 207,199 207,199 208,199 209,199 210,199 210,199 211,199 212,199 212,53 213,48 214,45 215,45 215,50 216,45 217,48 218,45 218,52 219,45 220,51 220,45 221,50 222,41 223,48 223,45 224,48 225,47 225,48 226,48 227,50 228,46 228,53 229,41 230,49 231,53 231,43 232,49 233,49 233,46 234,49 235,44 236,52 236,46 237,48 238,47 239,50 239,193 240,199 241,199 241,199 242,199 243,199 244,199 244,199 245,199 246,199 246,199 247,199 248,199 249,199 249,199 250,199 251,199 252,199 252,199 253,199 254,199 254,199 255,199 256,199 257,199 257,199 258,199 259,199 260,199 260,199 261,199 262,199 262,199 263,199 264,199 265,199 265,199 266,199 267,199 267,199 268,199 269,199 270,199 270,199 271,199 272,199 273,199 273,199 274,199 275,199 275,199 276,199 277,199 278,199 278,199 279,199 280,199 280,199 281,199 282,199 283,199 283,199 284,199 285,199 286,199 286,199 287,199 288,199 288,199 289,199 290,199 291,199 291,199 292,199 293,199 294,199 294,199 295,199 296,199 296,199 297,199 298,199 299,199 299,199 300,199 301,199 301,199 302,199 303,199 304,199 304,199 305,199 306,199 307,199 307,199 308,199 309,199 309,199 310,199 311,199 312,199 312,199 313,199 314,199 314,199 315,199 316,199 317,199 317,199 318,199 319,199 320,199 320,199 321,199 322,199 322,199 323,199 324,199 325,199 325,199 326,199 327,199 328,199 328,199 329,199 330,199 330,199 331,199 332,199 333,199 333,199 334,199 335,199 335,199 336,199 337,199 338,199 338,199 339,199 340,199 341,199 341,199 342,199 343,199 343,199 344,199 345,199 346,199 346,199 347,199 348,199 348,199 349,199 350,199 351,199 351,199 352,199 353,199 354,199 354,199 355,199 356,199 356,199 357,199 358,199 359,199 359,199 360,199 361,199 362,199 362,199 363,199 364,199 364,199 365,199 366,199 367,199 367,199 368,199 369,199 369,199 370,199 371,199 372,199 372,199 373,199 374,199 375,199 375,199 376,199 377,199 377,199 378,199 379,199 380,199 380,199 381,199 382,199 383,199 383,199 384,199 385,199 385,199 386,199 387,199 388,199 388,199 389,199 390,199 390,199 391,199 392,199 393,199 393,199 394,199 395,199 396,199 396,199 397,199 398,199 398,199 399,199 400,199 401,199 401,199 402,199 403,199 403,199 404,199 405,199 406,199 406,199 407,199 408,199 409,199 409,199 410,199 411,199 411,199 412,199 413,199 414,199 414,199 415,199 416,199 417,199 417,199 418,199 419,199 419,199 420,199 421,199 422,199 422,199 423,199 424,199 424,199 425,199 426,199 427,199 427,199 428,199 429,199 430,199 430,199 431,199 432,199 432,199 433,199 434,199 435,199 435,199 436,199 437,199 437,199 438,199 439,199 440,199 440,199 441,199 442,199 443,199 443,199 444,199 445,199 445,199 446,199 447,199 448,199 448,199 449,199 450,199 451,199 451,199 452,199 453,199 453,199 454,199 455,199 456,199 456,199 457,199 458,199 458,199 459,199 460,199 461,199 461,199 462,199 463,199 464,199 464,199 465,199 466,199 466,199 467,199 468,199 469,199 469,199 470,199 471,199 472,199 472,199 473,199 474,199 474,199 475,199 476,199 477,199 477,199 478,199 479,199 479,199 480,199 481,199 482,199 482,199 483,199 484,199 485,199 485,199 486,199 487,199 487,199 488,199 489,199 490,199 490,199 491,199 492,199 492,199 493,199 494,199 495,199 495,199 496,199 497,199 498,199 498,199 499,199 500,199 500,199 501,199 502,199 503,199 503,199 504,199 505,199 506,199 506,199 507,199 508,199 508,199 509,199 510,199 511,199 511,199 512,199 513,199 513,199 514,199 515,199 516,199 516,199 517,199 518,199 519,199 519,199 520,199 521,199 521,199 522,199 523,199 524,199 524,199 525,199 526,199 527,199 527,199 528,199 529,199 529,199 530,199 531,199 532,199 532,199 533,199 534,199 534,199 535,199 536,199 537,199 537,199 538,199 539,199 540,199 540,199 541,199 542,199 542,199 543,199 544,199 545,199 545,199 546,199 547,199 547,199 548,199 549,199 550,199 550,199 551,199 552,199 553,199 553,199 554,199 555,199 555,199 556,199 557,199 558,199 558,199 559,199 560,199 561,199 561,199 562,199 563,199 563,199 564,199 565,199 566,199 566,199 567,199 568,199 568,199 569,199 570,199 571,199 571,199 572,199 573,199 574,199 574,199 575,199 576,199 576,199 577,199 578,199 579,199 579,199 580,199 581,199 581,199 582,199 583,199 584,199 584,199 585,199 586,199 587,199 587,199 588,199 589,199 589,199 590,199 591,199 592,199 592,199 593,199 594,199 595,199 595,199 596,199 597,199 597,199 598,199 599,199 600,199 600,199 601,199 602,199 602,199 603,199 604,199 605,199 605,199 606,199 607,199 608,199 608,199 609,199 610,199 610,199 611,199 612,199 613,199 613,199 614,199 615,199 616,199 616,199 617,199 618,199 618,199 619,199 620,199 621,199 621,199 622,199 623,199 623,199 624,199 625,199 626,199 626,199 627,199 628,199 629,199 629,199 630,199 631,199 631,199 632,199 633,199 634,199 634,199 635,199 636,199 636,199 637,199 638,199 639,199 639,199 640,199 641,199 642,199 642,199 643,199 644,199 644,199 645,199 646,199 647,199 647,199 648,199 649,199 649,199 650,199 651,199 652,199 652,199 653,199 654,199 655,199 655,199 656,199 657,199 657,199 658,199 659,199 660,199 660,199 661,199 662,199 663,199 663,199 664,277 665,345 665,352 666,352 667,345 668,351 668,356 669,348 670,352 671,343 671,350 672,356 673,351 673,347 674,351 675,345 676,356 676,345 677,356 678,352 678,349 679,349 680,350 681,348 681,352 682,350 683,348 684,346 684,351 685,357 686,344 686,349 687,357 688,350 689,352 689,344 690,351 691,279 691,199 692,199 693,199 694,199 694,199 695,199 696,199 697,199 697,199 698,199 699,199 699,199 700,199 701,199 702,199 702,199 703,199 704,199 705,199 705,199 706,199 707,199 707,199 708,199 709,199 710,199 710,199 711,199 712,199 712,199 713,199 714,199 715,199 715,199 716,199 717,199 718,199 718,199 719,199 720,199 720,199 721,199 722,199 723,199 723,199 724,199 725,199 725,199 726,199 727,199 728,199 728,199 729,199 730,199 731,199 731,199 732,199 733,199 733,199 734,199 735,199 736,199 736,199 737,199 738,199 739,199 739,199 740,199 741,199 741,199 742,199 743,199 744,199 744,199 745,199 746,199 746,199 747,199 748,199 749,199 749,199 750,199 751,199 752,199 752,199 753,199 754,199 754,199 755,199 756,199 757,199 757,199 758,199 759,199 760,199" stroke="#e41a1c" fill="none" stroke-width="1.5" opacity="0.85"/><polyline points="40,199 40,199 41,199 42,199 42,199 43,199 44,199 45,199 45,199 46,199 47,199 47,199 48,199 49,199 50,199 50,199 51,199 52,199 53,199 53,199 54,199 55,199 55,199 56,199 57,199 58,199 58,199 59,199 60,199 60,199 61,199 62,199 63,199 63,199 64,199 65,199 66,199 66,199 67,199 68,199 68,199 69,199 70,199 71,199 71,199 72,199 73,199 74,199 74,199 75,199 76,199 76,199 77,199 78,199 79,199 79,199 80,199 81,199 81,199 82,199 83,199 84,199 84,199 85,199 86,199 87,199 87,199 88,199 89,199 89,199 90,199 91,199 92,199 92,199 93,199 94,199 95,199 95,199 96,199 97,199 97,199 98,199 99,199 100,199 100,199 101,199 102,199 102,199 103,199 104,199 105,199 105,199 106,199 107,199 108,199 108,199 109,199 110,199 110,199 111,199 112,120 113,49 113,49 114,45 115,54 116,46 116,49 117,41 118,53 118,41 119,48 120,53 121,46 121,50 122,43 123,47 123,49 124,44 125,50 126,45 126,52 127,49 128,49 129,45 129,51 130,41 131,53 131,47 132,46 133,50 134,45 134,44 135,48 136,49 136,45 137,49 138,45 139,49 139,52 140,43 141,48 142,50 142,44 143,46 144,48 144,51 145,49 146,47 147,45 147,47 148,44 149,55 150,46 150,49 151,43 152,53 152,190 153,199 154,199 155,199 155,199 156,199 157,199 157,199 158,199 159,199 160,199 160,199 161,199 162,199 163,199 163,199 164,199 165,199 165,199 166,199 167,199 168,199 168,199 169,199 170,199 170,199 171,199 172,199 173,199 173,199 174,199 175,199 176,199 176,199 177,199 178,199 178,199 179,199 180,199 181,199 181,199 182,199 183,199 184,199 184,199 185,199 186,199 186,199 187,199 188,199 189,199 189,199 190,199 191,199 191,199 192,199 193,199 194,199 194,199 195,199 196,199 197,199 197,199 198,199 199,199 199,199 200,199 201,199 202,199 202,199 203,199 204,199 205,199 205,199 206,199 207,199 207,199 208,199 209,199 210,199 210,199 211,199 212,199 212,199 213,199 214,199 215,199 215,199 216,199 217,199 218,199 218,199 219,199 220,199 220,199 221,199 222,199 223,199 223,199 224,199 225,199 225,199 226,199 227,199 228,199 228,199 229,199 230,199 231,199 231,199 232,199 233,199 233,199 234,199 235,199 236,199 236,199 237,199 238,199 239,199 239,199 240,199 241,199 241,199 242,199 243,199 244,199 244,199 245,199 246,199 246,199 247,199 248,199 249,199 249,199 250,199 251,199 252,199 252,199 253,199 254,199 254,199 255,199 256,199 257,199 257,199 258,199 259,199 260,199 260,199 261,199 262,199 262,199 263,199 264,199 265,199 265,199 266,199 267,199 267,199 268,199 269,199 270,199 270,199 271,199 272,199 273,199 273,199 274,199 275,199 275,199 276,199 277,199 278,199 278,199 279,199 280,199 280,199 281,199 282,199 283,199 283,199 284,199 285,238 286,349 286,348 287,349 288,355 288,351 289,343 290,357 291,348 291,346 292,360 293,344 294,349 294,356 295,344 296,355 296,345 297,356 298,347 299,349 299,348 300,357 301,351 301,347 302,351 303,349 304,346 304,354 305,348 306,347 307,352 307,352 308,349 309,352 309,348 310,348 311,352 312,352 312,351 313,349 314,351 314,349 315,349 316,353 317,348 317,345 318,356 319,345 320,349 320,357 321,348 322,347 322,355 323,348 324,346 325,351 325,246 326,199 327,199 328,199 328,199 329,199 330,199 330,199 331,199 332,199 333,199 333,199 334,199 335,199 335,199 336,199 337,199 338,199 338,199 339,199 340,199 341,199 341,199 342,199 343,199 343,199 344,199 345,199 346,199 346,199 347,199 348,199 348,199 349,199 350,199 351,199 351,199 352,199 353,199 354,199 354,199 355,199 356,199 356,199 357,199 358,199 359,199 359,199 360,199 361,199 362,199 362,199 363,199 364,199 364,199 365,199 366,199 367,199 367,199 368,199 369,199 369,199 370,199 371,199 372,199 372,199 373,199 374,199 375,199 375,199 376,199 377,199 377,199 378,199 379,199 380,199 380,199 381,199 382,199 383,199 383,199 384,199 385,199 385,199 386,199 387,199 388,199 388,199 389,199 390,199 390,199 391,199 392,199 393,199 393,199 394,199 395,199 396,199 396,199 397,199 398,199 398,199 399,199 400,199 401,199 401,199 402,199 403,199 403,199 404,199 405,199 406,199 406,199 407,199 408,199 409,199 409,199 410,199 411,199 411,199 412,199 413,199 414,199 414,199 415,199 416,199 417,199 417,199 418,199 419,199 419,199 420,199 421,199 422,199 422,199 423,199 424,199 424,199 425,199 426,199 427,199 427,199 428,199 429,199 430,199 430,199 431,199 432,199 432,199 433,199 434,199 435,199 435,199 436,199 437,199 437,199 438,199 439,199 440,199 440,199 441,199 442,199 443,199 443,199 444,199 445,199 445,199 446,199 447,199 448,199 448,199 449,199 450,199 451,199 451,199 452,199 453,199 453,199 454,199 455,199 456,199 456,199 457,199 458,199 458,199 459,199 460,199 461,199 461,199 462,199 463,199 464,120 464,52 465,44 466,50 466,52 467,43 468,45 469,48 469,52 470,49 471,42 472,52 472,41 473,50 474,52 474,41 475,49 476,53 477,40 477,53 478,42 479,47 479,47 480,48 481,52 482,48 482,41 483,53 484,48 485,50 485,45 486,45 487,53 487,45 488,47 489,45 490,48 490,52 491,46 492,45 492,45 493,54 494,45 495,49 495,43 496,51 497,49 498,45 498,49 499,49 500,49 500,41 501,46 502,53 503,50 503,45 504,190 505,199 506,199 506,199 507,199 508,199 508,199 509,199 510,199 511,199 511,199 512,199 513,199 513,199 514,199 515,199 516,199 516,199 517,199 518,199 519,199 519,199 520,199 521,199 521,199 522,199 523,199 524,199 524,199 525,199 526,199 527,199 527,199 528,199 529,199 529,199 530,199 531,199 532,199 532,199 533,199 534,199 534,199 535,199 536,199 537,199 537,199 538,199 539,199 540,199 540,199 541,199 542,199 542,199 543,199 544,199 545,199 545,199 546,199 547,199 547,199 548,199 549,199 550,199 550,199 551,199 552,199 553,199 553,199 554,199 555,199 555,199 556,199 557,199 558,199 558,199 559,199 560,199 561,199 561,199 562,199 563,199 563,199 564,349 565,350 566,351 566,348 567,350 568,351 568,350 569,349 570,351 571,345 571,357 572,342 573,356 574,345 574,356 575,345 576,354 576,345 577,353 578,353 579,352 579,344 580,354 581,348 581,353 582,345 583,348 584,356 584,346 585,354 586,345 587,352 587,353 588,349 589,347 589,355 590,352 591,349 592,346 592,354 593,348 594,345 595,350 595,353 596,356 597,344 597,348 598,351 599,356 600,345 600,355 601,345 602,357 602,346 603,353 604,283 605,199 605,199 606,199 607,199 608,199 608,199 609,199 610,199 610,199 611,199 612,199 613,199 613,199 614,199 615,199 616,199 616,199 617,199 618,199 618,199 619,199 620,199 621,199 621,199 622,199 623,199 623,199 624,199 625,199 626,199 626,199 627,199 628,199 629,199 629,199 630,199 631,199 631,199 632,199 633,199 634,199 634,199 635,199 636,199 636,199 637,199 638,199 639,199 639,199 640,199 641,199 642,199 642,199 643,199 644,199 644,199 645,199 646,199 647,199 647,199 648,199 649,199 649,199 650,199 651,199 652,199 652,199 653,199 654,199 655,199 655,199 656,199 657,199 657,199 658,199 659,199 660,199 660,199 661,199 662,199 663,199 663,199 664,199 665,199 665,199 666,199 667,199 668,199 668,199 669,199 670,199 671,199 671,199 672,199 673,199 673,199 674,199 675,199 676,199 676,199 677,199 678,199 678,199 679,199 680,199 681,199 681,199 682,199 683,199 684,199 684,199 685,199 686,199 686,199 687,199 688,199 689,199 689,199 690,199 691,199 691,199 692,199 693,199 694,199 694,199 695,199 696,199 697,199 697,199 698,199 699,199 699,199 700,199 701,199 702,199 702,199 703,199 704,199 705,199 705,199 706,199 707,199 707,199 708,199 709,199 710,199 710,199 711,199 712,199 712,199 713,199 714,199 715,199 715,199 716,199 717,199 718,199 718,199 719,199 720,199 720,199 721,199 722,199 723,199 723,199 724,199 725,199 725,199 726,199 727,199 728,199 728,199 729,199 730,199 731,199 731,199 732,199 733,199 733,199 734,199 735,199 736,199 736,199 737,199 738,199 739,199 739,199 740,199 741,199 741,199 742,199 743,199 744,199 744,199 745,199 746,199 746,199 747,199 748,199 749,199 749,199 750,199 751,199 752,199 752,199 753,199 754,199 754,199 755,199 756,199 757,199 757,199 758,199 759,199 760,199" stroke="#377eb8" fill="none" stroke-width="1.5" opacity="0.85"/><polyline points="40,199 40,199 41,199 42,199 42,199 43,199 44,199 45,199 45,199 46,199 47,199 47,199 48,199 49,199 50,199 50,199 51,199 52,199 53,199 53,199 54,199 55,199 55,199 56,199 57,199 58,199 58,199 59,199 60,199 60,199 61,199 62,199 63,199 63,199 64,199 65,199 66,199 66,199 67,199 68,199 68,199 69,199 70,199 71,199 71,199 72,199 73,199 74,199 74,199 75,199 76,199 76,199 77,199 78,199 79,199 79,199 80,199 81,199 81,199 82,199 83,199 84,199 84,199 85,199 86,199 87,199 87,199 88,199 89,199 89,199 90,199 91,199 92,199 92,199 93,199 94,199 95,199 95,199 96,199 97,199 97,199 98,199 99,199 100,199 100,199 101,199 102,199 102,199 103,199 104,199 105,199 105,199 106,199 107,199 108,199 108,199 109,199 110,199 110,199 111,199 112,120 113,49 113,49 114,45 115,54 116,46 116,49 117,41 118,53 118,41 119,48 120,53 121,46 121,50 122,43 123,47 123,49 124,44 125,50 126,45 126,52 127,49 128,49 129,45 129,51 130,41 131,53 131,47 132,46 133,50 134,45 134,44 135,48 136,49 136,45 137,49 138,45 139,49 139,52 140,43 141,48 142,50 142,44 143,46 144,48 144,51 145,49 146,47 147,45 147,47 148,44 149,55 150,46 150,49 151,43 152,53 152,190 153,199 154,199 155,199 155,199 156,199 157,199 157,199 158,199 159,199 160,199 160,199 161,199 162,199 163,199 163,199 164,199 165,199 165,199 166,199 167,199 168,199 168,199 169,199 170,199 170,199 171,199 172,199 173,199 173,199 174,199 175,199 176,199 176,199 177,199 178,199 178,199 179,199 180,199 181,199 181,199 182,199 183,199 184,199 184,199 185,199 186,199 186,199 187,199 188,199 189,199 189,199 190,199 191,199 191,199 192,199 193,199 194,199 194,199 195,199 196,199 197,199 197,199 198,199 199,199 199,199 200,199 201,199 202,199 202,199 203,199 204,199 205,199 205,199 206,199 207,199 207,199 208,199 209,199 210,199 210,199 211,199 212,199 212,199 213,199 214,199 215,199 215,199 216,199 217,199 218,199 218,199 219,199 220,199 220,199 221,199 222,199 223,199 223,199 224,199 225,199 225,199 226,199 227,199 228,199 228,199 229,199 230,199 231,199 231,199 232,199 233,199 233,199 234,199 235,199 236,199 236,199 237,199 238,199 239,199 239,199 240,199 241,199 241,199 242,199 243,199 244,199 244,199 245,199 246,199 246,199 247,199 248,199 249,199 249,199 250,199 251,199 252,199 252,199 253,199 254,199 254,199 255,199 256,199 257,199 257,199 258,199 259,199 260,199 260,199 261,199 262,199 262,199 263,199 264,199 265,199 265,199 266,199 267,199 267,199 268,199 269,199 270,199 270,199 271,199 272,199 273,199 273,199 274,199 275,199 275,199 276,199 277,199 278,199 278,199 279,199 280,199 280,199 281,199 282,199 283,199 283,199 284,199 285,238 286,349 286,348 287,349 288,355 288,351 289,343 290,357 291,348 291,346 292,360 293,344 294,349 294,356 295,344 296,355 296,345 297,356 298,347 299,349 299,348 300,357 301,351 301,347 302,351 303,349 304,346 304,354 305,348 306,347 307,352 307,352 308,349 309,352 309,348 310,348 311,352 312,352 312,351 313,349 314,351 314,349 315,349 316,353 317,348 317,345 318,356 319,345 320,349 320,357 321,348 322,347 322,355 323,348 324,346 325,351 325,246 326,199 327,199 328,199 328,199 329,199 330,199 330,199 331,199 332,199 333,199 333,199 334,199 335,199 335,199 336,199 337,199 338,199 338,199 339,199 340,199 341,199 341,199 342,199 343,199 343,199 344,199 345,199 346,199 346,199 347,199 348,199 348,199 349,199 350,199 351,199 351,199 352,199 353,199 354,199 354,199 355,199 356,199 356,199 357,199 358,199 359,199 359,199 360,199 361,199 362,199 362,199 363,199 364,199 364,199 365,199 366,199 367,199 367,199 368,199 369,199 369,199 370,199 371,199 372,199 372,199 373,199 374,199 375,199 375,199 376,199 377,199 377,199 378,199 379,199 380,199 380,199 381,199 382,199 383,199 383,199 384,199 385,199 385,199 386,199 387,199 388,199 388,199 389,199 390,199 390,199 391,199 392,199 393,199 393,199 394,199 395,199 396,199 396,199 397,199 398,199 398,199 399,199 400,199 401,199 401,199 402,199 403,199 403,199 404,199 405,199 406,199 406,199 407,199 408,199 409,199 409,199 410,199 411,199 411,199 412,199 413,199 414,199 414,199 415,199 416,199 417,199 417,199 418,199 419,199 419,199 420,199 421,199 422,199 422,199 423,199 424,199 424,199 425,199 426,199 427,199 427,199 428,199 429,199 430,199 430,199 431,199 432,199 432,199 433,199 434,199 435,199 435,199 436,199 437,199 437,199 438,199 439,199 440,199 440,199 441,199 442,199 443,199 443,199 444,199 445,199 445,199 446,199 447,199 448,199 448,199 449,199 450,199 451,199 451,199 452,199 453,199 453,199 454,199 455,199 456,199 456,199 457,199 458,199 458,199 459,199 460,199 461,199 461,199 462,199 463,199 464,120 464,52 465,44 466,50 466,52 467,43 468,45 469,48 469,52 470,49 471,42 472,52 472,41 473,50 474,52 474,41 475,49 476,53 477,40 477,53 478,42 479,47 479,47 480,48 481,52 482,48 482,41 483,53 484,48 485,50 485,45 486,45 487,53 487,45 488,47 489,45 490,48 490,52 491,46 492,45 492,45 493,54 494,45 495,49 495,43 496,51 497,49 498,45 498,49 499,49 500,49 500,41 501,46 502,53 503,50 503,45 504,190 505,199 506,199 506,199 507,199 508,199 508,199 509,199 510,199 511,199 511,199 512,199 513,199 513,199 514,199 515,199 516,199 516,199 517,199 518,199 519,199 519,199 520,199 521,199 521,199 522,199 523,199 524,199 524,199 525,199 526,199 527,199 527,199 528,199 529,199 529,199 530,199 531,199 532,199 532,199 533,199 534,199 534,199 535,199 536,199 537,199 537,199 538,199 539,199 540,199 540,199 541,199 542,199 542,199 543,199 544,199 545,199 545,199 546,199 547,199 547,199 548,199 549,199 550,199 550,199 551,199 552,199 553,199 553,199 554,199 555,199 555,199 556,199 557,199 558,199 558,199 559,199 560,199 561,199 561,199 562,199 563,199 563,199 564,349 565,350 566,351 566,348 567,350 568,351 568,350 569,349 570,351 571,345 571,357 572,342 573,356 574,345 574,356 575,345 576,354 576,345 577,353 578,353 579,352 579,344 580,354 581,348 581,353 582,345 583,348 584,356 584,346 585,354 586,345 587,352 587,353 588,349 589,347 589,355 590,352 591,349 592,346 592,354 593,348 594,345 595,350 595,353 596,356 597,344 597,348 598,351 599,356 600,345 600,355 601,345 602,357 602,346 603,353 604,283 605,199 605,199 606,199 607,199 608,199 608,199 609,199 610,199 610,199 611,199 612,199 613,199 613,199 614,199 615,199 616,199 616,199 617,199 618,199 618,199 619,199 620,199 621,199 621,199 622,199 623,199 623,199 624,199 625,199 626,199 626,199 627,199 628,199 629,199 629,199 630,199 631,199 631,199 632,199 633,199 634,199 634,199 635,199 636,199 636,199 637,199 638,199 639,199 639,199 640,199 641,199 642,199 642,199 643,199 644,199 644,199 645,199 646,199 647,199 647,199 648,199 649,199 649,199 650,199 651,199 652,199 652,199 653,199 654,199 655,199 655,199 656,199 657,199 657,199 658,199 659,199 660,199 660,199 661,199 662,199 663,199 663,199 664,199 665,199 665,199 666,199 667,199 668,199 668,199 669,199 670,199 671,199 671,199 672,199 673,199 673,199 674,199 675,199 676,199 676,199 677,199 678,199 678,199 679,199 680,199 681,199 681,199 682,199 683,199 684,199 684,199 685,199 686,199 686,199 687,199 688,199 689,199 689,199 690,199 691,199 691,199 692,199 693,199 694,199 694,199 695,199 696,199 697,199 697,199 698,199 699,199 699,199 700,199 701,199 702,199 702,199 703,199 704,199 705,199 705,199 706,199 707,199 707,199 708,199 709,199 710,199 710,199 711,199 712,199 712,199 713,199 714,199 715,199 715,199 716,199 717,199 718,199 718,199 719,199 720,199 720,199 721,199 722,199 723,199 723,199 724,199 725,199 725,199 726,199 727,199 728,199 728,199 729,199 730,199 731,199 731,199 732,199 733,199 733,199 734,199 735,199 736,199 736,199 737,199 738,199 739,199 739,199 740,199 741,199 741,199 742,199 743,199 744,199 744,199 745,199 746,199 746,199 747,199 748,199 749,199 749,199 750,199 751,199 752,199 752,199 753,199 754,199 754,199 755,199 756,199 757,199 757,199 758,199 759,199 760,199" stroke="#4daf4a" fill="none" stroke-width="1.5" opacity="0.85"/><polyline points="40,199 40,199 41,199 42,199 42,199 43,199 44,199 45,199 45,199 46,199 47,199 47,199 48,199 49,199 50,199 50,199 51,199 52,199 53,199 53,199 54,199 55,199 55,199 56,199 57,199 58,199 58,199 59,199 60,199 60,199 61,199 62,199 63,199 63,199 64,199 65,199 66,199 66,199 67,199 68,199 68,199 69,199 70,199 71,199 71,199 72,199 73,199 74,199 74,199 75,199 76,199 76,199 77,199 78,199 79,199 79,199 80,199 81,199 81,199 82,199 83,199 84,199 84,199 85,199 86,199 87,199 87,199 88,199 89,199 89,199 90,199 91,199 92,199 92,199 93,199 94,199 95,199 95,199 96,199 97,199 97,199 98,199 99,199 100,199 100,199 101,199 102,199 102,199 103,199 104,199 105,199 105,199 106,199 107,199 108,199 108,199 109,199 110,199 110,199 111,199 112,199 113,199 113,199 114,199 115,199 116,199 116,199 117,199 118,199 118,199 119,199 120,199 121,199 121,199 122,199 123,199 123,199 124,199 125,199 126,199 126,199 127,199 128,199 129,199 129,199 130,199 131,199 131,199 132,199 133,199 134,199 134,199 135,199 136,199 136,199 137,199 138,199 139,199 139,199 140,199 141,199 142,199 142,199 143,199 144,199 144,199 145,199 146,199 147,199 147,199 148,199 149,199 150,199 150,199 151,199 152,199 152,199 153,199 154,199 155,199 155,199 156,199 157,199 157,199 158,199 159,199 160,199 160,199 161,199 162,199 163,199 163,199 164,199 165,199 165,199 166,199 167,199 168,199 168,199 169,199 170,199 170,199 171,199 172,199 173,199 173,199 174,199 175,199 176,199 176,199 177,199 178,199 178,199 179,199 180,199 181,199 181,199 182,199 183,199 184,199 184,199 185,199 186,199 186,199 187,199 188,199 189,199 189,199 190,199 191,199 191,199 192,199 193,199 194,199 194,199 195,199 196,199 197,199 197,199 198,199 199,199 199,199 200,199 201,199 202,199 202,199 203,199 204,199 205,199 205,199 206,199 207,199 207,199 208,199 209,199 210,199 210,199 211,199 212,199 212,199 213,199 214,199 215,199 215,199 216,199 217,199 218,199 218,199 219,199 220,199 220,199 221,199 222,199 223,199 223,199 224,199 225,199 225,199 226,199 227,199 228,199 228,199 229,199 230,199 231,199 231,199 232,199 233,199 233,199 234,199 235,199 236,199 236,199 237,199 238,199 239,199 239,199 240,199 241,199 241,199 242,199 243,199 244,199 244,199 245,199 246,199 246,199 247,199 248,199 249,199 249,199 250,199 251,199 252,199 252,199 253,199 254,199 254,199 255,199 256,199 257,199 257,199 258,199 259,199 260,199 260,199 261,199 262,199 262,199 263,199 264,199 265,199 265,199 266,199 267,199 267,199 268,199 269,199 270,199 270,199 271,199 272,199 273,199 273,199 274,199 275,199 275,199 276,199 277,199 278,199 278,199 279,199 280,199 280,199 281,199 282,199 283,199 283,199 284,199 285,199 286,199 286,199 287,199 288,199 288,199 289,199 290,199 291,199 291,199 292,199 293,199 294,199 294,199 295,199 296,199 296,199 297,199 298,199 299,199 299,199 300,199 301,199 301,199 302,199 303,199 304,199 304,199 305,199 306,199 307,199 307,199 308,199 309,199 309,199 310,199 311,199 312,199 312,199 313,199 314,199 314,199 315,199 316,199 317,199 317,199 318,199 319,199 320,199 320,199 321,199 322,199 322,199 323,199 324,199 325,199 325,199 326,199 327,199 328,199 328,199 329,199 330,199 330,199 331,199 332,199 333,199 333,199 334,199 335,199 335,199 336,199 337,199 338,199 338,199 339,199 340,199 341,199 341,199 342,199 343,199 343,199 344,199 345,199 346,199 346,199 347,199 348,199 348,199 349,199 350,199 351,199 351,199 352,199 353,199 354,199 354,199 355,199 356,199 356,199 357,199 358,199 359,199 359,199 360,199 361,199 362,199 362,199 363,199 364,199 364,199 365,199 366,199 367,199 367,199 368,199 369,199 369,199 370,199 371,199 372,199 372,199 373,199 374,199 375,199 375,199 376,199 377,199 377,199 378,199 379,199 380,199 380,199 381,199 382,199 383,199 383,199 384,199 385,199 385,199 386,199 387,199 388,199 388,199 389,199 390,199 390,199 391,199 392,199 393,199 393,199 394,199 395,199 396,199 396,199 397,199 398,199 398,199 399,199 400,199 401,199 401,199 402,199 403,199 403,199 404,199 405,199 406,199 406,199 407,199 408,199 409,199 409,199 410,199 411,199 411,199 412,199 413,199 414,199 414,199 415,199 416,199 417,199 417,199 418,199 419,199 419,199 420,199 421,199 422,199 422,199 423,199 424,199 424,199 425,199 426,199 427,199 427,199 428,199 429,199 430,199 430,199 431,199 432,199 432,199 433,199 434,199 435,199 435,199 436,199 437,199 437,199 438,199 439,199 440,199 440,199 441,199 442,199 443,199 443,199 444,199 445,199 445,199 446,199 447,199 448,199 448,199 449,199 450,199 451,199 451,199 452,199 453,199 453,199 454,199 455,199 456,199 456,199 457,199 458,199 458,199 459,199 460,199 461,199 461,199 462,199 463,199 464,199 464,199 465,199 466,199 466,199 467,199 468,199 469,199 469,199 470,199 471,199 472,199 472,199 473,199 474,199 474,199 475,199 476,199 477,199 477,199 478,199 479,199 479,199 480,199 481,199 482,199 482,199 483,199 484,199 485,199 485,199 486,199 487,199 487,199 488,199 489,199 490,199 490,199 491,199 492,199 492,199 493,199 494,199 495,199 495,199 496,199 497,199 498,199 498,199 499,199 500,199 500,199 501,199 502,199 503,199 503,199 504,199 505,199 506,199 506,199 507,199 508,199 508,199 509,199 510,199 511,199 511,199 512,199 513,199 513,199 514,199 515,199 516,199 516,199 517,199 518,199 519,199 519,199 520,199 521,199 521,199 522,199 523,199 524,199 524,199 525,199 526,199 527,199 527,199 528,199 529,199 529,199 530,199 531,199 532,199 532,199 533,199 534,199 534,199 535,199 536,199 537,199 537,199 538,199 539,199 540,199 540,199 541,199 542,199 542,199 543,199 544,199 545,199 545,199 546,199 547,199 547,199 548,199 549,199 550,199 550,199 551,199 552,199 553,199 553,199 554,199 555,199 555,199 556,199 557,199 558,199 558,199 559,199 560,199 561,199 561,199 562,199 563,199 563,199 564,199 565,199 566,199 566,199 567,199 568,199 568,199 569,199 570,199 571,199 571,199 572,199 573,199 574,199 574,199 575,199 576,199 576,199 577,199 578,199 579,199 579,199 580,199 581,199 581,199 582,199 583,199 584,199 584,199 585,199 586,199 587,199 587,199 588,199 589,199 589,199 590,199 591,199 592,199 592,199 593,199 594,199 595,199 595,199 596,199 597,199 597,199 598,199 599,199 600,199 600,199 601,199 602,199 602,199 603,199 604,199 605,199 605,199 606,199 607,199 608,199 608,199 609,199 610,199 610,199 611,199 612,199 613,199 613,199 614,199 615,199 616,199 616,199 617,199 618,199 618,199 619,199 620,199 621,199 621,199 622,199 623,199 623,199 624,199 625,199 626,199 626,199 627,199 628,199 629,199 629,199 630,199 631,199 631,199 632,199 633,199 634,199 634,199 635,199 636,199 636,199 637,199 638,199 639,199 639,199 640,199 641,199 642,199 642,199 643,199 644,199 644,199 645,199 646,199 647,199 647,199 648,199 649,199 649,199 650,199 651,199 652,199 652,199 653,199 654,199 655,199 655,199 656,199 657,199 657,199 658,199 659,199 660,199 660,199 661,199 662,199 663,199 663,199 664,199 665,199 665,199 666,199 667,199 668,199 668,199 669,199 670,199 671,199 671,199 672,199 673,199 673,199 674,199 675,199 676,199 676,199 677,199 678,199 678,199 679,199 680,199 681,199 681,199 682,199 683,199 684,199 684,199 685,199 686,199 686,199 687,199 688,199 689,199 689,199 690,199 691,199 691,199 692,199 693,199 694,199 694,199 695,199 696,199 697,199 697,199 698,199 699,199 699,199 700,199 701,199 702,199 702,199 703,199 704,199 705,199 705,199 706,199 707,199 707,199 708,199 709,199 710,199 710,199 711,199 712,199 712,199 713,199 714,199 715,199 715,199 716,199 717,199 718,199 718,199 719,199 720,199 720,199 721,199 722,199 723,199 723,199 724,199 725,199 725,199 726,199 727,199 728,199 728,199 729,199 730,199 731,199 731,199 732,199 733,199 733,199 734,199 735,199 736,199 736,199 737,199 738,199 739,199 739,199 740,199 741,199 741,199 742,199 743,199 744,199 744,199 745,199 746,199 746,199 747,199 748,199 749,199 749,199 750,199 751,199 752,199 752,199 753,199 754,199 754,199 755,199 756,199 757,199 757,199 758,199 759,199 760,199" stroke="#984ea3" fill="none" stroke-width="1.5" opacity="0.85"/><polyline points="40,199 40,199 41,199 42,199 42,199 43,199 44,199 45,199 45,199 46,199 47,199 47,199 48,199 49,199 50,199 50,199 51,199 52,199 53,199 53,199 54,199 55,199 55,199 56,199 57,199 58,199 58,199 59,199 60,199 60,199 61,199 62,199 63,199 63,199 64,199 65,199 66,199 66,199 67,199 68,199 68,199 69,199 70,199 71,199 71,199 72,199 73,199 74,199 74,199 75,199 76,199 76,199 77,199 78,199 79,199 79,199 80,199 81,199 81,199 82,199 83,199 84,199 84,199 85,199 86,199 87,199 87,199 88,199 89,199 89,199 90,199 91,199 92,199 92,199 93,199 94,199 95,199 95,199 96,199 97,199 97,199 98,199 99,199 100,199 100,199 101,199 102,199 102,199 103,199 104,199 105,199 105,199 106,199 107,199 108,199 108,199 109,199 110,199 110,199 111,199 112,199 113,199 113,199 114,199 115,199 116,199 116,199 117,199 118,199 118,199 119,199 120,199 121,199 121,199 122,199 123,199 123,199 124,199 125,199 126,199 126,199 127,199 128,199 129,199 129,199 130,199 131,199 131,199 132,199 133,199 134,199 134,199 135,199 136,199 136,199 137,199 138,199 139,199 139,199 140,199 141,199 142,199 142,199 143,199 144,199 144,199 145,199 146,199 147,199 147,199 148,199 149,199 150,199 150,199 151,199 152,199 152,199 153,199 154,199 155,199 155,199 156,199 157,199 157,199 158,199 159,199 160,199 160,199 161,199 162,199 163,199 163,199 164,199 165,199 165,199 166,199 167,199 168,199 168,199 169,199 170,199 170,199 171,199 172,199 173,199 173,199 174,199 175,199 176,199 176,199 177,199 178,199 178,199 179,199 180,199 181,199 181,199 182,199 183,199 184,199 184,199 185,199 186,199 186,199 187,199 188,199 189,199 189,199 190,199 191,199 191,199 192,199 193,199 194,199 194,199 195,199 196,199 197,199 197,199 198,199 199,199 199,199 200,199 201,199 202,199 202,199 203,199 204,199 205,199 205,199 206,199 207,199 207,199 208,199 209,199 210,199 210,199 211,199 212,199 212,199 213,199 214,199 215,199 215,199 216,199 217,199 218,199 218,199 219,199 220,199 220,199 221,199 222,199 223,199 223,199 224,199 225,199 225,199 226,199 227,199 228,199 228,199 229,199 230,199 231,199 231,199 232,199 233,199 233,199 234,199 235,199 236,199 236,199 237,199 238,199 239,199 239,199 240,199 241,199 241,199 242,199 243,199 244,199 244,199 245,199 246,199 246,199 247,199 248,199 249,199 249,199 250,199 251,199 252,199 252,199 253,199 254,199 254,199 255,199 256,199 257,199 257,199 258,199 259,199 260,199 260,199 261,199 262,199 262,199 263,199 264,199 265,199 265,199 266,199 267,199 267,199 268,199 269,199 270,199 270,199 271,199 272,199 273,199 273,199 274,199 275,199 275,199 276,199 277,199 278,199 278,199 279,199 280,199 280,199 281,199 282,199 283,199 283,199 284,199 285,199 286,199 286,199 287,199 288,199 288,199 289,199 290,199 291,199 291,199 292,199 293,199 294,199 294,199 295,199 296,199 296,199 297,199 298,199 299,199 299,199 300,199 301,199 301,199 302,199 303,199 304,199 304,199 305,199 306,199 307,199 307,199 308,199 309,199 309,199 310,199 311,199 312,199 312,199 313,199 314,199 314,199 315,199 316,199 317,199 317,199 318,199 319,199 320,199 320,199 321,199 322,199 322,199 323,199 324,199 325,199 325,199 326,199 327,199 328,199 328,199 329,199 330,199 330,199 331,199 332,199 333,199 333,199 334,199 335,199 335,199 336,199 337,199 338,199 338,199 339,199 340,199 341,199 341,199 342,199 343,199 343,199 344,199 345,199 346,199 346,199 347,199 348,199 348,199 349,199 350,199 351,199 351,199 352,199 353,199 354,199 354,199 355,199 356,199 356,199 357,199 358,199 359,199 359,199 360,199 361,199 362,199 362,199 363,199 364,199 364,199 365,199 366,199 367,199 367,199 368,199 369,199 369,199 370,199 371,199 372,199 372,199 373,199 374,199 375,199 375,199 376,199 377,199 377,199 378,199 379,199 380,199 380,199 381,199 382,199 383,199 383,199 384,199 385,199 385,199 386,199 387,199 388,199 388,199 389,199 390,199 390,199 391,199 392,199 393,199 393,199 394,199 395,199 396,199 396,199 397,199 398,199 398,199 399,199 400,199 401,199 401,199 402,199 403,199 403,199 404,199 405,199 406,199 406,199 407,199 408,199 409,199 409,199 410,199 411,199 411,199 412,199 413,199 414,199 414,199 415,199 416,199 417,199 417,199 418,199 419,199 419,199 420,199 421,199 422,199 422,199 423,199 424,199 424,199 425,199 426,199 427,199 427,199 428,199 429,199 430,199 430,199 431,199 432,199 432,199 433,199 434,199 435,199 435,199 436,199 437,199 437,199 438,199 439,199 440,199 440,199 441,199 442,199 443,199 443,199 444,199 445,199 445,199 446,199 447,199 448,199 448,199 449,199 450,199 451,199 451,199 452,199 453,199 453,199 454,199 455,199 456,199 456,199 457,199 458,199 458,199 459,199 460,199 461,199 461,199 462,199 463,199 464,199 464,199 465,199 466,199 466,199 467,199 468,199 469,199 469,199 470,199 471,199 472,199 472,199 473,199 474,199 474,199 475,199 476,199 477,199 477,199 478,199 479,199 479,199 480,199 481,199 482,199 482,199 483,199 484,199 485,199 485,199 486,199 487,199 487,199 488,199 489,199 490,199 490,199 491,199 492,199 492,199 493,199 494,199 495,199 495,199 496,199 497,199 498,199 498,199 499,199 500,199 500,199 501,199 502,199 503,199 503,199 504,199 505,199 506,199 506,199 507,199 508,199 508,199 509,199 510,199 511,199 511,199 512,199 513,199 513,199 514,199 515,199 516,199 516,199 517,199 518,199 519,199 519,199 520,199 521,199 521,199 522,199 523,199 524,199 524,199 525,199 526,199 527,199 527,199 528,199 529,199 529,199 530,199 531,199 532,199 532,199 533,199 534,199 534,199 535,199 536,199 537,199 537,199 538,199 539,199 540,199 540,199 541,199 542,199 542,199 543,199 544,199 545,199 545,199 546,199 547,199 547,199 548,199 549,199 550,199 550,199 551,199 552,199 553,199 553,199 554,199 555,199 555,199 556,199 557,199 558,199 558,199 559,199 560,199 561,199 561,199 562,199 563,199 563,199 564,199 565,199 566,199 566,199 567,199 568,199 568,199 569,199 570,199 571,199 571,199 572,199 573,199 574,199 574,199 575,199 576,199 576,199 577,199 578,199 579,199 579,199 580,199 581,199 581,199 582,199 583,199 584,199 584,199 585,199 586,199 587,199 587,199 588,199 589,199 589,199 590,199 591,199 592,199 592,199 593,199 594,199 595,199 595,199 596,199 597,199 597,199 598,199 599,199 600,199 600,199 601,199 602,199 602,199 603,199 604,199 605,199 605,199 606,199 607,199 608,199 608,199 609,199 610,199 610,199 611,199 612,199 613,199 613,199 614,199 615,199 616,199 616,199 617,199 618,199 618,199 619,199 620,199 621,199 621,199 622,199 623,199 623,199 624,199 625,199 626,199 626,199 627,199 628,199 629,199 629,199 630,199 631,199 631,199 632,199 633,199 634,199 634,199 635,199 636,199 636,199 637,199 638,199 639,199 639,199 640,199 641,199 642,199 642,199 643,199 644,199 644,199 645,199 646,199 647,199 647,199 648,199 649,199 649,199 650,199 651,199 652,199 652,199 653,199 654,199 655,199 655,199 656,199 657,199 657,199 658,199 659,199 660,199 660,199 661,199 662,199 663,199 663,199 664,199 665,199 665,199 666,199 667,199 668,199 668,199 669,199 670,199 671,199 671,199 672,199 673,199 673,199 674,199 675,199 676,199 676,199 677,199 678,199 678,199 679,199 680,199 681,199 681,199 682,199 683,199 684,199 684,199 685,199 686,199 686,199 687,199 688,199 689,199 689,199 690,199 691,199 691,199 692,199 693,199 694,199 694,199 695,199 696,199 697,199 697,199 698,199 699,199 699,199 700,199 701,199 702,199 702,199 703,199 704,199 705,199 705,199 706,199 707,199 707,199 708,199 709,199 710,199 710,199 711,199 712,199 712,199 713,199 714,199 715,199 715,199 716,199 717,199 718,199 718,199 719,199 720,199 720,199 721,199 722,199 723,199 723,199 724,199 725,199 725,199 726,199 727,199 728,199 728,199 729,199 730,199 731,199 731,199 732,199 733,199 733,199 734,199 735,199 736,199 736,199 737,199 738,199 739,199 739,199 740,199 741,199 741,199 742,199 743,199 744,199 744,199 745,199 746,199 746,199 747,199 748,199 749,199 749,199 750,199 751,199 752,199 752,199 753,199 754,199 754,199 755,199 756,199 757,199 757,199 758,199 759,199 760,199" stroke="#ff7f00" fill="none" stroke-width="1.5" opacity="0.85"/><polyline points="40,199 40,199 41,199 42,199 42,199 43,199 44,199 45,199 45,199 46,199 47,199 47,199 48,199 49,199 50,199 50,199 51,199 52,199 53,199 53,199 54,199 55,199 55,199 56,199 57,199 58,199 58,199 59,199 60,199 60,199 61,199 62,199 63,199 63,199 64,199 65,199 66,199 66,199 67,199 68,199 68,199 69,199 70,199 71,199 71,199 72,199 73,199 74,199 74,199 75,199 76,199 76,199 77,199 78,199 79,199 79,199 80,199 81,199 81,199 82,199 83,199 84,199 84,199 85,199 86,199 87,199 87,199 88,199 89,199 89,199 90,199 91,199 92,199 92,199 93,199 94,199 95,199 95,199 96,199 97,199 97,199 98,199 99,199 100,199 100,199 101,199 102,199 102,199 103,199 104,199 105,199 105,199 106,199 107,199 108,199 108,199 109,199 110,199 110,199 111,199 112,199 113,199 113,199 114,199 115,199 116,199 116,199 117,199 118,199 118,199 119,199 120,199 121,199 121,199 122,199 123,199 123,199 124,199 125,199 126,199 126,199 127,199 128,199 129,199 129,199 130,199 131,199 131,199 132,199 133,199 134,199 134,199 135,199 136,199 136,199 137,199 138,199 139,199 139,199 140,199 141,199 142,199 142,199 143,199 144,199 144,199 145,199 146,199 147,199 147,199 148,199 149,199 150,199 150,199 151,199 152,199 152,199 153,199 154,199 155,199 155,199 156,199 157,199 157,199 158,199 159,199 160,199 160,199 161,199 162,199 163,199 163,199 164,199 165,199 165,199 166,199 167,199 168,199 168,199 169,199 170,199 170,199 171,199 172,199 173,199 173,199 174,199 175,199 176,199 176,199 177,199 178,199 178,199 179,199 180,199 181,199 181,199 182,199 183,199 184,199 184,199 185,199 186,199 186,199 187,199 188,199 189,199 189,199 190,199 191,199 191,199 192,199 193,199 194,199 194,199 195,199 196,199 197,199 197,199 198,199 199,199 199,199 200,199 201,199 202,199 202,199 203,199 204,199 205,199 205,199 206,199 207,199 207,199 208,199 209,199 210,199 210,199 211,199 212,199 212,199 213,199 214,199 215,199 215,199 216,199 217,199 218,199 218,199 219,199 220,199 220,199 221,199 222,199 223,199 223,199 224,199 225,199 225,199 226,199 227,199 228,199 228,199 229,199 230,199 231,199 231,199 232,199 233,199 233,199 234,199 235,199 236,199 236,199 237,199 238,199 239,199 239,199 240,199 241,199 241,199 242,199 243,199 244,199 244,199 245,199 246,199 246,199 247,199 248,199 249,199 249,199 250,199 251,199 252,199 252,199 253,199 254,199 254,199 255,199 256,199 257,199 257,199 258,199 259,199 260,199 260,199 261,199 262,199 262,199 263,199 264,199 265,199 265,199 266,199 267,199 267,199 268,199 269,199 270,199 270,199 271,199 272,199 273,199 273,199 274,199 275,199 275,199 276,199 277,199 278,199 278,199 279,199 280,199 280,199 281,199 282,199 283,199 283,199 284,199 285,199 286,199 286,199 287,199 288,199 288,199 289,199 290,199 291,199 291,199 292,199 293,199 294,199 294,199 295,199 296,199 296,199 297,199 298,199 299,199 299,199 300,199 301,199 301,199 302,199 303,199 304,199 304,199 305,199 306,199 307,199 307,199 308,199 309,199 309,199 310,199 311,199 312,199 312,199 313,199 314,199 314,199 315,199 316,199 317,199 317,199 318,199 319,199 320,199 320,199 321,199 322,199 322,199 323,199 324,199 325,199 325,199 326,199 327,199 328,199 328,199 329,199 330,199 330,199 331,199 332,199 333,199 333,199 334,199 335,199 335,199 336,199 337,199 338,199 338,199 339,199 340,199 341,199 341,199 342,199 343,199 343,199 344,199 345,199 346,199 346,199 347,199 348,199 348,199 349,199 350,199 351,199 351,199 352,199 353,199 354,199 354,199 355,199 356,199 356,199 357,199 358,199 359,199 359,199 360,199 361,199 362,199 362,199 363,199 364,199 364,199 365,199 366,199 367,199 367,199 368,199 369,199 369,199 370,199 371,199 372,199 372,199 373,199 374,199 375,199 375,199 376,199 377,199 377,199 378,199 379,199 380,199 380,199 381,199 382,199 383,199 383,199 384,199 385,199 385,89 386,49 387,41 388,55 388,42 389,50 390,47 390,43 391,53 392,45 393,45 393,49 394,46 395,47 396,48 396,53 397,42 398,46 398,53 399,45 400,53 401,40 401,49 402,47 403,46 403,49 404,49 405,48 406,52 406,48 407,41 408,49 409,46 409,49 410,52 411,42 411,49 412,47 413,46 414,49 414,53 415,45 416,47 417,43 417,53 418,43 419,45 419,53 420,48 421,45 422,45 422,53 423,42 424,46 424,49 425,52 426,45 427,47 427,47 428,48 429,47 430,46 430,49 431,46 432,46 432,54 433,45 434,52 435,41 435,53 436,41 437,50 437,45 438,52 439,46 440,50 440,41 441,49 442,47 443,48 443,49 444,48 445,46 445,110 446,199 447,199 448,199 448,199 449,199 450,199 451,199 451,199 452,199 453,199 453,199 454,199 455,199 456,199 456,199 457,199 458,199 458,199 459,199 460,199 461,199 461,199 462,199 463,199 464,199 464,199 465,199 466,199 466,199 467,199 468,199 469,199 469,199 470,199 471,199 472,199 472,199 473,199 474,199 474,199 475,199 476,199 477,199 477,199 478,199 479,199 479,199 480,199 481,199 482,199 482,199 483,199 484,199 485,199 485,199 486,199 487,199 487,199 488,199 489,199 490,199 490,199 491,199 492,199 492,199 493,199 494,199 495,199 495,199 496,199 497,199 498,199 498,199 499,199 500,199 500,199 501,199 502,199 503,199 503,199 504,199 505,199 506,199 506,199 507,199 508,199 508,199 509,199 510,199 511,199 511,199 512,199 513,199 513,199 514,199 515,199 516,199 516,199 517,199 518,199 519,199 519,199 520,199 521,199 521,199 522,199 523,199 524,199 524,199 525,199 526,199 527,199 527,199 528,199 529,199 529,199 530,199 531,199 532,199 532,199 533,199 534,199 534,199 535,199 536,199 537,199 537,199 538,199 539,199 540,199 540,199 541,199 542,199 542,199 543,199 544,199 545,199 545,199 546,199 547,199 547,199 548,199 549,199 550,199 550,199 551,199 552,199 553,199 553,199 554,199 555,199 555,199 556,199 557,199 558,199 558,199 559,199 560,199 561,199 561,199 562,199 563,199 563,199 564,199 565,199 566,199 566,199 567,199 568,199 568,199 569,199 570,199 571,199 571,199 572,199 573,199 574,199 574,199 575,199 576,199 576,199 577,199 578,199 579,199 579,199 580,199 581,199 581,199 582,199 583,199 584,199 584,199 585,199 586,199 587,199 587,199 588,199 589,199 589,199 590,199 591,199 592,199 592,199 593,199 594,199 595,199 595,199 596,199 597,199 597,199 598,199 599,199 600,199 600,199 601,199 602,199 602,199 603,199 604,199 605,199 605,199 606,199 607,199 608,199 608,199 609,199 610,199 610,199 611,199 612,199 613,199 613,199 614,199 615,199 616,199 616,199 617,199 618,199 618,199 619,199 620,199 621,199 621,199 622,199 623,199 623,199 624,199 625,199 626,199 626,199 627,199 628,199 629,199 629,199 630,199 631,199 631,199 632,199 633,199 634,199 634,199 635,199 636,199 636,199 637,199 638,199 639,199 639,199 640,199 641,199 642,199 642,199 643,199 644,199 644,199 645,199 646,199 647,199 647,199 648,199 649,199 649,199 650,199 651,199 652,199 652,199 653,199 654,199 655,199 655,199 656,199 657,199 657,199 658,199 659,199 660,199 660,199 661,199 662,199 663,199 663,199 664,277 665,345 665,352 666,352 667,345 668,351 668,356 669,348 670,352 671,343 671,350 672,356 673,351 673,347 674,351 675,345 676,356 676,345 677,356 678,352 678,349 679,349 680,350 681,348 681,352 682,350 683,348 684,346 684,351 685,357 686,344 686,349 687,357 688,350 689,352 689,344 690,351 691,347 691,354 692,348 693,353 694,347 694,349 695,354 696,351 697,349 697,344 698,359 699,344 699,348 700,357 701,345 702,349 702,352 703,352 704,353 705,346 705,354 706,347 707,352 707,349 708,348 709,350 710,350 710,354 711,348 712,346 712,356 713,346 714,349 715,355 715,345 716,353 717,348 718,348 718,357 719,345 720,355 720,344 721,354 722,352 723,345 723,352 724,323 725,199 725,199 726,199 727,199 728,199 728,199 729,199 730,199 731,199 731,199 732,199 733,199 733,199 734,199 735,199 736,199 736,199 737,199 738,199 739,199 739,199 740,199 741,199 741,199 742,199 743,199 744,199 744,199 745,199 746,199 746,199 747,199 748,199 749,199 749,199 750,199 751,199 752,199 752,199 753,199 754,199 754,199 755,199 756,199 757,199 757,199 758,199 759,199 760,199" stroke="#a65628" fill="none" stroke-width="1.5" opacity="0.85"/>
  <text x="700" y="30" font-size="10" fill="#e41a1c">J1</text><text x="760" y="30" font-size="10" fill="#377eb8">J2</text><text x="820" y="30" font-size="10" fill="#4daf4a">J3</text><text x="700" y="44" font-size="10" fill="#984ea3">J4</text><text x="760" y="44" font-size="10" fill="#ff7f00">J5</text><text x="820" y="44" font-size="10" fill="#a65628">J6</text>
  <line x1="40" y1="360" x2="760" y2="360" stroke="#999" stroke-width="1"/>
  <line x1="40" y1="40" x2="40" y2="360" stroke="#999" stroke-width="1"/>
  <text x="400" y="396" text-anchor="middle" font-size="10" fill="#555">tempo (s)</text>
</svg>