<?xml version="1.0" encoding="utf-8" standalone="no"?>
<!DOCTYPE svg PUBLIC "-//W3C//DTD SVG 1.1//EN"
  "http://www.w3.org/Graphics/SVG/1.1/DTD/svg11.dtd">
<svg xmlns:xlink="http://www.w3.org/1999/xlink" width="720pt" height="576pt" viewBox="0 0 720 576" xmlns="http://www.w3.org/2000/svg" version="1.1">
 <metadata>
  <rdf:RDF xmlns:dc="http://purl.org/dc/elements/1.1/" xmlns:cc="http://creativecommons.org/ns#" xmlns:rdf="http://www.w3.org/1999/02/22-rdf-syntax-ns#">
   <cc:Work>
    <dc:type rdf:resource="http://purl.org/dc/dcmitype/StillImage"/>
    <dc:date>2026-06-22T20:59:38.998688</dc:date>
    <dc:format>image/svg+xml</dc:format>
    <dc:creator>
     <cc:Agent>
      <dc:title>Matplotlib v3.11.0, https://matplotlib.org/</dc:title>
     </cc:Agent>
    </dc:creator>
   </cc:Work>
  </rdf:RDF>
 </metadata>
 <defs>
  <style type="text/css">*{stroke-linejoin: round; stroke-linecap: butt}</style>
 </defs>
 <g id="figure_1">
  <g id="patch_1">
   <path d="M 0 576 
L 720 576 
L 720 0 
L 0 0 
z
" style="fill: #ffffff"/>
  </g>
  <g id="patch_2">
   <path d="M 147.24 512.64 
L 590.76 512.64 
L 590.76 69.12 
L 147.24 69.12 
z
" style="fill: #ffffff"/>
  </g>
  <g id="pane3d_1">
   <g id="patch_3">
    <path d="M 180.728819 403.282182 
L 327.193607 280.512492 
L 325.157607 103.456652 
L 171.683723 215.454902 
" style="fill: #f2f2f2; opacity: 0.5; stroke: #f2f2f2; stroke-linejoin: miter"/>
   </g>
  </g>
  <g id="pane3d_2">
   <g id="patch_4">
    <path d="M 327.193607 280.512492 
L 562.217334 348.82461 
L 570.604503 165.670285 
L 325.157607 103.456652 
" style="fill: #e6e6e6; opacity: 0.5; stroke: #e6e6e6; stroke-linejoin: miter"/>
   </g>
  </g>
  <g id="pane3d_3">
   <g id="patch_5">
    <path d="M 180.728819 403.282182 
L 429.865448 484.650204 
L 562.217334 348.82461 
L 327.193607 280.512492 
" style="fill: #ececec; opacity: 0.5; stroke: #ececec; stroke-linejoin: miter"/>
   </g>
  </g>
  <g id="grid3d_1">
   <g id="Line3DCollection_1">
    <path d="M 212.393911 413.624001 
L 357.18027 289.228431 
L 356.41653 111.379877 
" style="fill: none; stroke: #b0b0b0; stroke-width: 0.8"/>
    <path d="M 252.420983 426.696843 
L 395.037477 300.232026 
L 395.903964 121.388791 
" style="fill: none; stroke: #b0b0b0; stroke-width: 0.8"/>
    <path d="M 293.145835 439.997579 
L 433.499507 311.41142 
L 436.049765 131.564581 
" style="fill: none; stroke: #b0b0b0; stroke-width: 0.8"/>
    <path d="M 334.586874 453.532222 
L 472.580969 322.770858 
L 476.870535 141.911457 
" style="fill: none; stroke: #b0b0b0; stroke-width: 0.8"/>
    <path d="M 376.763159 467.306997 
L 512.29695 334.314725 
L 518.383443 152.433768 
" style="fill: none; stroke: #b0b0b0; stroke-width: 0.8"/>
    <path d="M 419.694432 481.328351 
L 552.663028 346.047551 
L 560.606241 163.136017 
" style="fill: none; stroke: #b0b0b0; stroke-width: 0.8"/>
   </g>
  </g>
  <g id="grid3d_2">
   <g id="Line3DCollection_2">
    <path d="M 182.296822 207.709945 
L 190.82148 394.822312 
L 439.023174 475.252125 
" style="fill: none; stroke: #b0b0b0; stroke-width: 0.8"/>
    <path d="M 216.83559 182.505125 
L 223.703225 367.260182 
L 468.820227 444.673018 
" style="fill: none; stroke: #b0b0b0; stroke-width: 0.8"/>
    <path d="M 250.067404 158.254061 
L 255.393767 340.696541 
L 497.481931 415.259059 
" style="fill: none; stroke: #b0b0b0; stroke-width: 0.8"/>
    <path d="M 282.065069 134.903623 
L 285.956686 315.078097 
L 525.071962 386.9449 
" style="fill: none; stroke: #b0b0b0; stroke-width: 0.8"/>
    <path d="M 312.896082 112.404554 
L 315.451114 290.355283 
L 551.649324 359.669989 
" style="fill: none; stroke: #b0b0b0; stroke-width: 0.8"/>
   </g>
  </g>
  <g id="grid3d_3">
   <g id="Line3DCollection_3">
    <path d="M 563.574284 319.192294 
L 326.863622 251.816116 
L 179.267491 372.936757 
" style="fill: none; stroke: #b0b0b0; stroke-width: 0.8"/>
    <path d="M 565.286711 281.797263 
L 326.447513 215.630199 
L 177.422204 334.618183 
" style="fill: none; stroke: #b0b0b0; stroke-width: 0.8"/>
    <path d="M 567.030523 243.71687 
L 326.024146 178.813132 
L 175.541792 295.570204 
" style="fill: none; stroke: #b0b0b0; stroke-width: 0.8"/>
    <path d="M 568.80659 204.932099 
L 325.59333 141.348255 
L 173.625241 255.771793 
" style="fill: none; stroke: #b0b0b0; stroke-width: 0.8"/>
   </g>
  </g>
  <g id="axis3d_1">
   <g id="line2d_1">
    <path d="M 180.728819 403.282182 
L 429.865448 484.650204 
" style="fill: none; stroke: #000000; stroke-width: 0.8; stroke-linecap: square"/>
   </g>
   <g id="xtick_1">
    <g id="line2d_2">
     <path d="M 213.65507 412.540455 
L 209.866161 415.795758 
" style="fill: none; stroke: #000000; stroke-width: 0.8; stroke-linecap: square"/>
    </g>
    <g id="text_1">
     <!-- 360 -->
     <g transform="translate(195.342279 436.977607) scale(0.1 -0.1)">
      <defs>
       <path id="DejaVuSans-16" d="M 2597 2516 
Q 3050 2419 3304 2112 
Q 3559 1806 3559 1356 
Q 3559 666 3084 287 
Q 2609 -91 1734 -91 
Q 1441 -91 1130 -33 
Q 819 25 488 141 
L 488 750 
Q 750 597 1062 519 
Q 1375 441 1716 441 
Q 2309 441 2620 675 
Q 2931 909 2931 1356 
Q 2931 1769 2642 2001 
Q 2353 2234 1838 2234 
L 1294 2234 
L 1294 2753 
L 1863 2753 
Q 2328 2753 2575 2939 
Q 2822 3125 2822 3475 
Q 2822 3834 2567 4026 
Q 2313 4219 1838 4219 
Q 1578 4219 1281 4162 
Q 984 4106 628 3988 
L 628 4550 
Q 988 4650 1302 4700 
Q 1616 4750 1894 4750 
Q 2613 4750 3031 4423 
Q 3450 4097 3450 3541 
Q 3450 3153 3228 2886 
Q 3006 2619 2597 2516 
z
" transform="scale(0.015625)"/>
       <path id="DejaVuSans-19" d="M 2113 2584 
Q 1688 2584 1439 2293 
Q 1191 2003 1191 1497 
Q 1191 994 1439 701 
Q 1688 409 2113 409 
Q 2538 409 2786 701 
Q 3034 994 3034 1497 
Q 3034 2003 2786 2293 
Q 2538 2584 2113 2584 
z
M 3366 4563 
L 3366 3988 
Q 3128 4100 2886 4159 
Q 2644 4219 2406 4219 
Q 1781 4219 1451 3797 
Q 1122 3375 1075 2522 
Q 1259 2794 1537 2939 
Q 1816 3084 2150 3084 
Q 2853 3084 3261 2657 
Q 3669 2231 3669 1497 
Q 3669 778 3244 343 
Q 2819 -91 2113 -91 
Q 1303 -91 875 529 
Q 447 1150 447 2328 
Q 447 3434 972 4092 
Q 1497 4750 2381 4750 
Q 2619 4750 2861 4703 
Q 3103 4656 3366 4563 
z
" transform="scale(0.015625)"/>
       <path id="DejaVuSans-13" d="M 2034 4250 
Q 1547 4250 1301 3770 
Q 1056 3291 1056 2328 
Q 1056 1369 1301 889 
Q 1547 409 2034 409 
Q 2525 409 2770 889 
Q 3016 1369 3016 2328 
Q 3016 3291 2770 3770 
Q 2525 4250 2034 4250 
z
M 2034 4750 
Q 2819 4750 3233 4129 
Q 3647 3509 3647 2328 
Q 3647 1150 3233 529 
Q 2819 -91 2034 -91 
Q 1250 -91 836 529 
Q 422 1150 422 2328 
Q 422 3509 836 4129 
Q 1250 4750 2034 4750 
z
" transform="scale(0.015625)"/>
      </defs>
      <use xlink:href="#DejaVuSans-16"/>
      <use xlink:href="#DejaVuSans-19" transform="translate(63.625 0)"/>
      <use xlink:href="#DejaVuSans-13" transform="translate(127.25 0)"/>
     </g>
    </g>
   </g>
   <g id="xtick_2">
    <g id="line2d_3">
     <path d="M 253.664117 425.594497 
L 249.929316 428.906322 
" style="fill: none; stroke: #000000; stroke-width: 0.8; stroke-linecap: square"/>
    </g>
    <g id="text_2">
     <!-- 370 -->
     <g transform="translate(235.394567 450.216375) scale(0.1 -0.1)">
      <defs>
       <path id="DejaVuSans-1a" d="M 525 4666 
L 3525 4666 
L 3525 4397 
L 1831 0 
L 1172 0 
L 2766 4134 
L 525 4134 
L 525 4666 
z
" transform="scale(0.015625)"/>
      </defs>
      <use xlink:href="#DejaVuSans-16"/>
      <use xlink:href="#DejaVuSans-1a" transform="translate(63.625 0)"/>
      <use xlink:href="#DejaVuSans-13" transform="translate(127.25 0)"/>
     </g>
    </g>
   </g>
   <g id="xtick_3">
    <g id="line2d_4">
     <path d="M 294.370121 438.87594 
L 290.6919 442.245772 
" style="fill: none; stroke: #000000; stroke-width: 0.8; stroke-linecap: square"/>
    </g>
    <g id="text_3">
     <!-- 380 -->
     <g transform="translate(276.146662 463.686455) scale(0.1 -0.1)">
      <defs>
       <path id="DejaVuSans-1b" d="M 2034 2216 
Q 1584 2216 1326 1975 
Q 1069 1734 1069 1313 
Q 1069 891 1326 650 
Q 1584 409 2034 409 
Q 2484 409 2743 651 
Q 3003 894 3003 1313 
Q 3003 1734 2745 1975 
Q 2488 2216 2034 2216 
z
M 1403 2484 
Q 997 2584 770 2862 
Q 544 3141 544 3541 
Q 544 4100 942 4425 
Q 1341 4750 2034 4750 
Q 2731 4750 3128 4425 
Q 3525 4100 3525 3541 
Q 3525 3141 3298 2862 
Q 3072 2584 2669 2484 
Q 3125 2378 3379 2068 
Q 3634 1759 3634 1313 
Q 3634 634 3220 271 
Q 2806 -91 2034 -91 
Q 1263 -91 848 271 
Q 434 634 434 1313 
Q 434 1759 690 2068 
Q 947 2378 1403 2484 
z
M 1172 3481 
Q 1172 3119 1398 2916 
Q 1625 2713 2034 2713 
Q 2441 2713 2670 2916 
Q 2900 3119 2900 3481 
Q 2900 3844 2670 4047 
Q 2441 4250 2034 4250 
Q 1625 4250 1398 4047 
Q 1172 3844 1172 3481 
z
" transform="scale(0.015625)"/>
      </defs>
      <use xlink:href="#DejaVuSans-16"/>
      <use xlink:href="#DejaVuSans-1b" transform="translate(63.625 0)"/>
      <use xlink:href="#DejaVuSans-13" transform="translate(127.25 0)"/>
     </g>
    </g>
   </g>
   <g id="xtick_4">
    <g id="line2d_5">
     <path d="M 335.791454 452.390779 
L 332.17239 455.820155 
" style="fill: none; stroke: #000000; stroke-width: 0.8; stroke-linecap: square"/>
    </g>
    <g id="text_4">
     <!-- 390 -->
     <g transform="translate(317.617067 477.393963) scale(0.1 -0.1)">
      <defs>
       <path id="DejaVuSans-1c" d="M 703 97 
L 703 672 
Q 941 559 1184 500 
Q 1428 441 1663 441 
Q 2288 441 2617 861 
Q 2947 1281 2994 2138 
Q 2813 1869 2534 1725 
Q 2256 1581 1919 1581 
Q 1219 1581 811 2004 
Q 403 2428 403 3163 
Q 403 3881 828 4315 
Q 1253 4750 1959 4750 
Q 2769 4750 3195 4129 
Q 3622 3509 3622 2328 
Q 3622 1225 3098 567 
Q 2575 -91 1691 -91 
Q 1453 -91 1209 -44 
Q 966 3 703 97 
z
M 1959 2075 
Q 2384 2075 2632 2365 
Q 2881 2656 2881 3163 
Q 2881 3666 2632 3958 
Q 2384 4250 1959 4250 
Q 1534 4250 1286 3958 
Q 1038 3666 1038 3163 
Q 1038 2656 1286 2365 
Q 1534 2075 1959 2075 
z
" transform="scale(0.015625)"/>
      </defs>
      <use xlink:href="#DejaVuSans-16"/>
      <use xlink:href="#DejaVuSans-1c" transform="translate(63.625 0)"/>
      <use xlink:href="#DejaVuSans-13" transform="translate(127.25 0)"/>
     </g>
    </g>
   </g>
   <g id="xtick_5">
    <g id="line2d_6">
     <path d="M 377.947138 466.145219 
L 374.38992 469.635733 
" style="fill: none; stroke: #000000; stroke-width: 0.8; stroke-linecap: square"/>
    </g>
    <g id="text_5">
     <!-- 400 -->
     <g transform="translate(359.824942 491.345233) scale(0.1 -0.1)">
      <defs>
       <path id="DejaVuSans-17" d="M 2419 4116 
L 825 1625 
L 2419 1625 
L 2419 4116 
z
M 2253 4666 
L 3047 4666 
L 3047 1625 
L 3713 1625 
L 3713 1100 
L 3047 1100 
L 3047 0 
L 2419 0 
L 2419 1100 
L 313 1100 
L 313 1709 
L 2253 4666 
z
" transform="scale(0.015625)"/>
      </defs>
      <use xlink:href="#DejaVuSans-17"/>
      <use xlink:href="#DejaVuSans-13" transform="translate(63.625 0)"/>
      <use xlink:href="#DejaVuSans-13" transform="translate(127.25 0)"/>
     </g>
    </g>
   </g>
   <g id="xtick_6">
    <g id="line2d_7">
     <path d="M 420.856878 480.145691 
L 417.364311 483.698991 
" style="fill: none; stroke: #000000; stroke-width: 0.8; stroke-linecap: square"/>
    </g>
    <g id="text_6">
     <!-- 410 -->
     <g transform="translate(402.790136 505.546824) scale(0.1 -0.1)">
      <defs>
       <path id="DejaVuSans-14" d="M 794 531 
L 1825 531 
L 1825 4091 
L 703 3866 
L 703 4441 
L 1819 4666 
L 2450 4666 
L 2450 531 
L 3481 531 
L 3481 0 
L 794 0 
L 794 531 
z
" transform="scale(0.015625)"/>
      </defs>
      <use xlink:href="#DejaVuSans-17"/>
      <use xlink:href="#DejaVuSans-14" transform="translate(63.625 0)"/>
      <use xlink:href="#DejaVuSans-13" transform="translate(127.25 0)"/>
     </g>
    </g>
   </g>
   <g id="text_7">
    <!-- X (mm) -->
    <g transform="translate(265.400446 474.127046) rotate(-341.912962) scale(0.1 -0.1)">
     <defs>
      <path id="DejaVuSans-Bold-3b" d="M 3188 2381 
L 4806 0 
L 3553 0 
L 2463 1594 
L 1381 0 
L 122 0 
L 1741 2381 
L 184 4666 
L 1441 4666 
L 2463 3163 
L 3481 4666 
L 4744 4666 
L 3188 2381 
z
" transform="scale(0.015625)"/>
      <path id="DejaVuSans-Bold-3" transform="scale(0.015625)"/>
      <path id="DejaVuSans-Bold-b" d="M 2413 -844 
L 1484 -844 
Q 1006 -72 778 623 
Q 550 1319 550 2003 
Q 550 2688 779 3389 
Q 1009 4091 1484 4856 
L 2413 4856 
Q 2013 4116 1813 3408 
Q 1613 2700 1613 2009 
Q 1613 1319 1811 609 
Q 2009 -100 2413 -844 
z
" transform="scale(0.015625)"/>
      <path id="DejaVuSans-Bold-50" d="M 3781 2919 
Q 3994 3244 4286 3414 
Q 4578 3584 4928 3584 
Q 5531 3584 5847 3212 
Q 6163 2841 6163 2131 
L 6163 0 
L 5038 0 
L 5038 1825 
Q 5041 1866 5042 1909 
Q 5044 1953 5044 2034 
Q 5044 2406 4934 2573 
Q 4825 2741 4581 2741 
Q 4263 2741 4089 2478 
Q 3916 2216 3909 1719 
L 3909 0 
L 2784 0 
L 2784 1825 
Q 2784 2406 2684 2573 
Q 2584 2741 2328 2741 
Q 2006 2741 1831 2477 
Q 1656 2213 1656 1722 
L 1656 0 
L 531 0 
L 531 3500 
L 1656 3500 
L 1656 2988 
Q 1863 3284 2130 3434 
Q 2397 3584 2719 3584 
Q 3081 3584 3359 3409 
Q 3638 3234 3781 2919 
z
" transform="scale(0.015625)"/>
      <path id="DejaVuSans-Bold-c" d="M 513 -844 
Q 913 -100 1113 609 
Q 1313 1319 1313 2009 
Q 1313 2700 1113 3408 
Q 913 4116 513 4856 
L 1441 4856 
Q 1916 4091 2145 3389 
Q 2375 2688 2375 2003 
Q 2375 1319 2147 623 
Q 1919 -72 1441 -844 
L 513 -844 
z
" transform="scale(0.015625)"/>
     </defs>
     <use xlink:href="#DejaVuSans-Bold-3b"/>
     <use xlink:href="#DejaVuSans-Bold-3" transform="translate(77.09375 0)"/>
     <use xlink:href="#DejaVuSans-Bold-b" transform="translate(111.90625 0)"/>
     <use xlink:href="#DejaVuSans-Bold-50" transform="translate(157.609375 0)"/>
     <use xlink:href="#DejaVuSans-Bold-50" transform="translate(261.8125 0)"/>
     <use xlink:href="#DejaVuSans-Bold-c" transform="translate(366.015625 0)"/>
    </g>
   </g>
  </g>
  <g id="axis3d_2">
   <g id="line2d_8">
    <path d="M 562.217334 348.82461 
L 429.865448 484.650204 
" style="fill: none; stroke: #000000; stroke-width: 0.8; stroke-linecap: square"/>
   </g>
   <g id="xtick_7">
    <g id="line2d_9">
     <path d="M 436.931571 474.57434 
L 443.21179 476.609446 
" style="fill: none; stroke: #000000; stroke-width: 0.8; stroke-linecap: square"/>
    </g>
    <g id="text_8">
     <!-- 0 -->
     <g transform="translate(448.719474 496.269859) scale(0.1 -0.1)">
      <use xlink:href="#DejaVuSans-13"/>
     </g>
    </g>
   </g>
   <g id="xtick_8">
    <g id="line2d_10">
     <path d="M 466.756651 444.0213 
L 472.952613 445.978108 
" style="fill: none; stroke: #000000; stroke-width: 0.8; stroke-linecap: square"/>
    </g>
    <g id="text_9">
     <!-- 50 -->
     <g transform="translate(475.095584 465.419255) scale(0.1 -0.1)">
      <defs>
       <path id="DejaVuSans-18" d="M 691 4666 
L 3169 4666 
L 3169 4134 
L 1269 4134 
L 1269 2991 
Q 1406 3038 1543 3061 
Q 1681 3084 1819 3084 
Q 2600 3084 3056 2656 
Q 3513 2228 3513 1497 
Q 3513 744 3044 326 
Q 2575 -91 1722 -91 
Q 1428 -91 1123 -41 
Q 819 9 494 109 
L 494 744 
Q 775 591 1075 516 
Q 1375 441 1709 441 
Q 2250 441 2565 725 
Q 2881 1009 2881 1497 
Q 2881 1984 2565 2268 
Q 2250 2553 1709 2553 
Q 1456 2553 1204 2497 
Q 953 2441 691 2322 
L 691 4666 
z
" transform="scale(0.015625)"/>
      </defs>
      <use xlink:href="#DejaVuSans-18"/>
      <use xlink:href="#DejaVuSans-13" transform="translate(63.625 0)"/>
     </g>
    </g>
   </g>
   <g id="xtick_9">
    <g id="line2d_11">
     <path d="M 495.445784 414.631931 
L 501.55929 416.514875 
" style="fill: none; stroke: #000000; stroke-width: 0.8; stroke-linecap: square"/>
    </g>
    <g id="text_10">
     <!-- 100 -->
     <g transform="translate(500.345088 435.744549) scale(0.1 -0.1)">
      <use xlink:href="#DejaVuSans-14"/>
      <use xlink:href="#DejaVuSans-13" transform="translate(63.625 0)"/>
      <use xlink:href="#DejaVuSans-13" transform="translate(127.25 0)"/>
     </g>
    </g>
   </g>
   <g id="xtick_10">
    <g id="line2d_12">
     <path d="M 523.062655 386.340997 
L 529.095481 388.15418 
" style="fill: none; stroke: #000000; stroke-width: 0.8; stroke-linecap: square"/>
    </g>
    <g id="text_11">
     <!-- 150 -->
     <g transform="translate(527.712445 407.179768) scale(0.1 -0.1)">
      <use xlink:href="#DejaVuSans-14"/>
      <use xlink:href="#DejaVuSans-18" transform="translate(63.625 0)"/>
      <use xlink:href="#DejaVuSans-13" transform="translate(127.25 0)"/>
     </g>
    </g>
   </g>
   <g id="xtick_11">
    <g id="line2d_13">
     <path d="M 549.666276 359.088044 
L 555.620172 360.835273 
" style="fill: none; stroke: #000000; stroke-width: 0.8; stroke-linecap: square"/>
    </g>
    <g id="text_12">
     <!-- 200 -->
     <g transform="translate(554.074971 379.663783) scale(0.1 -0.1)">
      <defs>
       <path id="DejaVuSans-15" d="M 1228 531 
L 3431 531 
L 3431 0 
L 469 0 
L 469 531 
Q 828 903 1448 1529 
Q 2069 2156 2228 2338 
Q 2531 2678 2651 2914 
Q 2772 3150 2772 3378 
Q 2772 3750 2511 3984 
Q 2250 4219 1831 4219 
Q 1534 4219 1204 4116 
Q 875 4013 500 3803 
L 500 4441 
Q 881 4594 1212 4672 
Q 1544 4750 1819 4750 
Q 2544 4750 2975 4387 
Q 3406 4025 3406 3419 
Q 3406 3131 3298 2873 
Q 3191 2616 2906 2266 
Q 2828 2175 2409 1742 
Q 1991 1309 1228 531 
z
" transform="scale(0.015625)"/>
      </defs>
      <use xlink:href="#DejaVuSans-15"/>
      <use xlink:href="#DejaVuSans-13" transform="translate(63.625 0)"/>
      <use xlink:href="#DejaVuSans-13" transform="translate(127.25 0)"/>
     </g>
    </g>
   </g>
   <g id="text_13">
    <!-- Y (mm) -->
    <g transform="translate(513.618975 458.082122) rotate(-45.742112) scale(0.1 -0.1)">
     <defs>
      <path id="DejaVuSans-Bold-3c" d="M -63 4666 
L 1253 4666 
L 2316 3003 
L 3378 4666 
L 4697 4666 
L 2919 1966 
L 2919 0 
L 1716 0 
L 1716 1966 
L -63 4666 
z
" transform="scale(0.015625)"/>
     </defs>
     <use xlink:href="#DejaVuSans-Bold-3c"/>
     <use xlink:href="#DejaVuSans-Bold-3" transform="translate(72.40625 0)"/>
     <use xlink:href="#DejaVuSans-Bold-b" transform="translate(107.21875 0)"/>
     <use xlink:href="#DejaVuSans-Bold-50" transform="translate(152.921875 0)"/>
     <use xlink:href="#DejaVuSans-Bold-50" transform="translate(257.125 0)"/>
     <use xlink:href="#DejaVuSans-Bold-c" transform="translate(361.328125 0)"/>
    </g>
   </g>
  </g>
  <g id="axis3d_3">
   <g id="line2d_14">
    <path d="M 562.217334 348.82461 
L 570.604503 165.670285 
" style="fill: none; stroke: #000000; stroke-width: 0.8; stroke-linecap: square"/>
   </g>
   <g id="xtick_12">
    <g id="line2d_15">
     <path d="M 561.586956 318.62663 
L 567.553701 320.324976 
" style="fill: none; stroke: #000000; stroke-width: 0.8; stroke-linecap: square"/>
    </g>
    <g id="text_14">
     <!-- 240 -->
     <g transform="translate(572.430803 324.216713) scale(0.1 -0.1)">
      <use xlink:href="#DejaVuSans-15"/>
      <use xlink:href="#DejaVuSans-17" transform="translate(63.625 0)"/>
      <use xlink:href="#DejaVuSans-13" transform="translate(127.25 0)"/>
     </g>
    </g>
   </g>
   <g id="xtick_13">
    <g id="line2d_16">
     <path d="M 563.280655 281.241513 
L 569.303672 282.910106 
" style="fill: none; stroke: #000000; stroke-width: 0.8; stroke-linecap: square"/>
    </g>
    <g id="text_15">
     <!-- 260 -->
     <g transform="translate(574.306875 286.866812) scale(0.1 -0.1)">
      <use xlink:href="#DejaVuSans-15"/>
      <use xlink:href="#DejaVuSans-19" transform="translate(63.625 0)"/>
      <use xlink:href="#DejaVuSans-13" transform="translate(127.25 0)"/>
     </g>
    </g>
   </g>
   <g id="xtick_14">
    <g id="line2d_17">
     <path d="M 565.005383 243.171494 
L 571.085743 244.808953 
" style="fill: none; stroke: #000000; stroke-width: 0.8; stroke-linecap: square"/>
    </g>
    <g id="text_16">
     <!-- 280 -->
     <g transform="translate(576.217268 248.833641) scale(0.1 -0.1)">
      <use xlink:href="#DejaVuSans-15"/>
      <use xlink:href="#DejaVuSans-1b" transform="translate(63.625 0)"/>
      <use xlink:href="#DejaVuSans-13" transform="translate(127.25 0)"/>
     </g>
    </g>
   </g>
   <g id="xtick_15">
    <g id="line2d_18">
     <path d="M 566.762 204.397577 
L 572.900804 206.002459 
" style="fill: none; stroke: #000000; stroke-width: 0.8; stroke-linecap: square"/>
    </g>
    <g id="text_17">
     <!-- 300 -->
     <g transform="translate(578.162931 210.098277) scale(0.1 -0.1)">
      <use xlink:href="#DejaVuSans-16"/>
      <use xlink:href="#DejaVuSans-13" transform="translate(63.625 0)"/>
      <use xlink:href="#DejaVuSans-13" transform="translate(127.25 0)"/>
     </g>
    </g>
   </g>
   <g id="text_18">
    <!-- Z (mm) -->
    <g transform="translate(608.466017 274.284546) rotate(-87.378092) scale(0.1 -0.1)">
     <defs>
      <path id="DejaVuSans-Bold-3d" d="M 359 4666 
L 4281 4666 
L 4281 3938 
L 1778 909 
L 4353 909 
L 4353 0 
L 288 0 
L 288 728 
L 2791 3756 
L 359 3756 
L 359 4666 
z
" transform="scale(0.015625)"/>
     </defs>
     <use xlink:href="#DejaVuSans-Bold-3d"/>
     <use xlink:href="#DejaVuSans-Bold-3" transform="translate(72.515625 0)"/>
     <use xlink:href="#DejaVuSans-Bold-b" transform="translate(107.328125 0)"/>
     <use xlink:href="#DejaVuSans-Bold-50" transform="translate(153.03125 0)"/>
     <use xlink:href="#DejaVuSans-Bold-50" transform="translate(257.234375 0)"/>
     <use xlink:href="#DejaVuSans-Bold-c" transform="translate(361.4375 0)"/>
    </g>
   </g>
  </g>
  <g id="axes_1">
   <g id="line2d_19">
    <path d="M 386.165635 446.401883 
L 389.866558 442.528429 
L 386.165635 446.401883 
L 397.636624 429.862221 
L 386.165635 446.401883 
L 400.162189 427.64016 
L 386.165635 446.401883 
L 418.725338 393.55934 
L 400.162189 427.64016 
L 410.469747 410.665996 
L 422.850654 385.710846 
L 386.165635 446.401883 
L 418.604646 398.575264 
L 393.327434 437.085011 
L 406.656767 418.070997 
L 418.604646 398.575264 
L 400.162189 427.64016 
L 412.806096 408.380748 
L 412.806096 408.380748 
L 386.165635 446.401883 
L 406.656767 418.070997 
L 418.604646 398.575264 
L 393.327434 437.085011 
L 412.806096 408.380748 
L 400.162189 427.64016 
L 386.165635 446.401883 
L 418.604646 398.575264 
L 393.327434 437.085011 
L 393.327434 437.085011 
L 406.656767 418.070997 
L 386.165635 446.401883 
L 406.656767 418.070997 
L 418.604646 398.575264 
L 393.327434 437.085011 
L 386.165635 446.401883 
L 400.162189 427.64016 
L 393.327434 437.085011 
L 406.656767 418.070997 
L 400.162189 427.64016 
L 400.162189 427.64016 
L 393.327434 437.085011 
L 406.656767 418.070997 
L 406.656767 418.070997 
L 386.165635 446.401883 
L 400.162189 427.64016 
L 418.604646 398.575264 
L 386.165635 446.401883 
L 400.162189 427.64016 
L 412.806096 408.380748 
L 412.806096 408.380748 
L 393.327434 437.085011 
L 393.327434 437.085011 
L 406.656767 418.070997 
L 386.165635 446.401883 
L 400.162189 427.64016 
L 400.162189 427.64016 
L 412.806096 408.380748 
L 393.327434 437.085011 
L 393.327434 437.085011 
L 406.656767 418.070997 
L 406.656767 418.070997 
L 400.162189 427.64016 
L 393.327434 437.085011 
L 406.656767 418.070997 
L 400.162189 427.64016 
L 386.165635 446.401883 
L 406.656767 418.070997 
L 393.327434 437.085011 
L 412.806096 408.380748 
L 424.048912 388.6587 
L 400.162189 427.64016 
L 412.806096 408.380748 
L 412.806096 408.380748 
L 393.327434 437.085011 
L 406.656767 418.070997 
L 393.327434 437.085011 
L 412.806096 408.380748 
L 400.162189 427.64016 
L 386.165635 446.401883 
L 406.656767 418.070997 
L 418.604646 398.575264 
L 400.162189 427.64016 
L 412.806096 408.380748 
L 393.327434 437.085011 
L 406.656767 418.070997 
L 406.656767 418.070997 
L 400.162189 427.64016 
L 412.806096 408.380748 
L 386.165635 446.401883 
L 400.162189 427.64016 
L 393.327434 437.085011 
L 393.327434 437.085011 
L 406.656767 418.070997 
L 400.162189 427.64016 
L 400.162189 427.64016 
L 418.604646 398.575264 
L 400.162189 427.64016 
L 386.165635 446.401883 
L 406.656767 418.070997 
L 406.656767 418.070997 
L 397.636624 429.862221 
L 412.806096 408.380748 
L 393.327434 437.085011 
L 393.327434 437.085011 
L 406.656767 418.070997 
L 400.162189 427.64016 
L 386.165635 446.401883 
L 406.656767 418.070997 
L 393.327434 437.085011 
L 406.656767 418.070997 
L 400.162189 427.64016 
L 386.165635 446.401883 
L 406.656767 418.070997 
L 400.162189 427.64016 
L 386.165635 446.401883 
L 406.656767 418.070997 
L 393.327434 437.085011 
L 406.656767 418.070997 
L 400.162189 427.64016 
L 406.656767 418.070997 
L 418.604646 398.575264 
L 418.604646 398.575264 
L 438.175737 358.285476 
L 412.806096 408.380748 
L 424.048912 388.6587 
L 445.70629 337.566466 
L 386.165635 446.401883 
L 406.656767 418.070997 
L 418.604646 398.575264 
L 438.175737 358.285476 
L 400.162189 427.64016 
L 393.327434 437.085011 
L 406.656767 418.070997 
L 429.125022 378.634439 
L 386.165635 446.401883 
L 406.656767 418.070997 
L 386.165635 446.401883 
L 412.806096 408.380748 
L 427.087171 381.004696 
L 438.175737 358.285476 
L 393.327434 437.085011 
L 429.125022 378.634439 
L 400.162189 427.64016 
L 393.327434 437.085011 
L 424.048912 388.6587 
L 386.165635 446.401883 
L 401.856045 425.654809 
L 400.162189 427.64016 
L 429.125022 378.634439 
L 412.806096 408.380748 
L 424.048912 388.6587 
L 400.162189 427.64016 
L 412.806096 408.380748 
L 406.656767 418.070997 
L 418.604646 398.575264 
L 400.162189 427.64016 
L 386.165635 446.401883 
L 406.656767 418.070997 
L 393.327434 437.085011 
L 412.806096 408.380748 
L 424.048912 388.6587 
L 400.162189 427.64016 
L 386.165635 446.401883 
L 406.656767 418.070997 
L 400.162189 427.64016 
L 412.806096 408.380748 
L 400.162189 427.64016 
L 386.165635 446.401883 
L 400.162189 427.64016 
L 393.327434 437.085011 
L 412.806096 408.380748 
L 400.162189 427.64016 
L 412.806096 408.380748 
L 393.327434 437.085011 
L 393.327434 437.085011 
L 429.125022 378.634439 
L 400.162189 427.64016 
L 412.806096 408.380748 
L 418.604646 398.575264 
L 400.162189 427.64016 
L 393.327434 437.085011 
L 406.656767 418.070997 
L 406.656767 418.070997 
L 418.604646 398.575264 
L 400.162189 427.64016 
L 412.806096 408.380748 
L 393.327434 437.085011 
L 386.165635 446.401883 
L 406.656767 418.070997 
L 393.327434 437.085011 
L 406.656767 418.070997 
L 418.604646 398.575264 
L 406.656767 418.070997 
L 393.327434 437.085011 
L 393.327434 437.085011 
L 412.806096 408.380748 
L 400.162189 427.64016 
L 393.327434 437.085011 
L 406.656767 418.070997 
L 393.327434 437.085011 
L 412.806096 408.380748 
L 400.162189 427.64016 
L 412.806096 408.380748 
L 393.327434 437.085011 
L 406.656767 418.070997 
L 386.165635 446.401883 
L 406.656767 418.070997 
L 393.327434 437.085011 
L 406.656767 418.070997 
L 386.165635 446.401883 
L 406.656767 418.070997 
L 393.327434 437.085011 
L 406.656767 418.070997 
L 400.162189 427.64016 
L 406.656767 418.070997 
L 393.327434 437.085011 
L 406.656767 418.070997 
L 400.162189 427.64016 
L 412.806096 408.380748 
L 412.806096 408.380748 
L 429.125022 378.634439 
L 438.175737 358.285476 
L 445.70629 337.566466 
L 448.840432 321.50295 
L 451.081772 305.251559 
L 390.715788 439.274849 
L 404.22297 420.324232 
L 393.327434 437.085011 
L 406.656767 418.070997 
L 397.636624 429.862221 
L 424.048912 388.6587 
L 395.898785 434.882268 
L 409.040598 415.804375 
L 393.327434 437.085011 
L 409.040598 415.804375 
L 404.22297 420.324232 
L 416.363429 400.888084 
L 397.636624 429.862221 
L 412.806096 408.380748 
L 400.162189 427.64016 
L 415.095618 406.084225 
L 429.125022 378.634439 
L 393.327434 437.085011 
L 393.327434 437.085011 
L 410.469747 410.665996 
L 400.162189 427.64016 
L 393.327434 437.085011 
L 386.165635 446.401883 
L 402.638348 425.404552 
L 420.799138 396.25075 
L 395.898785 434.882268 
L 412.806096 408.380748 
L 402.638348 425.404552 
L 388.821564 444.234201 
L 402.638348 425.404552 
L 390.715788 439.274849 
L 390.715788 439.274849 
L 393.327434 437.085011 
L 406.656767 418.070997 
L 421.904094 391.000488 
L 397.636624 429.862221 
L 400.162189 427.64016 
L 400.162189 427.64016 
L 436.338108 360.701483 
L 409.040598 415.804375 
L 420.799138 396.25075 
L 393.327434 437.085011 
L 409.040598 415.804375 
L 397.636624 429.862221 
L 410.469747 410.665996 
L 400.162189 427.64016 
L 393.327434 437.085011 
L 406.656767 418.070997 
L 421.904094 391.000488 
L 431.900149 370.902964 
L 395.898785 434.882268 
L 409.040598 415.804375 
L 388.821564 444.234201 
L 406.656767 418.070997 
L 420.799138 396.25075 
L 393.327434 437.085011 
L 406.656767 418.070997 
L 400.162189 427.64016 
L 412.806096 408.380748 
L 426.141523 386.306633 
L 435.723542 366.108183 
L 400.162189 427.64016 
L 390.715788 439.274849 
L 406.656767 418.070997 
L 393.327434 437.085011 
L 397.636624 429.862221 
L 410.469747 410.665996 
L 410.469747 410.665996 
L 393.327434 437.085011 
L 390.715788 439.274849 
L 404.22297 420.324232 
L 395.898785 434.882268 
L 409.040598 415.804375 
L 397.636624 429.862221 
L 410.469747 410.665996 
L 410.469747 410.665996 
L 393.327434 437.085011 
L 386.165635 446.401883 
L 416.363429 400.888084 
L 429.125022 378.634439 
L 390.715788 439.274849 
L 433.838466 368.509503 
L 433.838466 368.509503 
L 386.165635 446.401883 
L 400.162189 427.64016 
L 416.363429 400.888084 
L 395.898785 434.882268 
L 409.040598 415.804375 
L 395.898785 434.882268 
L 390.715788 439.274849 
L 406.656767 418.070997 
L 388.821564 444.234201 
L 406.656767 418.070997 
L 390.715788 439.274849 
L 404.22297 420.324232 
L 388.821564 444.234201 
L 402.638348 425.404552 
L 393.327434 437.085011 
L 412.806096 408.380748 
L 400.162189 427.64016 
L 388.821564 444.234201 
L 406.656767 418.070997 
L 406.656767 418.070997 
L 393.327434 437.085011 
L 406.656767 418.070997 
L 424.048912 388.6587 
L 433.838466 368.509503 
L 444.087675 340.026229 
L 448.840432 321.50295 
L 393.327434 437.085011 
L 410.469747 410.665996 
L 393.327434 437.085011 
L 406.656767 418.070997 
L 400.162189 427.64016 
L 393.327434 437.085011 
L 386.165635 446.401883 
L 400.162189 427.64016 
L 390.715788 439.274849 
L 406.656767 418.070997 
L 400.162189 427.64016 
L 386.165635 446.401883 
L 386.165635 446.401883 
L 404.22297 420.324232 
L 393.327434 437.085011 
L 409.040598 415.804375 
L 400.162189 427.64016 
L 393.327434 437.085011 
L 406.656767 418.070997 
L 397.636624 429.862221 
L 412.806096 408.380748 
L 395.898785 434.882268 
L 412.806096 408.380748 
L 400.162189 427.64016 
L 400.162189 427.64016 
L 386.165635 446.401883 
L 402.638348 425.404552 
L 393.327434 437.085011 
L 410.469747 410.665996 
L 410.469747 410.665996 
L 418.604646 398.575264 
L 395.898785 434.882268 
L 412.806096 408.380748 
L 393.327434 437.085011 
L 409.040598 415.804375 
L 400.162189 427.64016 
L 388.821564 444.234201 
L 409.040598 415.804375 
L 420.799138 396.25075 
L 393.327434 437.085011 
L 410.469747 410.665996 
L 390.715788 439.274849 
L 406.656767 418.070997 
L 393.327434 437.085011 
L 409.040598 415.804375 
L 400.162189 427.64016 
L 409.040598 415.804375 
L 395.898785 434.882268 
L 386.165635 446.401883 
L 404.22297 420.324232 
L 393.327434 437.085011 
L 406.656767 418.070997 
L 397.636624 429.862221 
L 386.165635 446.401883 
L 400.162189 427.64016 
L 390.715788 439.274849 
L 406.656767 418.070997 
L 393.327434 437.085011 
L 406.656767 418.070997 
L 400.162189 427.64016 
L 393.327434 437.085011 
L 406.656767 418.070997 
L 420.799138 396.25075 
L 433.838466 368.509503 
L 439.955288 355.860532 
L 445.70629 337.566466 
L 450.072175 313.39865 
L 451.86472 297.061595 
L 393.327434 437.085011 
L 406.656767 418.070997 
L 406.656767 418.070997 
L 400.162189 427.64016 
L 393.327434 437.085011 
L 406.656767 418.070997 
L 395.898785 434.882268 
L 388.821564 444.234201 
L 406.656767 418.070997 
L 418.604646 398.575264 
L 412.806096 408.380748 
L 400.162189 427.64016 
L 415.095618 406.084225 
L 400.162189 427.64016 
L 390.715788 439.274849 
L 404.22297 420.324232 
L 421.904094 391.000488 
L 433.838466 368.509503 
L 442.132748 347.97006 
L 450.072175 313.39865 
L 452.861192 272.255262 
L 452.401439 255.54273 
L 451.284797 244.74983 
L 391.420074 439.011462 
L 406.656767 418.070997 
L 418.604646 398.575264 
L 406.656767 418.070997 
L 390.715788 439.274849 
L 418.604646 398.575264 
L 388.071819 444.479469 
L 388.071819 444.479469 
L 406.656767 418.070997 
L 418.604646 398.575264 
L 395.127724 435.130779 
L 412.806096 408.380748 
L 393.327434 437.085011 
L 406.656767 418.070997 
L 393.327434 437.085011 
L 408.243094 416.055845 
L 404.95874 420.057672 
L 386.165635 446.401883 
L 401.856045 425.654809 
L 395.127724 435.130779 
L 408.243094 416.055845 
L 388.071819 444.479469 
L 388.071819 444.479469 
L 406.656767 418.070997 
L 393.327434 437.085011 
L 408.243094 416.055845 
L 391.420074 439.011462 
L 391.420074 439.011462 
L 411.220186 410.398184 
L 393.327434 437.085011 
L 386.165635 446.401883 
L 404.95874 420.057672 
L 404.95874 420.057672 
L 393.327434 437.085011 
L 400.162189 427.64016 
L 406.656767 418.070997 
L 393.327434 437.085011 
L 408.243094 416.055845 
L 398.356798 429.596698 
L 412.806096 408.380748 
L 400.162189 427.64016 
L 393.327434 437.085011 
L 406.656767 418.070997 
L 400.162189 427.64016 
L 404.95874 420.057672 
L 393.327434 437.085011 
L 406.656767 418.070997 
L 400.162189 427.64016 
L 393.327434 437.085011 
L 406.656767 418.070997 
L 400.162189 427.64016 
L 391.420074 439.011462 
L 406.656767 418.070997 
L 393.327434 437.085011 
L 408.243094 416.055845 
L 395.127724 435.130779 
L 391.420074 439.011462 
L 404.95874 420.057672 
L 400.162189 427.64016 
L 414.283867 406.337123 
L 395.127724 435.130779 
L 386.165635 446.401883 
L 398.356798 429.596698 
L 388.071819 444.479469 
L 401.856045 425.654809 
L 388.071819 444.479469 
L 386.165635 446.401883 
L 404.95874 420.057672 
L 395.127724 435.130779 
L 395.127724 435.130779 
L 412.806096 408.380748 
L 406.656767 418.070997 
L 418.604646 398.575264 
L 432.692494 370.631766 
L 441.214201 350.139396 
L 447.383593 329.55885 
L 450.735295 307.519046 
L 452.303295 291.132139 
L 452.96823 274.587053 
L 452.96823 274.587053 
L 451.284797 244.74983 
L 449.851226 239.91105 
L 446.890054 232.516641 
L 444.380388 227.499758 
L 441.458864 222.419795 
L 436.29919 214.682787 
L 432.357653 209.453555 
L 428.016419 204.169194 
L 423.289072 198.83429 
L 418.175975 193.450478 
L 412.689522 188.023204 
L 403.773689 179.804003 
L 397.380491 174.276545 
L 390.639607 168.71587 
L 379.886577 160.315171 
L 372.302816 154.679411 
L 364.396814 149.019958 
L 356.17431 143.338131 
L 347.647739 137.638187 
L 334.29284 129.055911 
L 343.267835 134.780597 
L 352.176557 146.159464 
L 352.176557 146.159464 
L 359.773665 160.03466 
L 363.801454 168.560177 
L 371.66418 174.279651 
L 374.261599 185.298626 
L 381.61354 190.998916 
L 391.690961 205.187477 
L 394.982119 208.010024 
L 413.128426 241.433944 
L 415.684227 244.190437 
L 419.632273 266.24402 
L 421.790211 268.961188 
L 423.118666 282.475618 
L 426.723594 287.819533 
L 425.58733 306.795656 
L 429.593341 314.620935 
L 431.20491 327.889334 
L 432.023225 330.41204 
L 427.94549 348.890555 
L 428.820511 353.807102 
L 425.191625 366.48853 
L 423.020594 379.032218 
L 422.380729 383.646747 
L 422.380729 383.646747 
L 416.087456 398.101259 
L 415.27383 400.298591 
L 409.897249 412.108767 
L 409.897249 412.108767 
L 402.383273 423.830453 
L 402.383273 423.830453 
L 400.909412 425.86818 
L 400.909412 425.86818 
L 395.127724 435.130779 
L 393.327434 437.085011 
L 396.816981 433.147643 
L 396.816981 433.147643 
L 400.909412 425.86818 
L 402.383273 423.830453 
L 406.163657 416.451772 
L 407.417589 414.360062 
L 411.041079 409.98827 
L 412.997648 405.668079 
L 416.087456 398.101259 
L 417.38904 393.632938 
L 422.380729 383.646747 
L 425.044281 373.575838 
L 425.200551 371.235502 
L 426.932729 358.595833 
L 426.932729 358.595833 
L 430.18832 345.827497 
L 431.20491 327.889334 
L 430.730044 317.195534 
L 429.720583 306.414992 
L 426.935142 301.189154 
L 425.390022 298.551286 
L 424.96739 285.154536 
L 421.16916 279.781162 
L 418.275405 257.844074 
L 418.275405 257.844074 
L 409.06871 241.152065 
L 403.517231 235.58365 
L 402.596537 224.621526 
L 396.480688 219.006263 
L 391.690961 205.187477 
L 385.161418 193.837267 
L 385.161418 193.837267 
L 374.453153 179.627093 
L 362.802477 171.053114 
L 362.802477 171.053114 
L 355.638977 157.170021 
L 355.638977 157.170021 
L 347.05463 145.782937 
L 347.05463 145.782937 
L 338.252162 140.042364 
L 338.252162 140.042364 
L 333.739884 137.166292 
L 333.739884 137.166292 
L 333.53781 131.53809 
L 333.53781 131.53809 
L 334.29284 129.055911 
L 334.29284 129.055911 
L 412.806096 408.380748 
L 386.165635 446.401883 
L 412.806096 408.380748 
L 424.048912 388.6587 
L 406.656767 418.070997 
L 393.327434 437.085011 
L 406.656767 418.070997 
L 386.165635 446.401883 
L 406.656767 418.070997 
L 393.327434 437.085011 
L 406.656767 418.070997 
L 400.162189 427.64016 
L 393.327434 437.085011 
L 406.656767 418.070997 
L 418.604646 398.575264 
L 400.162189 427.64016 
L 429.125022 378.634439 
L 400.162189 427.64016 
L 412.806096 408.380748 
L 393.327434 437.085011 
L 406.656767 418.070997 
L 393.327434 437.085011 
L 386.165635 446.401883 
L 400.162189 427.64016 
L 418.604646 398.575264 
L 400.162189 427.64016 
L 412.806096 408.380748 
L 393.327434 437.085011 
L 406.656767 418.070997 
L 386.165635 446.401883 
L 406.656767 418.070997 
L 393.327434 437.085011 
L 406.656767 418.070997 
L 400.162189 427.64016 
L 412.806096 408.380748 
L 400.162189 427.64016 
L 418.604646 398.575264 
L 393.327434 437.085011 
L 406.656767 418.070997 
L 386.165635 446.401883 
L 406.656767 418.070997 
L 393.327434 437.085011 
L 406.656767 418.070997 
L 386.165635 446.401883 
L 406.656767 418.070997 
L 393.327434 437.085011 
L 412.806096 408.380748 
L 393.327434 437.085011 
L 406.656767 418.070997 
L 393.327434 437.085011 
L 386.165635 446.401883 
L 412.806096 408.380748 
L 400.162189 427.64016 
L 412.806096 408.380748 
L 424.048912 388.6587 
L 400.162189 427.64016 
L 412.806096 408.380748 
L 400.162189 427.64016 
L 386.165635 446.401883 
L 406.656767 418.070997 
L 400.162189 427.64016 
L 412.806096 408.380748 
L 393.327434 437.085011 
L 412.806096 408.380748 
L 400.162189 427.64016 
L 386.165635 446.401883 
L 386.165635 446.401883 
L 412.806096 408.380748 
L 400.162189 427.64016 
L 400.162189 427.64016 
L 386.165635 446.401883 
L 386.165635 446.401883 
L 393.327434 437.085011 
L 406.656767 418.070997 
L 393.327434 437.085011 
L 386.165635 446.401883 
L 386.165635 446.401883 
L 400.162189 427.64016 
L 406.656767 418.070997 
L 393.327434 437.085011 
L 393.327434 437.085011 
L 412.806096 408.380748 
L 400.162189 427.64016 
L 386.165635 446.401883 
L 406.656767 418.070997 
L 386.165635 446.401883 
L 400.162189 427.64016 
L 418.604646 398.575264 
L 393.327434 437.085011 
L 412.806096 408.380748 
L 393.327434 437.085011 
L 406.656767 418.070997 
L 386.165635 446.401883 
L 400.162189 427.64016 
L 418.604646 398.575264 
L 393.327434 437.085011 
L 406.656767 418.070997 
L 400.162189 427.64016 
L 406.656767 418.070997 
L 386.165635 446.401883 
L 412.806096 408.380748 
L 429.125022 378.634439 
L 386.165635 446.401883 
L 400.162189 427.64016 
L 418.604646 398.575264 
L 395.898785 434.882268 
L 386.165635 446.401883 
L 406.656767 418.070997 
L 418.604646 398.575264 
L 418.604646 398.575264 
L 433.838466 368.509503 
L 400.162189 427.64016 
L 429.125022 378.634439 
L 393.327434 437.085011 
L 406.656767 418.070997 
L 418.604646 398.575264 
L 438.175737 358.285476 
L 447.383593 329.55885 
L 410.469747 410.665996 
L 440.406258 350.40996 
L 450.072175 313.39865 
L 416.363429 400.888084 
L 420.799138 396.25075 
L 433.838466 368.509503 
L 393.327434 437.085011 
L 438.175737 358.285476 
L 451.86472 297.061595 
L 393.327434 437.085011 
L 418.604646 398.575264 
L 433.838466 368.509503 
L 406.656767 418.070997 
L 421.904094 391.000488 
L 427.087171 381.004696 
L 452.401439 255.54273 
L 452.401439 255.54273 
L 442.972087 224.968243 
L 412.806096 408.380748 
L 442.132748 347.97006 
L 448.840432 321.50295 
L 452.753101 280.560798 
L 452.745959 263.916048 
L 451.836631 247.140987 
L 386.165635 446.401883 
L 418.604646 398.575264 
L 433.838466 368.509503 
L 386.165635 446.401883 
L 406.656767 418.070997 
L 424.048912 388.6587 
L 400.162189 427.64016 
L 429.125022 378.634439 
L 386.165635 446.401883 
L 400.162189 427.64016 
L 400.162189 427.64016 
L 418.604646 398.575264 
L 400.162189 427.64016 
L 412.806096 408.380748 
L 393.327434 437.085011 
L 393.327434 437.085011 
L 406.656767 418.070997 
L 386.165635 446.401883 
L 406.656767 418.070997 
L 393.327434 437.085011 
L 412.806096 408.380748 
L 393.327434 437.085011 
L 418.604646 398.575264 
L 429.125022 378.634439 
L 442.132748 347.97006 
L 447.383593 329.55885 
L 450.072175 313.39865 
L 451.86472 297.061595 
L 452.401439 255.54273 
L 451.284797 244.74983 
L 449.851226 239.91105 
L 446.890054 232.516641 
L 444.380388 227.499758 
L 441.458864 222.419795 
L 438.121717 217.276831 
L 428.016419 204.169194 
L 423.289072 198.83429 
L 418.175975 193.450478 
L 409.811059 185.294168 
L 406.836109 182.553632 
L 372.302816 154.679411 
L 364.396814 149.019958 
L 356.17431 143.338131 
L 347.647739 137.638187 
L 334.29284 129.055911 
L 343.267835 134.780597 
L 352.176557 146.159464 
L 355.638977 157.170021 
L 359.773665 160.03466 
L 381.61354 190.998916 
L 394.982119 208.010024 
L 410.483228 238.667105 
L 421.790211 268.961188 
L 426.723594 287.819533 
L 428.361895 312.029761 
L 432.023225 330.41204 
L 425.191625 366.48853 
L 422.755211 381.351269 
L 415.27383 400.298591 
L 409.897249 412.108767 
L 402.383273 423.830453 
L 400.909412 425.86818 
L 395.127724 435.130779 
L 395.127724 435.130779 
L 393.327434 437.085011 
L 396.816981 433.147643 
L 396.816981 433.147643 
L 400.909412 425.86818 
L 402.383273 423.830453 
L 402.383273 423.830453 
L 407.417589 414.360062 
L 407.417589 414.360062 
L 412.074614 407.841093 
L 412.997648 405.668079 
L 416.791164 395.87866 
L 417.38904 393.632938 
L 424.779166 375.892927 
L 425.200551 371.235502 
L 427.102764 361.000285 
L 426.932729 358.595833 
L 430.575886 348.27313 
L 429.095689 340.876497 
L 431.20491 327.889334 
L 430.730044 317.195534 
L 429.593341 314.620935 
L 426.935142 301.189154 
L 425.390022 298.551286 
L 424.96739 285.154536 
L 424.96739 285.154536 
L 415.923138 255.107217 
L 413.473199 252.356155 
L 406.338989 238.373413 
L 403.517231 235.58365 
L 399.579871 221.817728 
L 393.288091 216.18349 
L 391.690961 205.187477 
L 385.161418 193.837267 
L 381.816081 185.31004 
L 374.453153 179.627093 
L 362.802477 171.053114 
L 359.773665 160.03466 
L 355.638977 157.170021 
L 355.638977 157.170021 
L 347.05463 145.782937 
L 347.05463 145.782937 
L 338.252162 140.042364 
L 338.252162 140.042364 
L 333.739884 137.166292 
L 333.739884 137.166292 
L 333.53781 131.53809 
L 333.53781 131.53809 
L 334.29284 129.055911 
L 334.29284 129.055911 
L 400.162189 427.64016 
L 429.125022 378.634439 
L 447.383593 329.55885 
L 386.165635 446.401883 
L 393.327434 437.085011 
L 406.656767 418.070997 
L 406.656767 418.070997 
L 424.048912 388.6587 
L 400.162189 427.64016 
L 400.162189 427.64016 
L 412.806096 408.380748 
L 393.327434 437.085011 
L 406.656767 418.070997 
L 386.165635 446.401883 
L 400.162189 427.64016 
L 418.604646 398.575264 
L 393.327434 437.085011 
L 388.071819 444.479469 
L 418.604646 398.575264 
L 442.132748 347.97006 
L 447.383593 329.55885 
L 412.806096 408.380748 
L 424.048912 388.6587 
L 393.327434 437.085011 
L 400.162189 427.64016 
L 429.125022 378.634439 
L 400.162189 427.64016 
L 412.806096 408.380748 
L 393.327434 437.085011 
L 442.132748 347.97006 
L 386.165635 446.401883 
L 412.806096 408.380748 
L 429.125022 378.634439 
L 412.806096 408.380748 
L 424.048912 388.6587 
L 433.838466 368.509503 
L 406.656767 418.070997 
L 424.048912 388.6587 
L 433.838466 368.509503 
L 400.162189 427.64016 
L 412.806096 408.380748 
L 424.048912 388.6587 
L 424.048912 388.6587 
L 429.125022 378.634439 
L 400.162189 427.64016 
L 406.656767 418.070997 
L 429.125022 378.634439 
L 393.327434 437.085011 
L 406.656767 418.070997 
L 393.327434 437.085011 
L 412.806096 408.380748 
L 386.165635 446.401883 
L 406.656767 418.070997 
L 438.175737 358.285476 
L 393.327434 437.085011 
L 406.656767 418.070997 
L 424.048912 388.6587 
L 424.048912 388.6587 
L 442.132748 347.97006 
L 400.162189 427.64016 
L 412.806096 408.380748 
L 412.806096 408.380748 
L 429.125022 378.634439 
L 406.656767 418.070997 
L 433.838466 368.509503 
L 393.327434 437.085011 
L 393.327434 437.085011 
L 418.604646 398.575264 
L 433.838466 368.509503 
L 386.165635 446.401883 
L 400.162189 427.64016 
L 393.327434 437.085011 
L 406.656767 418.070997 
L 418.604646 398.575264 
L 412.806096 408.380748 
L 400.162189 427.64016 
L 412.806096 408.380748 
L 438.175737 358.285476 
L 393.327434 437.085011 
L 404.22297 420.324232 
L 429.125022 378.634439 
L 400.162189 427.64016 
L 416.363429 400.888084 
L 427.087171 381.004696 
L 438.175737 358.285476 
L 448.840432 321.50295 
L 393.327434 437.085011 
L 406.656767 418.070997 
L 388.821564 444.234201 
L 406.656767 418.070997 
L 420.799138 396.25075 
L 410.469747 410.665996 
L 410.469747 410.665996 
L 412.806096 408.380748 
L 418.604646 398.575264 
L 397.636624 429.862221 
L 412.806096 408.380748 
L 386.165635 446.401883 
L 400.162189 427.64016 
L 415.095618 406.084225 
L 395.898785 434.882268 
L 412.806096 408.380748 
L 400.162189 427.64016 
L 416.363429 400.888084 
L 400.162189 427.64016 
L 415.095618 406.084225 
L 397.636624 429.862221 
L 412.806096 408.380748 
L 395.898785 434.882268 
L 424.048912 388.6587 
L 395.898785 434.882268 
L 409.040598 415.804375 
L 386.165635 446.401883 
L 400.162189 427.64016 
L 418.604646 398.575264 
L 395.898785 434.882268 
L 429.125022 378.634439 
L 397.636624 429.862221 
L 406.656767 418.070997 
L 421.904094 391.000488 
L 400.162189 427.64016 
L 418.604646 398.575264 
L 388.821564 444.234201 
L 406.656767 418.070997 
L 393.327434 437.085011 
L 409.040598 415.804375 
L 406.656767 418.070997 
L 410.469747 410.665996 
L 386.165635 446.401883 
L 402.638348 425.404552 
L 418.604646 398.575264 
L 397.636624 429.862221 
L 412.806096 408.380748 
L 424.048912 388.6587 
L 436.338108 360.701483 
L 397.636624 429.862221 
L 410.469747 410.665996 
L 395.898785 434.882268 
L 395.898785 434.882268 
L 415.095618 406.084225 
L 429.125022 378.634439 
L 393.327434 437.085011 
L 409.040598 415.804375 
L 390.715788 439.274849 
L 400.162189 427.64016 
L 412.806096 408.380748 
L 397.636624 429.862221 
L 410.469747 410.665996 
L 397.636624 429.862221 
L 386.165635 446.401883 
L 402.638348 425.404552 
L 390.715788 439.274849 
L 412.806096 408.380748 
L 390.715788 439.274849 
L 406.656767 418.070997 
L 412.806096 408.380748 
L 412.806096 408.380748 
L 400.162189 427.64016 
L 429.125022 378.634439 
L 438.175737 358.285476 
L 400.162189 427.64016 
L 412.806096 408.380748 
L 386.165635 446.401883 
L 404.22297 420.324232 
L 400.162189 427.64016 
L 416.363429 400.888084 
L 400.162189 427.64016 
L 406.656767 418.070997 
L 418.604646 398.575264 
L 388.821564 444.234201 
L 406.656767 418.070997 
L 400.162189 427.64016 
L 386.165635 446.401883 
L 404.22297 420.324232 
L 418.604646 398.575264 
L 409.040598 415.804375 
L 400.162189 427.64016 
L 429.125022 378.634439 
L 442.132748 347.97006 
L 395.898785 434.882268 
L 412.806096 408.380748 
L 424.048912 388.6587 
L 439.955288 355.860532 
L 445.70629 337.566466 
L 448.840432 321.50295 
L 451.86472 297.061595 
L 452.646583 278.222284 
L 452.401439 255.54273 
L 451.284797 244.74983 
L 448.970762 237.463926 
L 445.686194 230.016317 
L 438.121717 217.276831 
L 432.357653 209.453555 
L 428.016419 204.169194 
L 423.289072 198.83429 
L 415.479652 190.742248 
L 409.811059 185.294168 
L 397.380491 174.276545 
L 390.639607 168.71587 
L 379.886577 160.315171 
L 372.302816 154.679411 
L 360.327474 146.182234 
L 351.950538 140.490448 
L 343.267835 134.780597 
L 334.29284 129.055911 
L 343.267835 134.780597 
L 352.176557 146.159464 
L 352.176557 146.159464 
L 355.638977 157.170021 
L 359.773665 160.03466 
L 363.801454 168.560177 
L 371.66418 174.279651 
L 371.66418 174.279651 
L 377.978488 188.152441 
L 388.31579 202.356322 
L 394.982119 208.010024 
L 396.480688 219.006263 
L 405.51833 227.413602 
L 413.128426 241.433944 
L 415.684227 244.190437 
L 419.632273 266.24402 
L 421.790211 268.961188 
L 423.118666 282.475618 
L 426.723594 287.819533 
L 426.723594 287.819533 
L 425.58733 306.795656 
L 428.361895 312.029761 
L 429.256863 322.78751 
L 432.023225 330.41204 
L 428.434198 351.35872 
L 428.820511 353.807102 
L 425.191625 366.48853 
L 425.200551 371.235502 
L 422.755211 381.351269 
L 421.896663 385.918397 
L 416.791164 395.87866 
L 415.27383 400.298591 
L 409.897249 412.108767 
L 409.897249 412.108767 
L 402.383273 423.830453 
L 402.383273 423.830453 
L 400.909412 425.86818 
L 400.909412 425.86818 
L 395.127724 435.130779 
L 395.127724 435.130779 
L 393.327434 437.085011 
L 393.327434 437.085011 
" clip-path="url(#pcdcac8af07)" style="fill: none; stroke: #1f77b4; stroke-width: 2.5; stroke-linecap: square"/>
   </g>
   <g id="line2d_20">
    <path d="M 386.165635 446.401883 
L 331.244848 125.617526 
L 386.165635 446.401883 
" clip-path="url(#pcdcac8af07)" style="fill: none; stroke-dasharray: 5.55,2.4; stroke-dashoffset: 0; stroke: #dc2626; stroke-width: 1.5"/>
   </g>
   <g id="Path3DCollection_1">
    <defs>
     <path id="m6d25ed192e" d="M 0 4.472136 
C 1.186024 4.472136 2.323632 4.000923 3.162278 3.162278 
C 4.000923 2.323632 4.472136 1.186024 4.472136 0 
C 4.472136 -1.186024 4.000923 -2.323632 3.162278 -3.162278 
C 2.323632 -4.000923 1.186024 -4.472136 0 -4.472136 
C -1.186024 -4.472136 -2.323632 -4.000923 -3.162278 -3.162278 
C -4.000923 -2.323632 -4.472136 -1.186024 -4.472136 0 
C -4.472136 1.186024 -4.000923 2.323632 -3.162278 3.162278 
C -2.323632 4.000923 -1.186024 4.472136 0 4.472136 
z
" style="stroke: #008000"/>
    </defs>
    <g clip-path="url(#pcdcac8af07)">
     <use xlink:href="#m6d25ed192e" x="386.165635" y="446.401883" style="fill: #008000; stroke: #008000"/>
    </g>
   </g>
   <g id="text_19">
    <!-- Trajetoria 3D do TCP — linear_x (run 1) -->
    <g transform="translate(226.862266 54.12) scale(0.13 -0.13)">
     <defs>
      <path id="DejaVuSans-Bold-37" d="M 31 4666 
L 4331 4666 
L 4331 3756 
L 2784 3756 
L 2784 0 
L 1581 0 
L 1581 3756 
L 31 3756 
L 31 4666 
z
" transform="scale(0.015625)"/>
      <path id="DejaVuSans-Bold-55" d="M 3138 2547 
Q 2991 2616 2845 2648 
Q 2700 2681 2553 2681 
Q 2122 2681 1889 2404 
Q 1656 2128 1656 1613 
L 1656 0 
L 538 0 
L 538 3500 
L 1656 3500 
L 1656 2925 
Q 1872 3269 2151 3426 
Q 2431 3584 2822 3584 
Q 2878 3584 2943 3579 
Q 3009 3575 3134 3559 
L 3138 2547 
z
" transform="scale(0.015625)"/>
      <path id="DejaVuSans-Bold-44" d="M 2106 1575 
Q 1756 1575 1579 1456 
Q 1403 1338 1403 1106 
Q 1403 894 1545 773 
Q 1688 653 1941 653 
Q 2256 653 2472 879 
Q 2688 1106 2688 1447 
L 2688 1575 
L 2106 1575 
z
M 3816 1997 
L 3816 0 
L 2688 0 
L 2688 519 
Q 2463 200 2181 54 
Q 1900 -91 1497 -91 
Q 953 -91 614 226 
Q 275 544 275 1050 
Q 275 1666 698 1953 
Q 1122 2241 2028 2241 
L 2688 2241 
L 2688 2328 
Q 2688 2594 2478 2717 
Q 2269 2841 1825 2841 
Q 1466 2841 1156 2769 
Q 847 2697 581 2553 
L 581 3406 
Q 941 3494 1303 3539 
Q 1666 3584 2028 3584 
Q 2975 3584 3395 3211 
Q 3816 2838 3816 1997 
z
" transform="scale(0.015625)"/>
      <path id="DejaVuSans-Bold-4d" d="M 538 3500 
L 1656 3500 
L 1656 63 
Q 1656 -641 1318 -1011 
Q 981 -1381 341 -1381 
L -213 -1381 
L -213 -647 
L -19 -647 
Q 300 -647 419 -503 
Q 538 -359 538 63 
L 538 3500 
z
M 538 4863 
L 1656 4863 
L 1656 3950 
L 538 3950 
L 538 4863 
z
" transform="scale(0.015625)"/>
      <path id="DejaVuSans-Bold-48" d="M 4031 1759 
L 4031 1441 
L 1416 1441 
Q 1456 1047 1700 850 
Q 1944 653 2381 653 
Q 2734 653 3104 758 
Q 3475 863 3866 1075 
L 3866 213 
Q 3469 63 3072 -14 
Q 2675 -91 2278 -91 
Q 1328 -91 801 392 
Q 275 875 275 1747 
Q 275 2603 792 3093 
Q 1309 3584 2216 3584 
Q 3041 3584 3536 3087 
Q 4031 2591 4031 1759 
z
M 2881 2131 
Q 2881 2450 2695 2645 
Q 2509 2841 2209 2841 
Q 1884 2841 1681 2658 
Q 1478 2475 1428 2131 
L 2881 2131 
z
" transform="scale(0.015625)"/>
      <path id="DejaVuSans-Bold-57" d="M 1759 4494 
L 1759 3500 
L 2913 3500 
L 2913 2700 
L 1759 2700 
L 1759 1216 
Q 1759 972 1856 886 
Q 1953 800 2241 800 
L 2816 800 
L 2816 0 
L 1856 0 
Q 1194 0 917 276 
Q 641 553 641 1216 
L 641 2700 
L 84 2700 
L 84 3500 
L 641 3500 
L 641 4494 
L 1759 4494 
z
" transform="scale(0.015625)"/>
      <path id="DejaVuSans-Bold-52" d="M 2203 2784 
Q 1831 2784 1636 2517 
Q 1441 2250 1441 1747 
Q 1441 1244 1636 976 
Q 1831 709 2203 709 
Q 2569 709 2762 976 
Q 2956 1244 2956 1747 
Q 2956 2250 2762 2517 
Q 2569 2784 2203 2784 
z
M 2203 3584 
Q 3106 3584 3614 3096 
Q 4122 2609 4122 1747 
Q 4122 884 3614 396 
Q 3106 -91 2203 -91 
Q 1297 -91 786 396 
Q 275 884 275 1747 
Q 275 2609 786 3096 
Q 1297 3584 2203 3584 
z
" transform="scale(0.015625)"/>
      <path id="DejaVuSans-Bold-4c" d="M 538 3500 
L 1656 3500 
L 1656 0 
L 538 0 
L 538 3500 
z
M 538 4863 
L 1656 4863 
L 1656 3950 
L 538 3950 
L 538 4863 
z
" transform="scale(0.015625)"/>
      <path id="DejaVuSans-Bold-16" d="M 2981 2516 
Q 3453 2394 3698 2092 
Q 3944 1791 3944 1325 
Q 3944 631 3412 270 
Q 2881 -91 1863 -91 
Q 1503 -91 1142 -33 
Q 781 25 428 141 
L 428 1069 
Q 766 900 1098 814 
Q 1431 728 1753 728 
Q 2231 728 2486 893 
Q 2741 1059 2741 1369 
Q 2741 1688 2480 1852 
Q 2219 2016 1709 2016 
L 1228 2016 
L 1228 2791 
L 1734 2791 
Q 2188 2791 2409 2933 
Q 2631 3075 2631 3366 
Q 2631 3634 2415 3781 
Q 2200 3928 1806 3928 
Q 1516 3928 1219 3862 
Q 922 3797 628 3669 
L 628 4550 
Q 984 4650 1334 4700 
Q 1684 4750 2022 4750 
Q 2931 4750 3382 4451 
Q 3834 4153 3834 3553 
Q 3834 3144 3618 2883 
Q 3403 2622 2981 2516 
z
" transform="scale(0.015625)"/>
      <path id="DejaVuSans-Bold-27" d="M 1791 3756 
L 1791 909 
L 2222 909 
Q 2959 909 3348 1275 
Q 3738 1641 3738 2338 
Q 3738 3031 3350 3393 
Q 2963 3756 2222 3756 
L 1791 3756 
z
M 588 4666 
L 1856 4666 
Q 2919 4666 3439 4514 
Q 3959 4363 4331 4000 
Q 4659 3684 4818 3271 
Q 4978 2859 4978 2338 
Q 4978 1809 4818 1395 
Q 4659 981 4331 666 
Q 3956 303 3431 151 
Q 2906 0 1856 0 
L 588 0 
L 588 4666 
z
" transform="scale(0.015625)"/>
      <path id="DejaVuSans-Bold-47" d="M 2919 2988 
L 2919 4863 
L 4044 4863 
L 4044 0 
L 2919 0 
L 2919 506 
Q 2688 197 2409 53 
Q 2131 -91 1766 -91 
Q 1119 -91 703 423 
Q 288 938 288 1747 
Q 288 2556 703 3070 
Q 1119 3584 1766 3584 
Q 2128 3584 2408 3439 
Q 2688 3294 2919 2988 
z
M 2181 722 
Q 2541 722 2730 984 
Q 2919 1247 2919 1747 
Q 2919 2247 2730 2509 
Q 2541 2772 2181 2772 
Q 1825 2772 1636 2509 
Q 1447 2247 1447 1747 
Q 1447 1247 1636 984 
Q 1825 722 2181 722 
z
" transform="scale(0.015625)"/>
      <path id="DejaVuSans-Bold-26" d="M 4288 256 
Q 3956 84 3597 -3 
Q 3238 -91 2847 -91 
Q 1681 -91 1000 561 
Q 319 1213 319 2328 
Q 319 3447 1000 4098 
Q 1681 4750 2847 4750 
Q 3238 4750 3597 4662 
Q 3956 4575 4288 4403 
L 4288 3438 
Q 3953 3666 3628 3772 
Q 3303 3878 2944 3878 
Q 2300 3878 1931 3465 
Q 1563 3053 1563 2328 
Q 1563 1606 1931 1193 
Q 2300 781 2944 781 
Q 3303 781 3628 887 
Q 3953 994 4288 1222 
L 4288 256 
z
" transform="scale(0.015625)"/>
      <path id="DejaVuSans-Bold-33" d="M 588 4666 
L 2584 4666 
Q 3475 4666 3951 4270 
Q 4428 3875 4428 3144 
Q 4428 2409 3951 2014 
Q 3475 1619 2584 1619 
L 1791 1619 
L 1791 0 
L 588 0 
L 588 4666 
z
M 1791 3794 
L 1791 2491 
L 2456 2491 
Q 2806 2491 2997 2661 
Q 3188 2831 3188 3144 
Q 3188 3456 2997 3625 
Q 2806 3794 2456 3794 
L 1791 3794 
z
" transform="scale(0.015625)"/>
      <path id="DejaVuSans-Bold-af6" d="M 344 2156 
L 6056 2156 
L 6056 1350 
L 344 1350 
L 344 2156 
z
" transform="scale(0.015625)"/>
      <path id="DejaVuSans-Bold-4f" d="M 538 4863 
L 1656 4863 
L 1656 0 
L 538 0 
L 538 4863 
z
" transform="scale(0.015625)"/>
      <path id="DejaVuSans-Bold-51" d="M 4056 2131 
L 4056 0 
L 2931 0 
L 2931 347 
L 2931 1631 
Q 2931 2084 2911 2256 
Q 2891 2428 2841 2509 
Q 2775 2619 2662 2680 
Q 2550 2741 2406 2741 
Q 2056 2741 1856 2470 
Q 1656 2200 1656 1722 
L 1656 0 
L 538 0 
L 538 3500 
L 1656 3500 
L 1656 2988 
Q 1909 3294 2193 3439 
Q 2478 3584 2822 3584 
Q 3428 3584 3742 3212 
Q 4056 2841 4056 2131 
z
" transform="scale(0.015625)"/>
      <path id="DejaVuSans-Bold-42" d="M 3200 -916 
L 3200 -1509 
L 0 -1509 
L 0 -916 
L 3200 -916 
z
" transform="scale(0.015625)"/>
      <path id="DejaVuSans-Bold-5b" d="M 1422 1791 
L 159 3500 
L 1344 3500 
L 2059 2463 
L 2784 3500 
L 3969 3500 
L 2706 1797 
L 4031 0 
L 2847 0 
L 2059 1106 
L 1281 0 
L 97 0 
L 1422 1791 
z
" transform="scale(0.015625)"/>
      <path id="DejaVuSans-Bold-58" d="M 500 1363 
L 500 3500 
L 1625 3500 
L 1625 3150 
Q 1625 2866 1622 2436 
Q 1619 2006 1619 1863 
Q 1619 1441 1641 1255 
Q 1663 1069 1716 984 
Q 1784 875 1895 815 
Q 2006 756 2150 756 
Q 2500 756 2700 1025 
Q 2900 1294 2900 1772 
L 2900 3500 
L 4019 3500 
L 4019 0 
L 2900 0 
L 2900 506 
Q 2647 200 2364 54 
Q 2081 -91 1741 -91 
Q 1134 -91 817 281 
Q 500 653 500 1363 
z
" transform="scale(0.015625)"/>
      <path id="DejaVuSans-Bold-14" d="M 750 831 
L 1813 831 
L 1813 3847 
L 722 3622 
L 722 4441 
L 1806 4666 
L 2950 4666 
L 2950 831 
L 4013 831 
L 4013 0 
L 750 0 
L 750 831 
z
" transform="scale(0.015625)"/>
     </defs>
     <use xlink:href="#DejaVuSans-Bold-37"/>
     <use xlink:href="#DejaVuSans-Bold-55" transform="translate(57.234375 0)"/>
     <use xlink:href="#DejaVuSans-Bold-44" transform="translate(106.546875 0)"/>
     <use xlink:href="#DejaVuSans-Bold-4d" transform="translate(174.03125 0)"/>
     <use xlink:href="#DejaVuSans-Bold-48" transform="translate(208.3125 0)"/>
     <use xlink:href="#DejaVuSans-Bold-57" transform="translate(276.140625 0)"/>
     <use xlink:href="#DejaVuSans-Bold-52" transform="translate(323.9375 0)"/>
     <use xlink:href="#DejaVuSans-Bold-55" transform="translate(392.640625 0)"/>
     <use xlink:href="#DejaVuSans-Bold-4c" transform="translate(441.953125 0)"/>
     <use xlink:href="#DejaVuSans-Bold-44" transform="translate(476.234375 0)"/>
     <use xlink:href="#DejaVuSans-Bold-3" transform="translate(543.71875 0)"/>
     <use xlink:href="#DejaVuSans-Bold-16" transform="translate(578.53125 0)"/>
     <use xlink:href="#DejaVuSans-Bold-27" transform="translate(648.109375 0)"/>
     <use xlink:href="#DejaVuSans-Bold-3" transform="translate(731.125 0)"/>
     <use xlink:href="#DejaVuSans-Bold-47" transform="translate(765.9375 0)"/>
     <use xlink:href="#DejaVuSans-Bold-52" transform="translate(837.515625 0)"/>
     <use xlink:href="#DejaVuSans-Bold-3" transform="translate(906.21875 0)"/>
     <use xlink:href="#DejaVuSans-Bold-37" transform="translate(941.03125 0)"/>
     <use xlink:href="#DejaVuSans-Bold-26" transform="translate(1009.25 0)"/>
     <use xlink:href="#DejaVuSans-Bold-33" transform="translate(1082.640625 0)"/>
     <use xlink:href="#DejaVuSans-Bold-3" transform="translate(1155.9375 0)"/>
     <use xlink:href="#DejaVuSans-Bold-af6" transform="translate(1190.75 0)"/>
     <use xlink:href="#DejaVuSans-Bold-3" transform="translate(1290.75 0)"/>
     <use xlink:href="#DejaVuSans-Bold-4f" transform="translate(1325.5625 0)"/>
     <use xlink:href="#DejaVuSans-Bold-4c" transform="translate(1359.84375 0)"/>
     <use xlink:href="#DejaVuSans-Bold-51" transform="translate(1394.125 0)"/>
     <use xlink:href="#DejaVuSans-Bold-48" transform="translate(1465.3125 0)"/>
     <use xlink:href="#DejaVuSans-Bold-44" transform="translate(1533.140625 0)"/>
     <use xlink:href="#DejaVuSans-Bold-55" transform="translate(1600.625 0)"/>
     <use xlink:href="#DejaVuSans-Bold-42" transform="translate(1649.9375 0)"/>
     <use xlink:href="#DejaVuSans-Bold-5b" transform="translate(1699.9375 0)"/>
     <use xlink:href="#DejaVuSans-Bold-3" transform="translate(1764.4375 0)"/>
     <use xlink:href="#DejaVuSans-Bold-b" transform="translate(1799.25 0)"/>
     <use xlink:href="#DejaVuSans-Bold-55" transform="translate(1844.953125 0)"/>
     <use xlink:href="#DejaVuSans-Bold-58" transform="translate(1894.265625 0)"/>
     <use xlink:href="#DejaVuSans-Bold-51" transform="translate(1965.453125 0)"/>
     <use xlink:href="#DejaVuSans-Bold-3" transform="translate(2036.640625 0)"/>
     <use xlink:href="#DejaVuSans-Bold-14" transform="translate(2071.453125 0)"/>
     <use xlink:href="#DejaVuSans-Bold-c" transform="translate(2141.03125 0)"/>
    </g>
   </g>
   <g id="Path3DCollection_2">
    <defs>
     <path id="m71eb503d1d" d="M 0 4.472136 
C 1.186024 4.472136 2.323632 4.000923 3.162278 3.162278 
C 4.000923 2.323632 4.472136 1.186024 4.472136 0 
C 4.472136 -1.186024 4.000923 -2.323632 3.162278 -3.162278 
C 2.323632 -4.000923 1.186024 -4.472136 0 -4.472136 
C -1.186024 -4.472136 -2.323632 -4.000923 -3.162278 -3.162278 
C -4.000923 -2.323632 -4.472136 -1.186024 -4.472136 0 
C -4.472136 1.186024 -4.000923 2.323632 -3.162278 3.162278 
C -2.323632 4.000923 -1.186024 4.472136 0 4.472136 
z
" style="stroke: #ff0000"/>
    </defs>
    <g clip-path="url(#pcdcac8af07)">
     <use xlink:href="#m71eb503d1d" x="393.327434" y="437.085011" style="fill: #ff0000; stroke: #ff0000"/>
    </g>
   </g>
   <g id="legend_1">
    <g id="patch_6">
     <path d="M 432.925625 137.123125 
L 583.76 137.123125 
Q 585.76 137.123125 585.76 135.123125 
L 585.76 76.12 
Q 585.76 74.12 583.76 74.12 
L 432.925625 74.12 
Q 430.925625 74.12 430.925625 76.12 
L 430.925625 135.123125 
Q 430.925625 137.123125 432.925625 137.123125 
z
" style="fill: #ffffff; opacity: 0.8; stroke: #cccccc; stroke-linejoin: miter"/>
    </g>
    <g id="line2d_21">
     <path d="M 434.925625 82.218438 
L 444.925625 82.218438 
L 454.925625 82.218438 
" style="fill: none; stroke: #1f77b4; stroke-width: 2.5; stroke-linecap: square"/>
    </g>
    <g id="text_20">
     <!-- Trajetoria Executada -->
     <g transform="translate(462.925625 85.718438) scale(0.1 -0.1)">
      <defs>
       <path id="DejaVuSans-37" d="M -19 4666 
L 3928 4666 
L 3928 4134 
L 2272 4134 
L 2272 0 
L 1638 0 
L 1638 4134 
L -19 4134 
L -19 4666 
z
" transform="scale(0.015625)"/>
       <path id="DejaVuSans-55" d="M 2631 2963 
Q 2534 3019 2420 3045 
Q 2306 3072 2169 3072 
Q 1681 3072 1420 2755 
Q 1159 2438 1159 1844 
L 1159 0 
L 581 0 
L 581 3500 
L 1159 3500 
L 1159 2956 
Q 1341 3275 1631 3429 
Q 1922 3584 2338 3584 
Q 2397 3584 2469 3576 
Q 2541 3569 2628 3553 
L 2631 2963 
z
" transform="scale(0.015625)"/>
       <path id="DejaVuSans-44" d="M 2194 1759 
Q 1497 1759 1228 1600 
Q 959 1441 959 1056 
Q 959 750 1161 570 
Q 1363 391 1709 391 
Q 2188 391 2477 730 
Q 2766 1069 2766 1631 
L 2766 1759 
L 2194 1759 
z
M 3341 1997 
L 3341 0 
L 2766 0 
L 2766 531 
Q 2569 213 2275 61 
Q 1981 -91 1556 -91 
Q 1019 -91 701 211 
Q 384 513 384 1019 
Q 384 1609 779 1909 
Q 1175 2209 1959 2209 
L 2766 2209 
L 2766 2266 
Q 2766 2663 2505 2880 
Q 2244 3097 1772 3097 
Q 1472 3097 1187 3025 
Q 903 2953 641 2809 
L 641 3341 
Q 956 3463 1253 3523 
Q 1550 3584 1831 3584 
Q 2591 3584 2966 3190 
Q 3341 2797 3341 1997 
z
" transform="scale(0.015625)"/>
       <path id="DejaVuSans-4d" d="M 603 3500 
L 1178 3500 
L 1178 -63 
Q 1178 -731 923 -1031 
Q 669 -1331 103 -1331 
L -116 -1331 
L -116 -844 
L 38 -844 
Q 366 -844 484 -692 
Q 603 -541 603 -63 
L 603 3500 
z
M 603 4863 
L 1178 4863 
L 1178 4134 
L 603 4134 
L 603 4863 
z
" transform="scale(0.015625)"/>
       <path id="DejaVuSans-48" d="M 3597 1894 
L 3597 1613 
L 953 1613 
Q 991 1019 1311 708 
Q 1631 397 2203 397 
Q 2534 397 2845 478 
Q 3156 559 3463 722 
L 3463 178 
Q 3153 47 2828 -22 
Q 2503 -91 2169 -91 
Q 1331 -91 842 396 
Q 353 884 353 1716 
Q 353 2575 817 3079 
Q 1281 3584 2069 3584 
Q 2775 3584 3186 3129 
Q 3597 2675 3597 1894 
z
M 3022 2063 
Q 3016 2534 2758 2815 
Q 2500 3097 2075 3097 
Q 1594 3097 1305 2825 
Q 1016 2553 972 2059 
L 3022 2063 
z
" transform="scale(0.015625)"/>
       <path id="DejaVuSans-57" d="M 1172 4494 
L 1172 3500 
L 2356 3500 
L 2356 3053 
L 1172 3053 
L 1172 1153 
Q 1172 725 1289 603 
Q 1406 481 1766 481 
L 2356 481 
L 2356 0 
L 1766 0 
Q 1100 0 847 248 
Q 594 497 594 1153 
L 594 3053 
L 172 3053 
L 172 3500 
L 594 3500 
L 594 4494 
L 1172 4494 
z
" transform="scale(0.015625)"/>
       <path id="DejaVuSans-52" d="M 1959 3097 
Q 1497 3097 1228 2736 
Q 959 2375 959 1747 
Q 959 1119 1226 758 
Q 1494 397 1959 397 
Q 2419 397 2687 759 
Q 2956 1122 2956 1747 
Q 2956 2369 2687 2733 
Q 2419 3097 1959 3097 
z
M 1959 3584 
Q 2709 3584 3137 3096 
Q 3566 2609 3566 1747 
Q 3566 888 3137 398 
Q 2709 -91 1959 -91 
Q 1206 -91 779 398 
Q 353 888 353 1747 
Q 353 2609 779 3096 
Q 1206 3584 1959 3584 
z
" transform="scale(0.015625)"/>
       <path id="DejaVuSans-4c" d="M 603 3500 
L 1178 3500 
L 1178 0 
L 603 0 
L 603 3500 
z
M 603 4863 
L 1178 4863 
L 1178 4134 
L 603 4134 
L 603 4863 
z
" transform="scale(0.015625)"/>
       <path id="DejaVuSans-3" transform="scale(0.015625)"/>
       <path id="DejaVuSans-28" d="M 628 4666 
L 3578 4666 
L 3578 4134 
L 1259 4134 
L 1259 2753 
L 3481 2753 
L 3481 2222 
L 1259 2222 
L 1259 531 
L 3634 531 
L 3634 0 
L 628 0 
L 628 4666 
z
" transform="scale(0.015625)"/>
       <path id="DejaVuSans-5b" d="M 3513 3500 
L 2247 1797 
L 3578 0 
L 2900 0 
L 1881 1375 
L 863 0 
L 184 0 
L 1544 1831 
L 300 3500 
L 978 3500 
L 1906 2253 
L 2834 3500 
L 3513 3500 
z
" transform="scale(0.015625)"/>
       <path id="DejaVuSans-46" d="M 3122 3366 
L 3122 2828 
Q 2878 2963 2633 3030 
Q 2388 3097 2138 3097 
Q 1578 3097 1268 2742 
Q 959 2388 959 1747 
Q 959 1106 1268 751 
Q 1578 397 2138 397 
Q 2388 397 2633 464 
Q 2878 531 3122 666 
L 3122 134 
Q 2881 22 2623 -34 
Q 2366 -91 2075 -91 
Q 1284 -91 818 406 
Q 353 903 353 1747 
Q 353 2603 823 3093 
Q 1294 3584 2113 3584 
Q 2378 3584 2631 3529 
Q 2884 3475 3122 3366 
z
" transform="scale(0.015625)"/>
       <path id="DejaVuSans-58" d="M 544 1381 
L 544 3500 
L 1119 3500 
L 1119 1403 
Q 1119 906 1312 657 
Q 1506 409 1894 409 
Q 2359 409 2629 706 
Q 2900 1003 2900 1516 
L 2900 3500 
L 3475 3500 
L 3475 0 
L 2900 0 
L 2900 538 
Q 2691 219 2414 64 
Q 2138 -91 1772 -91 
Q 1169 -91 856 284 
Q 544 659 544 1381 
z
M 1991 3584 
L 1991 3584 
z
" transform="scale(0.015625)"/>
       <path id="DejaVuSans-47" d="M 2906 2969 
L 2906 4863 
L 3481 4863 
L 3481 0 
L 2906 0 
L 2906 525 
Q 2725 213 2448 61 
Q 2172 -91 1784 -91 
Q 1150 -91 751 415 
Q 353 922 353 1747 
Q 353 2572 751 3078 
Q 1150 3584 1784 3584 
Q 2172 3584 2448 3432 
Q 2725 3281 2906 2969 
z
M 947 1747 
Q 947 1113 1208 752 
Q 1469 391 1925 391 
Q 2381 391 2643 752 
Q 2906 1113 2906 1747 
Q 2906 2381 2643 2742 
Q 2381 3103 1925 3103 
Q 1469 3103 1208 2742 
Q 947 2381 947 1747 
z
" transform="scale(0.015625)"/>
      </defs>
      <use xlink:href="#DejaVuSans-37"/>
      <use xlink:href="#DejaVuSans-55" transform="translate(46.375 0)"/>
      <use xlink:href="#DejaVuSans-44" transform="translate(87.484375 0)"/>
      <use xlink:href="#DejaVuSans-4d" transform="translate(148.765625 0)"/>
      <use xlink:href="#DejaVuSans-48" transform="translate(176.546875 0)"/>
      <use xlink:href="#DejaVuSans-57" transform="translate(238.078125 0)"/>
      <use xlink:href="#DejaVuSans-52" transform="translate(277.28125 0)"/>
      <use xlink:href="#DejaVuSans-55" transform="translate(338.46875 0)"/>
      <use xlink:href="#DejaVuSans-4c" transform="translate(379.578125 0)"/>
      <use xlink:href="#DejaVuSans-44" transform="translate(407.359375 0)"/>
      <use xlink:href="#DejaVuSans-3" transform="translate(468.640625 0)"/>
      <use xlink:href="#DejaVuSans-28" transform="translate(500.421875 0)"/>
      <use xlink:href="#DejaVuSans-5b" transform="translate(563.609375 0)"/>
      <use xlink:href="#DejaVuSans-48" transform="translate(619.71875 0)"/>
      <use xlink:href="#DejaVuSans-46" transform="translate(681.25 0)"/>
      <use xlink:href="#DejaVuSans-58" transform="translate(736.234375 0)"/>
      <use xlink:href="#DejaVuSans-57" transform="translate(799.609375 0)"/>
      <use xlink:href="#DejaVuSans-44" transform="translate(838.8125 0)"/>
      <use xlink:href="#DejaVuSans-47" transform="translate(900.09375 0)"/>
      <use xlink:href="#DejaVuSans-44" transform="translate(963.578125 0)"/>
     </g>
    </g>
    <g id="line2d_22">
     <path d="M 434.925625 97.219219 
L 444.925625 97.219219 
L 454.925625 97.219219 
" style="fill: none; stroke-dasharray: 5.55,2.4; stroke-dashoffset: 0; stroke: #dc2626; stroke-width: 1.5"/>
    </g>
    <g id="text_21">
     <!-- Trajetoria de Referencia -->
     <g transform="translate(462.925625 100.719219) scale(0.1 -0.1)">
      <defs>
       <path id="DejaVuSans-35" d="M 2841 2188 
Q 3044 2119 3236 1894 
Q 3428 1669 3622 1275 
L 4263 0 
L 3584 0 
L 2988 1197 
Q 2756 1666 2539 1819 
Q 2322 1972 1947 1972 
L 1259 1972 
L 1259 0 
L 628 0 
L 628 4666 
L 2053 4666 
Q 2853 4666 3247 4331 
Q 3641 3997 3641 3322 
Q 3641 2881 3436 2590 
Q 3231 2300 2841 2188 
z
M 1259 4147 
L 1259 2491 
L 2053 2491 
Q 2509 2491 2742 2702 
Q 2975 2913 2975 3322 
Q 2975 3731 2742 3939 
Q 2509 4147 2053 4147 
L 1259 4147 
z
" transform="scale(0.015625)"/>
       <path id="DejaVuSans-49" d="M 2375 4863 
L 2375 4384 
L 1825 4384 
Q 1516 4384 1395 4259 
Q 1275 4134 1275 3809 
L 1275 3500 
L 2222 3500 
L 2222 3053 
L 1275 3053 
L 1275 0 
L 697 0 
L 697 3053 
L 147 3053 
L 147 3500 
L 697 3500 
L 697 3744 
Q 697 4328 969 4595 
Q 1241 4863 1831 4863 
L 2375 4863 
z
" transform="scale(0.015625)"/>
       <path id="DejaVuSans-51" d="M 3513 2113 
L 3513 0 
L 2938 0 
L 2938 2094 
Q 2938 2591 2744 2837 
Q 2550 3084 2163 3084 
Q 1697 3084 1428 2787 
Q 1159 2491 1159 1978 
L 1159 0 
L 581 0 
L 581 3500 
L 1159 3500 
L 1159 2956 
Q 1366 3272 1645 3428 
Q 1925 3584 2291 3584 
Q 2894 3584 3203 3211 
Q 3513 2838 3513 2113 
z
" transform="scale(0.015625)"/>
      </defs>
      <use xlink:href="#DejaVuSans-37"/>
      <use xlink:href="#DejaVuSans-55" transform="translate(46.375 0)"/>
      <use xlink:href="#DejaVuSans-44" transform="translate(87.484375 0)"/>
      <use xlink:href="#DejaVuSans-4d" transform="translate(148.765625 0)"/>
      <use xlink:href="#DejaVuSans-48" transform="translate(176.546875 0)"/>
      <use xlink:href="#DejaVuSans-57" transform="translate(238.078125 0)"/>
      <use xlink:href="#DejaVuSans-52" transform="translate(277.28125 0)"/>
      <use xlink:href="#DejaVuSans-55" transform="translate(338.46875 0)"/>
      <use xlink:href="#DejaVuSans-4c" transform="translate(379.578125 0)"/>
      <use xlink:href="#DejaVuSans-44" transform="translate(407.359375 0)"/>
      <use xlink:href="#DejaVuSans-3" transform="translate(468.640625 0)"/>
      <use xlink:href="#DejaVuSans-47" transform="translate(500.421875 0)"/>
      <use xlink:href="#DejaVuSans-48" transform="translate(563.90625 0)"/>
      <use xlink:href="#DejaVuSans-3" transform="translate(625.4375 0)"/>
      <use xlink:href="#DejaVuSans-35" transform="translate(657.21875 0)"/>
      <use xlink:href="#DejaVuSans-48" transform="translate(722.21875 0)"/>
      <use xlink:href="#DejaVuSans-49" transform="translate(783.75 0)"/>
      <use xlink:href="#DejaVuSans-48" transform="translate(818.953125 0)"/>
      <use xlink:href="#DejaVuSans-55" transform="translate(880.484375 0)"/>
      <use xlink:href="#DejaVuSans-48" transform="translate(919.390625 0)"/>
      <use xlink:href="#DejaVuSans-51" transform="translate(980.921875 0)"/>
      <use xlink:href="#DejaVuSans-46" transform="translate(1044.296875 0)"/>
      <use xlink:href="#DejaVuSans-4c" transform="translate(1099.28125 0)"/>
      <use xlink:href="#DejaVuSans-44" transform="translate(1127.0625 0)"/>
     </g>
    </g>
    <g id="Path3DCollection_3">
     <g>
      <use xlink:href="#m6d25ed192e" x="444.925625" y="113.095" style="fill: #008000; stroke: #008000"/>
     </g>
    </g>
    <g id="text_22">
     <!-- Inicio -->
     <g transform="translate(462.925625 115.72) scale(0.1 -0.1)">
      <defs>
       <path id="DejaVuSans-2c" d="M 628 4666 
L 1259 4666 
L 1259 0 
L 628 0 
L 628 4666 
z
" transform="scale(0.015625)"/>
      </defs>
      <use xlink:href="#DejaVuSans-2c"/>
      <use xlink:href="#DejaVuSans-51" transform="translate(29.5 0)"/>
      <use xlink:href="#DejaVuSans-4c" transform="translate(92.875 0)"/>
      <use xlink:href="#DejaVuSans-46" transform="translate(120.65625 0)"/>
      <use xlink:href="#DejaVuSans-4c" transform="translate(175.640625 0)"/>
      <use xlink:href="#DejaVuSans-52" transform="translate(203.421875 0)"/>
     </g>
    </g>
    <g id="Path3DCollection_4">
     <g>
      <use xlink:href="#m71eb503d1d" x="444.925625" y="128.095781" style="fill: #ff0000; stroke: #ff0000"/>
     </g>
    </g>
    <g id="text_23">
     <!-- Fim -->
     <g transform="translate(462.925625 130.720781) scale(0.1 -0.1)">
      <defs>
       <path id="DejaVuSans-29" d="M 628 4666 
L 3309 4666 
L 3309 4134 
L 1259 4134 
L 1259 2759 
L 3109 2759 
L 3109 2228 
L 1259 2228 
L 1259 0 
L 628 0 
L 628 4666 
z
" transform="scale(0.015625)"/>
       <path id="DejaVuSans-50" d="M 3328 2828 
Q 3544 3216 3844 3400 
Q 4144 3584 4550 3584 
Q 5097 3584 5394 3201 
Q 5691 2819 5691 2113 
L 5691 0 
L 5113 0 
L 5113 2094 
Q 5113 2597 4934 2840 
Q 4756 3084 4391 3084 
Q 3944 3084 3684 2787 
Q 3425 2491 3425 1978 
L 3425 0 
L 2847 0 
L 2847 2094 
Q 2847 2600 2669 2842 
Q 2491 3084 2119 3084 
Q 1678 3084 1418 2786 
Q 1159 2488 1159 1978 
L 1159 0 
L 581 0 
L 581 3500 
L 1159 3500 
L 1159 2956 
Q 1356 3278 1631 3431 
Q 1906 3584 2284 3584 
Q 2666 3584 2933 3390 
Q 3200 3197 3328 2828 
z
" transform="scale(0.015625)"/>
      </defs>
      <use xlink:href="#DejaVuSans-29"/>
      <use xlink:href="#DejaVuSans-4c" transform="translate(50.234375 0)"/>
      <use xlink:href="#DejaVuSans-50" transform="translate(78.015625 0)"/>
     </g>
    </g>
   </g>
  </g>
 </g>
 <defs>
  <clipPath id="pcdcac8af07">
   <rect x="147.24" y="69.12" width="443.52" height="443.52"/>
  </clipPath>
 </defs>
</svg>
