<?xml version="1.0" encoding="utf-8" standalone="no"?>
<!DOCTYPE svg PUBLIC "-//W3C//DTD SVG 1.1//EN"
  "http://www.w3.org/Graphics/SVG/1.1/DTD/svg11.dtd">
<svg xmlns:xlink="http://www.w3.org/1999/xlink" width="720pt" height="576pt" viewBox="0 0 720 576" xmlns="http://www.w3.org/2000/svg" version="1.1">
 <metadata>
  <rdf:RDF xmlns:dc="http://purl.org/dc/elements/1.1/" xmlns:cc="http://creativecommons.org/ns#" xmlns:rdf="http://www.w3.org/1999/02/22-rdf-syntax-ns#">
   <cc:Work>
    <dc:type rdf:resource="http://purl.org/dc/dcmitype/StillImage"/>
    <dc:date>2026-06-22T20:59:45.920507</dc:date>
    <dc:format>image/svg+xml</dc:format>
    <dc:creator>
     <cc:Agent>
      <dc:title>Matplotlib v3.11.0, https://matplotlib.org/</dc:title>
     </cc:Agent>
    </dc:creator>
   </cc:Work>
  </rdf:RDF>
 </metadata>
 <defs>
  <style type="text/css">*{stroke-linejoin: round; stroke-linecap: butt}</style>
 </defs>
 <g id="figure_1">
  <g id="patch_1">
   <path d="M 0 576 
L 720 576 
L 720 0 
L 0 0 
z
" style="fill: #ffffff"/>
  </g>
  <g id="patch_2">
   <path d="M 147.24 512.64 
L 590.76 512.64 
L 590.76 69.12 
L 147.24 69.12 
z
" style="fill: #ffffff"/>
  </g>
  <g id="pane3d_1">
   <g id="patch_3">
    <path d="M 180.728819 403.282182 
L 327.193607 280.512492 
L 325.157607 103.456652 
L 171.683723 215.454902 
" style="fill: #f2f2f2; opacity: 0.5; stroke: #f2f2f2; stroke-linejoin: miter"/>
   </g>
  </g>
  <g id="pane3d_2">
   <g id="patch_4">
    <path d="M 327.193607 280.512492 
L 562.217334 348.82461 
L 570.604503 165.670285 
L 325.157607 103.456652 
" style="fill: #e6e6e6; opacity: 0.5; stroke: #e6e6e6; stroke-linejoin: miter"/>
   </g>
  </g>
  <g id="pane3d_3">
   <g id="patch_5">
    <path d="M 180.728819 403.282182 
L 429.865448 484.650204 
L 562.217334 348.82461 
L 327.193607 280.512492 
" style="fill: #ececec; opacity: 0.5; stroke: #ececec; stroke-linejoin: miter"/>
   </g>
  </g>
  <g id="grid3d_1">
   <g id="Line3DCollection_1">
    <path d="M 191.622971 406.840212 
L 337.514113 283.512255 
L 335.914088 106.183106 
" style="fill: none; stroke: #b0b0b0; stroke-width: 0.8"/>
    <path d="M 237.809912 421.924867 
L 381.224703 296.217198 
L 381.493267 117.736099 
" style="fill: none; stroke: #b0b0b0; stroke-width: 0.8"/>
    <path d="M 284.931406 437.314746 
L 425.745972 309.157773 
L 427.954568 129.512685 
" style="fill: none; stroke: #b0b0b0; stroke-width: 0.8"/>
    <path d="M 333.016106 453.019209 
L 471.100683 322.340597 
L 475.323848 141.519416 
" style="fill: none; stroke: #b0b0b0; stroke-width: 0.8"/>
    <path d="M 382.093851 469.048001 
L 517.312462 335.772537 
L 523.627987 153.763107 
" style="fill: none; stroke: #b0b0b0; stroke-width: 0.8"/>
   </g>
  </g>
  <g id="grid3d_2">
   <g id="Line3DCollection_2">
    <path d="M 182.296822 207.709945 
L 190.82148 394.822312 
L 439.023174 475.252125 
" style="fill: none; stroke: #b0b0b0; stroke-width: 0.8"/>
    <path d="M 202.772121 192.768004 
L 210.307687 378.488588 
L 456.688487 457.123168 
" style="fill: none; stroke: #b0b0b0; stroke-width: 0.8"/>
    <path d="M 222.784544 178.16385 
L 229.372442 362.508132 
L 473.951632 439.406935 
" style="fill: none; stroke: #b0b0b0; stroke-width: 0.8"/>
    <path d="M 242.349609 163.886156 
L 248.029274 346.869606 
L 490.826187 422.089489 
" style="fill: none; stroke: #b0b0b0; stroke-width: 0.8"/>
    <path d="M 261.482152 149.924098 
L 266.291134 331.562152 
L 507.325129 405.157516 
" style="fill: none; stroke: #b0b0b0; stroke-width: 0.8"/>
    <path d="M 280.196359 136.267322 
L 284.170435 316.575368 
L 523.46086 388.598287 
" style="fill: none; stroke: #b0b0b0; stroke-width: 0.8"/>
    <path d="M 298.505801 122.905925 
L 301.679073 301.89928 
L 539.245243 372.399627 
" style="fill: none; stroke: #b0b0b0; stroke-width: 0.8"/>
    <path d="M 316.42347 109.830426 
L 318.828456 287.524327 
L 554.68963 356.549887 
" style="fill: none; stroke: #b0b0b0; stroke-width: 0.8"/>
   </g>
  </g>
  <g id="grid3d_3">
   <g id="Line3DCollection_3">
    <path d="M 563.335652 324.403409 
L 326.921637 256.861216 
L 179.524536 378.274478 
" style="fill: none; stroke: #b0b0b0; stroke-width: 0.8"/>
    <path d="M 564.868101 290.938638 
L 326.549199 224.473119 
L 177.873409 343.987757 
" style="fill: none; stroke: #b0b0b0; stroke-width: 0.8"/>
    <path d="M 566.425692 256.924826 
L 326.170946 191.579249 
L 176.194151 309.116862 
" style="fill: none; stroke: #b0b0b0; stroke-width: 0.8"/>
    <path d="M 568.009049 222.348349 
L 325.78674 158.167667 
L 174.486035 273.646734 
" style="fill: none; stroke: #b0b0b0; stroke-width: 0.8"/>
    <path d="M 569.618817 187.195131 
L 325.396438 124.226052 
L 172.748312 237.561794 
" style="fill: none; stroke: #b0b0b0; stroke-width: 0.8"/>
   </g>
  </g>
  <g id="axis3d_1">
   <g id="line2d_1">
    <path d="M 180.728819 403.282182 
L 429.865448 484.650204 
" style="fill: none; stroke: #000000; stroke-width: 0.8; stroke-linecap: square"/>
   </g>
   <g id="xtick_1">
    <g id="line2d_2">
     <path d="M 192.893289 405.766358 
L 189.076889 408.992523 
" style="fill: none; stroke: #000000; stroke-width: 0.8; stroke-linecap: square"/>
    </g>
    <g id="text_1">
     <!-- 320 -->
     <g transform="translate(174.558864 430.107917) scale(0.1 -0.1)">
      <defs>
       <path id="DejaVuSans-16" d="M 2597 2516 
Q 3050 2419 3304 2112 
Q 3559 1806 3559 1356 
Q 3559 666 3084 287 
Q 2609 -91 1734 -91 
Q 1441 -91 1130 -33 
Q 819 25 488 141 
L 488 750 
Q 750 597 1062 519 
Q 1375 441 1716 441 
Q 2309 441 2620 675 
Q 2931 909 2931 1356 
Q 2931 1769 2642 2001 
Q 2353 2234 1838 2234 
L 1294 2234 
L 1294 2753 
L 1863 2753 
Q 2328 2753 2575 2939 
Q 2822 3125 2822 3475 
Q 2822 3834 2567 4026 
Q 2313 4219 1838 4219 
Q 1578 4219 1281 4162 
Q 984 4106 628 3988 
L 628 4550 
Q 988 4650 1302 4700 
Q 1616 4750 1894 4750 
Q 2613 4750 3031 4423 
Q 3450 4097 3450 3541 
Q 3450 3153 3228 2886 
Q 3006 2619 2597 2516 
z
" transform="scale(0.015625)"/>
       <path id="DejaVuSans-15" d="M 1228 531 
L 3431 531 
L 3431 0 
L 469 0 
L 469 531 
Q 828 903 1448 1529 
Q 2069 2156 2228 2338 
Q 2531 2678 2651 2914 
Q 2772 3150 2772 3378 
Q 2772 3750 2511 3984 
Q 2250 4219 1831 4219 
Q 1534 4219 1204 4116 
Q 875 4013 500 3803 
L 500 4441 
Q 881 4594 1212 4672 
Q 1544 4750 1819 4750 
Q 2544 4750 2975 4387 
Q 3406 4025 3406 3419 
Q 3406 3131 3298 2873 
Q 3191 2616 2906 2266 
Q 2828 2175 2409 1742 
Q 1991 1309 1228 531 
z
" transform="scale(0.015625)"/>
       <path id="DejaVuSans-13" d="M 2034 4250 
Q 1547 4250 1301 3770 
Q 1056 3291 1056 2328 
Q 1056 1369 1301 889 
Q 1547 409 2034 409 
Q 2525 409 2770 889 
Q 3016 1369 3016 2328 
Q 3016 3291 2770 3770 
Q 2525 4250 2034 4250 
z
M 2034 4750 
Q 2819 4750 3233 4129 
Q 3647 3509 3647 2328 
Q 3647 1150 3233 529 
Q 2819 -91 2034 -91 
Q 1250 -91 836 529 
Q 422 1150 422 2328 
Q 422 3509 836 4129 
Q 1250 4750 2034 4750 
z
" transform="scale(0.015625)"/>
      </defs>
      <use xlink:href="#DejaVuSans-16"/>
      <use xlink:href="#DejaVuSans-15" transform="translate(63.625 0)"/>
      <use xlink:href="#DejaVuSans-13" transform="translate(127.25 0)"/>
     </g>
    </g>
   </g>
   <g id="xtick_2">
    <g id="line2d_3">
     <path d="M 239.059683 420.829402 
L 235.304959 424.120539 
" style="fill: none; stroke: #000000; stroke-width: 0.8; stroke-linecap: square"/>
    </g>
    <g id="text_2">
     <!-- 340 -->
     <g transform="translate(220.774112 445.383772) scale(0.1 -0.1)">
      <defs>
       <path id="DejaVuSans-17" d="M 2419 4116 
L 825 1625 
L 2419 1625 
L 2419 4116 
z
M 2253 4666 
L 3047 4666 
L 3047 1625 
L 3713 1625 
L 3713 1100 
L 3047 1100 
L 3047 0 
L 2419 0 
L 2419 1100 
L 313 1100 
L 313 1709 
L 2253 4666 
z
" transform="scale(0.015625)"/>
      </defs>
      <use xlink:href="#DejaVuSans-16"/>
      <use xlink:href="#DejaVuSans-17" transform="translate(63.625 0)"/>
      <use xlink:href="#DejaVuSans-13" transform="translate(127.25 0)"/>
     </g>
    </g>
   </g>
   <g id="xtick_3">
    <g id="line2d_4">
     <path d="M 286.159534 436.197012 
L 282.469777 439.555104 
" style="fill: none; stroke: #000000; stroke-width: 0.8; stroke-linecap: square"/>
    </g>
    <g id="text_3">
     <!-- 360 -->
     <g transform="translate(267.926609 460.969422) scale(0.1 -0.1)">
      <defs>
       <path id="DejaVuSans-19" d="M 2113 2584 
Q 1688 2584 1439 2293 
Q 1191 2003 1191 1497 
Q 1191 994 1439 701 
Q 1688 409 2113 409 
Q 2538 409 2786 701 
Q 3034 994 3034 1497 
Q 3034 2003 2786 2293 
Q 2538 2584 2113 2584 
z
M 3366 4563 
L 3366 3988 
Q 3128 4100 2886 4159 
Q 2644 4219 2406 4219 
Q 1781 4219 1451 3797 
Q 1122 3375 1075 2522 
Q 1259 2794 1537 2939 
Q 1816 3084 2150 3084 
Q 2853 3084 3261 2657 
Q 3669 2231 3669 1497 
Q 3669 778 3244 343 
Q 2819 -91 2113 -91 
Q 1303 -91 875 529 
Q 447 1150 447 2328 
Q 447 3434 972 4092 
Q 1497 4750 2381 4750 
Q 2619 4750 2861 4703 
Q 3103 4656 3366 4563 
z
" transform="scale(0.015625)"/>
      </defs>
      <use xlink:href="#DejaVuSans-16"/>
      <use xlink:href="#DejaVuSans-19" transform="translate(63.625 0)"/>
      <use xlink:href="#DejaVuSans-13" transform="translate(127.25 0)"/>
     </g>
    </g>
   </g>
   <g id="xtick_4">
    <g id="line2d_5">
     <path d="M 334.221442 451.878519 
L 330.600107 455.30563 
" style="fill: none; stroke: #000000; stroke-width: 0.8; stroke-linecap: square"/>
    </g>
    <g id="text_4">
     <!-- 380 -->
     <g transform="translate(316.045156 476.874388) scale(0.1 -0.1)">
      <defs>
       <path id="DejaVuSans-1b" d="M 2034 2216 
Q 1584 2216 1326 1975 
Q 1069 1734 1069 1313 
Q 1069 891 1326 650 
Q 1584 409 2034 409 
Q 2484 409 2743 651 
Q 3003 894 3003 1313 
Q 3003 1734 2745 1975 
Q 2488 2216 2034 2216 
z
M 1403 2484 
Q 997 2584 770 2862 
Q 544 3141 544 3541 
Q 544 4100 942 4425 
Q 1341 4750 2034 4750 
Q 2731 4750 3128 4425 
Q 3525 4100 3525 3541 
Q 3525 3141 3298 2862 
Q 3072 2584 2669 2484 
Q 3125 2378 3379 2068 
Q 3634 1759 3634 1313 
Q 3634 634 3220 271 
Q 2806 -91 2034 -91 
Q 1263 -91 848 271 
Q 434 634 434 1313 
Q 434 1759 690 2068 
Q 947 2378 1403 2484 
z
M 1172 3481 
Q 1172 3119 1398 2916 
Q 1625 2713 2034 2713 
Q 2441 2713 2670 2916 
Q 2900 3119 2900 3481 
Q 2900 3844 2670 4047 
Q 2441 4250 2034 4250 
Q 1625 4250 1398 4047 
Q 1172 3844 1172 3481 
z
" transform="scale(0.015625)"/>
      </defs>
      <use xlink:href="#DejaVuSans-16"/>
      <use xlink:href="#DejaVuSans-1b" transform="translate(63.625 0)"/>
      <use xlink:href="#DejaVuSans-13" transform="translate(127.25 0)"/>
     </g>
    </g>
   </g>
   <g id="xtick_5">
    <g id="line2d_6">
     <path d="M 383.275187 467.883641 
L 379.725904 471.381919 
" style="fill: none; stroke: #000000; stroke-width: 0.8; stroke-linecap: square"/>
    </g>
    <g id="text_5">
     <!-- 400 -->
     <g transform="translate(365.159749 493.108584) scale(0.1 -0.1)">
      <use xlink:href="#DejaVuSans-17"/>
      <use xlink:href="#DejaVuSans-13" transform="translate(63.625 0)"/>
      <use xlink:href="#DejaVuSans-13" transform="translate(127.25 0)"/>
     </g>
    </g>
   </g>
   <g id="text_6">
    <!-- X (mm) -->
    <g transform="translate(265.400446 474.127046) rotate(-341.912962) scale(0.1 -0.1)">
     <defs>
      <path id="DejaVuSans-Bold-3b" d="M 3188 2381 
L 4806 0 
L 3553 0 
L 2463 1594 
L 1381 0 
L 122 0 
L 1741 2381 
L 184 4666 
L 1441 4666 
L 2463 3163 
L 3481 4666 
L 4744 4666 
L 3188 2381 
z
" transform="scale(0.015625)"/>
      <path id="DejaVuSans-Bold-3" transform="scale(0.015625)"/>
      <path id="DejaVuSans-Bold-b" d="M 2413 -844 
L 1484 -844 
Q 1006 -72 778 623 
Q 550 1319 550 2003 
Q 550 2688 779 3389 
Q 1009 4091 1484 4856 
L 2413 4856 
Q 2013 4116 1813 3408 
Q 1613 2700 1613 2009 
Q 1613 1319 1811 609 
Q 2009 -100 2413 -844 
z
" transform="scale(0.015625)"/>
      <path id="DejaVuSans-Bold-50" d="M 3781 2919 
Q 3994 3244 4286 3414 
Q 4578 3584 4928 3584 
Q 5531 3584 5847 3212 
Q 6163 2841 6163 2131 
L 6163 0 
L 5038 0 
L 5038 1825 
Q 5041 1866 5042 1909 
Q 5044 1953 5044 2034 
Q 5044 2406 4934 2573 
Q 4825 2741 4581 2741 
Q 4263 2741 4089 2478 
Q 3916 2216 3909 1719 
L 3909 0 
L 2784 0 
L 2784 1825 
Q 2784 2406 2684 2573 
Q 2584 2741 2328 2741 
Q 2006 2741 1831 2477 
Q 1656 2213 1656 1722 
L 1656 0 
L 531 0 
L 531 3500 
L 1656 3500 
L 1656 2988 
Q 1863 3284 2130 3434 
Q 2397 3584 2719 3584 
Q 3081 3584 3359 3409 
Q 3638 3234 3781 2919 
z
" transform="scale(0.015625)"/>
      <path id="DejaVuSans-Bold-c" d="M 513 -844 
Q 913 -100 1113 609 
Q 1313 1319 1313 2009 
Q 1313 2700 1113 3408 
Q 913 4116 513 4856 
L 1441 4856 
Q 1916 4091 2145 3389 
Q 2375 2688 2375 2003 
Q 2375 1319 2147 623 
Q 1919 -72 1441 -844 
L 513 -844 
z
" transform="scale(0.015625)"/>
     </defs>
     <use xlink:href="#DejaVuSans-Bold-3b"/>
     <use xlink:href="#DejaVuSans-Bold-3" transform="translate(77.09375 0)"/>
     <use xlink:href="#DejaVuSans-Bold-b" transform="translate(111.90625 0)"/>
     <use xlink:href="#DejaVuSans-Bold-50" transform="translate(157.609375 0)"/>
     <use xlink:href="#DejaVuSans-Bold-50" transform="translate(261.8125 0)"/>
     <use xlink:href="#DejaVuSans-Bold-c" transform="translate(366.015625 0)"/>
    </g>
   </g>
  </g>
  <g id="axis3d_2">
   <g id="line2d_7">
    <path d="M 562.217334 348.82461 
L 429.865448 484.650204 
" style="fill: none; stroke: #000000; stroke-width: 0.8; stroke-linecap: square"/>
   </g>
   <g id="xtick_6">
    <g id="line2d_8">
     <path d="M 436.931571 474.57434 
L 443.21179 476.609446 
" style="fill: none; stroke: #000000; stroke-width: 0.8; stroke-linecap: square"/>
    </g>
    <g id="text_7">
     <!-- 0 -->
     <g transform="translate(448.719474 496.269859) scale(0.1 -0.1)">
      <use xlink:href="#DejaVuSans-13"/>
     </g>
    </g>
   </g>
   <g id="xtick_7">
    <g id="line2d_9">
     <path d="M 454.613439 456.460899 
L 460.843886 458.4494 
" style="fill: none; stroke: #000000; stroke-width: 0.8; stroke-linecap: square"/>
    </g>
    <g id="text_8">
     <!-- 20 -->
     <g transform="translate(463.061483 477.979892) scale(0.1 -0.1)">
      <use xlink:href="#DejaVuSans-15"/>
      <use xlink:href="#DejaVuSans-13" transform="translate(63.625 0)"/>
     </g>
    </g>
   </g>
   <g id="xtick_8">
    <g id="line2d_10">
     <path d="M 471.892932 438.759654 
L 478.074233 440.703133 
" style="fill: none; stroke: #000000; stroke-width: 0.8; stroke-linecap: square"/>
    </g>
    <g id="text_9">
     <!-- 40 -->
     <g transform="translate(480.185668 460.10646) scale(0.1 -0.1)">
      <use xlink:href="#DejaVuSans-17"/>
      <use xlink:href="#DejaVuSans-13" transform="translate(63.625 0)"/>
     </g>
    </g>
   </g>
   <g id="xtick_9">
    <g id="line2d_11">
     <path d="M 488.78363 421.456693 
L 494.916406 423.356663 
" style="fill: none; stroke: #000000; stroke-width: 0.8; stroke-linecap: square"/>
    </g>
    <g id="text_10">
     <!-- 60 -->
     <g transform="translate(496.924259 442.635493) scale(0.1 -0.1)">
      <use xlink:href="#DejaVuSans-19"/>
      <use xlink:href="#DejaVuSans-13" transform="translate(63.625 0)"/>
     </g>
    </g>
   </g>
   <g id="xtick_10">
    <g id="line2d_12">
     <path d="M 505.298509 404.538725 
L 511.383378 406.396629 
" style="fill: none; stroke: #000000; stroke-width: 0.8; stroke-linecap: square"/>
    </g>
    <g id="text_11">
     <!-- 80 -->
     <g transform="translate(513.290134 425.55355) scale(0.1 -0.1)">
      <use xlink:href="#DejaVuSans-1b"/>
      <use xlink:href="#DejaVuSans-13" transform="translate(63.625 0)"/>
     </g>
    </g>
   </g>
   <g id="xtick_11">
    <g id="line2d_13">
     <path d="M 521.449974 387.99304 
L 527.487546 389.810261 
" style="fill: none; stroke: #000000; stroke-width: 0.8; stroke-linecap: square"/>
    </g>
    <g id="text_12">
     <!-- 100 -->
     <g transform="translate(526.114355 408.84778) scale(0.1 -0.1)">
      <defs>
       <path id="DejaVuSans-14" d="M 794 531 
L 1825 531 
L 1825 4091 
L 703 3866 
L 703 4441 
L 1819 4666 
L 2450 4666 
L 2450 531 
L 3481 531 
L 3481 0 
L 794 0 
L 794 531 
z
" transform="scale(0.015625)"/>
      </defs>
      <use xlink:href="#DejaVuSans-14"/>
      <use xlink:href="#DejaVuSans-13" transform="translate(63.625 0)"/>
      <use xlink:href="#DejaVuSans-13" transform="translate(127.25 0)"/>
     </g>
    </g>
   </g>
   <g id="xtick_12">
    <g id="line2d_14">
     <path d="M 537.24989 371.807485 
L 543.240772 373.585344 
" style="fill: none; stroke: #000000; stroke-width: 0.8; stroke-linecap: square"/>
    </g>
    <g id="text_13">
     <!-- 120 -->
     <g transform="translate(541.771198 392.505892) scale(0.1 -0.1)">
      <use xlink:href="#DejaVuSans-14"/>
      <use xlink:href="#DejaVuSans-15" transform="translate(63.625 0)"/>
      <use xlink:href="#DejaVuSans-13" transform="translate(127.25 0)"/>
     </g>
    </g>
   </g>
   <g id="xtick_13">
    <g id="line2d_15">
     <path d="M 552.709611 355.970427 
L 558.654402 357.71019 
" style="fill: none; stroke: #000000; stroke-width: 0.8; stroke-linecap: square"/>
    </g>
    <g id="text_14">
     <!-- 140 -->
     <g transform="translate(557.09068 376.516125) scale(0.1 -0.1)">
      <use xlink:href="#DejaVuSans-14"/>
      <use xlink:href="#DejaVuSans-17" transform="translate(63.625 0)"/>
      <use xlink:href="#DejaVuSans-13" transform="translate(127.25 0)"/>
     </g>
    </g>
   </g>
   <g id="text_15">
    <!-- Y (mm) -->
    <g transform="translate(513.618975 458.082122) rotate(-45.742112) scale(0.1 -0.1)">
     <defs>
      <path id="DejaVuSans-Bold-3c" d="M -63 4666 
L 1253 4666 
L 2316 3003 
L 3378 4666 
L 4697 4666 
L 2919 1966 
L 2919 0 
L 1716 0 
L 1716 1966 
L -63 4666 
z
" transform="scale(0.015625)"/>
     </defs>
     <use xlink:href="#DejaVuSans-Bold-3c"/>
     <use xlink:href="#DejaVuSans-Bold-3" transform="translate(72.40625 0)"/>
     <use xlink:href="#DejaVuSans-Bold-b" transform="translate(107.21875 0)"/>
     <use xlink:href="#DejaVuSans-Bold-50" transform="translate(152.921875 0)"/>
     <use xlink:href="#DejaVuSans-Bold-50" transform="translate(257.125 0)"/>
     <use xlink:href="#DejaVuSans-Bold-c" transform="translate(361.328125 0)"/>
    </g>
   </g>
  </g>
  <g id="axis3d_3">
   <g id="line2d_16">
    <path d="M 562.217334 348.82461 
L 570.604503 165.670285 
" style="fill: none; stroke: #000000; stroke-width: 0.8; stroke-linecap: square"/>
   </g>
   <g id="xtick_14">
    <g id="line2d_17">
     <path d="M 561.350933 323.836385 
L 567.309839 325.538812 
" style="fill: none; stroke: #000000; stroke-width: 0.8; stroke-linecap: square"/>
    </g>
    <g id="text_16">
     <!-- 250 -->
     <g transform="translate(572.169362 329.421636) scale(0.1 -0.1)">
      <defs>
       <path id="DejaVuSans-18" d="M 691 4666 
L 3169 4666 
L 3169 4134 
L 1269 4134 
L 1269 2991 
Q 1406 3038 1543 3061 
Q 1681 3084 1819 3084 
Q 2600 3084 3056 2656 
Q 3513 2228 3513 1497 
Q 3513 744 3044 326 
Q 2575 -91 1722 -91 
Q 1428 -91 1123 -41 
Q 819 9 494 109 
L 494 744 
Q 775 591 1075 516 
Q 1375 441 1709 441 
Q 2250 441 2565 725 
Q 2881 1009 2881 1497 
Q 2881 1984 2565 2268 
Q 2250 2553 1709 2553 
Q 1456 2553 1204 2497 
Q 953 2441 691 2322 
L 691 4666 
z
" transform="scale(0.015625)"/>
      </defs>
      <use xlink:href="#DejaVuSans-15"/>
      <use xlink:href="#DejaVuSans-18" transform="translate(63.625 0)"/>
      <use xlink:href="#DejaVuSans-13" transform="translate(127.25 0)"/>
     </g>
    </g>
   </g>
   <g id="xtick_15">
    <g id="line2d_18">
     <path d="M 562.866624 290.380439 
L 568.875882 292.05638 
" style="fill: none; stroke: #000000; stroke-width: 0.8; stroke-linecap: square"/>
    </g>
    <g id="text_17">
     <!-- 300 -->
     <g transform="translate(573.848267 295.997041) scale(0.1 -0.1)">
      <use xlink:href="#DejaVuSans-16"/>
      <use xlink:href="#DejaVuSans-13" transform="translate(63.625 0)"/>
      <use xlink:href="#DejaVuSans-13" transform="translate(127.25 0)"/>
     </g>
    </g>
   </g>
   <g id="xtick_16">
    <g id="line2d_19">
     <path d="M 564.407173 256.37582 
L 570.46764 258.024173 
" style="fill: none; stroke: #000000; stroke-width: 0.8; stroke-linecap: square"/>
    </g>
    <g id="text_18">
     <!-- 350 -->
     <g transform="translate(575.554667 262.025073) scale(0.1 -0.1)">
      <use xlink:href="#DejaVuSans-16"/>
      <use xlink:href="#DejaVuSans-18" transform="translate(63.625 0)"/>
      <use xlink:href="#DejaVuSans-13" transform="translate(127.25 0)"/>
     </g>
    </g>
   </g>
   <g id="xtick_17">
    <g id="line2d_20">
     <path d="M 565.973195 221.808917 
L 572.08575 223.428536 
" style="fill: none; stroke: #000000; stroke-width: 0.8; stroke-linecap: square"/>
    </g>
    <g id="text_19">
     <!-- 400 -->
     <g transform="translate(577.289242 227.492178) scale(0.1 -0.1)">
      <use xlink:href="#DejaVuSans-17"/>
      <use xlink:href="#DejaVuSans-13" transform="translate(63.625 0)"/>
      <use xlink:href="#DejaVuSans-13" transform="translate(127.25 0)"/>
     </g>
    </g>
   </g>
   <g id="xtick_18">
    <g id="line2d_21">
     <path d="M 567.565329 186.66567 
L 573.730872 188.255363 
" style="fill: none; stroke: #000000; stroke-width: 0.8; stroke-linecap: square"/>
    </g>
    <g id="text_20">
     <!-- 450 -->
     <g transform="translate(579.052695 192.384345) scale(0.1 -0.1)">
      <use xlink:href="#DejaVuSans-17"/>
      <use xlink:href="#DejaVuSans-18" transform="translate(63.625 0)"/>
      <use xlink:href="#DejaVuSans-13" transform="translate(127.25 0)"/>
     </g>
    </g>
   </g>
   <g id="text_21">
    <!-- Z (mm) -->
    <g transform="translate(608.466017 274.284546) rotate(-87.378092) scale(0.1 -0.1)">
     <defs>
      <path id="DejaVuSans-Bold-3d" d="M 359 4666 
L 4281 4666 
L 4281 3938 
L 1778 909 
L 4353 909 
L 4353 0 
L 288 0 
L 288 728 
L 2791 3756 
L 359 3756 
L 359 4666 
z
" transform="scale(0.015625)"/>
     </defs>
     <use xlink:href="#DejaVuSans-Bold-3d"/>
     <use xlink:href="#DejaVuSans-Bold-3" transform="translate(72.515625 0)"/>
     <use xlink:href="#DejaVuSans-Bold-b" transform="translate(107.328125 0)"/>
     <use xlink:href="#DejaVuSans-Bold-50" transform="translate(153.03125 0)"/>
     <use xlink:href="#DejaVuSans-Bold-50" transform="translate(257.234375 0)"/>
     <use xlink:href="#DejaVuSans-Bold-c" transform="translate(361.4375 0)"/>
    </g>
   </g>
  </g>
  <g id="axes_1">
   <g id="line2d_22">
    <path d="M 391.49104 448.114593 
L 394.545403 445.837847 
L 394.545403 445.837847 
L 397.451864 443.518199 
L 397.451864 443.518199 
L 402.827291 438.757848 
L 407.600144 433.835261 
L 407.600144 433.835261 
L 411.761059 428.756169 
L 413.607188 426.158442 
L 416.829479 420.85245 
L 419.414539 415.401281 
L 419.414539 415.401281 
L 422.0781 406.963069 
L 423.263721 398.227854 
L 423.327407 395.253632 
L 422.521058 386.156285 
L 422.521058 386.156285 
L 419.095627 373.646432 
L 419.095627 373.646432 
L 417.818733 370.455977 
L 412.984828 360.753204 
L 408.925361 354.181205 
L 404.202021 347.535994 
L 398.819153 340.825283 
L 389.522433 330.653316 
L 374.884036 316.935389 
L 362.266652 306.565051 
L 353.097975 299.628383 
L 343.335975 292.68232 
L 332.994914 285.734747 
L 327.614477 282.263659 
L 316.435995 275.329725 
L 298.666571 264.966501 
L 286.175378 258.093761 
L 286.175378 258.093761 
L 266.517727 247.857232 
L 252.827504 241.092929 
L 252.827504 241.092929 
L 258.152416 236.833237 
L 258.152416 236.833237 
L 268.082585 228.226695 
L 268.082585 228.226695 
L 274.897892 221.699911 
L 281.175284 215.118577 
L 281.175284 215.118577 
L 286.92104 208.490334 
L 292.133109 201.819226 
L 295.31485 197.352629 
L 298.26355 192.871575 
L 302.250609 186.125807 
L 306.766938 177.098426 
L 308.684119 172.573993 
L 311.84911 163.51211 
L 314.1302 154.440561 
L 314.943749 149.905404 
L 315.543903 145.373046 
L 315.543903 145.373046 
L 315.763879 143.108599 
L 315.763879 143.108599 
L 391.49104 448.114593 
L 408.574582 432.611543 
L 397.389389 443.012578 
L 403.086105 437.844333 
L 413.852364 427.31699 
L 397.389389 443.012578 
L 413.852364 427.31699 
L 403.086105 437.844333 
L 408.574582 432.611543 
L 397.389389 443.012578 
L 403.086105 437.844333 
L 391.49104 448.114593 
L 408.574582 432.611543 
L 397.389389 443.012578 
L 413.852364 427.31699 
L 413.852364 427.31699 
L 391.49104 448.114593 
L 408.574582 432.611543 
L 418.916191 421.965021 
L 413.852364 427.31699 
L 397.389389 443.012578 
L 413.852364 427.31699 
L 423.765597 416.557334 
L 397.389389 443.012578 
L 413.852364 427.31699 
L 391.49104 448.114593 
L 403.086105 437.844333 
L 408.574582 432.611543 
L 391.49104 448.114593 
L 403.086105 437.844333 
L 423.765597 416.557334 
L 391.49104 448.114593 
L 408.574582 432.611543 
L 418.916191 421.965021 
L 403.086105 437.844333 
L 418.916191 421.965021 
L 408.574582 432.611543 
L 413.852364 427.31699 
L 403.086105 437.844333 
L 418.916191 421.965021 
L 403.086105 437.844333 
L 413.852364 427.31699 
L 403.086105 437.844333 
L 397.389389 443.012578 
L 403.086105 437.844333 
L 413.852364 427.31699 
L 403.086105 437.844333 
L 391.49104 448.114593 
L 408.574582 432.611543 
L 397.389389 443.012578 
L 408.574582 432.611543 
L 418.916191 421.965021 
L 403.086105 437.844333 
L 397.389389 443.012578 
L 413.852364 427.31699 
L 403.086105 437.844333 
L 397.389389 443.012578 
L 413.852364 427.31699 
L 397.389389 443.012578 
L 408.574582 432.611543 
L 391.49104 448.114593 
L 408.574582 432.611543 
L 403.086105 437.844333 
L 413.852364 427.31699 
L 413.852364 427.31699 
L 397.389389 443.012578 
L 408.574582 432.611543 
L 423.765597 416.557334 
L 403.086105 437.844333 
L 397.389389 443.012578 
L 408.574582 432.611543 
L 391.49104 448.114593 
L 413.852364 427.31699 
L 397.389389 443.012578 
L 408.574582 432.611543 
L 397.389389 443.012578 
L 423.765597 416.557334 
L 436.985237 400.028515 
L 403.086105 437.844333 
L 418.916191 421.965021 
L 397.389389 443.012578 
L 391.49104 448.114593 
L 408.574582 432.611543 
L 418.916191 421.965021 
L 418.916191 421.965021 
L 432.801703 405.586413 
L 408.574582 432.611543 
L 418.916191 421.965021 
L 397.389389 443.012578 
L 397.389389 443.012578 
L 408.574582 432.611543 
L 397.389389 443.012578 
L 413.852364 427.31699 
L 408.574582 432.611543 
L 423.765597 416.557334 
L 403.086105 437.844333 
L 391.49104 448.114593 
L 408.574582 432.611543 
L 397.389389 443.012578 
L 413.852364 427.31699 
L 413.852364 427.31699 
L 403.086105 437.844333 
L 413.852364 427.31699 
L 397.389389 443.012578 
L 408.574582 432.611543 
L 397.389389 443.012578 
L 412.501248 427.974517 
L 397.389389 443.012578 
L 408.574582 432.611543 
L 403.086105 437.844333 
L 418.916191 421.965021 
L 403.086105 437.844333 
L 413.852364 427.31699 
L 397.389389 443.012578 
L 408.574582 432.611543 
L 391.49104 448.114593 
L 403.086105 437.844333 
L 418.916191 421.965021 
L 397.389389 443.012578 
L 408.574582 432.611543 
L 391.49104 448.114593 
L 408.574582 432.611543 
L 403.086105 437.844333 
L 391.49104 448.114593 
L 403.086105 437.844333 
L 408.574582 432.611543 
L 397.389389 443.012578 
L 403.086105 437.844333 
L 391.49104 448.114593 
L 403.086105 437.844333 
L 418.916191 421.965021 
L 397.389389 443.012578 
L 423.765597 416.557334 
L 428.392544 411.096711 
L 413.852364 427.31699 
L 413.852364 427.31699 
L 423.765597 416.557334 
L 436.985237 400.028515 
L 403.086105 437.844333 
L 413.852364 427.31699 
L 440.941246 394.427142 
L 448.166264 383.102962 
L 418.916191 421.965021 
L 418.916191 421.965021 
L 397.389389 443.012578 
L 413.852364 427.31699 
L 397.389389 443.012578 
L 408.574582 432.611543 
L 391.49104 448.114593 
L 403.086105 437.844333 
L 397.389389 443.012578 
L 408.574582 432.611543 
L 423.765597 416.557334 
L 397.389389 443.012578 
L 413.852364 427.31699 
L 413.852364 427.31699 
L 428.392544 411.096711 
L 428.392544 411.096711 
L 403.086105 437.844333 
L 418.916191 421.965021 
L 397.389389 443.012578 
L 413.852364 427.31699 
L 423.765597 416.557334 
L 408.574582 432.611543 
L 408.574582 432.611543 
L 403.086105 437.844333 
L 413.852364 427.31699 
L 397.389389 443.012578 
L 397.389389 443.012578 
L 408.574582 432.611543 
L 391.49104 448.114593 
L 408.574582 432.611543 
L 418.916191 421.965021 
L 397.389389 443.012578 
L 408.574582 432.611543 
L 408.574582 432.611543 
L 418.916191 421.965021 
L 432.801703 405.586413 
L 403.086105 437.844333 
L 428.392544 411.096711 
L 403.086105 437.844333 
L 418.916191 421.965021 
L 403.086105 437.844333 
L 397.389389 443.012578 
L 413.852364 427.31699 
L 397.389389 443.012578 
L 408.574582 432.611543 
L 397.389389 443.012578 
L 413.852364 427.31699 
L 440.941246 394.427142 
L 403.086105 437.844333 
L 413.852364 427.31699 
L 397.389389 443.012578 
L 413.852364 427.31699 
L 403.086105 437.844333 
L 413.852364 427.31699 
L 391.49104 448.114593 
L 408.574582 432.611543 
L 397.389389 443.012578 
L 408.574582 432.611543 
L 423.765597 416.557334 
L 418.916191 421.965021 
L 428.392544 411.096711 
L 448.166264 383.102962 
L 408.574582 432.611543 
L 418.916191 421.965021 
L 391.49104 448.114593 
L 408.574582 432.611543 
L 421.424628 419.07072 
L 421.424628 419.07072 
L 403.086105 437.844333 
L 418.916191 421.965021 
L 403.086105 437.844333 
L 423.765597 416.557334 
L 432.801703 405.586413 
L 413.852364 427.31699 
L 403.086105 437.844333 
L 403.086105 437.844333 
L 423.765597 416.557334 
L 440.941246 394.427142 
L 451.43282 377.38609 
L 459.829741 360.054652 
L 459.829741 360.054652 
L 397.389389 443.012578 
L 428.392544 411.096711 
L 403.086105 437.844333 
L 418.916191 421.965021 
L 391.49104 448.114593 
L 403.086105 437.844333 
L 413.852364 427.31699 
L 397.389389 443.012578 
L 418.916191 421.965021 
L 403.086105 437.844333 
L 418.916191 421.965021 
L 397.389389 443.012578 
L 397.389389 443.012578 
L 423.765597 416.557334 
L 436.985237 400.028515 
L 444.668824 388.784157 
L 451.43282 377.38609 
L 403.086105 437.844333 
L 418.916191 421.965021 
L 403.086105 437.844333 
L 413.852364 427.31699 
L 413.852364 427.31699 
L 397.389389 443.012578 
L 397.389389 443.012578 
L 418.916191 421.965021 
L 432.801703 405.586413 
L 403.086105 437.844333 
L 423.765597 416.557334 
L 397.389389 443.012578 
L 413.852364 427.31699 
L 423.765597 416.557334 
L 403.086105 437.844333 
L 413.852364 427.31699 
L 418.916191 421.965021 
L 418.916191 421.965021 
L 408.574582 432.611543 
L 391.49104 448.114593 
L 397.389389 443.012578 
L 413.852364 427.31699 
L 413.852364 427.31699 
L 428.392544 411.096711 
L 423.765597 416.557334 
L 432.801703 405.586413 
L 403.086105 437.844333 
L 418.916191 421.965021 
L 397.389389 443.012578 
L 413.852364 427.31699 
L 423.765597 416.557334 
L 397.389389 443.012578 
L 413.852364 427.31699 
L 403.086105 437.844333 
L 391.49104 448.114593 
L 408.574582 432.611543 
L 397.389389 443.012578 
L 413.852364 427.31699 
L 397.389389 443.012578 
L 408.574582 432.611543 
L 403.086105 437.844333 
L 413.852364 427.31699 
L 391.49104 448.114593 
L 413.852364 427.31699 
L 423.765597 416.557334 
L 403.086105 437.844333 
L 418.916191 421.965021 
L 391.49104 448.114593 
L 408.574582 432.611543 
L 423.765597 416.557334 
L 432.801703 405.586413 
L 444.668824 388.784157 
L 451.43282 377.38609 
L 464.245939 348.377617 
L 467.711373 336.628613 
L 470.225425 324.833828 
L 471.783736 313.014241 
L 472.348793 295.289296 
L 472.064881 289.391658 
L 469.814466 271.777313 
L 467.163343 260.121405 
L 463.603846 248.560419 
L 456.60029 231.437518 
L 453.832158 225.797352 
L 444.248984 209.112486 
L 432.866287 195.517266 
L 424.477476 190.18203 
L 420.053329 187.535341 
L 410.749359 182.290936 
L 395.672232 174.548788 
L 384.892545 169.479687 
L 367.654621 162.022003 
L 361.63059 159.578041 
L 342.752745 152.37854 
L 329.511706 147.694894 
L 329.511706 147.694894 
L 315.763879 143.108599 
L 329.511706 147.694894 
L 342.752745 152.37854 
L 342.752745 152.37854 
L 361.63059 159.578041 
L 379.287291 166.973648 
L 390.35542 172.005001 
L 410.749359 182.290936 
L 420.053329 187.535341 
L 440.630387 200.906277 
L 447.765405 206.344005 
L 457.273735 214.581214 
L 462.805703 220.117046 
L 467.688058 225.68365 
L 471.915895 231.273914 
L 477.028572 239.694286 
L 480.659679 248.138593 
L 482.260481 253.772737 
L 483.427576 262.216819 
L 483.388321 267.833179 
L 482.699357 273.433929 
L 482.113367 276.226363 
L 479.389647 284.563758 
L 475.241883 292.82926 
L 475.241883 292.82926 
L 469.692332 301.005103 
L 465.228723 306.398251 
L 465.228723 306.398251 
L 462.769219 309.074609 
L 457.407845 314.387812 
L 457.407845 314.387812 
L 454.504905 317.0231 
L 454.504905 317.0231 
L 397.097502 442.472888 
L 402.417456 436.796224 
L 394.330767 445.298064 
L 402.417456 436.796224 
L 407.453268 431.085825 
L 414.476287 422.466336 
L 418.8073 416.686582 
L 422.859224 410.883885 
L 426.63142 405.059365 
L 430.13059 399.216374 
L 433.354473 393.357618 
L 437.680278 384.542691 
L 440.227347 378.652423 
L 443.549006 369.802507 
L 445.432861 363.896104 
L 447.060016 357.986559 
L 448.426216 352.07548 
L 449.997447 343.21278 
L 450.396934 340.259961 
L 451.219785 331.411333 
L 451.45872 325.521354 
L 451.456014 319.641465 
L 451.456014 319.641465 
L 457.407845 314.387812 
L 457.407845 314.387812 
L 462.769219 309.074609 
L 462.769219 309.074609 
L 467.537433 303.707403 
L 467.537433 303.707403 
L 471.697568 298.290569 
L 473.547852 295.565517 
L 475.241883 292.82926 
L 478.164465 287.32789 
L 478.164465 287.32789 
L 481.364561 279.012158 
L 482.113367 276.226363 
L 483.12448 270.635692 
L 483.487366 265.026654 
L 483.487366 265.026654 
L 483.200747 259.403313 
L 482.260481 253.772737 
L 480.659679 248.138593 
L 479.613956 245.322419 
L 477.028572 239.694286 
L 473.784406 234.076792 
L 469.883006 228.475687 
L 462.805703 220.117046 
L 451.095966 209.079852 
L 444.27811 203.620069 
L 432.866287 195.517266 
L 432.866287 195.517266 
L 424.477476 190.18203 
L 415.476606 184.905378 
L 405.871967 179.692906 
L 395.672232 174.548788 
L 395.672232 174.548788 
L 379.287291 166.973648 
L 379.287291 166.973648 
L 361.63059 159.578041 
L 361.63059 159.578041 
L 349.178624 154.756494 
L 329.511706 147.694894 
L 329.511706 147.694894 
L 315.763879 143.108599 
L 336.195367 150.024223 
L 342.752745 152.37854 
L 355.470963 157.155949 
L 355.470963 157.155949 
L 373.539304 164.487053 
L 373.539304 164.487053 
L 379.287291 166.973648 
L 390.35542 172.005001 
L 395.672232 174.548788 
L 405.871967 179.692906 
L 415.476606 184.905378 
L 424.477476 190.18203 
L 428.750413 192.843154 
L 440.630387 200.906277 
L 444.27811 203.620069 
L 451.095966 209.079852 
L 457.273735 214.581214 
L 460.120698 217.344921 
L 467.688058 225.68365 
L 469.883006 228.475687 
L 473.784406 234.076792 
L 477.028572 239.694286 
L 480.659679 248.138593 
L 480.659679 248.138593 
L 482.812853 256.589027 
L 483.427576 262.216819 
L 483.388321 267.833179 
L 482.699357 273.433929 
L 481.364561 279.012158 
L 479.389647 284.563758 
L 476.783799 290.083278 
L 475.241883 292.82926 
L 473.547852 295.565517 
L 471.697568 298.290569 
L 469.692332 301.005103 
L 467.537433 303.707403 
L 465.228723 306.398251 
L 462.769219 309.074609 
L 462.769219 309.074609 
L 457.407845 314.387812 
L 454.504905 317.0231 
L 454.504905 317.0231 
L 397.097502 442.472888 
L 397.097502 442.472888 
L 404.971262 433.945043 
L 394.330767 445.298064 
L 397.097502 442.472888 
L 391.49104 448.114593 
L 397.097502 442.472888 
L 404.971262 433.945043 
L 397.097502 442.472888 
L 391.49104 448.114593 
L 394.330767 445.298064 
L 402.417456 436.796224 
L 397.097502 442.472888 
L 391.49104 448.114593 
L 399.792446 439.638333 
L 399.792446 439.638333 
L 404.971262 433.945043 
L 397.097502 442.472888 
L 402.417456 436.796224 
L 394.330767 445.298064 
L 391.49104 448.114593 
L 397.097502 442.472888 
L 394.330767 445.298064 
L 402.417456 436.796224 
L 397.097502 442.472888 
L 391.49104 448.114593 
L 394.330767 445.298064 
L 402.417456 436.796224 
L 394.330767 445.298064 
L 391.49104 448.114593 
L 399.792446 439.638333 
L 397.097502 442.472888 
L 402.417456 436.796224 
L 391.49104 448.114593 
L 402.417456 436.796224 
L 397.097502 442.472888 
L 402.417456 436.796224 
L 391.49104 448.114593 
L 399.792446 439.638333 
L 394.330767 445.298064 
L 397.097502 442.472888 
L 391.49104 448.114593 
L 399.792446 439.638333 
L 397.097502 442.472888 
L 404.971262 433.945043 
L 394.330767 445.298064 
L 397.097502 442.472888 
L 391.49104 448.114593 
L 399.792446 439.638333 
L 394.330767 445.298064 
L 402.417456 436.796224 
L 397.097502 442.472888 
L 391.49104 448.114593 
L 397.097502 442.472888 
L 404.971262 433.945043 
L 397.097502 442.472888 
L 407.453268 431.085825 
L 397.097502 442.472888 
L 391.49104 448.114593 
L 394.330767 445.298064 
L 402.417456 436.796224 
L 397.097502 442.472888 
L 391.49104 448.114593 
L 399.792446 439.638333 
L 391.49104 448.114593 
L 402.417456 436.796224 
L 394.330767 445.298064 
L 397.097502 442.472888 
L 391.49104 448.114593 
L 399.792446 439.638333 
L 397.097502 442.472888 
L 404.971262 433.945043 
L 394.330767 445.298064 
L 399.792446 439.638333 
L 391.49104 448.114593 
L 391.49104 448.114593 
L 404.971262 433.945043 
L 394.330767 445.298064 
L 399.792446 439.638333 
L 407.453268 431.085825 
L 416.677345 419.579691 
L 422.859224 410.883885 
L 394.330767 445.298064 
L 407.453268 431.085825 
L 409.865346 428.220365 
L 391.49104 448.114593 
L 397.097502 442.472888 
L 394.330767 445.298064 
L 402.417456 436.796224 
L 407.453268 431.085825 
L 397.097502 442.472888 
L 399.792446 439.638333 
L 394.330767 445.298064 
L 402.417456 436.796224 
L 407.453268 431.085825 
L 416.677345 419.579691 
L 420.868043 413.788762 
L 426.63142 405.059365 
L 431.77431 396.288979 
L 434.862474 390.421849 
L 438.985147 381.59886 
L 443.549006 369.802507 
L 446.278951 360.941473 
L 449.537523 346.166437 
L 451.45872 325.521354 
L 451.456014 319.641465 
L 451.45872 325.521354 
L 451.007317 334.359568 
L 449.997447 343.21278 
L 449.013631 349.120954 
L 449.013631 349.120954 
L 447.060016 357.986559 
L 447.060016 357.986559 
L 445.432861 363.896104 
L 443.549006 369.802507 
L 441.399912 375.704473 
L 438.985147 381.59886 
L 438.985147 381.59886 
L 434.862474 390.421849 
L 430.13059 399.216374 
L 424.779425 407.973793 
L 420.868043 413.788762 
L 414.476287 422.466336 
L 409.865346 428.220365 
L 409.865346 428.220365 
L 404.971262 433.945043 
L 404.971262 433.945043 
L 397.097502 442.472888 
L 391.49104 448.114593 
L 391.49104 448.114593 
" clip-path="url(#p06ddadedcc)" style="fill: none; stroke: #1f77b4; stroke-width: 2.5; stroke-linecap: square"/>
   </g>
   <g id="line2d_23">
    <path d="M 391.49104 448.114593 
L 248.163809 238.850617 
L 248.163809 238.850617 
L 311.155324 140.603425 
L 311.155324 140.603425 
L 451.423587 318.336418 
L 451.423587 318.336418 
L 391.49104 448.114593 
L 391.49104 448.114593 
" clip-path="url(#p06ddadedcc)" style="fill: none; stroke-dasharray: 5.55,2.4; stroke-dashoffset: 0; stroke: #dc2626; stroke-width: 1.5"/>
   </g>
   <g id="Path3DCollection_1">
    <defs>
     <path id="mbdab6d57e3" d="M 0 4.472136 
C 1.186024 4.472136 2.323632 4.000923 3.162278 3.162278 
C 4.000923 2.323632 4.472136 1.186024 4.472136 0 
C 4.472136 -1.186024 4.000923 -2.323632 3.162278 -3.162278 
C 2.323632 -4.000923 1.186024 -4.472136 0 -4.472136 
C -1.186024 -4.472136 -2.323632 -4.000923 -3.162278 -3.162278 
C -4.000923 -2.323632 -4.472136 -1.186024 -4.472136 0 
C -4.472136 1.186024 -4.000923 2.323632 -3.162278 3.162278 
C -2.323632 4.000923 -1.186024 4.472136 0 4.472136 
z
" style="stroke: #008000"/>
    </defs>
    <g clip-path="url(#p06ddadedcc)">
     <use xlink:href="#mbdab6d57e3" x="391.49104" y="448.114593" style="fill: #008000; stroke: #008000"/>
    </g>
   </g>
   <g id="text_22">
    <!-- Trajetoria 3D do TCP — pick_and_place (run 1) -->
    <g transform="translate(200.636797 54.12) scale(0.13 -0.13)">
     <defs>
      <path id="DejaVuSans-Bold-37" d="M 31 4666 
L 4331 4666 
L 4331 3756 
L 2784 3756 
L 2784 0 
L 1581 0 
L 1581 3756 
L 31 3756 
L 31 4666 
z
" transform="scale(0.015625)"/>
      <path id="DejaVuSans-Bold-55" d="M 3138 2547 
Q 2991 2616 2845 2648 
Q 2700 2681 2553 2681 
Q 2122 2681 1889 2404 
Q 1656 2128 1656 1613 
L 1656 0 
L 538 0 
L 538 3500 
L 1656 3500 
L 1656 2925 
Q 1872 3269 2151 3426 
Q 2431 3584 2822 3584 
Q 2878 3584 2943 3579 
Q 3009 3575 3134 3559 
L 3138 2547 
z
" transform="scale(0.015625)"/>
      <path id="DejaVuSans-Bold-44" d="M 2106 1575 
Q 1756 1575 1579 1456 
Q 1403 1338 1403 1106 
Q 1403 894 1545 773 
Q 1688 653 1941 653 
Q 2256 653 2472 879 
Q 2688 1106 2688 1447 
L 2688 1575 
L 2106 1575 
z
M 3816 1997 
L 3816 0 
L 2688 0 
L 2688 519 
Q 2463 200 2181 54 
Q 1900 -91 1497 -91 
Q 953 -91 614 226 
Q 275 544 275 1050 
Q 275 1666 698 1953 
Q 1122 2241 2028 2241 
L 2688 2241 
L 2688 2328 
Q 2688 2594 2478 2717 
Q 2269 2841 1825 2841 
Q 1466 2841 1156 2769 
Q 847 2697 581 2553 
L 581 3406 
Q 941 3494 1303 3539 
Q 1666 3584 2028 3584 
Q 2975 3584 3395 3211 
Q 3816 2838 3816 1997 
z
" transform="scale(0.015625)"/>
      <path id="DejaVuSans-Bold-4d" d="M 538 3500 
L 1656 3500 
L 1656 63 
Q 1656 -641 1318 -1011 
Q 981 -1381 341 -1381 
L -213 -1381 
L -213 -647 
L -19 -647 
Q 300 -647 419 -503 
Q 538 -359 538 63 
L 538 3500 
z
M 538 4863 
L 1656 4863 
L 1656 3950 
L 538 3950 
L 538 4863 
z
" transform="scale(0.015625)"/>
      <path id="DejaVuSans-Bold-48" d="M 4031 1759 
L 4031 1441 
L 1416 1441 
Q 1456 1047 1700 850 
Q 1944 653 2381 653 
Q 2734 653 3104 758 
Q 3475 863 3866 1075 
L 3866 213 
Q 3469 63 3072 -14 
Q 2675 -91 2278 -91 
Q 1328 -91 801 392 
Q 275 875 275 1747 
Q 275 2603 792 3093 
Q 1309 3584 2216 3584 
Q 3041 3584 3536 3087 
Q 4031 2591 4031 1759 
z
M 2881 2131 
Q 2881 2450 2695 2645 
Q 2509 2841 2209 2841 
Q 1884 2841 1681 2658 
Q 1478 2475 1428 2131 
L 2881 2131 
z
" transform="scale(0.015625)"/>
      <path id="DejaVuSans-Bold-57" d="M 1759 4494 
L 1759 3500 
L 2913 3500 
L 2913 2700 
L 1759 2700 
L 1759 1216 
Q 1759 972 1856 886 
Q 1953 800 2241 800 
L 2816 800 
L 2816 0 
L 1856 0 
Q 1194 0 917 276 
Q 641 553 641 1216 
L 641 2700 
L 84 2700 
L 84 3500 
L 641 3500 
L 641 4494 
L 1759 4494 
z
" transform="scale(0.015625)"/>
      <path id="DejaVuSans-Bold-52" d="M 2203 2784 
Q 1831 2784 1636 2517 
Q 1441 2250 1441 1747 
Q 1441 1244 1636 976 
Q 1831 709 2203 709 
Q 2569 709 2762 976 
Q 2956 1244 2956 1747 
Q 2956 2250 2762 2517 
Q 2569 2784 2203 2784 
z
M 2203 3584 
Q 3106 3584 3614 3096 
Q 4122 2609 4122 1747 
Q 4122 884 3614 396 
Q 3106 -91 2203 -91 
Q 1297 -91 786 396 
Q 275 884 275 1747 
Q 275 2609 786 3096 
Q 1297 3584 2203 3584 
z
" transform="scale(0.015625)"/>
      <path id="DejaVuSans-Bold-4c" d="M 538 3500 
L 1656 3500 
L 1656 0 
L 538 0 
L 538 3500 
z
M 538 4863 
L 1656 4863 
L 1656 3950 
L 538 3950 
L 538 4863 
z
" transform="scale(0.015625)"/>
      <path id="DejaVuSans-Bold-16" d="M 2981 2516 
Q 3453 2394 3698 2092 
Q 3944 1791 3944 1325 
Q 3944 631 3412 270 
Q 2881 -91 1863 -91 
Q 1503 -91 1142 -33 
Q 781 25 428 141 
L 428 1069 
Q 766 900 1098 814 
Q 1431 728 1753 728 
Q 2231 728 2486 893 
Q 2741 1059 2741 1369 
Q 2741 1688 2480 1852 
Q 2219 2016 1709 2016 
L 1228 2016 
L 1228 2791 
L 1734 2791 
Q 2188 2791 2409 2933 
Q 2631 3075 2631 3366 
Q 2631 3634 2415 3781 
Q 2200 3928 1806 3928 
Q 1516 3928 1219 3862 
Q 922 3797 628 3669 
L 628 4550 
Q 984 4650 1334 4700 
Q 1684 4750 2022 4750 
Q 2931 4750 3382 4451 
Q 3834 4153 3834 3553 
Q 3834 3144 3618 2883 
Q 3403 2622 2981 2516 
z
" transform="scale(0.015625)"/>
      <path id="DejaVuSans-Bold-27" d="M 1791 3756 
L 1791 909 
L 2222 909 
Q 2959 909 3348 1275 
Q 3738 1641 3738 2338 
Q 3738 3031 3350 3393 
Q 2963 3756 2222 3756 
L 1791 3756 
z
M 588 4666 
L 1856 4666 
Q 2919 4666 3439 4514 
Q 3959 4363 4331 4000 
Q 4659 3684 4818 3271 
Q 4978 2859 4978 2338 
Q 4978 1809 4818 1395 
Q 4659 981 4331 666 
Q 3956 303 3431 151 
Q 2906 0 1856 0 
L 588 0 
L 588 4666 
z
" transform="scale(0.015625)"/>
      <path id="DejaVuSans-Bold-47" d="M 2919 2988 
L 2919 4863 
L 4044 4863 
L 4044 0 
L 2919 0 
L 2919 506 
Q 2688 197 2409 53 
Q 2131 -91 1766 -91 
Q 1119 -91 703 423 
Q 288 938 288 1747 
Q 288 2556 703 3070 
Q 1119 3584 1766 3584 
Q 2128 3584 2408 3439 
Q 2688 3294 2919 2988 
z
M 2181 722 
Q 2541 722 2730 984 
Q 2919 1247 2919 1747 
Q 2919 2247 2730 2509 
Q 2541 2772 2181 2772 
Q 1825 2772 1636 2509 
Q 1447 2247 1447 1747 
Q 1447 1247 1636 984 
Q 1825 722 2181 722 
z
" transform="scale(0.015625)"/>
      <path id="DejaVuSans-Bold-26" d="M 4288 256 
Q 3956 84 3597 -3 
Q 3238 -91 2847 -91 
Q 1681 -91 1000 561 
Q 319 1213 319 2328 
Q 319 3447 1000 4098 
Q 1681 4750 2847 4750 
Q 3238 4750 3597 4662 
Q 3956 4575 4288 4403 
L 4288 3438 
Q 3953 3666 3628 3772 
Q 3303 3878 2944 3878 
Q 2300 3878 1931 3465 
Q 1563 3053 1563 2328 
Q 1563 1606 1931 1193 
Q 2300 781 2944 781 
Q 3303 781 3628 887 
Q 3953 994 4288 1222 
L 4288 256 
z
" transform="scale(0.015625)"/>
      <path id="DejaVuSans-Bold-33" d="M 588 4666 
L 2584 4666 
Q 3475 4666 3951 4270 
Q 4428 3875 4428 3144 
Q 4428 2409 3951 2014 
Q 3475 1619 2584 1619 
L 1791 1619 
L 1791 0 
L 588 0 
L 588 4666 
z
M 1791 3794 
L 1791 2491 
L 2456 2491 
Q 2806 2491 2997 2661 
Q 3188 2831 3188 3144 
Q 3188 3456 2997 3625 
Q 2806 3794 2456 3794 
L 1791 3794 
z
" transform="scale(0.015625)"/>
      <path id="DejaVuSans-Bold-af6" d="M 344 2156 
L 6056 2156 
L 6056 1350 
L 344 1350 
L 344 2156 
z
" transform="scale(0.015625)"/>
      <path id="DejaVuSans-Bold-53" d="M 1656 506 
L 1656 -1331 
L 538 -1331 
L 538 3500 
L 1656 3500 
L 1656 2988 
Q 1888 3294 2169 3439 
Q 2450 3584 2816 3584 
Q 3463 3584 3878 3070 
Q 4294 2556 4294 1747 
Q 4294 938 3878 423 
Q 3463 -91 2816 -91 
Q 2450 -91 2169 54 
Q 1888 200 1656 506 
z
M 2400 2772 
Q 2041 2772 1848 2508 
Q 1656 2244 1656 1747 
Q 1656 1250 1848 986 
Q 2041 722 2400 722 
Q 2759 722 2948 984 
Q 3138 1247 3138 1747 
Q 3138 2247 2948 2509 
Q 2759 2772 2400 2772 
z
" transform="scale(0.015625)"/>
      <path id="DejaVuSans-Bold-46" d="M 3366 3391 
L 3366 2478 
Q 3138 2634 2908 2709 
Q 2678 2784 2431 2784 
Q 1963 2784 1702 2511 
Q 1441 2238 1441 1747 
Q 1441 1256 1702 982 
Q 1963 709 2431 709 
Q 2694 709 2930 787 
Q 3166 866 3366 1019 
L 3366 103 
Q 3103 6 2833 -42 
Q 2563 -91 2291 -91 
Q 1344 -91 809 395 
Q 275 881 275 1747 
Q 275 2613 809 3098 
Q 1344 3584 2291 3584 
Q 2566 3584 2833 3536 
Q 3100 3488 3366 3391 
z
" transform="scale(0.015625)"/>
      <path id="DejaVuSans-Bold-4e" d="M 538 4863 
L 1656 4863 
L 1656 2216 
L 2944 3500 
L 4244 3500 
L 2534 1894 
L 4378 0 
L 3022 0 
L 1656 1459 
L 1656 0 
L 538 0 
L 538 4863 
z
" transform="scale(0.015625)"/>
      <path id="DejaVuSans-Bold-42" d="M 3200 -916 
L 3200 -1509 
L 0 -1509 
L 0 -916 
L 3200 -916 
z
" transform="scale(0.015625)"/>
      <path id="DejaVuSans-Bold-51" d="M 4056 2131 
L 4056 0 
L 2931 0 
L 2931 347 
L 2931 1631 
Q 2931 2084 2911 2256 
Q 2891 2428 2841 2509 
Q 2775 2619 2662 2680 
Q 2550 2741 2406 2741 
Q 2056 2741 1856 2470 
Q 1656 2200 1656 1722 
L 1656 0 
L 538 0 
L 538 3500 
L 1656 3500 
L 1656 2988 
Q 1909 3294 2193 3439 
Q 2478 3584 2822 3584 
Q 3428 3584 3742 3212 
Q 4056 2841 4056 2131 
z
" transform="scale(0.015625)"/>
      <path id="DejaVuSans-Bold-4f" d="M 538 4863 
L 1656 4863 
L 1656 0 
L 538 0 
L 538 4863 
z
" transform="scale(0.015625)"/>
      <path id="DejaVuSans-Bold-58" d="M 500 1363 
L 500 3500 
L 1625 3500 
L 1625 3150 
Q 1625 2866 1622 2436 
Q 1619 2006 1619 1863 
Q 1619 1441 1641 1255 
Q 1663 1069 1716 984 
Q 1784 875 1895 815 
Q 2006 756 2150 756 
Q 2500 756 2700 1025 
Q 2900 1294 2900 1772 
L 2900 3500 
L 4019 3500 
L 4019 0 
L 2900 0 
L 2900 506 
Q 2647 200 2364 54 
Q 2081 -91 1741 -91 
Q 1134 -91 817 281 
Q 500 653 500 1363 
z
" transform="scale(0.015625)"/>
      <path id="DejaVuSans-Bold-14" d="M 750 831 
L 1813 831 
L 1813 3847 
L 722 3622 
L 722 4441 
L 1806 4666 
L 2950 4666 
L 2950 831 
L 4013 831 
L 4013 0 
L 750 0 
L 750 831 
z
" transform="scale(0.015625)"/>
     </defs>
     <use xlink:href="#DejaVuSans-Bold-37"/>
     <use xlink:href="#DejaVuSans-Bold-55" transform="translate(57.234375 0)"/>
     <use xlink:href="#DejaVuSans-Bold-44" transform="translate(106.546875 0)"/>
     <use xlink:href="#DejaVuSans-Bold-4d" transform="translate(174.03125 0)"/>
     <use xlink:href="#DejaVuSans-Bold-48" transform="translate(208.3125 0)"/>
     <use xlink:href="#DejaVuSans-Bold-57" transform="translate(276.140625 0)"/>
     <use xlink:href="#DejaVuSans-Bold-52" transform="translate(323.9375 0)"/>
     <use xlink:href="#DejaVuSans-Bold-55" transform="translate(392.640625 0)"/>
     <use xlink:href="#DejaVuSans-Bold-4c" transform="translate(441.953125 0)"/>
     <use xlink:href="#DejaVuSans-Bold-44" transform="translate(476.234375 0)"/>
     <use xlink:href="#DejaVuSans-Bold-3" transform="translate(543.71875 0)"/>
     <use xlink:href="#DejaVuSans-Bold-16" transform="translate(578.53125 0)"/>
     <use xlink:href="#DejaVuSans-Bold-27" transform="translate(648.109375 0)"/>
     <use xlink:href="#DejaVuSans-Bold-3" transform="translate(731.125 0)"/>
     <use xlink:href="#DejaVuSans-Bold-47" transform="translate(765.9375 0)"/>
     <use xlink:href="#DejaVuSans-Bold-52" transform="translate(837.515625 0)"/>
     <use xlink:href="#DejaVuSans-Bold-3" transform="translate(906.21875 0)"/>
     <use xlink:href="#DejaVuSans-Bold-37" transform="translate(941.03125 0)"/>
     <use xlink:href="#DejaVuSans-Bold-26" transform="translate(1009.25 0)"/>
     <use xlink:href="#DejaVuSans-Bold-33" transform="translate(1082.640625 0)"/>
     <use xlink:href="#DejaVuSans-Bold-3" transform="translate(1155.9375 0)"/>
     <use xlink:href="#DejaVuSans-Bold-af6" transform="translate(1190.75 0)"/>
     <use xlink:href="#DejaVuSans-Bold-3" transform="translate(1290.75 0)"/>
     <use xlink:href="#DejaVuSans-Bold-53" transform="translate(1325.5625 0)"/>
     <use xlink:href="#DejaVuSans-Bold-4c" transform="translate(1397.140625 0)"/>
     <use xlink:href="#DejaVuSans-Bold-46" transform="translate(1431.421875 0)"/>
     <use xlink:href="#DejaVuSans-Bold-4e" transform="translate(1490.703125 0)"/>
     <use xlink:href="#DejaVuSans-Bold-42" transform="translate(1557.203125 0)"/>
     <use xlink:href="#DejaVuSans-Bold-44" transform="translate(1607.203125 0)"/>
     <use xlink:href="#DejaVuSans-Bold-51" transform="translate(1674.6875 0)"/>
     <use xlink:href="#DejaVuSans-Bold-47" transform="translate(1745.875 0)"/>
     <use xlink:href="#DejaVuSans-Bold-42" transform="translate(1817.453125 0)"/>
     <use xlink:href="#DejaVuSans-Bold-53" transform="translate(1867.453125 0)"/>
     <use xlink:href="#DejaVuSans-Bold-4f" transform="translate(1939.03125 0)"/>
     <use xlink:href="#DejaVuSans-Bold-44" transform="translate(1973.3125 0)"/>
     <use xlink:href="#DejaVuSans-Bold-46" transform="translate(2040.796875 0)"/>
     <use xlink:href="#DejaVuSans-Bold-48" transform="translate(2100.078125 0)"/>
     <use xlink:href="#DejaVuSans-Bold-3" transform="translate(2167.90625 0)"/>
     <use xlink:href="#DejaVuSans-Bold-b" transform="translate(2202.71875 0)"/>
     <use xlink:href="#DejaVuSans-Bold-55" transform="translate(2248.421875 0)"/>
     <use xlink:href="#DejaVuSans-Bold-58" transform="translate(2297.734375 0)"/>
     <use xlink:href="#DejaVuSans-Bold-51" transform="translate(2368.921875 0)"/>
     <use xlink:href="#DejaVuSans-Bold-3" transform="translate(2440.109375 0)"/>
     <use xlink:href="#DejaVuSans-Bold-14" transform="translate(2474.921875 0)"/>
     <use xlink:href="#DejaVuSans-Bold-c" transform="translate(2544.5 0)"/>
    </g>
   </g>
   <g id="Path3DCollection_2">
    <defs>
     <path id="mc0e1754f59" d="M 0 4.472136 
C 1.186024 4.472136 2.323632 4.000923 3.162278 3.162278 
C 4.000923 2.323632 4.472136 1.186024 4.472136 0 
C 4.472136 -1.186024 4.000923 -2.323632 3.162278 -3.162278 
C 2.323632 -4.000923 1.186024 -4.472136 0 -4.472136 
C -1.186024 -4.472136 -2.323632 -4.000923 -3.162278 -3.162278 
C -4.000923 -2.323632 -4.472136 -1.186024 -4.472136 0 
C -4.472136 1.186024 -4.000923 2.323632 -3.162278 3.162278 
C -2.323632 4.000923 -1.186024 4.472136 0 4.472136 
z
" style="stroke: #ff0000"/>
    </defs>
    <g clip-path="url(#p06ddadedcc)">
     <use xlink:href="#mc0e1754f59" x="391.49104" y="448.114593" style="fill: #ff0000; stroke: #ff0000"/>
    </g>
   </g>
   <g id="legend_1">
    <g id="patch_6">
     <path d="M 432.925625 137.123125 
L 583.76 137.123125 
Q 585.76 137.123125 585.76 135.123125 
L 585.76 76.12 
Q 585.76 74.12 583.76 74.12 
L 432.925625 74.12 
Q 430.925625 74.12 430.925625 76.12 
L 430.925625 135.123125 
Q 430.925625 137.123125 432.925625 137.123125 
z
" style="fill: #ffffff; opacity: 0.8; stroke: #cccccc; stroke-linejoin: miter"/>
    </g>
    <g id="line2d_24">
     <path d="M 434.925625 82.218438 
L 444.925625 82.218438 
L 454.925625 82.218438 
" style="fill: none; stroke: #1f77b4; stroke-width: 2.5; stroke-linecap: square"/>
    </g>
    <g id="text_23">
     <!-- Trajetoria Executada -->
     <g transform="translate(462.925625 85.718438) scale(0.1 -0.1)">
      <defs>
       <path id="DejaVuSans-37" d="M -19 4666 
L 3928 4666 
L 3928 4134 
L 2272 4134 
L 2272 0 
L 1638 0 
L 1638 4134 
L -19 4134 
L -19 4666 
z
" transform="scale(0.015625)"/>
       <path id="DejaVuSans-55" d="M 2631 2963 
Q 2534 3019 2420 3045 
Q 2306 3072 2169 3072 
Q 1681 3072 1420 2755 
Q 1159 2438 1159 1844 
L 1159 0 
L 581 0 
L 581 3500 
L 1159 3500 
L 1159 2956 
Q 1341 3275 1631 3429 
Q 1922 3584 2338 3584 
Q 2397 3584 2469 3576 
Q 2541 3569 2628 3553 
L 2631 2963 
z
" transform="scale(0.015625)"/>
       <path id="DejaVuSans-44" d="M 2194 1759 
Q 1497 1759 1228 1600 
Q 959 1441 959 1056 
Q 959 750 1161 570 
Q 1363 391 1709 391 
Q 2188 391 2477 730 
Q 2766 1069 2766 1631 
L 2766 1759 
L 2194 1759 
z
M 3341 1997 
L 3341 0 
L 2766 0 
L 2766 531 
Q 2569 213 2275 61 
Q 1981 -91 1556 -91 
Q 1019 -91 701 211 
Q 384 513 384 1019 
Q 384 1609 779 1909 
Q 1175 2209 1959 2209 
L 2766 2209 
L 2766 2266 
Q 2766 2663 2505 2880 
Q 2244 3097 1772 3097 
Q 1472 3097 1187 3025 
Q 903 2953 641 2809 
L 641 3341 
Q 956 3463 1253 3523 
Q 1550 3584 1831 3584 
Q 2591 3584 2966 3190 
Q 3341 2797 3341 1997 
z
" transform="scale(0.015625)"/>
       <path id="DejaVuSans-4d" d="M 603 3500 
L 1178 3500 
L 1178 -63 
Q 1178 -731 923 -1031 
Q 669 -1331 103 -1331 
L -116 -1331 
L -116 -844 
L 38 -844 
Q 366 -844 484 -692 
Q 603 -541 603 -63 
L 603 3500 
z
M 603 4863 
L 1178 4863 
L 1178 4134 
L 603 4134 
L 603 4863 
z
" transform="scale(0.015625)"/>
       <path id="DejaVuSans-48" d="M 3597 1894 
L 3597 1613 
L 953 1613 
Q 991 1019 1311 708 
Q 1631 397 2203 397 
Q 2534 397 2845 478 
Q 3156 559 3463 722 
L 3463 178 
Q 3153 47 2828 -22 
Q 2503 -91 2169 -91 
Q 1331 -91 842 396 
Q 353 884 353 1716 
Q 353 2575 817 3079 
Q 1281 3584 2069 3584 
Q 2775 3584 3186 3129 
Q 3597 2675 3597 1894 
z
M 3022 2063 
Q 3016 2534 2758 2815 
Q 2500 3097 2075 3097 
Q 1594 3097 1305 2825 
Q 1016 2553 972 2059 
L 3022 2063 
z
" transform="scale(0.015625)"/>
       <path id="DejaVuSans-57" d="M 1172 4494 
L 1172 3500 
L 2356 3500 
L 2356 3053 
L 1172 3053 
L 1172 1153 
Q 1172 725 1289 603 
Q 1406 481 1766 481 
L 2356 481 
L 2356 0 
L 1766 0 
Q 1100 0 847 248 
Q 594 497 594 1153 
L 594 3053 
L 172 3053 
L 172 3500 
L 594 3500 
L 594 4494 
L 1172 4494 
z
" transform="scale(0.015625)"/>
       <path id="DejaVuSans-52" d="M 1959 3097 
Q 1497 3097 1228 2736 
Q 959 2375 959 1747 
Q 959 1119 1226 758 
Q 1494 397 1959 397 
Q 2419 397 2687 759 
Q 2956 1122 2956 1747 
Q 2956 2369 2687 2733 
Q 2419 3097 1959 3097 
z
M 1959 3584 
Q 2709 3584 3137 3096 
Q 3566 2609 3566 1747 
Q 3566 888 3137 398 
Q 2709 -91 1959 -91 
Q 1206 -91 779 398 
Q 353 888 353 1747 
Q 353 2609 779 3096 
Q 1206 3584 1959 3584 
z
" transform="scale(0.015625)"/>
       <path id="DejaVuSans-4c" d="M 603 3500 
L 1178 3500 
L 1178 0 
L 603 0 
L 603 3500 
z
M 603 4863 
L 1178 4863 
L 1178 4134 
L 603 4134 
L 603 4863 
z
" transform="scale(0.015625)"/>
       <path id="DejaVuSans-3" transform="scale(0.015625)"/>
       <path id="DejaVuSans-28" d="M 628 4666 
L 3578 4666 
L 3578 4134 
L 1259 4134 
L 1259 2753 
L 3481 2753 
L 3481 2222 
L 1259 2222 
L 1259 531 
L 3634 531 
L 3634 0 
L 628 0 
L 628 4666 
z
" transform="scale(0.015625)"/>
       <path id="DejaVuSans-5b" d="M 3513 3500 
L 2247 1797 
L 3578 0 
L 2900 0 
L 1881 1375 
L 863 0 
L 184 0 
L 1544 1831 
L 300 3500 
L 978 3500 
L 1906 2253 
L 2834 3500 
L 3513 3500 
z
" transform="scale(0.015625)"/>
       <path id="DejaVuSans-46" d="M 3122 3366 
L 3122 2828 
Q 2878 2963 2633 3030 
Q 2388 3097 2138 3097 
Q 1578 3097 1268 2742 
Q 959 2388 959 1747 
Q 959 1106 1268 751 
Q 1578 397 2138 397 
Q 2388 397 2633 464 
Q 2878 531 3122 666 
L 3122 134 
Q 2881 22 2623 -34 
Q 2366 -91 2075 -91 
Q 1284 -91 818 406 
Q 353 903 353 1747 
Q 353 2603 823 3093 
Q 1294 3584 2113 3584 
Q 2378 3584 2631 3529 
Q 2884 3475 3122 3366 
z
" transform="scale(0.015625)"/>
       <path id="DejaVuSans-58" d="M 544 1381 
L 544 3500 
L 1119 3500 
L 1119 1403 
Q 1119 906 1312 657 
Q 1506 409 1894 409 
Q 2359 409 2629 706 
Q 2900 1003 2900 1516 
L 2900 3500 
L 3475 3500 
L 3475 0 
L 2900 0 
L 2900 538 
Q 2691 219 2414 64 
Q 2138 -91 1772 -91 
Q 1169 -91 856 284 
Q 544 659 544 1381 
z
M 1991 3584 
L 1991 3584 
z
" transform="scale(0.015625)"/>
       <path id="DejaVuSans-47" d="M 2906 2969 
L 2906 4863 
L 3481 4863 
L 3481 0 
L 2906 0 
L 2906 525 
Q 2725 213 2448 61 
Q 2172 -91 1784 -91 
Q 1150 -91 751 415 
Q 353 922 353 1747 
Q 353 2572 751 3078 
Q 1150 3584 1784 3584 
Q 2172 3584 2448 3432 
Q 2725 3281 2906 2969 
z
M 947 1747 
Q 947 1113 1208 752 
Q 1469 391 1925 391 
Q 2381 391 2643 752 
Q 2906 1113 2906 1747 
Q 2906 2381 2643 2742 
Q 2381 3103 1925 3103 
Q 1469 3103 1208 2742 
Q 947 2381 947 1747 
z
" transform="scale(0.015625)"/>
      </defs>
      <use xlink:href="#DejaVuSans-37"/>
      <use xlink:href="#DejaVuSans-55" transform="translate(46.375 0)"/>
      <use xlink:href="#DejaVuSans-44" transform="translate(87.484375 0)"/>
      <use xlink:href="#DejaVuSans-4d" transform="translate(148.765625 0)"/>
      <use xlink:href="#DejaVuSans-48" transform="translate(176.546875 0)"/>
      <use xlink:href="#DejaVuSans-57" transform="translate(238.078125 0)"/>
      <use xlink:href="#DejaVuSans-52" transform="translate(277.28125 0)"/>
      <use xlink:href="#DejaVuSans-55" transform="translate(338.46875 0)"/>
      <use xlink:href="#DejaVuSans-4c" transform="translate(379.578125 0)"/>
      <use xlink:href="#DejaVuSans-44" transform="translate(407.359375 0)"/>
      <use xlink:href="#DejaVuSans-3" transform="translate(468.640625 0)"/>
      <use xlink:href="#DejaVuSans-28" transform="translate(500.421875 0)"/>
      <use xlink:href="#DejaVuSans-5b" transform="translate(563.609375 0)"/>
      <use xlink:href="#DejaVuSans-48" transform="translate(619.71875 0)"/>
      <use xlink:href="#DejaVuSans-46" transform="translate(681.25 0)"/>
      <use xlink:href="#DejaVuSans-58" transform="translate(736.234375 0)"/>
      <use xlink:href="#DejaVuSans-57" transform="translate(799.609375 0)"/>
      <use xlink:href="#DejaVuSans-44" transform="translate(838.8125 0)"/>
      <use xlink:href="#DejaVuSans-47" transform="translate(900.09375 0)"/>
      <use xlink:href="#DejaVuSans-44" transform="translate(963.578125 0)"/>
     </g>
    </g>
    <g id="line2d_25">
     <path d="M 434.925625 97.219219 
L 444.925625 97.219219 
L 454.925625 97.219219 
" style="fill: none; stroke-dasharray: 5.55,2.4; stroke-dashoffset: 0; stroke: #dc2626; stroke-width: 1.5"/>
    </g>
    <g id="text_24">
     <!-- Trajetoria de Referencia -->
     <g transform="translate(462.925625 100.719219) scale(0.1 -0.1)">
      <defs>
       <path id="DejaVuSans-35" d="M 2841 2188 
Q 3044 2119 3236 1894 
Q 3428 1669 3622 1275 
L 4263 0 
L 3584 0 
L 2988 1197 
Q 2756 1666 2539 1819 
Q 2322 1972 1947 1972 
L 1259 1972 
L 1259 0 
L 628 0 
L 628 4666 
L 2053 4666 
Q 2853 4666 3247 4331 
Q 3641 3997 3641 3322 
Q 3641 2881 3436 2590 
Q 3231 2300 2841 2188 
z
M 1259 4147 
L 1259 2491 
L 2053 2491 
Q 2509 2491 2742 2702 
Q 2975 2913 2975 3322 
Q 2975 3731 2742 3939 
Q 2509 4147 2053 4147 
L 1259 4147 
z
" transform="scale(0.015625)"/>
       <path id="DejaVuSans-49" d="M 2375 4863 
L 2375 4384 
L 1825 4384 
Q 1516 4384 1395 4259 
Q 1275 4134 1275 3809 
L 1275 3500 
L 2222 3500 
L 2222 3053 
L 1275 3053 
L 1275 0 
L 697 0 
L 697 3053 
L 147 3053 
L 147 3500 
L 697 3500 
L 697 3744 
Q 697 4328 969 4595 
Q 1241 4863 1831 4863 
L 2375 4863 
z
" transform="scale(0.015625)"/>
       <path id="DejaVuSans-51" d="M 3513 2113 
L 3513 0 
L 2938 0 
L 2938 2094 
Q 2938 2591 2744 2837 
Q 2550 3084 2163 3084 
Q 1697 3084 1428 2787 
Q 1159 2491 1159 1978 
L 1159 0 
L 581 0 
L 581 3500 
L 1159 3500 
L 1159 2956 
Q 1366 3272 1645 3428 
Q 1925 3584 2291 3584 
Q 2894 3584 3203 3211 
Q 3513 2838 3513 2113 
z
" transform="scale(0.015625)"/>
      </defs>
      <use xlink:href="#DejaVuSans-37"/>
      <use xlink:href="#DejaVuSans-55" transform="translate(46.375 0)"/>
      <use xlink:href="#DejaVuSans-44" transform="translate(87.484375 0)"/>
      <use xlink:href="#DejaVuSans-4d" transform="translate(148.765625 0)"/>
      <use xlink:href="#DejaVuSans-48" transform="translate(176.546875 0)"/>
      <use xlink:href="#DejaVuSans-57" transform="translate(238.078125 0)"/>
      <use xlink:href="#DejaVuSans-52" transform="translate(277.28125 0)"/>
      <use xlink:href="#DejaVuSans-55" transform="translate(338.46875 0)"/>
      <use xlink:href="#DejaVuSans-4c" transform="translate(379.578125 0)"/>
      <use xlink:href="#DejaVuSans-44" transform="translate(407.359375 0)"/>
      <use xlink:href="#DejaVuSans-3" transform="translate(468.640625 0)"/>
      <use xlink:href="#DejaVuSans-47" transform="translate(500.421875 0)"/>
      <use xlink:href="#DejaVuSans-48" transform="translate(563.90625 0)"/>
      <use xlink:href="#DejaVuSans-3" transform="translate(625.4375 0)"/>
      <use xlink:href="#DejaVuSans-35" transform="translate(657.21875 0)"/>
      <use xlink:href="#DejaVuSans-48" transform="translate(722.21875 0)"/>
      <use xlink:href="#DejaVuSans-49" transform="translate(783.75 0)"/>
      <use xlink:href="#DejaVuSans-48" transform="translate(818.953125 0)"/>
      <use xlink:href="#DejaVuSans-55" transform="translate(880.484375 0)"/>
      <use xlink:href="#DejaVuSans-48" transform="translate(919.390625 0)"/>
      <use xlink:href="#DejaVuSans-51" transform="translate(980.921875 0)"/>
      <use xlink:href="#DejaVuSans-46" transform="translate(1044.296875 0)"/>
      <use xlink:href="#DejaVuSans-4c" transform="translate(1099.28125 0)"/>
      <use xlink:href="#DejaVuSans-44" transform="translate(1127.0625 0)"/>
     </g>
    </g>
    <g id="Path3DCollection_3">
     <g>
      <use xlink:href="#mbdab6d57e3" x="444.925625" y="113.095" style="fill: #008000; stroke: #008000"/>
     </g>
    </g>
    <g id="text_25">
     <!-- Inicio -->
     <g transform="translate(462.925625 115.72) scale(0.1 -0.1)">
      <defs>
       <path id="DejaVuSans-2c" d="M 628 4666 
L 1259 4666 
L 1259 0 
L 628 0 
L 628 4666 
z
" transform="scale(0.015625)"/>
      </defs>
      <use xlink:href="#DejaVuSans-2c"/>
      <use xlink:href="#DejaVuSans-51" transform="translate(29.5 0)"/>
      <use xlink:href="#DejaVuSans-4c" transform="translate(92.875 0)"/>
      <use xlink:href="#DejaVuSans-46" transform="translate(120.65625 0)"/>
      <use xlink:href="#DejaVuSans-4c" transform="translate(175.640625 0)"/>
      <use xlink:href="#DejaVuSans-52" transform="translate(203.421875 0)"/>
     </g>
    </g>
    <g id="Path3DCollection_4">
     <g>
      <use xlink:href="#mc0e1754f59" x="444.925625" y="128.095781" style="fill: #ff0000; stroke: #ff0000"/>
     </g>
    </g>
    <g id="text_26">
     <!-- Fim -->
     <g transform="translate(462.925625 130.720781) scale(0.1 -0.1)">
      <defs>
       <path id="DejaVuSans-29" d="M 628 4666 
L 3309 4666 
L 3309 4134 
L 1259 4134 
L 1259 2759 
L 3109 2759 
L 3109 2228 
L 1259 2228 
L 1259 0 
L 628 0 
L 628 4666 
z
" transform="scale(0.015625)"/>
       <path id="DejaVuSans-50" d="M 3328 2828 
Q 3544 3216 3844 3400 
Q 4144 3584 4550 3584 
Q 5097 3584 5394 3201 
Q 5691 2819 5691 2113 
L 5691 0 
L 5113 0 
L 5113 2094 
Q 5113 2597 4934 2840 
Q 4756 3084 4391 3084 
Q 3944 3084 3684 2787 
Q 3425 2491 3425 1978 
L 3425 0 
L 2847 0 
L 2847 2094 
Q 2847 2600 2669 2842 
Q 2491 3084 2119 3084 
Q 1678 3084 1418 2786 
Q 1159 2488 1159 1978 
L 1159 0 
L 581 0 
L 581 3500 
L 1159 3500 
L 1159 2956 
Q 1356 3278 1631 3431 
Q 1906 3584 2284 3584 
Q 2666 3584 2933 3390 
Q 3200 3197 3328 2828 
z
" transform="scale(0.015625)"/>
      </defs>
      <use xlink:href="#DejaVuSans-29"/>
      <use xlink:href="#DejaVuSans-4c" transform="translate(50.234375 0)"/>
      <use xlink:href="#DejaVuSans-50" transform="translate(78.015625 0)"/>
     </g>
    </g>
   </g>
  </g>
 </g>
 <defs>
  <clipPath id="p06ddadedcc">
   <rect x="147.24" y="69.12" width="443.52" height="443.52"/>
  </clipPath>
 </defs>
</svg>
