<?xml version="1.0" encoding="utf-8" standalone="no"?>
<!DOCTYPE svg PUBLIC "-//W3C//DTD SVG 1.1//EN"
  "http://www.w3.org/Graphics/SVG/1.1/DTD/svg11.dtd">
<svg xmlns:xlink="http://www.w3.org/1999/xlink" width="792pt" height="360pt" viewBox="0 0 792 360" xmlns="http://www.w3.org/2000/svg" version="1.1">
 <metadata>
  <rdf:RDF xmlns:dc="http://purl.org/dc/elements/1.1/" xmlns:cc="http://creativecommons.org/ns#" xmlns:rdf="http://www.w3.org/1999/02/22-rdf-syntax-ns#">
   <cc:Work>
    <dc:type rdf:resource="http://purl.org/dc/dcmitype/StillImage"/>
    <dc:date>2026-06-22T18:21:44.757755</dc:date>
    <dc:format>image/svg+xml</dc:format>
    <dc:creator>
     <cc:Agent>
      <dc:title>Matplotlib v3.11.0, https://matplotlib.org/</dc:title>
     </cc:Agent>
    </dc:creator>
   </cc:Work>
  </rdf:RDF>
 </metadata>
 <defs>
  <style type="text/css">*{stroke-linejoin: round; stroke-linecap: butt}</style>
 </defs>
 <g id="figure_1">
  <g id="patch_1">
   <path d="M 0 360 
L 792 360 
L 792 0 
L 0 0 
z
" style="fill: #ffffff"/>
  </g>
  <g id="axes_1">
   <g id="patch_2">
    <path d="M 47.242344 317.877656 
L 781.2 317.877656 
L 781.2 10.8 
L 47.242344 10.8 
z
" style="fill: #ffffff"/>
   </g>
   <g id="matplotlib.axis_1">
    <g id="xtick_1">
     <g id="line2d_1">
      <path d="M 80.604055 317.877656 
L 80.604055 10.8 
" clip-path="url(#p17d92acd70)" style="fill: none; stroke: #b0b0b0; stroke-opacity: 0.3; stroke-width: 0.5; stroke-linecap: square"/>
     </g>
     <g id="line2d_2">
      <defs>
       <path id="m1601b773ae" d="M 0 0 
L 0 3.5 
" style="stroke: #000000; stroke-width: 0.8"/>
      </defs>
      <g>
       <use xlink:href="#m1601b773ae" x="80.604055" y="317.877656" style="stroke: #000000; stroke-width: 0.8"/>
      </g>
     </g>
     <g id="text_1">
      <!-- 0 -->
      <g transform="translate(77.422805 332.475312) scale(0.1 -0.1)">
       <defs>
        <path id="DejaVuSans-13" d="M 2034 4250 
Q 1547 4250 1301 3770 
Q 1056 3291 1056 2328 
Q 1056 1369 1301 889 
Q 1547 409 2034 409 
Q 2525 409 2770 889 
Q 3016 1369 3016 2328 
Q 3016 3291 2770 3770 
Q 2525 4250 2034 4250 
z
M 2034 4750 
Q 2819 4750 3233 4129 
Q 3647 3509 3647 2328 
Q 3647 1150 3233 529 
Q 2819 -91 2034 -91 
Q 1250 -91 836 529 
Q 422 1150 422 2328 
Q 422 3509 836 4129 
Q 1250 4750 2034 4750 
z
" transform="scale(0.015625)"/>
       </defs>
       <use xlink:href="#DejaVuSans-13"/>
      </g>
     </g>
    </g>
    <g id="xtick_2">
     <g id="line2d_3">
      <path d="M 192.242171 317.877656 
L 192.242171 10.8 
" clip-path="url(#p17d92acd70)" style="fill: none; stroke: #b0b0b0; stroke-opacity: 0.3; stroke-width: 0.5; stroke-linecap: square"/>
     </g>
     <g id="line2d_4">
      <g>
       <use xlink:href="#m1601b773ae" x="192.242171" y="317.877656" style="stroke: #000000; stroke-width: 0.8"/>
      </g>
     </g>
     <g id="text_2">
      <!-- 20 -->
      <g transform="translate(185.879671 332.475312) scale(0.1 -0.1)">
       <defs>
        <path id="DejaVuSans-15" d="M 1228 531 
L 3431 531 
L 3431 0 
L 469 0 
L 469 531 
Q 828 903 1448 1529 
Q 2069 2156 2228 2338 
Q 2531 2678 2651 2914 
Q 2772 3150 2772 3378 
Q 2772 3750 2511 3984 
Q 2250 4219 1831 4219 
Q 1534 4219 1204 4116 
Q 875 4013 500 3803 
L 500 4441 
Q 881 4594 1212 4672 
Q 1544 4750 1819 4750 
Q 2544 4750 2975 4387 
Q 3406 4025 3406 3419 
Q 3406 3131 3298 2873 
Q 3191 2616 2906 2266 
Q 2828 2175 2409 1742 
Q 1991 1309 1228 531 
z
" transform="scale(0.015625)"/>
       </defs>
       <use xlink:href="#DejaVuSans-15"/>
       <use xlink:href="#DejaVuSans-13" transform="translate(63.625 0)"/>
      </g>
     </g>
    </g>
    <g id="xtick_3">
     <g id="line2d_5">
      <path d="M 303.880286 317.877656 
L 303.880286 10.8 
" clip-path="url(#p17d92acd70)" style="fill: none; stroke: #b0b0b0; stroke-opacity: 0.3; stroke-width: 0.5; stroke-linecap: square"/>
     </g>
     <g id="line2d_6">
      <g>
       <use xlink:href="#m1601b773ae" x="303.880286" y="317.877656" style="stroke: #000000; stroke-width: 0.8"/>
      </g>
     </g>
     <g id="text_3">
      <!-- 40 -->
      <g transform="translate(297.517786 332.475312) scale(0.1 -0.1)">
       <defs>
        <path id="DejaVuSans-17" d="M 2419 4116 
L 825 1625 
L 2419 1625 
L 2419 4116 
z
M 2253 4666 
L 3047 4666 
L 3047 1625 
L 3713 1625 
L 3713 1100 
L 3047 1100 
L 3047 0 
L 2419 0 
L 2419 1100 
L 313 1100 
L 313 1709 
L 2253 4666 
z
" transform="scale(0.015625)"/>
       </defs>
       <use xlink:href="#DejaVuSans-17"/>
       <use xlink:href="#DejaVuSans-13" transform="translate(63.625 0)"/>
      </g>
     </g>
    </g>
    <g id="xtick_4">
     <g id="line2d_7">
      <path d="M 415.518401 317.877656 
L 415.518401 10.8 
" clip-path="url(#p17d92acd70)" style="fill: none; stroke: #b0b0b0; stroke-opacity: 0.3; stroke-width: 0.5; stroke-linecap: square"/>
     </g>
     <g id="line2d_8">
      <g>
       <use xlink:href="#m1601b773ae" x="415.518401" y="317.877656" style="stroke: #000000; stroke-width: 0.8"/>
      </g>
     </g>
     <g id="text_4">
      <!-- 60 -->
      <g transform="translate(409.155901 332.475312) scale(0.1 -0.1)">
       <defs>
        <path id="DejaVuSans-19" d="M 2113 2584 
Q 1688 2584 1439 2293 
Q 1191 2003 1191 1497 
Q 1191 994 1439 701 
Q 1688 409 2113 409 
Q 2538 409 2786 701 
Q 3034 994 3034 1497 
Q 3034 2003 2786 2293 
Q 2538 2584 2113 2584 
z
M 3366 4563 
L 3366 3988 
Q 3128 4100 2886 4159 
Q 2644 4219 2406 4219 
Q 1781 4219 1451 3797 
Q 1122 3375 1075 2522 
Q 1259 2794 1537 2939 
Q 1816 3084 2150 3084 
Q 2853 3084 3261 2657 
Q 3669 2231 3669 1497 
Q 3669 778 3244 343 
Q 2819 -91 2113 -91 
Q 1303 -91 875 529 
Q 447 1150 447 2328 
Q 447 3434 972 4092 
Q 1497 4750 2381 4750 
Q 2619 4750 2861 4703 
Q 3103 4656 3366 4563 
z
" transform="scale(0.015625)"/>
       </defs>
       <use xlink:href="#DejaVuSans-19"/>
       <use xlink:href="#DejaVuSans-13" transform="translate(63.625 0)"/>
      </g>
     </g>
    </g>
    <g id="xtick_5">
     <g id="line2d_9">
      <path d="M 527.156516 317.877656 
L 527.156516 10.8 
" clip-path="url(#p17d92acd70)" style="fill: none; stroke: #b0b0b0; stroke-opacity: 0.3; stroke-width: 0.5; stroke-linecap: square"/>
     </g>
     <g id="line2d_10">
      <g>
       <use xlink:href="#m1601b773ae" x="527.156516" y="317.877656" style="stroke: #000000; stroke-width: 0.8"/>
      </g>
     </g>
     <g id="text_5">
      <!-- 80 -->
      <g transform="translate(520.794016 332.475312) scale(0.1 -0.1)">
       <defs>
        <path id="DejaVuSans-1b" d="M 2034 2216 
Q 1584 2216 1326 1975 
Q 1069 1734 1069 1313 
Q 1069 891 1326 650 
Q 1584 409 2034 409 
Q 2484 409 2743 651 
Q 3003 894 3003 1313 
Q 3003 1734 2745 1975 
Q 2488 2216 2034 2216 
z
M 1403 2484 
Q 997 2584 770 2862 
Q 544 3141 544 3541 
Q 544 4100 942 4425 
Q 1341 4750 2034 4750 
Q 2731 4750 3128 4425 
Q 3525 4100 3525 3541 
Q 3525 3141 3298 2862 
Q 3072 2584 2669 2484 
Q 3125 2378 3379 2068 
Q 3634 1759 3634 1313 
Q 3634 634 3220 271 
Q 2806 -91 2034 -91 
Q 1263 -91 848 271 
Q 434 634 434 1313 
Q 434 1759 690 2068 
Q 947 2378 1403 2484 
z
M 1172 3481 
Q 1172 3119 1398 2916 
Q 1625 2713 2034 2713 
Q 2441 2713 2670 2916 
Q 2900 3119 2900 3481 
Q 2900 3844 2670 4047 
Q 2441 4250 2034 4250 
Q 1625 4250 1398 4047 
Q 1172 3844 1172 3481 
z
" transform="scale(0.015625)"/>
       </defs>
       <use xlink:href="#DejaVuSans-1b"/>
       <use xlink:href="#DejaVuSans-13" transform="translate(63.625 0)"/>
      </g>
     </g>
    </g>
    <g id="xtick_6">
     <g id="line2d_11">
      <path d="M 638.794632 317.877656 
L 638.794632 10.8 
" clip-path="url(#p17d92acd70)" style="fill: none; stroke: #b0b0b0; stroke-opacity: 0.3; stroke-width: 0.5; stroke-linecap: square"/>
     </g>
     <g id="line2d_12">
      <g>
       <use xlink:href="#m1601b773ae" x="638.794632" y="317.877656" style="stroke: #000000; stroke-width: 0.8"/>
      </g>
     </g>
     <g id="text_6">
      <!-- 100 -->
      <g transform="translate(629.250882 332.475312) scale(0.1 -0.1)">
       <defs>
        <path id="DejaVuSans-14" d="M 794 531 
L 1825 531 
L 1825 4091 
L 703 3866 
L 703 4441 
L 1819 4666 
L 2450 4666 
L 2450 531 
L 3481 531 
L 3481 0 
L 794 0 
L 794 531 
z
" transform="scale(0.015625)"/>
       </defs>
       <use xlink:href="#DejaVuSans-14"/>
       <use xlink:href="#DejaVuSans-13" transform="translate(63.625 0)"/>
       <use xlink:href="#DejaVuSans-13" transform="translate(127.25 0)"/>
      </g>
     </g>
    </g>
    <g id="xtick_7">
     <g id="line2d_13">
      <path d="M 750.432747 317.877656 
L 750.432747 10.8 
" clip-path="url(#p17d92acd70)" style="fill: none; stroke: #b0b0b0; stroke-opacity: 0.3; stroke-width: 0.5; stroke-linecap: square"/>
     </g>
     <g id="line2d_14">
      <g>
       <use xlink:href="#m1601b773ae" x="750.432747" y="317.877656" style="stroke: #000000; stroke-width: 0.8"/>
      </g>
     </g>
     <g id="text_7">
      <!-- 120 -->
      <g transform="translate(740.888997 332.475312) scale(0.1 -0.1)">
       <use xlink:href="#DejaVuSans-14"/>
       <use xlink:href="#DejaVuSans-15" transform="translate(63.625 0)"/>
       <use xlink:href="#DejaVuSans-13" transform="translate(127.25 0)"/>
      </g>
     </g>
    </g>
    <g id="text_8">
     <!-- Tempo (s) -->
     <g transform="translate(389.740703 346.475312) scale(0.1 -0.1)">
      <defs>
       <path id="DejaVuSans-37" d="M -19 4666 
L 3928 4666 
L 3928 4134 
L 2272 4134 
L 2272 0 
L 1638 0 
L 1638 4134 
L -19 4134 
L -19 4666 
z
" transform="scale(0.015625)"/>
       <path id="DejaVuSans-48" d="M 3597 1894 
L 3597 1613 
L 953 1613 
Q 991 1019 1311 708 
Q 1631 397 2203 397 
Q 2534 397 2845 478 
Q 3156 559 3463 722 
L 3463 178 
Q 3153 47 2828 -22 
Q 2503 -91 2169 -91 
Q 1331 -91 842 396 
Q 353 884 353 1716 
Q 353 2575 817 3079 
Q 1281 3584 2069 3584 
Q 2775 3584 3186 3129 
Q 3597 2675 3597 1894 
z
M 3022 2063 
Q 3016 2534 2758 2815 
Q 2500 3097 2075 3097 
Q 1594 3097 1305 2825 
Q 1016 2553 972 2059 
L 3022 2063 
z
" transform="scale(0.015625)"/>
       <path id="DejaVuSans-50" d="M 3328 2828 
Q 3544 3216 3844 3400 
Q 4144 3584 4550 3584 
Q 5097 3584 5394 3201 
Q 5691 2819 5691 2113 
L 5691 0 
L 5113 0 
L 5113 2094 
Q 5113 2597 4934 2840 
Q 4756 3084 4391 3084 
Q 3944 3084 3684 2787 
Q 3425 2491 3425 1978 
L 3425 0 
L 2847 0 
L 2847 2094 
Q 2847 2600 2669 2842 
Q 2491 3084 2119 3084 
Q 1678 3084 1418 2786 
Q 1159 2488 1159 1978 
L 1159 0 
L 581 0 
L 581 3500 
L 1159 3500 
L 1159 2956 
Q 1356 3278 1631 3431 
Q 1906 3584 2284 3584 
Q 2666 3584 2933 3390 
Q 3200 3197 3328 2828 
z
" transform="scale(0.015625)"/>
       <path id="DejaVuSans-53" d="M 1159 525 
L 1159 -1331 
L 581 -1331 
L 581 3500 
L 1159 3500 
L 1159 2969 
Q 1341 3281 1617 3432 
Q 1894 3584 2278 3584 
Q 2916 3584 3314 3078 
Q 3713 2572 3713 1747 
Q 3713 922 3314 415 
Q 2916 -91 2278 -91 
Q 1894 -91 1617 61 
Q 1341 213 1159 525 
z
M 3116 1747 
Q 3116 2381 2855 2742 
Q 2594 3103 2138 3103 
Q 1681 3103 1420 2742 
Q 1159 2381 1159 1747 
Q 1159 1113 1420 752 
Q 1681 391 2138 391 
Q 2594 391 2855 752 
Q 3116 1113 3116 1747 
z
" transform="scale(0.015625)"/>
       <path id="DejaVuSans-52" d="M 1959 3097 
Q 1497 3097 1228 2736 
Q 959 2375 959 1747 
Q 959 1119 1226 758 
Q 1494 397 1959 397 
Q 2419 397 2687 759 
Q 2956 1122 2956 1747 
Q 2956 2369 2687 2733 
Q 2419 3097 1959 3097 
z
M 1959 3584 
Q 2709 3584 3137 3096 
Q 3566 2609 3566 1747 
Q 3566 888 3137 398 
Q 2709 -91 1959 -91 
Q 1206 -91 779 398 
Q 353 888 353 1747 
Q 353 2609 779 3096 
Q 1206 3584 1959 3584 
z
" transform="scale(0.015625)"/>
       <path id="DejaVuSans-3" transform="scale(0.015625)"/>
       <path id="DejaVuSans-b" d="M 1984 4856 
Q 1566 4138 1362 3434 
Q 1159 2731 1159 2009 
Q 1159 1288 1364 580 
Q 1569 -128 1984 -844 
L 1484 -844 
Q 1016 -109 783 600 
Q 550 1309 550 2009 
Q 550 2706 781 3412 
Q 1013 4119 1484 4856 
L 1984 4856 
z
" transform="scale(0.015625)"/>
       <path id="DejaVuSans-56" d="M 2834 3397 
L 2834 2853 
Q 2591 2978 2328 3040 
Q 2066 3103 1784 3103 
Q 1356 3103 1142 2972 
Q 928 2841 928 2578 
Q 928 2378 1081 2264 
Q 1234 2150 1697 2047 
L 1894 2003 
Q 2506 1872 2764 1633 
Q 3022 1394 3022 966 
Q 3022 478 2636 193 
Q 2250 -91 1575 -91 
Q 1294 -91 989 -36 
Q 684 19 347 128 
L 347 722 
Q 666 556 975 473 
Q 1284 391 1588 391 
Q 1994 391 2212 530 
Q 2431 669 2431 922 
Q 2431 1156 2273 1281 
Q 2116 1406 1581 1522 
L 1381 1569 
Q 847 1681 609 1914 
Q 372 2147 372 2553 
Q 372 3047 722 3315 
Q 1072 3584 1716 3584 
Q 2034 3584 2315 3537 
Q 2597 3491 2834 3397 
z
" transform="scale(0.015625)"/>
       <path id="DejaVuSans-c" d="M 513 4856 
L 1013 4856 
Q 1481 4119 1714 3412 
Q 1947 2706 1947 2009 
Q 1947 1309 1714 600 
Q 1481 -109 1013 -844 
L 513 -844 
Q 928 -128 1133 580 
Q 1338 1288 1338 2009 
Q 1338 2731 1133 3434 
Q 928 4138 513 4856 
z
" transform="scale(0.015625)"/>
      </defs>
      <use xlink:href="#DejaVuSans-37"/>
      <use xlink:href="#DejaVuSans-48" transform="translate(44.09375 0)"/>
      <use xlink:href="#DejaVuSans-50" transform="translate(105.625 0)"/>
      <use xlink:href="#DejaVuSans-53" transform="translate(203.03125 0)"/>
      <use xlink:href="#DejaVuSans-52" transform="translate(266.515625 0)"/>
      <use xlink:href="#DejaVuSans-3" transform="translate(327.703125 0)"/>
      <use xlink:href="#DejaVuSans-b" transform="translate(359.484375 0)"/>
      <use xlink:href="#DejaVuSans-56" transform="translate(398.5 0)"/>
      <use xlink:href="#DejaVuSans-c" transform="translate(450.59375 0)"/>
     </g>
    </g>
   </g>
   <g id="matplotlib.axis_2">
    <g id="ytick_1">
     <g id="line2d_15">
      <path d="M 47.242344 303.919581 
L 781.2 303.919581 
" clip-path="url(#p17d92acd70)" style="fill: none; stroke: #b0b0b0; stroke-opacity: 0.3; stroke-width: 0.5; stroke-linecap: square"/>
     </g>
     <g id="line2d_16">
      <defs>
       <path id="mfe147ba4c7" d="M 0 0 
L -3.5 0 
" style="stroke: #000000; stroke-width: 0.8"/>
      </defs>
      <g>
       <use xlink:href="#mfe147ba4c7" x="47.242344" y="303.919581" style="stroke: #000000; stroke-width: 0.8"/>
      </g>
     </g>
     <g id="text_9">
      <!-- 0 -->
      <g transform="translate(33.879844 307.718409) scale(0.1 -0.1)">
       <use xlink:href="#DejaVuSans-13"/>
      </g>
     </g>
    </g>
    <g id="ytick_2">
     <g id="line2d_17">
      <path d="M 47.242344 257.392663 
L 781.2 257.392663 
" clip-path="url(#p17d92acd70)" style="fill: none; stroke: #b0b0b0; stroke-opacity: 0.3; stroke-width: 0.5; stroke-linecap: square"/>
     </g>
     <g id="line2d_18">
      <g>
       <use xlink:href="#mfe147ba4c7" x="47.242344" y="257.392663" style="stroke: #000000; stroke-width: 0.8"/>
      </g>
     </g>
     <g id="text_10">
      <!-- 5 -->
      <g transform="translate(33.879844 261.191491) scale(0.1 -0.1)">
       <defs>
        <path id="DejaVuSans-18" d="M 691 4666 
L 3169 4666 
L 3169 4134 
L 1269 4134 
L 1269 2991 
Q 1406 3038 1543 3061 
Q 1681 3084 1819 3084 
Q 2600 3084 3056 2656 
Q 3513 2228 3513 1497 
Q 3513 744 3044 326 
Q 2575 -91 1722 -91 
Q 1428 -91 1123 -41 
Q 819 9 494 109 
L 494 744 
Q 775 591 1075 516 
Q 1375 441 1709 441 
Q 2250 441 2565 725 
Q 2881 1009 2881 1497 
Q 2881 1984 2565 2268 
Q 2250 2553 1709 2553 
Q 1456 2553 1204 2497 
Q 953 2441 691 2322 
L 691 4666 
z
" transform="scale(0.015625)"/>
       </defs>
       <use xlink:href="#DejaVuSans-18"/>
      </g>
     </g>
    </g>
    <g id="ytick_3">
     <g id="line2d_19">
      <path d="M 47.242344 210.865746 
L 781.2 210.865746 
" clip-path="url(#p17d92acd70)" style="fill: none; stroke: #b0b0b0; stroke-opacity: 0.3; stroke-width: 0.5; stroke-linecap: square"/>
     </g>
     <g id="line2d_20">
      <g>
       <use xlink:href="#mfe147ba4c7" x="47.242344" y="210.865746" style="stroke: #000000; stroke-width: 0.8"/>
      </g>
     </g>
     <g id="text_11">
      <!-- 10 -->
      <g transform="translate(27.517344 214.664574) scale(0.1 -0.1)">
       <use xlink:href="#DejaVuSans-14"/>
       <use xlink:href="#DejaVuSans-13" transform="translate(63.625 0)"/>
      </g>
     </g>
    </g>
    <g id="ytick_4">
     <g id="line2d_21">
      <path d="M 47.242344 164.338828 
L 781.2 164.338828 
" clip-path="url(#p17d92acd70)" style="fill: none; stroke: #b0b0b0; stroke-opacity: 0.3; stroke-width: 0.5; stroke-linecap: square"/>
     </g>
     <g id="line2d_22">
      <g>
       <use xlink:href="#mfe147ba4c7" x="47.242344" y="164.338828" style="stroke: #000000; stroke-width: 0.8"/>
      </g>
     </g>
     <g id="text_12">
      <!-- 15 -->
      <g transform="translate(27.517344 168.137656) scale(0.1 -0.1)">
       <use xlink:href="#DejaVuSans-14"/>
       <use xlink:href="#DejaVuSans-18" transform="translate(63.625 0)"/>
      </g>
     </g>
    </g>
    <g id="ytick_5">
     <g id="line2d_23">
      <path d="M 47.242344 117.811911 
L 781.2 117.811911 
" clip-path="url(#p17d92acd70)" style="fill: none; stroke: #b0b0b0; stroke-opacity: 0.3; stroke-width: 0.5; stroke-linecap: square"/>
     </g>
     <g id="line2d_24">
      <g>
       <use xlink:href="#mfe147ba4c7" x="47.242344" y="117.811911" style="stroke: #000000; stroke-width: 0.8"/>
      </g>
     </g>
     <g id="text_13">
      <!-- 20 -->
      <g transform="translate(27.517344 121.610739) scale(0.1 -0.1)">
       <use xlink:href="#DejaVuSans-15"/>
       <use xlink:href="#DejaVuSans-13" transform="translate(63.625 0)"/>
      </g>
     </g>
    </g>
    <g id="ytick_6">
     <g id="line2d_25">
      <path d="M 47.242344 71.284993 
L 781.2 71.284993 
" clip-path="url(#p17d92acd70)" style="fill: none; stroke: #b0b0b0; stroke-opacity: 0.3; stroke-width: 0.5; stroke-linecap: square"/>
     </g>
     <g id="line2d_26">
      <g>
       <use xlink:href="#mfe147ba4c7" x="47.242344" y="71.284993" style="stroke: #000000; stroke-width: 0.8"/>
      </g>
     </g>
     <g id="text_14">
      <!-- 25 -->
      <g transform="translate(27.517344 75.083821) scale(0.1 -0.1)">
       <use xlink:href="#DejaVuSans-15"/>
       <use xlink:href="#DejaVuSans-18" transform="translate(63.625 0)"/>
      </g>
     </g>
    </g>
    <g id="ytick_7">
     <g id="line2d_27">
      <path d="M 47.242344 24.758075 
L 781.2 24.758075 
" clip-path="url(#p17d92acd70)" style="fill: none; stroke: #b0b0b0; stroke-opacity: 0.3; stroke-width: 0.5; stroke-linecap: square"/>
     </g>
     <g id="line2d_28">
      <g>
       <use xlink:href="#mfe147ba4c7" x="47.242344" y="24.758075" style="stroke: #000000; stroke-width: 0.8"/>
      </g>
     </g>
     <g id="text_15">
      <!-- 30 -->
      <g transform="translate(27.517344 28.556903) scale(0.1 -0.1)">
       <defs>
        <path id="DejaVuSans-16" d="M 2597 2516 
Q 3050 2419 3304 2112 
Q 3559 1806 3559 1356 
Q 3559 666 3084 287 
Q 2609 -91 1734 -91 
Q 1441 -91 1130 -33 
Q 819 25 488 141 
L 488 750 
Q 750 597 1062 519 
Q 1375 441 1716 441 
Q 2309 441 2620 675 
Q 2931 909 2931 1356 
Q 2931 1769 2642 2001 
Q 2353 2234 1838 2234 
L 1294 2234 
L 1294 2753 
L 1863 2753 
Q 2328 2753 2575 2939 
Q 2822 3125 2822 3475 
Q 2822 3834 2567 4026 
Q 2313 4219 1838 4219 
Q 1578 4219 1281 4162 
Q 984 4106 628 3988 
L 628 4550 
Q 988 4650 1302 4700 
Q 1616 4750 1894 4750 
Q 2613 4750 3031 4423 
Q 3450 4097 3450 3541 
Q 3450 3153 3228 2886 
Q 3006 2619 2597 2516 
z
" transform="scale(0.015625)"/>
       </defs>
       <use xlink:href="#DejaVuSans-16"/>
       <use xlink:href="#DejaVuSans-13" transform="translate(63.625 0)"/>
      </g>
     </g>
    </g>
    <g id="text_16">
     <!-- Ângulo das juntas J1–J3 (°) -->
     <g transform="translate(21.115 230.488047) rotate(-90) scale(0.1 -0.1)">
      <defs>
       <path id="DejaVuSans-84" d="M 2188 4044 
L 1331 1722 
L 3047 1722 
L 2188 4044 
z
M 1831 4666 
L 2547 4666 
L 4325 0 
L 3669 0 
L 3244 1197 
L 1141 1197 
L 716 0 
L 50 0 
L 1831 4666 
z
M 1894 5941 
L 2482 5941 
L 3141 5110 
L 2707 5110 
L 2188 5666 
L 1669 5110 
L 1235 5110 
L 1894 5941 
z
" transform="scale(0.015625)"/>
       <path id="DejaVuSans-51" d="M 3513 2113 
L 3513 0 
L 2938 0 
L 2938 2094 
Q 2938 2591 2744 2837 
Q 2550 3084 2163 3084 
Q 1697 3084 1428 2787 
Q 1159 2491 1159 1978 
L 1159 0 
L 581 0 
L 581 3500 
L 1159 3500 
L 1159 2956 
Q 1366 3272 1645 3428 
Q 1925 3584 2291 3584 
Q 2894 3584 3203 3211 
Q 3513 2838 3513 2113 
z
" transform="scale(0.015625)"/>
       <path id="DejaVuSans-4a" d="M 2906 1791 
Q 2906 2416 2648 2759 
Q 2391 3103 1925 3103 
Q 1463 3103 1205 2759 
Q 947 2416 947 1791 
Q 947 1169 1205 825 
Q 1463 481 1925 481 
Q 2391 481 2648 825 
Q 2906 1169 2906 1791 
z
M 3481 434 
Q 3481 -459 3084 -895 
Q 2688 -1331 1869 -1331 
Q 1566 -1331 1297 -1286 
Q 1028 -1241 775 -1147 
L 775 -588 
Q 1028 -725 1275 -790 
Q 1522 -856 1778 -856 
Q 2344 -856 2625 -561 
Q 2906 -266 2906 331 
L 2906 616 
Q 2728 306 2450 153 
Q 2172 0 1784 0 
Q 1141 0 747 490 
Q 353 981 353 1791 
Q 353 2603 747 3093 
Q 1141 3584 1784 3584 
Q 2172 3584 2450 3431 
Q 2728 3278 2906 2969 
L 2906 3500 
L 3481 3500 
L 3481 434 
z
" transform="scale(0.015625)"/>
       <path id="DejaVuSans-58" d="M 544 1381 
L 544 3500 
L 1119 3500 
L 1119 1403 
Q 1119 906 1312 657 
Q 1506 409 1894 409 
Q 2359 409 2629 706 
Q 2900 1003 2900 1516 
L 2900 3500 
L 3475 3500 
L 3475 0 
L 2900 0 
L 2900 538 
Q 2691 219 2414 64 
Q 2138 -91 1772 -91 
Q 1169 -91 856 284 
Q 544 659 544 1381 
z
M 1991 3584 
L 1991 3584 
z
" transform="scale(0.015625)"/>
       <path id="DejaVuSans-4f" d="M 603 4863 
L 1178 4863 
L 1178 0 
L 603 0 
L 603 4863 
z
" transform="scale(0.015625)"/>
       <path id="DejaVuSans-47" d="M 2906 2969 
L 2906 4863 
L 3481 4863 
L 3481 0 
L 2906 0 
L 2906 525 
Q 2725 213 2448 61 
Q 2172 -91 1784 -91 
Q 1150 -91 751 415 
Q 353 922 353 1747 
Q 353 2572 751 3078 
Q 1150 3584 1784 3584 
Q 2172 3584 2448 3432 
Q 2725 3281 2906 2969 
z
M 947 1747 
Q 947 1113 1208 752 
Q 1469 391 1925 391 
Q 2381 391 2643 752 
Q 2906 1113 2906 1747 
Q 2906 2381 2643 2742 
Q 2381 3103 1925 3103 
Q 1469 3103 1208 2742 
Q 947 2381 947 1747 
z
" transform="scale(0.015625)"/>
       <path id="DejaVuSans-44" d="M 2194 1759 
Q 1497 1759 1228 1600 
Q 959 1441 959 1056 
Q 959 750 1161 570 
Q 1363 391 1709 391 
Q 2188 391 2477 730 
Q 2766 1069 2766 1631 
L 2766 1759 
L 2194 1759 
z
M 3341 1997 
L 3341 0 
L 2766 0 
L 2766 531 
Q 2569 213 2275 61 
Q 1981 -91 1556 -91 
Q 1019 -91 701 211 
Q 384 513 384 1019 
Q 384 1609 779 1909 
Q 1175 2209 1959 2209 
L 2766 2209 
L 2766 2266 
Q 2766 2663 2505 2880 
Q 2244 3097 1772 3097 
Q 1472 3097 1187 3025 
Q 903 2953 641 2809 
L 641 3341 
Q 956 3463 1253 3523 
Q 1550 3584 1831 3584 
Q 2591 3584 2966 3190 
Q 3341 2797 3341 1997 
z
" transform="scale(0.015625)"/>
       <path id="DejaVuSans-4d" d="M 603 3500 
L 1178 3500 
L 1178 -63 
Q 1178 -731 923 -1031 
Q 669 -1331 103 -1331 
L -116 -1331 
L -116 -844 
L 38 -844 
Q 366 -844 484 -692 
Q 603 -541 603 -63 
L 603 3500 
z
M 603 4863 
L 1178 4863 
L 1178 4134 
L 603 4134 
L 603 4863 
z
" transform="scale(0.015625)"/>
       <path id="DejaVuSans-57" d="M 1172 4494 
L 1172 3500 
L 2356 3500 
L 2356 3053 
L 1172 3053 
L 1172 1153 
Q 1172 725 1289 603 
Q 1406 481 1766 481 
L 2356 481 
L 2356 0 
L 1766 0 
Q 1100 0 847 248 
Q 594 497 594 1153 
L 594 3053 
L 172 3053 
L 172 3500 
L 594 3500 
L 594 4494 
L 1172 4494 
z
" transform="scale(0.015625)"/>
       <path id="DejaVuSans-2d" d="M 628 4666 
L 1259 4666 
L 1259 325 
Q 1259 -519 939 -900 
Q 619 -1281 -91 -1281 
L -331 -1281 
L -331 -750 
L -134 -750 
Q 284 -750 456 -515 
Q 628 -281 628 325 
L 628 4666 
z
" transform="scale(0.015625)"/>
       <path id="DejaVuSans-af5" d="M 313 1978 
L 2888 1978 
L 2888 1528 
L 313 1528 
L 313 1978 
z
" transform="scale(0.015625)"/>
       <path id="DejaVuSans-72" d="M 1600 4347 
Q 1350 4347 1178 4173 
Q 1006 4000 1006 3750 
Q 1006 3503 1178 3333 
Q 1350 3163 1600 3163 
Q 1850 3163 2022 3333 
Q 2194 3503 2194 3750 
Q 2194 3997 2020 4172 
Q 1847 4347 1600 4347 
z
M 1600 4750 
Q 1800 4750 1984 4673 
Q 2169 4597 2303 4453 
Q 2447 4313 2519 4134 
Q 2591 3956 2591 3750 
Q 2591 3338 2302 3052 
Q 2013 2766 1594 2766 
Q 1172 2766 890 3047 
Q 609 3328 609 3750 
Q 609 4169 896 4459 
Q 1184 4750 1600 4750 
z
" transform="scale(0.015625)"/>
      </defs>
      <use xlink:href="#DejaVuSans-84"/>
      <use xlink:href="#DejaVuSans-51" transform="translate(68.40625 0)"/>
      <use xlink:href="#DejaVuSans-4a" transform="translate(131.78125 0)"/>
      <use xlink:href="#DejaVuSans-58" transform="translate(195.265625 0)"/>
      <use xlink:href="#DejaVuSans-4f" transform="translate(258.640625 0)"/>
      <use xlink:href="#DejaVuSans-52" transform="translate(286.421875 0)"/>
      <use xlink:href="#DejaVuSans-3" transform="translate(347.609375 0)"/>
      <use xlink:href="#DejaVuSans-47" transform="translate(379.390625 0)"/>
      <use xlink:href="#DejaVuSans-44" transform="translate(442.875 0)"/>
      <use xlink:href="#DejaVuSans-56" transform="translate(504.15625 0)"/>
      <use xlink:href="#DejaVuSans-3" transform="translate(556.25 0)"/>
      <use xlink:href="#DejaVuSans-4d" transform="translate(588.03125 0)"/>
      <use xlink:href="#DejaVuSans-58" transform="translate(615.8125 0)"/>
      <use xlink:href="#DejaVuSans-51" transform="translate(679.1875 0)"/>
      <use xlink:href="#DejaVuSans-57" transform="translate(742.5625 0)"/>
      <use xlink:href="#DejaVuSans-44" transform="translate(781.765625 0)"/>
      <use xlink:href="#DejaVuSans-56" transform="translate(843.046875 0)"/>
      <use xlink:href="#DejaVuSans-3" transform="translate(895.140625 0)"/>
      <use xlink:href="#DejaVuSans-2d" transform="translate(926.921875 0)"/>
      <use xlink:href="#DejaVuSans-14" transform="translate(956.421875 0)"/>
      <use xlink:href="#DejaVuSans-af5" transform="translate(1020.046875 0)"/>
      <use xlink:href="#DejaVuSans-2d" transform="translate(1070.046875 0)"/>
      <use xlink:href="#DejaVuSans-16" transform="translate(1099.546875 0)"/>
      <use xlink:href="#DejaVuSans-3" transform="translate(1163.171875 0)"/>
      <use xlink:href="#DejaVuSans-b" transform="translate(1194.953125 0)"/>
      <use xlink:href="#DejaVuSans-72" transform="translate(1233.96875 0)"/>
      <use xlink:href="#DejaVuSans-c" transform="translate(1283.96875 0)"/>
     </g>
    </g>
   </g>
   <g id="line2d_29">
    <path d="M 80.604055 303.919581 
L 164.65167 303.919581 
L 164.776894 299.732158 
L 164.903453 299.732158 
L 165.026015 295.544736 
L 165.147371 295.544736 
L 165.275029 287.169891 
L 165.403659 287.169891 
L 165.522357 278.795045 
L 165.648469 278.795045 
L 166.050858 262.045355 
L 166.427113 241.108251 
L 166.91343 224.35857 
L 166.91343 224.35857 
L 167.195338 207.60888 
L 167.572508 186.671776 
L 168.122465 161.54726 
L 168.24457 161.54726 
L 168.371362 148.984983 
L 168.483336 148.984983 
L 168.756023 140.610128 
L 168.875068 132.235264 
L 168.993567 132.235264 
L 169.110552 128.047832 
L 169.352845 128.047832 
L 169.474135 123.86041 
L 169.474135 123.86041 
L 169.847073 123.86041 
L 169.989356 119.672978 
L 265.925386 119.672978 
L 266.051877 282.982468 
L 296.892002 282.982468 
L 297.381686 253.67051 
L 321.793224 253.67051 
L 321.923461 282.982468 
L 327.407265 282.982468 
L 327.536776 278.795045 
L 328.146198 241.108251 
L 343.996733 241.108251 
L 344.122382 282.982468 
L 345.095576 224.35857 
L 358.060345 224.35857 
L 358.24538 278.795045 
L 358.814154 245.295674 
L 374.224015 245.295674 
L 374.412119 282.982468 
L 374.412119 282.982468 
L 374.893379 282.982468 
L 375.340524 249.483097 
L 377.205199 119.672978 
L 483.519438 119.672978 
L 483.643729 282.982468 
L 484.512202 220.171148 
L 485.630665 136.422696 
L 485.874566 119.672978 
L 590.643566 119.672978 
L 590.771425 282.982468 
L 592.306907 282.982468 
L 592.569228 262.045355 
L 592.759633 249.483097 
L 597.343818 249.483097 
L 597.470037 282.982468 
L 603.238985 282.982468 
L 603.238985 282.982468 
L 603.365789 278.795045 
L 603.740341 253.67051 
L 610.876713 253.67051 
L 611.132616 282.982468 
L 611.764744 282.982468 
L 612.436314 232.733406 
L 617.248263 232.733406 
L 617.366024 282.982468 
L 617.869345 253.67051 
L 628.430919 253.67051 
L 628.558761 278.795045 
L 628.558761 278.795045 
L 629.551989 207.60888 
L 630.175733 157.359837 
L 630.800041 119.672978 
L 649.582836 119.672978 
L 649.705219 123.86041 
L 649.950601 123.86041 
L 650.075439 128.047832 
L 650.208223 128.047832 
L 650.33387 136.422696 
L 650.33387 136.422696 
L 650.454093 136.422696 
L 650.578526 140.610128 
L 650.780591 140.610128 
L 651.069745 157.359837 
L 651.570597 174.109518 
L 652.070938 203.421467 
L 652.188968 207.60888 
L 652.302419 215.983725 
L 652.425472 215.983725 
L 652.806638 236.920829 
L 653.312185 257.857933 
L 653.450388 266.232778 
L 653.450388 266.232778 
L 653.580301 266.232778 
L 653.705096 274.607623 
L 653.834931 274.607623 
L 653.947307 282.982468 
L 654.066268 282.982468 
L 654.191023 291.357313 
L 654.320205 291.357313 
L 654.447674 295.544736 
L 654.571079 295.544736 
L 654.693897 299.732158 
L 729.609636 299.732158 
L 729.735069 303.919581 
L 729.735069 303.919581 
L 747.838288 303.919581 
L 747.838288 303.919581 
" clip-path="url(#p17d92acd70)" style="fill: none; stroke: #2563eb; stroke-width: 1.6; stroke-linecap: square"/>
   </g>
   <g id="line2d_30">
    <path d="M 80.604055 303.919581 
L 163.38882 303.919581 
L 163.459704 117.811911 
L 648.484088 117.811911 
L 648.515107 303.919581 
L 747.838288 303.919581 
L 747.838288 303.919581 
" clip-path="url(#p17d92acd70)" style="fill: none; stroke-dasharray: 1.3,2.145; stroke-dashoffset: 0; stroke: #2563eb; stroke-opacity: 0.9; stroke-width: 1.3"/>
   </g>
   <g id="line2d_31">
    <path d="M 80.604055 303.919581 
L 119.127026 303.919581 
L 119.127026 303.919581 
L 119.363525 278.795045 
L 129.412139 278.795045 
L 129.412139 278.795045 
L 129.663749 282.982468 
L 135.027118 282.982468 
L 135.027118 282.982468 
L 135.279207 278.795045 
L 140.757078 278.795045 
L 140.875124 282.982468 
L 142.127011 190.859199 
L 142.62979 148.984983 
L 144.394878 27.549523 
L 208.175167 27.549523 
L 208.296418 31.736955 
L 208.423468 31.736955 
L 208.549596 35.924387 
L 208.672471 35.924387 
L 208.92921 44.299241 
L 209.051565 44.299241 
L 209.178951 52.674105 
L 209.295568 52.674105 
L 209.295568 52.674105 
L 209.544816 65.236391 
L 209.66657 69.423823 
L 210.041573 90.360973 
L 210.165474 94.548396 
L 211.16094 157.359837 
L 211.278485 161.54726 
L 211.659254 190.859199 
L 212.777327 257.857933 
L 213.017008 266.232778 
L 213.273748 278.795045 
L 213.392028 282.982468 
L 213.522393 282.982468 
L 213.650286 287.169891 
L 213.76793 287.169891 
L 213.896917 295.544736 
L 214.019742 295.544736 
L 214.143822 299.732158 
L 265.925386 299.732158 
L 266.051877 303.919581 
L 506.479524 303.919581 
L 506.603816 299.732158 
L 506.729192 299.732158 
L 506.845077 295.544736 
L 506.970224 295.544736 
L 507.475459 278.795045 
L 507.60919 278.795045 
L 507.719813 266.232778 
L 507.848966 266.232778 
L 508.089887 253.67051 
L 508.219052 249.483097 
L 508.613883 220.171148 
L 508.709334 220.171148 
L 508.97118 203.421467 
L 510.451664 107.110692 
L 510.451664 107.110692 
L 510.701153 90.360973 
L 511.075107 69.423823 
L 511.212204 69.423823 
L 511.603289 48.486673 
L 511.722999 48.486673 
L 511.859052 40.111809 
L 512.074168 40.111809 
L 512.192577 35.924387 
L 512.319381 35.924387 
L 512.443784 31.736955 
L 512.578878 31.736955 
L 512.701384 27.549523 
L 560.993063 27.549523 
L 560.993063 27.549523 
L 561.120638 31.736955 
L 561.247783 31.736955 
L 561.396222 35.924387 
L 561.515512 35.924387 
L 561.637254 44.299241 
L 561.764203 44.299241 
L 562.006229 52.674105 
L 562.137019 52.674105 
L 562.259525 65.236391 
L 562.259525 65.236391 
L 562.754081 81.98611 
L 562.999066 98.735828 
L 563.736899 144.797551 
L 563.863798 148.984983 
L 564.111835 165.734673 
L 565.347697 245.295674 
L 565.469088 249.483097 
L 565.601395 262.045355 
L 565.724253 262.045355 
L 565.978671 274.607623 
L 566.340518 287.169891 
L 566.592279 287.169891 
L 566.710839 295.544736 
L 566.83805 295.544736 
L 566.970146 299.732158 
L 590.643566 299.732158 
L 590.771425 303.919581 
L 747.838288 303.919581 
L 747.838288 303.919581 
" clip-path="url(#p17d92acd70)" style="fill: none; stroke: #16a34a; stroke-width: 1.6; stroke-linecap: square"/>
   </g>
   <g id="line2d_32">
    <path d="M 80.604055 303.919581 
L 100.328551 303.919581 
L 100.368049 24.758075 
L 205.57396 24.758075 
L 205.57396 303.919581 
L 505.237606 303.919581 
L 505.362657 24.758075 
L 559.755761 24.758075 
L 559.875326 303.919581 
L 747.838288 303.919581 
L 747.838288 303.919581 
" clip-path="url(#p17d92acd70)" style="fill: none; stroke-dasharray: 1.3,2.145; stroke-dashoffset: 0; stroke: #16a34a; stroke-opacity: 0.9; stroke-width: 1.3"/>
   </g>
   <g id="line2d_33">
    <path d="M 80.604055 303.919581 
L 119.127026 303.919581 
L 119.127026 303.919581 
L 119.363525 278.795045 
L 129.412139 278.795045 
L 129.412139 278.795045 
L 129.663749 282.982468 
L 135.027118 282.982468 
L 135.027118 282.982468 
L 135.279207 278.795045 
L 140.757078 278.795045 
L 140.875124 282.982468 
L 142.127011 190.859199 
L 142.62979 148.984983 
L 144.394878 27.549523 
L 208.175167 27.549523 
L 208.296418 31.736955 
L 208.423468 31.736955 
L 208.549596 35.924387 
L 208.672471 35.924387 
L 208.92921 44.299241 
L 209.051565 44.299241 
L 209.178951 52.674105 
L 209.295568 52.674105 
L 209.295568 52.674105 
L 209.544816 65.236391 
L 209.66657 69.423823 
L 210.041573 90.360973 
L 210.165474 94.548396 
L 211.16094 157.359837 
L 211.278485 161.54726 
L 211.659254 190.859199 
L 212.777327 257.857933 
L 213.017008 266.232778 
L 213.273748 278.795045 
L 213.392028 282.982468 
L 213.522393 282.982468 
L 213.650286 287.169891 
L 213.76793 287.169891 
L 213.896917 295.544736 
L 214.019742 295.544736 
L 214.143822 299.732158 
L 265.925386 299.732158 
L 266.051877 303.919581 
L 506.479524 303.919581 
L 506.603816 299.732158 
L 506.729192 299.732158 
L 506.845077 295.544736 
L 506.970224 295.544736 
L 507.475459 278.795045 
L 507.60919 278.795045 
L 507.719813 266.232778 
L 507.848966 266.232778 
L 508.089887 253.67051 
L 508.219052 249.483097 
L 508.613883 220.171148 
L 508.709334 220.171148 
L 508.97118 203.421467 
L 510.451664 107.110692 
L 510.451664 107.110692 
L 510.701153 90.360973 
L 511.075107 69.423823 
L 511.212204 69.423823 
L 511.603289 48.486673 
L 511.722999 48.486673 
L 511.859052 40.111809 
L 512.074168 40.111809 
L 512.192577 35.924387 
L 512.319381 35.924387 
L 512.443784 31.736955 
L 512.578878 31.736955 
L 512.701384 27.549523 
L 560.993063 27.549523 
L 560.993063 27.549523 
L 561.120638 31.736955 
L 561.247783 31.736955 
L 561.396222 35.924387 
L 561.515512 35.924387 
L 561.637254 44.299241 
L 561.764203 44.299241 
L 562.006229 52.674105 
L 562.137019 52.674105 
L 562.259525 65.236391 
L 562.259525 65.236391 
L 562.754081 81.98611 
L 562.999066 98.735828 
L 563.736899 144.797551 
L 563.863798 148.984983 
L 564.111835 165.734673 
L 564.233689 169.922095 
L 564.607699 199.234044 
L 565.601395 262.045355 
L 565.724253 262.045355 
L 565.978671 274.607623 
L 566.340518 287.169891 
L 566.592279 287.169891 
L 566.710839 295.544736 
L 566.83805 295.544736 
L 566.970146 299.732158 
L 590.643566 299.732158 
L 590.771425 303.919581 
L 747.838288 303.919581 
L 747.838288 303.919581 
" clip-path="url(#p17d92acd70)" style="fill: none; stroke: #dc2626; stroke-width: 1.6; stroke-linecap: square"/>
   </g>
   <g id="line2d_34">
    <path d="M 80.604055 303.919581 
L 100.328551 303.919581 
L 100.368049 24.758075 
L 205.57396 24.758075 
L 205.57396 303.919581 
L 505.237606 303.919581 
L 505.362657 24.758075 
L 559.755761 24.758075 
L 559.875326 303.919581 
L 747.838288 303.919581 
L 747.838288 303.919581 
" clip-path="url(#p17d92acd70)" style="fill: none; stroke-dasharray: 1.3,2.145; stroke-dashoffset: 0; stroke: #dc2626; stroke-opacity: 0.9; stroke-width: 1.3"/>
   </g>
   <g id="patch_3">
    <path d="M 47.242344 317.877656 
L 47.242344 10.8 
" style="fill: none; stroke: #000000; stroke-width: 0.8; stroke-linejoin: miter; stroke-linecap: square"/>
   </g>
   <g id="patch_4">
    <path d="M 781.2 317.877656 
L 781.2 10.8 
" style="fill: none; stroke: #000000; stroke-width: 0.8; stroke-linejoin: miter; stroke-linecap: square"/>
   </g>
   <g id="patch_5">
    <path d="M 47.242344 317.877656 
L 781.2 317.877656 
" style="fill: none; stroke: #000000; stroke-width: 0.8; stroke-linejoin: miter; stroke-linecap: square"/>
   </g>
   <g id="patch_6">
    <path d="M 47.242344 10.8 
L 781.2 10.8 
" style="fill: none; stroke: #000000; stroke-width: 0.8; stroke-linejoin: miter; stroke-linecap: square"/>
   </g>
   <g id="text_17">
    <!-- Controlador ESP32-S3 (QEMU) — malha fechada PID -->
    <g style="fill: #374151" transform="translate(54.58192 23.780147) scale(0.09 -0.09)">
     <defs>
      <path id="DejaVuSans-26" d="M 4122 4306 
L 4122 3641 
Q 3803 3938 3442 4084 
Q 3081 4231 2675 4231 
Q 1875 4231 1450 3742 
Q 1025 3253 1025 2328 
Q 1025 1406 1450 917 
Q 1875 428 2675 428 
Q 3081 428 3442 575 
Q 3803 722 4122 1019 
L 4122 359 
Q 3791 134 3420 21 
Q 3050 -91 2638 -91 
Q 1578 -91 968 557 
Q 359 1206 359 2328 
Q 359 3453 968 4101 
Q 1578 4750 2638 4750 
Q 3056 4750 3426 4639 
Q 3797 4528 4122 4306 
z
" transform="scale(0.015625)"/>
      <path id="DejaVuSans-55" d="M 2631 2963 
Q 2534 3019 2420 3045 
Q 2306 3072 2169 3072 
Q 1681 3072 1420 2755 
Q 1159 2438 1159 1844 
L 1159 0 
L 581 0 
L 581 3500 
L 1159 3500 
L 1159 2956 
Q 1341 3275 1631 3429 
Q 1922 3584 2338 3584 
Q 2397 3584 2469 3576 
Q 2541 3569 2628 3553 
L 2631 2963 
z
" transform="scale(0.015625)"/>
      <path id="DejaVuSans-28" d="M 628 4666 
L 3578 4666 
L 3578 4134 
L 1259 4134 
L 1259 2753 
L 3481 2753 
L 3481 2222 
L 1259 2222 
L 1259 531 
L 3634 531 
L 3634 0 
L 628 0 
L 628 4666 
z
" transform="scale(0.015625)"/>
      <path id="DejaVuSans-36" d="M 3425 4513 
L 3425 3897 
Q 3066 4069 2747 4153 
Q 2428 4238 2131 4238 
Q 1616 4238 1336 4038 
Q 1056 3838 1056 3469 
Q 1056 3159 1242 3001 
Q 1428 2844 1947 2747 
L 2328 2669 
Q 3034 2534 3370 2195 
Q 3706 1856 3706 1288 
Q 3706 609 3251 259 
Q 2797 -91 1919 -91 
Q 1588 -91 1214 -16 
Q 841 59 441 206 
L 441 856 
Q 825 641 1194 531 
Q 1563 422 1919 422 
Q 2459 422 2753 634 
Q 3047 847 3047 1241 
Q 3047 1584 2836 1778 
Q 2625 1972 2144 2069 
L 1759 2144 
Q 1053 2284 737 2584 
Q 422 2884 422 3419 
Q 422 4038 858 4394 
Q 1294 4750 2059 4750 
Q 2388 4750 2728 4690 
Q 3069 4631 3425 4513 
z
" transform="scale(0.015625)"/>
      <path id="DejaVuSans-33" d="M 1259 4147 
L 1259 2394 
L 2053 2394 
Q 2494 2394 2734 2622 
Q 2975 2850 2975 3272 
Q 2975 3691 2734 3919 
Q 2494 4147 2053 4147 
L 1259 4147 
z
M 628 4666 
L 2053 4666 
Q 2838 4666 3239 4311 
Q 3641 3956 3641 3272 
Q 3641 2581 3239 2228 
Q 2838 1875 2053 1875 
L 1259 1875 
L 1259 0 
L 628 0 
L 628 4666 
z
" transform="scale(0.015625)"/>
      <path id="DejaVuSans-10" d="M 313 2009 
L 1997 2009 
L 1997 1497 
L 313 1497 
L 313 2009 
z
" transform="scale(0.015625)"/>
      <path id="DejaVuSans-34" d="M 2522 4238 
Q 1834 4238 1429 3725 
Q 1025 3213 1025 2328 
Q 1025 1447 1429 934 
Q 1834 422 2522 422 
Q 3209 422 3611 934 
Q 4013 1447 4013 2328 
Q 4013 3213 3611 3725 
Q 3209 4238 2522 4238 
z
M 3406 84 
L 4238 -825 
L 3475 -825 
L 2784 -78 
Q 2681 -84 2626 -87 
Q 2572 -91 2522 -91 
Q 1538 -91 948 567 
Q 359 1225 359 2328 
Q 359 3434 948 4092 
Q 1538 4750 2522 4750 
Q 3503 4750 4090 4092 
Q 4678 3434 4678 2328 
Q 4678 1516 4351 937 
Q 4025 359 3406 84 
z
" transform="scale(0.015625)"/>
      <path id="DejaVuSans-30" d="M 628 4666 
L 1569 4666 
L 2759 1491 
L 3956 4666 
L 4897 4666 
L 4897 0 
L 4281 0 
L 4281 4097 
L 3078 897 
L 2444 897 
L 1241 4097 
L 1241 0 
L 628 0 
L 628 4666 
z
" transform="scale(0.015625)"/>
      <path id="DejaVuSans-38" d="M 556 4666 
L 1191 4666 
L 1191 1831 
Q 1191 1081 1462 751 
Q 1734 422 2344 422 
Q 2950 422 3222 751 
Q 3494 1081 3494 1831 
L 3494 4666 
L 4128 4666 
L 4128 1753 
Q 4128 841 3676 375 
Q 3225 -91 2344 -91 
Q 1459 -91 1007 375 
Q 556 841 556 1753 
L 556 4666 
z
" transform="scale(0.015625)"/>
      <path id="DejaVuSans-af6" d="M 313 1978 
L 6088 1978 
L 6088 1528 
L 313 1528 
L 313 1978 
z
" transform="scale(0.015625)"/>
      <path id="DejaVuSans-4b" d="M 3513 2113 
L 3513 0 
L 2938 0 
L 2938 2094 
Q 2938 2591 2744 2837 
Q 2550 3084 2163 3084 
Q 1697 3084 1428 2787 
Q 1159 2491 1159 1978 
L 1159 0 
L 581 0 
L 581 4863 
L 1159 4863 
L 1159 2956 
Q 1366 3272 1645 3428 
Q 1925 3584 2291 3584 
Q 2894 3584 3203 3211 
Q 3513 2838 3513 2113 
z
" transform="scale(0.015625)"/>
      <path id="DejaVuSans-49" d="M 2375 4863 
L 2375 4384 
L 1825 4384 
Q 1516 4384 1395 4259 
Q 1275 4134 1275 3809 
L 1275 3500 
L 2222 3500 
L 2222 3053 
L 1275 3053 
L 1275 0 
L 697 0 
L 697 3053 
L 147 3053 
L 147 3500 
L 697 3500 
L 697 3744 
Q 697 4328 969 4595 
Q 1241 4863 1831 4863 
L 2375 4863 
z
" transform="scale(0.015625)"/>
      <path id="DejaVuSans-46" d="M 3122 3366 
L 3122 2828 
Q 2878 2963 2633 3030 
Q 2388 3097 2138 3097 
Q 1578 3097 1268 2742 
Q 959 2388 959 1747 
Q 959 1106 1268 751 
Q 1578 397 2138 397 
Q 2388 397 2633 464 
Q 2878 531 3122 666 
L 3122 134 
Q 2881 22 2623 -34 
Q 2366 -91 2075 -91 
Q 1284 -91 818 406 
Q 353 903 353 1747 
Q 353 2603 823 3093 
Q 1294 3584 2113 3584 
Q 2378 3584 2631 3529 
Q 2884 3475 3122 3366 
z
" transform="scale(0.015625)"/>
      <path id="DejaVuSans-2c" d="M 628 4666 
L 1259 4666 
L 1259 0 
L 628 0 
L 628 4666 
z
" transform="scale(0.015625)"/>
      <path id="DejaVuSans-27" d="M 1259 4147 
L 1259 519 
L 2022 519 
Q 2988 519 3436 956 
Q 3884 1394 3884 2338 
Q 3884 3275 3436 3711 
Q 2988 4147 2022 4147 
L 1259 4147 
z
M 628 4666 
L 1925 4666 
Q 3281 4666 3915 4102 
Q 4550 3538 4550 2338 
Q 4550 1131 3912 565 
Q 3275 0 1925 0 
L 628 0 
L 628 4666 
z
" transform="scale(0.015625)"/>
     </defs>
     <use xlink:href="#DejaVuSans-26"/>
     <use xlink:href="#DejaVuSans-52" transform="translate(69.828125 0)"/>
     <use xlink:href="#DejaVuSans-51" transform="translate(131.015625 0)"/>
     <use xlink:href="#DejaVuSans-57" transform="translate(194.390625 0)"/>
     <use xlink:href="#DejaVuSans-55" transform="translate(233.59375 0)"/>
     <use xlink:href="#DejaVuSans-52" transform="translate(272.5 0)"/>
     <use xlink:href="#DejaVuSans-4f" transform="translate(333.6875 0)"/>
     <use xlink:href="#DejaVuSans-44" transform="translate(361.46875 0)"/>
     <use xlink:href="#DejaVuSans-47" transform="translate(422.75 0)"/>
     <use xlink:href="#DejaVuSans-52" transform="translate(486.234375 0)"/>
     <use xlink:href="#DejaVuSans-55" transform="translate(547.421875 0)"/>
     <use xlink:href="#DejaVuSans-3" transform="translate(588.53125 0)"/>
     <use xlink:href="#DejaVuSans-28" transform="translate(620.3125 0)"/>
     <use xlink:href="#DejaVuSans-36" transform="translate(683.5 0)"/>
     <use xlink:href="#DejaVuSans-33" transform="translate(746.984375 0)"/>
     <use xlink:href="#DejaVuSans-16" transform="translate(807.28125 0)"/>
     <use xlink:href="#DejaVuSans-15" transform="translate(870.90625 0)"/>
     <use xlink:href="#DejaVuSans-10" transform="translate(934.53125 0)"/>
     <use xlink:href="#DejaVuSans-36" transform="translate(970.609375 0)"/>
     <use xlink:href="#DejaVuSans-16" transform="translate(1034.09375 0)"/>
     <use xlink:href="#DejaVuSans-3" transform="translate(1097.71875 0)"/>
     <use xlink:href="#DejaVuSans-b" transform="translate(1129.5 0)"/>
     <use xlink:href="#DejaVuSans-34" transform="translate(1168.515625 0)"/>
     <use xlink:href="#DejaVuSans-28" transform="translate(1247.234375 0)"/>
     <use xlink:href="#DejaVuSans-30" transform="translate(1310.421875 0)"/>
     <use xlink:href="#DejaVuSans-38" transform="translate(1396.703125 0)"/>
     <use xlink:href="#DejaVuSans-c" transform="translate(1469.890625 0)"/>
     <use xlink:href="#DejaVuSans-3" transform="translate(1508.90625 0)"/>
     <use xlink:href="#DejaVuSans-af6" transform="translate(1540.6875 0)"/>
     <use xlink:href="#DejaVuSans-3" transform="translate(1640.6875 0)"/>
     <use xlink:href="#DejaVuSans-50" transform="translate(1672.46875 0)"/>
     <use xlink:href="#DejaVuSans-44" transform="translate(1769.875 0)"/>
     <use xlink:href="#DejaVuSans-4f" transform="translate(1831.15625 0)"/>
     <use xlink:href="#DejaVuSans-4b" transform="translate(1858.9375 0)"/>
     <use xlink:href="#DejaVuSans-44" transform="translate(1922.3125 0)"/>
     <use xlink:href="#DejaVuSans-3" transform="translate(1983.59375 0)"/>
     <use xlink:href="#DejaVuSans-49" transform="translate(2015.375 0)"/>
     <use xlink:href="#DejaVuSans-48" transform="translate(2050.578125 0)"/>
     <use xlink:href="#DejaVuSans-46" transform="translate(2112.109375 0)"/>
     <use xlink:href="#DejaVuSans-4b" transform="translate(2167.09375 0)"/>
     <use xlink:href="#DejaVuSans-44" transform="translate(2230.46875 0)"/>
     <use xlink:href="#DejaVuSans-47" transform="translate(2291.75 0)"/>
     <use xlink:href="#DejaVuSans-44" transform="translate(2355.234375 0)"/>
     <use xlink:href="#DejaVuSans-3" transform="translate(2416.515625 0)"/>
     <use xlink:href="#DejaVuSans-33" transform="translate(2448.296875 0)"/>
     <use xlink:href="#DejaVuSans-2c" transform="translate(2508.59375 0)"/>
     <use xlink:href="#DejaVuSans-27" transform="translate(2538.09375 0)"/>
    </g>
   </g>
   <g id="legend_1">
    <g id="patch_7">
     <path d="M 581.745937 37.401094 
L 776.3 37.401094 
Q 777.7 37.401094 777.7 36.001094 
L 777.7 15.7 
Q 777.7 14.3 776.3 14.3 
L 581.745937 14.3 
Q 580.345937 14.3 580.345937 15.7 
L 580.345937 36.001094 
Q 580.345937 37.401094 581.745937 37.401094 
z
" style="fill: #ffffff; opacity: 0.9; stroke: #cccccc; stroke-linejoin: miter"/>
    </g>
    <g id="line2d_35">
     <path d="M 583.145937 19.968906 
L 590.145937 19.968906 
L 597.145937 19.968906 
" style="fill: none; stroke: #2563eb; stroke-width: 1.6; stroke-linecap: square"/>
    </g>
    <g id="text_18">
     <!-- J1 medido -->
     <g transform="translate(602.745937 22.418906) scale(0.07 -0.07)">
      <defs>
       <path id="DejaVuSans-4c" d="M 603 3500 
L 1178 3500 
L 1178 0 
L 603 0 
L 603 3500 
z
M 603 4863 
L 1178 4863 
L 1178 4134 
L 603 4134 
L 603 4863 
z
" transform="scale(0.015625)"/>
      </defs>
      <use xlink:href="#DejaVuSans-2d"/>
      <use xlink:href="#DejaVuSans-14" transform="translate(29.5 0)"/>
      <use xlink:href="#DejaVuSans-3" transform="translate(93.125 0)"/>
      <use xlink:href="#DejaVuSans-50" transform="translate(124.90625 0)"/>
      <use xlink:href="#DejaVuSans-48" transform="translate(222.3125 0)"/>
      <use xlink:href="#DejaVuSans-47" transform="translate(283.84375 0)"/>
      <use xlink:href="#DejaVuSans-4c" transform="translate(347.328125 0)"/>
      <use xlink:href="#DejaVuSans-47" transform="translate(375.109375 0)"/>
      <use xlink:href="#DejaVuSans-52" transform="translate(438.59375 0)"/>
     </g>
    </g>
    <g id="line2d_36">
     <path d="M 583.145937 30.469453 
L 590.145937 30.469453 
L 597.145937 30.469453 
" style="fill: none; stroke-dasharray: 1.3,2.145; stroke-dashoffset: 0; stroke: #2563eb; stroke-opacity: 0.9; stroke-width: 1.3"/>
    </g>
    <g id="text_19">
     <!-- J1 alvo -->
     <g transform="translate(602.745937 32.919453) scale(0.07 -0.07)">
      <defs>
       <path id="DejaVuSans-59" d="M 191 3500 
L 800 3500 
L 1894 563 
L 2988 3500 
L 3597 3500 
L 2284 0 
L 1503 0 
L 191 3500 
z
" transform="scale(0.015625)"/>
      </defs>
      <use xlink:href="#DejaVuSans-2d"/>
      <use xlink:href="#DejaVuSans-14" transform="translate(29.5 0)"/>
      <use xlink:href="#DejaVuSans-3" transform="translate(93.125 0)"/>
      <use xlink:href="#DejaVuSans-44" transform="translate(124.90625 0)"/>
      <use xlink:href="#DejaVuSans-4f" transform="translate(186.1875 0)"/>
      <use xlink:href="#DejaVuSans-59" transform="translate(213.96875 0)"/>
      <use xlink:href="#DejaVuSans-52" transform="translate(273.15625 0)"/>
     </g>
    </g>
    <g id="line2d_37">
     <path d="M 651.730625 19.968906 
L 658.730625 19.968906 
L 665.730625 19.968906 
" style="fill: none; stroke: #16a34a; stroke-width: 1.6; stroke-linecap: square"/>
    </g>
    <g id="text_20">
     <!-- J2 medido -->
     <g transform="translate(671.330625 22.418906) scale(0.07 -0.07)">
      <use xlink:href="#DejaVuSans-2d"/>
      <use xlink:href="#DejaVuSans-15" transform="translate(29.5 0)"/>
      <use xlink:href="#DejaVuSans-3" transform="translate(93.125 0)"/>
      <use xlink:href="#DejaVuSans-50" transform="translate(124.90625 0)"/>
      <use xlink:href="#DejaVuSans-48" transform="translate(222.3125 0)"/>
      <use xlink:href="#DejaVuSans-47" transform="translate(283.84375 0)"/>
      <use xlink:href="#DejaVuSans-4c" transform="translate(347.328125 0)"/>
      <use xlink:href="#DejaVuSans-47" transform="translate(375.109375 0)"/>
      <use xlink:href="#DejaVuSans-52" transform="translate(438.59375 0)"/>
     </g>
    </g>
    <g id="line2d_38">
     <path d="M 651.730625 30.469453 
L 658.730625 30.469453 
L 665.730625 30.469453 
" style="fill: none; stroke-dasharray: 1.3,2.145; stroke-dashoffset: 0; stroke: #16a34a; stroke-opacity: 0.9; stroke-width: 1.3"/>
    </g>
    <g id="text_21">
     <!-- J2 alvo -->
     <g transform="translate(671.330625 32.919453) scale(0.07 -0.07)">
      <use xlink:href="#DejaVuSans-2d"/>
      <use xlink:href="#DejaVuSans-15" transform="translate(29.5 0)"/>
      <use xlink:href="#DejaVuSans-3" transform="translate(93.125 0)"/>
      <use xlink:href="#DejaVuSans-44" transform="translate(124.90625 0)"/>
      <use xlink:href="#DejaVuSans-4f" transform="translate(186.1875 0)"/>
      <use xlink:href="#DejaVuSans-59" transform="translate(213.96875 0)"/>
      <use xlink:href="#DejaVuSans-52" transform="translate(273.15625 0)"/>
     </g>
    </g>
    <g id="line2d_39">
     <path d="M 720.315312 19.968906 
L 727.315312 19.968906 
L 734.315312 19.968906 
" style="fill: none; stroke: #dc2626; stroke-width: 1.6; stroke-linecap: square"/>
    </g>
    <g id="text_22">
     <!-- J3 medido -->
     <g transform="translate(739.915312 22.418906) scale(0.07 -0.07)">
      <use xlink:href="#DejaVuSans-2d"/>
      <use xlink:href="#DejaVuSans-16" transform="translate(29.5 0)"/>
      <use xlink:href="#DejaVuSans-3" transform="translate(93.125 0)"/>
      <use xlink:href="#DejaVuSans-50" transform="translate(124.90625 0)"/>
      <use xlink:href="#DejaVuSans-48" transform="translate(222.3125 0)"/>
      <use xlink:href="#DejaVuSans-47" transform="translate(283.84375 0)"/>
      <use xlink:href="#DejaVuSans-4c" transform="translate(347.328125 0)"/>
      <use xlink:href="#DejaVuSans-47" transform="translate(375.109375 0)"/>
      <use xlink:href="#DejaVuSans-52" transform="translate(438.59375 0)"/>
     </g>
    </g>
    <g id="line2d_40">
     <path d="M 720.315312 30.469453 
L 727.315312 30.469453 
L 734.315312 30.469453 
" style="fill: none; stroke-dasharray: 1.3,2.145; stroke-dashoffset: 0; stroke: #dc2626; stroke-opacity: 0.9; stroke-width: 1.3"/>
    </g>
    <g id="text_23">
     <!-- J3 alvo -->
     <g transform="translate(739.915312 32.919453) scale(0.07 -0.07)">
      <use xlink:href="#DejaVuSans-2d"/>
      <use xlink:href="#DejaVuSans-16" transform="translate(29.5 0)"/>
      <use xlink:href="#DejaVuSans-3" transform="translate(93.125 0)"/>
      <use xlink:href="#DejaVuSans-44" transform="translate(124.90625 0)"/>
      <use xlink:href="#DejaVuSans-4f" transform="translate(186.1875 0)"/>
      <use xlink:href="#DejaVuSans-59" transform="translate(213.96875 0)"/>
      <use xlink:href="#DejaVuSans-52" transform="translate(273.15625 0)"/>
     </g>
    </g>
   </g>
  </g>
 </g>
 <defs>
  <clipPath id="p17d92acd70">
   <rect x="47.242344" y="10.8" width="733.957656" height="307.077656"/>
  </clipPath>
 </defs>
</svg>
