<?xml version="1.0" encoding="utf-8" standalone="no"?>
<!DOCTYPE svg PUBLIC "-//W3C//DTD SVG 1.1//EN"
  "http://www.w3.org/Graphics/SVG/1.1/DTD/svg11.dtd">
<svg xmlns:xlink="http://www.w3.org/1999/xlink" width="864pt" height="360pt" viewBox="0 0 864 360" xmlns="http://www.w3.org/2000/svg" version="1.1">
 <metadata>
  <rdf:RDF xmlns:dc="http://purl.org/dc/elements/1.1/" xmlns:cc="http://creativecommons.org/ns#" xmlns:rdf="http://www.w3.org/1999/02/22-rdf-syntax-ns#">
   <cc:Work>
    <dc:type rdf:resource="http://purl.org/dc/dcmitype/StillImage"/>
    <dc:date>2026-06-22T18:25:31.315554</dc:date>
    <dc:format>image/svg+xml</dc:format>
    <dc:creator>
     <cc:Agent>
      <dc:title>Matplotlib v3.11.0, https://matplotlib.org/</dc:title>
     </cc:Agent>
    </dc:creator>
   </cc:Work>
  </rdf:RDF>
 </metadata>
 <defs>
  <style type="text/css">*{stroke-linejoin: round; stroke-linecap: butt}</style>
 </defs>
 <g id="figure_1">
  <g id="patch_1">
   <path d="M 0 360 
L 864 360 
L 864 0 
L 0 0 
z
" style="fill: #ffffff"/>
  </g>
  <g id="axes_1">
   <g id="patch_2">
    <path d="M 47.242344 317.877656 
L 426.6 317.877656 
L 426.6 24.72 
L 47.242344 24.72 
z
" style="fill: #ffffff"/>
   </g>
   <g id="matplotlib.axis_1">
    <g id="xtick_1">
     <g id="line2d_1">
      <path d="M 90.790952 317.877656 
L 90.790952 24.72 
" clip-path="url(#pc9b1e83479)" style="fill: none; stroke: #b0b0b0; stroke-opacity: 0.3; stroke-width: 0.5; stroke-linecap: square"/>
     </g>
     <g id="line2d_2">
      <defs>
       <path id="ma9caaa112a" d="M 0 0 
L 0 3.5 
" style="stroke: #000000; stroke-width: 0.8"/>
      </defs>
      <g>
       <use xlink:href="#ma9caaa112a" x="90.790952" y="317.877656" style="stroke: #000000; stroke-width: 0.8"/>
      </g>
     </g>
     <g id="text_1">
      <!-- 0.0 -->
      <g transform="translate(82.839389 332.475312) scale(0.1 -0.1)">
       <defs>
        <path id="DejaVuSans-13" d="M 2034 4250 
Q 1547 4250 1301 3770 
Q 1056 3291 1056 2328 
Q 1056 1369 1301 889 
Q 1547 409 2034 409 
Q 2525 409 2770 889 
Q 3016 1369 3016 2328 
Q 3016 3291 2770 3770 
Q 2525 4250 2034 4250 
z
M 2034 4750 
Q 2819 4750 3233 4129 
Q 3647 3509 3647 2328 
Q 3647 1150 3233 529 
Q 2819 -91 2034 -91 
Q 1250 -91 836 529 
Q 422 1150 422 2328 
Q 422 3509 836 4129 
Q 1250 4750 2034 4750 
z
" transform="scale(0.015625)"/>
        <path id="DejaVuSans-11" d="M 684 794 
L 1344 794 
L 1344 0 
L 684 0 
L 684 794 
z
" transform="scale(0.015625)"/>
       </defs>
       <use xlink:href="#DejaVuSans-13"/>
       <use xlink:href="#DejaVuSans-11" transform="translate(63.625 0)"/>
       <use xlink:href="#DejaVuSans-13" transform="translate(95.40625 0)"/>
      </g>
     </g>
    </g>
    <g id="xtick_2">
     <g id="line2d_3">
      <path d="M 136.517315 317.877656 
L 136.517315 24.72 
" clip-path="url(#pc9b1e83479)" style="fill: none; stroke: #b0b0b0; stroke-opacity: 0.3; stroke-width: 0.5; stroke-linecap: square"/>
     </g>
     <g id="line2d_4">
      <g>
       <use xlink:href="#ma9caaa112a" x="136.517315" y="317.877656" style="stroke: #000000; stroke-width: 0.8"/>
      </g>
     </g>
     <g id="text_2">
      <!-- 0.5 -->
      <g transform="translate(128.565752 332.475312) scale(0.1 -0.1)">
       <defs>
        <path id="DejaVuSans-18" d="M 691 4666 
L 3169 4666 
L 3169 4134 
L 1269 4134 
L 1269 2991 
Q 1406 3038 1543 3061 
Q 1681 3084 1819 3084 
Q 2600 3084 3056 2656 
Q 3513 2228 3513 1497 
Q 3513 744 3044 326 
Q 2575 -91 1722 -91 
Q 1428 -91 1123 -41 
Q 819 9 494 109 
L 494 744 
Q 775 591 1075 516 
Q 1375 441 1709 441 
Q 2250 441 2565 725 
Q 2881 1009 2881 1497 
Q 2881 1984 2565 2268 
Q 2250 2553 1709 2553 
Q 1456 2553 1204 2497 
Q 953 2441 691 2322 
L 691 4666 
z
" transform="scale(0.015625)"/>
       </defs>
       <use xlink:href="#DejaVuSans-13"/>
       <use xlink:href="#DejaVuSans-11" transform="translate(63.625 0)"/>
       <use xlink:href="#DejaVuSans-18" transform="translate(95.40625 0)"/>
      </g>
     </g>
    </g>
    <g id="xtick_3">
     <g id="line2d_5">
      <path d="M 182.243677 317.877656 
L 182.243677 24.72 
" clip-path="url(#pc9b1e83479)" style="fill: none; stroke: #b0b0b0; stroke-opacity: 0.3; stroke-width: 0.5; stroke-linecap: square"/>
     </g>
     <g id="line2d_6">
      <g>
       <use xlink:href="#ma9caaa112a" x="182.243677" y="317.877656" style="stroke: #000000; stroke-width: 0.8"/>
      </g>
     </g>
     <g id="text_3">
      <!-- 1.0 -->
      <g transform="translate(174.292115 332.475312) scale(0.1 -0.1)">
       <defs>
        <path id="DejaVuSans-14" d="M 794 531 
L 1825 531 
L 1825 4091 
L 703 3866 
L 703 4441 
L 1819 4666 
L 2450 4666 
L 2450 531 
L 3481 531 
L 3481 0 
L 794 0 
L 794 531 
z
" transform="scale(0.015625)"/>
       </defs>
       <use xlink:href="#DejaVuSans-14"/>
       <use xlink:href="#DejaVuSans-11" transform="translate(63.625 0)"/>
       <use xlink:href="#DejaVuSans-13" transform="translate(95.40625 0)"/>
      </g>
     </g>
    </g>
    <g id="xtick_4">
     <g id="line2d_7">
      <path d="M 227.97004 317.877656 
L 227.97004 24.72 
" clip-path="url(#pc9b1e83479)" style="fill: none; stroke: #b0b0b0; stroke-opacity: 0.3; stroke-width: 0.5; stroke-linecap: square"/>
     </g>
     <g id="line2d_8">
      <g>
       <use xlink:href="#ma9caaa112a" x="227.97004" y="317.877656" style="stroke: #000000; stroke-width: 0.8"/>
      </g>
     </g>
     <g id="text_4">
      <!-- 1.5 -->
      <g transform="translate(220.018478 332.475312) scale(0.1 -0.1)">
       <use xlink:href="#DejaVuSans-14"/>
       <use xlink:href="#DejaVuSans-11" transform="translate(63.625 0)"/>
       <use xlink:href="#DejaVuSans-18" transform="translate(95.40625 0)"/>
      </g>
     </g>
    </g>
    <g id="xtick_5">
     <g id="line2d_9">
      <path d="M 273.696403 317.877656 
L 273.696403 24.72 
" clip-path="url(#pc9b1e83479)" style="fill: none; stroke: #b0b0b0; stroke-opacity: 0.3; stroke-width: 0.5; stroke-linecap: square"/>
     </g>
     <g id="line2d_10">
      <g>
       <use xlink:href="#ma9caaa112a" x="273.696403" y="317.877656" style="stroke: #000000; stroke-width: 0.8"/>
      </g>
     </g>
     <g id="text_5">
      <!-- 2.0 -->
      <g transform="translate(265.744841 332.475312) scale(0.1 -0.1)">
       <defs>
        <path id="DejaVuSans-15" d="M 1228 531 
L 3431 531 
L 3431 0 
L 469 0 
L 469 531 
Q 828 903 1448 1529 
Q 2069 2156 2228 2338 
Q 2531 2678 2651 2914 
Q 2772 3150 2772 3378 
Q 2772 3750 2511 3984 
Q 2250 4219 1831 4219 
Q 1534 4219 1204 4116 
Q 875 4013 500 3803 
L 500 4441 
Q 881 4594 1212 4672 
Q 1544 4750 1819 4750 
Q 2544 4750 2975 4387 
Q 3406 4025 3406 3419 
Q 3406 3131 3298 2873 
Q 3191 2616 2906 2266 
Q 2828 2175 2409 1742 
Q 1991 1309 1228 531 
z
" transform="scale(0.015625)"/>
       </defs>
       <use xlink:href="#DejaVuSans-15"/>
       <use xlink:href="#DejaVuSans-11" transform="translate(63.625 0)"/>
       <use xlink:href="#DejaVuSans-13" transform="translate(95.40625 0)"/>
      </g>
     </g>
    </g>
    <g id="xtick_6">
     <g id="line2d_11">
      <path d="M 319.422766 317.877656 
L 319.422766 24.72 
" clip-path="url(#pc9b1e83479)" style="fill: none; stroke: #b0b0b0; stroke-opacity: 0.3; stroke-width: 0.5; stroke-linecap: square"/>
     </g>
     <g id="line2d_12">
      <g>
       <use xlink:href="#ma9caaa112a" x="319.422766" y="317.877656" style="stroke: #000000; stroke-width: 0.8"/>
      </g>
     </g>
     <g id="text_6">
      <!-- 2.5 -->
      <g transform="translate(311.471203 332.475312) scale(0.1 -0.1)">
       <use xlink:href="#DejaVuSans-15"/>
       <use xlink:href="#DejaVuSans-11" transform="translate(63.625 0)"/>
       <use xlink:href="#DejaVuSans-18" transform="translate(95.40625 0)"/>
      </g>
     </g>
    </g>
    <g id="xtick_7">
     <g id="line2d_13">
      <path d="M 365.149129 317.877656 
L 365.149129 24.72 
" clip-path="url(#pc9b1e83479)" style="fill: none; stroke: #b0b0b0; stroke-opacity: 0.3; stroke-width: 0.5; stroke-linecap: square"/>
     </g>
     <g id="line2d_14">
      <g>
       <use xlink:href="#ma9caaa112a" x="365.149129" y="317.877656" style="stroke: #000000; stroke-width: 0.8"/>
      </g>
     </g>
     <g id="text_7">
      <!-- 3.0 -->
      <g transform="translate(357.197566 332.475312) scale(0.1 -0.1)">
       <defs>
        <path id="DejaVuSans-16" d="M 2597 2516 
Q 3050 2419 3304 2112 
Q 3559 1806 3559 1356 
Q 3559 666 3084 287 
Q 2609 -91 1734 -91 
Q 1441 -91 1130 -33 
Q 819 25 488 141 
L 488 750 
Q 750 597 1062 519 
Q 1375 441 1716 441 
Q 2309 441 2620 675 
Q 2931 909 2931 1356 
Q 2931 1769 2642 2001 
Q 2353 2234 1838 2234 
L 1294 2234 
L 1294 2753 
L 1863 2753 
Q 2328 2753 2575 2939 
Q 2822 3125 2822 3475 
Q 2822 3834 2567 4026 
Q 2313 4219 1838 4219 
Q 1578 4219 1281 4162 
Q 984 4106 628 3988 
L 628 4550 
Q 988 4650 1302 4700 
Q 1616 4750 1894 4750 
Q 2613 4750 3031 4423 
Q 3450 4097 3450 3541 
Q 3450 3153 3228 2886 
Q 3006 2619 2597 2516 
z
" transform="scale(0.015625)"/>
       </defs>
       <use xlink:href="#DejaVuSans-16"/>
       <use xlink:href="#DejaVuSans-11" transform="translate(63.625 0)"/>
       <use xlink:href="#DejaVuSans-13" transform="translate(95.40625 0)"/>
      </g>
     </g>
    </g>
    <g id="xtick_8">
     <g id="line2d_15">
      <path d="M 410.875491 317.877656 
L 410.875491 24.72 
" clip-path="url(#pc9b1e83479)" style="fill: none; stroke: #b0b0b0; stroke-opacity: 0.3; stroke-width: 0.5; stroke-linecap: square"/>
     </g>
     <g id="line2d_16">
      <g>
       <use xlink:href="#ma9caaa112a" x="410.875491" y="317.877656" style="stroke: #000000; stroke-width: 0.8"/>
      </g>
     </g>
     <g id="text_8">
      <!-- 3.5 -->
      <g transform="translate(402.923929 332.475312) scale(0.1 -0.1)">
       <use xlink:href="#DejaVuSans-16"/>
       <use xlink:href="#DejaVuSans-11" transform="translate(63.625 0)"/>
       <use xlink:href="#DejaVuSans-18" transform="translate(95.40625 0)"/>
      </g>
     </g>
    </g>
    <g id="text_9">
     <!-- Tempo desde o início do movimento (s) -->
     <g transform="translate(138.538359 346.876094) scale(0.1 -0.1)">
      <defs>
       <path id="DejaVuSans-37" d="M -19 4666 
L 3928 4666 
L 3928 4134 
L 2272 4134 
L 2272 0 
L 1638 0 
L 1638 4134 
L -19 4134 
L -19 4666 
z
" transform="scale(0.015625)"/>
       <path id="DejaVuSans-48" d="M 3597 1894 
L 3597 1613 
L 953 1613 
Q 991 1019 1311 708 
Q 1631 397 2203 397 
Q 2534 397 2845 478 
Q 3156 559 3463 722 
L 3463 178 
Q 3153 47 2828 -22 
Q 2503 -91 2169 -91 
Q 1331 -91 842 396 
Q 353 884 353 1716 
Q 353 2575 817 3079 
Q 1281 3584 2069 3584 
Q 2775 3584 3186 3129 
Q 3597 2675 3597 1894 
z
M 3022 2063 
Q 3016 2534 2758 2815 
Q 2500 3097 2075 3097 
Q 1594 3097 1305 2825 
Q 1016 2553 972 2059 
L 3022 2063 
z
" transform="scale(0.015625)"/>
       <path id="DejaVuSans-50" d="M 3328 2828 
Q 3544 3216 3844 3400 
Q 4144 3584 4550 3584 
Q 5097 3584 5394 3201 
Q 5691 2819 5691 2113 
L 5691 0 
L 5113 0 
L 5113 2094 
Q 5113 2597 4934 2840 
Q 4756 3084 4391 3084 
Q 3944 3084 3684 2787 
Q 3425 2491 3425 1978 
L 3425 0 
L 2847 0 
L 2847 2094 
Q 2847 2600 2669 2842 
Q 2491 3084 2119 3084 
Q 1678 3084 1418 2786 
Q 1159 2488 1159 1978 
L 1159 0 
L 581 0 
L 581 3500 
L 1159 3500 
L 1159 2956 
Q 1356 3278 1631 3431 
Q 1906 3584 2284 3584 
Q 2666 3584 2933 3390 
Q 3200 3197 3328 2828 
z
" transform="scale(0.015625)"/>
       <path id="DejaVuSans-53" d="M 1159 525 
L 1159 -1331 
L 581 -1331 
L 581 3500 
L 1159 3500 
L 1159 2969 
Q 1341 3281 1617 3432 
Q 1894 3584 2278 3584 
Q 2916 3584 3314 3078 
Q 3713 2572 3713 1747 
Q 3713 922 3314 415 
Q 2916 -91 2278 -91 
Q 1894 -91 1617 61 
Q 1341 213 1159 525 
z
M 3116 1747 
Q 3116 2381 2855 2742 
Q 2594 3103 2138 3103 
Q 1681 3103 1420 2742 
Q 1159 2381 1159 1747 
Q 1159 1113 1420 752 
Q 1681 391 2138 391 
Q 2594 391 2855 752 
Q 3116 1113 3116 1747 
z
" transform="scale(0.015625)"/>
       <path id="DejaVuSans-52" d="M 1959 3097 
Q 1497 3097 1228 2736 
Q 959 2375 959 1747 
Q 959 1119 1226 758 
Q 1494 397 1959 397 
Q 2419 397 2687 759 
Q 2956 1122 2956 1747 
Q 2956 2369 2687 2733 
Q 2419 3097 1959 3097 
z
M 1959 3584 
Q 2709 3584 3137 3096 
Q 3566 2609 3566 1747 
Q 3566 888 3137 398 
Q 2709 -91 1959 -91 
Q 1206 -91 779 398 
Q 353 888 353 1747 
Q 353 2609 779 3096 
Q 1206 3584 1959 3584 
z
" transform="scale(0.015625)"/>
       <path id="DejaVuSans-3" transform="scale(0.015625)"/>
       <path id="DejaVuSans-47" d="M 2906 2969 
L 2906 4863 
L 3481 4863 
L 3481 0 
L 2906 0 
L 2906 525 
Q 2725 213 2448 61 
Q 2172 -91 1784 -91 
Q 1150 -91 751 415 
Q 353 922 353 1747 
Q 353 2572 751 3078 
Q 1150 3584 1784 3584 
Q 2172 3584 2448 3432 
Q 2725 3281 2906 2969 
z
M 947 1747 
Q 947 1113 1208 752 
Q 1469 391 1925 391 
Q 2381 391 2643 752 
Q 2906 1113 2906 1747 
Q 2906 2381 2643 2742 
Q 2381 3103 1925 3103 
Q 1469 3103 1208 2742 
Q 947 2381 947 1747 
z
" transform="scale(0.015625)"/>
       <path id="DejaVuSans-56" d="M 2834 3397 
L 2834 2853 
Q 2591 2978 2328 3040 
Q 2066 3103 1784 3103 
Q 1356 3103 1142 2972 
Q 928 2841 928 2578 
Q 928 2378 1081 2264 
Q 1234 2150 1697 2047 
L 1894 2003 
Q 2506 1872 2764 1633 
Q 3022 1394 3022 966 
Q 3022 478 2636 193 
Q 2250 -91 1575 -91 
Q 1294 -91 989 -36 
Q 684 19 347 128 
L 347 722 
Q 666 556 975 473 
Q 1284 391 1588 391 
Q 1994 391 2212 530 
Q 2431 669 2431 922 
Q 2431 1156 2273 1281 
Q 2116 1406 1581 1522 
L 1381 1569 
Q 847 1681 609 1914 
Q 372 2147 372 2553 
Q 372 3047 722 3315 
Q 1072 3584 1716 3584 
Q 2034 3584 2315 3537 
Q 2597 3491 2834 3397 
z
" transform="scale(0.015625)"/>
       <path id="DejaVuSans-4c" d="M 603 3500 
L 1178 3500 
L 1178 0 
L 603 0 
L 603 3500 
z
M 603 4863 
L 1178 4863 
L 1178 4134 
L 603 4134 
L 603 4863 
z
" transform="scale(0.015625)"/>
       <path id="DejaVuSans-51" d="M 3513 2113 
L 3513 0 
L 2938 0 
L 2938 2094 
Q 2938 2591 2744 2837 
Q 2550 3084 2163 3084 
Q 1697 3084 1428 2787 
Q 1159 2491 1159 1978 
L 1159 0 
L 581 0 
L 581 3500 
L 1159 3500 
L 1159 2956 
Q 1366 3272 1645 3428 
Q 1925 3584 2291 3584 
Q 2894 3584 3203 3211 
Q 3513 2838 3513 2113 
z
" transform="scale(0.015625)"/>
       <path id="DejaVuSans-af" d="M 1325 5119 
L 1947 5119 
L 929 3944 
L 450 3944 
L 1325 5119 
z
M 603 3500 
L 1178 3500 
L 1178 0 
L 603 0 
L 603 3500 
z
M 891 3584 
L 891 3584 
z
" transform="scale(0.015625)"/>
       <path id="DejaVuSans-46" d="M 3122 3366 
L 3122 2828 
Q 2878 2963 2633 3030 
Q 2388 3097 2138 3097 
Q 1578 3097 1268 2742 
Q 959 2388 959 1747 
Q 959 1106 1268 751 
Q 1578 397 2138 397 
Q 2388 397 2633 464 
Q 2878 531 3122 666 
L 3122 134 
Q 2881 22 2623 -34 
Q 2366 -91 2075 -91 
Q 1284 -91 818 406 
Q 353 903 353 1747 
Q 353 2603 823 3093 
Q 1294 3584 2113 3584 
Q 2378 3584 2631 3529 
Q 2884 3475 3122 3366 
z
" transform="scale(0.015625)"/>
       <path id="DejaVuSans-59" d="M 191 3500 
L 800 3500 
L 1894 563 
L 2988 3500 
L 3597 3500 
L 2284 0 
L 1503 0 
L 191 3500 
z
" transform="scale(0.015625)"/>
       <path id="DejaVuSans-57" d="M 1172 4494 
L 1172 3500 
L 2356 3500 
L 2356 3053 
L 1172 3053 
L 1172 1153 
Q 1172 725 1289 603 
Q 1406 481 1766 481 
L 2356 481 
L 2356 0 
L 1766 0 
Q 1100 0 847 248 
Q 594 497 594 1153 
L 594 3053 
L 172 3053 
L 172 3500 
L 594 3500 
L 594 4494 
L 1172 4494 
z
" transform="scale(0.015625)"/>
       <path id="DejaVuSans-b" d="M 1984 4856 
Q 1566 4138 1362 3434 
Q 1159 2731 1159 2009 
Q 1159 1288 1364 580 
Q 1569 -128 1984 -844 
L 1484 -844 
Q 1016 -109 783 600 
Q 550 1309 550 2009 
Q 550 2706 781 3412 
Q 1013 4119 1484 4856 
L 1984 4856 
z
" transform="scale(0.015625)"/>
       <path id="DejaVuSans-c" d="M 513 4856 
L 1013 4856 
Q 1481 4119 1714 3412 
Q 1947 2706 1947 2009 
Q 1947 1309 1714 600 
Q 1481 -109 1013 -844 
L 513 -844 
Q 928 -128 1133 580 
Q 1338 1288 1338 2009 
Q 1338 2731 1133 3434 
Q 928 4138 513 4856 
z
" transform="scale(0.015625)"/>
      </defs>
      <use xlink:href="#DejaVuSans-37"/>
      <use xlink:href="#DejaVuSans-48" transform="translate(44.09375 0)"/>
      <use xlink:href="#DejaVuSans-50" transform="translate(105.625 0)"/>
      <use xlink:href="#DejaVuSans-53" transform="translate(203.03125 0)"/>
      <use xlink:href="#DejaVuSans-52" transform="translate(266.515625 0)"/>
      <use xlink:href="#DejaVuSans-3" transform="translate(327.703125 0)"/>
      <use xlink:href="#DejaVuSans-47" transform="translate(359.484375 0)"/>
      <use xlink:href="#DejaVuSans-48" transform="translate(422.96875 0)"/>
      <use xlink:href="#DejaVuSans-56" transform="translate(484.5 0)"/>
      <use xlink:href="#DejaVuSans-47" transform="translate(536.59375 0)"/>
      <use xlink:href="#DejaVuSans-48" transform="translate(600.078125 0)"/>
      <use xlink:href="#DejaVuSans-3" transform="translate(661.609375 0)"/>
      <use xlink:href="#DejaVuSans-52" transform="translate(693.390625 0)"/>
      <use xlink:href="#DejaVuSans-3" transform="translate(754.578125 0)"/>
      <use xlink:href="#DejaVuSans-4c" transform="translate(786.359375 0)"/>
      <use xlink:href="#DejaVuSans-51" transform="translate(814.140625 0)"/>
      <use xlink:href="#DejaVuSans-af" transform="translate(877.515625 0)"/>
      <use xlink:href="#DejaVuSans-46" transform="translate(905.296875 0)"/>
      <use xlink:href="#DejaVuSans-4c" transform="translate(960.28125 0)"/>
      <use xlink:href="#DejaVuSans-52" transform="translate(988.0625 0)"/>
      <use xlink:href="#DejaVuSans-3" transform="translate(1049.25 0)"/>
      <use xlink:href="#DejaVuSans-47" transform="translate(1081.03125 0)"/>
      <use xlink:href="#DejaVuSans-52" transform="translate(1144.515625 0)"/>
      <use xlink:href="#DejaVuSans-3" transform="translate(1205.703125 0)"/>
      <use xlink:href="#DejaVuSans-50" transform="translate(1237.484375 0)"/>
      <use xlink:href="#DejaVuSans-52" transform="translate(1334.890625 0)"/>
      <use xlink:href="#DejaVuSans-59" transform="translate(1396.078125 0)"/>
      <use xlink:href="#DejaVuSans-4c" transform="translate(1455.265625 0)"/>
      <use xlink:href="#DejaVuSans-50" transform="translate(1483.046875 0)"/>
      <use xlink:href="#DejaVuSans-48" transform="translate(1580.453125 0)"/>
      <use xlink:href="#DejaVuSans-51" transform="translate(1641.984375 0)"/>
      <use xlink:href="#DejaVuSans-57" transform="translate(1705.359375 0)"/>
      <use xlink:href="#DejaVuSans-52" transform="translate(1744.5625 0)"/>
      <use xlink:href="#DejaVuSans-3" transform="translate(1805.75 0)"/>
      <use xlink:href="#DejaVuSans-b" transform="translate(1837.53125 0)"/>
      <use xlink:href="#DejaVuSans-56" transform="translate(1876.546875 0)"/>
      <use xlink:href="#DejaVuSans-c" transform="translate(1928.640625 0)"/>
     </g>
    </g>
   </g>
   <g id="matplotlib.axis_2">
    <g id="ytick_1">
     <g id="line2d_17">
      <path d="M 47.242344 304.552308 
L 426.6 304.552308 
" clip-path="url(#pc9b1e83479)" style="fill: none; stroke: #b0b0b0; stroke-opacity: 0.3; stroke-width: 0.5; stroke-linecap: square"/>
     </g>
     <g id="line2d_18">
      <defs>
       <path id="m1136875630" d="M 0 0 
L -3.5 0 
" style="stroke: #000000; stroke-width: 0.8"/>
      </defs>
      <g>
       <use xlink:href="#m1136875630" x="47.242344" y="304.552308" style="stroke: #000000; stroke-width: 0.8"/>
      </g>
     </g>
     <g id="text_10">
      <!-- 0 -->
      <g transform="translate(33.879844 308.351136) scale(0.1 -0.1)">
       <use xlink:href="#DejaVuSans-13"/>
      </g>
     </g>
    </g>
    <g id="ytick_2">
     <g id="line2d_19">
      <path d="M 47.242344 260.134482 
L 426.6 260.134482 
" clip-path="url(#pc9b1e83479)" style="fill: none; stroke: #b0b0b0; stroke-opacity: 0.3; stroke-width: 0.5; stroke-linecap: square"/>
     </g>
     <g id="line2d_20">
      <g>
       <use xlink:href="#m1136875630" x="47.242344" y="260.134482" style="stroke: #000000; stroke-width: 0.8"/>
      </g>
     </g>
     <g id="text_11">
      <!-- 5 -->
      <g transform="translate(33.879844 263.93331) scale(0.1 -0.1)">
       <use xlink:href="#DejaVuSans-18"/>
      </g>
     </g>
    </g>
    <g id="ytick_3">
     <g id="line2d_21">
      <path d="M 47.242344 215.716655 
L 426.6 215.716655 
" clip-path="url(#pc9b1e83479)" style="fill: none; stroke: #b0b0b0; stroke-opacity: 0.3; stroke-width: 0.5; stroke-linecap: square"/>
     </g>
     <g id="line2d_22">
      <g>
       <use xlink:href="#m1136875630" x="47.242344" y="215.716655" style="stroke: #000000; stroke-width: 0.8"/>
      </g>
     </g>
     <g id="text_12">
      <!-- 10 -->
      <g transform="translate(27.517344 219.515483) scale(0.1 -0.1)">
       <use xlink:href="#DejaVuSans-14"/>
       <use xlink:href="#DejaVuSans-13" transform="translate(63.625 0)"/>
      </g>
     </g>
    </g>
    <g id="ytick_4">
     <g id="line2d_23">
      <path d="M 47.242344 171.298828 
L 426.6 171.298828 
" clip-path="url(#pc9b1e83479)" style="fill: none; stroke: #b0b0b0; stroke-opacity: 0.3; stroke-width: 0.5; stroke-linecap: square"/>
     </g>
     <g id="line2d_24">
      <g>
       <use xlink:href="#m1136875630" x="47.242344" y="171.298828" style="stroke: #000000; stroke-width: 0.8"/>
      </g>
     </g>
     <g id="text_13">
      <!-- 15 -->
      <g transform="translate(27.517344 175.097656) scale(0.1 -0.1)">
       <use xlink:href="#DejaVuSans-14"/>
       <use xlink:href="#DejaVuSans-18" transform="translate(63.625 0)"/>
      </g>
     </g>
    </g>
    <g id="ytick_5">
     <g id="line2d_25">
      <path d="M 47.242344 126.881001 
L 426.6 126.881001 
" clip-path="url(#pc9b1e83479)" style="fill: none; stroke: #b0b0b0; stroke-opacity: 0.3; stroke-width: 0.5; stroke-linecap: square"/>
     </g>
     <g id="line2d_26">
      <g>
       <use xlink:href="#m1136875630" x="47.242344" y="126.881001" style="stroke: #000000; stroke-width: 0.8"/>
      </g>
     </g>
     <g id="text_14">
      <!-- 20 -->
      <g transform="translate(27.517344 130.67983) scale(0.1 -0.1)">
       <use xlink:href="#DejaVuSans-15"/>
       <use xlink:href="#DejaVuSans-13" transform="translate(63.625 0)"/>
      </g>
     </g>
    </g>
    <g id="ytick_6">
     <g id="line2d_27">
      <path d="M 47.242344 82.463175 
L 426.6 82.463175 
" clip-path="url(#pc9b1e83479)" style="fill: none; stroke: #b0b0b0; stroke-opacity: 0.3; stroke-width: 0.5; stroke-linecap: square"/>
     </g>
     <g id="line2d_28">
      <g>
       <use xlink:href="#m1136875630" x="47.242344" y="82.463175" style="stroke: #000000; stroke-width: 0.8"/>
      </g>
     </g>
     <g id="text_15">
      <!-- 25 -->
      <g transform="translate(27.517344 86.262003) scale(0.1 -0.1)">
       <use xlink:href="#DejaVuSans-15"/>
       <use xlink:href="#DejaVuSans-18" transform="translate(63.625 0)"/>
      </g>
     </g>
    </g>
    <g id="ytick_7">
     <g id="line2d_29">
      <path d="M 47.242344 38.045348 
L 426.6 38.045348 
" clip-path="url(#pc9b1e83479)" style="fill: none; stroke: #b0b0b0; stroke-opacity: 0.3; stroke-width: 0.5; stroke-linecap: square"/>
     </g>
     <g id="line2d_30">
      <g>
       <use xlink:href="#m1136875630" x="47.242344" y="38.045348" style="stroke: #000000; stroke-width: 0.8"/>
      </g>
     </g>
     <g id="text_16">
      <!-- 30 -->
      <g transform="translate(27.517344 41.844176) scale(0.1 -0.1)">
       <use xlink:href="#DejaVuSans-16"/>
       <use xlink:href="#DejaVuSans-13" transform="translate(63.625 0)"/>
      </g>
     </g>
    </g>
    <g id="text_17">
     <!-- Ângulo (°) -->
     <g transform="translate(21.115 196.669922) rotate(-90) scale(0.1 -0.1)">
      <defs>
       <path id="DejaVuSans-84" d="M 2188 4044 
L 1331 1722 
L 3047 1722 
L 2188 4044 
z
M 1831 4666 
L 2547 4666 
L 4325 0 
L 3669 0 
L 3244 1197 
L 1141 1197 
L 716 0 
L 50 0 
L 1831 4666 
z
M 1894 5941 
L 2482 5941 
L 3141 5110 
L 2707 5110 
L 2188 5666 
L 1669 5110 
L 1235 5110 
L 1894 5941 
z
" transform="scale(0.015625)"/>
       <path id="DejaVuSans-4a" d="M 2906 1791 
Q 2906 2416 2648 2759 
Q 2391 3103 1925 3103 
Q 1463 3103 1205 2759 
Q 947 2416 947 1791 
Q 947 1169 1205 825 
Q 1463 481 1925 481 
Q 2391 481 2648 825 
Q 2906 1169 2906 1791 
z
M 3481 434 
Q 3481 -459 3084 -895 
Q 2688 -1331 1869 -1331 
Q 1566 -1331 1297 -1286 
Q 1028 -1241 775 -1147 
L 775 -588 
Q 1028 -725 1275 -790 
Q 1522 -856 1778 -856 
Q 2344 -856 2625 -561 
Q 2906 -266 2906 331 
L 2906 616 
Q 2728 306 2450 153 
Q 2172 0 1784 0 
Q 1141 0 747 490 
Q 353 981 353 1791 
Q 353 2603 747 3093 
Q 1141 3584 1784 3584 
Q 2172 3584 2450 3431 
Q 2728 3278 2906 2969 
L 2906 3500 
L 3481 3500 
L 3481 434 
z
" transform="scale(0.015625)"/>
       <path id="DejaVuSans-58" d="M 544 1381 
L 544 3500 
L 1119 3500 
L 1119 1403 
Q 1119 906 1312 657 
Q 1506 409 1894 409 
Q 2359 409 2629 706 
Q 2900 1003 2900 1516 
L 2900 3500 
L 3475 3500 
L 3475 0 
L 2900 0 
L 2900 538 
Q 2691 219 2414 64 
Q 2138 -91 1772 -91 
Q 1169 -91 856 284 
Q 544 659 544 1381 
z
M 1991 3584 
L 1991 3584 
z
" transform="scale(0.015625)"/>
       <path id="DejaVuSans-4f" d="M 603 4863 
L 1178 4863 
L 1178 0 
L 603 0 
L 603 4863 
z
" transform="scale(0.015625)"/>
       <path id="DejaVuSans-72" d="M 1600 4347 
Q 1350 4347 1178 4173 
Q 1006 4000 1006 3750 
Q 1006 3503 1178 3333 
Q 1350 3163 1600 3163 
Q 1850 3163 2022 3333 
Q 2194 3503 2194 3750 
Q 2194 3997 2020 4172 
Q 1847 4347 1600 4347 
z
M 1600 4750 
Q 1800 4750 1984 4673 
Q 2169 4597 2303 4453 
Q 2447 4313 2519 4134 
Q 2591 3956 2591 3750 
Q 2591 3338 2302 3052 
Q 2013 2766 1594 2766 
Q 1172 2766 890 3047 
Q 609 3328 609 3750 
Q 609 4169 896 4459 
Q 1184 4750 1600 4750 
z
" transform="scale(0.015625)"/>
      </defs>
      <use xlink:href="#DejaVuSans-84"/>
      <use xlink:href="#DejaVuSans-51" transform="translate(68.40625 0)"/>
      <use xlink:href="#DejaVuSans-4a" transform="translate(131.78125 0)"/>
      <use xlink:href="#DejaVuSans-58" transform="translate(195.265625 0)"/>
      <use xlink:href="#DejaVuSans-4f" transform="translate(258.640625 0)"/>
      <use xlink:href="#DejaVuSans-52" transform="translate(286.421875 0)"/>
      <use xlink:href="#DejaVuSans-3" transform="translate(347.609375 0)"/>
      <use xlink:href="#DejaVuSans-b" transform="translate(379.390625 0)"/>
      <use xlink:href="#DejaVuSans-72" transform="translate(418.40625 0)"/>
      <use xlink:href="#DejaVuSans-c" transform="translate(468.40625 0)"/>
     </g>
    </g>
   </g>
   <g id="line2d_31">
    <path d="M 64.485874 38.045348 
L 409.35647 38.045348 
L 409.35647 38.045348 
" clip-path="url(#pc9b1e83479)" style="fill: none; stroke-dasharray: 5.18,2.24; stroke-dashoffset: 0; stroke: #9ca3af; stroke-width: 1.4"/>
   </g>
   <g id="line2d_32">
    <path d="M 64.485874 304.552308 
L 72.424328 304.552308 
L 74.409214 300.554704 
L 76.386796 300.554704 
L 78.303741 296.557099 
L 80.526313 296.557099 
L 82.52245 288.561891 
L 84.568344 288.561891 
L 86.671931 280.566682 
L 88.650777 280.566682 
L 90.790952 276.569077 
L 92.941287 268.573869 
L 94.986548 264.576264 
L 97.000325 256.581055 
L 99.05747 256.581055 
L 107.365938 224.600238 
L 109.149181 220.602634 
L 111.129052 212.607425 
L 115.397322 196.617016 
L 115.397322 196.617016 
L 117.459481 192.619412 
L 119.730807 184.624212 
L 121.741575 172.631398 
L 123.771377 164.636199 
L 125.593758 156.640981 
L 127.471281 152.643368 
L 129.468704 144.64815 
L 131.535443 132.655319 
L 133.530206 124.660092 
L 135.715188 120.662479 
L 137.672841 112.667261 
L 139.754472 104.672035 
L 141.652752 96.676817 
L 143.800711 92.679204 
L 145.689572 88.681591 
L 147.602308 80.686373 
L 149.670333 80.686373 
L 151.713284 68.693533 
L 151.713284 68.693533 
L 153.674949 68.693533 
L 155.732551 60.698315 
L 157.823427 60.698315 
L 159.906169 52.703089 
L 161.994036 52.703089 
L 163.987796 48.705484 
L 166.024816 48.705484 
L 168.170943 44.707871 
L 172.199804 44.707871 
L 172.199804 44.707871 
L 174.304961 40.710258 
L 409.35647 40.710258 
L 409.35647 40.710258 
" clip-path="url(#pc9b1e83479)" style="fill: none; stroke: #2563eb; stroke-width: 1.8; stroke-linecap: square"/>
   </g>
   <g id="patch_3">
    <path d="M 47.242344 317.877656 
L 47.242344 24.72 
" style="fill: none; stroke: #000000; stroke-width: 0.8; stroke-linejoin: miter; stroke-linecap: square"/>
   </g>
   <g id="patch_4">
    <path d="M 426.6 317.877656 
L 426.6 24.72 
" style="fill: none; stroke: #000000; stroke-width: 0.8; stroke-linejoin: miter; stroke-linecap: square"/>
   </g>
   <g id="patch_5">
    <path d="M 47.242344 317.877656 
L 426.6 317.877656 
" style="fill: none; stroke: #000000; stroke-width: 0.8; stroke-linejoin: miter; stroke-linecap: square"/>
   </g>
   <g id="patch_6">
    <path d="M 47.242344 24.72 
L 426.6 24.72 
" style="fill: none; stroke: #000000; stroke-width: 0.8; stroke-linejoin: miter; stroke-linecap: square"/>
   </g>
   <g id="text_18">
    <!-- subida 10–90%: 710 ms -->
    <g transform="translate(58.623073 284.182444) scale(0.08 -0.08)">
     <defs>
      <path id="DejaVuSansMono-56" d="M 3041 3378 
L 3041 2816 
Q 2794 2959 2544 3031 
Q 2294 3103 2034 3103 
Q 1644 3103 1451 2976 
Q 1259 2850 1259 2591 
Q 1259 2356 1403 2240 
Q 1547 2125 2119 2016 
L 2350 1972 
Q 2778 1891 2998 1647 
Q 3219 1403 3219 1013 
Q 3219 494 2850 201 
Q 2481 -91 1825 -91 
Q 1566 -91 1281 -36 
Q 997 19 666 128 
L 666 722 
Q 988 556 1281 473 
Q 1575 391 1838 391 
Q 2219 391 2428 545 
Q 2638 700 2638 978 
Q 2638 1378 1872 1531 
L 1847 1538 
L 1631 1581 
Q 1134 1678 906 1908 
Q 678 2138 678 2534 
Q 678 3038 1018 3311 
Q 1359 3584 1991 3584 
Q 2272 3584 2531 3532 
Q 2791 3481 3041 3378 
z
" transform="scale(0.015625)"/>
      <path id="DejaVuSansMono-58" d="M 609 1325 
L 609 3494 
L 1184 3494 
L 1184 1325 
Q 1184 853 1351 631 
Q 1519 409 1869 409 
Q 2275 409 2490 695 
Q 2706 981 2706 1516 
L 2706 3494 
L 3284 3494 
L 3284 0 
L 2706 0 
L 2706 525 
Q 2553 222 2289 65 
Q 2025 -91 1672 -91 
Q 1134 -91 871 261 
Q 609 613 609 1325 
z
" transform="scale(0.015625)"/>
      <path id="DejaVuSansMono-45" d="M 2869 1747 
Q 2869 2416 2656 2756 
Q 2444 3097 2028 3097 
Q 1609 3097 1393 2755 
Q 1178 2413 1178 1747 
Q 1178 1084 1393 740 
Q 1609 397 2028 397 
Q 2444 397 2656 737 
Q 2869 1078 2869 1747 
z
M 1178 3053 
Q 1316 3309 1558 3446 
Q 1800 3584 2119 3584 
Q 2750 3584 3112 3098 
Q 3475 2613 3475 1759 
Q 3475 894 3111 401 
Q 2747 -91 2113 -91 
Q 1800 -91 1561 45 
Q 1322 181 1178 441 
L 1178 0 
L 603 0 
L 603 4863 
L 1178 4863 
L 1178 3053 
z
" transform="scale(0.015625)"/>
      <path id="DejaVuSansMono-4c" d="M 800 3500 
L 2272 3500 
L 2272 447 
L 3413 447 
L 3413 0 
L 556 0 
L 556 447 
L 1697 447 
L 1697 3053 
L 800 3053 
L 800 3500 
z
M 1697 4863 
L 2272 4863 
L 2272 4134 
L 1697 4134 
L 1697 4863 
z
" transform="scale(0.015625)"/>
      <path id="DejaVuSansMono-47" d="M 2681 3053 
L 2681 4863 
L 3256 4863 
L 3256 0 
L 2681 0 
L 2681 441 
Q 2538 181 2298 45 
Q 2059 -91 1747 -91 
Q 1113 -91 748 401 
Q 384 894 384 1759 
Q 384 2613 750 3098 
Q 1116 3584 1747 3584 
Q 2063 3584 2303 3448 
Q 2544 3313 2681 3053 
z
M 991 1747 
Q 991 1078 1203 737 
Q 1416 397 1831 397 
Q 2247 397 2464 740 
Q 2681 1084 2681 1747 
Q 2681 2413 2464 2755 
Q 2247 3097 1831 3097 
Q 1416 3097 1203 2756 
Q 991 2416 991 1747 
z
" transform="scale(0.015625)"/>
      <path id="DejaVuSansMono-44" d="M 2194 1759 
L 2003 1759 
Q 1500 1759 1245 1582 
Q 991 1406 991 1056 
Q 991 741 1181 566 
Q 1372 391 1709 391 
Q 2184 391 2456 720 
Q 2728 1050 2731 1631 
L 2731 1759 
L 2194 1759 
z
M 3309 1997 
L 3309 0 
L 2731 0 
L 2731 519 
Q 2547 206 2267 57 
Q 1988 -91 1588 -91 
Q 1053 -91 734 211 
Q 416 513 416 1019 
Q 416 1603 808 1906 
Q 1200 2209 1959 2209 
L 2731 2209 
L 2731 2300 
Q 2728 2719 2518 2908 
Q 2309 3097 1850 3097 
Q 1556 3097 1256 3012 
Q 956 2928 672 2766 
L 672 3341 
Q 991 3463 1283 3523 
Q 1575 3584 1850 3584 
Q 2284 3584 2592 3456 
Q 2900 3328 3091 3072 
Q 3209 2916 3259 2686 
Q 3309 2456 3309 1997 
z
" transform="scale(0.015625)"/>
      <path id="DejaVuSansMono-3" transform="scale(0.015625)"/>
      <path id="DejaVuSansMono-14" d="M 844 531 
L 1825 531 
L 1825 4097 
L 769 3859 
L 769 4434 
L 1819 4666 
L 2450 4666 
L 2450 531 
L 3419 531 
L 3419 0 
L 844 0 
L 844 531 
z
" transform="scale(0.015625)"/>
      <path id="DejaVuSansMono-13" d="M 1509 2344 
Q 1509 2516 1629 2641 
Q 1750 2766 1919 2766 
Q 2094 2766 2219 2641 
Q 2344 2516 2344 2344 
Q 2344 2169 2220 2047 
Q 2097 1925 1919 1925 
Q 1744 1925 1626 2044 
Q 1509 2163 1509 2344 
z
M 1925 4250 
Q 1484 4250 1267 3775 
Q 1050 3300 1050 2328 
Q 1050 1359 1267 884 
Q 1484 409 1925 409 
Q 2369 409 2586 884 
Q 2803 1359 2803 2328 
Q 2803 3300 2586 3775 
Q 2369 4250 1925 4250 
z
M 1925 4750 
Q 2672 4750 3055 4137 
Q 3438 3525 3438 2328 
Q 3438 1134 3055 521 
Q 2672 -91 1925 -91 
Q 1178 -91 797 521 
Q 416 1134 416 2328 
Q 416 3525 797 4137 
Q 1178 4750 1925 4750 
z
" transform="scale(0.015625)"/>
      <path id="DejaVuSansMono-718" d="M 0 1978 
L 3853 1978 
L 3853 1538 
L 0 1538 
L 0 1978 
z
" transform="scale(0.015625)"/>
      <path id="DejaVuSansMono-1c" d="M 1863 2069 
Q 2266 2069 2495 2359 
Q 2725 2650 2725 3163 
Q 2725 3675 2495 3965 
Q 2266 4256 1863 4256 
Q 1444 4256 1231 3979 
Q 1019 3703 1019 3163 
Q 1019 2619 1230 2344 
Q 1441 2069 1863 2069 
z
M 738 97 
L 738 678 
Q 934 563 1156 502 
Q 1378 441 1619 441 
Q 2219 441 2526 892 
Q 2834 1344 2834 2222 
Q 2688 1909 2422 1742 
Q 2156 1575 1813 1575 
Q 1138 1575 767 1990 
Q 397 2406 397 3169 
Q 397 3922 776 4336 
Q 1156 4750 1850 4750 
Q 2663 4750 3041 4165 
Q 3419 3581 3419 2328 
Q 3419 1150 2964 529 
Q 2509 -91 1644 -91 
Q 1416 -91 1184 -42 
Q 953 6 738 97 
z
" transform="scale(0.015625)"/>
      <path id="DejaVuSansMono-8" d="M 2175 997 
Q 2175 753 2339 587 
Q 2503 422 2747 422 
Q 2988 422 3155 589 
Q 3322 756 3322 997 
Q 3322 1238 3153 1406 
Q 2984 1575 2747 1575 
Q 2503 1575 2339 1409 
Q 2175 1244 2175 997 
z
M 1753 997 
Q 1753 1419 2040 1708 
Q 2328 1997 2747 1997 
Q 2947 1997 3126 1922 
Q 3306 1847 3450 1703 
Q 3594 1556 3672 1375 
Q 3750 1194 3750 997 
Q 3750 581 3459 290 
Q 3169 0 2747 0 
Q 2322 0 2037 286 
Q 1753 572 1753 997 
z
M 378 1453 
L 269 1753 
L 3525 3059 
L 3653 2759 
L 378 1453 
z
M 525 3475 
Q 525 3228 689 3064 
Q 853 2900 1100 2900 
Q 1341 2900 1509 3067 
Q 1678 3234 1678 3475 
Q 1678 3716 1509 3883 
Q 1341 4050 1100 4050 
Q 859 4050 692 3884 
Q 525 3719 525 3475 
z
M 103 3475 
Q 103 3897 390 4186 
Q 678 4475 1100 4475 
Q 1300 4475 1483 4400 
Q 1666 4325 1806 4184 
Q 1947 4044 2023 3861 
Q 2100 3678 2100 3475 
Q 2100 3056 1809 2767 
Q 1519 2478 1100 2478 
Q 678 2478 390 2765 
Q 103 3053 103 3475 
z
" transform="scale(0.015625)"/>
      <path id="DejaVuSansMono-1d" d="M 1528 3322 
L 2316 3322 
L 2316 2375 
L 1528 2375 
L 1528 3322 
z
M 1528 953 
L 2316 953 
L 2316 0 
L 1528 0 
L 1528 953 
z
" transform="scale(0.015625)"/>
      <path id="DejaVuSansMono-1a" d="M 434 4666 
L 3372 4666 
L 3372 4397 
L 1703 0 
L 1044 0 
L 2669 4134 
L 434 4134 
L 434 4666 
z
" transform="scale(0.015625)"/>
      <path id="DejaVuSansMono-50" d="M 2113 3144 
Q 2219 3369 2383 3476 
Q 2547 3584 2778 3584 
Q 3200 3584 3373 3257 
Q 3547 2931 3547 2028 
L 3547 0 
L 3022 0 
L 3022 2003 
Q 3022 2744 2939 2923 
Q 2856 3103 2638 3103 
Q 2388 3103 2295 2911 
Q 2203 2719 2203 2003 
L 2203 0 
L 1678 0 
L 1678 2003 
Q 1678 2753 1589 2928 
Q 1500 3103 1269 3103 
Q 1041 3103 952 2911 
Q 863 2719 863 2003 
L 863 0 
L 341 0 
L 341 3500 
L 863 3500 
L 863 3200 
Q 966 3388 1120 3486 
Q 1275 3584 1472 3584 
Q 1709 3584 1867 3475 
Q 2025 3366 2113 3144 
z
" transform="scale(0.015625)"/>
     </defs>
     <use xlink:href="#DejaVuSansMono-56"/>
     <use xlink:href="#DejaVuSansMono-58" transform="translate(60.203125 0)"/>
     <use xlink:href="#DejaVuSansMono-45" transform="translate(120.40625 0)"/>
     <use xlink:href="#DejaVuSansMono-4c" transform="translate(180.609375 0)"/>
     <use xlink:href="#DejaVuSansMono-47" transform="translate(240.8125 0)"/>
     <use xlink:href="#DejaVuSansMono-44" transform="translate(301.015625 0)"/>
     <use xlink:href="#DejaVuSansMono-3" transform="translate(361.21875 0)"/>
     <use xlink:href="#DejaVuSansMono-14" transform="translate(421.421875 0)"/>
     <use xlink:href="#DejaVuSansMono-13" transform="translate(481.625 0)"/>
     <use xlink:href="#DejaVuSansMono-718" transform="translate(541.828125 0)"/>
     <use xlink:href="#DejaVuSansMono-1c" transform="translate(602.03125 0)"/>
     <use xlink:href="#DejaVuSansMono-13" transform="translate(662.234375 0)"/>
     <use xlink:href="#DejaVuSansMono-8" transform="translate(722.4375 0)"/>
     <use xlink:href="#DejaVuSansMono-1d" transform="translate(782.640625 0)"/>
     <use xlink:href="#DejaVuSansMono-3" transform="translate(842.84375 0)"/>
     <use xlink:href="#DejaVuSansMono-1a" transform="translate(903.046875 0)"/>
     <use xlink:href="#DejaVuSansMono-14" transform="translate(963.25 0)"/>
     <use xlink:href="#DejaVuSansMono-13" transform="translate(1023.453125 0)"/>
     <use xlink:href="#DejaVuSansMono-3" transform="translate(1083.65625 0)"/>
     <use xlink:href="#DejaVuSansMono-50" transform="translate(1143.859375 0)"/>
     <use xlink:href="#DejaVuSansMono-56" transform="translate(1204.0625 0)"/>
    </g>
    <!-- sobressinal: 0.0% -->
    <g transform="translate(58.623073 293.827131) scale(0.08 -0.08)">
     <defs>
      <path id="DejaVuSansMono-52" d="M 1925 3097 
Q 1488 3097 1263 2756 
Q 1038 2416 1038 1747 
Q 1038 1081 1263 739 
Q 1488 397 1925 397 
Q 2366 397 2591 739 
Q 2816 1081 2816 1747 
Q 2816 2416 2591 2756 
Q 2366 3097 1925 3097 
z
M 1925 3584 
Q 2653 3584 3039 3112 
Q 3425 2641 3425 1747 
Q 3425 850 3040 379 
Q 2656 -91 1925 -91 
Q 1197 -91 812 379 
Q 428 850 428 1747 
Q 428 2641 812 3112 
Q 1197 3584 1925 3584 
z
" transform="scale(0.015625)"/>
      <path id="DejaVuSansMono-55" d="M 3609 2778 
Q 3425 2922 3234 2987 
Q 3044 3053 2816 3053 
Q 2278 3053 1993 2715 
Q 1709 2378 1709 1741 
L 1709 0 
L 1131 0 
L 1131 3500 
L 1709 3500 
L 1709 2816 
Q 1853 3188 2151 3386 
Q 2450 3584 2859 3584 
Q 3072 3584 3256 3531 
Q 3441 3478 3609 3366 
L 3609 2778 
z
" transform="scale(0.015625)"/>
      <path id="DejaVuSansMono-48" d="M 3475 1894 
L 3475 1613 
L 984 1613 
L 984 1594 
Q 984 1022 1282 709 
Q 1581 397 2125 397 
Q 2400 397 2700 484 
Q 3000 572 3341 750 
L 3341 178 
Q 3013 44 2708 -23 
Q 2403 -91 2119 -91 
Q 1303 -91 843 398 
Q 384 888 384 1747 
Q 384 2584 834 3084 
Q 1284 3584 2034 3584 
Q 2703 3584 3089 3131 
Q 3475 2678 3475 1894 
z
M 2900 2063 
Q 2888 2569 2661 2833 
Q 2434 3097 2009 3097 
Q 1594 3097 1325 2822 
Q 1056 2547 1006 2059 
L 2900 2063 
z
" transform="scale(0.015625)"/>
      <path id="DejaVuSansMono-51" d="M 3284 2169 
L 3284 0 
L 2706 0 
L 2706 2169 
Q 2706 2641 2540 2862 
Q 2375 3084 2022 3084 
Q 1619 3084 1401 2798 
Q 1184 2513 1184 1978 
L 1184 0 
L 609 0 
L 609 3500 
L 1184 3500 
L 1184 2975 
Q 1338 3275 1600 3429 
Q 1863 3584 2222 3584 
Q 2756 3584 3020 3232 
Q 3284 2881 3284 2169 
z
" transform="scale(0.015625)"/>
      <path id="DejaVuSansMono-4f" d="M 1997 1269 
Q 1997 881 2139 684 
Q 2281 488 2559 488 
L 3231 488 
L 3231 0 
L 2503 0 
Q 1988 0 1705 331 
Q 1422 663 1422 1269 
L 1422 4447 
L 500 4447 
L 500 4897 
L 1997 4897 
L 1997 1269 
z
" transform="scale(0.015625)"/>
      <path id="DejaVuSansMono-11" d="M 1528 953 
L 2316 953 
L 2316 0 
L 1528 0 
L 1528 953 
z
" transform="scale(0.015625)"/>
     </defs>
     <use xlink:href="#DejaVuSansMono-56"/>
     <use xlink:href="#DejaVuSansMono-52" transform="translate(60.203125 0)"/>
     <use xlink:href="#DejaVuSansMono-45" transform="translate(120.40625 0)"/>
     <use xlink:href="#DejaVuSansMono-55" transform="translate(180.609375 0)"/>
     <use xlink:href="#DejaVuSansMono-48" transform="translate(240.8125 0)"/>
     <use xlink:href="#DejaVuSansMono-56" transform="translate(301.015625 0)"/>
     <use xlink:href="#DejaVuSansMono-56" transform="translate(361.21875 0)"/>
     <use xlink:href="#DejaVuSansMono-4c" transform="translate(421.421875 0)"/>
     <use xlink:href="#DejaVuSansMono-51" transform="translate(481.625 0)"/>
     <use xlink:href="#DejaVuSansMono-44" transform="translate(541.828125 0)"/>
     <use xlink:href="#DejaVuSansMono-4f" transform="translate(602.03125 0)"/>
     <use xlink:href="#DejaVuSansMono-1d" transform="translate(662.234375 0)"/>
     <use xlink:href="#DejaVuSansMono-3" transform="translate(722.4375 0)"/>
     <use xlink:href="#DejaVuSansMono-13" transform="translate(782.640625 0)"/>
     <use xlink:href="#DejaVuSansMono-11" transform="translate(842.84375 0)"/>
     <use xlink:href="#DejaVuSansMono-13" transform="translate(903.046875 0)"/>
     <use xlink:href="#DejaVuSansMono-8" transform="translate(963.25 0)"/>
    </g>
    <!-- assent. ±2%: 913 ms -->
    <g transform="translate(58.623073 303.428694) scale(0.08 -0.08)">
     <defs>
      <path id="DejaVuSansMono-57" d="M 1919 4494 
L 1919 3500 
L 3225 3500 
L 3225 3053 
L 1919 3053 
L 1919 1153 
Q 1919 766 2066 612 
Q 2213 459 2578 459 
L 3225 459 
L 3225 0 
L 2522 0 
Q 1875 0 1609 259 
Q 1344 519 1344 1153 
L 1344 3053 
L 409 3053 
L 409 3500 
L 1344 3500 
L 1344 4494 
L 1919 4494 
z
" transform="scale(0.015625)"/>
      <path id="DejaVuSansMono-73" d="M 275 531 
L 3578 531 
L 3578 0 
L 275 0 
L 275 531 
z
M 2188 3659 
L 2188 2631 
L 3578 2631 
L 3578 2100 
L 2188 2100 
L 2188 1063 
L 1663 1063 
L 1663 2100 
L 275 2100 
L 275 2631 
L 1663 2631 
L 1663 3659 
L 2188 3659 
z
" transform="scale(0.015625)"/>
      <path id="DejaVuSansMono-15" d="M 1166 531 
L 3309 531 
L 3309 0 
L 475 0 
L 475 531 
Q 1059 1147 1496 1619 
Q 1934 2091 2100 2284 
Q 2413 2666 2522 2902 
Q 2631 3138 2631 3384 
Q 2631 3775 2401 3997 
Q 2172 4219 1772 4219 
Q 1488 4219 1175 4116 
Q 863 4013 513 3803 
L 513 4441 
Q 834 4594 1145 4672 
Q 1456 4750 1759 4750 
Q 2444 4750 2861 4386 
Q 3278 4022 3278 3431 
Q 3278 3131 3139 2831 
Q 3000 2531 2688 2169 
Q 2513 1966 2180 1606 
Q 1847 1247 1166 531 
z
" transform="scale(0.015625)"/>
      <path id="DejaVuSansMono-16" d="M 2425 2497 
Q 2884 2375 3128 2064 
Q 3372 1753 3372 1288 
Q 3372 644 2939 276 
Q 2506 -91 1741 -91 
Q 1419 -91 1084 -31 
Q 750 28 428 141 
L 428 769 
Q 747 603 1056 522 
Q 1366 441 1672 441 
Q 2191 441 2469 675 
Q 2747 909 2747 1350 
Q 2747 1756 2469 1995 
Q 2191 2234 1716 2234 
L 1234 2234 
L 1234 2753 
L 1716 2753 
Q 2150 2753 2394 2943 
Q 2638 3134 2638 3475 
Q 2638 3834 2411 4026 
Q 2184 4219 1766 4219 
Q 1488 4219 1191 4156 
Q 894 4094 569 3969 
L 569 4550 
Q 947 4650 1242 4700 
Q 1538 4750 1766 4750 
Q 2447 4750 2855 4408 
Q 3263 4066 3263 3500 
Q 3263 3116 3048 2859 
Q 2834 2603 2425 2497 
z
" transform="scale(0.015625)"/>
     </defs>
     <use xlink:href="#DejaVuSansMono-44"/>
     <use xlink:href="#DejaVuSansMono-56" transform="translate(60.203125 0)"/>
     <use xlink:href="#DejaVuSansMono-56" transform="translate(120.40625 0)"/>
     <use xlink:href="#DejaVuSansMono-48" transform="translate(180.609375 0)"/>
     <use xlink:href="#DejaVuSansMono-51" transform="translate(240.8125 0)"/>
     <use xlink:href="#DejaVuSansMono-57" transform="translate(301.015625 0)"/>
     <use xlink:href="#DejaVuSansMono-11" transform="translate(361.21875 0)"/>
     <use xlink:href="#DejaVuSansMono-3" transform="translate(421.421875 0)"/>
     <use xlink:href="#DejaVuSansMono-73" transform="translate(481.625 0)"/>
     <use xlink:href="#DejaVuSansMono-15" transform="translate(541.828125 0)"/>
     <use xlink:href="#DejaVuSansMono-8" transform="translate(602.03125 0)"/>
     <use xlink:href="#DejaVuSansMono-1d" transform="translate(662.234375 0)"/>
     <use xlink:href="#DejaVuSansMono-3" transform="translate(722.4375 0)"/>
     <use xlink:href="#DejaVuSansMono-1c" transform="translate(782.640625 0)"/>
     <use xlink:href="#DejaVuSansMono-14" transform="translate(842.84375 0)"/>
     <use xlink:href="#DejaVuSansMono-16" transform="translate(903.046875 0)"/>
     <use xlink:href="#DejaVuSansMono-3" transform="translate(963.25 0)"/>
     <use xlink:href="#DejaVuSansMono-50" transform="translate(1023.453125 0)"/>
     <use xlink:href="#DejaVuSansMono-56" transform="translate(1083.65625 0)"/>
    </g>
   </g>
   <g id="text_19">
    <!-- ESP32 (QEMU) — J1: PID+tanh (malha fechada) -->
    <g transform="translate(117.958672 18.72) scale(0.1 -0.1)">
     <defs>
      <path id="DejaVuSans-28" d="M 628 4666 
L 3578 4666 
L 3578 4134 
L 1259 4134 
L 1259 2753 
L 3481 2753 
L 3481 2222 
L 1259 2222 
L 1259 531 
L 3634 531 
L 3634 0 
L 628 0 
L 628 4666 
z
" transform="scale(0.015625)"/>
      <path id="DejaVuSans-36" d="M 3425 4513 
L 3425 3897 
Q 3066 4069 2747 4153 
Q 2428 4238 2131 4238 
Q 1616 4238 1336 4038 
Q 1056 3838 1056 3469 
Q 1056 3159 1242 3001 
Q 1428 2844 1947 2747 
L 2328 2669 
Q 3034 2534 3370 2195 
Q 3706 1856 3706 1288 
Q 3706 609 3251 259 
Q 2797 -91 1919 -91 
Q 1588 -91 1214 -16 
Q 841 59 441 206 
L 441 856 
Q 825 641 1194 531 
Q 1563 422 1919 422 
Q 2459 422 2753 634 
Q 3047 847 3047 1241 
Q 3047 1584 2836 1778 
Q 2625 1972 2144 2069 
L 1759 2144 
Q 1053 2284 737 2584 
Q 422 2884 422 3419 
Q 422 4038 858 4394 
Q 1294 4750 2059 4750 
Q 2388 4750 2728 4690 
Q 3069 4631 3425 4513 
z
" transform="scale(0.015625)"/>
      <path id="DejaVuSans-33" d="M 1259 4147 
L 1259 2394 
L 2053 2394 
Q 2494 2394 2734 2622 
Q 2975 2850 2975 3272 
Q 2975 3691 2734 3919 
Q 2494 4147 2053 4147 
L 1259 4147 
z
M 628 4666 
L 2053 4666 
Q 2838 4666 3239 4311 
Q 3641 3956 3641 3272 
Q 3641 2581 3239 2228 
Q 2838 1875 2053 1875 
L 1259 1875 
L 1259 0 
L 628 0 
L 628 4666 
z
" transform="scale(0.015625)"/>
      <path id="DejaVuSans-34" d="M 2522 4238 
Q 1834 4238 1429 3725 
Q 1025 3213 1025 2328 
Q 1025 1447 1429 934 
Q 1834 422 2522 422 
Q 3209 422 3611 934 
Q 4013 1447 4013 2328 
Q 4013 3213 3611 3725 
Q 3209 4238 2522 4238 
z
M 3406 84 
L 4238 -825 
L 3475 -825 
L 2784 -78 
Q 2681 -84 2626 -87 
Q 2572 -91 2522 -91 
Q 1538 -91 948 567 
Q 359 1225 359 2328 
Q 359 3434 948 4092 
Q 1538 4750 2522 4750 
Q 3503 4750 4090 4092 
Q 4678 3434 4678 2328 
Q 4678 1516 4351 937 
Q 4025 359 3406 84 
z
" transform="scale(0.015625)"/>
      <path id="DejaVuSans-30" d="M 628 4666 
L 1569 4666 
L 2759 1491 
L 3956 4666 
L 4897 4666 
L 4897 0 
L 4281 0 
L 4281 4097 
L 3078 897 
L 2444 897 
L 1241 4097 
L 1241 0 
L 628 0 
L 628 4666 
z
" transform="scale(0.015625)"/>
      <path id="DejaVuSans-38" d="M 556 4666 
L 1191 4666 
L 1191 1831 
Q 1191 1081 1462 751 
Q 1734 422 2344 422 
Q 2950 422 3222 751 
Q 3494 1081 3494 1831 
L 3494 4666 
L 4128 4666 
L 4128 1753 
Q 4128 841 3676 375 
Q 3225 -91 2344 -91 
Q 1459 -91 1007 375 
Q 556 841 556 1753 
L 556 4666 
z
" transform="scale(0.015625)"/>
      <path id="DejaVuSans-af6" d="M 313 1978 
L 6088 1978 
L 6088 1528 
L 313 1528 
L 313 1978 
z
" transform="scale(0.015625)"/>
      <path id="DejaVuSans-2d" d="M 628 4666 
L 1259 4666 
L 1259 325 
Q 1259 -519 939 -900 
Q 619 -1281 -91 -1281 
L -331 -1281 
L -331 -750 
L -134 -750 
Q 284 -750 456 -515 
Q 628 -281 628 325 
L 628 4666 
z
" transform="scale(0.015625)"/>
      <path id="DejaVuSans-1d" d="M 750 794 
L 1409 794 
L 1409 0 
L 750 0 
L 750 794 
z
M 750 3309 
L 1409 3309 
L 1409 2516 
L 750 2516 
L 750 3309 
z
" transform="scale(0.015625)"/>
      <path id="DejaVuSans-2c" d="M 628 4666 
L 1259 4666 
L 1259 0 
L 628 0 
L 628 4666 
z
" transform="scale(0.015625)"/>
      <path id="DejaVuSans-27" d="M 1259 4147 
L 1259 519 
L 2022 519 
Q 2988 519 3436 956 
Q 3884 1394 3884 2338 
Q 3884 3275 3436 3711 
Q 2988 4147 2022 4147 
L 1259 4147 
z
M 628 4666 
L 1925 4666 
Q 3281 4666 3915 4102 
Q 4550 3538 4550 2338 
Q 4550 1131 3912 565 
Q 3275 0 1925 0 
L 628 0 
L 628 4666 
z
" transform="scale(0.015625)"/>
      <path id="DejaVuSans-e" d="M 2944 4013 
L 2944 2272 
L 4684 2272 
L 4684 1741 
L 2944 1741 
L 2944 0 
L 2419 0 
L 2419 1741 
L 678 1741 
L 678 2272 
L 2419 2272 
L 2419 4013 
L 2944 4013 
z
" transform="scale(0.015625)"/>
      <path id="DejaVuSans-44" d="M 2194 1759 
Q 1497 1759 1228 1600 
Q 959 1441 959 1056 
Q 959 750 1161 570 
Q 1363 391 1709 391 
Q 2188 391 2477 730 
Q 2766 1069 2766 1631 
L 2766 1759 
L 2194 1759 
z
M 3341 1997 
L 3341 0 
L 2766 0 
L 2766 531 
Q 2569 213 2275 61 
Q 1981 -91 1556 -91 
Q 1019 -91 701 211 
Q 384 513 384 1019 
Q 384 1609 779 1909 
Q 1175 2209 1959 2209 
L 2766 2209 
L 2766 2266 
Q 2766 2663 2505 2880 
Q 2244 3097 1772 3097 
Q 1472 3097 1187 3025 
Q 903 2953 641 2809 
L 641 3341 
Q 956 3463 1253 3523 
Q 1550 3584 1831 3584 
Q 2591 3584 2966 3190 
Q 3341 2797 3341 1997 
z
" transform="scale(0.015625)"/>
      <path id="DejaVuSans-4b" d="M 3513 2113 
L 3513 0 
L 2938 0 
L 2938 2094 
Q 2938 2591 2744 2837 
Q 2550 3084 2163 3084 
Q 1697 3084 1428 2787 
Q 1159 2491 1159 1978 
L 1159 0 
L 581 0 
L 581 4863 
L 1159 4863 
L 1159 2956 
Q 1366 3272 1645 3428 
Q 1925 3584 2291 3584 
Q 2894 3584 3203 3211 
Q 3513 2838 3513 2113 
z
" transform="scale(0.015625)"/>
      <path id="DejaVuSans-49" d="M 2375 4863 
L 2375 4384 
L 1825 4384 
Q 1516 4384 1395 4259 
Q 1275 4134 1275 3809 
L 1275 3500 
L 2222 3500 
L 2222 3053 
L 1275 3053 
L 1275 0 
L 697 0 
L 697 3053 
L 147 3053 
L 147 3500 
L 697 3500 
L 697 3744 
Q 697 4328 969 4595 
Q 1241 4863 1831 4863 
L 2375 4863 
z
" transform="scale(0.015625)"/>
     </defs>
     <use xlink:href="#DejaVuSans-28"/>
     <use xlink:href="#DejaVuSans-36" transform="translate(63.1875 0)"/>
     <use xlink:href="#DejaVuSans-33" transform="translate(126.671875 0)"/>
     <use xlink:href="#DejaVuSans-16" transform="translate(186.96875 0)"/>
     <use xlink:href="#DejaVuSans-15" transform="translate(250.59375 0)"/>
     <use xlink:href="#DejaVuSans-3" transform="translate(314.21875 0)"/>
     <use xlink:href="#DejaVuSans-b" transform="translate(346 0)"/>
     <use xlink:href="#DejaVuSans-34" transform="translate(385.015625 0)"/>
     <use xlink:href="#DejaVuSans-28" transform="translate(463.734375 0)"/>
     <use xlink:href="#DejaVuSans-30" transform="translate(526.921875 0)"/>
     <use xlink:href="#DejaVuSans-38" transform="translate(613.203125 0)"/>
     <use xlink:href="#DejaVuSans-c" transform="translate(686.390625 0)"/>
     <use xlink:href="#DejaVuSans-3" transform="translate(725.40625 0)"/>
     <use xlink:href="#DejaVuSans-af6" transform="translate(757.1875 0)"/>
     <use xlink:href="#DejaVuSans-3" transform="translate(857.1875 0)"/>
     <use xlink:href="#DejaVuSans-2d" transform="translate(888.96875 0)"/>
     <use xlink:href="#DejaVuSans-14" transform="translate(918.46875 0)"/>
     <use xlink:href="#DejaVuSans-1d" transform="translate(982.09375 0)"/>
     <use xlink:href="#DejaVuSans-3" transform="translate(1015.78125 0)"/>
     <use xlink:href="#DejaVuSans-33" transform="translate(1047.5625 0)"/>
     <use xlink:href="#DejaVuSans-2c" transform="translate(1107.859375 0)"/>
     <use xlink:href="#DejaVuSans-27" transform="translate(1137.359375 0)"/>
     <use xlink:href="#DejaVuSans-e" transform="translate(1214.359375 0)"/>
     <use xlink:href="#DejaVuSans-57" transform="translate(1298.15625 0)"/>
     <use xlink:href="#DejaVuSans-44" transform="translate(1337.359375 0)"/>
     <use xlink:href="#DejaVuSans-51" transform="translate(1398.640625 0)"/>
     <use xlink:href="#DejaVuSans-4b" transform="translate(1462.015625 0)"/>
     <use xlink:href="#DejaVuSans-3" transform="translate(1525.390625 0)"/>
     <use xlink:href="#DejaVuSans-b" transform="translate(1557.171875 0)"/>
     <use xlink:href="#DejaVuSans-50" transform="translate(1596.1875 0)"/>
     <use xlink:href="#DejaVuSans-44" transform="translate(1693.59375 0)"/>
     <use xlink:href="#DejaVuSans-4f" transform="translate(1754.875 0)"/>
     <use xlink:href="#DejaVuSans-4b" transform="translate(1782.65625 0)"/>
     <use xlink:href="#DejaVuSans-44" transform="translate(1846.03125 0)"/>
     <use xlink:href="#DejaVuSans-3" transform="translate(1907.3125 0)"/>
     <use xlink:href="#DejaVuSans-49" transform="translate(1939.09375 0)"/>
     <use xlink:href="#DejaVuSans-48" transform="translate(1974.296875 0)"/>
     <use xlink:href="#DejaVuSans-46" transform="translate(2035.828125 0)"/>
     <use xlink:href="#DejaVuSans-4b" transform="translate(2090.8125 0)"/>
     <use xlink:href="#DejaVuSans-44" transform="translate(2154.1875 0)"/>
     <use xlink:href="#DejaVuSans-47" transform="translate(2215.46875 0)"/>
     <use xlink:href="#DejaVuSans-44" transform="translate(2278.953125 0)"/>
     <use xlink:href="#DejaVuSans-c" transform="translate(2340.234375 0)"/>
    </g>
   </g>
   <g id="legend_1">
    <g id="patch_7">
     <path d="M 355.4175 184.499453 
L 421 184.499453 
Q 422.6 184.499453 422.6 182.899453 
L 422.6 159.698203 
Q 422.6 158.098203 421 158.098203 
L 355.4175 158.098203 
Q 353.8175 158.098203 353.8175 159.698203 
L 353.8175 182.899453 
Q 353.8175 184.499453 355.4175 184.499453 
z
" style="fill: #ffffff; opacity: 0.8; stroke: #cccccc; stroke-linejoin: miter"/>
    </g>
    <g id="line2d_33">
     <path d="M 357.0175 164.576953 
L 365.0175 164.576953 
L 373.0175 164.576953 
" style="fill: none; stroke-dasharray: 5.18,2.24; stroke-dashoffset: 0; stroke: #9ca3af; stroke-width: 1.4"/>
    </g>
    <g id="text_20">
     <!-- Comando -->
     <g transform="translate(379.4175 167.376953) scale(0.08 -0.08)">
      <defs>
       <path id="DejaVuSans-26" d="M 4122 4306 
L 4122 3641 
Q 3803 3938 3442 4084 
Q 3081 4231 2675 4231 
Q 1875 4231 1450 3742 
Q 1025 3253 1025 2328 
Q 1025 1406 1450 917 
Q 1875 428 2675 428 
Q 3081 428 3442 575 
Q 3803 722 4122 1019 
L 4122 359 
Q 3791 134 3420 21 
Q 3050 -91 2638 -91 
Q 1578 -91 968 557 
Q 359 1206 359 2328 
Q 359 3453 968 4101 
Q 1578 4750 2638 4750 
Q 3056 4750 3426 4639 
Q 3797 4528 4122 4306 
z
" transform="scale(0.015625)"/>
      </defs>
      <use xlink:href="#DejaVuSans-26"/>
      <use xlink:href="#DejaVuSans-52" transform="translate(69.828125 0)"/>
      <use xlink:href="#DejaVuSans-50" transform="translate(131.015625 0)"/>
      <use xlink:href="#DejaVuSans-44" transform="translate(228.421875 0)"/>
      <use xlink:href="#DejaVuSans-51" transform="translate(289.703125 0)"/>
      <use xlink:href="#DejaVuSans-47" transform="translate(353.078125 0)"/>
      <use xlink:href="#DejaVuSans-52" transform="translate(416.5625 0)"/>
     </g>
    </g>
    <g id="line2d_34">
     <path d="M 357.0175 176.577578 
L 365.0175 176.577578 
L 373.0175 176.577578 
" style="fill: none; stroke: #2563eb; stroke-width: 1.8; stroke-linecap: square"/>
    </g>
    <g id="text_21">
     <!-- J1 medido -->
     <g transform="translate(379.4175 179.377578) scale(0.08 -0.08)">
      <use xlink:href="#DejaVuSans-2d"/>
      <use xlink:href="#DejaVuSans-14" transform="translate(29.5 0)"/>
      <use xlink:href="#DejaVuSans-3" transform="translate(93.125 0)"/>
      <use xlink:href="#DejaVuSans-50" transform="translate(124.90625 0)"/>
      <use xlink:href="#DejaVuSans-48" transform="translate(222.3125 0)"/>
      <use xlink:href="#DejaVuSans-47" transform="translate(283.84375 0)"/>
      <use xlink:href="#DejaVuSans-4c" transform="translate(347.328125 0)"/>
      <use xlink:href="#DejaVuSans-47" transform="translate(375.109375 0)"/>
      <use xlink:href="#DejaVuSans-52" transform="translate(438.59375 0)"/>
     </g>
    </g>
   </g>
  </g>
  <g id="axes_2">
   <g id="patch_8">
    <path d="M 473.842344 317.877656 
L 853.2 317.877656 
L 853.2 24.72 
L 473.842344 24.72 
z
" style="fill: #ffffff"/>
   </g>
   <g id="matplotlib.axis_3">
    <g id="xtick_9">
     <g id="line2d_35">
      <path d="M 516.536726 317.877656 
L 516.536726 24.72 
" clip-path="url(#p6a60c24923)" style="fill: none; stroke: #b0b0b0; stroke-opacity: 0.3; stroke-width: 0.5; stroke-linecap: square"/>
     </g>
     <g id="line2d_36">
      <g>
       <use xlink:href="#ma9caaa112a" x="516.536726" y="317.877656" style="stroke: #000000; stroke-width: 0.8"/>
      </g>
     </g>
     <g id="text_22">
      <!-- 0.0 -->
      <g transform="translate(508.585164 332.475312) scale(0.1 -0.1)">
       <use xlink:href="#DejaVuSans-13"/>
       <use xlink:href="#DejaVuSans-11" transform="translate(63.625 0)"/>
       <use xlink:href="#DejaVuSans-13" transform="translate(95.40625 0)"/>
      </g>
     </g>
    </g>
    <g id="xtick_10">
     <g id="line2d_37">
      <path d="M 562.227139 317.877656 
L 562.227139 24.72 
" clip-path="url(#p6a60c24923)" style="fill: none; stroke: #b0b0b0; stroke-opacity: 0.3; stroke-width: 0.5; stroke-linecap: square"/>
     </g>
     <g id="line2d_38">
      <g>
       <use xlink:href="#ma9caaa112a" x="562.227139" y="317.877656" style="stroke: #000000; stroke-width: 0.8"/>
      </g>
     </g>
     <g id="text_23">
      <!-- 0.5 -->
      <g transform="translate(554.275576 332.475312) scale(0.1 -0.1)">
       <use xlink:href="#DejaVuSans-13"/>
       <use xlink:href="#DejaVuSans-11" transform="translate(63.625 0)"/>
       <use xlink:href="#DejaVuSans-18" transform="translate(95.40625 0)"/>
      </g>
     </g>
    </g>
    <g id="xtick_11">
     <g id="line2d_39">
      <path d="M 607.917552 317.877656 
L 607.917552 24.72 
" clip-path="url(#p6a60c24923)" style="fill: none; stroke: #b0b0b0; stroke-opacity: 0.3; stroke-width: 0.5; stroke-linecap: square"/>
     </g>
     <g id="line2d_40">
      <g>
       <use xlink:href="#ma9caaa112a" x="607.917552" y="317.877656" style="stroke: #000000; stroke-width: 0.8"/>
      </g>
     </g>
     <g id="text_24">
      <!-- 1.0 -->
      <g transform="translate(599.965989 332.475312) scale(0.1 -0.1)">
       <use xlink:href="#DejaVuSans-14"/>
       <use xlink:href="#DejaVuSans-11" transform="translate(63.625 0)"/>
       <use xlink:href="#DejaVuSans-13" transform="translate(95.40625 0)"/>
      </g>
     </g>
    </g>
    <g id="xtick_12">
     <g id="line2d_41">
      <path d="M 653.607964 317.877656 
L 653.607964 24.72 
" clip-path="url(#p6a60c24923)" style="fill: none; stroke: #b0b0b0; stroke-opacity: 0.3; stroke-width: 0.5; stroke-linecap: square"/>
     </g>
     <g id="line2d_42">
      <g>
       <use xlink:href="#ma9caaa112a" x="653.607964" y="317.877656" style="stroke: #000000; stroke-width: 0.8"/>
      </g>
     </g>
     <g id="text_25">
      <!-- 1.5 -->
      <g transform="translate(645.656402 332.475312) scale(0.1 -0.1)">
       <use xlink:href="#DejaVuSans-14"/>
       <use xlink:href="#DejaVuSans-11" transform="translate(63.625 0)"/>
       <use xlink:href="#DejaVuSans-18" transform="translate(95.40625 0)"/>
      </g>
     </g>
    </g>
    <g id="xtick_13">
     <g id="line2d_43">
      <path d="M 699.298377 317.877656 
L 699.298377 24.72 
" clip-path="url(#p6a60c24923)" style="fill: none; stroke: #b0b0b0; stroke-opacity: 0.3; stroke-width: 0.5; stroke-linecap: square"/>
     </g>
     <g id="line2d_44">
      <g>
       <use xlink:href="#ma9caaa112a" x="699.298377" y="317.877656" style="stroke: #000000; stroke-width: 0.8"/>
      </g>
     </g>
     <g id="text_26">
      <!-- 2.0 -->
      <g transform="translate(691.346814 332.475312) scale(0.1 -0.1)">
       <use xlink:href="#DejaVuSans-15"/>
       <use xlink:href="#DejaVuSans-11" transform="translate(63.625 0)"/>
       <use xlink:href="#DejaVuSans-13" transform="translate(95.40625 0)"/>
      </g>
     </g>
    </g>
    <g id="xtick_14">
     <g id="line2d_45">
      <path d="M 744.98879 317.877656 
L 744.98879 24.72 
" clip-path="url(#p6a60c24923)" style="fill: none; stroke: #b0b0b0; stroke-opacity: 0.3; stroke-width: 0.5; stroke-linecap: square"/>
     </g>
     <g id="line2d_46">
      <g>
       <use xlink:href="#ma9caaa112a" x="744.98879" y="317.877656" style="stroke: #000000; stroke-width: 0.8"/>
      </g>
     </g>
     <g id="text_27">
      <!-- 2.5 -->
      <g transform="translate(737.037227 332.475312) scale(0.1 -0.1)">
       <use xlink:href="#DejaVuSans-15"/>
       <use xlink:href="#DejaVuSans-11" transform="translate(63.625 0)"/>
       <use xlink:href="#DejaVuSans-18" transform="translate(95.40625 0)"/>
      </g>
     </g>
    </g>
    <g id="xtick_15">
     <g id="line2d_47">
      <path d="M 790.679202 317.877656 
L 790.679202 24.72 
" clip-path="url(#p6a60c24923)" style="fill: none; stroke: #b0b0b0; stroke-opacity: 0.3; stroke-width: 0.5; stroke-linecap: square"/>
     </g>
     <g id="line2d_48">
      <g>
       <use xlink:href="#ma9caaa112a" x="790.679202" y="317.877656" style="stroke: #000000; stroke-width: 0.8"/>
      </g>
     </g>
     <g id="text_28">
      <!-- 3.0 -->
      <g transform="translate(782.72764 332.475312) scale(0.1 -0.1)">
       <use xlink:href="#DejaVuSans-16"/>
       <use xlink:href="#DejaVuSans-11" transform="translate(63.625 0)"/>
       <use xlink:href="#DejaVuSans-13" transform="translate(95.40625 0)"/>
      </g>
     </g>
    </g>
    <g id="xtick_16">
     <g id="line2d_49">
      <path d="M 836.369615 317.877656 
L 836.369615 24.72 
" clip-path="url(#p6a60c24923)" style="fill: none; stroke: #b0b0b0; stroke-opacity: 0.3; stroke-width: 0.5; stroke-linecap: square"/>
     </g>
     <g id="line2d_50">
      <g>
       <use xlink:href="#ma9caaa112a" x="836.369615" y="317.877656" style="stroke: #000000; stroke-width: 0.8"/>
      </g>
     </g>
     <g id="text_29">
      <!-- 3.5 -->
      <g transform="translate(828.418052 332.475312) scale(0.1 -0.1)">
       <use xlink:href="#DejaVuSans-16"/>
       <use xlink:href="#DejaVuSans-11" transform="translate(63.625 0)"/>
       <use xlink:href="#DejaVuSans-18" transform="translate(95.40625 0)"/>
      </g>
     </g>
    </g>
    <g id="text_30">
     <!-- Tempo desde o início do movimento (s) -->
     <g transform="translate(565.138359 346.876094) scale(0.1 -0.1)">
      <use xlink:href="#DejaVuSans-37"/>
      <use xlink:href="#DejaVuSans-48" transform="translate(44.09375 0)"/>
      <use xlink:href="#DejaVuSans-50" transform="translate(105.625 0)"/>
      <use xlink:href="#DejaVuSans-53" transform="translate(203.03125 0)"/>
      <use xlink:href="#DejaVuSans-52" transform="translate(266.515625 0)"/>
      <use xlink:href="#DejaVuSans-3" transform="translate(327.703125 0)"/>
      <use xlink:href="#DejaVuSans-47" transform="translate(359.484375 0)"/>
      <use xlink:href="#DejaVuSans-48" transform="translate(422.96875 0)"/>
      <use xlink:href="#DejaVuSans-56" transform="translate(484.5 0)"/>
      <use xlink:href="#DejaVuSans-47" transform="translate(536.59375 0)"/>
      <use xlink:href="#DejaVuSans-48" transform="translate(600.078125 0)"/>
      <use xlink:href="#DejaVuSans-3" transform="translate(661.609375 0)"/>
      <use xlink:href="#DejaVuSans-52" transform="translate(693.390625 0)"/>
      <use xlink:href="#DejaVuSans-3" transform="translate(754.578125 0)"/>
      <use xlink:href="#DejaVuSans-4c" transform="translate(786.359375 0)"/>
      <use xlink:href="#DejaVuSans-51" transform="translate(814.140625 0)"/>
      <use xlink:href="#DejaVuSans-af" transform="translate(877.515625 0)"/>
      <use xlink:href="#DejaVuSans-46" transform="translate(905.296875 0)"/>
      <use xlink:href="#DejaVuSans-4c" transform="translate(960.28125 0)"/>
      <use xlink:href="#DejaVuSans-52" transform="translate(988.0625 0)"/>
      <use xlink:href="#DejaVuSans-3" transform="translate(1049.25 0)"/>
      <use xlink:href="#DejaVuSans-47" transform="translate(1081.03125 0)"/>
      <use xlink:href="#DejaVuSans-52" transform="translate(1144.515625 0)"/>
      <use xlink:href="#DejaVuSans-3" transform="translate(1205.703125 0)"/>
      <use xlink:href="#DejaVuSans-50" transform="translate(1237.484375 0)"/>
      <use xlink:href="#DejaVuSans-52" transform="translate(1334.890625 0)"/>
      <use xlink:href="#DejaVuSans-59" transform="translate(1396.078125 0)"/>
      <use xlink:href="#DejaVuSans-4c" transform="translate(1455.265625 0)"/>
      <use xlink:href="#DejaVuSans-50" transform="translate(1483.046875 0)"/>
      <use xlink:href="#DejaVuSans-48" transform="translate(1580.453125 0)"/>
      <use xlink:href="#DejaVuSans-51" transform="translate(1641.984375 0)"/>
      <use xlink:href="#DejaVuSans-57" transform="translate(1705.359375 0)"/>
      <use xlink:href="#DejaVuSans-52" transform="translate(1744.5625 0)"/>
      <use xlink:href="#DejaVuSans-3" transform="translate(1805.75 0)"/>
      <use xlink:href="#DejaVuSans-b" transform="translate(1837.53125 0)"/>
      <use xlink:href="#DejaVuSans-56" transform="translate(1876.546875 0)"/>
      <use xlink:href="#DejaVuSans-c" transform="translate(1928.640625 0)"/>
     </g>
    </g>
   </g>
   <g id="matplotlib.axis_4">
    <g id="ytick_8">
     <g id="line2d_51">
      <path d="M 473.842344 304.552308 
L 853.2 304.552308 
" clip-path="url(#p6a60c24923)" style="fill: none; stroke: #b0b0b0; stroke-opacity: 0.3; stroke-width: 0.5; stroke-linecap: square"/>
     </g>
     <g id="line2d_52">
      <g>
       <use xlink:href="#m1136875630" x="473.842344" y="304.552308" style="stroke: #000000; stroke-width: 0.8"/>
      </g>
     </g>
     <g id="text_31">
      <!-- 0 -->
      <g transform="translate(460.479844 308.351136) scale(0.1 -0.1)">
       <use xlink:href="#DejaVuSans-13"/>
      </g>
     </g>
    </g>
    <g id="ytick_9">
     <g id="line2d_53">
      <path d="M 473.842344 245.328539 
L 853.2 245.328539 
" clip-path="url(#p6a60c24923)" style="fill: none; stroke: #b0b0b0; stroke-opacity: 0.3; stroke-width: 0.5; stroke-linecap: square"/>
     </g>
     <g id="line2d_54">
      <g>
       <use xlink:href="#m1136875630" x="473.842344" y="245.328539" style="stroke: #000000; stroke-width: 0.8"/>
      </g>
     </g>
     <g id="text_32">
      <!-- 10 -->
      <g transform="translate(454.117344 249.127367) scale(0.1 -0.1)">
       <use xlink:href="#DejaVuSans-14"/>
       <use xlink:href="#DejaVuSans-13" transform="translate(63.625 0)"/>
      </g>
     </g>
    </g>
    <g id="ytick_10">
     <g id="line2d_55">
      <path d="M 473.842344 186.10477 
L 853.2 186.10477 
" clip-path="url(#p6a60c24923)" style="fill: none; stroke: #b0b0b0; stroke-opacity: 0.3; stroke-width: 0.5; stroke-linecap: square"/>
     </g>
     <g id="line2d_56">
      <g>
       <use xlink:href="#m1136875630" x="473.842344" y="186.10477" style="stroke: #000000; stroke-width: 0.8"/>
      </g>
     </g>
     <g id="text_33">
      <!-- 20 -->
      <g transform="translate(454.117344 189.903598) scale(0.1 -0.1)">
       <use xlink:href="#DejaVuSans-15"/>
       <use xlink:href="#DejaVuSans-13" transform="translate(63.625 0)"/>
      </g>
     </g>
    </g>
    <g id="ytick_11">
     <g id="line2d_57">
      <path d="M 473.842344 126.881001 
L 853.2 126.881001 
" clip-path="url(#p6a60c24923)" style="fill: none; stroke: #b0b0b0; stroke-opacity: 0.3; stroke-width: 0.5; stroke-linecap: square"/>
     </g>
     <g id="line2d_58">
      <g>
       <use xlink:href="#m1136875630" x="473.842344" y="126.881001" style="stroke: #000000; stroke-width: 0.8"/>
      </g>
     </g>
     <g id="text_34">
      <!-- 30 -->
      <g transform="translate(454.117344 130.67983) scale(0.1 -0.1)">
       <use xlink:href="#DejaVuSans-16"/>
       <use xlink:href="#DejaVuSans-13" transform="translate(63.625 0)"/>
      </g>
     </g>
    </g>
    <g id="ytick_12">
     <g id="line2d_59">
      <path d="M 473.842344 67.657232 
L 853.2 67.657232 
" clip-path="url(#p6a60c24923)" style="fill: none; stroke: #b0b0b0; stroke-opacity: 0.3; stroke-width: 0.5; stroke-linecap: square"/>
     </g>
     <g id="line2d_60">
      <g>
       <use xlink:href="#m1136875630" x="473.842344" y="67.657232" style="stroke: #000000; stroke-width: 0.8"/>
      </g>
     </g>
     <g id="text_35">
      <!-- 40 -->
      <g transform="translate(454.117344 71.456061) scale(0.1 -0.1)">
       <defs>
        <path id="DejaVuSans-17" d="M 2419 4116 
L 825 1625 
L 2419 1625 
L 2419 4116 
z
M 2253 4666 
L 3047 4666 
L 3047 1625 
L 3713 1625 
L 3713 1100 
L 3047 1100 
L 3047 0 
L 2419 0 
L 2419 1100 
L 313 1100 
L 313 1709 
L 2253 4666 
z
" transform="scale(0.015625)"/>
       </defs>
       <use xlink:href="#DejaVuSans-17"/>
       <use xlink:href="#DejaVuSans-13" transform="translate(63.625 0)"/>
      </g>
     </g>
    </g>
    <g id="text_36">
     <!-- Ângulo (°) -->
     <g transform="translate(447.715 196.669922) rotate(-90) scale(0.1 -0.1)">
      <use xlink:href="#DejaVuSans-84"/>
      <use xlink:href="#DejaVuSans-51" transform="translate(68.40625 0)"/>
      <use xlink:href="#DejaVuSans-4a" transform="translate(131.78125 0)"/>
      <use xlink:href="#DejaVuSans-58" transform="translate(195.265625 0)"/>
      <use xlink:href="#DejaVuSans-4f" transform="translate(258.640625 0)"/>
      <use xlink:href="#DejaVuSans-52" transform="translate(286.421875 0)"/>
      <use xlink:href="#DejaVuSans-3" transform="translate(347.609375 0)"/>
      <use xlink:href="#DejaVuSans-b" transform="translate(379.390625 0)"/>
      <use xlink:href="#DejaVuSans-72" transform="translate(418.40625 0)"/>
      <use xlink:href="#DejaVuSans-c" transform="translate(468.40625 0)"/>
     </g>
    </g>
   </g>
   <g id="line2d_61">
    <path d="M 491.085874 38.045348 
L 835.95647 38.045348 
L 835.95647 38.045348 
" clip-path="url(#p6a60c24923)" style="fill: none; stroke-dasharray: 5.18,2.24; stroke-dashoffset: 0; stroke: #9ca3af; stroke-width: 1.4"/>
   </g>
   <g id="line2d_62">
    <path d="M 491.085874 304.552308 
L 514.42647 304.552308 
L 516.536726 38.045348 
L 835.95647 38.045348 
L 835.95647 38.045348 
" clip-path="url(#p6a60c24923)" style="fill: none; stroke: #ea580c; stroke-width: 1.8; stroke-linecap: square"/>
   </g>
   <g id="patch_9">
    <path d="M 473.842344 317.877656 
L 473.842344 24.72 
" style="fill: none; stroke: #000000; stroke-width: 0.8; stroke-linejoin: miter; stroke-linecap: square"/>
   </g>
   <g id="patch_10">
    <path d="M 853.2 317.877656 
L 853.2 24.72 
" style="fill: none; stroke: #000000; stroke-width: 0.8; stroke-linejoin: miter; stroke-linecap: square"/>
   </g>
   <g id="patch_11">
    <path d="M 473.842344 317.877656 
L 853.2 317.877656 
" style="fill: none; stroke: #000000; stroke-width: 0.8; stroke-linejoin: miter; stroke-linecap: square"/>
   </g>
   <g id="patch_12">
    <path d="M 473.842344 24.72 
L 853.2 24.72 
" style="fill: none; stroke: #000000; stroke-width: 0.8; stroke-linejoin: miter; stroke-linecap: square"/>
   </g>
   <g id="text_37">
    <!-- subida 10–90%: 0 ms -->
    <g transform="translate(485.223073 284.182444) scale(0.08 -0.08)">
     <use xlink:href="#DejaVuSansMono-56"/>
     <use xlink:href="#DejaVuSansMono-58" transform="translate(60.203125 0)"/>
     <use xlink:href="#DejaVuSansMono-45" transform="translate(120.40625 0)"/>
     <use xlink:href="#DejaVuSansMono-4c" transform="translate(180.609375 0)"/>
     <use xlink:href="#DejaVuSansMono-47" transform="translate(240.8125 0)"/>
     <use xlink:href="#DejaVuSansMono-44" transform="translate(301.015625 0)"/>
     <use xlink:href="#DejaVuSansMono-3" transform="translate(361.21875 0)"/>
     <use xlink:href="#DejaVuSansMono-14" transform="translate(421.421875 0)"/>
     <use xlink:href="#DejaVuSansMono-13" transform="translate(481.625 0)"/>
     <use xlink:href="#DejaVuSansMono-718" transform="translate(541.828125 0)"/>
     <use xlink:href="#DejaVuSansMono-1c" transform="translate(602.03125 0)"/>
     <use xlink:href="#DejaVuSansMono-13" transform="translate(662.234375 0)"/>
     <use xlink:href="#DejaVuSansMono-8" transform="translate(722.4375 0)"/>
     <use xlink:href="#DejaVuSansMono-1d" transform="translate(782.640625 0)"/>
     <use xlink:href="#DejaVuSansMono-3" transform="translate(842.84375 0)"/>
     <use xlink:href="#DejaVuSansMono-13" transform="translate(903.046875 0)"/>
     <use xlink:href="#DejaVuSansMono-3" transform="translate(963.25 0)"/>
     <use xlink:href="#DejaVuSansMono-50" transform="translate(1023.453125 0)"/>
     <use xlink:href="#DejaVuSansMono-56" transform="translate(1083.65625 0)"/>
    </g>
    <!-- sobressinal: 0.0% -->
    <g transform="translate(485.223073 293.827131) scale(0.08 -0.08)">
     <use xlink:href="#DejaVuSansMono-56"/>
     <use xlink:href="#DejaVuSansMono-52" transform="translate(60.203125 0)"/>
     <use xlink:href="#DejaVuSansMono-45" transform="translate(120.40625 0)"/>
     <use xlink:href="#DejaVuSansMono-55" transform="translate(180.609375 0)"/>
     <use xlink:href="#DejaVuSansMono-48" transform="translate(240.8125 0)"/>
     <use xlink:href="#DejaVuSansMono-56" transform="translate(301.015625 0)"/>
     <use xlink:href="#DejaVuSansMono-56" transform="translate(361.21875 0)"/>
     <use xlink:href="#DejaVuSansMono-4c" transform="translate(421.421875 0)"/>
     <use xlink:href="#DejaVuSansMono-51" transform="translate(481.625 0)"/>
     <use xlink:href="#DejaVuSansMono-44" transform="translate(541.828125 0)"/>
     <use xlink:href="#DejaVuSansMono-4f" transform="translate(602.03125 0)"/>
     <use xlink:href="#DejaVuSansMono-1d" transform="translate(662.234375 0)"/>
     <use xlink:href="#DejaVuSansMono-3" transform="translate(722.4375 0)"/>
     <use xlink:href="#DejaVuSansMono-13" transform="translate(782.640625 0)"/>
     <use xlink:href="#DejaVuSansMono-11" transform="translate(842.84375 0)"/>
     <use xlink:href="#DejaVuSansMono-13" transform="translate(903.046875 0)"/>
     <use xlink:href="#DejaVuSansMono-8" transform="translate(963.25 0)"/>
    </g>
    <!-- assent. ±2%: 0 ms -->
    <g transform="translate(485.223073 303.428694) scale(0.08 -0.08)">
     <use xlink:href="#DejaVuSansMono-44"/>
     <use xlink:href="#DejaVuSansMono-56" transform="translate(60.203125 0)"/>
     <use xlink:href="#DejaVuSansMono-56" transform="translate(120.40625 0)"/>
     <use xlink:href="#DejaVuSansMono-48" transform="translate(180.609375 0)"/>
     <use xlink:href="#DejaVuSansMono-51" transform="translate(240.8125 0)"/>
     <use xlink:href="#DejaVuSansMono-57" transform="translate(301.015625 0)"/>
     <use xlink:href="#DejaVuSansMono-11" transform="translate(361.21875 0)"/>
     <use xlink:href="#DejaVuSansMono-3" transform="translate(421.421875 0)"/>
     <use xlink:href="#DejaVuSansMono-73" transform="translate(481.625 0)"/>
     <use xlink:href="#DejaVuSansMono-15" transform="translate(541.828125 0)"/>
     <use xlink:href="#DejaVuSansMono-8" transform="translate(602.03125 0)"/>
     <use xlink:href="#DejaVuSansMono-1d" transform="translate(662.234375 0)"/>
     <use xlink:href="#DejaVuSansMono-3" transform="translate(722.4375 0)"/>
     <use xlink:href="#DejaVuSansMono-13" transform="translate(782.640625 0)"/>
     <use xlink:href="#DejaVuSansMono-3" transform="translate(842.84375 0)"/>
     <use xlink:href="#DejaVuSansMono-50" transform="translate(903.046875 0)"/>
     <use xlink:href="#DejaVuSansMono-56" transform="translate(963.25 0)"/>
    </g>
   </g>
   <g id="text_38">
    <!-- Arduino UNO (simavr) — J6: feedforward step/dir -->
    <g transform="translate(541.740703 18.72) scale(0.1 -0.1)">
     <defs>
      <path id="DejaVuSans-24" d="M 2188 4044 
L 1331 1722 
L 3047 1722 
L 2188 4044 
z
M 1831 4666 
L 2547 4666 
L 4325 0 
L 3669 0 
L 3244 1197 
L 1141 1197 
L 716 0 
L 50 0 
L 1831 4666 
z
" transform="scale(0.015625)"/>
      <path id="DejaVuSans-55" d="M 2631 2963 
Q 2534 3019 2420 3045 
Q 2306 3072 2169 3072 
Q 1681 3072 1420 2755 
Q 1159 2438 1159 1844 
L 1159 0 
L 581 0 
L 581 3500 
L 1159 3500 
L 1159 2956 
Q 1341 3275 1631 3429 
Q 1922 3584 2338 3584 
Q 2397 3584 2469 3576 
Q 2541 3569 2628 3553 
L 2631 2963 
z
" transform="scale(0.015625)"/>
      <path id="DejaVuSans-31" d="M 628 4666 
L 1478 4666 
L 3547 763 
L 3547 4666 
L 4159 4666 
L 4159 0 
L 3309 0 
L 1241 3903 
L 1241 0 
L 628 0 
L 628 4666 
z
" transform="scale(0.015625)"/>
      <path id="DejaVuSans-32" d="M 2522 4238 
Q 1834 4238 1429 3725 
Q 1025 3213 1025 2328 
Q 1025 1447 1429 934 
Q 1834 422 2522 422 
Q 3209 422 3611 934 
Q 4013 1447 4013 2328 
Q 4013 3213 3611 3725 
Q 3209 4238 2522 4238 
z
M 2522 4750 
Q 3503 4750 4090 4092 
Q 4678 3434 4678 2328 
Q 4678 1225 4090 567 
Q 3503 -91 2522 -91 
Q 1538 -91 948 565 
Q 359 1222 359 2328 
Q 359 3434 948 4092 
Q 1538 4750 2522 4750 
z
" transform="scale(0.015625)"/>
      <path id="DejaVuSans-19" d="M 2113 2584 
Q 1688 2584 1439 2293 
Q 1191 2003 1191 1497 
Q 1191 994 1439 701 
Q 1688 409 2113 409 
Q 2538 409 2786 701 
Q 3034 994 3034 1497 
Q 3034 2003 2786 2293 
Q 2538 2584 2113 2584 
z
M 3366 4563 
L 3366 3988 
Q 3128 4100 2886 4159 
Q 2644 4219 2406 4219 
Q 1781 4219 1451 3797 
Q 1122 3375 1075 2522 
Q 1259 2794 1537 2939 
Q 1816 3084 2150 3084 
Q 2853 3084 3261 2657 
Q 3669 2231 3669 1497 
Q 3669 778 3244 343 
Q 2819 -91 2113 -91 
Q 1303 -91 875 529 
Q 447 1150 447 2328 
Q 447 3434 972 4092 
Q 1497 4750 2381 4750 
Q 2619 4750 2861 4703 
Q 3103 4656 3366 4563 
z
" transform="scale(0.015625)"/>
      <path id="DejaVuSans-5a" d="M 269 3500 
L 844 3500 
L 1563 769 
L 2278 3500 
L 2956 3500 
L 3675 769 
L 4391 3500 
L 4966 3500 
L 4050 0 
L 3372 0 
L 2619 2869 
L 1863 0 
L 1184 0 
L 269 3500 
z
" transform="scale(0.015625)"/>
      <path id="DejaVuSans-12" d="M 1625 4666 
L 2156 4666 
L 531 -594 
L 0 -594 
L 1625 4666 
z
" transform="scale(0.015625)"/>
     </defs>
     <use xlink:href="#DejaVuSans-24"/>
     <use xlink:href="#DejaVuSans-55" transform="translate(68.40625 0)"/>
     <use xlink:href="#DejaVuSans-47" transform="translate(107.765625 0)"/>
     <use xlink:href="#DejaVuSans-58" transform="translate(171.25 0)"/>
     <use xlink:href="#DejaVuSans-4c" transform="translate(234.625 0)"/>
     <use xlink:href="#DejaVuSans-51" transform="translate(262.40625 0)"/>
     <use xlink:href="#DejaVuSans-52" transform="translate(325.78125 0)"/>
     <use xlink:href="#DejaVuSans-3" transform="translate(386.96875 0)"/>
     <use xlink:href="#DejaVuSans-38" transform="translate(418.75 0)"/>
     <use xlink:href="#DejaVuSans-31" transform="translate(491.9375 0)"/>
     <use xlink:href="#DejaVuSans-32" transform="translate(566.75 0)"/>
     <use xlink:href="#DejaVuSans-3" transform="translate(645.46875 0)"/>
     <use xlink:href="#DejaVuSans-b" transform="translate(677.25 0)"/>
     <use xlink:href="#DejaVuSans-56" transform="translate(716.265625 0)"/>
     <use xlink:href="#DejaVuSans-4c" transform="translate(768.359375 0)"/>
     <use xlink:href="#DejaVuSans-50" transform="translate(796.140625 0)"/>
     <use xlink:href="#DejaVuSans-44" transform="translate(893.546875 0)"/>
     <use xlink:href="#DejaVuSans-59" transform="translate(954.828125 0)"/>
     <use xlink:href="#DejaVuSans-55" transform="translate(1014.015625 0)"/>
     <use xlink:href="#DejaVuSans-c" transform="translate(1055.125 0)"/>
     <use xlink:href="#DejaVuSans-3" transform="translate(1094.140625 0)"/>
     <use xlink:href="#DejaVuSans-af6" transform="translate(1125.921875 0)"/>
     <use xlink:href="#DejaVuSans-3" transform="translate(1225.921875 0)"/>
     <use xlink:href="#DejaVuSans-2d" transform="translate(1257.703125 0)"/>
     <use xlink:href="#DejaVuSans-19" transform="translate(1287.203125 0)"/>
     <use xlink:href="#DejaVuSans-1d" transform="translate(1350.828125 0)"/>
     <use xlink:href="#DejaVuSans-3" transform="translate(1384.515625 0)"/>
     <use xlink:href="#DejaVuSans-49" transform="translate(1416.296875 0)"/>
     <use xlink:href="#DejaVuSans-48" transform="translate(1451.5 0)"/>
     <use xlink:href="#DejaVuSans-48" transform="translate(1513.03125 0)"/>
     <use xlink:href="#DejaVuSans-47" transform="translate(1574.5625 0)"/>
     <use xlink:href="#DejaVuSans-49" transform="translate(1638.046875 0)"/>
     <use xlink:href="#DejaVuSans-52" transform="translate(1673.25 0)"/>
     <use xlink:href="#DejaVuSans-55" transform="translate(1734.4375 0)"/>
     <use xlink:href="#DejaVuSans-5a" transform="translate(1775.546875 0)"/>
     <use xlink:href="#DejaVuSans-44" transform="translate(1857.328125 0)"/>
     <use xlink:href="#DejaVuSans-55" transform="translate(1918.609375 0)"/>
     <use xlink:href="#DejaVuSans-47" transform="translate(1957.96875 0)"/>
     <use xlink:href="#DejaVuSans-3" transform="translate(2021.453125 0)"/>
     <use xlink:href="#DejaVuSans-56" transform="translate(2053.234375 0)"/>
     <use xlink:href="#DejaVuSans-57" transform="translate(2105.328125 0)"/>
     <use xlink:href="#DejaVuSans-48" transform="translate(2144.53125 0)"/>
     <use xlink:href="#DejaVuSans-53" transform="translate(2206.0625 0)"/>
     <use xlink:href="#DejaVuSans-12" transform="translate(2269.546875 0)"/>
     <use xlink:href="#DejaVuSans-47" transform="translate(2303.234375 0)"/>
     <use xlink:href="#DejaVuSans-4c" transform="translate(2366.71875 0)"/>
     <use xlink:href="#DejaVuSans-55" transform="translate(2394.5 0)"/>
    </g>
   </g>
   <g id="legend_2">
    <g id="patch_13">
     <path d="M 782.0175 184.499453 
L 847.6 184.499453 
Q 849.2 184.499453 849.2 182.899453 
L 849.2 159.698203 
Q 849.2 158.098203 847.6 158.098203 
L 782.0175 158.098203 
Q 780.4175 158.098203 780.4175 159.698203 
L 780.4175 182.899453 
Q 780.4175 184.499453 782.0175 184.499453 
z
" style="fill: #ffffff; opacity: 0.8; stroke: #cccccc; stroke-linejoin: miter"/>
    </g>
    <g id="line2d_63">
     <path d="M 783.6175 164.576953 
L 791.6175 164.576953 
L 799.6175 164.576953 
" style="fill: none; stroke-dasharray: 5.18,2.24; stroke-dashoffset: 0; stroke: #9ca3af; stroke-width: 1.4"/>
    </g>
    <g id="text_39">
     <!-- Comando -->
     <g transform="translate(806.0175 167.376953) scale(0.08 -0.08)">
      <use xlink:href="#DejaVuSans-26"/>
      <use xlink:href="#DejaVuSans-52" transform="translate(69.828125 0)"/>
      <use xlink:href="#DejaVuSans-50" transform="translate(131.015625 0)"/>
      <use xlink:href="#DejaVuSans-44" transform="translate(228.421875 0)"/>
      <use xlink:href="#DejaVuSans-51" transform="translate(289.703125 0)"/>
      <use xlink:href="#DejaVuSans-47" transform="translate(353.078125 0)"/>
      <use xlink:href="#DejaVuSans-52" transform="translate(416.5625 0)"/>
     </g>
    </g>
    <g id="line2d_64">
     <path d="M 783.6175 176.577578 
L 791.6175 176.577578 
L 799.6175 176.577578 
" style="fill: none; stroke: #ea580c; stroke-width: 1.8; stroke-linecap: square"/>
    </g>
    <g id="text_40">
     <!-- J6 medido -->
     <g transform="translate(806.0175 179.377578) scale(0.08 -0.08)">
      <use xlink:href="#DejaVuSans-2d"/>
      <use xlink:href="#DejaVuSans-19" transform="translate(29.5 0)"/>
      <use xlink:href="#DejaVuSans-3" transform="translate(93.125 0)"/>
      <use xlink:href="#DejaVuSans-50" transform="translate(124.90625 0)"/>
      <use xlink:href="#DejaVuSans-48" transform="translate(222.3125 0)"/>
      <use xlink:href="#DejaVuSans-47" transform="translate(283.84375 0)"/>
      <use xlink:href="#DejaVuSans-4c" transform="translate(347.328125 0)"/>
      <use xlink:href="#DejaVuSans-47" transform="translate(375.109375 0)"/>
      <use xlink:href="#DejaVuSans-52" transform="translate(438.59375 0)"/>
     </g>
    </g>
   </g>
  </g>
 </g>
 <defs>
  <clipPath id="pc9b1e83479">
   <rect x="47.242344" y="24.72" width="379.357656" height="293.157656"/>
  </clipPath>
  <clipPath id="p6a60c24923">
   <rect x="473.842344" y="24.72" width="379.357656" height="293.157656"/>
  </clipPath>
 </defs>
</svg>
