<?xml version="1.0" encoding="utf-8" standalone="no"?>
<!DOCTYPE svg PUBLIC "-//W3C//DTD SVG 1.1//EN"
  "http://www.w3.org/Graphics/SVG/1.1/DTD/svg11.dtd">
<svg xmlns:xlink="http://www.w3.org/1999/xlink" width="792pt" height="360pt" viewBox="0 0 792 360" xmlns="http://www.w3.org/2000/svg" version="1.1">
 <metadata>
  <rdf:RDF xmlns:dc="http://purl.org/dc/elements/1.1/" xmlns:cc="http://creativecommons.org/ns#" xmlns:rdf="http://www.w3.org/1999/02/22-rdf-syntax-ns#">
   <cc:Work>
    <dc:type rdf:resource="http://purl.org/dc/dcmitype/StillImage"/>
    <dc:date>2026-06-22T18:21:41.170359</dc:date>
    <dc:format>image/svg+xml</dc:format>
    <dc:creator>
     <cc:Agent>
      <dc:title>Matplotlib v3.11.0, https://matplotlib.org/</dc:title>
     </cc:Agent>
    </dc:creator>
   </cc:Work>
  </rdf:RDF>
 </metadata>
 <defs>
  <style type="text/css">*{stroke-linejoin: round; stroke-linecap: butt}</style>
 </defs>
 <g id="figure_1">
  <g id="patch_1">
   <path d="M 0 360 
L 792 360 
L 792 0 
L 0 0 
z
" style="fill: #ffffff"/>
  </g>
  <g id="axes_1">
   <g id="patch_2">
    <path d="M 55.882344 317.877656 
L 781.2 317.877656 
L 781.2 10.8 
L 55.882344 10.8 
z
" style="fill: #ffffff"/>
   </g>
   <g id="matplotlib.axis_1">
    <g id="xtick_1">
     <g id="line2d_1">
      <path d="M 88.851328 317.877656 
L 88.851328 10.8 
" clip-path="url(#pf99bc9cddb)" style="fill: none; stroke: #b0b0b0; stroke-opacity: 0.3; stroke-width: 0.5; stroke-linecap: square"/>
     </g>
     <g id="line2d_2">
      <defs>
       <path id="mf924208833" d="M 0 0 
L 0 3.5 
" style="stroke: #000000; stroke-width: 0.8"/>
      </defs>
      <g>
       <use xlink:href="#mf924208833" x="88.851328" y="317.877656" style="stroke: #000000; stroke-width: 0.8"/>
      </g>
     </g>
     <g id="text_1">
      <!-- 0 -->
      <g transform="translate(85.670078 332.475312) scale(0.1 -0.1)">
       <defs>
        <path id="DejaVuSans-13" d="M 2034 4250 
Q 1547 4250 1301 3770 
Q 1056 3291 1056 2328 
Q 1056 1369 1301 889 
Q 1547 409 2034 409 
Q 2525 409 2770 889 
Q 3016 1369 3016 2328 
Q 3016 3291 2770 3770 
Q 2525 4250 2034 4250 
z
M 2034 4750 
Q 2819 4750 3233 4129 
Q 3647 3509 3647 2328 
Q 3647 1150 3233 529 
Q 2819 -91 2034 -91 
Q 1250 -91 836 529 
Q 422 1150 422 2328 
Q 422 3509 836 4129 
Q 1250 4750 2034 4750 
z
" transform="scale(0.015625)"/>
       </defs>
       <use xlink:href="#DejaVuSans-13"/>
      </g>
     </g>
    </g>
    <g id="xtick_2">
     <g id="line2d_3">
      <path d="M 189.650452 317.877656 
L 189.650452 10.8 
" clip-path="url(#pf99bc9cddb)" style="fill: none; stroke: #b0b0b0; stroke-opacity: 0.3; stroke-width: 0.5; stroke-linecap: square"/>
     </g>
     <g id="line2d_4">
      <g>
       <use xlink:href="#mf924208833" x="189.650452" y="317.877656" style="stroke: #000000; stroke-width: 0.8"/>
      </g>
     </g>
     <g id="text_2">
      <!-- 50 -->
      <g transform="translate(183.287952 332.475312) scale(0.1 -0.1)">
       <defs>
        <path id="DejaVuSans-18" d="M 691 4666 
L 3169 4666 
L 3169 4134 
L 1269 4134 
L 1269 2991 
Q 1406 3038 1543 3061 
Q 1681 3084 1819 3084 
Q 2600 3084 3056 2656 
Q 3513 2228 3513 1497 
Q 3513 744 3044 326 
Q 2575 -91 1722 -91 
Q 1428 -91 1123 -41 
Q 819 9 494 109 
L 494 744 
Q 775 591 1075 516 
Q 1375 441 1709 441 
Q 2250 441 2565 725 
Q 2881 1009 2881 1497 
Q 2881 1984 2565 2268 
Q 2250 2553 1709 2553 
Q 1456 2553 1204 2497 
Q 953 2441 691 2322 
L 691 4666 
z
" transform="scale(0.015625)"/>
       </defs>
       <use xlink:href="#DejaVuSans-18"/>
       <use xlink:href="#DejaVuSans-13" transform="translate(63.625 0)"/>
      </g>
     </g>
    </g>
    <g id="xtick_3">
     <g id="line2d_5">
      <path d="M 290.449575 317.877656 
L 290.449575 10.8 
" clip-path="url(#pf99bc9cddb)" style="fill: none; stroke: #b0b0b0; stroke-opacity: 0.3; stroke-width: 0.5; stroke-linecap: square"/>
     </g>
     <g id="line2d_6">
      <g>
       <use xlink:href="#mf924208833" x="290.449575" y="317.877656" style="stroke: #000000; stroke-width: 0.8"/>
      </g>
     </g>
     <g id="text_3">
      <!-- 100 -->
      <g transform="translate(280.905825 332.475312) scale(0.1 -0.1)">
       <defs>
        <path id="DejaVuSans-14" d="M 794 531 
L 1825 531 
L 1825 4091 
L 703 3866 
L 703 4441 
L 1819 4666 
L 2450 4666 
L 2450 531 
L 3481 531 
L 3481 0 
L 794 0 
L 794 531 
z
" transform="scale(0.015625)"/>
       </defs>
       <use xlink:href="#DejaVuSans-14"/>
       <use xlink:href="#DejaVuSans-13" transform="translate(63.625 0)"/>
       <use xlink:href="#DejaVuSans-13" transform="translate(127.25 0)"/>
      </g>
     </g>
    </g>
    <g id="xtick_4">
     <g id="line2d_7">
      <path d="M 391.248698 317.877656 
L 391.248698 10.8 
" clip-path="url(#pf99bc9cddb)" style="fill: none; stroke: #b0b0b0; stroke-opacity: 0.3; stroke-width: 0.5; stroke-linecap: square"/>
     </g>
     <g id="line2d_8">
      <g>
       <use xlink:href="#mf924208833" x="391.248698" y="317.877656" style="stroke: #000000; stroke-width: 0.8"/>
      </g>
     </g>
     <g id="text_4">
      <!-- 150 -->
      <g transform="translate(381.704948 332.475312) scale(0.1 -0.1)">
       <use xlink:href="#DejaVuSans-14"/>
       <use xlink:href="#DejaVuSans-18" transform="translate(63.625 0)"/>
       <use xlink:href="#DejaVuSans-13" transform="translate(127.25 0)"/>
      </g>
     </g>
    </g>
    <g id="xtick_5">
     <g id="line2d_9">
      <path d="M 492.047822 317.877656 
L 492.047822 10.8 
" clip-path="url(#pf99bc9cddb)" style="fill: none; stroke: #b0b0b0; stroke-opacity: 0.3; stroke-width: 0.5; stroke-linecap: square"/>
     </g>
     <g id="line2d_10">
      <g>
       <use xlink:href="#mf924208833" x="492.047822" y="317.877656" style="stroke: #000000; stroke-width: 0.8"/>
      </g>
     </g>
     <g id="text_5">
      <!-- 200 -->
      <g transform="translate(482.504072 332.475312) scale(0.1 -0.1)">
       <defs>
        <path id="DejaVuSans-15" d="M 1228 531 
L 3431 531 
L 3431 0 
L 469 0 
L 469 531 
Q 828 903 1448 1529 
Q 2069 2156 2228 2338 
Q 2531 2678 2651 2914 
Q 2772 3150 2772 3378 
Q 2772 3750 2511 3984 
Q 2250 4219 1831 4219 
Q 1534 4219 1204 4116 
Q 875 4013 500 3803 
L 500 4441 
Q 881 4594 1212 4672 
Q 1544 4750 1819 4750 
Q 2544 4750 2975 4387 
Q 3406 4025 3406 3419 
Q 3406 3131 3298 2873 
Q 3191 2616 2906 2266 
Q 2828 2175 2409 1742 
Q 1991 1309 1228 531 
z
" transform="scale(0.015625)"/>
       </defs>
       <use xlink:href="#DejaVuSans-15"/>
       <use xlink:href="#DejaVuSans-13" transform="translate(63.625 0)"/>
       <use xlink:href="#DejaVuSans-13" transform="translate(127.25 0)"/>
      </g>
     </g>
    </g>
    <g id="xtick_6">
     <g id="line2d_11">
      <path d="M 592.846945 317.877656 
L 592.846945 10.8 
" clip-path="url(#pf99bc9cddb)" style="fill: none; stroke: #b0b0b0; stroke-opacity: 0.3; stroke-width: 0.5; stroke-linecap: square"/>
     </g>
     <g id="line2d_12">
      <g>
       <use xlink:href="#mf924208833" x="592.846945" y="317.877656" style="stroke: #000000; stroke-width: 0.8"/>
      </g>
     </g>
     <g id="text_6">
      <!-- 250 -->
      <g transform="translate(583.303195 332.475312) scale(0.1 -0.1)">
       <use xlink:href="#DejaVuSans-15"/>
       <use xlink:href="#DejaVuSans-18" transform="translate(63.625 0)"/>
       <use xlink:href="#DejaVuSans-13" transform="translate(127.25 0)"/>
      </g>
     </g>
    </g>
    <g id="xtick_7">
     <g id="line2d_13">
      <path d="M 693.646069 317.877656 
L 693.646069 10.8 
" clip-path="url(#pf99bc9cddb)" style="fill: none; stroke: #b0b0b0; stroke-opacity: 0.3; stroke-width: 0.5; stroke-linecap: square"/>
     </g>
     <g id="line2d_14">
      <g>
       <use xlink:href="#mf924208833" x="693.646069" y="317.877656" style="stroke: #000000; stroke-width: 0.8"/>
      </g>
     </g>
     <g id="text_7">
      <!-- 300 -->
      <g transform="translate(684.102319 332.475312) scale(0.1 -0.1)">
       <defs>
        <path id="DejaVuSans-16" d="M 2597 2516 
Q 3050 2419 3304 2112 
Q 3559 1806 3559 1356 
Q 3559 666 3084 287 
Q 2609 -91 1734 -91 
Q 1441 -91 1130 -33 
Q 819 25 488 141 
L 488 750 
Q 750 597 1062 519 
Q 1375 441 1716 441 
Q 2309 441 2620 675 
Q 2931 909 2931 1356 
Q 2931 1769 2642 2001 
Q 2353 2234 1838 2234 
L 1294 2234 
L 1294 2753 
L 1863 2753 
Q 2328 2753 2575 2939 
Q 2822 3125 2822 3475 
Q 2822 3834 2567 4026 
Q 2313 4219 1838 4219 
Q 1578 4219 1281 4162 
Q 984 4106 628 3988 
L 628 4550 
Q 988 4650 1302 4700 
Q 1616 4750 1894 4750 
Q 2613 4750 3031 4423 
Q 3450 4097 3450 3541 
Q 3450 3153 3228 2886 
Q 3006 2619 2597 2516 
z
" transform="scale(0.015625)"/>
       </defs>
       <use xlink:href="#DejaVuSans-16"/>
       <use xlink:href="#DejaVuSans-13" transform="translate(63.625 0)"/>
       <use xlink:href="#DejaVuSans-13" transform="translate(127.25 0)"/>
      </g>
     </g>
    </g>
    <g id="text_8">
     <!-- Tempo (s) -->
     <g transform="translate(394.060703 346.475312) scale(0.1 -0.1)">
      <defs>
       <path id="DejaVuSans-37" d="M -19 4666 
L 3928 4666 
L 3928 4134 
L 2272 4134 
L 2272 0 
L 1638 0 
L 1638 4134 
L -19 4134 
L -19 4666 
z
" transform="scale(0.015625)"/>
       <path id="DejaVuSans-48" d="M 3597 1894 
L 3597 1613 
L 953 1613 
Q 991 1019 1311 708 
Q 1631 397 2203 397 
Q 2534 397 2845 478 
Q 3156 559 3463 722 
L 3463 178 
Q 3153 47 2828 -22 
Q 2503 -91 2169 -91 
Q 1331 -91 842 396 
Q 353 884 353 1716 
Q 353 2575 817 3079 
Q 1281 3584 2069 3584 
Q 2775 3584 3186 3129 
Q 3597 2675 3597 1894 
z
M 3022 2063 
Q 3016 2534 2758 2815 
Q 2500 3097 2075 3097 
Q 1594 3097 1305 2825 
Q 1016 2553 972 2059 
L 3022 2063 
z
" transform="scale(0.015625)"/>
       <path id="DejaVuSans-50" d="M 3328 2828 
Q 3544 3216 3844 3400 
Q 4144 3584 4550 3584 
Q 5097 3584 5394 3201 
Q 5691 2819 5691 2113 
L 5691 0 
L 5113 0 
L 5113 2094 
Q 5113 2597 4934 2840 
Q 4756 3084 4391 3084 
Q 3944 3084 3684 2787 
Q 3425 2491 3425 1978 
L 3425 0 
L 2847 0 
L 2847 2094 
Q 2847 2600 2669 2842 
Q 2491 3084 2119 3084 
Q 1678 3084 1418 2786 
Q 1159 2488 1159 1978 
L 1159 0 
L 581 0 
L 581 3500 
L 1159 3500 
L 1159 2956 
Q 1356 3278 1631 3431 
Q 1906 3584 2284 3584 
Q 2666 3584 2933 3390 
Q 3200 3197 3328 2828 
z
" transform="scale(0.015625)"/>
       <path id="DejaVuSans-53" d="M 1159 525 
L 1159 -1331 
L 581 -1331 
L 581 3500 
L 1159 3500 
L 1159 2969 
Q 1341 3281 1617 3432 
Q 1894 3584 2278 3584 
Q 2916 3584 3314 3078 
Q 3713 2572 3713 1747 
Q 3713 922 3314 415 
Q 2916 -91 2278 -91 
Q 1894 -91 1617 61 
Q 1341 213 1159 525 
z
M 3116 1747 
Q 3116 2381 2855 2742 
Q 2594 3103 2138 3103 
Q 1681 3103 1420 2742 
Q 1159 2381 1159 1747 
Q 1159 1113 1420 752 
Q 1681 391 2138 391 
Q 2594 391 2855 752 
Q 3116 1113 3116 1747 
z
" transform="scale(0.015625)"/>
       <path id="DejaVuSans-52" d="M 1959 3097 
Q 1497 3097 1228 2736 
Q 959 2375 959 1747 
Q 959 1119 1226 758 
Q 1494 397 1959 397 
Q 2419 397 2687 759 
Q 2956 1122 2956 1747 
Q 2956 2369 2687 2733 
Q 2419 3097 1959 3097 
z
M 1959 3584 
Q 2709 3584 3137 3096 
Q 3566 2609 3566 1747 
Q 3566 888 3137 398 
Q 2709 -91 1959 -91 
Q 1206 -91 779 398 
Q 353 888 353 1747 
Q 353 2609 779 3096 
Q 1206 3584 1959 3584 
z
" transform="scale(0.015625)"/>
       <path id="DejaVuSans-3" transform="scale(0.015625)"/>
       <path id="DejaVuSans-b" d="M 1984 4856 
Q 1566 4138 1362 3434 
Q 1159 2731 1159 2009 
Q 1159 1288 1364 580 
Q 1569 -128 1984 -844 
L 1484 -844 
Q 1016 -109 783 600 
Q 550 1309 550 2009 
Q 550 2706 781 3412 
Q 1013 4119 1484 4856 
L 1984 4856 
z
" transform="scale(0.015625)"/>
       <path id="DejaVuSans-56" d="M 2834 3397 
L 2834 2853 
Q 2591 2978 2328 3040 
Q 2066 3103 1784 3103 
Q 1356 3103 1142 2972 
Q 928 2841 928 2578 
Q 928 2378 1081 2264 
Q 1234 2150 1697 2047 
L 1894 2003 
Q 2506 1872 2764 1633 
Q 3022 1394 3022 966 
Q 3022 478 2636 193 
Q 2250 -91 1575 -91 
Q 1294 -91 989 -36 
Q 684 19 347 128 
L 347 722 
Q 666 556 975 473 
Q 1284 391 1588 391 
Q 1994 391 2212 530 
Q 2431 669 2431 922 
Q 2431 1156 2273 1281 
Q 2116 1406 1581 1522 
L 1381 1569 
Q 847 1681 609 1914 
Q 372 2147 372 2553 
Q 372 3047 722 3315 
Q 1072 3584 1716 3584 
Q 2034 3584 2315 3537 
Q 2597 3491 2834 3397 
z
" transform="scale(0.015625)"/>
       <path id="DejaVuSans-c" d="M 513 4856 
L 1013 4856 
Q 1481 4119 1714 3412 
Q 1947 2706 1947 2009 
Q 1947 1309 1714 600 
Q 1481 -109 1013 -844 
L 513 -844 
Q 928 -128 1133 580 
Q 1338 1288 1338 2009 
Q 1338 2731 1133 3434 
Q 928 4138 513 4856 
z
" transform="scale(0.015625)"/>
      </defs>
      <use xlink:href="#DejaVuSans-37"/>
      <use xlink:href="#DejaVuSans-48" transform="translate(44.09375 0)"/>
      <use xlink:href="#DejaVuSans-50" transform="translate(105.625 0)"/>
      <use xlink:href="#DejaVuSans-53" transform="translate(203.03125 0)"/>
      <use xlink:href="#DejaVuSans-52" transform="translate(266.515625 0)"/>
      <use xlink:href="#DejaVuSans-3" transform="translate(327.703125 0)"/>
      <use xlink:href="#DejaVuSans-b" transform="translate(359.484375 0)"/>
      <use xlink:href="#DejaVuSans-56" transform="translate(398.5 0)"/>
      <use xlink:href="#DejaVuSans-c" transform="translate(450.59375 0)"/>
     </g>
    </g>
   </g>
   <g id="matplotlib.axis_2">
    <g id="ytick_1">
     <g id="line2d_15">
      <path d="M 55.882344 276.00343 
L 781.2 276.00343 
" clip-path="url(#pf99bc9cddb)" style="fill: none; stroke: #b0b0b0; stroke-opacity: 0.3; stroke-width: 0.5; stroke-linecap: square"/>
     </g>
     <g id="line2d_16">
      <defs>
       <path id="m0e894a665f" d="M 0 0 
L -3.5 0 
" style="stroke: #000000; stroke-width: 0.8"/>
      </defs>
      <g>
       <use xlink:href="#m0e894a665f" x="55.882344" y="276.00343" style="stroke: #000000; stroke-width: 0.8"/>
      </g>
     </g>
     <g id="text_9">
      <!-- −20 -->
      <g transform="translate(27.777656 279.802259) scale(0.1 -0.1)">
       <defs>
        <path id="DejaVuSans-c9c" d="M 678 2272 
L 4684 2272 
L 4684 1741 
L 678 1741 
L 678 2272 
z
" transform="scale(0.015625)"/>
       </defs>
       <use xlink:href="#DejaVuSans-c9c"/>
       <use xlink:href="#DejaVuSans-15" transform="translate(83.796875 0)"/>
       <use xlink:href="#DejaVuSans-13" transform="translate(147.421875 0)"/>
      </g>
     </g>
    </g>
    <g id="ytick_2">
     <g id="line2d_17">
      <path d="M 55.882344 220.171129 
L 781.2 220.171129 
" clip-path="url(#pf99bc9cddb)" style="fill: none; stroke: #b0b0b0; stroke-opacity: 0.3; stroke-width: 0.5; stroke-linecap: square"/>
     </g>
     <g id="line2d_18">
      <g>
       <use xlink:href="#m0e894a665f" x="55.882344" y="220.171129" style="stroke: #000000; stroke-width: 0.8"/>
      </g>
     </g>
     <g id="text_10">
      <!-- −10 -->
      <g transform="translate(27.777656 223.969957) scale(0.1 -0.1)">
       <use xlink:href="#DejaVuSans-c9c"/>
       <use xlink:href="#DejaVuSans-14" transform="translate(83.796875 0)"/>
       <use xlink:href="#DejaVuSans-13" transform="translate(147.421875 0)"/>
      </g>
     </g>
    </g>
    <g id="ytick_3">
     <g id="line2d_19">
      <path d="M 55.882344 164.338828 
L 781.2 164.338828 
" clip-path="url(#pf99bc9cddb)" style="fill: none; stroke: #b0b0b0; stroke-opacity: 0.3; stroke-width: 0.5; stroke-linecap: square"/>
     </g>
     <g id="line2d_20">
      <g>
       <use xlink:href="#m0e894a665f" x="55.882344" y="164.338828" style="stroke: #000000; stroke-width: 0.8"/>
      </g>
     </g>
     <g id="text_11">
      <!-- 0 -->
      <g transform="translate(42.519844 168.137656) scale(0.1 -0.1)">
       <use xlink:href="#DejaVuSans-13"/>
      </g>
     </g>
    </g>
    <g id="ytick_4">
     <g id="line2d_21">
      <path d="M 55.882344 108.506527 
L 781.2 108.506527 
" clip-path="url(#pf99bc9cddb)" style="fill: none; stroke: #b0b0b0; stroke-opacity: 0.3; stroke-width: 0.5; stroke-linecap: square"/>
     </g>
     <g id="line2d_22">
      <g>
       <use xlink:href="#m0e894a665f" x="55.882344" y="108.506527" style="stroke: #000000; stroke-width: 0.8"/>
      </g>
     </g>
     <g id="text_12">
      <!-- 10 -->
      <g transform="translate(36.157344 112.305355) scale(0.1 -0.1)">
       <use xlink:href="#DejaVuSans-14"/>
       <use xlink:href="#DejaVuSans-13" transform="translate(63.625 0)"/>
      </g>
     </g>
    </g>
    <g id="ytick_5">
     <g id="line2d_23">
      <path d="M 55.882344 52.674226 
L 781.2 52.674226 
" clip-path="url(#pf99bc9cddb)" style="fill: none; stroke: #b0b0b0; stroke-opacity: 0.3; stroke-width: 0.5; stroke-linecap: square"/>
     </g>
     <g id="line2d_24">
      <g>
       <use xlink:href="#m0e894a665f" x="55.882344" y="52.674226" style="stroke: #000000; stroke-width: 0.8"/>
      </g>
     </g>
     <g id="text_13">
      <!-- 20 -->
      <g transform="translate(36.157344 56.473054) scale(0.1 -0.1)">
       <use xlink:href="#DejaVuSans-15"/>
       <use xlink:href="#DejaVuSans-13" transform="translate(63.625 0)"/>
      </g>
     </g>
    </g>
    <g id="text_14">
     <!-- Ângulo das juntas J1–J3 (°) -->
     <g transform="translate(21.375313 230.488047) rotate(-90) scale(0.1 -0.1)">
      <defs>
       <path id="DejaVuSans-84" d="M 2188 4044 
L 1331 1722 
L 3047 1722 
L 2188 4044 
z
M 1831 4666 
L 2547 4666 
L 4325 0 
L 3669 0 
L 3244 1197 
L 1141 1197 
L 716 0 
L 50 0 
L 1831 4666 
z
M 1894 5941 
L 2482 5941 
L 3141 5110 
L 2707 5110 
L 2188 5666 
L 1669 5110 
L 1235 5110 
L 1894 5941 
z
" transform="scale(0.015625)"/>
       <path id="DejaVuSans-51" d="M 3513 2113 
L 3513 0 
L 2938 0 
L 2938 2094 
Q 2938 2591 2744 2837 
Q 2550 3084 2163 3084 
Q 1697 3084 1428 2787 
Q 1159 2491 1159 1978 
L 1159 0 
L 581 0 
L 581 3500 
L 1159 3500 
L 1159 2956 
Q 1366 3272 1645 3428 
Q 1925 3584 2291 3584 
Q 2894 3584 3203 3211 
Q 3513 2838 3513 2113 
z
" transform="scale(0.015625)"/>
       <path id="DejaVuSans-4a" d="M 2906 1791 
Q 2906 2416 2648 2759 
Q 2391 3103 1925 3103 
Q 1463 3103 1205 2759 
Q 947 2416 947 1791 
Q 947 1169 1205 825 
Q 1463 481 1925 481 
Q 2391 481 2648 825 
Q 2906 1169 2906 1791 
z
M 3481 434 
Q 3481 -459 3084 -895 
Q 2688 -1331 1869 -1331 
Q 1566 -1331 1297 -1286 
Q 1028 -1241 775 -1147 
L 775 -588 
Q 1028 -725 1275 -790 
Q 1522 -856 1778 -856 
Q 2344 -856 2625 -561 
Q 2906 -266 2906 331 
L 2906 616 
Q 2728 306 2450 153 
Q 2172 0 1784 0 
Q 1141 0 747 490 
Q 353 981 353 1791 
Q 353 2603 747 3093 
Q 1141 3584 1784 3584 
Q 2172 3584 2450 3431 
Q 2728 3278 2906 2969 
L 2906 3500 
L 3481 3500 
L 3481 434 
z
" transform="scale(0.015625)"/>
       <path id="DejaVuSans-58" d="M 544 1381 
L 544 3500 
L 1119 3500 
L 1119 1403 
Q 1119 906 1312 657 
Q 1506 409 1894 409 
Q 2359 409 2629 706 
Q 2900 1003 2900 1516 
L 2900 3500 
L 3475 3500 
L 3475 0 
L 2900 0 
L 2900 538 
Q 2691 219 2414 64 
Q 2138 -91 1772 -91 
Q 1169 -91 856 284 
Q 544 659 544 1381 
z
M 1991 3584 
L 1991 3584 
z
" transform="scale(0.015625)"/>
       <path id="DejaVuSans-4f" d="M 603 4863 
L 1178 4863 
L 1178 0 
L 603 0 
L 603 4863 
z
" transform="scale(0.015625)"/>
       <path id="DejaVuSans-47" d="M 2906 2969 
L 2906 4863 
L 3481 4863 
L 3481 0 
L 2906 0 
L 2906 525 
Q 2725 213 2448 61 
Q 2172 -91 1784 -91 
Q 1150 -91 751 415 
Q 353 922 353 1747 
Q 353 2572 751 3078 
Q 1150 3584 1784 3584 
Q 2172 3584 2448 3432 
Q 2725 3281 2906 2969 
z
M 947 1747 
Q 947 1113 1208 752 
Q 1469 391 1925 391 
Q 2381 391 2643 752 
Q 2906 1113 2906 1747 
Q 2906 2381 2643 2742 
Q 2381 3103 1925 3103 
Q 1469 3103 1208 2742 
Q 947 2381 947 1747 
z
" transform="scale(0.015625)"/>
       <path id="DejaVuSans-44" d="M 2194 1759 
Q 1497 1759 1228 1600 
Q 959 1441 959 1056 
Q 959 750 1161 570 
Q 1363 391 1709 391 
Q 2188 391 2477 730 
Q 2766 1069 2766 1631 
L 2766 1759 
L 2194 1759 
z
M 3341 1997 
L 3341 0 
L 2766 0 
L 2766 531 
Q 2569 213 2275 61 
Q 1981 -91 1556 -91 
Q 1019 -91 701 211 
Q 384 513 384 1019 
Q 384 1609 779 1909 
Q 1175 2209 1959 2209 
L 2766 2209 
L 2766 2266 
Q 2766 2663 2505 2880 
Q 2244 3097 1772 3097 
Q 1472 3097 1187 3025 
Q 903 2953 641 2809 
L 641 3341 
Q 956 3463 1253 3523 
Q 1550 3584 1831 3584 
Q 2591 3584 2966 3190 
Q 3341 2797 3341 1997 
z
" transform="scale(0.015625)"/>
       <path id="DejaVuSans-4d" d="M 603 3500 
L 1178 3500 
L 1178 -63 
Q 1178 -731 923 -1031 
Q 669 -1331 103 -1331 
L -116 -1331 
L -116 -844 
L 38 -844 
Q 366 -844 484 -692 
Q 603 -541 603 -63 
L 603 3500 
z
M 603 4863 
L 1178 4863 
L 1178 4134 
L 603 4134 
L 603 4863 
z
" transform="scale(0.015625)"/>
       <path id="DejaVuSans-57" d="M 1172 4494 
L 1172 3500 
L 2356 3500 
L 2356 3053 
L 1172 3053 
L 1172 1153 
Q 1172 725 1289 603 
Q 1406 481 1766 481 
L 2356 481 
L 2356 0 
L 1766 0 
Q 1100 0 847 248 
Q 594 497 594 1153 
L 594 3053 
L 172 3053 
L 172 3500 
L 594 3500 
L 594 4494 
L 1172 4494 
z
" transform="scale(0.015625)"/>
       <path id="DejaVuSans-2d" d="M 628 4666 
L 1259 4666 
L 1259 325 
Q 1259 -519 939 -900 
Q 619 -1281 -91 -1281 
L -331 -1281 
L -331 -750 
L -134 -750 
Q 284 -750 456 -515 
Q 628 -281 628 325 
L 628 4666 
z
" transform="scale(0.015625)"/>
       <path id="DejaVuSans-af5" d="M 313 1978 
L 2888 1978 
L 2888 1528 
L 313 1528 
L 313 1978 
z
" transform="scale(0.015625)"/>
       <path id="DejaVuSans-72" d="M 1600 4347 
Q 1350 4347 1178 4173 
Q 1006 4000 1006 3750 
Q 1006 3503 1178 3333 
Q 1350 3163 1600 3163 
Q 1850 3163 2022 3333 
Q 2194 3503 2194 3750 
Q 2194 3997 2020 4172 
Q 1847 4347 1600 4347 
z
M 1600 4750 
Q 1800 4750 1984 4673 
Q 2169 4597 2303 4453 
Q 2447 4313 2519 4134 
Q 2591 3956 2591 3750 
Q 2591 3338 2302 3052 
Q 2013 2766 1594 2766 
Q 1172 2766 890 3047 
Q 609 3328 609 3750 
Q 609 4169 896 4459 
Q 1184 4750 1600 4750 
z
" transform="scale(0.015625)"/>
      </defs>
      <use xlink:href="#DejaVuSans-84"/>
      <use xlink:href="#DejaVuSans-51" transform="translate(68.40625 0)"/>
      <use xlink:href="#DejaVuSans-4a" transform="translate(131.78125 0)"/>
      <use xlink:href="#DejaVuSans-58" transform="translate(195.265625 0)"/>
      <use xlink:href="#DejaVuSans-4f" transform="translate(258.640625 0)"/>
      <use xlink:href="#DejaVuSans-52" transform="translate(286.421875 0)"/>
      <use xlink:href="#DejaVuSans-3" transform="translate(347.609375 0)"/>
      <use xlink:href="#DejaVuSans-47" transform="translate(379.390625 0)"/>
      <use xlink:href="#DejaVuSans-44" transform="translate(442.875 0)"/>
      <use xlink:href="#DejaVuSans-56" transform="translate(504.15625 0)"/>
      <use xlink:href="#DejaVuSans-3" transform="translate(556.25 0)"/>
      <use xlink:href="#DejaVuSans-4d" transform="translate(588.03125 0)"/>
      <use xlink:href="#DejaVuSans-58" transform="translate(615.8125 0)"/>
      <use xlink:href="#DejaVuSans-51" transform="translate(679.1875 0)"/>
      <use xlink:href="#DejaVuSans-57" transform="translate(742.5625 0)"/>
      <use xlink:href="#DejaVuSans-44" transform="translate(781.765625 0)"/>
      <use xlink:href="#DejaVuSans-56" transform="translate(843.046875 0)"/>
      <use xlink:href="#DejaVuSans-3" transform="translate(895.140625 0)"/>
      <use xlink:href="#DejaVuSans-2d" transform="translate(926.921875 0)"/>
      <use xlink:href="#DejaVuSans-14" transform="translate(956.421875 0)"/>
      <use xlink:href="#DejaVuSans-af5" transform="translate(1020.046875 0)"/>
      <use xlink:href="#DejaVuSans-2d" transform="translate(1070.046875 0)"/>
      <use xlink:href="#DejaVuSans-16" transform="translate(1099.546875 0)"/>
      <use xlink:href="#DejaVuSans-3" transform="translate(1163.171875 0)"/>
      <use xlink:href="#DejaVuSans-b" transform="translate(1194.953125 0)"/>
      <use xlink:href="#DejaVuSans-72" transform="translate(1233.96875 0)"/>
      <use xlink:href="#DejaVuSans-c" transform="translate(1283.96875 0)"/>
     </g>
    </g>
   </g>
   <g id="line2d_25">
    <path d="M 88.851328 164.338828 
L 96.809304 164.338828 
L 96.994551 144.2392 
L 97.174328 129.164484 
L 97.850001 66.353156 
L 98.187535 38.716117 
L 98.23033 38.716117 
L 98.566755 26.153827 
L 104.462389 26.153827 
L 104.542992 149.264107 
L 104.639414 141.726746 
L 106.490729 141.726746 
L 106.490729 141.726746 
L 106.580142 149.264107 
L 106.624433 144.2392 
L 107.333553 56.303325 
L 107.645535 26.153827 
L 115.020337 26.153827 
L 115.192355 31.178745 
L 115.459293 41.228576 
L 115.502383 41.228576 
L 115.951156 61.328238 
L 116.133924 61.328238 
L 116.266734 63.840697 
L 144.775432 63.840697 
L 144.775432 63.840697 
L 144.820558 146.751653 
L 144.911015 136.701839 
L 145.633977 66.353156 
L 152.840727 66.353156 
L 153.016559 71.378069 
L 153.061795 71.378069 
L 153.332519 88.965244 
L 153.772929 119.114675 
L 154.134639 146.751653 
L 154.501989 161.826375 
L 154.501989 161.826375 
L 182.988515 161.826375 
L 183.136679 164.338828 
L 192.752696 164.338828 
L 193.015731 174.388642 
L 193.061865 174.388642 
L 193.289165 191.975817 
L 193.335212 191.975817 
L 193.335212 191.975817 
L 193.609924 212.075434 
L 194.015114 244.737319 
L 194.06047 244.737319 
L 194.238322 254.787128 
L 194.421498 259.812046 
L 194.558308 259.812046 
L 194.693837 262.3245 
L 222.258452 262.3245 
L 222.292938 176.901096 
L 222.380897 186.95091 
L 222.519453 191.975817 
L 227.36606 191.975817 
L 227.509746 176.901096 
L 231.369582 176.901096 
L 231.369582 176.901096 
L 232.226157 262.3245 
L 238.931262 262.3245 
L 239.099516 267.349418 
L 239.146363 267.349418 
L 239.146363 267.349418 
L 239.288928 272.374331 
L 239.875228 297.498911 
L 239.922758 297.498911 
L 240.094984 302.523829 
L 278.658424 302.523829 
L 278.702625 181.926003 
L 278.793227 191.975817 
L 279.824622 302.523829 
L 287.197229 302.523829 
L 287.197229 302.523829 
L 287.434109 294.986452 
L 287.484968 294.986452 
L 287.931561 274.88679 
L 287.976271 274.88679 
L 288.200785 267.349418 
L 288.288793 267.349418 
L 288.429361 264.836959 
L 316.890665 264.836959 
L 316.939147 179.413549 
L 317.034403 191.975817 
L 317.701755 262.3245 
L 325.040421 262.3245 
L 326.034157 202.025626 
L 326.297955 181.926003 
L 326.343925 181.926003 
L 326.562571 169.363735 
L 326.653679 169.363735 
L 326.791929 166.851282 
L 354.129845 166.851282 
L 354.276727 164.338828 
L 363.969728 164.338828 
L 364.195127 156.801467 
L 364.195127 156.801467 
L 364.281722 154.289014 
L 364.552375 136.701839 
L 364.776246 121.627123 
L 365.000349 101.527506 
L 365.227018 83.940337 
L 365.268807 83.940337 
L 365.454227 73.890528 
L 365.629537 68.86561 
L 365.763626 68.86561 
L 365.896383 66.353156 
L 370.322647 66.353156 
L 370.368263 146.751653 
L 370.462649 136.701839 
L 370.897245 81.427883 
L 370.902319 81.427883 
L 371.121601 66.353156 
L 378.088339 66.353156 
L 378.264521 61.328238 
L 378.304291 61.328238 
L 378.584244 48.765948 
L 378.584244 48.765948 
L 378.950855 33.691204 
L 378.988751 33.691204 
L 379.172411 28.666286 
L 379.216013 28.666286 
L 379.352904 26.153827 
L 410.581676 26.153827 
L 410.627733 151.77656 
L 410.721754 139.214293 
L 411.389734 56.303325 
L 411.749861 26.153827 
L 418.918417 26.153827 
L 419.141836 33.691204 
L 419.184809 33.691204 
L 419.184809 33.691204 
L 419.585364 51.278407 
L 419.627192 51.278407 
L 419.938548 61.328238 
L 420.03391 61.328238 
L 420.171058 63.840697 
L 449.014424 63.840697 
L 449.106158 151.77656 
L 456.893837 151.77656 
L 457.029418 139.214293 
L 457.207813 126.65203 
L 461.919198 126.65203 
L 461.965749 151.77656 
L 462.010941 144.2392 
L 462.241904 129.164484 
L 467.970262 129.164484 
L 468.034963 146.751653 
L 468.084415 139.214293 
L 468.845045 66.353156 
L 476.221581 66.353156 
L 476.581648 81.427883 
L 476.625578 81.427883 
L 476.80359 93.990145 
L 477.029148 109.064861 
L 477.251779 129.164484 
L 477.930691 161.826375 
L 477.930691 161.826375 
L 506.19237 161.826375 
L 506.330144 164.338828 
L 522.389334 164.338828 
L 522.639158 174.388642 
L 522.687066 174.388642 
L 523.225168 209.562981 
L 523.671317 244.737319 
L 523.715804 244.737319 
L 523.899706 254.787128 
L 524.075818 259.812046 
L 524.211135 259.812046 
L 524.211135 259.812046 
L 524.303171 262.3245 
L 551.464184 262.3245 
L 551.511229 176.901096 
L 551.598303 186.95091 
L 552.367781 262.3245 
L 559.375693 262.3245 
L 559.552549 267.349418 
L 559.59754 267.349418 
L 559.733901 274.88679 
L 559.77764 274.88679 
L 560.219837 294.986452 
L 560.268483 294.986452 
L 560.44111 300.01137 
L 560.486762 300.01137 
L 560.623812 302.523829 
L 589.732561 302.523829 
L 589.777056 179.413549 
L 589.855153 186.95091 
L 590.307271 244.737319 
L 590.941396 302.523829 
L 598.349126 302.523829 
L 598.528159 297.498911 
L 598.57621 297.498911 
L 598.929251 282.424162 
L 598.972744 282.424162 
L 599.110109 274.88679 
L 599.15191 274.88679 
L 599.374741 267.349418 
L 599.459989 267.349418 
L 599.603753 264.836959 
L 627.305565 264.836959 
L 627.433056 176.901096 
L 627.978061 176.901096 
L 628.11325 189.463364 
L 628.819332 262.3245 
L 636.156004 262.3245 
L 636.332863 257.299587 
L 636.378585 257.299587 
L 636.378585 257.299587 
L 636.648437 239.712412 
L 637.095235 209.562981 
L 637.441459 181.926003 
L 637.488583 181.926003 
L 637.681591 171.876189 
L 637.858389 166.851282 
L 665.233935 166.851282 
L 665.366661 164.338828 
L 673.012573 164.338828 
L 673.282485 154.289014 
L 673.282485 154.289014 
L 673.325627 154.289014 
L 673.55287 136.701839 
L 673.598863 136.701839 
L 673.859872 116.602222 
L 674.181234 91.477697 
L 674.227884 91.477697 
L 674.494756 73.890528 
L 674.636503 68.86561 
L 674.636503 68.86561 
L 674.806662 68.86561 
L 674.937606 66.353156 
L 704.472108 66.353156 
L 704.515013 151.77656 
L 704.604913 141.726746 
L 705.008277 88.965244 
L 705.27834 66.353156 
L 711.94899 66.353156 
L 712.215124 76.402982 
L 712.260833 76.402982 
L 712.491453 93.990145 
L 712.536028 93.990145 
L 712.766503 109.064861 
L 713.025674 131.676938 
L 713.071745 131.676938 
L 713.250388 146.751653 
L 713.611051 161.826375 
L 741.646025 161.826375 
L 741.780938 164.338828 
L 748.231016 164.338828 
L 748.231016 164.338828 
" clip-path="url(#pf99bc9cddb)" style="fill: none; stroke: #2563eb; stroke-width: 1.6; stroke-linecap: square"/>
   </g>
   <g id="line2d_26">
    <path d="M 88.851328 164.338828 
L 96.051708 164.338828 
L 96.051708 164.338828 
L 96.237878 24.758075 
L 114.566237 24.758075 
L 114.566237 24.758075 
L 114.741968 65.640329 
L 152.437302 65.640329 
L 152.536317 164.338828 
L 192.304172 164.338828 
L 192.447259 263.037328 
L 238.479676 263.037328 
L 238.479676 263.037328 
L 238.627573 303.919581 
L 286.750997 303.919581 
L 286.881994 263.037328 
L 324.598899 263.037328 
L 324.76301 164.338828 
L 363.526057 164.338828 
L 363.652019 65.640329 
L 377.672276 65.640329 
L 377.775255 24.758075 
L 377.775255 24.758075 
L 418.49727 24.758075 
L 418.606582 65.640329 
L 475.768552 65.640329 
L 475.894585 164.338828 
L 521.963407 164.338828 
L 522.080693 263.037328 
L 558.968054 263.037328 
L 559.055529 303.919581 
L 559.055529 303.919581 
L 597.938849 303.919581 
L 598.039523 263.037328 
L 635.751941 263.037328 
L 635.85294 164.338828 
L 672.567611 164.338828 
L 672.710532 65.640329 
L 711.516124 65.640329 
L 711.634888 164.338828 
L 748.231016 164.338828 
L 748.231016 164.338828 
" clip-path="url(#pf99bc9cddb)" style="fill: none; stroke-dasharray: 1.3,2.145; stroke-dashoffset: 0; stroke: #2563eb; stroke-opacity: 0.9; stroke-width: 1.3"/>
   </g>
   <g id="line2d_27">
    <path d="M 88.851328 164.338828 
L 114.926741 164.338828 
L 115.144102 156.801467 
L 115.144102 156.801467 
L 115.192355 156.801467 
L 116.133924 109.064861 
L 116.224947 109.064861 
L 116.366576 106.552408 
L 144.775432 106.552408 
L 144.775432 106.552408 
L 144.820558 146.751653 
L 144.911015 136.701839 
L 145.26841 106.552408 
L 145.26841 106.552408 
L 153.061795 106.552408 
L 153.198791 104.03996 
L 153.24453 104.03996 
L 153.421612 99.015053 
L 153.556336 99.015053 
L 153.772929 91.477697 
L 153.865995 91.477697 
L 154.000864 88.965244 
L 154.046675 88.965244 
L 154.046675 88.965244 
L 154.22617 83.940337 
L 154.601812 83.940337 
L 154.722793 81.427883 
L 182.988515 81.427883 
L 183.136679 151.77656 
L 185.073196 151.77656 
L 185.790656 81.427883 
L 193.061865 81.427883 
L 193.245376 86.45279 
L 193.335212 86.45279 
L 193.335212 86.45279 
L 193.515921 91.477697 
L 193.65658 91.477697 
L 193.884228 99.015053 
L 194.06047 99.015053 
L 194.191662 101.527506 
L 194.332486 101.527506 
L 194.470613 104.03996 
L 222.258452 104.03996 
L 222.292938 151.77656 
L 222.380897 141.726746 
L 222.519453 136.701839 
L 227.36606 136.701839 
L 227.509746 151.77656 
L 231.369582 151.77656 
L 231.369582 151.77656 
L 231.86305 106.552408 
L 231.86305 106.552408 
L 238.808592 106.552408 
L 238.971576 111.577315 
L 239.016119 111.577315 
L 239.237395 119.114675 
L 239.288928 119.114675 
L 239.603131 141.726746 
L 239.646067 141.726746 
L 239.875228 156.801467 
L 239.922758 156.801467 
L 240.094984 161.826375 
L 278.658424 161.826375 
L 278.793227 164.338828 
L 287.067478 164.338828 
L 287.245582 169.363735 
L 287.291347 169.363735 
L 288.288793 219.612795 
L 288.383627 219.612795 
L 288.516244 222.125249 
L 288.516244 222.125249 
L 316.890665 222.125249 
L 316.939147 179.413549 
L 317.034403 191.975817 
L 317.387199 222.125249 
L 325.234941 222.125249 
L 325.369538 224.637697 
L 325.416005 224.637697 
L 325.416005 224.637697 
L 325.594028 229.662604 
L 325.731631 229.662604 
L 325.919799 234.687511 
L 325.988124 234.687511 
L 326.16585 239.712412 
L 326.209228 239.712412 
L 326.388083 244.737319 
L 326.742326 244.737319 
L 326.883684 247.249773 
L 354.129845 247.249773 
L 354.276727 176.901096 
L 356.254862 176.901096 
L 357.004539 247.249773 
L 364.281722 247.249773 
L 364.460372 242.224866 
L 364.552375 242.224866 
L 364.731396 237.199959 
L 364.866693 237.199959 
L 364.866693 237.199959 
L 365.089635 229.662604 
L 365.268807 229.662604 
L 365.408997 227.15015 
L 365.408997 227.15015 
L 365.586534 227.15015 
L 365.71923 224.637697 
L 370.322647 224.637697 
L 370.368263 181.926003 
L 370.462649 191.975817 
L 370.717506 222.125249 
L 377.999438 222.125249 
L 378.221033 214.587888 
L 378.304291 214.587888 
L 378.767201 186.95091 
L 378.813205 186.95091 
L 379.034012 171.876189 
L 379.125547 171.876189 
L 379.125547 171.876189 
L 379.305865 166.851282 
L 410.581676 166.851282 
L 410.721754 164.338828 
L 418.783378 164.338828 
L 418.964665 159.313921 
L 419.00892 159.313921 
L 419.938548 109.064861 
L 420.123807 109.064861 
L 420.245542 106.552408 
L 449.014424 106.552408 
L 449.106158 151.77656 
L 456.893837 151.77656 
L 457.029418 139.214293 
L 457.207813 126.65203 
L 461.919198 126.65203 
L 461.965749 151.77656 
L 462.010941 144.2392 
L 462.241904 129.164484 
L 467.970262 129.164484 
L 468.034963 146.751653 
L 468.084415 139.214293 
L 468.483864 106.552408 
L 476.39853 106.552408 
L 476.536879 104.03996 
L 476.625578 104.03996 
L 476.80359 99.015053 
L 476.892079 99.015053 
L 477.073789 93.990145 
L 477.116508 93.990145 
L 477.296352 88.965244 
L 477.432304 88.965244 
L 477.60511 83.940337 
L 477.930691 83.940337 
L 477.930691 83.940337 
L 478.06449 81.427883 
L 506.19237 81.427883 
L 506.238974 151.77656 
L 506.330144 139.214293 
L 506.551435 124.139577 
L 506.551435 124.139577 
L 510.417176 124.139577 
L 510.553448 151.77656 
L 510.553448 151.77656 
L 514.276103 151.77656 
L 514.410396 139.214293 
L 514.726966 99.015053 
L 514.726966 99.015053 
L 514.997427 81.427883 
L 522.687066 81.427883 
L 522.870859 86.45279 
L 523.001487 86.45279 
L 523.182817 91.477697 
L 523.319048 91.477697 
L 523.53838 99.015053 
L 523.53838 99.015053 
L 523.715804 99.015053 
L 523.854885 101.527506 
L 523.988917 101.527506 
L 524.120682 104.03996 
L 551.464184 104.03996 
L 551.511229 151.77656 
L 551.598303 141.726746 
L 552.005364 106.552408 
L 559.280995 106.552408 
L 559.50499 114.089768 
L 559.59754 114.089768 
L 559.77764 124.139577 
L 560.575902 161.826375 
L 589.732561 161.826375 
L 589.855153 164.338828 
L 598.262342 164.338828 
L 598.487305 171.876189 
L 598.57621 171.876189 
L 598.839826 189.463364 
L 599.459989 219.612795 
L 599.5568 219.612795 
L 599.5568 219.612795 
L 599.688914 222.125249 
L 627.305565 222.125249 
L 627.433056 176.901096 
L 627.978061 176.901096 
L 628.11325 189.463364 
L 628.479529 222.125249 
L 636.378585 222.125249 
L 636.378585 222.125249 
L 636.518313 224.637697 
L 636.560393 224.637697 
L 636.747595 229.662604 
L 636.869902 229.662604 
L 637.095235 237.199959 
L 637.183009 237.199959 
L 637.311602 239.712412 
L 637.353046 239.712412 
L 637.548514 244.737319 
L 637.858389 244.737319 
L 637.99275 247.249773 
L 665.233935 247.249773 
L 665.276131 179.413549 
L 665.366661 191.975817 
L 665.953915 247.249773 
L 673.325627 247.249773 
L 673.508015 242.224866 
L 673.598863 242.224866 
L 673.772203 237.199959 
L 673.902581 237.199959 
L 673.902581 237.199959 
L 674.133969 229.662604 
L 674.318008 229.662604 
L 674.450162 227.15015 
L 674.590003 227.15015 
L 674.711808 224.637697 
L 704.472108 224.637697 
L 704.515013 176.901096 
L 704.604913 186.95091 
L 704.875136 222.125249 
L 704.875136 222.125249 
L 712.040838 222.125249 
L 712.215124 217.100342 
L 712.260833 217.100342 
L 712.721618 197.000719 
L 712.766503 197.000719 
L 712.932098 186.95091 
L 713.207496 176.901096 
L 713.250388 176.901096 
L 713.473238 169.363735 
L 713.563415 169.363735 
L 713.699911 166.851282 
L 741.646025 166.851282 
L 741.780938 164.338828 
L 748.231016 164.338828 
L 748.231016 164.338828 
" clip-path="url(#pf99bc9cddb)" style="fill: none; stroke: #16a34a; stroke-width: 1.6; stroke-linecap: square"/>
   </g>
   <g id="line2d_28">
    <path d="M 88.851328 164.338828 
L 114.566237 164.338828 
L 114.566237 164.338828 
L 114.741968 105.119728 
L 152.437302 105.119728 
L 152.536317 80.590376 
L 192.304172 80.590376 
L 192.447259 105.119728 
L 238.479676 105.119728 
L 238.479676 105.119728 
L 238.627573 164.338828 
L 286.750997 164.338828 
L 286.881994 223.557928 
L 324.598899 223.557928 
L 324.76301 248.08728 
L 363.526057 248.08728 
L 363.652019 223.557928 
L 377.672276 223.557928 
L 377.775255 164.338828 
L 377.775255 164.338828 
L 418.49727 164.338828 
L 418.606582 105.119728 
L 475.768552 105.119728 
L 475.894585 80.590376 
L 521.963407 80.590376 
L 522.080693 105.119728 
L 558.968054 105.119728 
L 559.055529 164.338828 
L 559.055529 164.338828 
L 597.938849 164.338828 
L 598.039523 223.557928 
L 635.751941 223.557928 
L 635.85294 248.08728 
L 672.567611 248.08728 
L 672.710532 223.557928 
L 711.516124 223.557928 
L 711.634888 164.338828 
L 748.231016 164.338828 
L 748.231016 164.338828 
" clip-path="url(#pf99bc9cddb)" style="fill: none; stroke-dasharray: 1.3,2.145; stroke-dashoffset: 0; stroke: #16a34a; stroke-opacity: 0.9; stroke-width: 1.3"/>
   </g>
   <g id="line2d_29">
    <path d="M 88.851328 164.338828 
L 96.809304 164.338828 
L 96.994551 159.313921 
L 97.038973 159.313921 
L 97.038973 159.313921 
L 97.269994 151.77656 
L 97.356009 151.77656 
L 97.575291 144.2392 
L 97.622638 144.2392 
L 97.622638 144.2392 
L 97.850001 136.701839 
L 97.941472 136.701839 
L 98.187535 129.164484 
L 98.368168 129.164484 
L 98.521024 126.65203 
L 104.462389 126.65203 
L 104.542992 149.264107 
L 104.587346 141.726746 
L 106.490729 141.726746 
L 106.490729 141.726746 
L 106.580142 149.264107 
L 106.624433 144.2392 
L 106.896732 126.65203 
L 115.020337 126.65203 
L 115.192355 131.676938 
L 115.459293 141.726746 
L 115.502383 141.726746 
L 115.862155 156.801467 
L 115.90513 156.801467 
L 116.082701 161.826375 
L 144.775432 161.826375 
L 144.775432 161.826375 
L 144.911015 164.338828 
L 152.925724 164.338828 
L 153.061795 166.851282 
L 153.155516 166.851282 
L 153.376914 174.388642 
L 153.469889 174.388642 
L 153.772929 186.95091 
L 153.865995 186.95091 
L 154.091539 194.488271 
L 154.134639 194.488271 
L 154.319907 199.513172 
L 154.45669 199.513172 
L 154.601812 202.025626 
L 182.988515 202.025626 
L 183.136679 176.901096 
L 185.073196 176.901096 
L 185.391604 202.025626 
L 193.061865 202.025626 
L 193.201438 204.538079 
L 193.245376 204.538079 
L 193.379074 207.050533 
L 193.424105 207.050533 
L 193.560736 209.562981 
L 193.65658 209.562981 
L 193.793187 212.075434 
L 193.836587 212.075434 
L 193.971301 214.587888 
L 194.06047 214.587888 
L 194.191662 217.100342 
L 194.470613 217.100342 
L 194.604718 219.612795 
L 222.258452 219.612795 
L 222.292938 176.901096 
L 222.380897 186.95091 
L 222.519453 191.975817 
L 227.36606 191.975817 
L 227.509746 176.901096 
L 231.369582 176.901096 
L 231.369582 176.901096 
L 231.81679 219.612795 
L 239.146363 219.612795 
L 239.146363 219.612795 
L 239.338618 214.587888 
L 239.422372 214.587888 
L 239.603131 209.562981 
L 239.746237 209.562981 
L 239.875228 207.050533 
L 240.051645 207.050533 
L 240.186324 204.538079 
L 278.658424 204.538079 
L 278.702625 181.926003 
L 278.793227 191.975817 
L 278.975055 202.025626 
L 287.197229 202.025626 
L 287.197229 202.025626 
L 287.434109 194.488271 
L 287.484968 194.488271 
L 287.800161 181.926003 
L 287.800161 181.926003 
L 287.976271 174.388642 
L 288.155738 169.363735 
L 288.200785 169.363735 
L 288.334189 166.851282 
L 316.890665 166.851282 
L 317.034403 164.338828 
L 325.086136 164.338828 
L 325.234941 161.826375 
L 325.325372 161.826375 
L 325.549969 154.289014 
L 325.640595 154.289014 
L 325.919799 144.2392 
L 325.988124 144.2392 
L 326.252099 134.189386 
L 326.343925 134.189386 
L 326.519114 129.164484 
L 326.653679 129.164484 
L 326.791929 126.65203 
L 354.129845 126.65203 
L 354.276727 151.77656 
L 356.254862 151.77656 
L 356.55287 126.65203 
L 356.55287 126.65203 
L 364.281722 126.65203 
L 364.417557 124.139577 
L 364.460372 124.139577 
L 364.596598 121.627123 
L 364.641649 121.627123 
L 364.776246 119.114675 
L 364.866693 119.114675 
L 364.866693 119.114675 
L 365.000349 116.602222 
L 365.044569 116.602222 
L 365.181733 114.089768 
L 365.268807 114.089768 
L 365.408997 111.577315 
L 365.408997 111.577315 
L 365.676032 111.577315 
L 365.810633 109.064861 
L 370.322647 109.064861 
L 370.368263 146.751653 
L 370.462649 136.701839 
L 370.717506 109.064861 
L 378.304291 109.064861 
L 378.516451 114.089768 
L 378.584244 114.089768 
L 378.584244 114.089768 
L 378.767201 119.114675 
L 378.907275 119.114675 
L 379.034012 121.627123 
L 379.216013 121.627123 
L 379.352904 124.139577 
L 410.581676 124.139577 
L 410.627733 151.77656 
L 410.675095 146.751653 
L 410.902515 126.65203 
L 418.918417 126.65203 
L 419.141836 134.189386 
L 419.184809 134.189386 
L 419.184809 134.189386 
L 419.544341 149.264107 
L 419.627192 149.264107 
L 419.76344 156.801467 
L 419.76344 156.801467 
L 419.985381 161.826375 
L 449.014424 161.826375 
L 449.106158 164.338828 
L 476.310436 164.338828 
L 476.444551 166.851282 
L 476.490534 166.851282 
L 476.669382 171.876189 
L 476.716354 171.876189 
L 476.716354 171.876189 
L 476.982885 181.926003 
L 477.029148 181.926003 
L 477.251779 189.463364 
L 477.296352 189.463364 
L 477.475607 194.488271 
L 477.516598 194.488271 
L 477.516598 194.488271 
L 477.694932 199.513172 
L 477.794693 199.513172 
L 477.930691 202.025626 
L 477.930691 202.025626 
L 506.19237 202.025626 
L 506.238974 176.901096 
L 506.284083 181.926003 
L 506.506527 202.025626 
L 510.417176 202.025626 
L 510.553448 174.388642 
L 510.553448 174.388642 
L 514.276103 174.388642 
L 514.548335 202.025626 
L 522.687066 202.025626 
L 522.822042 204.538079 
L 522.91482 204.538079 
L 523.047492 207.050533 
L 523.09339 207.050533 
L 523.225168 209.562981 
L 523.319048 209.562981 
L 523.450916 212.075434 
L 523.492723 212.075434 
L 523.625936 214.587888 
L 523.715804 214.587888 
L 523.854885 217.100342 
L 524.120682 217.100342 
L 524.257962 219.612795 
L 551.464184 219.612795 
L 551.511229 176.901096 
L 551.598303 186.95091 
L 551.957277 219.612795 
L 559.59754 219.612795 
L 559.77764 214.587888 
L 559.860822 214.587888 
L 560.038917 209.562981 
L 560.172347 209.562981 
L 560.311357 207.050533 
L 560.311357 207.050533 
L 560.486762 207.050533 
L 560.623812 204.538079 
L 589.732561 204.538079 
L 589.777056 179.413549 
L 589.855153 186.95091 
L 590.03821 202.025626 
L 598.349126 202.025626 
L 598.528159 197.000719 
L 598.57621 197.000719 
L 598.929251 181.926003 
L 598.972744 181.926003 
L 599.285395 169.363735 
L 599.374741 169.363735 
L 599.513057 166.851282 
L 627.305565 166.851282 
L 627.433056 164.338828 
L 636.247732 164.338828 
L 636.378585 161.826375 
L 636.378585 161.826375 
L 636.470302 161.826375 
L 636.692415 154.289014 
L 636.783459 154.289014 
L 637.095235 141.726746 
L 637.183009 141.726746 
L 637.398515 134.189386 
L 637.488583 134.189386 
L 637.681591 129.164484 
L 637.770454 129.164484 
L 637.902452 126.65203 
L 665.233935 126.65203 
L 665.276131 149.264107 
L 665.323368 141.726746 
L 665.547241 126.65203 
L 673.325627 126.65203 
L 673.460468 124.139577 
L 673.508015 124.139577 
L 673.642466 121.627123 
L 673.728418 121.627123 
L 673.859872 119.114675 
L 673.902581 119.114675 
L 673.902581 119.114675 
L 674.040494 116.602222 
L 674.087564 116.602222 
L 674.227884 114.089768 
L 674.318008 114.089768 
L 674.450162 111.577315 
L 674.711808 111.577315 
L 674.852713 109.064861 
L 704.472108 109.064861 
L 704.515013 151.77656 
L 704.604913 141.726746 
L 704.875136 109.064861 
L 704.875136 109.064861 
L 712.040838 109.064861 
L 712.215124 114.089768 
L 712.260833 114.089768 
L 712.721618 134.189386 
L 712.766503 134.189386 
L 713.025674 146.751653 
L 713.071745 146.751653 
L 713.381181 159.313921 
L 713.563415 159.313921 
L 713.699911 161.826375 
L 741.646025 161.826375 
L 741.780938 164.338828 
L 748.231016 164.338828 
L 748.231016 164.338828 
" clip-path="url(#pf99bc9cddb)" style="fill: none; stroke: #dc2626; stroke-width: 1.6; stroke-linecap: square"/>
   </g>
   <g id="line2d_30">
    <path d="M 88.851328 164.338828 
L 96.051708 164.338828 
L 96.051708 164.338828 
L 96.237878 124.859428 
L 114.566237 124.859428 
L 114.566237 124.859428 
L 114.741968 164.338828 
L 152.437302 164.338828 
L 152.536317 203.818228 
L 192.304172 203.818228 
L 192.447259 220.171129 
L 238.479676 220.171129 
L 238.479676 220.171129 
L 238.627573 203.818228 
L 286.750997 203.818228 
L 286.881994 164.338828 
L 324.598899 164.338828 
L 324.76301 124.859428 
L 363.526057 124.859428 
L 363.652019 108.506527 
L 377.672276 108.506527 
L 377.775255 124.859428 
L 377.775255 124.859428 
L 418.49727 124.859428 
L 418.606582 164.338828 
L 475.768552 164.338828 
L 475.894585 203.818228 
L 521.963407 203.818228 
L 522.080693 220.171129 
L 558.968054 220.171129 
L 559.055529 203.818228 
L 559.055529 203.818228 
L 597.938849 203.818228 
L 598.039523 164.338828 
L 635.751941 164.338828 
L 635.85294 124.859428 
L 672.567611 124.859428 
L 672.710532 108.506527 
L 711.516124 108.506527 
L 711.634888 164.338828 
L 748.231016 164.338828 
L 748.231016 164.338828 
" clip-path="url(#pf99bc9cddb)" style="fill: none; stroke-dasharray: 1.3,2.145; stroke-dashoffset: 0; stroke: #dc2626; stroke-opacity: 0.9; stroke-width: 1.3"/>
   </g>
   <g id="patch_3">
    <path d="M 55.882344 317.877656 
L 55.882344 10.8 
" style="fill: none; stroke: #000000; stroke-width: 0.8; stroke-linejoin: miter; stroke-linecap: square"/>
   </g>
   <g id="patch_4">
    <path d="M 781.2 317.877656 
L 781.2 10.8 
" style="fill: none; stroke: #000000; stroke-width: 0.8; stroke-linejoin: miter; stroke-linecap: square"/>
   </g>
   <g id="patch_5">
    <path d="M 55.882344 317.877656 
L 781.2 317.877656 
" style="fill: none; stroke: #000000; stroke-width: 0.8; stroke-linejoin: miter; stroke-linecap: square"/>
   </g>
   <g id="patch_6">
    <path d="M 55.882344 10.8 
L 781.2 10.8 
" style="fill: none; stroke: #000000; stroke-width: 0.8; stroke-linejoin: miter; stroke-linecap: square"/>
   </g>
   <g id="text_15">
    <!-- Controlador ESP32-S3 (QEMU) — malha fechada PID -->
    <g style="fill: #374151" transform="translate(63.13552 23.780147) scale(0.09 -0.09)">
     <defs>
      <path id="DejaVuSans-26" d="M 4122 4306 
L 4122 3641 
Q 3803 3938 3442 4084 
Q 3081 4231 2675 4231 
Q 1875 4231 1450 3742 
Q 1025 3253 1025 2328 
Q 1025 1406 1450 917 
Q 1875 428 2675 428 
Q 3081 428 3442 575 
Q 3803 722 4122 1019 
L 4122 359 
Q 3791 134 3420 21 
Q 3050 -91 2638 -91 
Q 1578 -91 968 557 
Q 359 1206 359 2328 
Q 359 3453 968 4101 
Q 1578 4750 2638 4750 
Q 3056 4750 3426 4639 
Q 3797 4528 4122 4306 
z
" transform="scale(0.015625)"/>
      <path id="DejaVuSans-55" d="M 2631 2963 
Q 2534 3019 2420 3045 
Q 2306 3072 2169 3072 
Q 1681 3072 1420 2755 
Q 1159 2438 1159 1844 
L 1159 0 
L 581 0 
L 581 3500 
L 1159 3500 
L 1159 2956 
Q 1341 3275 1631 3429 
Q 1922 3584 2338 3584 
Q 2397 3584 2469 3576 
Q 2541 3569 2628 3553 
L 2631 2963 
z
" transform="scale(0.015625)"/>
      <path id="DejaVuSans-28" d="M 628 4666 
L 3578 4666 
L 3578 4134 
L 1259 4134 
L 1259 2753 
L 3481 2753 
L 3481 2222 
L 1259 2222 
L 1259 531 
L 3634 531 
L 3634 0 
L 628 0 
L 628 4666 
z
" transform="scale(0.015625)"/>
      <path id="DejaVuSans-36" d="M 3425 4513 
L 3425 3897 
Q 3066 4069 2747 4153 
Q 2428 4238 2131 4238 
Q 1616 4238 1336 4038 
Q 1056 3838 1056 3469 
Q 1056 3159 1242 3001 
Q 1428 2844 1947 2747 
L 2328 2669 
Q 3034 2534 3370 2195 
Q 3706 1856 3706 1288 
Q 3706 609 3251 259 
Q 2797 -91 1919 -91 
Q 1588 -91 1214 -16 
Q 841 59 441 206 
L 441 856 
Q 825 641 1194 531 
Q 1563 422 1919 422 
Q 2459 422 2753 634 
Q 3047 847 3047 1241 
Q 3047 1584 2836 1778 
Q 2625 1972 2144 2069 
L 1759 2144 
Q 1053 2284 737 2584 
Q 422 2884 422 3419 
Q 422 4038 858 4394 
Q 1294 4750 2059 4750 
Q 2388 4750 2728 4690 
Q 3069 4631 3425 4513 
z
" transform="scale(0.015625)"/>
      <path id="DejaVuSans-33" d="M 1259 4147 
L 1259 2394 
L 2053 2394 
Q 2494 2394 2734 2622 
Q 2975 2850 2975 3272 
Q 2975 3691 2734 3919 
Q 2494 4147 2053 4147 
L 1259 4147 
z
M 628 4666 
L 2053 4666 
Q 2838 4666 3239 4311 
Q 3641 3956 3641 3272 
Q 3641 2581 3239 2228 
Q 2838 1875 2053 1875 
L 1259 1875 
L 1259 0 
L 628 0 
L 628 4666 
z
" transform="scale(0.015625)"/>
      <path id="DejaVuSans-10" d="M 313 2009 
L 1997 2009 
L 1997 1497 
L 313 1497 
L 313 2009 
z
" transform="scale(0.015625)"/>
      <path id="DejaVuSans-34" d="M 2522 4238 
Q 1834 4238 1429 3725 
Q 1025 3213 1025 2328 
Q 1025 1447 1429 934 
Q 1834 422 2522 422 
Q 3209 422 3611 934 
Q 4013 1447 4013 2328 
Q 4013 3213 3611 3725 
Q 3209 4238 2522 4238 
z
M 3406 84 
L 4238 -825 
L 3475 -825 
L 2784 -78 
Q 2681 -84 2626 -87 
Q 2572 -91 2522 -91 
Q 1538 -91 948 567 
Q 359 1225 359 2328 
Q 359 3434 948 4092 
Q 1538 4750 2522 4750 
Q 3503 4750 4090 4092 
Q 4678 3434 4678 2328 
Q 4678 1516 4351 937 
Q 4025 359 3406 84 
z
" transform="scale(0.015625)"/>
      <path id="DejaVuSans-30" d="M 628 4666 
L 1569 4666 
L 2759 1491 
L 3956 4666 
L 4897 4666 
L 4897 0 
L 4281 0 
L 4281 4097 
L 3078 897 
L 2444 897 
L 1241 4097 
L 1241 0 
L 628 0 
L 628 4666 
z
" transform="scale(0.015625)"/>
      <path id="DejaVuSans-38" d="M 556 4666 
L 1191 4666 
L 1191 1831 
Q 1191 1081 1462 751 
Q 1734 422 2344 422 
Q 2950 422 3222 751 
Q 3494 1081 3494 1831 
L 3494 4666 
L 4128 4666 
L 4128 1753 
Q 4128 841 3676 375 
Q 3225 -91 2344 -91 
Q 1459 -91 1007 375 
Q 556 841 556 1753 
L 556 4666 
z
" transform="scale(0.015625)"/>
      <path id="DejaVuSans-af6" d="M 313 1978 
L 6088 1978 
L 6088 1528 
L 313 1528 
L 313 1978 
z
" transform="scale(0.015625)"/>
      <path id="DejaVuSans-4b" d="M 3513 2113 
L 3513 0 
L 2938 0 
L 2938 2094 
Q 2938 2591 2744 2837 
Q 2550 3084 2163 3084 
Q 1697 3084 1428 2787 
Q 1159 2491 1159 1978 
L 1159 0 
L 581 0 
L 581 4863 
L 1159 4863 
L 1159 2956 
Q 1366 3272 1645 3428 
Q 1925 3584 2291 3584 
Q 2894 3584 3203 3211 
Q 3513 2838 3513 2113 
z
" transform="scale(0.015625)"/>
      <path id="DejaVuSans-49" d="M 2375 4863 
L 2375 4384 
L 1825 4384 
Q 1516 4384 1395 4259 
Q 1275 4134 1275 3809 
L 1275 3500 
L 2222 3500 
L 2222 3053 
L 1275 3053 
L 1275 0 
L 697 0 
L 697 3053 
L 147 3053 
L 147 3500 
L 697 3500 
L 697 3744 
Q 697 4328 969 4595 
Q 1241 4863 1831 4863 
L 2375 4863 
z
" transform="scale(0.015625)"/>
      <path id="DejaVuSans-46" d="M 3122 3366 
L 3122 2828 
Q 2878 2963 2633 3030 
Q 2388 3097 2138 3097 
Q 1578 3097 1268 2742 
Q 959 2388 959 1747 
Q 959 1106 1268 751 
Q 1578 397 2138 397 
Q 2388 397 2633 464 
Q 2878 531 3122 666 
L 3122 134 
Q 2881 22 2623 -34 
Q 2366 -91 2075 -91 
Q 1284 -91 818 406 
Q 353 903 353 1747 
Q 353 2603 823 3093 
Q 1294 3584 2113 3584 
Q 2378 3584 2631 3529 
Q 2884 3475 3122 3366 
z
" transform="scale(0.015625)"/>
      <path id="DejaVuSans-2c" d="M 628 4666 
L 1259 4666 
L 1259 0 
L 628 0 
L 628 4666 
z
" transform="scale(0.015625)"/>
      <path id="DejaVuSans-27" d="M 1259 4147 
L 1259 519 
L 2022 519 
Q 2988 519 3436 956 
Q 3884 1394 3884 2338 
Q 3884 3275 3436 3711 
Q 2988 4147 2022 4147 
L 1259 4147 
z
M 628 4666 
L 1925 4666 
Q 3281 4666 3915 4102 
Q 4550 3538 4550 2338 
Q 4550 1131 3912 565 
Q 3275 0 1925 0 
L 628 0 
L 628 4666 
z
" transform="scale(0.015625)"/>
     </defs>
     <use xlink:href="#DejaVuSans-26"/>
     <use xlink:href="#DejaVuSans-52" transform="translate(69.828125 0)"/>
     <use xlink:href="#DejaVuSans-51" transform="translate(131.015625 0)"/>
     <use xlink:href="#DejaVuSans-57" transform="translate(194.390625 0)"/>
     <use xlink:href="#DejaVuSans-55" transform="translate(233.59375 0)"/>
     <use xlink:href="#DejaVuSans-52" transform="translate(272.5 0)"/>
     <use xlink:href="#DejaVuSans-4f" transform="translate(333.6875 0)"/>
     <use xlink:href="#DejaVuSans-44" transform="translate(361.46875 0)"/>
     <use xlink:href="#DejaVuSans-47" transform="translate(422.75 0)"/>
     <use xlink:href="#DejaVuSans-52" transform="translate(486.234375 0)"/>
     <use xlink:href="#DejaVuSans-55" transform="translate(547.421875 0)"/>
     <use xlink:href="#DejaVuSans-3" transform="translate(588.53125 0)"/>
     <use xlink:href="#DejaVuSans-28" transform="translate(620.3125 0)"/>
     <use xlink:href="#DejaVuSans-36" transform="translate(683.5 0)"/>
     <use xlink:href="#DejaVuSans-33" transform="translate(746.984375 0)"/>
     <use xlink:href="#DejaVuSans-16" transform="translate(807.28125 0)"/>
     <use xlink:href="#DejaVuSans-15" transform="translate(870.90625 0)"/>
     <use xlink:href="#DejaVuSans-10" transform="translate(934.53125 0)"/>
     <use xlink:href="#DejaVuSans-36" transform="translate(970.609375 0)"/>
     <use xlink:href="#DejaVuSans-16" transform="translate(1034.09375 0)"/>
     <use xlink:href="#DejaVuSans-3" transform="translate(1097.71875 0)"/>
     <use xlink:href="#DejaVuSans-b" transform="translate(1129.5 0)"/>
     <use xlink:href="#DejaVuSans-34" transform="translate(1168.515625 0)"/>
     <use xlink:href="#DejaVuSans-28" transform="translate(1247.234375 0)"/>
     <use xlink:href="#DejaVuSans-30" transform="translate(1310.421875 0)"/>
     <use xlink:href="#DejaVuSans-38" transform="translate(1396.703125 0)"/>
     <use xlink:href="#DejaVuSans-c" transform="translate(1469.890625 0)"/>
     <use xlink:href="#DejaVuSans-3" transform="translate(1508.90625 0)"/>
     <use xlink:href="#DejaVuSans-af6" transform="translate(1540.6875 0)"/>
     <use xlink:href="#DejaVuSans-3" transform="translate(1640.6875 0)"/>
     <use xlink:href="#DejaVuSans-50" transform="translate(1672.46875 0)"/>
     <use xlink:href="#DejaVuSans-44" transform="translate(1769.875 0)"/>
     <use xlink:href="#DejaVuSans-4f" transform="translate(1831.15625 0)"/>
     <use xlink:href="#DejaVuSans-4b" transform="translate(1858.9375 0)"/>
     <use xlink:href="#DejaVuSans-44" transform="translate(1922.3125 0)"/>
     <use xlink:href="#DejaVuSans-3" transform="translate(1983.59375 0)"/>
     <use xlink:href="#DejaVuSans-49" transform="translate(2015.375 0)"/>
     <use xlink:href="#DejaVuSans-48" transform="translate(2050.578125 0)"/>
     <use xlink:href="#DejaVuSans-46" transform="translate(2112.109375 0)"/>
     <use xlink:href="#DejaVuSans-4b" transform="translate(2167.09375 0)"/>
     <use xlink:href="#DejaVuSans-44" transform="translate(2230.46875 0)"/>
     <use xlink:href="#DejaVuSans-47" transform="translate(2291.75 0)"/>
     <use xlink:href="#DejaVuSans-44" transform="translate(2355.234375 0)"/>
     <use xlink:href="#DejaVuSans-3" transform="translate(2416.515625 0)"/>
     <use xlink:href="#DejaVuSans-33" transform="translate(2448.296875 0)"/>
     <use xlink:href="#DejaVuSans-2c" transform="translate(2508.59375 0)"/>
     <use xlink:href="#DejaVuSans-27" transform="translate(2538.09375 0)"/>
    </g>
   </g>
   <g id="legend_1">
    <g id="patch_7">
     <path d="M 581.745937 37.401094 
L 776.3 37.401094 
Q 777.7 37.401094 777.7 36.001094 
L 777.7 15.7 
Q 777.7 14.3 776.3 14.3 
L 581.745937 14.3 
Q 580.345937 14.3 580.345937 15.7 
L 580.345937 36.001094 
Q 580.345937 37.401094 581.745937 37.401094 
z
" style="fill: #ffffff; opacity: 0.9; stroke: #cccccc; stroke-linejoin: miter"/>
    </g>
    <g id="line2d_31">
     <path d="M 583.145937 19.968906 
L 590.145937 19.968906 
L 597.145937 19.968906 
" style="fill: none; stroke: #2563eb; stroke-width: 1.6; stroke-linecap: square"/>
    </g>
    <g id="text_16">
     <!-- J1 medido -->
     <g transform="translate(602.745937 22.418906) scale(0.07 -0.07)">
      <defs>
       <path id="DejaVuSans-4c" d="M 603 3500 
L 1178 3500 
L 1178 0 
L 603 0 
L 603 3500 
z
M 603 4863 
L 1178 4863 
L 1178 4134 
L 603 4134 
L 603 4863 
z
" transform="scale(0.015625)"/>
      </defs>
      <use xlink:href="#DejaVuSans-2d"/>
      <use xlink:href="#DejaVuSans-14" transform="translate(29.5 0)"/>
      <use xlink:href="#DejaVuSans-3" transform="translate(93.125 0)"/>
      <use xlink:href="#DejaVuSans-50" transform="translate(124.90625 0)"/>
      <use xlink:href="#DejaVuSans-48" transform="translate(222.3125 0)"/>
      <use xlink:href="#DejaVuSans-47" transform="translate(283.84375 0)"/>
      <use xlink:href="#DejaVuSans-4c" transform="translate(347.328125 0)"/>
      <use xlink:href="#DejaVuSans-47" transform="translate(375.109375 0)"/>
      <use xlink:href="#DejaVuSans-52" transform="translate(438.59375 0)"/>
     </g>
    </g>
    <g id="line2d_32">
     <path d="M 583.145937 30.469453 
L 590.145937 30.469453 
L 597.145937 30.469453 
" style="fill: none; stroke-dasharray: 1.3,2.145; stroke-dashoffset: 0; stroke: #2563eb; stroke-opacity: 0.9; stroke-width: 1.3"/>
    </g>
    <g id="text_17">
     <!-- J1 alvo -->
     <g transform="translate(602.745937 32.919453) scale(0.07 -0.07)">
      <defs>
       <path id="DejaVuSans-59" d="M 191 3500 
L 800 3500 
L 1894 563 
L 2988 3500 
L 3597 3500 
L 2284 0 
L 1503 0 
L 191 3500 
z
" transform="scale(0.015625)"/>
      </defs>
      <use xlink:href="#DejaVuSans-2d"/>
      <use xlink:href="#DejaVuSans-14" transform="translate(29.5 0)"/>
      <use xlink:href="#DejaVuSans-3" transform="translate(93.125 0)"/>
      <use xlink:href="#DejaVuSans-44" transform="translate(124.90625 0)"/>
      <use xlink:href="#DejaVuSans-4f" transform="translate(186.1875 0)"/>
      <use xlink:href="#DejaVuSans-59" transform="translate(213.96875 0)"/>
      <use xlink:href="#DejaVuSans-52" transform="translate(273.15625 0)"/>
     </g>
    </g>
    <g id="line2d_33">
     <path d="M 651.730625 19.968906 
L 658.730625 19.968906 
L 665.730625 19.968906 
" style="fill: none; stroke: #16a34a; stroke-width: 1.6; stroke-linecap: square"/>
    </g>
    <g id="text_18">
     <!-- J2 medido -->
     <g transform="translate(671.330625 22.418906) scale(0.07 -0.07)">
      <use xlink:href="#DejaVuSans-2d"/>
      <use xlink:href="#DejaVuSans-15" transform="translate(29.5 0)"/>
      <use xlink:href="#DejaVuSans-3" transform="translate(93.125 0)"/>
      <use xlink:href="#DejaVuSans-50" transform="translate(124.90625 0)"/>
      <use xlink:href="#DejaVuSans-48" transform="translate(222.3125 0)"/>
      <use xlink:href="#DejaVuSans-47" transform="translate(283.84375 0)"/>
      <use xlink:href="#DejaVuSans-4c" transform="translate(347.328125 0)"/>
      <use xlink:href="#DejaVuSans-47" transform="translate(375.109375 0)"/>
      <use xlink:href="#DejaVuSans-52" transform="translate(438.59375 0)"/>
     </g>
    </g>
    <g id="line2d_34">
     <path d="M 651.730625 30.469453 
L 658.730625 30.469453 
L 665.730625 30.469453 
" style="fill: none; stroke-dasharray: 1.3,2.145; stroke-dashoffset: 0; stroke: #16a34a; stroke-opacity: 0.9; stroke-width: 1.3"/>
    </g>
    <g id="text_19">
     <!-- J2 alvo -->
     <g transform="translate(671.330625 32.919453) scale(0.07 -0.07)">
      <use xlink:href="#DejaVuSans-2d"/>
      <use xlink:href="#DejaVuSans-15" transform="translate(29.5 0)"/>
      <use xlink:href="#DejaVuSans-3" transform="translate(93.125 0)"/>
      <use xlink:href="#DejaVuSans-44" transform="translate(124.90625 0)"/>
      <use xlink:href="#DejaVuSans-4f" transform="translate(186.1875 0)"/>
      <use xlink:href="#DejaVuSans-59" transform="translate(213.96875 0)"/>
      <use xlink:href="#DejaVuSans-52" transform="translate(273.15625 0)"/>
     </g>
    </g>
    <g id="line2d_35">
     <path d="M 720.315312 19.968906 
L 727.315312 19.968906 
L 734.315312 19.968906 
" style="fill: none; stroke: #dc2626; stroke-width: 1.6; stroke-linecap: square"/>
    </g>
    <g id="text_20">
     <!-- J3 medido -->
     <g transform="translate(739.915312 22.418906) scale(0.07 -0.07)">
      <use xlink:href="#DejaVuSans-2d"/>
      <use xlink:href="#DejaVuSans-16" transform="translate(29.5 0)"/>
      <use xlink:href="#DejaVuSans-3" transform="translate(93.125 0)"/>
      <use xlink:href="#DejaVuSans-50" transform="translate(124.90625 0)"/>
      <use xlink:href="#DejaVuSans-48" transform="translate(222.3125 0)"/>
      <use xlink:href="#DejaVuSans-47" transform="translate(283.84375 0)"/>
      <use xlink:href="#DejaVuSans-4c" transform="translate(347.328125 0)"/>
      <use xlink:href="#DejaVuSans-47" transform="translate(375.109375 0)"/>
      <use xlink:href="#DejaVuSans-52" transform="translate(438.59375 0)"/>
     </g>
    </g>
    <g id="line2d_36">
     <path d="M 720.315312 30.469453 
L 727.315312 30.469453 
L 734.315312 30.469453 
" style="fill: none; stroke-dasharray: 1.3,2.145; stroke-dashoffset: 0; stroke: #dc2626; stroke-opacity: 0.9; stroke-width: 1.3"/>
    </g>
    <g id="text_21">
     <!-- J3 alvo -->
     <g transform="translate(739.915312 32.919453) scale(0.07 -0.07)">
      <use xlink:href="#DejaVuSans-2d"/>
      <use xlink:href="#DejaVuSans-16" transform="translate(29.5 0)"/>
      <use xlink:href="#DejaVuSans-3" transform="translate(93.125 0)"/>
      <use xlink:href="#DejaVuSans-44" transform="translate(124.90625 0)"/>
      <use xlink:href="#DejaVuSans-4f" transform="translate(186.1875 0)"/>
      <use xlink:href="#DejaVuSans-59" transform="translate(213.96875 0)"/>
      <use xlink:href="#DejaVuSans-52" transform="translate(273.15625 0)"/>
     </g>
    </g>
   </g>
  </g>
 </g>
 <defs>
  <clipPath id="pf99bc9cddb">
   <rect x="55.882344" y="10.8" width="725.317656" height="307.077656"/>
  </clipPath>
 </defs>
</svg>
