<?xml version="1.0" encoding="utf-8" standalone="no"?>
<!DOCTYPE svg PUBLIC "-//W3C//DTD SVG 1.1//EN"
  "http://www.w3.org/Graphics/SVG/1.1/DTD/svg11.dtd">
<svg xmlns:xlink="http://www.w3.org/1999/xlink" width="792pt" height="360pt" viewBox="0 0 792 360" xmlns="http://www.w3.org/2000/svg" version="1.1">
 <metadata>
  <rdf:RDF xmlns:dc="http://purl.org/dc/elements/1.1/" xmlns:cc="http://creativecommons.org/ns#" xmlns:rdf="http://www.w3.org/1999/02/22-rdf-syntax-ns#">
   <cc:Work>
    <dc:type rdf:resource="http://purl.org/dc/dcmitype/StillImage"/>
    <dc:date>2026-06-22T18:21:41.704893</dc:date>
    <dc:format>image/svg+xml</dc:format>
    <dc:creator>
     <cc:Agent>
      <dc:title>Matplotlib v3.11.0, https://matplotlib.org/</dc:title>
     </cc:Agent>
    </dc:creator>
   </cc:Work>
  </rdf:RDF>
 </metadata>
 <defs>
  <style type="text/css">*{stroke-linejoin: round; stroke-linecap: butt}</style>
 </defs>
 <g id="figure_1">
  <g id="patch_1">
   <path d="M 0 360 
L 792 360 
L 792 0 
L 0 0 
z
" style="fill: #ffffff"/>
  </g>
  <g id="axes_1">
   <g id="patch_2">
    <path d="M 55.882344 317.877656 
L 781.2 317.877656 
L 781.2 10.8 
L 55.882344 10.8 
z
" style="fill: #ffffff"/>
   </g>
   <g id="matplotlib.axis_1">
    <g id="xtick_1">
     <g id="line2d_1">
      <path d="M 88.851328 317.877656 
L 88.851328 10.8 
" clip-path="url(#p9524112aa9)" style="fill: none; stroke: #b0b0b0; stroke-opacity: 0.3; stroke-width: 0.5; stroke-linecap: square"/>
     </g>
     <g id="line2d_2">
      <defs>
       <path id="mfff9e86acb" d="M 0 0 
L 0 3.5 
" style="stroke: #000000; stroke-width: 0.8"/>
      </defs>
      <g>
       <use xlink:href="#mfff9e86acb" x="88.851328" y="317.877656" style="stroke: #000000; stroke-width: 0.8"/>
      </g>
     </g>
     <g id="text_1">
      <!-- 0 -->
      <g transform="translate(85.670078 332.475312) scale(0.1 -0.1)">
       <defs>
        <path id="DejaVuSans-13" d="M 2034 4250 
Q 1547 4250 1301 3770 
Q 1056 3291 1056 2328 
Q 1056 1369 1301 889 
Q 1547 409 2034 409 
Q 2525 409 2770 889 
Q 3016 1369 3016 2328 
Q 3016 3291 2770 3770 
Q 2525 4250 2034 4250 
z
M 2034 4750 
Q 2819 4750 3233 4129 
Q 3647 3509 3647 2328 
Q 3647 1150 3233 529 
Q 2819 -91 2034 -91 
Q 1250 -91 836 529 
Q 422 1150 422 2328 
Q 422 3509 836 4129 
Q 1250 4750 2034 4750 
z
" transform="scale(0.015625)"/>
       </defs>
       <use xlink:href="#DejaVuSans-13"/>
      </g>
     </g>
    </g>
    <g id="xtick_2">
     <g id="line2d_3">
      <path d="M 189.650452 317.877656 
L 189.650452 10.8 
" clip-path="url(#p9524112aa9)" style="fill: none; stroke: #b0b0b0; stroke-opacity: 0.3; stroke-width: 0.5; stroke-linecap: square"/>
     </g>
     <g id="line2d_4">
      <g>
       <use xlink:href="#mfff9e86acb" x="189.650452" y="317.877656" style="stroke: #000000; stroke-width: 0.8"/>
      </g>
     </g>
     <g id="text_2">
      <!-- 50 -->
      <g transform="translate(183.287952 332.475312) scale(0.1 -0.1)">
       <defs>
        <path id="DejaVuSans-18" d="M 691 4666 
L 3169 4666 
L 3169 4134 
L 1269 4134 
L 1269 2991 
Q 1406 3038 1543 3061 
Q 1681 3084 1819 3084 
Q 2600 3084 3056 2656 
Q 3513 2228 3513 1497 
Q 3513 744 3044 326 
Q 2575 -91 1722 -91 
Q 1428 -91 1123 -41 
Q 819 9 494 109 
L 494 744 
Q 775 591 1075 516 
Q 1375 441 1709 441 
Q 2250 441 2565 725 
Q 2881 1009 2881 1497 
Q 2881 1984 2565 2268 
Q 2250 2553 1709 2553 
Q 1456 2553 1204 2497 
Q 953 2441 691 2322 
L 691 4666 
z
" transform="scale(0.015625)"/>
       </defs>
       <use xlink:href="#DejaVuSans-18"/>
       <use xlink:href="#DejaVuSans-13" transform="translate(63.625 0)"/>
      </g>
     </g>
    </g>
    <g id="xtick_3">
     <g id="line2d_5">
      <path d="M 290.449575 317.877656 
L 290.449575 10.8 
" clip-path="url(#p9524112aa9)" style="fill: none; stroke: #b0b0b0; stroke-opacity: 0.3; stroke-width: 0.5; stroke-linecap: square"/>
     </g>
     <g id="line2d_6">
      <g>
       <use xlink:href="#mfff9e86acb" x="290.449575" y="317.877656" style="stroke: #000000; stroke-width: 0.8"/>
      </g>
     </g>
     <g id="text_3">
      <!-- 100 -->
      <g transform="translate(280.905825 332.475312) scale(0.1 -0.1)">
       <defs>
        <path id="DejaVuSans-14" d="M 794 531 
L 1825 531 
L 1825 4091 
L 703 3866 
L 703 4441 
L 1819 4666 
L 2450 4666 
L 2450 531 
L 3481 531 
L 3481 0 
L 794 0 
L 794 531 
z
" transform="scale(0.015625)"/>
       </defs>
       <use xlink:href="#DejaVuSans-14"/>
       <use xlink:href="#DejaVuSans-13" transform="translate(63.625 0)"/>
       <use xlink:href="#DejaVuSans-13" transform="translate(127.25 0)"/>
      </g>
     </g>
    </g>
    <g id="xtick_4">
     <g id="line2d_7">
      <path d="M 391.248698 317.877656 
L 391.248698 10.8 
" clip-path="url(#p9524112aa9)" style="fill: none; stroke: #b0b0b0; stroke-opacity: 0.3; stroke-width: 0.5; stroke-linecap: square"/>
     </g>
     <g id="line2d_8">
      <g>
       <use xlink:href="#mfff9e86acb" x="391.248698" y="317.877656" style="stroke: #000000; stroke-width: 0.8"/>
      </g>
     </g>
     <g id="text_4">
      <!-- 150 -->
      <g transform="translate(381.704948 332.475312) scale(0.1 -0.1)">
       <use xlink:href="#DejaVuSans-14"/>
       <use xlink:href="#DejaVuSans-18" transform="translate(63.625 0)"/>
       <use xlink:href="#DejaVuSans-13" transform="translate(127.25 0)"/>
      </g>
     </g>
    </g>
    <g id="xtick_5">
     <g id="line2d_9">
      <path d="M 492.047822 317.877656 
L 492.047822 10.8 
" clip-path="url(#p9524112aa9)" style="fill: none; stroke: #b0b0b0; stroke-opacity: 0.3; stroke-width: 0.5; stroke-linecap: square"/>
     </g>
     <g id="line2d_10">
      <g>
       <use xlink:href="#mfff9e86acb" x="492.047822" y="317.877656" style="stroke: #000000; stroke-width: 0.8"/>
      </g>
     </g>
     <g id="text_5">
      <!-- 200 -->
      <g transform="translate(482.504072 332.475312) scale(0.1 -0.1)">
       <defs>
        <path id="DejaVuSans-15" d="M 1228 531 
L 3431 531 
L 3431 0 
L 469 0 
L 469 531 
Q 828 903 1448 1529 
Q 2069 2156 2228 2338 
Q 2531 2678 2651 2914 
Q 2772 3150 2772 3378 
Q 2772 3750 2511 3984 
Q 2250 4219 1831 4219 
Q 1534 4219 1204 4116 
Q 875 4013 500 3803 
L 500 4441 
Q 881 4594 1212 4672 
Q 1544 4750 1819 4750 
Q 2544 4750 2975 4387 
Q 3406 4025 3406 3419 
Q 3406 3131 3298 2873 
Q 3191 2616 2906 2266 
Q 2828 2175 2409 1742 
Q 1991 1309 1228 531 
z
" transform="scale(0.015625)"/>
       </defs>
       <use xlink:href="#DejaVuSans-15"/>
       <use xlink:href="#DejaVuSans-13" transform="translate(63.625 0)"/>
       <use xlink:href="#DejaVuSans-13" transform="translate(127.25 0)"/>
      </g>
     </g>
    </g>
    <g id="xtick_6">
     <g id="line2d_11">
      <path d="M 592.846945 317.877656 
L 592.846945 10.8 
" clip-path="url(#p9524112aa9)" style="fill: none; stroke: #b0b0b0; stroke-opacity: 0.3; stroke-width: 0.5; stroke-linecap: square"/>
     </g>
     <g id="line2d_12">
      <g>
       <use xlink:href="#mfff9e86acb" x="592.846945" y="317.877656" style="stroke: #000000; stroke-width: 0.8"/>
      </g>
     </g>
     <g id="text_6">
      <!-- 250 -->
      <g transform="translate(583.303195 332.475312) scale(0.1 -0.1)">
       <use xlink:href="#DejaVuSans-15"/>
       <use xlink:href="#DejaVuSans-18" transform="translate(63.625 0)"/>
       <use xlink:href="#DejaVuSans-13" transform="translate(127.25 0)"/>
      </g>
     </g>
    </g>
    <g id="xtick_7">
     <g id="line2d_13">
      <path d="M 693.646069 317.877656 
L 693.646069 10.8 
" clip-path="url(#p9524112aa9)" style="fill: none; stroke: #b0b0b0; stroke-opacity: 0.3; stroke-width: 0.5; stroke-linecap: square"/>
     </g>
     <g id="line2d_14">
      <g>
       <use xlink:href="#mfff9e86acb" x="693.646069" y="317.877656" style="stroke: #000000; stroke-width: 0.8"/>
      </g>
     </g>
     <g id="text_7">
      <!-- 300 -->
      <g transform="translate(684.102319 332.475312) scale(0.1 -0.1)">
       <defs>
        <path id="DejaVuSans-16" d="M 2597 2516 
Q 3050 2419 3304 2112 
Q 3559 1806 3559 1356 
Q 3559 666 3084 287 
Q 2609 -91 1734 -91 
Q 1441 -91 1130 -33 
Q 819 25 488 141 
L 488 750 
Q 750 597 1062 519 
Q 1375 441 1716 441 
Q 2309 441 2620 675 
Q 2931 909 2931 1356 
Q 2931 1769 2642 2001 
Q 2353 2234 1838 2234 
L 1294 2234 
L 1294 2753 
L 1863 2753 
Q 2328 2753 2575 2939 
Q 2822 3125 2822 3475 
Q 2822 3834 2567 4026 
Q 2313 4219 1838 4219 
Q 1578 4219 1281 4162 
Q 984 4106 628 3988 
L 628 4550 
Q 988 4650 1302 4700 
Q 1616 4750 1894 4750 
Q 2613 4750 3031 4423 
Q 3450 4097 3450 3541 
Q 3450 3153 3228 2886 
Q 3006 2619 2597 2516 
z
" transform="scale(0.015625)"/>
       </defs>
       <use xlink:href="#DejaVuSans-16"/>
       <use xlink:href="#DejaVuSans-13" transform="translate(63.625 0)"/>
       <use xlink:href="#DejaVuSans-13" transform="translate(127.25 0)"/>
      </g>
     </g>
    </g>
    <g id="text_8">
     <!-- Tempo (s) -->
     <g transform="translate(394.060703 346.475312) scale(0.1 -0.1)">
      <defs>
       <path id="DejaVuSans-37" d="M -19 4666 
L 3928 4666 
L 3928 4134 
L 2272 4134 
L 2272 0 
L 1638 0 
L 1638 4134 
L -19 4134 
L -19 4666 
z
" transform="scale(0.015625)"/>
       <path id="DejaVuSans-48" d="M 3597 1894 
L 3597 1613 
L 953 1613 
Q 991 1019 1311 708 
Q 1631 397 2203 397 
Q 2534 397 2845 478 
Q 3156 559 3463 722 
L 3463 178 
Q 3153 47 2828 -22 
Q 2503 -91 2169 -91 
Q 1331 -91 842 396 
Q 353 884 353 1716 
Q 353 2575 817 3079 
Q 1281 3584 2069 3584 
Q 2775 3584 3186 3129 
Q 3597 2675 3597 1894 
z
M 3022 2063 
Q 3016 2534 2758 2815 
Q 2500 3097 2075 3097 
Q 1594 3097 1305 2825 
Q 1016 2553 972 2059 
L 3022 2063 
z
" transform="scale(0.015625)"/>
       <path id="DejaVuSans-50" d="M 3328 2828 
Q 3544 3216 3844 3400 
Q 4144 3584 4550 3584 
Q 5097 3584 5394 3201 
Q 5691 2819 5691 2113 
L 5691 0 
L 5113 0 
L 5113 2094 
Q 5113 2597 4934 2840 
Q 4756 3084 4391 3084 
Q 3944 3084 3684 2787 
Q 3425 2491 3425 1978 
L 3425 0 
L 2847 0 
L 2847 2094 
Q 2847 2600 2669 2842 
Q 2491 3084 2119 3084 
Q 1678 3084 1418 2786 
Q 1159 2488 1159 1978 
L 1159 0 
L 581 0 
L 581 3500 
L 1159 3500 
L 1159 2956 
Q 1356 3278 1631 3431 
Q 1906 3584 2284 3584 
Q 2666 3584 2933 3390 
Q 3200 3197 3328 2828 
z
" transform="scale(0.015625)"/>
       <path id="DejaVuSans-53" d="M 1159 525 
L 1159 -1331 
L 581 -1331 
L 581 3500 
L 1159 3500 
L 1159 2969 
Q 1341 3281 1617 3432 
Q 1894 3584 2278 3584 
Q 2916 3584 3314 3078 
Q 3713 2572 3713 1747 
Q 3713 922 3314 415 
Q 2916 -91 2278 -91 
Q 1894 -91 1617 61 
Q 1341 213 1159 525 
z
M 3116 1747 
Q 3116 2381 2855 2742 
Q 2594 3103 2138 3103 
Q 1681 3103 1420 2742 
Q 1159 2381 1159 1747 
Q 1159 1113 1420 752 
Q 1681 391 2138 391 
Q 2594 391 2855 752 
Q 3116 1113 3116 1747 
z
" transform="scale(0.015625)"/>
       <path id="DejaVuSans-52" d="M 1959 3097 
Q 1497 3097 1228 2736 
Q 959 2375 959 1747 
Q 959 1119 1226 758 
Q 1494 397 1959 397 
Q 2419 397 2687 759 
Q 2956 1122 2956 1747 
Q 2956 2369 2687 2733 
Q 2419 3097 1959 3097 
z
M 1959 3584 
Q 2709 3584 3137 3096 
Q 3566 2609 3566 1747 
Q 3566 888 3137 398 
Q 2709 -91 1959 -91 
Q 1206 -91 779 398 
Q 353 888 353 1747 
Q 353 2609 779 3096 
Q 1206 3584 1959 3584 
z
" transform="scale(0.015625)"/>
       <path id="DejaVuSans-3" transform="scale(0.015625)"/>
       <path id="DejaVuSans-b" d="M 1984 4856 
Q 1566 4138 1362 3434 
Q 1159 2731 1159 2009 
Q 1159 1288 1364 580 
Q 1569 -128 1984 -844 
L 1484 -844 
Q 1016 -109 783 600 
Q 550 1309 550 2009 
Q 550 2706 781 3412 
Q 1013 4119 1484 4856 
L 1984 4856 
z
" transform="scale(0.015625)"/>
       <path id="DejaVuSans-56" d="M 2834 3397 
L 2834 2853 
Q 2591 2978 2328 3040 
Q 2066 3103 1784 3103 
Q 1356 3103 1142 2972 
Q 928 2841 928 2578 
Q 928 2378 1081 2264 
Q 1234 2150 1697 2047 
L 1894 2003 
Q 2506 1872 2764 1633 
Q 3022 1394 3022 966 
Q 3022 478 2636 193 
Q 2250 -91 1575 -91 
Q 1294 -91 989 -36 
Q 684 19 347 128 
L 347 722 
Q 666 556 975 473 
Q 1284 391 1588 391 
Q 1994 391 2212 530 
Q 2431 669 2431 922 
Q 2431 1156 2273 1281 
Q 2116 1406 1581 1522 
L 1381 1569 
Q 847 1681 609 1914 
Q 372 2147 372 2553 
Q 372 3047 722 3315 
Q 1072 3584 1716 3584 
Q 2034 3584 2315 3537 
Q 2597 3491 2834 3397 
z
" transform="scale(0.015625)"/>
       <path id="DejaVuSans-c" d="M 513 4856 
L 1013 4856 
Q 1481 4119 1714 3412 
Q 1947 2706 1947 2009 
Q 1947 1309 1714 600 
Q 1481 -109 1013 -844 
L 513 -844 
Q 928 -128 1133 580 
Q 1338 1288 1338 2009 
Q 1338 2731 1133 3434 
Q 928 4138 513 4856 
z
" transform="scale(0.015625)"/>
      </defs>
      <use xlink:href="#DejaVuSans-37"/>
      <use xlink:href="#DejaVuSans-48" transform="translate(44.09375 0)"/>
      <use xlink:href="#DejaVuSans-50" transform="translate(105.625 0)"/>
      <use xlink:href="#DejaVuSans-53" transform="translate(203.03125 0)"/>
      <use xlink:href="#DejaVuSans-52" transform="translate(266.515625 0)"/>
      <use xlink:href="#DejaVuSans-3" transform="translate(327.703125 0)"/>
      <use xlink:href="#DejaVuSans-b" transform="translate(359.484375 0)"/>
      <use xlink:href="#DejaVuSans-56" transform="translate(398.5 0)"/>
      <use xlink:href="#DejaVuSans-c" transform="translate(450.59375 0)"/>
     </g>
    </g>
   </g>
   <g id="matplotlib.axis_2">
    <g id="ytick_1">
     <g id="line2d_15">
      <path d="M 55.882344 303.919581 
L 781.2 303.919581 
" clip-path="url(#p9524112aa9)" style="fill: none; stroke: #b0b0b0; stroke-opacity: 0.3; stroke-width: 0.5; stroke-linecap: square"/>
     </g>
     <g id="line2d_16">
      <defs>
       <path id="m7c141f5615" d="M 0 0 
L -3.5 0 
" style="stroke: #000000; stroke-width: 0.8"/>
      </defs>
      <g>
       <use xlink:href="#m7c141f5615" x="55.882344" y="303.919581" style="stroke: #000000; stroke-width: 0.8"/>
      </g>
     </g>
     <g id="text_9">
      <!-- −20 -->
      <g transform="translate(27.777656 307.718409) scale(0.1 -0.1)">
       <defs>
        <path id="DejaVuSans-c9c" d="M 678 2272 
L 4684 2272 
L 4684 1741 
L 678 1741 
L 678 2272 
z
" transform="scale(0.015625)"/>
       </defs>
       <use xlink:href="#DejaVuSans-c9c"/>
       <use xlink:href="#DejaVuSans-15" transform="translate(83.796875 0)"/>
       <use xlink:href="#DejaVuSans-13" transform="translate(147.421875 0)"/>
      </g>
     </g>
    </g>
    <g id="ytick_2">
     <g id="line2d_17">
      <path d="M 55.882344 269.024393 
L 781.2 269.024393 
" clip-path="url(#p9524112aa9)" style="fill: none; stroke: #b0b0b0; stroke-opacity: 0.3; stroke-width: 0.5; stroke-linecap: square"/>
     </g>
     <g id="line2d_18">
      <g>
       <use xlink:href="#m7c141f5615" x="55.882344" y="269.024393" style="stroke: #000000; stroke-width: 0.8"/>
      </g>
     </g>
     <g id="text_10">
      <!-- −15 -->
      <g transform="translate(27.777656 272.823221) scale(0.1 -0.1)">
       <use xlink:href="#DejaVuSans-c9c"/>
       <use xlink:href="#DejaVuSans-14" transform="translate(83.796875 0)"/>
       <use xlink:href="#DejaVuSans-18" transform="translate(147.421875 0)"/>
      </g>
     </g>
    </g>
    <g id="ytick_3">
     <g id="line2d_19">
      <path d="M 55.882344 234.129205 
L 781.2 234.129205 
" clip-path="url(#p9524112aa9)" style="fill: none; stroke: #b0b0b0; stroke-opacity: 0.3; stroke-width: 0.5; stroke-linecap: square"/>
     </g>
     <g id="line2d_20">
      <g>
       <use xlink:href="#m7c141f5615" x="55.882344" y="234.129205" style="stroke: #000000; stroke-width: 0.8"/>
      </g>
     </g>
     <g id="text_11">
      <!-- −10 -->
      <g transform="translate(27.777656 237.928033) scale(0.1 -0.1)">
       <use xlink:href="#DejaVuSans-c9c"/>
       <use xlink:href="#DejaVuSans-14" transform="translate(83.796875 0)"/>
       <use xlink:href="#DejaVuSans-13" transform="translate(147.421875 0)"/>
      </g>
     </g>
    </g>
    <g id="ytick_4">
     <g id="line2d_21">
      <path d="M 55.882344 199.234016 
L 781.2 199.234016 
" clip-path="url(#p9524112aa9)" style="fill: none; stroke: #b0b0b0; stroke-opacity: 0.3; stroke-width: 0.5; stroke-linecap: square"/>
     </g>
     <g id="line2d_22">
      <g>
       <use xlink:href="#m7c141f5615" x="55.882344" y="199.234016" style="stroke: #000000; stroke-width: 0.8"/>
      </g>
     </g>
     <g id="text_12">
      <!-- −5 -->
      <g transform="translate(34.140156 203.032844) scale(0.1 -0.1)">
       <use xlink:href="#DejaVuSans-c9c"/>
       <use xlink:href="#DejaVuSans-18" transform="translate(83.796875 0)"/>
      </g>
     </g>
    </g>
    <g id="ytick_5">
     <g id="line2d_23">
      <path d="M 55.882344 164.338828 
L 781.2 164.338828 
" clip-path="url(#p9524112aa9)" style="fill: none; stroke: #b0b0b0; stroke-opacity: 0.3; stroke-width: 0.5; stroke-linecap: square"/>
     </g>
     <g id="line2d_24">
      <g>
       <use xlink:href="#m7c141f5615" x="55.882344" y="164.338828" style="stroke: #000000; stroke-width: 0.8"/>
      </g>
     </g>
     <g id="text_13">
      <!-- 0 -->
      <g transform="translate(42.519844 168.137656) scale(0.1 -0.1)">
       <use xlink:href="#DejaVuSans-13"/>
      </g>
     </g>
    </g>
    <g id="ytick_6">
     <g id="line2d_25">
      <path d="M 55.882344 129.44364 
L 781.2 129.44364 
" clip-path="url(#p9524112aa9)" style="fill: none; stroke: #b0b0b0; stroke-opacity: 0.3; stroke-width: 0.5; stroke-linecap: square"/>
     </g>
     <g id="line2d_26">
      <g>
       <use xlink:href="#m7c141f5615" x="55.882344" y="129.44364" style="stroke: #000000; stroke-width: 0.8"/>
      </g>
     </g>
     <g id="text_14">
      <!-- 5 -->
      <g transform="translate(42.519844 133.242468) scale(0.1 -0.1)">
       <use xlink:href="#DejaVuSans-18"/>
      </g>
     </g>
    </g>
    <g id="ytick_7">
     <g id="line2d_27">
      <path d="M 55.882344 94.548452 
L 781.2 94.548452 
" clip-path="url(#p9524112aa9)" style="fill: none; stroke: #b0b0b0; stroke-opacity: 0.3; stroke-width: 0.5; stroke-linecap: square"/>
     </g>
     <g id="line2d_28">
      <g>
       <use xlink:href="#m7c141f5615" x="55.882344" y="94.548452" style="stroke: #000000; stroke-width: 0.8"/>
      </g>
     </g>
     <g id="text_15">
      <!-- 10 -->
      <g transform="translate(36.157344 98.34728) scale(0.1 -0.1)">
       <use xlink:href="#DejaVuSans-14"/>
       <use xlink:href="#DejaVuSans-13" transform="translate(63.625 0)"/>
      </g>
     </g>
    </g>
    <g id="ytick_8">
     <g id="line2d_29">
      <path d="M 55.882344 59.653263 
L 781.2 59.653263 
" clip-path="url(#p9524112aa9)" style="fill: none; stroke: #b0b0b0; stroke-opacity: 0.3; stroke-width: 0.5; stroke-linecap: square"/>
     </g>
     <g id="line2d_30">
      <g>
       <use xlink:href="#m7c141f5615" x="55.882344" y="59.653263" style="stroke: #000000; stroke-width: 0.8"/>
      </g>
     </g>
     <g id="text_16">
      <!-- 15 -->
      <g transform="translate(36.157344 63.452092) scale(0.1 -0.1)">
       <use xlink:href="#DejaVuSans-14"/>
       <use xlink:href="#DejaVuSans-18" transform="translate(63.625 0)"/>
      </g>
     </g>
    </g>
    <g id="ytick_9">
     <g id="line2d_31">
      <path d="M 55.882344 24.758075 
L 781.2 24.758075 
" clip-path="url(#p9524112aa9)" style="fill: none; stroke: #b0b0b0; stroke-opacity: 0.3; stroke-width: 0.5; stroke-linecap: square"/>
     </g>
     <g id="line2d_32">
      <g>
       <use xlink:href="#m7c141f5615" x="55.882344" y="24.758075" style="stroke: #000000; stroke-width: 0.8"/>
      </g>
     </g>
     <g id="text_17">
      <!-- 20 -->
      <g transform="translate(36.157344 28.556903) scale(0.1 -0.1)">
       <use xlink:href="#DejaVuSans-15"/>
       <use xlink:href="#DejaVuSans-13" transform="translate(63.625 0)"/>
      </g>
     </g>
    </g>
    <g id="text_18">
     <!-- Ângulo das juntas J4–J6 (°) -->
     <g transform="translate(21.375313 230.488047) rotate(-90) scale(0.1 -0.1)">
      <defs>
       <path id="DejaVuSans-84" d="M 2188 4044 
L 1331 1722 
L 3047 1722 
L 2188 4044 
z
M 1831 4666 
L 2547 4666 
L 4325 0 
L 3669 0 
L 3244 1197 
L 1141 1197 
L 716 0 
L 50 0 
L 1831 4666 
z
M 1894 5941 
L 2482 5941 
L 3141 5110 
L 2707 5110 
L 2188 5666 
L 1669 5110 
L 1235 5110 
L 1894 5941 
z
" transform="scale(0.015625)"/>
       <path id="DejaVuSans-51" d="M 3513 2113 
L 3513 0 
L 2938 0 
L 2938 2094 
Q 2938 2591 2744 2837 
Q 2550 3084 2163 3084 
Q 1697 3084 1428 2787 
Q 1159 2491 1159 1978 
L 1159 0 
L 581 0 
L 581 3500 
L 1159 3500 
L 1159 2956 
Q 1366 3272 1645 3428 
Q 1925 3584 2291 3584 
Q 2894 3584 3203 3211 
Q 3513 2838 3513 2113 
z
" transform="scale(0.015625)"/>
       <path id="DejaVuSans-4a" d="M 2906 1791 
Q 2906 2416 2648 2759 
Q 2391 3103 1925 3103 
Q 1463 3103 1205 2759 
Q 947 2416 947 1791 
Q 947 1169 1205 825 
Q 1463 481 1925 481 
Q 2391 481 2648 825 
Q 2906 1169 2906 1791 
z
M 3481 434 
Q 3481 -459 3084 -895 
Q 2688 -1331 1869 -1331 
Q 1566 -1331 1297 -1286 
Q 1028 -1241 775 -1147 
L 775 -588 
Q 1028 -725 1275 -790 
Q 1522 -856 1778 -856 
Q 2344 -856 2625 -561 
Q 2906 -266 2906 331 
L 2906 616 
Q 2728 306 2450 153 
Q 2172 0 1784 0 
Q 1141 0 747 490 
Q 353 981 353 1791 
Q 353 2603 747 3093 
Q 1141 3584 1784 3584 
Q 2172 3584 2450 3431 
Q 2728 3278 2906 2969 
L 2906 3500 
L 3481 3500 
L 3481 434 
z
" transform="scale(0.015625)"/>
       <path id="DejaVuSans-58" d="M 544 1381 
L 544 3500 
L 1119 3500 
L 1119 1403 
Q 1119 906 1312 657 
Q 1506 409 1894 409 
Q 2359 409 2629 706 
Q 2900 1003 2900 1516 
L 2900 3500 
L 3475 3500 
L 3475 0 
L 2900 0 
L 2900 538 
Q 2691 219 2414 64 
Q 2138 -91 1772 -91 
Q 1169 -91 856 284 
Q 544 659 544 1381 
z
M 1991 3584 
L 1991 3584 
z
" transform="scale(0.015625)"/>
       <path id="DejaVuSans-4f" d="M 603 4863 
L 1178 4863 
L 1178 0 
L 603 0 
L 603 4863 
z
" transform="scale(0.015625)"/>
       <path id="DejaVuSans-47" d="M 2906 2969 
L 2906 4863 
L 3481 4863 
L 3481 0 
L 2906 0 
L 2906 525 
Q 2725 213 2448 61 
Q 2172 -91 1784 -91 
Q 1150 -91 751 415 
Q 353 922 353 1747 
Q 353 2572 751 3078 
Q 1150 3584 1784 3584 
Q 2172 3584 2448 3432 
Q 2725 3281 2906 2969 
z
M 947 1747 
Q 947 1113 1208 752 
Q 1469 391 1925 391 
Q 2381 391 2643 752 
Q 2906 1113 2906 1747 
Q 2906 2381 2643 2742 
Q 2381 3103 1925 3103 
Q 1469 3103 1208 2742 
Q 947 2381 947 1747 
z
" transform="scale(0.015625)"/>
       <path id="DejaVuSans-44" d="M 2194 1759 
Q 1497 1759 1228 1600 
Q 959 1441 959 1056 
Q 959 750 1161 570 
Q 1363 391 1709 391 
Q 2188 391 2477 730 
Q 2766 1069 2766 1631 
L 2766 1759 
L 2194 1759 
z
M 3341 1997 
L 3341 0 
L 2766 0 
L 2766 531 
Q 2569 213 2275 61 
Q 1981 -91 1556 -91 
Q 1019 -91 701 211 
Q 384 513 384 1019 
Q 384 1609 779 1909 
Q 1175 2209 1959 2209 
L 2766 2209 
L 2766 2266 
Q 2766 2663 2505 2880 
Q 2244 3097 1772 3097 
Q 1472 3097 1187 3025 
Q 903 2953 641 2809 
L 641 3341 
Q 956 3463 1253 3523 
Q 1550 3584 1831 3584 
Q 2591 3584 2966 3190 
Q 3341 2797 3341 1997 
z
" transform="scale(0.015625)"/>
       <path id="DejaVuSans-4d" d="M 603 3500 
L 1178 3500 
L 1178 -63 
Q 1178 -731 923 -1031 
Q 669 -1331 103 -1331 
L -116 -1331 
L -116 -844 
L 38 -844 
Q 366 -844 484 -692 
Q 603 -541 603 -63 
L 603 3500 
z
M 603 4863 
L 1178 4863 
L 1178 4134 
L 603 4134 
L 603 4863 
z
" transform="scale(0.015625)"/>
       <path id="DejaVuSans-57" d="M 1172 4494 
L 1172 3500 
L 2356 3500 
L 2356 3053 
L 1172 3053 
L 1172 1153 
Q 1172 725 1289 603 
Q 1406 481 1766 481 
L 2356 481 
L 2356 0 
L 1766 0 
Q 1100 0 847 248 
Q 594 497 594 1153 
L 594 3053 
L 172 3053 
L 172 3500 
L 594 3500 
L 594 4494 
L 1172 4494 
z
" transform="scale(0.015625)"/>
       <path id="DejaVuSans-2d" d="M 628 4666 
L 1259 4666 
L 1259 325 
Q 1259 -519 939 -900 
Q 619 -1281 -91 -1281 
L -331 -1281 
L -331 -750 
L -134 -750 
Q 284 -750 456 -515 
Q 628 -281 628 325 
L 628 4666 
z
" transform="scale(0.015625)"/>
       <path id="DejaVuSans-17" d="M 2419 4116 
L 825 1625 
L 2419 1625 
L 2419 4116 
z
M 2253 4666 
L 3047 4666 
L 3047 1625 
L 3713 1625 
L 3713 1100 
L 3047 1100 
L 3047 0 
L 2419 0 
L 2419 1100 
L 313 1100 
L 313 1709 
L 2253 4666 
z
" transform="scale(0.015625)"/>
       <path id="DejaVuSans-af5" d="M 313 1978 
L 2888 1978 
L 2888 1528 
L 313 1528 
L 313 1978 
z
" transform="scale(0.015625)"/>
       <path id="DejaVuSans-19" d="M 2113 2584 
Q 1688 2584 1439 2293 
Q 1191 2003 1191 1497 
Q 1191 994 1439 701 
Q 1688 409 2113 409 
Q 2538 409 2786 701 
Q 3034 994 3034 1497 
Q 3034 2003 2786 2293 
Q 2538 2584 2113 2584 
z
M 3366 4563 
L 3366 3988 
Q 3128 4100 2886 4159 
Q 2644 4219 2406 4219 
Q 1781 4219 1451 3797 
Q 1122 3375 1075 2522 
Q 1259 2794 1537 2939 
Q 1816 3084 2150 3084 
Q 2853 3084 3261 2657 
Q 3669 2231 3669 1497 
Q 3669 778 3244 343 
Q 2819 -91 2113 -91 
Q 1303 -91 875 529 
Q 447 1150 447 2328 
Q 447 3434 972 4092 
Q 1497 4750 2381 4750 
Q 2619 4750 2861 4703 
Q 3103 4656 3366 4563 
z
" transform="scale(0.015625)"/>
       <path id="DejaVuSans-72" d="M 1600 4347 
Q 1350 4347 1178 4173 
Q 1006 4000 1006 3750 
Q 1006 3503 1178 3333 
Q 1350 3163 1600 3163 
Q 1850 3163 2022 3333 
Q 2194 3503 2194 3750 
Q 2194 3997 2020 4172 
Q 1847 4347 1600 4347 
z
M 1600 4750 
Q 1800 4750 1984 4673 
Q 2169 4597 2303 4453 
Q 2447 4313 2519 4134 
Q 2591 3956 2591 3750 
Q 2591 3338 2302 3052 
Q 2013 2766 1594 2766 
Q 1172 2766 890 3047 
Q 609 3328 609 3750 
Q 609 4169 896 4459 
Q 1184 4750 1600 4750 
z
" transform="scale(0.015625)"/>
      </defs>
      <use xlink:href="#DejaVuSans-84"/>
      <use xlink:href="#DejaVuSans-51" transform="translate(68.40625 0)"/>
      <use xlink:href="#DejaVuSans-4a" transform="translate(131.78125 0)"/>
      <use xlink:href="#DejaVuSans-58" transform="translate(195.265625 0)"/>
      <use xlink:href="#DejaVuSans-4f" transform="translate(258.640625 0)"/>
      <use xlink:href="#DejaVuSans-52" transform="translate(286.421875 0)"/>
      <use xlink:href="#DejaVuSans-3" transform="translate(347.609375 0)"/>
      <use xlink:href="#DejaVuSans-47" transform="translate(379.390625 0)"/>
      <use xlink:href="#DejaVuSans-44" transform="translate(442.875 0)"/>
      <use xlink:href="#DejaVuSans-56" transform="translate(504.15625 0)"/>
      <use xlink:href="#DejaVuSans-3" transform="translate(556.25 0)"/>
      <use xlink:href="#DejaVuSans-4d" transform="translate(588.03125 0)"/>
      <use xlink:href="#DejaVuSans-58" transform="translate(615.8125 0)"/>
      <use xlink:href="#DejaVuSans-51" transform="translate(679.1875 0)"/>
      <use xlink:href="#DejaVuSans-57" transform="translate(742.5625 0)"/>
      <use xlink:href="#DejaVuSans-44" transform="translate(781.765625 0)"/>
      <use xlink:href="#DejaVuSans-56" transform="translate(843.046875 0)"/>
      <use xlink:href="#DejaVuSans-3" transform="translate(895.140625 0)"/>
      <use xlink:href="#DejaVuSans-2d" transform="translate(926.921875 0)"/>
      <use xlink:href="#DejaVuSans-17" transform="translate(956.421875 0)"/>
      <use xlink:href="#DejaVuSans-af5" transform="translate(1020.046875 0)"/>
      <use xlink:href="#DejaVuSans-2d" transform="translate(1070.046875 0)"/>
      <use xlink:href="#DejaVuSans-19" transform="translate(1099.546875 0)"/>
      <use xlink:href="#DejaVuSans-3" transform="translate(1163.171875 0)"/>
      <use xlink:href="#DejaVuSans-b" transform="translate(1194.953125 0)"/>
      <use xlink:href="#DejaVuSans-72" transform="translate(1233.96875 0)"/>
      <use xlink:href="#DejaVuSans-c" transform="translate(1283.96875 0)"/>
     </g>
    </g>
   </g>
   <g id="line2d_33">
    <path d="M 88.851328 164.338828 
L 143.024057 164.338828 
L 143.157289 66.809506 
L 181.424168 66.809506 
L 181.551272 26.32563 
L 221.752271 26.32563 
L 221.887757 66.809506 
L 268.150192 66.809506 
L 268.286716 164.338828 
L 315.630702 164.338828 
L 315.770128 261.86815 
L 353.959202 261.86815 
L 354.085304 302.352026 
L 368.292835 302.352026 
L 368.420205 261.86815 
L 407.475575 261.86815 
L 407.612517 164.338828 
L 447.800722 164.338828 
L 447.952574 66.809506 
L 504.340676 66.809506 
L 504.475799 26.32563 
L 550.838072 26.32563 
L 550.838072 26.32563 
L 550.971562 66.809506 
L 588.197247 66.809506 
L 588.197247 66.809506 
L 588.329709 164.338828 
L 626.624435 164.338828 
L 626.75973 261.86815 
L 664.915803 261.86815 
L 665.058439 302.352026 
L 702.272835 302.352026 
L 702.411706 261.86815 
L 741.60078 261.86815 
L 741.734954 164.338828 
L 748.231016 164.338828 
L 748.231016 164.338828 
" clip-path="url(#p9524112aa9)" style="fill: none; stroke: #2563eb; stroke-width: 1.6; stroke-linecap: square"/>
   </g>
   <g id="line2d_34">
    <path d="M 88.851328 164.338828 
L 114.566237 164.338828 
L 114.566237 164.338828 
L 114.741968 65.640329 
L 152.437302 65.640329 
L 152.536317 24.758075 
L 192.304172 24.758075 
L 192.447259 65.640329 
L 238.479676 65.640329 
L 238.479676 65.640329 
L 238.627573 164.338828 
L 286.750997 164.338828 
L 286.881994 263.037328 
L 324.598899 263.037328 
L 324.76301 303.919581 
L 363.526057 303.919581 
L 363.652019 263.037328 
L 377.672276 263.037328 
L 377.775255 164.338828 
L 377.775255 164.338828 
L 418.49727 164.338828 
L 418.606582 65.640329 
L 475.768552 65.640329 
L 475.894585 24.758075 
L 521.963407 24.758075 
L 522.080693 65.640329 
L 558.968054 65.640329 
L 559.055529 164.338828 
L 559.055529 164.338828 
L 597.938849 164.338828 
L 598.039523 263.037328 
L 635.751941 263.037328 
L 635.85294 303.919581 
L 672.567611 303.919581 
L 672.710532 263.037328 
L 711.516124 263.037328 
L 711.634888 164.338828 
L 748.231016 164.338828 
L 748.231016 164.338828 
" clip-path="url(#p9524112aa9)" style="fill: none; stroke-dasharray: 1.3,2.145; stroke-dashoffset: 0; stroke: #2563eb; stroke-opacity: 0.9; stroke-width: 1.3"/>
   </g>
   <g id="line2d_35">
    <path d="M 88.851328 164.338828 
L 103.5231 164.338828 
L 103.657845 95.025532 
L 143.024057 95.025532 
L 143.157289 117.107647 
L 181.424168 117.107647 
L 181.551272 164.338828 
L 221.752271 164.338828 
L 221.887757 211.57001 
L 268.150192 211.57001 
L 268.286716 233.652125 
L 315.630702 233.652125 
L 315.770128 211.57001 
L 353.959202 211.57001 
L 354.085304 164.338828 
L 368.292835 164.338828 
L 368.420205 117.107647 
L 407.475575 117.107647 
L 407.612517 95.025532 
L 447.800722 95.025532 
L 447.952574 117.107647 
L 504.340676 117.107647 
L 504.475799 164.338828 
L 550.838072 164.338828 
L 550.838072 164.338828 
L 550.971562 211.57001 
L 588.197247 211.57001 
L 588.197247 211.57001 
L 588.329709 233.652125 
L 626.624435 233.652125 
L 626.75973 211.57001 
L 664.915803 211.57001 
L 665.058439 164.338828 
L 702.272835 164.338828 
L 702.411706 117.107647 
L 741.60078 117.107647 
L 741.734954 164.338828 
L 748.231016 164.338828 
L 748.231016 164.338828 
" clip-path="url(#p9524112aa9)" style="fill: none; stroke: #16a34a; stroke-width: 1.6; stroke-linecap: square"/>
   </g>
   <g id="line2d_36">
    <path d="M 88.851328 164.338828 
L 96.051708 164.338828 
L 96.051708 164.338828 
L 96.237878 94.548452 
L 114.566237 94.548452 
L 114.566237 94.548452 
L 114.741968 114.989578 
L 152.437302 114.989578 
L 152.536317 164.338828 
L 192.304172 164.338828 
L 192.447259 213.688078 
L 238.479676 213.688078 
L 238.479676 213.688078 
L 238.627573 234.129205 
L 286.750997 234.129205 
L 286.881994 213.688078 
L 324.598899 213.688078 
L 324.76301 164.338828 
L 363.526057 164.338828 
L 363.652019 114.989578 
L 377.672276 114.989578 
L 377.775255 94.548452 
L 377.775255 94.548452 
L 418.49727 94.548452 
L 418.606582 114.989578 
L 475.768552 114.989578 
L 475.894585 164.338828 
L 521.963407 164.338828 
L 522.080693 213.688078 
L 558.968054 213.688078 
L 559.055529 234.129205 
L 559.055529 234.129205 
L 597.938849 234.129205 
L 598.039523 213.688078 
L 635.751941 213.688078 
L 635.85294 164.338828 
L 672.567611 164.338828 
L 672.710532 114.989578 
L 711.516124 114.989578 
L 711.634888 164.338828 
L 748.231016 164.338828 
L 748.231016 164.338828 
" clip-path="url(#p9524112aa9)" style="fill: none; stroke-dasharray: 1.3,2.145; stroke-dashoffset: 0; stroke: #16a34a; stroke-opacity: 0.9; stroke-width: 1.3"/>
   </g>
   <g id="line2d_37">
    <path d="M 88.851328 164.338828 
L 748.231016 164.338828 
L 748.231016 164.338828 
" clip-path="url(#p9524112aa9)" style="fill: none; stroke: #dc2626; stroke-width: 1.6; stroke-linecap: square"/>
   </g>
   <g id="line2d_38">
    <path d="M 88.851328 164.338828 
L 748.231016 164.338828 
L 748.231016 164.338828 
" clip-path="url(#p9524112aa9)" style="fill: none; stroke-dasharray: 1.3,2.145; stroke-dashoffset: 0; stroke: #dc2626; stroke-opacity: 0.9; stroke-width: 1.3"/>
   </g>
   <g id="patch_3">
    <path d="M 55.882344 317.877656 
L 55.882344 10.8 
" style="fill: none; stroke: #000000; stroke-width: 0.8; stroke-linejoin: miter; stroke-linecap: square"/>
   </g>
   <g id="patch_4">
    <path d="M 781.2 317.877656 
L 781.2 10.8 
" style="fill: none; stroke: #000000; stroke-width: 0.8; stroke-linejoin: miter; stroke-linecap: square"/>
   </g>
   <g id="patch_5">
    <path d="M 55.882344 317.877656 
L 781.2 317.877656 
" style="fill: none; stroke: #000000; stroke-width: 0.8; stroke-linejoin: miter; stroke-linecap: square"/>
   </g>
   <g id="patch_6">
    <path d="M 55.882344 10.8 
L 781.2 10.8 
" style="fill: none; stroke: #000000; stroke-width: 0.8; stroke-linejoin: miter; stroke-linecap: square"/>
   </g>
   <g id="text_19">
    <!-- Controlador Arduino UNO (simavr) — feedforward step/dir -->
    <g style="fill: #374151" transform="translate(63.13552 23.780147) scale(0.09 -0.09)">
     <defs>
      <path id="DejaVuSans-26" d="M 4122 4306 
L 4122 3641 
Q 3803 3938 3442 4084 
Q 3081 4231 2675 4231 
Q 1875 4231 1450 3742 
Q 1025 3253 1025 2328 
Q 1025 1406 1450 917 
Q 1875 428 2675 428 
Q 3081 428 3442 575 
Q 3803 722 4122 1019 
L 4122 359 
Q 3791 134 3420 21 
Q 3050 -91 2638 -91 
Q 1578 -91 968 557 
Q 359 1206 359 2328 
Q 359 3453 968 4101 
Q 1578 4750 2638 4750 
Q 3056 4750 3426 4639 
Q 3797 4528 4122 4306 
z
" transform="scale(0.015625)"/>
      <path id="DejaVuSans-55" d="M 2631 2963 
Q 2534 3019 2420 3045 
Q 2306 3072 2169 3072 
Q 1681 3072 1420 2755 
Q 1159 2438 1159 1844 
L 1159 0 
L 581 0 
L 581 3500 
L 1159 3500 
L 1159 2956 
Q 1341 3275 1631 3429 
Q 1922 3584 2338 3584 
Q 2397 3584 2469 3576 
Q 2541 3569 2628 3553 
L 2631 2963 
z
" transform="scale(0.015625)"/>
      <path id="DejaVuSans-24" d="M 2188 4044 
L 1331 1722 
L 3047 1722 
L 2188 4044 
z
M 1831 4666 
L 2547 4666 
L 4325 0 
L 3669 0 
L 3244 1197 
L 1141 1197 
L 716 0 
L 50 0 
L 1831 4666 
z
" transform="scale(0.015625)"/>
      <path id="DejaVuSans-4c" d="M 603 3500 
L 1178 3500 
L 1178 0 
L 603 0 
L 603 3500 
z
M 603 4863 
L 1178 4863 
L 1178 4134 
L 603 4134 
L 603 4863 
z
" transform="scale(0.015625)"/>
      <path id="DejaVuSans-38" d="M 556 4666 
L 1191 4666 
L 1191 1831 
Q 1191 1081 1462 751 
Q 1734 422 2344 422 
Q 2950 422 3222 751 
Q 3494 1081 3494 1831 
L 3494 4666 
L 4128 4666 
L 4128 1753 
Q 4128 841 3676 375 
Q 3225 -91 2344 -91 
Q 1459 -91 1007 375 
Q 556 841 556 1753 
L 556 4666 
z
" transform="scale(0.015625)"/>
      <path id="DejaVuSans-31" d="M 628 4666 
L 1478 4666 
L 3547 763 
L 3547 4666 
L 4159 4666 
L 4159 0 
L 3309 0 
L 1241 3903 
L 1241 0 
L 628 0 
L 628 4666 
z
" transform="scale(0.015625)"/>
      <path id="DejaVuSans-32" d="M 2522 4238 
Q 1834 4238 1429 3725 
Q 1025 3213 1025 2328 
Q 1025 1447 1429 934 
Q 1834 422 2522 422 
Q 3209 422 3611 934 
Q 4013 1447 4013 2328 
Q 4013 3213 3611 3725 
Q 3209 4238 2522 4238 
z
M 2522 4750 
Q 3503 4750 4090 4092 
Q 4678 3434 4678 2328 
Q 4678 1225 4090 567 
Q 3503 -91 2522 -91 
Q 1538 -91 948 565 
Q 359 1222 359 2328 
Q 359 3434 948 4092 
Q 1538 4750 2522 4750 
z
" transform="scale(0.015625)"/>
      <path id="DejaVuSans-59" d="M 191 3500 
L 800 3500 
L 1894 563 
L 2988 3500 
L 3597 3500 
L 2284 0 
L 1503 0 
L 191 3500 
z
" transform="scale(0.015625)"/>
      <path id="DejaVuSans-af6" d="M 313 1978 
L 6088 1978 
L 6088 1528 
L 313 1528 
L 313 1978 
z
" transform="scale(0.015625)"/>
      <path id="DejaVuSans-49" d="M 2375 4863 
L 2375 4384 
L 1825 4384 
Q 1516 4384 1395 4259 
Q 1275 4134 1275 3809 
L 1275 3500 
L 2222 3500 
L 2222 3053 
L 1275 3053 
L 1275 0 
L 697 0 
L 697 3053 
L 147 3053 
L 147 3500 
L 697 3500 
L 697 3744 
Q 697 4328 969 4595 
Q 1241 4863 1831 4863 
L 2375 4863 
z
" transform="scale(0.015625)"/>
      <path id="DejaVuSans-5a" d="M 269 3500 
L 844 3500 
L 1563 769 
L 2278 3500 
L 2956 3500 
L 3675 769 
L 4391 3500 
L 4966 3500 
L 4050 0 
L 3372 0 
L 2619 2869 
L 1863 0 
L 1184 0 
L 269 3500 
z
" transform="scale(0.015625)"/>
      <path id="DejaVuSans-12" d="M 1625 4666 
L 2156 4666 
L 531 -594 
L 0 -594 
L 1625 4666 
z
" transform="scale(0.015625)"/>
     </defs>
     <use xlink:href="#DejaVuSans-26"/>
     <use xlink:href="#DejaVuSans-52" transform="translate(69.828125 0)"/>
     <use xlink:href="#DejaVuSans-51" transform="translate(131.015625 0)"/>
     <use xlink:href="#DejaVuSans-57" transform="translate(194.390625 0)"/>
     <use xlink:href="#DejaVuSans-55" transform="translate(233.59375 0)"/>
     <use xlink:href="#DejaVuSans-52" transform="translate(272.5 0)"/>
     <use xlink:href="#DejaVuSans-4f" transform="translate(333.6875 0)"/>
     <use xlink:href="#DejaVuSans-44" transform="translate(361.46875 0)"/>
     <use xlink:href="#DejaVuSans-47" transform="translate(422.75 0)"/>
     <use xlink:href="#DejaVuSans-52" transform="translate(486.234375 0)"/>
     <use xlink:href="#DejaVuSans-55" transform="translate(547.421875 0)"/>
     <use xlink:href="#DejaVuSans-3" transform="translate(588.53125 0)"/>
     <use xlink:href="#DejaVuSans-24" transform="translate(620.3125 0)"/>
     <use xlink:href="#DejaVuSans-55" transform="translate(688.71875 0)"/>
     <use xlink:href="#DejaVuSans-47" transform="translate(728.078125 0)"/>
     <use xlink:href="#DejaVuSans-58" transform="translate(791.5625 0)"/>
     <use xlink:href="#DejaVuSans-4c" transform="translate(854.9375 0)"/>
     <use xlink:href="#DejaVuSans-51" transform="translate(882.71875 0)"/>
     <use xlink:href="#DejaVuSans-52" transform="translate(946.09375 0)"/>
     <use xlink:href="#DejaVuSans-3" transform="translate(1007.28125 0)"/>
     <use xlink:href="#DejaVuSans-38" transform="translate(1039.0625 0)"/>
     <use xlink:href="#DejaVuSans-31" transform="translate(1112.25 0)"/>
     <use xlink:href="#DejaVuSans-32" transform="translate(1187.0625 0)"/>
     <use xlink:href="#DejaVuSans-3" transform="translate(1265.78125 0)"/>
     <use xlink:href="#DejaVuSans-b" transform="translate(1297.5625 0)"/>
     <use xlink:href="#DejaVuSans-56" transform="translate(1336.578125 0)"/>
     <use xlink:href="#DejaVuSans-4c" transform="translate(1388.671875 0)"/>
     <use xlink:href="#DejaVuSans-50" transform="translate(1416.453125 0)"/>
     <use xlink:href="#DejaVuSans-44" transform="translate(1513.859375 0)"/>
     <use xlink:href="#DejaVuSans-59" transform="translate(1575.140625 0)"/>
     <use xlink:href="#DejaVuSans-55" transform="translate(1634.328125 0)"/>
     <use xlink:href="#DejaVuSans-c" transform="translate(1675.4375 0)"/>
     <use xlink:href="#DejaVuSans-3" transform="translate(1714.453125 0)"/>
     <use xlink:href="#DejaVuSans-af6" transform="translate(1746.234375 0)"/>
     <use xlink:href="#DejaVuSans-3" transform="translate(1846.234375 0)"/>
     <use xlink:href="#DejaVuSans-49" transform="translate(1878.015625 0)"/>
     <use xlink:href="#DejaVuSans-48" transform="translate(1913.21875 0)"/>
     <use xlink:href="#DejaVuSans-48" transform="translate(1974.75 0)"/>
     <use xlink:href="#DejaVuSans-47" transform="translate(2036.28125 0)"/>
     <use xlink:href="#DejaVuSans-49" transform="translate(2099.765625 0)"/>
     <use xlink:href="#DejaVuSans-52" transform="translate(2134.96875 0)"/>
     <use xlink:href="#DejaVuSans-55" transform="translate(2196.15625 0)"/>
     <use xlink:href="#DejaVuSans-5a" transform="translate(2237.265625 0)"/>
     <use xlink:href="#DejaVuSans-44" transform="translate(2319.046875 0)"/>
     <use xlink:href="#DejaVuSans-55" transform="translate(2380.328125 0)"/>
     <use xlink:href="#DejaVuSans-47" transform="translate(2419.6875 0)"/>
     <use xlink:href="#DejaVuSans-3" transform="translate(2483.171875 0)"/>
     <use xlink:href="#DejaVuSans-56" transform="translate(2514.953125 0)"/>
     <use xlink:href="#DejaVuSans-57" transform="translate(2567.046875 0)"/>
     <use xlink:href="#DejaVuSans-48" transform="translate(2606.25 0)"/>
     <use xlink:href="#DejaVuSans-53" transform="translate(2667.78125 0)"/>
     <use xlink:href="#DejaVuSans-12" transform="translate(2731.265625 0)"/>
     <use xlink:href="#DejaVuSans-47" transform="translate(2764.953125 0)"/>
     <use xlink:href="#DejaVuSans-4c" transform="translate(2828.4375 0)"/>
     <use xlink:href="#DejaVuSans-55" transform="translate(2856.21875 0)"/>
    </g>
   </g>
   <g id="legend_1">
    <g id="patch_7">
     <path d="M 581.745937 37.401094 
L 776.3 37.401094 
Q 777.7 37.401094 777.7 36.001094 
L 777.7 15.7 
Q 777.7 14.3 776.3 14.3 
L 581.745937 14.3 
Q 580.345937 14.3 580.345937 15.7 
L 580.345937 36.001094 
Q 580.345937 37.401094 581.745937 37.401094 
z
" style="fill: #ffffff; opacity: 0.9; stroke: #cccccc; stroke-linejoin: miter"/>
    </g>
    <g id="line2d_39">
     <path d="M 583.145937 19.968906 
L 590.145937 19.968906 
L 597.145937 19.968906 
" style="fill: none; stroke: #2563eb; stroke-width: 1.6; stroke-linecap: square"/>
    </g>
    <g id="text_20">
     <!-- J4 medido -->
     <g transform="translate(602.745937 22.418906) scale(0.07 -0.07)">
      <use xlink:href="#DejaVuSans-2d"/>
      <use xlink:href="#DejaVuSans-17" transform="translate(29.5 0)"/>
      <use xlink:href="#DejaVuSans-3" transform="translate(93.125 0)"/>
      <use xlink:href="#DejaVuSans-50" transform="translate(124.90625 0)"/>
      <use xlink:href="#DejaVuSans-48" transform="translate(222.3125 0)"/>
      <use xlink:href="#DejaVuSans-47" transform="translate(283.84375 0)"/>
      <use xlink:href="#DejaVuSans-4c" transform="translate(347.328125 0)"/>
      <use xlink:href="#DejaVuSans-47" transform="translate(375.109375 0)"/>
      <use xlink:href="#DejaVuSans-52" transform="translate(438.59375 0)"/>
     </g>
    </g>
    <g id="line2d_40">
     <path d="M 583.145937 30.469453 
L 590.145937 30.469453 
L 597.145937 30.469453 
" style="fill: none; stroke-dasharray: 1.3,2.145; stroke-dashoffset: 0; stroke: #2563eb; stroke-opacity: 0.9; stroke-width: 1.3"/>
    </g>
    <g id="text_21">
     <!-- J4 alvo -->
     <g transform="translate(602.745937 32.919453) scale(0.07 -0.07)">
      <use xlink:href="#DejaVuSans-2d"/>
      <use xlink:href="#DejaVuSans-17" transform="translate(29.5 0)"/>
      <use xlink:href="#DejaVuSans-3" transform="translate(93.125 0)"/>
      <use xlink:href="#DejaVuSans-44" transform="translate(124.90625 0)"/>
      <use xlink:href="#DejaVuSans-4f" transform="translate(186.1875 0)"/>
      <use xlink:href="#DejaVuSans-59" transform="translate(213.96875 0)"/>
      <use xlink:href="#DejaVuSans-52" transform="translate(273.15625 0)"/>
     </g>
    </g>
    <g id="line2d_41">
     <path d="M 651.730625 19.968906 
L 658.730625 19.968906 
L 665.730625 19.968906 
" style="fill: none; stroke: #16a34a; stroke-width: 1.6; stroke-linecap: square"/>
    </g>
    <g id="text_22">
     <!-- J5 medido -->
     <g transform="translate(671.330625 22.418906) scale(0.07 -0.07)">
      <use xlink:href="#DejaVuSans-2d"/>
      <use xlink:href="#DejaVuSans-18" transform="translate(29.5 0)"/>
      <use xlink:href="#DejaVuSans-3" transform="translate(93.125 0)"/>
      <use xlink:href="#DejaVuSans-50" transform="translate(124.90625 0)"/>
      <use xlink:href="#DejaVuSans-48" transform="translate(222.3125 0)"/>
      <use xlink:href="#DejaVuSans-47" transform="translate(283.84375 0)"/>
      <use xlink:href="#DejaVuSans-4c" transform="translate(347.328125 0)"/>
      <use xlink:href="#DejaVuSans-47" transform="translate(375.109375 0)"/>
      <use xlink:href="#DejaVuSans-52" transform="translate(438.59375 0)"/>
     </g>
    </g>
    <g id="line2d_42">
     <path d="M 651.730625 30.469453 
L 658.730625 30.469453 
L 665.730625 30.469453 
" style="fill: none; stroke-dasharray: 1.3,2.145; stroke-dashoffset: 0; stroke: #16a34a; stroke-opacity: 0.9; stroke-width: 1.3"/>
    </g>
    <g id="text_23">
     <!-- J5 alvo -->
     <g transform="translate(671.330625 32.919453) scale(0.07 -0.07)">
      <use xlink:href="#DejaVuSans-2d"/>
      <use xlink:href="#DejaVuSans-18" transform="translate(29.5 0)"/>
      <use xlink:href="#DejaVuSans-3" transform="translate(93.125 0)"/>
      <use xlink:href="#DejaVuSans-44" transform="translate(124.90625 0)"/>
      <use xlink:href="#DejaVuSans-4f" transform="translate(186.1875 0)"/>
      <use xlink:href="#DejaVuSans-59" transform="translate(213.96875 0)"/>
      <use xlink:href="#DejaVuSans-52" transform="translate(273.15625 0)"/>
     </g>
    </g>
    <g id="line2d_43">
     <path d="M 720.315312 19.968906 
L 727.315312 19.968906 
L 734.315312 19.968906 
" style="fill: none; stroke: #dc2626; stroke-width: 1.6; stroke-linecap: square"/>
    </g>
    <g id="text_24">
     <!-- J6 medido -->
     <g transform="translate(739.915312 22.418906) scale(0.07 -0.07)">
      <use xlink:href="#DejaVuSans-2d"/>
      <use xlink:href="#DejaVuSans-19" transform="translate(29.5 0)"/>
      <use xlink:href="#DejaVuSans-3" transform="translate(93.125 0)"/>
      <use xlink:href="#DejaVuSans-50" transform="translate(124.90625 0)"/>
      <use xlink:href="#DejaVuSans-48" transform="translate(222.3125 0)"/>
      <use xlink:href="#DejaVuSans-47" transform="translate(283.84375 0)"/>
      <use xlink:href="#DejaVuSans-4c" transform="translate(347.328125 0)"/>
      <use xlink:href="#DejaVuSans-47" transform="translate(375.109375 0)"/>
      <use xlink:href="#DejaVuSans-52" transform="translate(438.59375 0)"/>
     </g>
    </g>
    <g id="line2d_44">
     <path d="M 720.315312 30.469453 
L 727.315312 30.469453 
L 734.315312 30.469453 
" style="fill: none; stroke-dasharray: 1.3,2.145; stroke-dashoffset: 0; stroke: #dc2626; stroke-opacity: 0.9; stroke-width: 1.3"/>
    </g>
    <g id="text_25">
     <!-- J6 alvo -->
     <g transform="translate(739.915312 32.919453) scale(0.07 -0.07)">
      <use xlink:href="#DejaVuSans-2d"/>
      <use xlink:href="#DejaVuSans-19" transform="translate(29.5 0)"/>
      <use xlink:href="#DejaVuSans-3" transform="translate(93.125 0)"/>
      <use xlink:href="#DejaVuSans-44" transform="translate(124.90625 0)"/>
      <use xlink:href="#DejaVuSans-4f" transform="translate(186.1875 0)"/>
      <use xlink:href="#DejaVuSans-59" transform="translate(213.96875 0)"/>
      <use xlink:href="#DejaVuSans-52" transform="translate(273.15625 0)"/>
     </g>
    </g>
   </g>
  </g>
 </g>
 <defs>
  <clipPath id="p9524112aa9">
   <rect x="55.882344" y="10.8" width="725.317656" height="307.077656"/>
  </clipPath>
 </defs>
</svg>
