<?xml version="1.0" encoding="utf-8" standalone="no"?>
<!DOCTYPE svg PUBLIC "-//W3C//DTD SVG 1.1//EN"
  "http://www.w3.org/Graphics/SVG/1.1/DTD/svg11.dtd">
<svg xmlns:xlink="http://www.w3.org/1999/xlink" width="1008pt" height="432pt" viewBox="0 0 1008 432" xmlns="http://www.w3.org/2000/svg" version="1.1">
 <metadata>
  <rdf:RDF xmlns:dc="http://purl.org/dc/elements/1.1/" xmlns:cc="http://creativecommons.org/ns#" xmlns:rdf="http://www.w3.org/1999/02/22-rdf-syntax-ns#">
   <cc:Work>
    <dc:type rdf:resource="http://purl.org/dc/dcmitype/StillImage"/>
    <dc:date>2026-06-22T00:26:32.194416</dc:date>
    <dc:format>image/svg+xml</dc:format>
    <dc:creator>
     <cc:Agent>
      <dc:title>Matplotlib v3.11.0, https://matplotlib.org/</dc:title>
     </cc:Agent>
    </dc:creator>
   </cc:Work>
  </rdf:RDF>
 </metadata>
 <defs>
  <style type="text/css">*{stroke-linejoin: round; stroke-linecap: butt}</style>
 </defs>
 <g id="figure_1">
  <g id="patch_1">
   <path d="M 0 432 
L 1008 432 
L 1008 0 
L 0 0 
z
" style="fill: #ffffff"/>
  </g>
  <g id="patch_2">
   <path d="M 74.292962 421.2 
L 446.332493 421.2 
L 446.332493 49.160469 
L 74.292962 49.160469 
z
" style="fill: #ffffff"/>
  </g>
  <g id="pane3d_1">
   <g id="patch_3">
    <path d="M 102.384512 329.466975 
L 225.244115 226.483619 
L 223.536249 77.96321 
L 94.79718 171.911119 
" style="fill: #f2f2f2; opacity: 0.5; stroke: #f2f2f2; stroke-linejoin: miter"/>
   </g>
  </g>
  <g id="pane3d_2">
   <g id="patch_4">
    <path d="M 225.244115 226.483619 
L 422.389942 283.786127 
L 429.425382 130.150103 
L 223.536249 77.96321 
" style="fill: #e6e6e6; opacity: 0.5; stroke: #e6e6e6; stroke-linejoin: miter"/>
   </g>
  </g>
  <g id="pane3d_3">
   <g id="patch_5">
    <path d="M 102.384512 329.466975 
L 311.368718 397.721216 
L 422.389942 283.786127 
L 225.244115 226.483619 
" style="fill: #ececec; opacity: 0.5; stroke: #ececec; stroke-linejoin: miter"/>
   </g>
  </g>
  <g id="grid3d_1">
   <g id="Line3DCollection_1">
    <path d="M 128.624404 338.036923 
L 250.093314 233.7063 
L 249.439654 84.528968 
" style="fill: none; stroke: #b0b0b0; stroke-width: 0.8"/>
    <path d="M 165.836158 350.190282 
L 285.285595 243.935306 
L 286.148514 93.833594 
" style="fill: none; stroke: #b0b0b0; stroke-width: 0.8"/>
    <path d="M 203.767596 362.57869 
L 321.101551 254.345591 
L 323.536332 103.310316 
" style="fill: none; stroke: #b0b0b0; stroke-width: 0.8"/>
    <path d="M 242.4398 375.209031 
L 357.557909 264.942015 
L 361.62212 112.963953 
" style="fill: none; stroke: #b0b0b0; stroke-width: 0.8"/>
    <path d="M 281.874683 388.088464 
L 394.672001 275.729616 
L 400.425608 122.799506 
" style="fill: none; stroke: #b0b0b0; stroke-width: 0.8"/>
   </g>
  </g>
  <g id="grid3d_2">
   <g id="Line3DCollection_2">
    <path d="M 103.699806 165.414388 
L 110.850577 322.370551 
L 319.050527 389.837789 
" style="fill: none; stroke: #b0b0b0; stroke-width: 0.8"/>
    <path d="M 118.40853 154.680631 
L 124.847754 310.637839 
L 331.740807 376.814441 
" style="fill: none; stroke: #b0b0b0; stroke-width: 0.8"/>
    <path d="M 132.83203 144.155018 
L 138.585291 299.122764 
L 344.183263 364.045419 
" style="fill: none; stroke: #b0b0b0; stroke-width: 0.8"/>
    <path d="M 146.978524 133.831551 
L 152.070345 287.819324 
L 356.385086 351.523347 
" style="fill: none; stroke: #b0b0b0; stroke-width: 0.8"/>
    <path d="M 160.855915 123.704463 
L 165.309813 276.721739 
L 368.353189 339.241129 
" style="fill: none; stroke: #b0b0b0; stroke-width: 0.8"/>
    <path d="M 174.471809 113.768203 
L 178.310344 265.824436 
L 380.094224 327.19194 
" style="fill: none; stroke: #b0b0b0; stroke-width: 0.8"/>
    <path d="M 187.833529 104.017429 
L 191.078348 255.122042 
L 391.614591 315.369208 
" style="fill: none; stroke: #b0b0b0; stroke-width: 0.8"/>
    <path d="M 200.948127 94.446993 
L 203.620009 244.609374 
L 402.920455 303.766611 
" style="fill: none; stroke: #b0b0b0; stroke-width: 0.8"/>
    <path d="M 213.822394 85.051939 
L 215.941291 234.28143 
L 414.01775 292.378056 
" style="fill: none; stroke: #b0b0b0; stroke-width: 0.8"/>
   </g>
  </g>
  <g id="grid3d_3">
   <g id="Line3DCollection_3">
    <path d="M 422.748434 275.957585 
L 225.156916 218.900566 
L 101.998517 321.451534 
" style="fill: none; stroke: #b0b0b0; stroke-width: 0.8"/>
    <path d="M 423.485637 259.858962 
L 224.977659 203.311901 
L 101.204547 304.964247 
" style="fill: none; stroke: #b0b0b0; stroke-width: 0.8"/>
    <path d="M 424.229777 243.608838 
L 224.796796 187.583531 
L 100.402822 288.315895 
" style="fill: none; stroke: #b0b0b0; stroke-width: 0.8"/>
    <path d="M 424.980954 227.205064 
L 224.614304 171.713569 
L 99.593226 271.504107 
" style="fill: none; stroke: #b0b0b0; stroke-width: 0.8"/>
    <path d="M 425.739266 210.645449 
L 224.430161 155.700096 
L 98.775642 254.526462 
" style="fill: none; stroke: #b0b0b0; stroke-width: 0.8"/>
    <path d="M 426.504818 193.927764 
L 224.244347 139.541155 
L 97.949954 237.380496 
" style="fill: none; stroke: #b0b0b0; stroke-width: 0.8"/>
    <path d="M 427.277712 177.049732 
L 224.056836 123.234756 
L 97.116038 220.063692 
" style="fill: none; stroke: #b0b0b0; stroke-width: 0.8"/>
    <path d="M 428.058055 160.009038 
L 223.867606 106.778871 
L 96.273771 202.573484 
" style="fill: none; stroke: #b0b0b0; stroke-width: 0.8"/>
    <path d="M 428.845955 142.803317 
L 223.676634 90.171435 
L 95.423028 184.907254 
" style="fill: none; stroke: #b0b0b0; stroke-width: 0.8"/>
   </g>
  </g>
  <g id="axis3d_1">
   <g id="line2d_1">
    <path d="M 102.384512 329.466975 
L 311.368718 397.721216 
" style="fill: none; stroke: #000000; stroke-width: 0.8; stroke-linecap: square"/>
   </g>
   <g id="xtick_1">
    <g id="line2d_2">
     <path d="M 129.68245 337.128159 
L 126.503756 339.858365 
" style="fill: none; stroke: #000000; stroke-width: 0.8; stroke-linecap: square"/>
    </g>
    <g id="text_1">
     <!-- 360 -->
     <g transform="translate(111.569313 361.395709) scale(0.1 -0.1)">
      <defs>
       <path id="DejaVuSans-16" d="M 2597 2516 
Q 3050 2419 3304 2112 
Q 3559 1806 3559 1356 
Q 3559 666 3084 287 
Q 2609 -91 1734 -91 
Q 1441 -91 1130 -33 
Q 819 25 488 141 
L 488 750 
Q 750 597 1062 519 
Q 1375 441 1716 441 
Q 2309 441 2620 675 
Q 2931 909 2931 1356 
Q 2931 1769 2642 2001 
Q 2353 2234 1838 2234 
L 1294 2234 
L 1294 2753 
L 1863 2753 
Q 2328 2753 2575 2939 
Q 2822 3125 2822 3475 
Q 2822 3834 2567 4026 
Q 2313 4219 1838 4219 
Q 1578 4219 1281 4162 
Q 984 4106 628 3988 
L 628 4550 
Q 988 4650 1302 4700 
Q 1616 4750 1894 4750 
Q 2613 4750 3031 4423 
Q 3450 4097 3450 3541 
Q 3450 3153 3228 2886 
Q 3006 2619 2597 2516 
z
" transform="scale(0.015625)"/>
       <path id="DejaVuSans-19" d="M 2113 2584 
Q 1688 2584 1439 2293 
Q 1191 2003 1191 1497 
Q 1191 994 1439 701 
Q 1688 409 2113 409 
Q 2538 409 2786 701 
Q 3034 994 3034 1497 
Q 3034 2003 2786 2293 
Q 2538 2584 2113 2584 
z
M 3366 4563 
L 3366 3988 
Q 3128 4100 2886 4159 
Q 2644 4219 2406 4219 
Q 1781 4219 1451 3797 
Q 1122 3375 1075 2522 
Q 1259 2794 1537 2939 
Q 1816 3084 2150 3084 
Q 2853 3084 3261 2657 
Q 3669 2231 3669 1497 
Q 3669 778 3244 343 
Q 2819 -91 2113 -91 
Q 1303 -91 875 529 
Q 447 1150 447 2328 
Q 447 3434 972 4092 
Q 1497 4750 2381 4750 
Q 2619 4750 2861 4703 
Q 3103 4656 3366 4563 
z
" transform="scale(0.015625)"/>
       <path id="DejaVuSans-13" d="M 2034 4250 
Q 1547 4250 1301 3770 
Q 1056 3291 1056 2328 
Q 1056 1369 1301 889 
Q 1547 409 2034 409 
Q 2525 409 2770 889 
Q 3016 1369 3016 2328 
Q 3016 3291 2770 3770 
Q 2525 4250 2034 4250 
z
M 2034 4750 
Q 2819 4750 3233 4129 
Q 3647 3509 3647 2328 
Q 3647 1150 3233 529 
Q 2819 -91 2034 -91 
Q 1250 -91 836 529 
Q 422 1150 422 2328 
Q 422 3509 836 4129 
Q 1250 4750 2034 4750 
z
" transform="scale(0.015625)"/>
      </defs>
      <use xlink:href="#DejaVuSans-16"/>
      <use xlink:href="#DejaVuSans-19" transform="translate(63.625 0)"/>
      <use xlink:href="#DejaVuSans-13" transform="translate(127.25 0)"/>
     </g>
    </g>
   </g>
   <g id="xtick_2">
    <g id="line2d_3">
     <path d="M 166.877426 349.264034 
L 163.749096 352.046806 
" style="fill: none; stroke: #000000; stroke-width: 0.8; stroke-linecap: square"/>
    </g>
    <g id="text_2">
     <!-- 370 -->
     <g transform="translate(148.809071 373.733131) scale(0.1 -0.1)">
      <defs>
       <path id="DejaVuSans-1a" d="M 525 4666 
L 3525 4666 
L 3525 4397 
L 1831 0 
L 1172 0 
L 2766 4134 
L 525 4134 
L 525 4666 
z
" transform="scale(0.015625)"/>
      </defs>
      <use xlink:href="#DejaVuSans-16"/>
      <use xlink:href="#DejaVuSans-1a" transform="translate(63.625 0)"/>
      <use xlink:href="#DejaVuSans-13" transform="translate(127.25 0)"/>
     </g>
    </g>
   </g>
   <g id="xtick_3">
    <g id="line2d_4">
     <path d="M 204.791236 361.634447 
L 201.715824 364.471319 
" style="fill: none; stroke: #000000; stroke-width: 0.8; stroke-linecap: square"/>
    </g>
    <g id="text_3">
     <!-- 380 -->
     <g transform="translate(186.771011 386.30981) scale(0.1 -0.1)">
      <defs>
       <path id="DejaVuSans-1b" d="M 2034 2216 
Q 1584 2216 1326 1975 
Q 1069 1734 1069 1313 
Q 1069 891 1326 650 
Q 1584 409 2034 409 
Q 2484 409 2743 651 
Q 3003 894 3003 1313 
Q 3003 1734 2745 1975 
Q 2488 2216 2034 2216 
z
M 1403 2484 
Q 997 2584 770 2862 
Q 544 3141 544 3541 
Q 544 4100 942 4425 
Q 1341 4750 2034 4750 
Q 2731 4750 3128 4425 
Q 3525 4100 3525 3541 
Q 3525 3141 3298 2862 
Q 3072 2584 2669 2484 
Q 3125 2378 3379 2068 
Q 3634 1759 3634 1313 
Q 3634 634 3220 271 
Q 2806 -91 2034 -91 
Q 1263 -91 848 271 
Q 434 634 434 1313 
Q 434 1759 690 2068 
Q 947 2378 1403 2484 
z
M 1172 3481 
Q 1172 3119 1398 2916 
Q 1625 2713 2034 2713 
Q 2441 2713 2670 2916 
Q 2900 3119 2900 3481 
Q 2900 3844 2670 4047 
Q 2441 4250 2034 4250 
Q 1625 4250 1398 4047 
Q 1172 3844 1172 3481 
z
" transform="scale(0.015625)"/>
      </defs>
      <use xlink:href="#DejaVuSans-16"/>
      <use xlink:href="#DejaVuSans-1b" transform="translate(63.625 0)"/>
      <use xlink:href="#DejaVuSans-13" transform="translate(127.25 0)"/>
     </g>
    </g>
   </g>
   <g id="xtick_4">
    <g id="line2d_5">
     <path d="M 243.444922 374.246266 
L 240.425101 377.13883 
" style="fill: none; stroke: #000000; stroke-width: 0.8; stroke-linecap: square"/>
    </g>
    <g id="text_4">
     <!-- 390 -->
     <g transform="translate(225.476346 399.132773) scale(0.1 -0.1)">
      <defs>
       <path id="DejaVuSans-1c" d="M 703 97 
L 703 672 
Q 941 559 1184 500 
Q 1428 441 1663 441 
Q 2288 441 2617 861 
Q 2947 1281 2994 2138 
Q 2813 1869 2534 1725 
Q 2256 1581 1919 1581 
Q 1219 1581 811 2004 
Q 403 2428 403 3163 
Q 403 3881 828 4315 
Q 1253 4750 1959 4750 
Q 2769 4750 3195 4129 
Q 3622 3509 3622 2328 
Q 3622 1225 3098 567 
Q 2575 -91 1691 -91 
Q 1453 -91 1209 -44 
Q 966 3 703 97 
z
M 1959 2075 
Q 2384 2075 2632 2365 
Q 2881 2656 2881 3163 
Q 2881 3666 2632 3958 
Q 2384 4250 1959 4250 
Q 1534 4250 1286 3958 
Q 1038 3666 1038 3163 
Q 1038 2656 1286 2365 
Q 1534 2075 1959 2075 
z
" transform="scale(0.015625)"/>
      </defs>
      <use xlink:href="#DejaVuSans-16"/>
      <use xlink:href="#DejaVuSans-1c" transform="translate(63.625 0)"/>
      <use xlink:href="#DejaVuSans-13" transform="translate(127.25 0)"/>
     </g>
    </g>
   </g>
   <g id="xtick_5">
    <g id="line2d_6">
     <path d="M 282.860354 387.106624 
L 279.898929 390.056538 
" style="fill: none; stroke: #000000; stroke-width: 0.8; stroke-linecap: square"/>
    </g>
    <g id="text_5">
     <!-- 400 -->
     <g transform="translate(264.947129 412.209327) scale(0.1 -0.1)">
      <defs>
       <path id="DejaVuSans-17" d="M 2419 4116 
L 825 1625 
L 2419 1625 
L 2419 4116 
z
M 2253 4666 
L 3047 4666 
L 3047 1625 
L 3713 1625 
L 3713 1100 
L 3047 1100 
L 3047 0 
L 2419 0 
L 2419 1100 
L 313 1100 
L 313 1709 
L 2253 4666 
z
" transform="scale(0.015625)"/>
      </defs>
      <use xlink:href="#DejaVuSans-17"/>
      <use xlink:href="#DejaVuSans-13" transform="translate(63.625 0)"/>
      <use xlink:href="#DejaVuSans-13" transform="translate(127.25 0)"/>
     </g>
    </g>
   </g>
   <g id="text_6">
    <!-- X (mm) -->
    <g transform="translate(169.328022 394.560478) rotate(-341.912962) scale(0.1 -0.1)">
     <defs>
      <path id="DejaVuSans-3b" d="M 403 4666 
L 1081 4666 
L 2241 2931 
L 3406 4666 
L 4084 4666 
L 2584 2425 
L 4184 0 
L 3506 0 
L 2194 1984 
L 872 0 
L 191 0 
L 1856 2491 
L 403 4666 
z
" transform="scale(0.015625)"/>
      <path id="DejaVuSans-3" transform="scale(0.015625)"/>
      <path id="DejaVuSans-b" d="M 1984 4856 
Q 1566 4138 1362 3434 
Q 1159 2731 1159 2009 
Q 1159 1288 1364 580 
Q 1569 -128 1984 -844 
L 1484 -844 
Q 1016 -109 783 600 
Q 550 1309 550 2009 
Q 550 2706 781 3412 
Q 1013 4119 1484 4856 
L 1984 4856 
z
" transform="scale(0.015625)"/>
      <path id="DejaVuSans-50" d="M 3328 2828 
Q 3544 3216 3844 3400 
Q 4144 3584 4550 3584 
Q 5097 3584 5394 3201 
Q 5691 2819 5691 2113 
L 5691 0 
L 5113 0 
L 5113 2094 
Q 5113 2597 4934 2840 
Q 4756 3084 4391 3084 
Q 3944 3084 3684 2787 
Q 3425 2491 3425 1978 
L 3425 0 
L 2847 0 
L 2847 2094 
Q 2847 2600 2669 2842 
Q 2491 3084 2119 3084 
Q 1678 3084 1418 2786 
Q 1159 2488 1159 1978 
L 1159 0 
L 581 0 
L 581 3500 
L 1159 3500 
L 1159 2956 
Q 1356 3278 1631 3431 
Q 1906 3584 2284 3584 
Q 2666 3584 2933 3390 
Q 3200 3197 3328 2828 
z
" transform="scale(0.015625)"/>
      <path id="DejaVuSans-c" d="M 513 4856 
L 1013 4856 
Q 1481 4119 1714 3412 
Q 1947 2706 1947 2009 
Q 1947 1309 1714 600 
Q 1481 -109 1013 -844 
L 513 -844 
Q 928 -128 1133 580 
Q 1338 1288 1338 2009 
Q 1338 2731 1133 3434 
Q 928 4138 513 4856 
z
" transform="scale(0.015625)"/>
     </defs>
     <use xlink:href="#DejaVuSans-3b"/>
     <use xlink:href="#DejaVuSans-3" transform="translate(68.5 0)"/>
     <use xlink:href="#DejaVuSans-b" transform="translate(100.28125 0)"/>
     <use xlink:href="#DejaVuSans-50" transform="translate(139.296875 0)"/>
     <use xlink:href="#DejaVuSans-50" transform="translate(236.703125 0)"/>
     <use xlink:href="#DejaVuSans-c" transform="translate(334.109375 0)"/>
    </g>
   </g>
  </g>
  <g id="axis3d_2">
   <g id="line2d_7">
    <path d="M 422.389942 283.786127 
L 311.368718 397.721216 
" style="fill: none; stroke: #000000; stroke-width: 0.8; stroke-linecap: square"/>
   </g>
   <g id="xtick_6">
    <g id="line2d_8">
     <path d="M 317.29602 389.269241 
L 322.564079 390.976357 
" style="fill: none; stroke: #000000; stroke-width: 0.8; stroke-linecap: square"/>
    </g>
    <g id="text_7">
     <!-- 0 -->
     <g transform="translate(328.747716 410.85645) scale(0.1 -0.1)">
      <use xlink:href="#DejaVuSans-13"/>
     </g>
    </g>
   </g>
   <g id="xtick_7">
    <g id="line2d_9">
     <path d="M 329.998184 376.257047 
L 335.230515 377.930655 
" style="fill: none; stroke: #000000; stroke-width: 0.8; stroke-linecap: square"/>
    </g>
    <g id="text_8">
     <!-- 25 -->
     <g transform="translate(338.135083 397.695185) scale(0.1 -0.1)">
      <defs>
       <path id="DejaVuSans-15" d="M 1228 531 
L 3431 531 
L 3431 0 
L 469 0 
L 469 531 
Q 828 903 1448 1529 
Q 2069 2156 2228 2338 
Q 2531 2678 2651 2914 
Q 2772 3150 2772 3378 
Q 2772 3750 2511 3984 
Q 2250 4219 1831 4219 
Q 1534 4219 1204 4116 
Q 875 4013 500 3803 
L 500 4441 
Q 881 4594 1212 4672 
Q 1544 4750 1819 4750 
Q 2544 4750 2975 4387 
Q 3406 4025 3406 3419 
Q 3406 3131 3298 2873 
Q 3191 2616 2906 2266 
Q 2828 2175 2409 1742 
Q 1991 1309 1228 531 
z
" transform="scale(0.015625)"/>
       <path id="DejaVuSans-18" d="M 691 4666 
L 3169 4666 
L 3169 4134 
L 1269 4134 
L 1269 2991 
Q 1406 3038 1543 3061 
Q 1681 3084 1819 3084 
Q 2600 3084 3056 2656 
Q 3513 2228 3513 1497 
Q 3513 744 3044 326 
Q 2575 -91 1722 -91 
Q 1428 -91 1123 -41 
Q 819 9 494 109 
L 494 744 
Q 775 591 1075 516 
Q 1375 441 1709 441 
Q 2250 441 2565 725 
Q 2881 1009 2881 1497 
Q 2881 1984 2565 2268 
Q 2250 2553 1709 2553 
Q 1456 2553 1204 2497 
Q 953 2441 691 2322 
L 691 4666 
z
" transform="scale(0.015625)"/>
      </defs>
      <use xlink:href="#DejaVuSans-15"/>
      <use xlink:href="#DejaVuSans-18" transform="translate(63.625 0)"/>
     </g>
    </g>
   </g>
   <g id="xtick_8">
    <g id="line2d_10">
     <path d="M 342.452397 363.498855 
L 347.649385 365.139933 
" style="fill: none; stroke: #000000; stroke-width: 0.8; stroke-linecap: square"/>
    </g>
    <g id="text_9">
     <!-- 50 -->
     <g transform="translate(350.458151 384.791048) scale(0.1 -0.1)">
      <use xlink:href="#DejaVuSans-18"/>
      <use xlink:href="#DejaVuSans-13" transform="translate(63.625 0)"/>
     </g>
    </g>
   </g>
   <g id="xtick_9">
    <g id="line2d_11">
     <path d="M 354.66585 350.9873 
L 359.827876 352.596787 
" style="fill: none; stroke: #000000; stroke-width: 0.8; stroke-linecap: square"/>
    </g>
    <g id="text_10">
     <!-- 75 -->
     <g transform="translate(362.542794 372.136577) scale(0.1 -0.1)">
      <use xlink:href="#DejaVuSans-1a"/>
      <use xlink:href="#DejaVuSans-18" transform="translate(63.625 0)"/>
     </g>
    </g>
   </g>
   <g id="xtick_10">
    <g id="line2d_12">
     <path d="M 366.645457 338.715299 
L 371.772901 340.294098 
" style="fill: none; stroke: #000000; stroke-width: 0.8; stroke-linecap: square"/>
    </g>
    <g id="text_11">
     <!-- 100 -->
     <g transform="translate(371.214617 359.724597) scale(0.1 -0.1)">
      <defs>
       <path id="DejaVuSans-14" d="M 794 531 
L 1825 531 
L 1825 4091 
L 703 3866 
L 703 4441 
L 1819 4666 
L 2450 4666 
L 2450 531 
L 3481 531 
L 3481 0 
L 794 0 
L 794 531 
z
" transform="scale(0.015625)"/>
      </defs>
      <use xlink:href="#DejaVuSans-14"/>
      <use xlink:href="#DejaVuSans-13" transform="translate(63.625 0)"/>
      <use xlink:href="#DejaVuSans-13" transform="translate(127.25 0)"/>
     </g>
    </g>
   </g>
   <g id="xtick_11">
    <g id="line2d_13">
     <path d="M 378.39787 326.676036 
L 383.491109 328.225017 
" style="fill: none; stroke: #000000; stroke-width: 0.8; stroke-linecap: square"/>
    </g>
    <g id="text_12">
     <!-- 125 -->
     <g transform="translate(382.842712 347.548202) scale(0.1 -0.1)">
      <use xlink:href="#DejaVuSans-14"/>
      <use xlink:href="#DejaVuSans-15" transform="translate(63.625 0)"/>
      <use xlink:href="#DejaVuSans-18" transform="translate(127.25 0)"/>
     </g>
    </g>
   </g>
   <g id="xtick_12">
    <g id="line2d_14">
     <path d="M 389.929493 314.862954 
L 394.9889 316.382953 
" style="fill: none; stroke: #000000; stroke-width: 0.8; stroke-linecap: square"/>
    </g>
    <g id="text_13">
     <!-- 150 -->
     <g transform="translate(394.252175 335.60075) scale(0.1 -0.1)">
      <use xlink:href="#DejaVuSans-14"/>
      <use xlink:href="#DejaVuSans-18" transform="translate(63.625 0)"/>
      <use xlink:href="#DejaVuSans-13" transform="translate(127.25 0)"/>
     </g>
    </g>
   </g>
   <g id="xtick_13">
    <g id="line2d_15">
     <path d="M 401.246488 303.269737 
L 406.272435 304.761561 
" style="fill: none; stroke: #000000; stroke-width: 0.8; stroke-linecap: square"/>
    </g>
    <g id="text_14">
     <!-- 175 -->
     <g transform="translate(405.449114 323.875842) scale(0.1 -0.1)">
      <use xlink:href="#DejaVuSans-14"/>
      <use xlink:href="#DejaVuSans-1a" transform="translate(63.625 0)"/>
      <use xlink:href="#DejaVuSans-18" transform="translate(127.25 0)"/>
     </g>
    </g>
   </g>
   <g id="xtick_14">
    <g id="line2d_16">
     <path d="M 412.354793 291.890304 
L 417.347648 293.354728 
" style="fill: none; stroke: #000000; stroke-width: 0.8; stroke-linecap: square"/>
    </g>
    <g id="text_15">
     <!-- 200 -->
     <g transform="translate(416.439411 312.367319) scale(0.1 -0.1)">
      <use xlink:href="#DejaVuSans-15"/>
      <use xlink:href="#DejaVuSans-13" transform="translate(63.625 0)"/>
      <use xlink:href="#DejaVuSans-13" transform="translate(127.25 0)"/>
     </g>
    </g>
   </g>
   <g id="text_16">
    <!-- Y (mm) -->
    <g transform="translate(385.425143 381.112772) rotate(-45.742112) scale(0.1 -0.1)">
     <defs>
      <path id="DejaVuSans-3c" d="M -13 4666 
L 666 4666 
L 1959 2747 
L 3244 4666 
L 3922 4666 
L 2272 2222 
L 2272 0 
L 1638 0 
L 1638 2222 
L -13 4666 
z
" transform="scale(0.015625)"/>
     </defs>
     <use xlink:href="#DejaVuSans-3c"/>
     <use xlink:href="#DejaVuSans-3" transform="translate(61.078125 0)"/>
     <use xlink:href="#DejaVuSans-b" transform="translate(92.859375 0)"/>
     <use xlink:href="#DejaVuSans-50" transform="translate(131.875 0)"/>
     <use xlink:href="#DejaVuSans-50" transform="translate(229.28125 0)"/>
     <use xlink:href="#DejaVuSans-c" transform="translate(326.6875 0)"/>
    </g>
   </g>
  </g>
  <g id="axis3d_3">
   <g id="line2d_17">
    <path d="M 422.389942 283.786127 
L 429.425382 130.150103 
" style="fill: none; stroke: #000000; stroke-width: 0.8; stroke-linecap: square"/>
   </g>
   <g id="xtick_15">
    <g id="line2d_18">
     <path d="M 421.08992 275.478668 
L 426.069416 276.91656 
" style="fill: none; stroke: #000000; stroke-width: 0.8; stroke-linecap: square"/>
    </g>
    <g id="text_17">
     <!-- 230 -->
     <g transform="translate(431.509745 280.958921) scale(0.1 -0.1)">
      <use xlink:href="#DejaVuSans-15"/>
      <use xlink:href="#DejaVuSans-16" transform="translate(63.625 0)"/>
      <use xlink:href="#DejaVuSans-13" transform="translate(127.25 0)"/>
     </g>
    </g>
   </g>
   <g id="xtick_16">
    <g id="line2d_19">
     <path d="M 421.819064 259.384222 
L 426.822773 260.80958 
" style="fill: none; stroke: #000000; stroke-width: 0.8; stroke-linecap: square"/>
    </g>
    <g id="text_18">
     <!-- 240 -->
     <g transform="translate(432.330899 264.88296) scale(0.1 -0.1)">
      <use xlink:href="#DejaVuSans-15"/>
      <use xlink:href="#DejaVuSans-17" transform="translate(63.625 0)"/>
      <use xlink:href="#DejaVuSans-13" transform="translate(127.25 0)"/>
     </g>
    </g>
   </g>
   <g id="xtick_17">
    <g id="line2d_20">
     <path d="M 422.555068 243.138374 
L 427.583226 244.550899 
" style="fill: none; stroke: #000000; stroke-width: 0.8; stroke-linecap: square"/>
    </g>
    <g id="text_19">
     <!-- 250 -->
     <g transform="translate(433.159763 248.656039) scale(0.1 -0.1)">
      <use xlink:href="#DejaVuSans-15"/>
      <use xlink:href="#DejaVuSans-18" transform="translate(63.625 0)"/>
      <use xlink:href="#DejaVuSans-13" transform="translate(127.25 0)"/>
     </g>
    </g>
   </g>
   <g id="xtick_18">
    <g id="line2d_21">
     <path d="M 423.298028 226.738978 
L 428.350874 228.138362 
" style="fill: none; stroke: #000000; stroke-width: 0.8; stroke-linecap: square"/>
    </g>
    <g id="text_20">
     <!-- 260 -->
     <g transform="translate(433.996448 232.276021) scale(0.1 -0.1)">
      <use xlink:href="#DejaVuSans-15"/>
      <use xlink:href="#DejaVuSans-19" transform="translate(63.625 0)"/>
      <use xlink:href="#DejaVuSans-13" transform="translate(127.25 0)"/>
     </g>
    </g>
   </g>
   <g id="xtick_19">
    <g id="line2d_22">
     <path d="M 424.048043 210.183846 
L 429.125821 211.569776 
" style="fill: none; stroke: #000000; stroke-width: 0.8; stroke-linecap: square"/>
    </g>
    <g id="text_21">
     <!-- 270 -->
     <g transform="translate(434.841064 215.740731) scale(0.1 -0.1)">
      <use xlink:href="#DejaVuSans-15"/>
      <use xlink:href="#DejaVuSans-1a" transform="translate(63.625 0)"/>
      <use xlink:href="#DejaVuSans-13" transform="translate(127.25 0)"/>
     </g>
    </g>
   </g>
   <g id="xtick_20">
    <g id="line2d_23">
     <path d="M 424.805215 193.470751 
L 429.908172 194.842905 
" style="fill: none; stroke: #000000; stroke-width: 0.8; stroke-linecap: square"/>
    </g>
    <g id="text_22">
     <!-- 280 -->
     <g transform="translate(435.693725 199.047949) scale(0.1 -0.1)">
      <use xlink:href="#DejaVuSans-15"/>
      <use xlink:href="#DejaVuSans-1b" transform="translate(63.625 0)"/>
      <use xlink:href="#DejaVuSans-13" transform="translate(127.25 0)"/>
     </g>
    </g>
   </g>
   <g id="xtick_21">
    <g id="line2d_24">
     <path d="M 425.569646 176.597419 
L 430.698033 177.955469 
" style="fill: none; stroke: #000000; stroke-width: 0.8; stroke-linecap: square"/>
    </g>
    <g id="text_23">
     <!-- 290 -->
     <g transform="translate(436.554545 182.195415) scale(0.1 -0.1)">
      <use xlink:href="#DejaVuSans-15"/>
      <use xlink:href="#DejaVuSans-1c" transform="translate(63.625 0)"/>
      <use xlink:href="#DejaVuSans-13" transform="translate(127.25 0)"/>
     </g>
    </g>
   </g>
   <g id="xtick_22">
    <g id="line2d_25">
     <path d="M 426.341441 159.561536 
L 431.495512 160.905145 
" style="fill: none; stroke: #000000; stroke-width: 0.8; stroke-linecap: square"/>
    </g>
    <g id="text_24">
     <!-- 300 -->
     <g transform="translate(437.423644 165.180824) scale(0.1 -0.1)">
      <use xlink:href="#DejaVuSans-16"/>
      <use xlink:href="#DejaVuSans-13" transform="translate(63.625 0)"/>
      <use xlink:href="#DejaVuSans-13" transform="translate(127.25 0)"/>
     </g>
    </g>
   </g>
   <g id="xtick_23">
    <g id="line2d_26">
     <path d="M 427.120708 142.360741 
L 432.300721 143.689565 
" style="fill: none; stroke: #000000; stroke-width: 0.8; stroke-linecap: square"/>
    </g>
    <g id="text_25">
     <!-- 310 -->
     <g transform="translate(438.30114 148.001828) scale(0.1 -0.1)">
      <use xlink:href="#DejaVuSans-16"/>
      <use xlink:href="#DejaVuSans-14" transform="translate(63.625 0)"/>
      <use xlink:href="#DejaVuSans-13" transform="translate(127.25 0)"/>
     </g>
    </g>
   </g>
   <g id="text_26">
    <!-- Z (mm) -->
    <g transform="translate(468.024341 221.987026) rotate(-87.378092) scale(0.1 -0.1)">
     <defs>
      <path id="DejaVuSans-3d" d="M 359 4666 
L 4025 4666 
L 4025 4184 
L 1075 531 
L 4097 531 
L 4097 0 
L 288 0 
L 288 481 
L 3238 4134 
L 359 4134 
L 359 4666 
z
" transform="scale(0.015625)"/>
     </defs>
     <use xlink:href="#DejaVuSans-3d"/>
     <use xlink:href="#DejaVuSans-3" transform="translate(68.5 0)"/>
     <use xlink:href="#DejaVuSans-b" transform="translate(100.28125 0)"/>
     <use xlink:href="#DejaVuSans-50" transform="translate(139.296875 0)"/>
     <use xlink:href="#DejaVuSans-50" transform="translate(236.703125 0)"/>
     <use xlink:href="#DejaVuSans-c" transform="translate(334.109375 0)"/>
    </g>
   </g>
  </g>
  <g id="axes_1">
   <g id="line2d_27">
    <path d="M 289.73484 372.104294 
L 292.810958 368.804217 
L 295.58508 363.974533 
L 298.219648 360.55633 
L 294.70447 364.995732 
L 303.517333 353.443238 
L 307.949162 345.292618 
L 307.949162 345.292618 
L 300.106462 359.226733 
L 310.492034 342.856855 
L 303.621651 353.855907 
L 315.511817 332.622006 
L 315.511817 332.622006 
L 322.91054 314.492602 
L 310.182768 342.471447 
L 322.849027 318.843834 
L 322.849027 318.843834 
L 314.88447 326.531697 
L 327.956404 300.367376 
L 301.180636 330.116336 
L 313.541031 309.041452 
L 313.541031 309.041452 
L 289.778952 336.09464 
L 304.992561 310.537985 
L 311.866455 297.848209 
L 294.088267 321.01108 
L 294.088267 321.01108 
L 316.051005 278.772843 
L 321.985416 261.334408 
L 280.493488 321.335762 
L 285.609969 312.828719 
L 303.586902 278.673973 
L 307.536122 270.534406 
L 313.508108 253.082697 
L 265.251259 317.098075 
L 265.251259 317.098075 
L 279.212868 297.178777 
L 255.296522 319.199692 
L 266.917063 303.309426 
L 237.498782 321.303136 
L 227.100558 317.431528 
L 227.100558 317.431528 
L 233.734791 316.022766 
L 223.143241 307.989044 
L 216.468583 315.927981 
L 223.799699 308.861557 
L 217.133562 315.592679 
L 224.445122 308.518039 
L 217.133562 315.592679 
L 225.869611 309.576962 
L 218.744815 316.700863 
L 221.549276 318.787627 
L 229.29583 312.497723 
L 215.381068 314.442219 
L 215.381068 314.442219 
L 217.215653 314.908144 
L 217.215653 314.908144 
L 220.946885 315.49059 
L 220.946885 315.49059 
L 222.99169 316.516307 
L 222.99169 316.516307 
L 225.181635 316.064562 
L 225.181635 316.064562 
L 226.072024 316.292918 
L 226.072024 316.292918 
L 225.661901 317.199965 
L 225.661901 317.199965 
L 226.955755 316.518522 
L 226.955755 316.518522 
L 226.548444 317.427345 
L 227.283517 316.73926 
L 227.283517 316.73926 
L 227.927405 316.398644 
L 227.927405 316.398644 
L 227.519707 317.305807 
L 227.519707 317.305807 
L 228.163591 316.963742 
L 228.163591 316.963742 
L 228.331266 316.266742 
L 231.609397 314.511874 
L 231.609397 314.511874 
L 232.786717 317.407741 
L 232.786717 317.407741 
L 229.05225 320.939206 
L 233.465639 322.081466 
L 233.465639 322.081466 
L 228.331266 316.266742 
L 230.72178 328.459505 
L 230.72178 328.459505 
L 231.124296 333.070208 
L 236.348468 337.04876 
L 230.086939 330.207134 
L 230.086939 330.207134 
L 231.391206 337.654489 
L 226.318683 327.307146 
L 228.331266 316.266742 
L 230.086939 330.207134 
L 229.05225 320.939206 
L 230.086939 330.207134 
L 228.331266 316.266742 
L 228.331266 316.266742 
L 229.05225 320.939206 
L 230.400324 334.799441 
L 229.05225 320.939206 
L 228.331266 316.266742 
L 229.637964 325.5853 
L 230.400324 334.799441 
L 226.318683 327.307146 
L 226.318683 327.307146 
L 229.05225 320.939206 
L 230.086939 330.207134 
L 229.05225 320.939206 
L 230.577776 339.365012 
L 229.637964 325.5853 
L 230.614565 343.899307 
L 228.331266 316.266742 
L 229.637964 325.5853 
L 229.637964 325.5853 
L 230.400324 334.799441 
L 229.05225 320.939206 
L 230.086939 330.207134 
L 230.086939 330.207134 
L 228.331266 316.266742 
L 228.331266 316.266742 
L 228.407189 315.916401 
L 228.407189 315.916401 
L 232.03233 312.353911 
L 232.03233 312.353911 
L 235.522721 308.747527 
L 235.522721 308.747527 
L 242.049003 303.290329 
L 242.049003 303.290329 
L 248.28259 295.833868 
L 248.28259 295.833868 
L 253.63467 286.236383 
L 258.569061 278.417675 
L 258.569061 278.417675 
L 260.821278 274.452576 
L 266.728411 262.342652 
L 271.053095 256.246831 
L 273.885716 247.912078 
L 275.082619 243.700138 
L 275.082619 243.700138 
L 277.038641 235.18433 
L 277.754421 227.162927 
L 277.754421 227.162927 
L 280.31704 220.704554 
L 280.504855 211.871397 
L 279.689023 198.455166 
L 279.689023 198.455166 
L 278.413561 189.411005 
L 273.749588 177.873198 
L 273.749588 177.873198 
L 274.132054 171.11813 
L 269.427431 157.251478 
L 267.222622 157.614165 
L 267.222622 157.614165 
L 256.159934 134.251934 
L 256.159934 134.251934 
L 257.290114 132.071667 
L 251.814708 122.68374 
L 251.814708 122.68374 
L 247.903621 120.161079 
L 241.748265 110.754447 
L 238.475663 106.048577 
L 239.293889 103.878441 
L 232.270075 94.475894 
L 232.270075 94.475894 
L 228.573695 89.777953 
L 228.573695 89.777953 
L 237.243339 94.844552 
L 237.243339 94.844552 
L 241.766539 102.335741 
L 241.766539 102.335741 
L 250.218959 112.366483 
L 254.240634 114.89917 
L 261.308231 127.100553 
L 265.107986 129.62844 
L 268.774575 137.130436 
L 275.996084 142.1702 
L 278.296675 151.833208 
L 288.29368 159.342934 
L 298.992726 176.417736 
L 301.339199 183.869763 
L 301.339199 183.869763 
L 308.732001 196.187874 
L 316.026148 212.957089 
L 316.026148 212.957089 
L 316.75638 229.7383 
L 322.275211 236.788954 
L 327.188462 250.911873 
L 327.188462 250.911873 
L 325.199094 267.289318 
L 327.245504 271.736498 
L 324.6732 280.83357 
L 324.6732 280.83357 
L 326.69795 287.31378 
L 324.377218 303.213105 
L 324.377218 303.213105 
L 320.563764 316.078201 
L 320.197978 320.050939 
L 315.14662 330.591066 
L 314.606154 332.494817 
L 310.205046 342.713563 
L 310.205046 342.713563 
L 305.94661 350.914561 
L 305.94661 350.914561 
L 301.146578 356.292727 
L 297.402858 362.5487 
L 297.402858 362.5487 
L 294.381435 365.869422 
L 294.381435 365.869422 
L 228.687743 314.509907 
L 228.687743 314.509907 
L 228.747794 314.1563 
L 228.747794 314.1563 
L 232.279045 310.568402 
L 232.279045 310.568402 
L 235.679331 306.938091 
L 235.679331 306.938091 
L 238.94443 303.264609 
L 242.106455 301.451944 
L 245.197193 297.720777 
L 248.150504 293.948386 
L 253.644114 286.28296 
L 253.229142 284.287357 
L 253.229142 284.287357 
L 260.838627 274.500961 
L 264.922376 266.462891 
L 266.749286 262.392093 
L 272.567514 252.145772 
L 272.567514 252.145772 
L 274.674878 237.287816 
L 277.834114 230.936111 
L 277.834114 230.936111 
L 277.798989 227.216758 
L 278.389158 209.588774 
L 278.389158 209.588774 
L 280.159948 203.002957 
L 278.473037 189.466973 
L 275.848971 187.066786 
L 274.202849 171.175611 
L 272.77781 166.565077 
L 267.655315 152.663907 
L 267.655315 152.663907 
L 261.074474 143.677363 
L 256.244655 134.309884 
L 256.244655 134.309884 
L 253.627882 129.61758 
L 247.998534 120.220897 
L 247.998534 120.220897 
L 241.843033 110.813158 
L 239.392091 103.937661 
L 239.392091 103.937661 
L 232.37118 94.535313 
L 232.37118 94.535313 
L 228.678035 89.837925 
L 228.678035 89.837925 
L 237.341411 94.903247 
L 246.029134 104.928579 
L 246.029134 104.928579 
L 254.335691 114.959255 
L 261.400239 127.160523 
L 261.400239 127.160523 
L 306.215786 193.807051 
L 308.789281 196.244135 
L 316.075869 213.012784 
L 315.80054 222.487453 
L 318.731383 232.158339 
L 318.731383 232.158339 
L 322.317206 236.844354 
L 327.219123 250.964864 
L 325.462565 260.224477 
L 326.625798 278.830761 
L 326.135446 285.223158 
L 326.712926 287.36405 
L 326.712926 287.36405 
L 324.109414 301.177825 
L 324.55338 305.324209 
L 320.426063 318.122094 
L 315.137315 330.636036 
L 314.592318 332.539184 
L 310.183038 342.755892 
L 310.183038 342.755892 
L 305.920453 350.955935 
L 305.920453 350.955935 
L 301.116238 356.333064 
L 301.116238 356.333064 
L 297.368441 362.587928 
L 297.368441 362.587928 
L 294.342846 365.907574 
L 294.342846 365.907574 
L 228.958465 312.73349 
L 228.958465 312.73349 
" clip-path="url(#pd24e8620d7)" style="fill: none; stroke: #e41a1c; stroke-width: 2; stroke-linecap: square"/>
   </g>
   <g id="text_27">
    <!-- Trajetoria TCP — EB15 HIL Webots -->
    <g transform="translate(154.539993 43.160469) scale(0.11 -0.11)">
     <defs>
      <path id="DejaVuSans-Bold-37" d="M 31 4666 
L 4331 4666 
L 4331 3756 
L 2784 3756 
L 2784 0 
L 1581 0 
L 1581 3756 
L 31 3756 
L 31 4666 
z
" transform="scale(0.015625)"/>
      <path id="DejaVuSans-Bold-55" d="M 3138 2547 
Q 2991 2616 2845 2648 
Q 2700 2681 2553 2681 
Q 2122 2681 1889 2404 
Q 1656 2128 1656 1613 
L 1656 0 
L 538 0 
L 538 3500 
L 1656 3500 
L 1656 2925 
Q 1872 3269 2151 3426 
Q 2431 3584 2822 3584 
Q 2878 3584 2943 3579 
Q 3009 3575 3134 3559 
L 3138 2547 
z
" transform="scale(0.015625)"/>
      <path id="DejaVuSans-Bold-44" d="M 2106 1575 
Q 1756 1575 1579 1456 
Q 1403 1338 1403 1106 
Q 1403 894 1545 773 
Q 1688 653 1941 653 
Q 2256 653 2472 879 
Q 2688 1106 2688 1447 
L 2688 1575 
L 2106 1575 
z
M 3816 1997 
L 3816 0 
L 2688 0 
L 2688 519 
Q 2463 200 2181 54 
Q 1900 -91 1497 -91 
Q 953 -91 614 226 
Q 275 544 275 1050 
Q 275 1666 698 1953 
Q 1122 2241 2028 2241 
L 2688 2241 
L 2688 2328 
Q 2688 2594 2478 2717 
Q 2269 2841 1825 2841 
Q 1466 2841 1156 2769 
Q 847 2697 581 2553 
L 581 3406 
Q 941 3494 1303 3539 
Q 1666 3584 2028 3584 
Q 2975 3584 3395 3211 
Q 3816 2838 3816 1997 
z
" transform="scale(0.015625)"/>
      <path id="DejaVuSans-Bold-4d" d="M 538 3500 
L 1656 3500 
L 1656 63 
Q 1656 -641 1318 -1011 
Q 981 -1381 341 -1381 
L -213 -1381 
L -213 -647 
L -19 -647 
Q 300 -647 419 -503 
Q 538 -359 538 63 
L 538 3500 
z
M 538 4863 
L 1656 4863 
L 1656 3950 
L 538 3950 
L 538 4863 
z
" transform="scale(0.015625)"/>
      <path id="DejaVuSans-Bold-48" d="M 4031 1759 
L 4031 1441 
L 1416 1441 
Q 1456 1047 1700 850 
Q 1944 653 2381 653 
Q 2734 653 3104 758 
Q 3475 863 3866 1075 
L 3866 213 
Q 3469 63 3072 -14 
Q 2675 -91 2278 -91 
Q 1328 -91 801 392 
Q 275 875 275 1747 
Q 275 2603 792 3093 
Q 1309 3584 2216 3584 
Q 3041 3584 3536 3087 
Q 4031 2591 4031 1759 
z
M 2881 2131 
Q 2881 2450 2695 2645 
Q 2509 2841 2209 2841 
Q 1884 2841 1681 2658 
Q 1478 2475 1428 2131 
L 2881 2131 
z
" transform="scale(0.015625)"/>
      <path id="DejaVuSans-Bold-57" d="M 1759 4494 
L 1759 3500 
L 2913 3500 
L 2913 2700 
L 1759 2700 
L 1759 1216 
Q 1759 972 1856 886 
Q 1953 800 2241 800 
L 2816 800 
L 2816 0 
L 1856 0 
Q 1194 0 917 276 
Q 641 553 641 1216 
L 641 2700 
L 84 2700 
L 84 3500 
L 641 3500 
L 641 4494 
L 1759 4494 
z
" transform="scale(0.015625)"/>
      <path id="DejaVuSans-Bold-52" d="M 2203 2784 
Q 1831 2784 1636 2517 
Q 1441 2250 1441 1747 
Q 1441 1244 1636 976 
Q 1831 709 2203 709 
Q 2569 709 2762 976 
Q 2956 1244 2956 1747 
Q 2956 2250 2762 2517 
Q 2569 2784 2203 2784 
z
M 2203 3584 
Q 3106 3584 3614 3096 
Q 4122 2609 4122 1747 
Q 4122 884 3614 396 
Q 3106 -91 2203 -91 
Q 1297 -91 786 396 
Q 275 884 275 1747 
Q 275 2609 786 3096 
Q 1297 3584 2203 3584 
z
" transform="scale(0.015625)"/>
      <path id="DejaVuSans-Bold-4c" d="M 538 3500 
L 1656 3500 
L 1656 0 
L 538 0 
L 538 3500 
z
M 538 4863 
L 1656 4863 
L 1656 3950 
L 538 3950 
L 538 4863 
z
" transform="scale(0.015625)"/>
      <path id="DejaVuSans-Bold-3" transform="scale(0.015625)"/>
      <path id="DejaVuSans-Bold-26" d="M 4288 256 
Q 3956 84 3597 -3 
Q 3238 -91 2847 -91 
Q 1681 -91 1000 561 
Q 319 1213 319 2328 
Q 319 3447 1000 4098 
Q 1681 4750 2847 4750 
Q 3238 4750 3597 4662 
Q 3956 4575 4288 4403 
L 4288 3438 
Q 3953 3666 3628 3772 
Q 3303 3878 2944 3878 
Q 2300 3878 1931 3465 
Q 1563 3053 1563 2328 
Q 1563 1606 1931 1193 
Q 2300 781 2944 781 
Q 3303 781 3628 887 
Q 3953 994 4288 1222 
L 4288 256 
z
" transform="scale(0.015625)"/>
      <path id="DejaVuSans-Bold-33" d="M 588 4666 
L 2584 4666 
Q 3475 4666 3951 4270 
Q 4428 3875 4428 3144 
Q 4428 2409 3951 2014 
Q 3475 1619 2584 1619 
L 1791 1619 
L 1791 0 
L 588 0 
L 588 4666 
z
M 1791 3794 
L 1791 2491 
L 2456 2491 
Q 2806 2491 2997 2661 
Q 3188 2831 3188 3144 
Q 3188 3456 2997 3625 
Q 2806 3794 2456 3794 
L 1791 3794 
z
" transform="scale(0.015625)"/>
      <path id="DejaVuSans-Bold-af6" d="M 344 2156 
L 6056 2156 
L 6056 1350 
L 344 1350 
L 344 2156 
z
" transform="scale(0.015625)"/>
      <path id="DejaVuSans-Bold-28" d="M 588 4666 
L 3834 4666 
L 3834 3756 
L 1791 3756 
L 1791 2888 
L 3713 2888 
L 3713 1978 
L 1791 1978 
L 1791 909 
L 3903 909 
L 3903 0 
L 588 0 
L 588 4666 
z
" transform="scale(0.015625)"/>
      <path id="DejaVuSans-Bold-25" d="M 2456 2859 
Q 2741 2859 2887 2984 
Q 3034 3109 3034 3353 
Q 3034 3594 2887 3720 
Q 2741 3847 2456 3847 
L 1791 3847 
L 1791 2859 
L 2456 2859 
z
M 2497 819 
Q 2859 819 3042 972 
Q 3225 1125 3225 1434 
Q 3225 1738 3044 1889 
Q 2863 2041 2497 2041 
L 1791 2041 
L 1791 819 
L 2497 819 
z
M 3616 2497 
Q 4003 2384 4215 2081 
Q 4428 1778 4428 1338 
Q 4428 663 3972 331 
Q 3516 0 2584 0 
L 588 0 
L 588 4666 
L 2394 4666 
Q 3366 4666 3802 4372 
Q 4238 4078 4238 3431 
Q 4238 3091 4078 2852 
Q 3919 2613 3616 2497 
z
" transform="scale(0.015625)"/>
      <path id="DejaVuSans-Bold-14" d="M 750 831 
L 1813 831 
L 1813 3847 
L 722 3622 
L 722 4441 
L 1806 4666 
L 2950 4666 
L 2950 831 
L 4013 831 
L 4013 0 
L 750 0 
L 750 831 
z
" transform="scale(0.015625)"/>
      <path id="DejaVuSans-Bold-18" d="M 678 4666 
L 3669 4666 
L 3669 3781 
L 1638 3781 
L 1638 3059 
Q 1775 3097 1914 3117 
Q 2053 3138 2203 3138 
Q 3056 3138 3531 2711 
Q 4006 2284 4006 1522 
Q 4006 766 3489 337 
Q 2972 -91 2053 -91 
Q 1656 -91 1267 -14 
Q 878 63 494 219 
L 494 1166 
Q 875 947 1217 837 
Q 1559 728 1863 728 
Q 2300 728 2551 942 
Q 2803 1156 2803 1522 
Q 2803 1891 2551 2103 
Q 2300 2316 1863 2316 
Q 1603 2316 1309 2248 
Q 1016 2181 678 2041 
L 678 4666 
z
" transform="scale(0.015625)"/>
      <path id="DejaVuSans-Bold-2b" d="M 588 4666 
L 1791 4666 
L 1791 2888 
L 3566 2888 
L 3566 4666 
L 4769 4666 
L 4769 0 
L 3566 0 
L 3566 1978 
L 1791 1978 
L 1791 0 
L 588 0 
L 588 4666 
z
" transform="scale(0.015625)"/>
      <path id="DejaVuSans-Bold-2c" d="M 588 4666 
L 1791 4666 
L 1791 0 
L 588 0 
L 588 4666 
z
" transform="scale(0.015625)"/>
      <path id="DejaVuSans-Bold-2f" d="M 588 4666 
L 1791 4666 
L 1791 909 
L 3903 909 
L 3903 0 
L 588 0 
L 588 4666 
z
" transform="scale(0.015625)"/>
      <path id="DejaVuSans-Bold-3a" d="M 191 4666 
L 1344 4666 
L 2150 1275 
L 2950 4666 
L 4109 4666 
L 4909 1275 
L 5716 4666 
L 6859 4666 
L 5759 0 
L 4372 0 
L 3525 3547 
L 2688 0 
L 1300 0 
L 191 4666 
z
" transform="scale(0.015625)"/>
      <path id="DejaVuSans-Bold-45" d="M 2400 722 
Q 2759 722 2948 984 
Q 3138 1247 3138 1747 
Q 3138 2247 2948 2509 
Q 2759 2772 2400 2772 
Q 2041 2772 1848 2508 
Q 1656 2244 1656 1747 
Q 1656 1250 1848 986 
Q 2041 722 2400 722 
z
M 1656 2988 
Q 1888 3294 2169 3439 
Q 2450 3584 2816 3584 
Q 3463 3584 3878 3070 
Q 4294 2556 4294 1747 
Q 4294 938 3878 423 
Q 3463 -91 2816 -91 
Q 2450 -91 2169 54 
Q 1888 200 1656 506 
L 1656 0 
L 538 0 
L 538 4863 
L 1656 4863 
L 1656 2988 
z
" transform="scale(0.015625)"/>
      <path id="DejaVuSans-Bold-56" d="M 3272 3391 
L 3272 2541 
Q 2913 2691 2578 2766 
Q 2244 2841 1947 2841 
Q 1628 2841 1473 2761 
Q 1319 2681 1319 2516 
Q 1319 2381 1436 2309 
Q 1553 2238 1856 2203 
L 2053 2175 
Q 2913 2066 3209 1816 
Q 3506 1566 3506 1031 
Q 3506 472 3093 190 
Q 2681 -91 1863 -91 
Q 1516 -91 1145 -36 
Q 775 19 384 128 
L 384 978 
Q 719 816 1070 734 
Q 1422 653 1784 653 
Q 2113 653 2278 743 
Q 2444 834 2444 1013 
Q 2444 1163 2330 1236 
Q 2216 1309 1875 1350 
L 1678 1375 
Q 931 1469 631 1722 
Q 331 1975 331 2491 
Q 331 3047 712 3315 
Q 1094 3584 1881 3584 
Q 2191 3584 2531 3537 
Q 2872 3491 3272 3391 
z
" transform="scale(0.015625)"/>
     </defs>
     <use xlink:href="#DejaVuSans-Bold-37"/>
     <use xlink:href="#DejaVuSans-Bold-55" transform="translate(57.234375 0)"/>
     <use xlink:href="#DejaVuSans-Bold-44" transform="translate(106.546875 0)"/>
     <use xlink:href="#DejaVuSans-Bold-4d" transform="translate(174.03125 0)"/>
     <use xlink:href="#DejaVuSans-Bold-48" transform="translate(208.3125 0)"/>
     <use xlink:href="#DejaVuSans-Bold-57" transform="translate(276.140625 0)"/>
     <use xlink:href="#DejaVuSans-Bold-52" transform="translate(323.9375 0)"/>
     <use xlink:href="#DejaVuSans-Bold-55" transform="translate(392.640625 0)"/>
     <use xlink:href="#DejaVuSans-Bold-4c" transform="translate(441.953125 0)"/>
     <use xlink:href="#DejaVuSans-Bold-44" transform="translate(476.234375 0)"/>
     <use xlink:href="#DejaVuSans-Bold-3" transform="translate(543.71875 0)"/>
     <use xlink:href="#DejaVuSans-Bold-37" transform="translate(578.53125 0)"/>
     <use xlink:href="#DejaVuSans-Bold-26" transform="translate(646.75 0)"/>
     <use xlink:href="#DejaVuSans-Bold-33" transform="translate(720.140625 0)"/>
     <use xlink:href="#DejaVuSans-Bold-3" transform="translate(793.4375 0)"/>
     <use xlink:href="#DejaVuSans-Bold-af6" transform="translate(828.25 0)"/>
     <use xlink:href="#DejaVuSans-Bold-3" transform="translate(928.25 0)"/>
     <use xlink:href="#DejaVuSans-Bold-28" transform="translate(963.0625 0)"/>
     <use xlink:href="#DejaVuSans-Bold-25" transform="translate(1031.375 0)"/>
     <use xlink:href="#DejaVuSans-Bold-14" transform="translate(1107.59375 0)"/>
     <use xlink:href="#DejaVuSans-Bold-18" transform="translate(1177.171875 0)"/>
     <use xlink:href="#DejaVuSans-Bold-3" transform="translate(1246.75 0)"/>
     <use xlink:href="#DejaVuSans-Bold-2b" transform="translate(1281.5625 0)"/>
     <use xlink:href="#DejaVuSans-Bold-2c" transform="translate(1365.25 0)"/>
     <use xlink:href="#DejaVuSans-Bold-2f" transform="translate(1402.453125 0)"/>
     <use xlink:href="#DejaVuSans-Bold-3" transform="translate(1466.171875 0)"/>
     <use xlink:href="#DejaVuSans-Bold-3a" transform="translate(1500.984375 0)"/>
     <use xlink:href="#DejaVuSans-Bold-48" transform="translate(1607.71875 0)"/>
     <use xlink:href="#DejaVuSans-Bold-45" transform="translate(1675.546875 0)"/>
     <use xlink:href="#DejaVuSans-Bold-52" transform="translate(1747.125 0)"/>
     <use xlink:href="#DejaVuSans-Bold-57" transform="translate(1815.828125 0)"/>
     <use xlink:href="#DejaVuSans-Bold-56" transform="translate(1863.625 0)"/>
    </g>
   </g>
   <g id="legend_1">
    <g id="patch_6">
     <path d="M 354.404368 72.16125 
L 439.332493 72.16125 
Q 441.332493 72.16125 441.332493 70.16125 
L 441.332493 56.160469 
Q 441.332493 54.160469 439.332493 54.160469 
L 354.404368 54.160469 
Q 352.404368 54.160469 352.404368 56.160469 
L 352.404368 70.16125 
Q 352.404368 72.16125 354.404368 72.16125 
z
" style="fill: #ffffff; opacity: 0.8; stroke: #cccccc; stroke-linejoin: miter"/>
    </g>
    <g id="line2d_28">
     <path d="M 356.404368 62.258906 
L 366.404368 62.258906 
L 376.404368 62.258906 
" style="fill: none; stroke: #e41a1c; stroke-width: 2; stroke-linecap: square"/>
    </g>
    <g id="text_28">
     <!-- EB15 (HIL) -->
     <g transform="translate(384.404368 65.758906) scale(0.1 -0.1)">
      <defs>
       <path id="DejaVuSans-28" d="M 628 4666 
L 3578 4666 
L 3578 4134 
L 1259 4134 
L 1259 2753 
L 3481 2753 
L 3481 2222 
L 1259 2222 
L 1259 531 
L 3634 531 
L 3634 0 
L 628 0 
L 628 4666 
z
" transform="scale(0.015625)"/>
       <path id="DejaVuSans-25" d="M 1259 2228 
L 1259 519 
L 2272 519 
Q 2781 519 3026 730 
Q 3272 941 3272 1375 
Q 3272 1813 3026 2020 
Q 2781 2228 2272 2228 
L 1259 2228 
z
M 1259 4147 
L 1259 2741 
L 2194 2741 
Q 2656 2741 2882 2914 
Q 3109 3088 3109 3444 
Q 3109 3797 2882 3972 
Q 2656 4147 2194 4147 
L 1259 4147 
z
M 628 4666 
L 2241 4666 
Q 2963 4666 3353 4366 
Q 3744 4066 3744 3513 
Q 3744 3084 3544 2831 
Q 3344 2578 2956 2516 
Q 3422 2416 3680 2098 
Q 3938 1781 3938 1306 
Q 3938 681 3513 340 
Q 3088 0 2303 0 
L 628 0 
L 628 4666 
z
" transform="scale(0.015625)"/>
       <path id="DejaVuSans-2b" d="M 628 4666 
L 1259 4666 
L 1259 2753 
L 3553 2753 
L 3553 4666 
L 4184 4666 
L 4184 0 
L 3553 0 
L 3553 2222 
L 1259 2222 
L 1259 0 
L 628 0 
L 628 4666 
z
" transform="scale(0.015625)"/>
       <path id="DejaVuSans-2c" d="M 628 4666 
L 1259 4666 
L 1259 0 
L 628 0 
L 628 4666 
z
" transform="scale(0.015625)"/>
       <path id="DejaVuSans-2f" d="M 628 4666 
L 1259 4666 
L 1259 531 
L 3531 531 
L 3531 0 
L 628 0 
L 628 4666 
z
" transform="scale(0.015625)"/>
      </defs>
      <use xlink:href="#DejaVuSans-28"/>
      <use xlink:href="#DejaVuSans-25" transform="translate(63.1875 0)"/>
      <use xlink:href="#DejaVuSans-14" transform="translate(131.796875 0)"/>
      <use xlink:href="#DejaVuSans-18" transform="translate(195.421875 0)"/>
      <use xlink:href="#DejaVuSans-3" transform="translate(259.046875 0)"/>
      <use xlink:href="#DejaVuSans-b" transform="translate(290.828125 0)"/>
      <use xlink:href="#DejaVuSans-2b" transform="translate(329.84375 0)"/>
      <use xlink:href="#DejaVuSans-2c" transform="translate(405.046875 0)"/>
      <use xlink:href="#DejaVuSans-2f" transform="translate(434.546875 0)"/>
      <use xlink:href="#DejaVuSans-c" transform="translate(490.265625 0)"/>
     </g>
    </g>
   </g>
  </g>
  <g id="patch_7">
   <path d="M 561.667507 421.2 
L 933.707038 421.2 
L 933.707038 49.160469 
L 561.667507 49.160469 
z
" style="fill: #ffffff"/>
  </g>
  <g id="pane3d_4">
   <g id="patch_8">
    <path d="M 589.759057 329.466975 
L 712.618661 226.483619 
L 710.910795 77.96321 
L 582.171726 171.911119 
" style="fill: #f2f2f2; opacity: 0.5; stroke: #f2f2f2; stroke-linejoin: miter"/>
   </g>
  </g>
  <g id="pane3d_5">
   <g id="patch_9">
    <path d="M 712.618661 226.483619 
L 909.764488 283.786127 
L 916.799928 130.150103 
L 710.910795 77.96321 
" style="fill: #e6e6e6; opacity: 0.5; stroke: #e6e6e6; stroke-linejoin: miter"/>
   </g>
  </g>
  <g id="pane3d_6">
   <g id="patch_10">
    <path d="M 589.759057 329.466975 
L 798.743263 397.721216 
L 909.764488 283.786127 
L 712.618661 226.483619 
" style="fill: #ececec; opacity: 0.5; stroke: #ececec; stroke-linejoin: miter"/>
   </g>
  </g>
  <g id="grid3d_4">
   <g id="Line3DCollection_4">
    <path d="M 594.722401 331.088002 
L 717.321068 227.850423 
L 715.811641 79.205432 
" style="fill: none; stroke: #b0b0b0; stroke-width: 0.8"/>
    <path d="M 619.253497 339.099859 
L 740.547995 234.601573 
L 740.025967 85.343057 
" style="fill: none; stroke: #b0b0b0; stroke-width: 0.8"/>
    <path d="M 644.098057 347.214092 
L 764.047156 241.431852 
L 764.536351 91.555725 
" style="fill: none; stroke: #b0b0b0; stroke-width: 0.8"/>
    <path d="M 669.262126 355.432677 
L 787.823365 248.342657 
L 789.348256 97.84482 
" style="fill: none; stroke: #b0b0b0; stroke-width: 0.8"/>
    <path d="M 694.751909 363.75764 
L 811.881552 255.335422 
L 814.467282 104.211761 
" style="fill: none; stroke: #b0b0b0; stroke-width: 0.8"/>
    <path d="M 720.573771 372.19106 
L 836.226761 262.411613 
L 839.899165 110.658002 
" style="fill: none; stroke: #b0b0b0; stroke-width: 0.8"/>
    <path d="M 746.734242 380.73507 
L 860.864161 269.572733 
L 865.649787 117.185034 
" style="fill: none; stroke: #b0b0b0; stroke-width: 0.8"/>
    <path d="M 773.240029 389.391859 
L 885.799043 276.820319 
L 891.725178 123.794385 
" style="fill: none; stroke: #b0b0b0; stroke-width: 0.8"/>
   </g>
  </g>
  <g id="grid3d_5">
   <g id="Line3DCollection_5">
    <path d="M 594.30933 163.053648 
L 601.302566 319.790976 
L 809.216276 386.973328 
" style="fill: none; stroke: #b0b0b0; stroke-width: 0.8"/>
    <path d="M 617.054098 146.455552 
L 622.95629 301.640396 
L 828.838466 366.836134 
" style="fill: none; stroke: #b0b0b0; stroke-width: 0.8"/>
    <path d="M 639.118996 130.353595 
L 643.990513 284.009093 
L 847.870029 347.305068 
" style="fill: none; stroke: #b0b0b0; stroke-width: 0.8"/>
    <path d="M 660.534058 114.725858 
L 664.431447 266.875097 
L 866.337238 328.353169 
" style="fill: none; stroke: #b0b0b0; stroke-width: 0.8"/>
    <path d="M 681.327575 99.551696 
L 684.303843 250.21766 
L 884.264827 309.955052 
" style="fill: none; stroke: #b0b0b0; stroke-width: 0.8"/>
    <path d="M 701.52622 84.811645 
L 703.631097 234.017173 
L 901.676109 292.086793 
" style="fill: none; stroke: #b0b0b0; stroke-width: 0.8"/>
   </g>
  </g>
  <g id="grid3d_6">
   <g id="Line3DCollection_6">
    <path d="M 910.925194 258.439262 
L 712.3364 201.937504 
L 588.509061 303.509992 
" style="fill: none; stroke: #b0b0b0; stroke-width: 0.8"/>
    <path d="M 912.246965 229.575163 
L 712.015211 174.006098 
L 587.084764 273.933531 
" style="fill: none; stroke: #b0b0b0; stroke-width: 0.8"/>
    <path d="M 913.591008 200.224709 
L 711.688872 145.62677 
L 585.635542 243.839497 
" style="fill: none; stroke: #b0b0b0; stroke-width: 0.8"/>
    <path d="M 914.95789 170.375504 
L 711.357256 116.788659 
L 584.160735 213.214184 
" style="fill: none; stroke: #b0b0b0; stroke-width: 0.8"/>
    <path d="M 916.348198 140.014725 
L 711.020237 87.480548 
L 582.65966 182.043398 
" style="fill: none; stroke: #b0b0b0; stroke-width: 0.8"/>
   </g>
  </g>
  <g id="axis3d_4">
   <g id="line2d_29">
    <path d="M 589.759057 329.466975 
L 798.743263 397.721216 
" style="fill: none; stroke: #000000; stroke-width: 0.8; stroke-linecap: square"/>
   </g>
   <g id="xtick_24">
    <g id="line2d_30">
     <path d="M 595.789811 330.189161 
L 592.58301 332.889536 
" style="fill: none; stroke: #000000; stroke-width: 0.8; stroke-linecap: square"/>
    </g>
    <g id="text_29">
     <!-- −1200 -->
     <g transform="translate(570.281058 354.341829) scale(0.1 -0.1)">
      <defs>
       <path id="DejaVuSans-c9c" d="M 678 2272 
L 4684 2272 
L 4684 1741 
L 678 1741 
L 678 2272 
z
" transform="scale(0.015625)"/>
      </defs>
      <use xlink:href="#DejaVuSans-c9c"/>
      <use xlink:href="#DejaVuSans-14" transform="translate(83.796875 0)"/>
      <use xlink:href="#DejaVuSans-15" transform="translate(147.421875 0)"/>
      <use xlink:href="#DejaVuSans-13" transform="translate(211.046875 0)"/>
      <use xlink:href="#DejaVuSans-13" transform="translate(274.671875 0)"/>
     </g>
    </g>
   </g>
   <g id="xtick_25">
    <g id="line2d_31">
     <path d="M 620.310096 338.189572 
L 617.135746 340.924355 
" style="fill: none; stroke: #000000; stroke-width: 0.8; stroke-linecap: square"/>
    </g>
    <g id="text_30">
     <!-- −1150 -->
     <g transform="translate(594.829685 362.474717) scale(0.1 -0.1)">
      <use xlink:href="#DejaVuSans-c9c"/>
      <use xlink:href="#DejaVuSans-14" transform="translate(83.796875 0)"/>
      <use xlink:href="#DejaVuSans-14" transform="translate(147.421875 0)"/>
      <use xlink:href="#DejaVuSans-18" transform="translate(211.046875 0)"/>
      <use xlink:href="#DejaVuSans-13" transform="translate(274.671875 0)"/>
     </g>
    </g>
   </g>
   <g id="xtick_26">
    <g id="line2d_32">
     <path d="M 645.14348 346.29214 
L 642.002675 349.061993 
" style="fill: none; stroke: #000000; stroke-width: 0.8; stroke-linecap: square"/>
    </g>
    <g id="text_31">
     <!-- −1100 -->
     <g transform="translate(619.692842 370.711808) scale(0.1 -0.1)">
      <use xlink:href="#DejaVuSans-c9c"/>
      <use xlink:href="#DejaVuSans-14" transform="translate(83.796875 0)"/>
      <use xlink:href="#DejaVuSans-14" transform="translate(147.421875 0)"/>
      <use xlink:href="#DejaVuSans-13" transform="translate(211.046875 0)"/>
      <use xlink:href="#DejaVuSans-13" transform="translate(274.671875 0)"/>
     </g>
    </g>
   </g>
   <g id="xtick_27">
    <g id="line2d_33">
     <path d="M 670.295999 354.498835 
L 667.189868 357.304437 
" style="fill: none; stroke: #000000; stroke-width: 0.8; stroke-linecap: square"/>
    </g>
    <g id="text_32">
     <!-- −1050 -->
     <g transform="translate(644.876611 379.055116) scale(0.1 -0.1)">
      <use xlink:href="#DejaVuSans-c9c"/>
      <use xlink:href="#DejaVuSans-14" transform="translate(83.796875 0)"/>
      <use xlink:href="#DejaVuSans-13" transform="translate(147.421875 0)"/>
      <use xlink:href="#DejaVuSans-18" transform="translate(211.046875 0)"/>
      <use xlink:href="#DejaVuSans-13" transform="translate(274.671875 0)"/>
     </g>
    </g>
   </g>
   <g id="xtick_28">
    <g id="line2d_34">
     <path d="M 695.773844 362.811676 
L 692.703551 365.653723 
" style="fill: none; stroke: #000000; stroke-width: 0.8; stroke-linecap: square"/>
    </g>
    <g id="text_33">
     <!-- −1000 -->
     <g transform="translate(670.387236 387.506711) scale(0.1 -0.1)">
      <use xlink:href="#DejaVuSans-c9c"/>
      <use xlink:href="#DejaVuSans-14" transform="translate(83.796875 0)"/>
      <use xlink:href="#DejaVuSans-13" transform="translate(147.421875 0)"/>
      <use xlink:href="#DejaVuSans-13" transform="translate(211.046875 0)"/>
      <use xlink:href="#DejaVuSans-13" transform="translate(274.671875 0)"/>
     </g>
    </g>
   </g>
   <g id="xtick_29">
    <g id="line2d_35">
     <path d="M 721.583367 371.232736 
L 718.550113 374.111944 
" style="fill: none; stroke: #000000; stroke-width: 0.8; stroke-linecap: square"/>
    </g>
    <g id="text_34">
     <!-- −950 -->
     <g transform="translate(699.41237 396.068713) scale(0.1 -0.1)">
      <use xlink:href="#DejaVuSans-c9c"/>
      <use xlink:href="#DejaVuSans-1c" transform="translate(83.796875 0)"/>
      <use xlink:href="#DejaVuSans-18" transform="translate(147.421875 0)"/>
      <use xlink:href="#DejaVuSans-13" transform="translate(211.046875 0)"/>
     </g>
    </g>
   </g>
   <g id="xtick_30">
    <g id="line2d_36">
     <path d="M 747.731089 379.764143 
L 744.736112 382.681245 
" style="fill: none; stroke: #000000; stroke-width: 0.8; stroke-linecap: square"/>
    </g>
    <g id="text_35">
     <!-- −900 -->
     <g transform="translate(725.596087 404.743302) scale(0.1 -0.1)">
      <use xlink:href="#DejaVuSans-c9c"/>
      <use xlink:href="#DejaVuSans-1c" transform="translate(83.796875 0)"/>
      <use xlink:href="#DejaVuSans-13" transform="translate(147.421875 0)"/>
      <use xlink:href="#DejaVuSans-13" transform="translate(211.046875 0)"/>
     </g>
    </g>
   </g>
   <g id="xtick_31">
    <g id="line2d_37">
     <path d="M 774.223699 388.408079 
L 771.26828 391.363828 
" style="fill: none; stroke: #000000; stroke-width: 0.8; stroke-linecap: square"/>
    </g>
    <g id="text_36">
     <!-- −850 -->
     <g transform="translate(752.126384 413.532711) scale(0.1 -0.1)">
      <use xlink:href="#DejaVuSans-c9c"/>
      <use xlink:href="#DejaVuSans-1b" transform="translate(83.796875 0)"/>
      <use xlink:href="#DejaVuSans-18" transform="translate(147.421875 0)"/>
      <use xlink:href="#DejaVuSans-13" transform="translate(211.046875 0)"/>
     </g>
    </g>
   </g>
   <g id="text_37">
    <!-- X (mm) -->
    <g transform="translate(656.702568 394.560478) rotate(-341.912962) scale(0.1 -0.1)">
     <use xlink:href="#DejaVuSans-3b"/>
     <use xlink:href="#DejaVuSans-3" transform="translate(68.5 0)"/>
     <use xlink:href="#DejaVuSans-b" transform="translate(100.28125 0)"/>
     <use xlink:href="#DejaVuSans-50" transform="translate(139.296875 0)"/>
     <use xlink:href="#DejaVuSans-50" transform="translate(236.703125 0)"/>
     <use xlink:href="#DejaVuSans-c" transform="translate(334.109375 0)"/>
    </g>
   </g>
  </g>
  <g id="axis3d_5">
   <g id="line2d_38">
    <path d="M 909.764488 283.786127 
L 798.743263 397.721216 
" style="fill: none; stroke: #000000; stroke-width: 0.8; stroke-linecap: square"/>
   </g>
   <g id="xtick_32">
    <g id="line2d_39">
     <path d="M 807.464374 386.407242 
L 812.724603 388.106959 
" style="fill: none; stroke: #000000; stroke-width: 0.8; stroke-linecap: square"/>
    </g>
    <g id="text_38">
     <!-- −800 -->
     <g transform="translate(808.334371 407.961644) scale(0.1 -0.1)">
      <use xlink:href="#DejaVuSans-c9c"/>
      <use xlink:href="#DejaVuSans-1b" transform="translate(83.796875 0)"/>
      <use xlink:href="#DejaVuSans-13" transform="translate(147.421875 0)"/>
      <use xlink:href="#DejaVuSans-13" transform="translate(211.046875 0)"/>
     </g>
    </g>
   </g>
   <g id="xtick_33">
    <g id="line2d_40">
     <path d="M 827.105021 366.287212 
L 832.30976 367.935372 
" style="fill: none; stroke: #000000; stroke-width: 0.8; stroke-linecap: square"/>
    </g>
    <g id="text_39">
     <!-- −700 -->
     <g transform="translate(827.768361 387.611283) scale(0.1 -0.1)">
      <use xlink:href="#DejaVuSans-c9c"/>
      <use xlink:href="#DejaVuSans-1a" transform="translate(83.796875 0)"/>
      <use xlink:href="#DejaVuSans-13" transform="translate(147.421875 0)"/>
      <use xlink:href="#DejaVuSans-13" transform="translate(211.046875 0)"/>
     </g>
    </g>
   </g>
   <g id="xtick_34">
    <g id="line2d_41">
     <path d="M 846.154733 346.772541 
L 851.304915 348.371455 
" style="fill: none; stroke: #000000; stroke-width: 0.8; stroke-linecap: square"/>
    </g>
    <g id="text_40">
     <!-- −600 -->
     <g transform="translate(846.617148 367.873721) scale(0.1 -0.1)">
      <use xlink:href="#DejaVuSans-c9c"/>
      <use xlink:href="#DejaVuSans-19" transform="translate(83.796875 0)"/>
      <use xlink:href="#DejaVuSans-13" transform="translate(147.421875 0)"/>
      <use xlink:href="#DejaVuSans-13" transform="translate(211.046875 0)"/>
     </g>
    </g>
   </g>
   <g id="xtick_35">
    <g id="line2d_42">
     <path d="M 864.639784 327.836313 
L 869.736331 329.388155 
" style="fill: none; stroke: #000000; stroke-width: 0.8; stroke-linecap: square"/>
    </g>
    <g id="text_41">
     <!-- −500 -->
     <g transform="translate(864.906771 348.721687) scale(0.1 -0.1)">
      <use xlink:href="#DejaVuSans-c9c"/>
      <use xlink:href="#DejaVuSans-18" transform="translate(83.796875 0)"/>
      <use xlink:href="#DejaVuSans-13" transform="translate(147.421875 0)"/>
      <use xlink:href="#DejaVuSans-13" transform="translate(211.046875 0)"/>
     </g>
    </g>
   </g>
   <g id="xtick_36">
    <g id="line2d_43">
     <path d="M 882.584913 309.453185 
L 887.628738 310.960004 
" style="fill: none; stroke: #000000; stroke-width: 0.8; stroke-linecap: square"/>
    </g>
    <g id="text_42">
     <!-- −400 -->
     <g transform="translate(882.66175 330.129508) scale(0.1 -0.1)">
      <use xlink:href="#DejaVuSans-c9c"/>
      <use xlink:href="#DejaVuSans-17" transform="translate(83.796875 0)"/>
      <use xlink:href="#DejaVuSans-13" transform="translate(147.421875 0)"/>
      <use xlink:href="#DejaVuSans-13" transform="translate(211.046875 0)"/>
     </g>
    </g>
   </g>
   <g id="xtick_37">
    <g id="line2d_44">
     <path d="M 900.013435 291.599274 
L 905.00544 293.063001 
" style="fill: none; stroke: #000000; stroke-width: 0.8; stroke-linecap: square"/>
    </g>
    <g id="text_43">
     <!-- −300 -->
     <g transform="translate(899.905189 312.07299) scale(0.1 -0.1)">
      <use xlink:href="#DejaVuSans-c9c"/>
      <use xlink:href="#DejaVuSans-16" transform="translate(83.796875 0)"/>
      <use xlink:href="#DejaVuSans-13" transform="translate(147.421875 0)"/>
      <use xlink:href="#DejaVuSans-13" transform="translate(211.046875 0)"/>
     </g>
    </g>
   </g>
   <g id="text_44">
    <!-- Y (mm) -->
    <g transform="translate(872.799689 381.112772) rotate(-45.742112) scale(0.1 -0.1)">
     <use xlink:href="#DejaVuSans-3c"/>
     <use xlink:href="#DejaVuSans-3" transform="translate(61.078125 0)"/>
     <use xlink:href="#DejaVuSans-b" transform="translate(92.859375 0)"/>
     <use xlink:href="#DejaVuSans-50" transform="translate(131.875 0)"/>
     <use xlink:href="#DejaVuSans-50" transform="translate(229.28125 0)"/>
     <use xlink:href="#DejaVuSans-c" transform="translate(326.6875 0)"/>
    </g>
   </g>
  </g>
  <g id="axis3d_6">
   <g id="line2d_45">
    <path d="M 909.764488 283.786127 
L 916.799928 130.150103 
" style="fill: none; stroke: #000000; stroke-width: 0.8; stroke-linecap: square"/>
   </g>
   <g id="xtick_38">
    <g id="line2d_46">
     <path d="M 909.257911 257.964893 
L 914.263756 259.389137 
" style="fill: none; stroke: #000000; stroke-width: 0.8; stroke-linecap: square"/>
    </g>
    <g id="text_45">
     <!-- −150 -->
     <g transform="translate(915.588015 263.465273) scale(0.1 -0.1)">
      <use xlink:href="#DejaVuSans-c9c"/>
      <use xlink:href="#DejaVuSans-14" transform="translate(83.796875 0)"/>
      <use xlink:href="#DejaVuSans-18" transform="translate(147.421875 0)"/>
      <use xlink:href="#DejaVuSans-13" transform="translate(211.046875 0)"/>
     </g>
    </g>
   </g>
   <g id="xtick_39">
    <g id="line2d_47">
     <path d="M 910.565227 229.10844 
L 915.614505 230.509735 
" style="fill: none; stroke: #000000; stroke-width: 0.8; stroke-linecap: square"/>
    </g>
    <g id="text_46">
     <!-- −100 -->
     <g transform="translate(917.060262 234.642667) scale(0.1 -0.1)">
      <use xlink:href="#DejaVuSans-c9c"/>
      <use xlink:href="#DejaVuSans-14" transform="translate(83.796875 0)"/>
      <use xlink:href="#DejaVuSans-13" transform="translate(147.421875 0)"/>
      <use xlink:href="#DejaVuSans-13" transform="translate(211.046875 0)"/>
     </g>
    </g>
   </g>
   <g id="xtick_40">
    <g id="line2d_48">
     <path d="M 911.894561 199.765959 
L 916.988034 201.143325 
" style="fill: none; stroke: #000000; stroke-width: 0.8; stroke-linecap: square"/>
    </g>
    <g id="text_47">
     <!-- −50 -->
     <g transform="translate(921.738512 205.335473) scale(0.1 -0.1)">
      <use xlink:href="#DejaVuSans-c9c"/>
      <use xlink:href="#DejaVuSans-18" transform="translate(83.796875 0)"/>
      <use xlink:href="#DejaVuSans-13" transform="translate(147.421875 0)"/>
     </g>
    </g>
   </g>
   <g id="xtick_41">
    <g id="line2d_49">
     <path d="M 913.246476 169.925067 
L 918.384921 171.277484 
" style="fill: none; stroke: #000000; stroke-width: 0.8; stroke-linecap: square"/>
    </g>
    <g id="text_48">
     <!-- 0 -->
     <g transform="translate(930.631988 175.531367) scale(0.1 -0.1)">
      <use xlink:href="#DejaVuSans-13"/>
     </g>
    </g>
   </g>
   <g id="xtick_42">
    <g id="line2d_50">
     <path d="M 914.621551 139.572954 
L 919.80577 140.899362 
" style="fill: none; stroke: #000000; stroke-width: 0.8; stroke-linecap: square"/>
    </g>
    <g id="text_49">
     <!-- 50 -->
     <g transform="translate(928.999152 145.217603) scale(0.1 -0.1)">
      <use xlink:href="#DejaVuSans-18"/>
      <use xlink:href="#DejaVuSans-13" transform="translate(63.625 0)"/>
     </g>
    </g>
   </g>
   <g id="text_50">
    <!-- Z (mm) -->
    <g transform="translate(955.398886 221.987026) rotate(-87.378092) scale(0.1 -0.1)">
     <use xlink:href="#DejaVuSans-3d"/>
     <use xlink:href="#DejaVuSans-3" transform="translate(68.5 0)"/>
     <use xlink:href="#DejaVuSans-b" transform="translate(100.28125 0)"/>
     <use xlink:href="#DejaVuSans-50" transform="translate(139.296875 0)"/>
     <use xlink:href="#DejaVuSans-50" transform="translate(236.703125 0)"/>
     <use xlink:href="#DejaVuSans-c" transform="translate(334.109375 0)"/>
    </g>
   </g>
  </g>
  <g id="axes_2">
   <g id="line2d_51">
    <path d="M 715.94824 89.777953 
L 715.829103 90.789137 
L 715.018696 98.513147 
L 714.369936 106.417744 
L 713.867864 115.040717 
L 713.562676 124.395923 
L 713.495937 132.470733 
L 713.629747 141.276337 
L 714.014303 150.825497 
L 714.543947 159.064189 
L 715.327092 168.044581 
L 716.41578 177.779032 
L 717.552813 186.173204 
L 718.997652 195.318658 
L 720.803422 205.226657 
L 722.868558 215.193912 
L 725.020299 224.501017 
L 727.397602 233.856078 
L 729.79338 242.532817 
L 733.060064 253.432481 
L 736.630752 264.388923 
L 739.705672 273.193904 
L 743.823418 284.246076 
L 747.638655 293.864335 
L 752.324569 305.004623 
L 757.315395 316.188431 
L 762.247527 326.661248 
L 767.824765 337.916417 
L 773.704385 349.20359 
L 779.885504 360.518548 
L 785.925073 371.100554 
L 792.547435 382.233401 
L 781.0925 362.669552 
L 774.854854 351.349926 
L 769.303879 340.808534 
L 763.648839 329.544822 
L 758.297017 318.315859 
L 753.575779 307.869568 
L 748.811146 296.717179 
L 744.351572 285.610536 
L 740.196357 274.552386 
L 736.345274 263.545482 
L 732.798571 252.593173 
L 729.761746 242.422437 
L 726.80036 231.583085 
L 724.648217 222.956913 
L 722.228779 212.231523 
L 720.24098 202.281556 
L 718.743334 193.801101 
L 717.4356 185.364788 
L 716.231498 176.278221 
L 715.182432 166.55369 
L 714.484668 158.270707 
L 713.938844 149.352592 
L 713.592815 139.814051 
L 713.494674 131.018277 
L 713.627699 121.613859 
L 713.970737 112.944065 
L 714.574735 103.676108 
L 715.351024 95.140367 
L 715.94824 89.777953 
L 714.645318 102.788465 
L 714.09293 110.721488 
L 713.718673 118.707642 
L 713.524149 126.74576 
L 713.510924 134.835405 
L 713.702579 143.657585 
L 714.149595 153.223165 
L 714.789993 162.166238 
L 715.575169 170.472445 
L 716.637129 179.523732 
L 717.919687 188.630142 
L 719.54996 198.497004 
L 721.153031 207.002146 
L 722.947024 215.551224 
L 725.459977 226.296429 
L 727.686523 234.938684 
L 730.741899 245.796446 
L 733.634306 255.25454 
L 736.506666 264.023081 
L 740.370736 275.032044 
L 744.252162 285.35405 
L 748.704623 296.459951 
L 752.486292 305.377065 
L 757.487036 316.561459 
L 762.791622 327.785472 
L 768.399539 339.043809 
L 773.905898 349.580252 
L 780.096948 360.896616 
L 786.58753 372.235422 
L 792.547435 382.233401 
L 780.986468 362.480525 
L 775.159626 351.915241 
L 769.207707 340.620837 
L 763.92445 330.10711 
L 759.255644 320.371562 
L 754.151119 309.173139 
L 749.351789 298.016482 
L 745.146622 287.643624 
L 740.935721 276.576098 
L 737.786037 267.758491 
L 734.122415 256.784566 
L 730.977253 246.593402 
L 728.491221 237.898749 
L 725.655629 227.085442 
L 723.280256 217.04961 
L 721.025912 206.360901 
L 719.190646 196.446343 
L 717.82373 187.995979 
L 716.556173 178.89395 
L 715.509579 169.845927 
L 714.738457 161.543765 
L 714.113208 152.604427 
L 713.68202 143.043163 
L 713.505383 134.225614 
L 713.55491 124.796807 
L 713.820799 116.104897 
L 714.342406 106.812632 
L 714.98234 98.905877 
L 715.94824 89.777953 
L 714.441334 105.42677 
L 713.915136 114.042467 
L 713.598895 122.720183 
L 713.494647 131.458399 
L 713.603234 140.257389 
L 713.927076 149.115225 
L 714.518099 158.720292 
L 715.225542 167.00561 
L 716.119519 175.339286 
L 717.300402 184.420637 
L 718.819497 194.260683 
L 720.327546 202.744498 
L 722.480706 213.41005 
L 724.418975 221.990438 
L 726.549167 230.612433 
L 729.483338 241.446381 
L 732.720011 252.340146 
L 735.527733 261.096159 
L 739.310456 272.091144 
L 742.835526 281.662421 
L 746.29214 290.53076 
L 750.25653 300.171374 
L 755.115088 311.33692 
L 759.572172 321.046312 
L 764.257451 330.784123 
L 769.557129 341.299439 
L 775.527622 352.595253 
L 781.798452 363.917896 
L 787.921093 374.506171 
L 792.547435 382.233401 
L 782.483933 365.12515 
L 776.181095 353.80009 
L 770.178735 342.501262 
L 764.848635 331.982586 
L 759.430788 320.745149 
L 754.647846 310.2915 
L 749.818096 299.130203 
L 745.292139 288.013304 
L 741.342993 277.680349 
L 737.405897 266.658287 
L 734.005567 256.419764 
L 730.65594 245.504225 
L 727.608964 234.647839 
L 724.863626 223.853447 
L 722.883646 215.26356 
L 720.816724 205.295661 
L 719.251929 196.799704 
L 717.876647 188.347193 
L 716.691291 179.941106 
L 715.619338 170.887006 
L 714.710397 161.19902 
L 714.133053 152.947223 
L 713.74051 144.74534 
L 713.531981 136.593156 
L 713.506128 128.492671 
L 713.68218 119.774682 
L 714.1084 110.454319 
L 714.667341 102.52333 
L 715.466513 94.040325 
L 715.94824 89.777953 
L 715.94824 89.777953 
" clip-path="url(#p474c8666e3)" style="fill: none; stroke-dasharray: 7.4,3.2; stroke-dashoffset: 0; stroke: #377eb8; stroke-width: 2"/>
   </g>
   <g id="text_51">
    <!-- Trajetoria TCP — URSim (Referencia) -->
    <g transform="translate(634.193913 43.160469) scale(0.11 -0.11)">
     <defs>
      <path id="DejaVuSans-Bold-38" d="M 588 4666 
L 1791 4666 
L 1791 1869 
Q 1791 1291 1980 1042 
Q 2169 794 2597 794 
Q 3028 794 3217 1042 
Q 3406 1291 3406 1869 
L 3406 4666 
L 4609 4666 
L 4609 1869 
Q 4609 878 4112 393 
Q 3616 -91 2597 -91 
Q 1581 -91 1084 393 
Q 588 878 588 1869 
L 588 4666 
z
" transform="scale(0.015625)"/>
      <path id="DejaVuSans-Bold-35" d="M 2297 2597 
Q 2675 2597 2839 2737 
Q 3003 2878 3003 3200 
Q 3003 3519 2839 3656 
Q 2675 3794 2297 3794 
L 1791 3794 
L 1791 2597 
L 2297 2597 
z
M 1791 1766 
L 1791 0 
L 588 0 
L 588 4666 
L 2425 4666 
Q 3347 4666 3776 4356 
Q 4206 4047 4206 3378 
Q 4206 2916 3982 2619 
Q 3759 2322 3309 2181 
Q 3556 2125 3751 1926 
Q 3947 1728 4147 1325 
L 4800 0 
L 3519 0 
L 2950 1159 
Q 2778 1509 2601 1637 
Q 2425 1766 2131 1766 
L 1791 1766 
z
" transform="scale(0.015625)"/>
      <path id="DejaVuSans-Bold-36" d="M 3834 4519 
L 3834 3531 
Q 3450 3703 3084 3790 
Q 2719 3878 2394 3878 
Q 1963 3878 1756 3759 
Q 1550 3641 1550 3391 
Q 1550 3203 1689 3098 
Q 1828 2994 2194 2919 
L 2706 2816 
Q 3484 2659 3812 2340 
Q 4141 2022 4141 1434 
Q 4141 663 3683 286 
Q 3225 -91 2284 -91 
Q 1841 -91 1394 -6 
Q 947 78 500 244 
L 500 1259 
Q 947 1022 1364 901 
Q 1781 781 2169 781 
Q 2563 781 2772 912 
Q 2981 1044 2981 1288 
Q 2981 1506 2839 1625 
Q 2697 1744 2272 1838 
L 1806 1941 
Q 1106 2091 782 2419 
Q 459 2747 459 3303 
Q 459 4000 909 4375 
Q 1359 4750 2203 4750 
Q 2588 4750 2994 4692 
Q 3400 4634 3834 4519 
z
" transform="scale(0.015625)"/>
      <path id="DejaVuSans-Bold-50" d="M 3781 2919 
Q 3994 3244 4286 3414 
Q 4578 3584 4928 3584 
Q 5531 3584 5847 3212 
Q 6163 2841 6163 2131 
L 6163 0 
L 5038 0 
L 5038 1825 
Q 5041 1866 5042 1909 
Q 5044 1953 5044 2034 
Q 5044 2406 4934 2573 
Q 4825 2741 4581 2741 
Q 4263 2741 4089 2478 
Q 3916 2216 3909 1719 
L 3909 0 
L 2784 0 
L 2784 1825 
Q 2784 2406 2684 2573 
Q 2584 2741 2328 2741 
Q 2006 2741 1831 2477 
Q 1656 2213 1656 1722 
L 1656 0 
L 531 0 
L 531 3500 
L 1656 3500 
L 1656 2988 
Q 1863 3284 2130 3434 
Q 2397 3584 2719 3584 
Q 3081 3584 3359 3409 
Q 3638 3234 3781 2919 
z
" transform="scale(0.015625)"/>
      <path id="DejaVuSans-Bold-b" d="M 2413 -844 
L 1484 -844 
Q 1006 -72 778 623 
Q 550 1319 550 2003 
Q 550 2688 779 3389 
Q 1009 4091 1484 4856 
L 2413 4856 
Q 2013 4116 1813 3408 
Q 1613 2700 1613 2009 
Q 1613 1319 1811 609 
Q 2009 -100 2413 -844 
z
" transform="scale(0.015625)"/>
      <path id="DejaVuSans-Bold-49" d="M 2841 4863 
L 2841 4128 
L 2222 4128 
Q 1984 4128 1890 4042 
Q 1797 3956 1797 3744 
L 1797 3500 
L 2753 3500 
L 2753 2700 
L 1797 2700 
L 1797 0 
L 678 0 
L 678 2700 
L 122 2700 
L 122 3500 
L 678 3500 
L 678 3744 
Q 678 4316 997 4589 
Q 1316 4863 1984 4863 
L 2841 4863 
z
" transform="scale(0.015625)"/>
      <path id="DejaVuSans-Bold-51" d="M 4056 2131 
L 4056 0 
L 2931 0 
L 2931 347 
L 2931 1631 
Q 2931 2084 2911 2256 
Q 2891 2428 2841 2509 
Q 2775 2619 2662 2680 
Q 2550 2741 2406 2741 
Q 2056 2741 1856 2470 
Q 1656 2200 1656 1722 
L 1656 0 
L 538 0 
L 538 3500 
L 1656 3500 
L 1656 2988 
Q 1909 3294 2193 3439 
Q 2478 3584 2822 3584 
Q 3428 3584 3742 3212 
Q 4056 2841 4056 2131 
z
" transform="scale(0.015625)"/>
      <path id="DejaVuSans-Bold-46" d="M 3366 3391 
L 3366 2478 
Q 3138 2634 2908 2709 
Q 2678 2784 2431 2784 
Q 1963 2784 1702 2511 
Q 1441 2238 1441 1747 
Q 1441 1256 1702 982 
Q 1963 709 2431 709 
Q 2694 709 2930 787 
Q 3166 866 3366 1019 
L 3366 103 
Q 3103 6 2833 -42 
Q 2563 -91 2291 -91 
Q 1344 -91 809 395 
Q 275 881 275 1747 
Q 275 2613 809 3098 
Q 1344 3584 2291 3584 
Q 2566 3584 2833 3536 
Q 3100 3488 3366 3391 
z
" transform="scale(0.015625)"/>
      <path id="DejaVuSans-Bold-c" d="M 513 -844 
Q 913 -100 1113 609 
Q 1313 1319 1313 2009 
Q 1313 2700 1113 3408 
Q 913 4116 513 4856 
L 1441 4856 
Q 1916 4091 2145 3389 
Q 2375 2688 2375 2003 
Q 2375 1319 2147 623 
Q 1919 -72 1441 -844 
L 513 -844 
z
" transform="scale(0.015625)"/>
     </defs>
     <use xlink:href="#DejaVuSans-Bold-37"/>
     <use xlink:href="#DejaVuSans-Bold-55" transform="translate(57.234375 0)"/>
     <use xlink:href="#DejaVuSans-Bold-44" transform="translate(106.546875 0)"/>
     <use xlink:href="#DejaVuSans-Bold-4d" transform="translate(174.03125 0)"/>
     <use xlink:href="#DejaVuSans-Bold-48" transform="translate(208.3125 0)"/>
     <use xlink:href="#DejaVuSans-Bold-57" transform="translate(276.140625 0)"/>
     <use xlink:href="#DejaVuSans-Bold-52" transform="translate(323.9375 0)"/>
     <use xlink:href="#DejaVuSans-Bold-55" transform="translate(392.640625 0)"/>
     <use xlink:href="#DejaVuSans-Bold-4c" transform="translate(441.953125 0)"/>
     <use xlink:href="#DejaVuSans-Bold-44" transform="translate(476.234375 0)"/>
     <use xlink:href="#DejaVuSans-Bold-3" transform="translate(543.71875 0)"/>
     <use xlink:href="#DejaVuSans-Bold-37" transform="translate(578.53125 0)"/>
     <use xlink:href="#DejaVuSans-Bold-26" transform="translate(646.75 0)"/>
     <use xlink:href="#DejaVuSans-Bold-33" transform="translate(720.140625 0)"/>
     <use xlink:href="#DejaVuSans-Bold-3" transform="translate(793.4375 0)"/>
     <use xlink:href="#DejaVuSans-Bold-af6" transform="translate(828.25 0)"/>
     <use xlink:href="#DejaVuSans-Bold-3" transform="translate(928.25 0)"/>
     <use xlink:href="#DejaVuSans-Bold-38" transform="translate(963.0625 0)"/>
     <use xlink:href="#DejaVuSans-Bold-35" transform="translate(1044.265625 0)"/>
     <use xlink:href="#DejaVuSans-Bold-36" transform="translate(1121.265625 0)"/>
     <use xlink:href="#DejaVuSans-Bold-4c" transform="translate(1193.28125 0)"/>
     <use xlink:href="#DejaVuSans-Bold-50" transform="translate(1227.5625 0)"/>
     <use xlink:href="#DejaVuSans-Bold-3" transform="translate(1331.765625 0)"/>
     <use xlink:href="#DejaVuSans-Bold-b" transform="translate(1366.578125 0)"/>
     <use xlink:href="#DejaVuSans-Bold-35" transform="translate(1412.28125 0)"/>
     <use xlink:href="#DejaVuSans-Bold-48" transform="translate(1489.28125 0)"/>
     <use xlink:href="#DejaVuSans-Bold-49" transform="translate(1557.109375 0)"/>
     <use xlink:href="#DejaVuSans-Bold-48" transform="translate(1600.609375 0)"/>
     <use xlink:href="#DejaVuSans-Bold-55" transform="translate(1668.4375 0)"/>
     <use xlink:href="#DejaVuSans-Bold-48" transform="translate(1717.75 0)"/>
     <use xlink:href="#DejaVuSans-Bold-51" transform="translate(1785.578125 0)"/>
     <use xlink:href="#DejaVuSans-Bold-46" transform="translate(1856.765625 0)"/>
     <use xlink:href="#DejaVuSans-Bold-4c" transform="translate(1916.046875 0)"/>
     <use xlink:href="#DejaVuSans-Bold-44" transform="translate(1950.328125 0)"/>
     <use xlink:href="#DejaVuSans-Bold-c" transform="translate(2017.8125 0)"/>
    </g>
   </g>
   <g id="legend_2">
    <g id="patch_11">
     <path d="M 861.572663 72.16125 
L 926.707038 72.16125 
Q 928.707038 72.16125 928.707038 70.16125 
L 928.707038 56.160469 
Q 928.707038 54.160469 926.707038 54.160469 
L 861.572663 54.160469 
Q 859.572663 54.160469 859.572663 56.160469 
L 859.572663 70.16125 
Q 859.572663 72.16125 861.572663 72.16125 
z
" style="fill: #ffffff; opacity: 0.8; stroke: #cccccc; stroke-linejoin: miter"/>
    </g>
    <g id="line2d_52">
     <path d="M 863.572663 62.258906 
L 873.572663 62.258906 
L 883.572663 62.258906 
" style="fill: none; stroke-dasharray: 7.4,3.2; stroke-dashoffset: 0; stroke: #377eb8; stroke-width: 2"/>
    </g>
    <g id="text_52">
     <!-- URSim -->
     <g transform="translate(891.572663 65.758906) scale(0.1 -0.1)">
      <defs>
       <path id="DejaVuSans-38" d="M 556 4666 
L 1191 4666 
L 1191 1831 
Q 1191 1081 1462 751 
Q 1734 422 2344 422 
Q 2950 422 3222 751 
Q 3494 1081 3494 1831 
L 3494 4666 
L 4128 4666 
L 4128 1753 
Q 4128 841 3676 375 
Q 3225 -91 2344 -91 
Q 1459 -91 1007 375 
Q 556 841 556 1753 
L 556 4666 
z
" transform="scale(0.015625)"/>
       <path id="DejaVuSans-35" d="M 2841 2188 
Q 3044 2119 3236 1894 
Q 3428 1669 3622 1275 
L 4263 0 
L 3584 0 
L 2988 1197 
Q 2756 1666 2539 1819 
Q 2322 1972 1947 1972 
L 1259 1972 
L 1259 0 
L 628 0 
L 628 4666 
L 2053 4666 
Q 2853 4666 3247 4331 
Q 3641 3997 3641 3322 
Q 3641 2881 3436 2590 
Q 3231 2300 2841 2188 
z
M 1259 4147 
L 1259 2491 
L 2053 2491 
Q 2509 2491 2742 2702 
Q 2975 2913 2975 3322 
Q 2975 3731 2742 3939 
Q 2509 4147 2053 4147 
L 1259 4147 
z
" transform="scale(0.015625)"/>
       <path id="DejaVuSans-36" d="M 3425 4513 
L 3425 3897 
Q 3066 4069 2747 4153 
Q 2428 4238 2131 4238 
Q 1616 4238 1336 4038 
Q 1056 3838 1056 3469 
Q 1056 3159 1242 3001 
Q 1428 2844 1947 2747 
L 2328 2669 
Q 3034 2534 3370 2195 
Q 3706 1856 3706 1288 
Q 3706 609 3251 259 
Q 2797 -91 1919 -91 
Q 1588 -91 1214 -16 
Q 841 59 441 206 
L 441 856 
Q 825 641 1194 531 
Q 1563 422 1919 422 
Q 2459 422 2753 634 
Q 3047 847 3047 1241 
Q 3047 1584 2836 1778 
Q 2625 1972 2144 2069 
L 1759 2144 
Q 1053 2284 737 2584 
Q 422 2884 422 3419 
Q 422 4038 858 4394 
Q 1294 4750 2059 4750 
Q 2388 4750 2728 4690 
Q 3069 4631 3425 4513 
z
" transform="scale(0.015625)"/>
       <path id="DejaVuSans-4c" d="M 603 3500 
L 1178 3500 
L 1178 0 
L 603 0 
L 603 3500 
z
M 603 4863 
L 1178 4863 
L 1178 4134 
L 603 4134 
L 603 4863 
z
" transform="scale(0.015625)"/>
      </defs>
      <use xlink:href="#DejaVuSans-38"/>
      <use xlink:href="#DejaVuSans-35" transform="translate(73.1875 0)"/>
      <use xlink:href="#DejaVuSans-36" transform="translate(142.671875 0)"/>
      <use xlink:href="#DejaVuSans-4c" transform="translate(206.15625 0)"/>
      <use xlink:href="#DejaVuSans-50" transform="translate(233.9375 0)"/>
     </g>
    </g>
   </g>
  </g>
  <g id="text_53">
   <!-- Comparacao de Trajetoria 3D Lado a Lado — linear_x (run 1) -->
   <g transform="translate(284.074531 18.517969) scale(0.13 -0.13)">
    <defs>
     <path id="DejaVuSans-Bold-53" d="M 1656 506 
L 1656 -1331 
L 538 -1331 
L 538 3500 
L 1656 3500 
L 1656 2988 
Q 1888 3294 2169 3439 
Q 2450 3584 2816 3584 
Q 3463 3584 3878 3070 
Q 4294 2556 4294 1747 
Q 4294 938 3878 423 
Q 3463 -91 2816 -91 
Q 2450 -91 2169 54 
Q 1888 200 1656 506 
z
M 2400 2772 
Q 2041 2772 1848 2508 
Q 1656 2244 1656 1747 
Q 1656 1250 1848 986 
Q 2041 722 2400 722 
Q 2759 722 2948 984 
Q 3138 1247 3138 1747 
Q 3138 2247 2948 2509 
Q 2759 2772 2400 2772 
z
" transform="scale(0.015625)"/>
     <path id="DejaVuSans-Bold-47" d="M 2919 2988 
L 2919 4863 
L 4044 4863 
L 4044 0 
L 2919 0 
L 2919 506 
Q 2688 197 2409 53 
Q 2131 -91 1766 -91 
Q 1119 -91 703 423 
Q 288 938 288 1747 
Q 288 2556 703 3070 
Q 1119 3584 1766 3584 
Q 2128 3584 2408 3439 
Q 2688 3294 2919 2988 
z
M 2181 722 
Q 2541 722 2730 984 
Q 2919 1247 2919 1747 
Q 2919 2247 2730 2509 
Q 2541 2772 2181 2772 
Q 1825 2772 1636 2509 
Q 1447 2247 1447 1747 
Q 1447 1247 1636 984 
Q 1825 722 2181 722 
z
" transform="scale(0.015625)"/>
     <path id="DejaVuSans-Bold-16" d="M 2981 2516 
Q 3453 2394 3698 2092 
Q 3944 1791 3944 1325 
Q 3944 631 3412 270 
Q 2881 -91 1863 -91 
Q 1503 -91 1142 -33 
Q 781 25 428 141 
L 428 1069 
Q 766 900 1098 814 
Q 1431 728 1753 728 
Q 2231 728 2486 893 
Q 2741 1059 2741 1369 
Q 2741 1688 2480 1852 
Q 2219 2016 1709 2016 
L 1228 2016 
L 1228 2791 
L 1734 2791 
Q 2188 2791 2409 2933 
Q 2631 3075 2631 3366 
Q 2631 3634 2415 3781 
Q 2200 3928 1806 3928 
Q 1516 3928 1219 3862 
Q 922 3797 628 3669 
L 628 4550 
Q 984 4650 1334 4700 
Q 1684 4750 2022 4750 
Q 2931 4750 3382 4451 
Q 3834 4153 3834 3553 
Q 3834 3144 3618 2883 
Q 3403 2622 2981 2516 
z
" transform="scale(0.015625)"/>
     <path id="DejaVuSans-Bold-27" d="M 1791 3756 
L 1791 909 
L 2222 909 
Q 2959 909 3348 1275 
Q 3738 1641 3738 2338 
Q 3738 3031 3350 3393 
Q 2963 3756 2222 3756 
L 1791 3756 
z
M 588 4666 
L 1856 4666 
Q 2919 4666 3439 4514 
Q 3959 4363 4331 4000 
Q 4659 3684 4818 3271 
Q 4978 2859 4978 2338 
Q 4978 1809 4818 1395 
Q 4659 981 4331 666 
Q 3956 303 3431 151 
Q 2906 0 1856 0 
L 588 0 
L 588 4666 
z
" transform="scale(0.015625)"/>
     <path id="DejaVuSans-Bold-4f" d="M 538 4863 
L 1656 4863 
L 1656 0 
L 538 0 
L 538 4863 
z
" transform="scale(0.015625)"/>
     <path id="DejaVuSans-Bold-42" d="M 3200 -916 
L 3200 -1509 
L 0 -1509 
L 0 -916 
L 3200 -916 
z
" transform="scale(0.015625)"/>
     <path id="DejaVuSans-Bold-5b" d="M 1422 1791 
L 159 3500 
L 1344 3500 
L 2059 2463 
L 2784 3500 
L 3969 3500 
L 2706 1797 
L 4031 0 
L 2847 0 
L 2059 1106 
L 1281 0 
L 97 0 
L 1422 1791 
z
" transform="scale(0.015625)"/>
     <path id="DejaVuSans-Bold-58" d="M 500 1363 
L 500 3500 
L 1625 3500 
L 1625 3150 
Q 1625 2866 1622 2436 
Q 1619 2006 1619 1863 
Q 1619 1441 1641 1255 
Q 1663 1069 1716 984 
Q 1784 875 1895 815 
Q 2006 756 2150 756 
Q 2500 756 2700 1025 
Q 2900 1294 2900 1772 
L 2900 3500 
L 4019 3500 
L 4019 0 
L 2900 0 
L 2900 506 
Q 2647 200 2364 54 
Q 2081 -91 1741 -91 
Q 1134 -91 817 281 
Q 500 653 500 1363 
z
" transform="scale(0.015625)"/>
    </defs>
    <use xlink:href="#DejaVuSans-Bold-26"/>
    <use xlink:href="#DejaVuSans-Bold-52" transform="translate(73.390625 0)"/>
    <use xlink:href="#DejaVuSans-Bold-50" transform="translate(142.09375 0)"/>
    <use xlink:href="#DejaVuSans-Bold-53" transform="translate(246.296875 0)"/>
    <use xlink:href="#DejaVuSans-Bold-44" transform="translate(317.875 0)"/>
    <use xlink:href="#DejaVuSans-Bold-55" transform="translate(385.359375 0)"/>
    <use xlink:href="#DejaVuSans-Bold-44" transform="translate(434.671875 0)"/>
    <use xlink:href="#DejaVuSans-Bold-46" transform="translate(502.15625 0)"/>
    <use xlink:href="#DejaVuSans-Bold-44" transform="translate(561.4375 0)"/>
    <use xlink:href="#DejaVuSans-Bold-52" transform="translate(628.921875 0)"/>
    <use xlink:href="#DejaVuSans-Bold-3" transform="translate(697.625 0)"/>
    <use xlink:href="#DejaVuSans-Bold-47" transform="translate(732.4375 0)"/>
    <use xlink:href="#DejaVuSans-Bold-48" transform="translate(804.015625 0)"/>
    <use xlink:href="#DejaVuSans-Bold-3" transform="translate(871.84375 0)"/>
    <use xlink:href="#DejaVuSans-Bold-37" transform="translate(906.65625 0)"/>
    <use xlink:href="#DejaVuSans-Bold-55" transform="translate(963.890625 0)"/>
    <use xlink:href="#DejaVuSans-Bold-44" transform="translate(1013.203125 0)"/>
    <use xlink:href="#DejaVuSans-Bold-4d" transform="translate(1080.6875 0)"/>
    <use xlink:href="#DejaVuSans-Bold-48" transform="translate(1114.96875 0)"/>
    <use xlink:href="#DejaVuSans-Bold-57" transform="translate(1182.796875 0)"/>
    <use xlink:href="#DejaVuSans-Bold-52" transform="translate(1230.59375 0)"/>
    <use xlink:href="#DejaVuSans-Bold-55" transform="translate(1299.296875 0)"/>
    <use xlink:href="#DejaVuSans-Bold-4c" transform="translate(1348.609375 0)"/>
    <use xlink:href="#DejaVuSans-Bold-44" transform="translate(1382.890625 0)"/>
    <use xlink:href="#DejaVuSans-Bold-3" transform="translate(1450.375 0)"/>
    <use xlink:href="#DejaVuSans-Bold-16" transform="translate(1485.1875 0)"/>
    <use xlink:href="#DejaVuSans-Bold-27" transform="translate(1554.765625 0)"/>
    <use xlink:href="#DejaVuSans-Bold-3" transform="translate(1637.78125 0)"/>
    <use xlink:href="#DejaVuSans-Bold-2f" transform="translate(1672.59375 0)"/>
    <use xlink:href="#DejaVuSans-Bold-44" transform="translate(1736.3125 0)"/>
    <use xlink:href="#DejaVuSans-Bold-47" transform="translate(1803.796875 0)"/>
    <use xlink:href="#DejaVuSans-Bold-52" transform="translate(1875.375 0)"/>
    <use xlink:href="#DejaVuSans-Bold-3" transform="translate(1944.078125 0)"/>
    <use xlink:href="#DejaVuSans-Bold-44" transform="translate(1978.890625 0)"/>
    <use xlink:href="#DejaVuSans-Bold-3" transform="translate(2046.375 0)"/>
    <use xlink:href="#DejaVuSans-Bold-2f" transform="translate(2081.1875 0)"/>
    <use xlink:href="#DejaVuSans-Bold-44" transform="translate(2144.90625 0)"/>
    <use xlink:href="#DejaVuSans-Bold-47" transform="translate(2212.390625 0)"/>
    <use xlink:href="#DejaVuSans-Bold-52" transform="translate(2283.96875 0)"/>
    <use xlink:href="#DejaVuSans-Bold-3" transform="translate(2352.671875 0)"/>
    <use xlink:href="#DejaVuSans-Bold-af6" transform="translate(2387.484375 0)"/>
    <use xlink:href="#DejaVuSans-Bold-3" transform="translate(2487.484375 0)"/>
    <use xlink:href="#DejaVuSans-Bold-4f" transform="translate(2522.296875 0)"/>
    <use xlink:href="#DejaVuSans-Bold-4c" transform="translate(2556.578125 0)"/>
    <use xlink:href="#DejaVuSans-Bold-51" transform="translate(2590.859375 0)"/>
    <use xlink:href="#DejaVuSans-Bold-48" transform="translate(2662.046875 0)"/>
    <use xlink:href="#DejaVuSans-Bold-44" transform="translate(2729.875 0)"/>
    <use xlink:href="#DejaVuSans-Bold-55" transform="translate(2797.359375 0)"/>
    <use xlink:href="#DejaVuSans-Bold-42" transform="translate(2846.671875 0)"/>
    <use xlink:href="#DejaVuSans-Bold-5b" transform="translate(2896.671875 0)"/>
    <use xlink:href="#DejaVuSans-Bold-3" transform="translate(2961.171875 0)"/>
    <use xlink:href="#DejaVuSans-Bold-b" transform="translate(2995.984375 0)"/>
    <use xlink:href="#DejaVuSans-Bold-55" transform="translate(3041.6875 0)"/>
    <use xlink:href="#DejaVuSans-Bold-58" transform="translate(3091 0)"/>
    <use xlink:href="#DejaVuSans-Bold-51" transform="translate(3162.1875 0)"/>
    <use xlink:href="#DejaVuSans-Bold-3" transform="translate(3233.375 0)"/>
    <use xlink:href="#DejaVuSans-Bold-14" transform="translate(3268.1875 0)"/>
    <use xlink:href="#DejaVuSans-Bold-c" transform="translate(3337.765625 0)"/>
   </g>
  </g>
 </g>
 <defs>
  <clipPath id="pd24e8620d7">
   <rect x="74.292962" y="49.160469" width="372.039531" height="372.039531"/>
  </clipPath>
  <clipPath id="p474c8666e3">
   <rect x="561.667507" y="49.160469" width="372.039531" height="372.039531"/>
  </clipPath>
 </defs>
</svg>
