<?xml version="1.0" encoding="utf-8" standalone="no"?>
<!DOCTYPE svg PUBLIC "-//W3C//DTD SVG 1.1//EN"
  "http://www.w3.org/Graphics/SVG/1.1/DTD/svg11.dtd">
<svg xmlns:xlink="http://www.w3.org/1999/xlink" width="1008pt" height="432pt" viewBox="0 0 1008 432" xmlns="http://www.w3.org/2000/svg" version="1.1">
 <metadata>
  <rdf:RDF xmlns:dc="http://purl.org/dc/elements/1.1/" xmlns:cc="http://creativecommons.org/ns#" xmlns:rdf="http://www.w3.org/1999/02/22-rdf-syntax-ns#">
   <cc:Work>
    <dc:type rdf:resource="http://purl.org/dc/dcmitype/StillImage"/>
    <dc:date>2026-06-22T00:26:40.247431</dc:date>
    <dc:format>image/svg+xml</dc:format>
    <dc:creator>
     <cc:Agent>
      <dc:title>Matplotlib v3.11.0, https://matplotlib.org/</dc:title>
     </cc:Agent>
    </dc:creator>
   </cc:Work>
  </rdf:RDF>
 </metadata>
 <defs>
  <style type="text/css">*{stroke-linejoin: round; stroke-linecap: butt}</style>
 </defs>
 <g id="figure_1">
  <g id="patch_1">
   <path d="M 0 432 
L 1008 432 
L 1008 0 
L 0 0 
z
" style="fill: #ffffff"/>
  </g>
  <g id="patch_2">
   <path d="M 74.292962 421.2 
L 446.332493 421.2 
L 446.332493 49.160469 
L 74.292962 49.160469 
z
" style="fill: #ffffff"/>
  </g>
  <g id="pane3d_1">
   <g id="patch_3">
    <path d="M 102.384512 329.466975 
L 225.244115 226.483619 
L 223.536249 77.96321 
L 94.79718 171.911119 
" style="fill: #f2f2f2; opacity: 0.5; stroke: #f2f2f2; stroke-linejoin: miter"/>
   </g>
  </g>
  <g id="pane3d_2">
   <g id="patch_4">
    <path d="M 225.244115 226.483619 
L 422.389942 283.786127 
L 429.425382 130.150103 
L 223.536249 77.96321 
" style="fill: #e6e6e6; opacity: 0.5; stroke: #e6e6e6; stroke-linejoin: miter"/>
   </g>
  </g>
  <g id="pane3d_3">
   <g id="patch_5">
    <path d="M 102.384512 329.466975 
L 311.368718 397.721216 
L 422.389942 283.786127 
L 225.244115 226.483619 
" style="fill: #ececec; opacity: 0.5; stroke: #ececec; stroke-linejoin: miter"/>
   </g>
  </g>
  <g id="grid3d_1">
   <g id="Line3DCollection_1">
    <path d="M 106.622587 330.85113 
L 229.259446 227.650717 
L 227.720994 79.023921 
" style="fill: none; stroke: #b0b0b0; stroke-width: 0.8"/>
    <path d="M 146.347271 343.825212 
L 266.861275 238.580084 
L 266.926766 88.961441 
" style="fill: none; stroke: #b0b0b0; stroke-width: 0.8"/>
    <path d="M 186.89738 357.068877 
L 305.179297 249.71762 
L 306.911755 99.09647 
" style="fill: none; stroke: #b0b0b0; stroke-width: 0.8"/>
    <path d="M 228.298911 370.590617 
L 344.234172 261.06933 
L 347.699425 109.434956 
" style="fill: none; stroke: #b0b0b0; stroke-width: 0.8"/>
    <path d="M 270.578964 384.399282 
L 384.04736 272.641452 
L 389.314191 119.983086 
" style="fill: none; stroke: #b0b0b0; stroke-width: 0.8"/>
   </g>
  </g>
  <g id="grid3d_2">
   <g id="Line3DCollection_2">
    <path d="M 103.699806 165.414388 
L 110.850577 322.370551 
L 319.050527 389.837789 
" style="fill: none; stroke: #b0b0b0; stroke-width: 0.8"/>
    <path d="M 120.873355 152.881914 
L 127.194529 308.670727 
L 333.867214 374.632223 
" style="fill: none; stroke: #b0b0b0; stroke-width: 0.8"/>
    <path d="M 137.658709 140.632727 
L 143.185027 295.267173 
L 348.346621 359.77279 
" style="fill: none; stroke: #b0b0b0; stroke-width: 0.8"/>
    <path d="M 154.068882 128.65733 
L 158.833417 282.150383 
L 362.500134 345.247804 
" style="fill: none; stroke: #b0b0b0; stroke-width: 0.8"/>
    <path d="M 170.116316 116.946644 
L 174.150559 269.311251 
L 376.338633 331.046099 
" style="fill: none; stroke: #b0b0b0; stroke-width: 0.8"/>
    <path d="M 185.812905 105.491988 
L 189.146862 256.741052 
L 389.87252 317.157002 
" style="fill: none; stroke: #b0b0b0; stroke-width: 0.8"/>
    <path d="M 201.170031 94.285057 
L 203.832302 244.431425 
L 403.111742 303.570303 
" style="fill: none; stroke: #b0b0b0; stroke-width: 0.8"/>
    <path d="M 216.198588 83.317901 
L 218.216446 232.374351 
L 416.06582 290.276233 
" style="fill: none; stroke: #b0b0b0; stroke-width: 0.8"/>
   </g>
  </g>
  <g id="grid3d_3">
   <g id="Line3DCollection_3">
    <path d="M 423.099937 268.281662 
L 225.071436 211.466933 
L 101.619982 313.59102 
" style="fill: none; stroke: #b0b0b0; stroke-width: 0.8"/>
    <path d="M 424.515045 237.379327 
L 224.727483 181.555898 
L 100.095403 281.932149 
" style="fill: none; stroke: #b0b0b0; stroke-width: 0.8"/>
    <path d="M 425.955769 205.917584 
L 224.377603 151.129495 
L 98.542163 249.678115 
" style="fill: none; stroke: #b0b0b0; stroke-width: 0.8"/>
    <path d="M 427.422812 173.881106 
L 224.021643 120.174289 
L 96.959446 216.811976 
" style="fill: none; stroke: #b0b0b0; stroke-width: 0.8"/>
    <path d="M 428.916902 141.253998 
L 223.659442 88.676374 
L 95.346406 183.31614 
" style="fill: none; stroke: #b0b0b0; stroke-width: 0.8"/>
   </g>
  </g>
  <g id="axis3d_1">
   <g id="line2d_1">
    <path d="M 102.384512 329.466975 
L 311.368718 397.721216 
" style="fill: none; stroke: #000000; stroke-width: 0.8; stroke-linecap: square"/>
   </g>
   <g id="xtick_1">
    <g id="line2d_2">
     <path d="M 107.690313 329.952625 
L 104.482563 332.651986 
" style="fill: none; stroke: #000000; stroke-width: 0.8; stroke-linecap: square"/>
    </g>
    <g id="text_1">
     <!-- 320 -->
     <g transform="translate(89.551833 354.101383) scale(0.1 -0.1)">
      <defs>
       <path id="DejaVuSans-16" d="M 2597 2516 
Q 3050 2419 3304 2112 
Q 3559 1806 3559 1356 
Q 3559 666 3084 287 
Q 2609 -91 1734 -91 
Q 1441 -91 1130 -33 
Q 819 25 488 141 
L 488 750 
Q 750 597 1062 519 
Q 1375 441 1716 441 
Q 2309 441 2620 675 
Q 2931 909 2931 1356 
Q 2931 1769 2642 2001 
Q 2353 2234 1838 2234 
L 1294 2234 
L 1294 2753 
L 1863 2753 
Q 2328 2753 2575 2939 
Q 2822 3125 2822 3475 
Q 2822 3834 2567 4026 
Q 2313 4219 1838 4219 
Q 1578 4219 1281 4162 
Q 984 4106 628 3988 
L 628 4550 
Q 988 4650 1302 4700 
Q 1616 4750 1894 4750 
Q 2613 4750 3031 4423 
Q 3450 4097 3450 3541 
Q 3450 3153 3228 2886 
Q 3006 2619 2597 2516 
z
" transform="scale(0.015625)"/>
       <path id="DejaVuSans-15" d="M 1228 531 
L 3431 531 
L 3431 0 
L 469 0 
L 469 531 
Q 828 903 1448 1529 
Q 2069 2156 2228 2338 
Q 2531 2678 2651 2914 
Q 2772 3150 2772 3378 
Q 2772 3750 2511 3984 
Q 2250 4219 1831 4219 
Q 1534 4219 1204 4116 
Q 875 4013 500 3803 
L 500 4441 
Q 881 4594 1212 4672 
Q 1544 4750 1819 4750 
Q 2544 4750 2975 4387 
Q 3406 4025 3406 3419 
Q 3406 3131 3298 2873 
Q 3191 2616 2906 2266 
Q 2828 2175 2409 1742 
Q 1991 1309 1228 531 
z
" transform="scale(0.015625)"/>
       <path id="DejaVuSans-13" d="M 2034 4250 
Q 1547 4250 1301 3770 
Q 1056 3291 1056 2328 
Q 1056 1369 1301 889 
Q 1547 409 2034 409 
Q 2525 409 2770 889 
Q 3016 1369 3016 2328 
Q 3016 3291 2770 3770 
Q 2525 4250 2034 4250 
z
M 2034 4750 
Q 2819 4750 3233 4129 
Q 3647 3509 3647 2328 
Q 3647 1150 3233 529 
Q 2819 -91 2034 -91 
Q 1250 -91 836 529 
Q 422 1150 422 2328 
Q 422 3509 836 4129 
Q 1250 4750 2034 4750 
z
" transform="scale(0.015625)"/>
      </defs>
      <use xlink:href="#DejaVuSans-16"/>
      <use xlink:href="#DejaVuSans-15" transform="translate(63.625 0)"/>
      <use xlink:href="#DejaVuSans-13" transform="translate(127.25 0)"/>
     </g>
    </g>
   </g>
   <g id="xtick_2">
    <g id="line2d_3">
     <path d="M 147.397389 342.908141 
L 144.242491 345.66332 
" style="fill: none; stroke: #000000; stroke-width: 0.8; stroke-linecap: square"/>
    </g>
    <g id="text_2">
     <!-- 340 -->
     <g transform="translate(129.30528 367.271582) scale(0.1 -0.1)">
      <defs>
       <path id="DejaVuSans-17" d="M 2419 4116 
L 825 1625 
L 2419 1625 
L 2419 4116 
z
M 2253 4666 
L 3047 4666 
L 3047 1625 
L 3713 1625 
L 3713 1100 
L 3047 1100 
L 3047 0 
L 2419 0 
L 2419 1100 
L 313 1100 
L 313 1709 
L 2253 4666 
z
" transform="scale(0.015625)"/>
      </defs>
      <use xlink:href="#DejaVuSans-16"/>
      <use xlink:href="#DejaVuSans-17" transform="translate(63.625 0)"/>
      <use xlink:href="#DejaVuSans-13" transform="translate(127.25 0)"/>
     </g>
    </g>
   </g>
   <g id="xtick_3">
    <g id="line2d_4">
     <path d="M 187.928925 356.132659 
L 184.829781 358.945405 
" style="fill: none; stroke: #000000; stroke-width: 0.8; stroke-linecap: square"/>
    </g>
    <g id="text_3">
     <!-- 360 -->
     <g transform="translate(169.886984 380.716181) scale(0.1 -0.1)">
      <defs>
       <path id="DejaVuSans-19" d="M 2113 2584 
Q 1688 2584 1439 2293 
Q 1191 2003 1191 1497 
Q 1191 994 1439 701 
Q 1688 409 2113 409 
Q 2538 409 2786 701 
Q 3034 994 3034 1497 
Q 3034 2003 2786 2293 
Q 2538 2584 2113 2584 
z
M 3366 4563 
L 3366 3988 
Q 3128 4100 2886 4159 
Q 2644 4219 2406 4219 
Q 1781 4219 1451 3797 
Q 1122 3375 1075 2522 
Q 1259 2794 1537 2939 
Q 1816 3084 2150 3084 
Q 2853 3084 3261 2657 
Q 3669 2231 3669 1497 
Q 3669 778 3244 343 
Q 2819 -91 2113 -91 
Q 1303 -91 875 529 
Q 447 1150 447 2328 
Q 447 3434 972 4092 
Q 1497 4750 2381 4750 
Q 2619 4750 2861 4703 
Q 3103 4656 3366 4563 
z
" transform="scale(0.015625)"/>
      </defs>
      <use xlink:href="#DejaVuSans-16"/>
      <use xlink:href="#DejaVuSans-19" transform="translate(63.625 0)"/>
      <use xlink:href="#DejaVuSans-13" transform="translate(127.25 0)"/>
     </g>
    </g>
   </g>
   <g id="xtick_4">
    <g id="line2d_5">
     <path d="M 229.310868 369.634645 
L 226.270527 372.506782 
" style="fill: none; stroke: #000000; stroke-width: 0.8; stroke-linecap: square"/>
    </g>
    <g id="text_4">
     <!-- 380 -->
     <g transform="translate(211.323104 394.443846) scale(0.1 -0.1)">
      <defs>
       <path id="DejaVuSans-1b" d="M 2034 2216 
Q 1584 2216 1326 1975 
Q 1069 1734 1069 1313 
Q 1069 891 1326 650 
Q 1584 409 2034 409 
Q 2484 409 2743 651 
Q 3003 894 3003 1313 
Q 3003 1734 2745 1975 
Q 2488 2216 2034 2216 
z
M 1403 2484 
Q 997 2584 770 2862 
Q 544 3141 544 3541 
Q 544 4100 942 4425 
Q 1341 4750 2034 4750 
Q 2731 4750 3128 4425 
Q 3525 4100 3525 3541 
Q 3525 3141 3298 2862 
Q 3072 2584 2669 2484 
Q 3125 2378 3379 2068 
Q 3634 1759 3634 1313 
Q 3634 634 3220 271 
Q 2806 -91 2034 -91 
Q 1263 -91 848 271 
Q 434 634 434 1313 
Q 434 1759 690 2068 
Q 947 2378 1403 2484 
z
M 1172 3481 
Q 1172 3119 1398 2916 
Q 1625 2713 2034 2713 
Q 2441 2713 2670 2916 
Q 2900 3119 2900 3481 
Q 2900 3844 2670 4047 
Q 2441 4250 2034 4250 
Q 1625 4250 1398 4047 
Q 1172 3844 1172 3481 
z
" transform="scale(0.015625)"/>
      </defs>
      <use xlink:href="#DejaVuSans-16"/>
      <use xlink:href="#DejaVuSans-1b" transform="translate(63.625 0)"/>
      <use xlink:href="#DejaVuSans-13" transform="translate(127.25 0)"/>
     </g>
    </g>
   </g>
   <g id="xtick_5">
    <g id="line2d_6">
     <path d="M 271.570265 383.422925 
L 268.591937 386.356354 
" style="fill: none; stroke: #000000; stroke-width: 0.8; stroke-linecap: square"/>
    </g>
    <g id="text_5">
     <!-- 400 -->
     <g transform="translate(253.640909 408.46361) scale(0.1 -0.1)">
      <use xlink:href="#DejaVuSans-17"/>
      <use xlink:href="#DejaVuSans-13" transform="translate(63.625 0)"/>
      <use xlink:href="#DejaVuSans-13" transform="translate(127.25 0)"/>
     </g>
    </g>
   </g>
   <g id="text_6">
    <!-- X (mm) -->
    <g transform="translate(169.328022 394.560478) rotate(-341.912962) scale(0.1 -0.1)">
     <defs>
      <path id="DejaVuSans-3b" d="M 403 4666 
L 1081 4666 
L 2241 2931 
L 3406 4666 
L 4084 4666 
L 2584 2425 
L 4184 0 
L 3506 0 
L 2194 1984 
L 872 0 
L 191 0 
L 1856 2491 
L 403 4666 
z
" transform="scale(0.015625)"/>
      <path id="DejaVuSans-3" transform="scale(0.015625)"/>
      <path id="DejaVuSans-b" d="M 1984 4856 
Q 1566 4138 1362 3434 
Q 1159 2731 1159 2009 
Q 1159 1288 1364 580 
Q 1569 -128 1984 -844 
L 1484 -844 
Q 1016 -109 783 600 
Q 550 1309 550 2009 
Q 550 2706 781 3412 
Q 1013 4119 1484 4856 
L 1984 4856 
z
" transform="scale(0.015625)"/>
      <path id="DejaVuSans-50" d="M 3328 2828 
Q 3544 3216 3844 3400 
Q 4144 3584 4550 3584 
Q 5097 3584 5394 3201 
Q 5691 2819 5691 2113 
L 5691 0 
L 5113 0 
L 5113 2094 
Q 5113 2597 4934 2840 
Q 4756 3084 4391 3084 
Q 3944 3084 3684 2787 
Q 3425 2491 3425 1978 
L 3425 0 
L 2847 0 
L 2847 2094 
Q 2847 2600 2669 2842 
Q 2491 3084 2119 3084 
Q 1678 3084 1418 2786 
Q 1159 2488 1159 1978 
L 1159 0 
L 581 0 
L 581 3500 
L 1159 3500 
L 1159 2956 
Q 1356 3278 1631 3431 
Q 1906 3584 2284 3584 
Q 2666 3584 2933 3390 
Q 3200 3197 3328 2828 
z
" transform="scale(0.015625)"/>
      <path id="DejaVuSans-c" d="M 513 4856 
L 1013 4856 
Q 1481 4119 1714 3412 
Q 1947 2706 1947 2009 
Q 1947 1309 1714 600 
Q 1481 -109 1013 -844 
L 513 -844 
Q 928 -128 1133 580 
Q 1338 1288 1338 2009 
Q 1338 2731 1133 3434 
Q 928 4138 513 4856 
z
" transform="scale(0.015625)"/>
     </defs>
     <use xlink:href="#DejaVuSans-3b"/>
     <use xlink:href="#DejaVuSans-3" transform="translate(68.5 0)"/>
     <use xlink:href="#DejaVuSans-b" transform="translate(100.28125 0)"/>
     <use xlink:href="#DejaVuSans-50" transform="translate(139.296875 0)"/>
     <use xlink:href="#DejaVuSans-50" transform="translate(236.703125 0)"/>
     <use xlink:href="#DejaVuSans-c" transform="translate(334.109375 0)"/>
    </g>
   </g>
  </g>
  <g id="axis3d_2">
   <g id="line2d_7">
    <path d="M 422.389942 283.786127 
L 311.368718 397.721216 
" style="fill: none; stroke: #000000; stroke-width: 0.8; stroke-linecap: square"/>
   </g>
   <g id="xtick_6">
    <g id="line2d_8">
     <path d="M 317.29602 389.269241 
L 322.564079 390.976357 
" style="fill: none; stroke: #000000; stroke-width: 0.8; stroke-linecap: square"/>
    </g>
    <g id="text_7">
     <!-- 0 -->
     <g transform="translate(328.747716 410.85645) scale(0.1 -0.1)">
      <use xlink:href="#DejaVuSans-13"/>
     </g>
    </g>
   </g>
   <g id="xtick_7">
    <g id="line2d_9">
     <path d="M 332.126593 374.076688 
L 337.352907 375.744714 
" style="fill: none; stroke: #000000; stroke-width: 0.8; stroke-linecap: square"/>
    </g>
    <g id="text_8">
     <!-- 20 -->
     <g transform="translate(340.241095 395.489869) scale(0.1 -0.1)">
      <use xlink:href="#DejaVuSans-15"/>
      <use xlink:href="#DejaVuSans-13" transform="translate(63.625 0)"/>
     </g>
    </g>
   </g>
   <g id="xtick_8">
    <g id="line2d_10">
     <path d="M 346.619712 359.229826 
L 351.804804 360.86009 
" style="fill: none; stroke: #000000; stroke-width: 0.8; stroke-linecap: square"/>
    </g>
    <g id="text_9">
     <!-- 40 -->
     <g transform="translate(354.581537 380.473232) scale(0.1 -0.1)">
      <use xlink:href="#DejaVuSans-17"/>
      <use xlink:href="#DejaVuSans-13" transform="translate(63.625 0)"/>
     </g>
    </g>
   </g>
   <g id="xtick_9">
    <g id="line2d_11">
     <path d="M 360.786764 344.716989 
L 365.931156 346.310759 
" style="fill: none; stroke: #000000; stroke-width: 0.8; stroke-linecap: square"/>
    </g>
    <g id="text_10">
     <!-- 60 -->
     <g transform="translate(368.59908 365.79472) scale(0.1 -0.1)">
      <use xlink:href="#DejaVuSans-19"/>
      <use xlink:href="#DejaVuSans-13" transform="translate(63.625 0)"/>
     </g>
    </g>
   </g>
   <g id="xtick_10">
    <g id="line2d_12">
     <path d="M 374.63863 330.527031 
L 379.74284 332.085519 
" style="fill: none; stroke: #000000; stroke-width: 0.8; stroke-linecap: square"/>
    </g>
    <g id="text_11">
     <!-- 80 -->
     <g transform="translate(382.304508 351.443041) scale(0.1 -0.1)">
      <use xlink:href="#DejaVuSans-1b"/>
      <use xlink:href="#DejaVuSans-13" transform="translate(63.625 0)"/>
     </g>
    </g>
   </g>
   <g id="xtick_11">
    <g id="line2d_13">
     <path d="M 388.185714 316.649294 
L 393.250254 318.173659 
" style="fill: none; stroke: #000000; stroke-width: 0.8; stroke-linecap: square"/>
    </g>
    <g id="text_12">
     <!-- 100 -->
     <g transform="translate(392.52688 337.407398) scale(0.1 -0.1)">
      <defs>
       <path id="DejaVuSans-14" d="M 794 531 
L 1825 531 
L 1825 4091 
L 703 3866 
L 703 4441 
L 1819 4666 
L 2450 4666 
L 2450 531 
L 3481 531 
L 3481 0 
L 794 0 
L 794 531 
z
" transform="scale(0.015625)"/>
      </defs>
      <use xlink:href="#DejaVuSans-14"/>
      <use xlink:href="#DejaVuSans-13" transform="translate(63.625 0)"/>
      <use xlink:href="#DejaVuSans-13" transform="translate(127.25 0)"/>
     </g>
    </g>
   </g>
   <g id="xtick_12">
    <g id="line2d_14">
     <path d="M 401.437965 303.073587 
L 406.463344 304.564936 
" style="fill: none; stroke: #000000; stroke-width: 0.8; stroke-linecap: square"/>
    </g>
    <g id="text_13">
     <!-- 120 -->
     <g transform="translate(405.638557 323.677466) scale(0.1 -0.1)">
      <use xlink:href="#DejaVuSans-14"/>
      <use xlink:href="#DejaVuSans-15" transform="translate(63.625 0)"/>
      <use xlink:href="#DejaVuSans-13" transform="translate(127.25 0)"/>
     </g>
    </g>
   </g>
   <g id="xtick_13">
    <g id="line2d_15">
     <path d="M 414.404904 289.790155 
L 419.391624 291.24955 
" style="fill: none; stroke: #000000; stroke-width: 0.8; stroke-linecap: square"/>
    </g>
    <g id="text_14">
     <!-- 140 -->
     <g transform="translate(418.467725 310.243364) scale(0.1 -0.1)">
      <use xlink:href="#DejaVuSans-14"/>
      <use xlink:href="#DejaVuSans-17" transform="translate(63.625 0)"/>
      <use xlink:href="#DejaVuSans-13" transform="translate(127.25 0)"/>
     </g>
    </g>
   </g>
   <g id="text_15">
    <!-- Y (mm) -->
    <g transform="translate(385.425143 381.112772) rotate(-45.742112) scale(0.1 -0.1)">
     <defs>
      <path id="DejaVuSans-3c" d="M -13 4666 
L 666 4666 
L 1959 2747 
L 3244 4666 
L 3922 4666 
L 2272 2222 
L 2272 0 
L 1638 0 
L 1638 2222 
L -13 4666 
z
" transform="scale(0.015625)"/>
     </defs>
     <use xlink:href="#DejaVuSans-3c"/>
     <use xlink:href="#DejaVuSans-3" transform="translate(61.078125 0)"/>
     <use xlink:href="#DejaVuSans-b" transform="translate(92.859375 0)"/>
     <use xlink:href="#DejaVuSans-50" transform="translate(131.875 0)"/>
     <use xlink:href="#DejaVuSans-50" transform="translate(229.28125 0)"/>
     <use xlink:href="#DejaVuSans-c" transform="translate(326.6875 0)"/>
    </g>
   </g>
  </g>
  <g id="axis3d_3">
   <g id="line2d_16">
    <path d="M 422.389942 283.786127 
L 429.425382 130.150103 
" style="fill: none; stroke: #000000; stroke-width: 0.8; stroke-linecap: square"/>
   </g>
   <g id="xtick_14">
    <g id="line2d_17">
     <path d="M 421.437581 267.804729 
L 426.428621 269.236667 
" style="fill: none; stroke: #000000; stroke-width: 0.8; stroke-linecap: square"/>
    </g>
    <g id="text_16">
     <!-- 250 -->
     <g transform="translate(431.901278 273.293763) scale(0.1 -0.1)">
      <defs>
       <path id="DejaVuSans-18" d="M 691 4666 
L 3169 4666 
L 3169 4134 
L 1269 4134 
L 1269 2991 
Q 1406 3038 1543 3061 
Q 1681 3084 1819 3084 
Q 2600 3084 3056 2656 
Q 3513 2228 3513 1497 
Q 3513 744 3044 326 
Q 2575 -91 1722 -91 
Q 1428 -91 1123 -41 
Q 819 9 494 109 
L 494 744 
Q 775 591 1075 516 
Q 1375 441 1709 441 
Q 2250 441 2565 725 
Q 2881 1009 2881 1497 
Q 2881 1984 2565 2268 
Q 2250 2553 1709 2553 
Q 1456 2553 1204 2497 
Q 953 2441 691 2322 
L 691 4666 
z
" transform="scale(0.015625)"/>
      </defs>
      <use xlink:href="#DejaVuSans-15"/>
      <use xlink:href="#DejaVuSans-18" transform="translate(63.625 0)"/>
      <use xlink:href="#DejaVuSans-13" transform="translate(127.25 0)"/>
     </g>
    </g>
   </g>
   <g id="xtick_15">
    <g id="line2d_18">
     <path d="M 422.837215 236.910518 
L 427.874748 238.318075 
" style="fill: none; stroke: #000000; stroke-width: 0.8; stroke-linecap: square"/>
    </g>
    <g id="text_17">
     <!-- 300 -->
     <g transform="translate(433.477505 242.43551) scale(0.1 -0.1)">
      <use xlink:href="#DejaVuSans-16"/>
      <use xlink:href="#DejaVuSans-13" transform="translate(63.625 0)"/>
      <use xlink:href="#DejaVuSans-13" transform="translate(127.25 0)"/>
     </g>
    </g>
   </g>
   <g id="xtick_16">
    <g id="line2d_19">
     <path d="M 424.262176 205.457273 
L 429.347074 206.839327 
" style="fill: none; stroke: #000000; stroke-width: 0.8; stroke-linecap: square"/>
    </g>
    <g id="text_18">
     <!-- 350 -->
     <g transform="translate(435.082203 211.019873) scale(0.1 -0.1)">
      <use xlink:href="#DejaVuSans-16"/>
      <use xlink:href="#DejaVuSans-18" transform="translate(63.625 0)"/>
      <use xlink:href="#DejaVuSans-13" transform="translate(127.25 0)"/>
     </g>
    </g>
   </g>
   <g id="xtick_17">
    <g id="line2d_20">
     <path d="M 425.713157 173.429682 
L 430.846319 174.785062 
" style="fill: none; stroke: #000000; stroke-width: 0.8; stroke-linecap: square"/>
    </g>
    <g id="text_19">
     <!-- 400 -->
     <g transform="translate(436.716151 179.031615) scale(0.1 -0.1)">
      <use xlink:href="#DejaVuSans-17"/>
      <use xlink:href="#DejaVuSans-13" transform="translate(63.625 0)"/>
      <use xlink:href="#DejaVuSans-13" transform="translate(127.25 0)"/>
     </g>
    </g>
   </g>
   <g id="xtick_18">
    <g id="line2d_21">
     <path d="M 427.190878 140.811869 
L 432.373227 142.139351 
" style="fill: none; stroke: #000000; stroke-width: 0.8; stroke-linecap: square"/>
    </g>
    <g id="text_20">
     <!-- 450 -->
     <g transform="translate(438.380155 146.454933) scale(0.1 -0.1)">
      <use xlink:href="#DejaVuSans-17"/>
      <use xlink:href="#DejaVuSans-18" transform="translate(63.625 0)"/>
      <use xlink:href="#DejaVuSans-13" transform="translate(127.25 0)"/>
     </g>
    </g>
   </g>
   <g id="text_21">
    <!-- Z (mm) -->
    <g transform="translate(468.024341 221.987026) rotate(-87.378092) scale(0.1 -0.1)">
     <defs>
      <path id="DejaVuSans-3d" d="M 359 4666 
L 4025 4666 
L 4025 4184 
L 1075 531 
L 4097 531 
L 4097 0 
L 288 0 
L 288 481 
L 3238 4134 
L 359 4134 
L 359 4666 
z
" transform="scale(0.015625)"/>
     </defs>
     <use xlink:href="#DejaVuSans-3d"/>
     <use xlink:href="#DejaVuSans-3" transform="translate(68.5 0)"/>
     <use xlink:href="#DejaVuSans-b" transform="translate(100.28125 0)"/>
     <use xlink:href="#DejaVuSans-50" transform="translate(139.296875 0)"/>
     <use xlink:href="#DejaVuSans-50" transform="translate(236.703125 0)"/>
     <use xlink:href="#DejaVuSans-c" transform="translate(334.109375 0)"/>
    </g>
   </g>
  </g>
  <g id="axes_1">
   <g id="line2d_22">
    <path d="M 278.437355 373.219621 
L 283.565559 368.87268 
L 283.565559 368.87268 
L 285.943003 366.646083 
L 285.943003 366.646083 
L 290.311871 362.086264 
L 292.301687 359.754545 
L 292.301687 359.754545 
L 297.47702 352.55876 
L 297.47702 352.55876 
L 301.438666 345.074298 
L 302.485225 342.518253 
L 304.158327 337.316476 
L 304.158327 337.316476 
L 304.785959 334.673194 
L 305.614336 329.302988 
L 305.871296 323.827197 
L 305.555972 318.252713 
L 305.182906 315.430199 
L 303.190272 306.829981 
L 301.138862 300.994296 
L 301.138862 300.994296 
L 299.895045 298.048838 
L 293.477222 286.099016 
L 289.405577 280.036125 
L 289.405577 280.036125 
L 284.764176 273.924338 
L 276.745891 264.680633 
L 270.704753 258.478511 
L 264.116893 252.252959 
L 264.116893 252.252959 
L 256.990811 246.011292 
L 249.337725 239.761458 
L 241.16718 233.510738 
L 227.966728 224.149266 
L 227.966728 224.149266 
L 213.674991 214.827635 
L 213.674991 214.827635 
L 198.338783 205.569205 
L 198.338783 205.569205 
L 182.006615 196.396825 
L 182.006615 196.396825 
L 170.594754 190.341916 
L 170.594754 190.341916 
L 158.781818 184.342285 
L 158.781818 184.342285 
L 278.437355 373.219621 
L 278.437355 373.219621 
L 231.250345 354.239017 
L 231.250345 354.239017 
L 234.940504 353.332868 
L 234.940504 353.332868 
L 240.131102 348.99208 
L 241.906437 348.510434 
L 248.61456 343.582331 
L 253.40913 339.088822 
L 253.40913 339.088822 
L 256.685123 338.018324 
L 264.322689 332.3028 
L 264.322689 332.3028 
L 273.583688 324.14648 
L 278.916966 318.76757 
L 282.882355 316.872311 
L 282.882355 316.872311 
L 289.865824 307.115358 
L 295.28766 300.812889 
L 299.38963 298.024717 
L 304.603754 287.923194 
L 304.603754 287.923194 
L 306.272745 286.46134 
L 311.54413 277.469279 
L 312.87887 275.960584 
L 316.629112 264.852677 
L 317.564919 263.299192 
L 319.650509 252.884906 
L 319.957174 252.094766 
L 319.957174 252.094766 
L 322.472671 242.093946 
L 322.777543 239.695545 
L 322.708236 229.244689 
L 322.708236 229.244689 
L 321.653906 220.816774 
L 320.806426 218.404281 
L 318.707717 208.039887 
L 317.242305 205.648236 
L 317.242305 205.648236 
L 314.003744 195.390818 
L 310.627051 188.742871 
L 308.970219 184.133037 
L 308.970219 184.133037 
L 300.902706 171.894647 
L 298.759198 170.407941 
L 291.199026 159.940284 
L 288.674774 158.512851 
L 288.674774 158.512851 
L 282.817594 150.179456 
L 281.411833 149.494253 
L 272.930823 142.315339 
L 263.851964 135.793521 
L 263.851964 135.793521 
L 262.544474 133.075307 
L 254.416284 127.397386 
L 250.837128 126.202223 
L 250.837128 126.202223 
L 242.090749 120.712967 
L 242.090749 120.712967 
L 234.910846 115.911304 
L 232.928738 115.369134 
L 225.434562 110.690553 
L 225.434562 110.690553 
L 221.448169 107.731828 
L 221.448169 107.731828 
L 215.567479 105.624528 
L 215.567479 105.624528 
L 213.556425 103.232234 
L 213.556425 103.232234 
L 211.387274 102.758711 
L 211.387274 102.758711 
L 223.192393 106.911878 
L 223.192393 106.911878 
L 240.079176 113.316233 
L 250.770701 117.697716 
L 260.995033 122.163695 
L 260.995033 122.163695 
L 275.426116 129.012218 
L 288.74267 136.028608 
L 288.74267 136.028608 
L 292.927306 138.401428 
L 305.955069 146.276149 
L 305.955069 146.276149 
L 321.673549 157.929007 
L 324.662397 160.428695 
L 324.662397 160.428695 
L 332.80107 167.99055 
L 339.688278 175.634075 
L 341.703904 178.197562 
L 346.907139 185.923313 
L 348.358904 188.509195 
L 349.670053 191.098614 
L 352.751577 198.885354 
L 354.558922 206.683383 
L 354.558922 206.683383 
L 355.060947 211.881404 
L 355.000521 217.071947 
L 354.380889 222.249774 
L 353.20899 227.410838 
L 349.702042 235.880099 
L 348.448695 238.43143 
L 348.448695 238.43143 
L 341.227054 250.288046 
L 341.227054 250.288046 
L 337.114441 255.266176 
L 335.969731 256.020545 
L 331.246927 260.944166 
L 331.246927 260.944166 
L 329.992323 262.643235 
L 329.992323 262.643235 
L 328.696682 263.385454 
L 328.696682 263.385454 
L 231.250345 354.239017 
L 231.250345 354.239017 
L 235.40908 351.602002 
L 236.497425 351.059114 
L 234.253408 353.251276 
L 238.360987 350.598027 
L 234.253408 353.251276 
L 235.40908 351.602002 
L 235.40908 351.602002 
L 231.250345 354.239017 
L 237.178837 352.242651 
L 242.783762 350.159041 
L 249.362666 346.368001 
L 259.38152 339.720551 
L 267.528611 334.556623 
L 267.528611 334.556623 
L 270.97132 331.701748 
L 281.81666 325.200349 
L 284.953222 322.258954 
L 284.953222 322.258954 
L 288.479359 319.672599 
L 293.09864 316.080422 
L 301.893696 308.373398 
L 306.53159 301.483254 
L 308.609245 298.654742 
L 308.609245 298.654742 
L 312.417094 294.873868 
L 314.050804 291.98111 
L 316.089092 288.837551 
L 317.288014 285.89598 
L 318.778622 285.199507 
L 319.254568 283.7113 
L 322.696252 277.347595 
L 322.696252 277.347595 
L 323.185837 274.333404 
L 323.185837 274.333404 
L 323.270382 271.855666 
L 326.050159 270.401636 
L 326.050159 270.401636 
L 326.11096 267.349222 
L 327.377666 264.126803 
L 327.377666 264.126803 
L 332.452213 259.237481 
L 332.452213 259.237481 
L 337.024546 254.295336 
L 337.024546 254.295336 
L 341.086706 249.306225 
L 344.62893 244.273065 
L 344.62893 244.273065 
L 346.202546 241.74201 
L 350.127364 234.096355 
L 352.069708 228.960855 
L 353.463668 223.80233 
L 354.307327 218.62338 
L 354.717032 210.055888 
L 354.049666 204.853596 
L 351.020533 194.452341 
L 347.262838 186.674697 
L 342.231723 178.935614 
L 333.555472 168.708619 
L 333.555472 168.708619 
L 328.3801 163.645861 
L 319.583854 156.128879 
L 319.583854 156.128879 
L 309.56202 148.718775 
L 294.337571 139.036007 
L 285.943729 134.288739 
L 285.943729 134.288739 
L 277.041712 129.611054 
L 262.757756 122.733817 
L 234.562169 111.158712 
L 234.562169 111.158712 
L 213.556425 103.232234 
L 211.387274 102.758711 
L 211.387274 102.758711 
L 223.192393 106.911878 
L 228.932145 109.024112 
L 228.932145 109.024112 
L 240.079176 113.316233 
L 240.079176 113.316233 
L 255.941427 119.920131 
L 257.752807 120.480565 
L 267.640894 125.006946 
L 279.99032 131.333522 
L 279.99032 131.333522 
L 292.927306 138.401428 
L 300.908971 143.197381 
L 308.365436 148.0531 
L 316.37766 153.645612 
L 322.651989 158.622708 
L 332.80107 167.99055 
L 335.237173 170.52974 
L 335.237173 170.52974 
L 343.580719 180.767248 
L 348.358904 188.509195 
L 351.866239 196.287214 
L 354.049666 204.853596 
L 355.060947 211.881404 
L 353.865121 224.833006 
L 353.865121 224.833006 
L 351.488688 232.548787 
L 349.224109 237.660403 
L 347.888701 240.204099 
L 344.820791 245.265137 
L 343.090636 247.782168 
L 343.090636 247.782168 
L 338.143107 253.540226 
L 338.143107 253.540226 
L 334.865185 257.738218 
L 334.865185 257.738218 
L 329.992323 262.643235 
L 329.992323 262.643235 
L 328.696682 263.385454 
L 328.696682 263.385454 
L 231.250345 354.239017 
L 231.250345 354.239017 
L 233.464354 353.700258 
L 233.464354 353.700258 
L 234.848948 356.089794 
L 236.681015 355.634102 
L 237.334754 356.819182 
L 239.144843 356.35758 
L 239.144843 356.35758 
L 242.169467 358.244315 
L 242.745769 359.409194 
L 247.342868 360.774431 
L 253.433168 361.597905 
L 253.433168 361.597905 
L 253.883104 362.731254 
L 255.966888 363.358921 
L 258.373668 365.08661 
L 258.373668 365.08661 
L 261.579215 364.061762 
L 263.814137 365.745509 
L 264.10661 366.835301 
L 264.10661 366.835301 
L 269.395763 368.470417 
L 269.395763 368.470417 
L 271.353743 371.084337 
L 274.22888 369.987513 
L 274.22888 369.987513 
L 275.819499 371.494865 
L 277.196107 370.932993 
L 277.280549 372.964359 
L 277.280549 372.964359 
L 278.632601 372.397684 
L 278.632601 372.397684 
" clip-path="url(#p62331d51f6)" style="fill: none; stroke: #e41a1c; stroke-width: 2; stroke-linecap: square"/>
   </g>
   <g id="text_22">
    <!-- Trajetoria TCP — EB15 HIL Webots -->
    <g transform="translate(154.539993 43.160469) scale(0.11 -0.11)">
     <defs>
      <path id="DejaVuSans-Bold-37" d="M 31 4666 
L 4331 4666 
L 4331 3756 
L 2784 3756 
L 2784 0 
L 1581 0 
L 1581 3756 
L 31 3756 
L 31 4666 
z
" transform="scale(0.015625)"/>
      <path id="DejaVuSans-Bold-55" d="M 3138 2547 
Q 2991 2616 2845 2648 
Q 2700 2681 2553 2681 
Q 2122 2681 1889 2404 
Q 1656 2128 1656 1613 
L 1656 0 
L 538 0 
L 538 3500 
L 1656 3500 
L 1656 2925 
Q 1872 3269 2151 3426 
Q 2431 3584 2822 3584 
Q 2878 3584 2943 3579 
Q 3009 3575 3134 3559 
L 3138 2547 
z
" transform="scale(0.015625)"/>
      <path id="DejaVuSans-Bold-44" d="M 2106 1575 
Q 1756 1575 1579 1456 
Q 1403 1338 1403 1106 
Q 1403 894 1545 773 
Q 1688 653 1941 653 
Q 2256 653 2472 879 
Q 2688 1106 2688 1447 
L 2688 1575 
L 2106 1575 
z
M 3816 1997 
L 3816 0 
L 2688 0 
L 2688 519 
Q 2463 200 2181 54 
Q 1900 -91 1497 -91 
Q 953 -91 614 226 
Q 275 544 275 1050 
Q 275 1666 698 1953 
Q 1122 2241 2028 2241 
L 2688 2241 
L 2688 2328 
Q 2688 2594 2478 2717 
Q 2269 2841 1825 2841 
Q 1466 2841 1156 2769 
Q 847 2697 581 2553 
L 581 3406 
Q 941 3494 1303 3539 
Q 1666 3584 2028 3584 
Q 2975 3584 3395 3211 
Q 3816 2838 3816 1997 
z
" transform="scale(0.015625)"/>
      <path id="DejaVuSans-Bold-4d" d="M 538 3500 
L 1656 3500 
L 1656 63 
Q 1656 -641 1318 -1011 
Q 981 -1381 341 -1381 
L -213 -1381 
L -213 -647 
L -19 -647 
Q 300 -647 419 -503 
Q 538 -359 538 63 
L 538 3500 
z
M 538 4863 
L 1656 4863 
L 1656 3950 
L 538 3950 
L 538 4863 
z
" transform="scale(0.015625)"/>
      <path id="DejaVuSans-Bold-48" d="M 4031 1759 
L 4031 1441 
L 1416 1441 
Q 1456 1047 1700 850 
Q 1944 653 2381 653 
Q 2734 653 3104 758 
Q 3475 863 3866 1075 
L 3866 213 
Q 3469 63 3072 -14 
Q 2675 -91 2278 -91 
Q 1328 -91 801 392 
Q 275 875 275 1747 
Q 275 2603 792 3093 
Q 1309 3584 2216 3584 
Q 3041 3584 3536 3087 
Q 4031 2591 4031 1759 
z
M 2881 2131 
Q 2881 2450 2695 2645 
Q 2509 2841 2209 2841 
Q 1884 2841 1681 2658 
Q 1478 2475 1428 2131 
L 2881 2131 
z
" transform="scale(0.015625)"/>
      <path id="DejaVuSans-Bold-57" d="M 1759 4494 
L 1759 3500 
L 2913 3500 
L 2913 2700 
L 1759 2700 
L 1759 1216 
Q 1759 972 1856 886 
Q 1953 800 2241 800 
L 2816 800 
L 2816 0 
L 1856 0 
Q 1194 0 917 276 
Q 641 553 641 1216 
L 641 2700 
L 84 2700 
L 84 3500 
L 641 3500 
L 641 4494 
L 1759 4494 
z
" transform="scale(0.015625)"/>
      <path id="DejaVuSans-Bold-52" d="M 2203 2784 
Q 1831 2784 1636 2517 
Q 1441 2250 1441 1747 
Q 1441 1244 1636 976 
Q 1831 709 2203 709 
Q 2569 709 2762 976 
Q 2956 1244 2956 1747 
Q 2956 2250 2762 2517 
Q 2569 2784 2203 2784 
z
M 2203 3584 
Q 3106 3584 3614 3096 
Q 4122 2609 4122 1747 
Q 4122 884 3614 396 
Q 3106 -91 2203 -91 
Q 1297 -91 786 396 
Q 275 884 275 1747 
Q 275 2609 786 3096 
Q 1297 3584 2203 3584 
z
" transform="scale(0.015625)"/>
      <path id="DejaVuSans-Bold-4c" d="M 538 3500 
L 1656 3500 
L 1656 0 
L 538 0 
L 538 3500 
z
M 538 4863 
L 1656 4863 
L 1656 3950 
L 538 3950 
L 538 4863 
z
" transform="scale(0.015625)"/>
      <path id="DejaVuSans-Bold-3" transform="scale(0.015625)"/>
      <path id="DejaVuSans-Bold-26" d="M 4288 256 
Q 3956 84 3597 -3 
Q 3238 -91 2847 -91 
Q 1681 -91 1000 561 
Q 319 1213 319 2328 
Q 319 3447 1000 4098 
Q 1681 4750 2847 4750 
Q 3238 4750 3597 4662 
Q 3956 4575 4288 4403 
L 4288 3438 
Q 3953 3666 3628 3772 
Q 3303 3878 2944 3878 
Q 2300 3878 1931 3465 
Q 1563 3053 1563 2328 
Q 1563 1606 1931 1193 
Q 2300 781 2944 781 
Q 3303 781 3628 887 
Q 3953 994 4288 1222 
L 4288 256 
z
" transform="scale(0.015625)"/>
      <path id="DejaVuSans-Bold-33" d="M 588 4666 
L 2584 4666 
Q 3475 4666 3951 4270 
Q 4428 3875 4428 3144 
Q 4428 2409 3951 2014 
Q 3475 1619 2584 1619 
L 1791 1619 
L 1791 0 
L 588 0 
L 588 4666 
z
M 1791 3794 
L 1791 2491 
L 2456 2491 
Q 2806 2491 2997 2661 
Q 3188 2831 3188 3144 
Q 3188 3456 2997 3625 
Q 2806 3794 2456 3794 
L 1791 3794 
z
" transform="scale(0.015625)"/>
      <path id="DejaVuSans-Bold-af6" d="M 344 2156 
L 6056 2156 
L 6056 1350 
L 344 1350 
L 344 2156 
z
" transform="scale(0.015625)"/>
      <path id="DejaVuSans-Bold-28" d="M 588 4666 
L 3834 4666 
L 3834 3756 
L 1791 3756 
L 1791 2888 
L 3713 2888 
L 3713 1978 
L 1791 1978 
L 1791 909 
L 3903 909 
L 3903 0 
L 588 0 
L 588 4666 
z
" transform="scale(0.015625)"/>
      <path id="DejaVuSans-Bold-25" d="M 2456 2859 
Q 2741 2859 2887 2984 
Q 3034 3109 3034 3353 
Q 3034 3594 2887 3720 
Q 2741 3847 2456 3847 
L 1791 3847 
L 1791 2859 
L 2456 2859 
z
M 2497 819 
Q 2859 819 3042 972 
Q 3225 1125 3225 1434 
Q 3225 1738 3044 1889 
Q 2863 2041 2497 2041 
L 1791 2041 
L 1791 819 
L 2497 819 
z
M 3616 2497 
Q 4003 2384 4215 2081 
Q 4428 1778 4428 1338 
Q 4428 663 3972 331 
Q 3516 0 2584 0 
L 588 0 
L 588 4666 
L 2394 4666 
Q 3366 4666 3802 4372 
Q 4238 4078 4238 3431 
Q 4238 3091 4078 2852 
Q 3919 2613 3616 2497 
z
" transform="scale(0.015625)"/>
      <path id="DejaVuSans-Bold-14" d="M 750 831 
L 1813 831 
L 1813 3847 
L 722 3622 
L 722 4441 
L 1806 4666 
L 2950 4666 
L 2950 831 
L 4013 831 
L 4013 0 
L 750 0 
L 750 831 
z
" transform="scale(0.015625)"/>
      <path id="DejaVuSans-Bold-18" d="M 678 4666 
L 3669 4666 
L 3669 3781 
L 1638 3781 
L 1638 3059 
Q 1775 3097 1914 3117 
Q 2053 3138 2203 3138 
Q 3056 3138 3531 2711 
Q 4006 2284 4006 1522 
Q 4006 766 3489 337 
Q 2972 -91 2053 -91 
Q 1656 -91 1267 -14 
Q 878 63 494 219 
L 494 1166 
Q 875 947 1217 837 
Q 1559 728 1863 728 
Q 2300 728 2551 942 
Q 2803 1156 2803 1522 
Q 2803 1891 2551 2103 
Q 2300 2316 1863 2316 
Q 1603 2316 1309 2248 
Q 1016 2181 678 2041 
L 678 4666 
z
" transform="scale(0.015625)"/>
      <path id="DejaVuSans-Bold-2b" d="M 588 4666 
L 1791 4666 
L 1791 2888 
L 3566 2888 
L 3566 4666 
L 4769 4666 
L 4769 0 
L 3566 0 
L 3566 1978 
L 1791 1978 
L 1791 0 
L 588 0 
L 588 4666 
z
" transform="scale(0.015625)"/>
      <path id="DejaVuSans-Bold-2c" d="M 588 4666 
L 1791 4666 
L 1791 0 
L 588 0 
L 588 4666 
z
" transform="scale(0.015625)"/>
      <path id="DejaVuSans-Bold-2f" d="M 588 4666 
L 1791 4666 
L 1791 909 
L 3903 909 
L 3903 0 
L 588 0 
L 588 4666 
z
" transform="scale(0.015625)"/>
      <path id="DejaVuSans-Bold-3a" d="M 191 4666 
L 1344 4666 
L 2150 1275 
L 2950 4666 
L 4109 4666 
L 4909 1275 
L 5716 4666 
L 6859 4666 
L 5759 0 
L 4372 0 
L 3525 3547 
L 2688 0 
L 1300 0 
L 191 4666 
z
" transform="scale(0.015625)"/>
      <path id="DejaVuSans-Bold-45" d="M 2400 722 
Q 2759 722 2948 984 
Q 3138 1247 3138 1747 
Q 3138 2247 2948 2509 
Q 2759 2772 2400 2772 
Q 2041 2772 1848 2508 
Q 1656 2244 1656 1747 
Q 1656 1250 1848 986 
Q 2041 722 2400 722 
z
M 1656 2988 
Q 1888 3294 2169 3439 
Q 2450 3584 2816 3584 
Q 3463 3584 3878 3070 
Q 4294 2556 4294 1747 
Q 4294 938 3878 423 
Q 3463 -91 2816 -91 
Q 2450 -91 2169 54 
Q 1888 200 1656 506 
L 1656 0 
L 538 0 
L 538 4863 
L 1656 4863 
L 1656 2988 
z
" transform="scale(0.015625)"/>
      <path id="DejaVuSans-Bold-56" d="M 3272 3391 
L 3272 2541 
Q 2913 2691 2578 2766 
Q 2244 2841 1947 2841 
Q 1628 2841 1473 2761 
Q 1319 2681 1319 2516 
Q 1319 2381 1436 2309 
Q 1553 2238 1856 2203 
L 2053 2175 
Q 2913 2066 3209 1816 
Q 3506 1566 3506 1031 
Q 3506 472 3093 190 
Q 2681 -91 1863 -91 
Q 1516 -91 1145 -36 
Q 775 19 384 128 
L 384 978 
Q 719 816 1070 734 
Q 1422 653 1784 653 
Q 2113 653 2278 743 
Q 2444 834 2444 1013 
Q 2444 1163 2330 1236 
Q 2216 1309 1875 1350 
L 1678 1375 
Q 931 1469 631 1722 
Q 331 1975 331 2491 
Q 331 3047 712 3315 
Q 1094 3584 1881 3584 
Q 2191 3584 2531 3537 
Q 2872 3491 3272 3391 
z
" transform="scale(0.015625)"/>
     </defs>
     <use xlink:href="#DejaVuSans-Bold-37"/>
     <use xlink:href="#DejaVuSans-Bold-55" transform="translate(57.234375 0)"/>
     <use xlink:href="#DejaVuSans-Bold-44" transform="translate(106.546875 0)"/>
     <use xlink:href="#DejaVuSans-Bold-4d" transform="translate(174.03125 0)"/>
     <use xlink:href="#DejaVuSans-Bold-48" transform="translate(208.3125 0)"/>
     <use xlink:href="#DejaVuSans-Bold-57" transform="translate(276.140625 0)"/>
     <use xlink:href="#DejaVuSans-Bold-52" transform="translate(323.9375 0)"/>
     <use xlink:href="#DejaVuSans-Bold-55" transform="translate(392.640625 0)"/>
     <use xlink:href="#DejaVuSans-Bold-4c" transform="translate(441.953125 0)"/>
     <use xlink:href="#DejaVuSans-Bold-44" transform="translate(476.234375 0)"/>
     <use xlink:href="#DejaVuSans-Bold-3" transform="translate(543.71875 0)"/>
     <use xlink:href="#DejaVuSans-Bold-37" transform="translate(578.53125 0)"/>
     <use xlink:href="#DejaVuSans-Bold-26" transform="translate(646.75 0)"/>
     <use xlink:href="#DejaVuSans-Bold-33" transform="translate(720.140625 0)"/>
     <use xlink:href="#DejaVuSans-Bold-3" transform="translate(793.4375 0)"/>
     <use xlink:href="#DejaVuSans-Bold-af6" transform="translate(828.25 0)"/>
     <use xlink:href="#DejaVuSans-Bold-3" transform="translate(928.25 0)"/>
     <use xlink:href="#DejaVuSans-Bold-28" transform="translate(963.0625 0)"/>
     <use xlink:href="#DejaVuSans-Bold-25" transform="translate(1031.375 0)"/>
     <use xlink:href="#DejaVuSans-Bold-14" transform="translate(1107.59375 0)"/>
     <use xlink:href="#DejaVuSans-Bold-18" transform="translate(1177.171875 0)"/>
     <use xlink:href="#DejaVuSans-Bold-3" transform="translate(1246.75 0)"/>
     <use xlink:href="#DejaVuSans-Bold-2b" transform="translate(1281.5625 0)"/>
     <use xlink:href="#DejaVuSans-Bold-2c" transform="translate(1365.25 0)"/>
     <use xlink:href="#DejaVuSans-Bold-2f" transform="translate(1402.453125 0)"/>
     <use xlink:href="#DejaVuSans-Bold-3" transform="translate(1466.171875 0)"/>
     <use xlink:href="#DejaVuSans-Bold-3a" transform="translate(1500.984375 0)"/>
     <use xlink:href="#DejaVuSans-Bold-48" transform="translate(1607.71875 0)"/>
     <use xlink:href="#DejaVuSans-Bold-45" transform="translate(1675.546875 0)"/>
     <use xlink:href="#DejaVuSans-Bold-52" transform="translate(1747.125 0)"/>
     <use xlink:href="#DejaVuSans-Bold-57" transform="translate(1815.828125 0)"/>
     <use xlink:href="#DejaVuSans-Bold-56" transform="translate(1863.625 0)"/>
    </g>
   </g>
   <g id="legend_1">
    <g id="patch_6">
     <path d="M 354.404368 72.16125 
L 439.332493 72.16125 
Q 441.332493 72.16125 441.332493 70.16125 
L 441.332493 56.160469 
Q 441.332493 54.160469 439.332493 54.160469 
L 354.404368 54.160469 
Q 352.404368 54.160469 352.404368 56.160469 
L 352.404368 70.16125 
Q 352.404368 72.16125 354.404368 72.16125 
z
" style="fill: #ffffff; opacity: 0.8; stroke: #cccccc; stroke-linejoin: miter"/>
    </g>
    <g id="line2d_23">
     <path d="M 356.404368 62.258906 
L 366.404368 62.258906 
L 376.404368 62.258906 
" style="fill: none; stroke: #e41a1c; stroke-width: 2; stroke-linecap: square"/>
    </g>
    <g id="text_23">
     <!-- EB15 (HIL) -->
     <g transform="translate(384.404368 65.758906) scale(0.1 -0.1)">
      <defs>
       <path id="DejaVuSans-28" d="M 628 4666 
L 3578 4666 
L 3578 4134 
L 1259 4134 
L 1259 2753 
L 3481 2753 
L 3481 2222 
L 1259 2222 
L 1259 531 
L 3634 531 
L 3634 0 
L 628 0 
L 628 4666 
z
" transform="scale(0.015625)"/>
       <path id="DejaVuSans-25" d="M 1259 2228 
L 1259 519 
L 2272 519 
Q 2781 519 3026 730 
Q 3272 941 3272 1375 
Q 3272 1813 3026 2020 
Q 2781 2228 2272 2228 
L 1259 2228 
z
M 1259 4147 
L 1259 2741 
L 2194 2741 
Q 2656 2741 2882 2914 
Q 3109 3088 3109 3444 
Q 3109 3797 2882 3972 
Q 2656 4147 2194 4147 
L 1259 4147 
z
M 628 4666 
L 2241 4666 
Q 2963 4666 3353 4366 
Q 3744 4066 3744 3513 
Q 3744 3084 3544 2831 
Q 3344 2578 2956 2516 
Q 3422 2416 3680 2098 
Q 3938 1781 3938 1306 
Q 3938 681 3513 340 
Q 3088 0 2303 0 
L 628 0 
L 628 4666 
z
" transform="scale(0.015625)"/>
       <path id="DejaVuSans-2b" d="M 628 4666 
L 1259 4666 
L 1259 2753 
L 3553 2753 
L 3553 4666 
L 4184 4666 
L 4184 0 
L 3553 0 
L 3553 2222 
L 1259 2222 
L 1259 0 
L 628 0 
L 628 4666 
z
" transform="scale(0.015625)"/>
       <path id="DejaVuSans-2c" d="M 628 4666 
L 1259 4666 
L 1259 0 
L 628 0 
L 628 4666 
z
" transform="scale(0.015625)"/>
       <path id="DejaVuSans-2f" d="M 628 4666 
L 1259 4666 
L 1259 531 
L 3531 531 
L 3531 0 
L 628 0 
L 628 4666 
z
" transform="scale(0.015625)"/>
      </defs>
      <use xlink:href="#DejaVuSans-28"/>
      <use xlink:href="#DejaVuSans-25" transform="translate(63.1875 0)"/>
      <use xlink:href="#DejaVuSans-14" transform="translate(131.796875 0)"/>
      <use xlink:href="#DejaVuSans-18" transform="translate(195.421875 0)"/>
      <use xlink:href="#DejaVuSans-3" transform="translate(259.046875 0)"/>
      <use xlink:href="#DejaVuSans-b" transform="translate(290.828125 0)"/>
      <use xlink:href="#DejaVuSans-2b" transform="translate(329.84375 0)"/>
      <use xlink:href="#DejaVuSans-2c" transform="translate(405.046875 0)"/>
      <use xlink:href="#DejaVuSans-2f" transform="translate(434.546875 0)"/>
      <use xlink:href="#DejaVuSans-c" transform="translate(490.265625 0)"/>
     </g>
    </g>
   </g>
  </g>
  <g id="patch_7">
   <path d="M 561.667507 421.2 
L 933.707038 421.2 
L 933.707038 49.160469 
L 561.667507 49.160469 
z
" style="fill: #ffffff"/>
  </g>
  <g id="pane3d_4">
   <g id="patch_8">
    <path d="M 589.759057 329.466975 
L 712.618661 226.483619 
L 710.910795 77.96321 
L 582.171726 171.911119 
" style="fill: #f2f2f2; opacity: 0.5; stroke: #f2f2f2; stroke-linejoin: miter"/>
   </g>
  </g>
  <g id="pane3d_5">
   <g id="patch_9">
    <path d="M 712.618661 226.483619 
L 909.764488 283.786127 
L 916.799928 130.150103 
L 710.910795 77.96321 
" style="fill: #e6e6e6; opacity: 0.5; stroke: #e6e6e6; stroke-linejoin: miter"/>
   </g>
  </g>
  <g id="pane3d_6">
   <g id="patch_10">
    <path d="M 589.759057 329.466975 
L 798.743263 397.721216 
L 909.764488 283.786127 
L 712.618661 226.483619 
" style="fill: #ececec; opacity: 0.5; stroke: #ececec; stroke-linejoin: miter"/>
   </g>
  </g>
  <g id="grid3d_4">
   <g id="Line3DCollection_4">
    <path d="M 597.954492 332.143604 
L 720.382709 228.740321 
L 719.002747 80.014284 
" style="fill: none; stroke: #b0b0b0; stroke-width: 0.8"/>
    <path d="M 626.458947 341.453158 
L 747.365794 236.583238 
L 747.135882 87.145213 
" style="fill: none; stroke: #b0b0b0; stroke-width: 0.8"/>
    <path d="M 655.386715 350.900967 
L 774.716346 244.532964 
L 775.668731 94.377459 
" style="fill: none; stroke: #b0b0b0; stroke-width: 0.8"/>
    <path d="M 684.747296 360.490133 
L 802.441922 252.591695 
L 804.609872 101.713195 
" style="fill: none; stroke: #b0b0b0; stroke-width: 0.8"/>
    <path d="M 714.550477 370.223852 
L 830.550291 260.761688 
L 833.968134 109.154658 
" style="fill: none; stroke: #b0b0b0; stroke-width: 0.8"/>
    <path d="M 744.806343 380.105418 
L 859.049433 269.045263 
L 863.752598 116.704152 
" style="fill: none; stroke: #b0b0b0; stroke-width: 0.8"/>
    <path d="M 775.525286 390.138224 
L 887.947556 277.444807 
L 893.972615 124.364045 
" style="fill: none; stroke: #b0b0b0; stroke-width: 0.8"/>
   </g>
  </g>
  <g id="grid3d_5">
   <g id="Line3DCollection_5">
    <path d="M 584.216917 170.418631 
L 591.703565 327.83705 
L 800.508055 395.910105 
" style="fill: none; stroke: #b0b0b0; stroke-width: 0.8"/>
    <path d="M 599.857332 159.004969 
L 606.58176 315.365851 
L 814.003001 382.060971 
" style="fill: none; stroke: #b0b0b0; stroke-width: 0.8"/>
    <path d="M 615.176893 147.825451 
L 621.168033 303.139348 
L 827.219141 368.49796 
" style="fill: none; stroke: #b0b0b0; stroke-width: 0.8"/>
    <path d="M 630.185373 136.872946 
L 635.470892 291.150408 
L 840.165027 355.212296 
" style="fill: none; stroke: #b0b0b0; stroke-width: 0.8"/>
    <path d="M 644.892152 126.140608 
L 649.498518 279.392174 
L 852.848865 342.195558 
" style="fill: none; stroke: #b0b0b0; stroke-width: 0.8"/>
    <path d="M 659.306236 115.621866 
L 663.258778 267.858051 
L 865.278533 329.439661 
" style="fill: none; stroke: #b0b0b0; stroke-width: 0.8"/>
    <path d="M 673.436278 105.310405 
L 676.759246 256.541691 
L 877.461593 316.936844 
" style="fill: none; stroke: #b0b0b0; stroke-width: 0.8"/>
    <path d="M 687.290591 95.200158 
L 690.00721 245.436985 
L 889.405313 304.679649 
" style="fill: none; stroke: #b0b0b0; stroke-width: 0.8"/>
    <path d="M 700.877169 85.285293 
L 703.009687 234.538051 
L 901.116678 292.660908 
" style="fill: none; stroke: #b0b0b0; stroke-width: 0.8"/>
   </g>
  </g>
  <g id="grid3d_6">
   <g id="Line3DCollection_6">
    <path d="M 910.605997 265.40971 
L 712.414003 208.686037 
L 588.852882 310.649662 
" style="fill: none; stroke: #b0b0b0; stroke-width: 0.8"/>
    <path d="M 911.492233 246.056592 
L 712.198579 189.952243 
L 587.898149 290.824014 
" style="fill: none; stroke: #b0b0b0; stroke-width: 0.8"/>
    <path d="M 912.388473 226.484992 
L 711.98084 171.017094 
L 586.932226 270.765986 
" style="fill: none; stroke: #b0b0b0; stroke-width: 0.8"/>
    <path d="M 913.294889 206.691189 
L 711.760748 151.877326 
L 585.954914 250.471468 
" style="fill: none; stroke: #b0b0b0; stroke-width: 0.8"/>
    <path d="M 914.211654 186.671376 
L 711.538265 132.529604 
L 584.966011 229.936253 
" style="fill: none; stroke: #b0b0b0; stroke-width: 0.8"/>
    <path d="M 915.138948 166.421661 
L 711.313351 112.97052 
L 583.965309 209.156033 
" style="fill: none; stroke: #b0b0b0; stroke-width: 0.8"/>
    <path d="M 916.076951 145.938061 
L 711.085966 93.196592 
L 582.952596 188.126397 
" style="fill: none; stroke: #b0b0b0; stroke-width: 0.8"/>
   </g>
  </g>
  <g id="axis3d_4">
   <g id="line2d_24">
    <path d="M 589.759057 329.466975 
L 798.743263 397.721216 
" style="fill: none; stroke: #000000; stroke-width: 0.8; stroke-linecap: square"/>
   </g>
   <g id="xtick_19">
    <g id="line2d_25">
     <path d="M 599.020491 331.243258 
L 595.817927 333.948154 
" style="fill: none; stroke: #000000; stroke-width: 0.8; stroke-linecap: square"/>
    </g>
    <g id="text_24">
     <!-- −1200 -->
     <g transform="translate(573.515412 355.413361) scale(0.1 -0.1)">
      <defs>
       <path id="DejaVuSans-c9c" d="M 678 2272 
L 4684 2272 
L 4684 1741 
L 678 1741 
L 678 2272 
z
" transform="scale(0.015625)"/>
      </defs>
      <use xlink:href="#DejaVuSans-c9c"/>
      <use xlink:href="#DejaVuSans-14" transform="translate(83.796875 0)"/>
      <use xlink:href="#DejaVuSans-15" transform="translate(147.421875 0)"/>
      <use xlink:href="#DejaVuSans-13" transform="translate(211.046875 0)"/>
      <use xlink:href="#DejaVuSans-13" transform="translate(274.671875 0)"/>
     </g>
    </g>
   </g>
   <g id="xtick_20">
    <g id="line2d_26">
     <path d="M 627.512328 340.539496 
L 624.347636 343.284427 
" style="fill: none; stroke: #000000; stroke-width: 0.8; stroke-linecap: square"/>
    </g>
    <g id="text_25">
     <!-- −1100 -->
     <g transform="translate(602.040441 364.863619) scale(0.1 -0.1)">
      <use xlink:href="#DejaVuSans-c9c"/>
      <use xlink:href="#DejaVuSans-14" transform="translate(83.796875 0)"/>
      <use xlink:href="#DejaVuSans-14" transform="translate(147.421875 0)"/>
      <use xlink:href="#DejaVuSans-13" transform="translate(211.046875 0)"/>
      <use xlink:href="#DejaVuSans-13" transform="translate(274.671875 0)"/>
     </g>
    </g>
   </g>
   <g id="xtick_21">
    <g id="line2d_27">
     <path d="M 656.426985 349.973691 
L 653.301648 352.759553 
" style="fill: none; stroke: #000000; stroke-width: 0.8; stroke-linecap: square"/>
    </g>
    <g id="text_26">
     <!-- −1000 -->
     <g transform="translate(630.99023 374.454599) scale(0.1 -0.1)">
      <use xlink:href="#DejaVuSans-c9c"/>
      <use xlink:href="#DejaVuSans-14" transform="translate(83.796875 0)"/>
      <use xlink:href="#DejaVuSans-13" transform="translate(147.421875 0)"/>
      <use xlink:href="#DejaVuSans-13" transform="translate(211.046875 0)"/>
      <use xlink:href="#DejaVuSans-13" transform="translate(274.671875 0)"/>
     </g>
    </g>
   </g>
   <g id="xtick_22">
    <g id="line2d_28">
     <path d="M 685.773945 359.548936 
L 682.689499 362.376651 
" style="fill: none; stroke: #000000; stroke-width: 0.8; stroke-linecap: square"/>
    </g>
    <g id="text_27">
     <!-- −900 -->
     <g transform="translate(663.555586 384.189467) scale(0.1 -0.1)">
      <defs>
       <path id="DejaVuSans-1c" d="M 703 97 
L 703 672 
Q 941 559 1184 500 
Q 1428 441 1663 441 
Q 2288 441 2617 861 
Q 2947 1281 2994 2138 
Q 2813 1869 2534 1725 
Q 2256 1581 1919 1581 
Q 1219 1581 811 2004 
Q 403 2428 403 3163 
Q 403 3881 828 4315 
Q 1253 4750 1959 4750 
Q 2769 4750 3195 4129 
Q 3622 3509 3622 2328 
Q 3622 1225 3098 567 
Q 2575 -91 1691 -91 
Q 1453 -91 1209 -44 
Q 966 3 703 97 
z
M 1959 2075 
Q 2384 2075 2632 2365 
Q 2881 2656 2881 3163 
Q 2881 3666 2632 3958 
Q 2384 4250 1959 4250 
Q 1534 4250 1286 3958 
Q 1038 3666 1038 3163 
Q 1038 2656 1286 2365 
Q 1534 2075 1959 2075 
z
" transform="scale(0.015625)"/>
      </defs>
      <use xlink:href="#DejaVuSans-c9c"/>
      <use xlink:href="#DejaVuSans-1c" transform="translate(83.796875 0)"/>
      <use xlink:href="#DejaVuSans-13" transform="translate(147.421875 0)"/>
      <use xlink:href="#DejaVuSans-13" transform="translate(211.046875 0)"/>
     </g>
    </g>
   </g>
   <g id="xtick_23">
    <g id="line2d_29">
     <path d="M 715.562974 369.268419 
L 712.521014 372.138937 
" style="fill: none; stroke: #000000; stroke-width: 0.8; stroke-linecap: square"/>
    </g>
    <g id="text_28">
     <!-- −800 -->
     <g transform="translate(693.383858 394.071485) scale(0.1 -0.1)">
      <use xlink:href="#DejaVuSans-c9c"/>
      <use xlink:href="#DejaVuSans-1b" transform="translate(83.796875 0)"/>
      <use xlink:href="#DejaVuSans-13" transform="translate(147.421875 0)"/>
      <use xlink:href="#DejaVuSans-13" transform="translate(211.046875 0)"/>
     </g>
    </g>
   </g>
   <g id="xtick_24">
    <g id="line2d_30">
     <path d="M 745.804138 379.135423 
L 742.806315 382.049723 
" style="fill: none; stroke: #000000; stroke-width: 0.8; stroke-linecap: square"/>
    </g>
    <g id="text_29">
     <!-- −700 -->
     <g transform="translate(723.666442 404.104016) scale(0.1 -0.1)">
      <defs>
       <path id="DejaVuSans-1a" d="M 525 4666 
L 3525 4666 
L 3525 4397 
L 1831 0 
L 1172 0 
L 2766 4134 
L 525 4134 
L 525 4666 
z
" transform="scale(0.015625)"/>
      </defs>
      <use xlink:href="#DejaVuSans-c9c"/>
      <use xlink:href="#DejaVuSans-1a" transform="translate(83.796875 0)"/>
      <use xlink:href="#DejaVuSans-13" transform="translate(147.421875 0)"/>
      <use xlink:href="#DejaVuSans-13" transform="translate(211.046875 0)"/>
     </g>
    </g>
   </g>
   <g id="xtick_25">
    <g id="line2d_31">
     <path d="M 776.507809 389.153332 
L 773.555836 392.112425 
" style="fill: none; stroke: #000000; stroke-width: 0.8; stroke-linecap: square"/>
    </g>
    <g id="text_30">
     <!-- −600 -->
     <g transform="translate(754.4138 414.290525) scale(0.1 -0.1)">
      <use xlink:href="#DejaVuSans-c9c"/>
      <use xlink:href="#DejaVuSans-19" transform="translate(83.796875 0)"/>
      <use xlink:href="#DejaVuSans-13" transform="translate(147.421875 0)"/>
      <use xlink:href="#DejaVuSans-13" transform="translate(211.046875 0)"/>
     </g>
    </g>
   </g>
   <g id="text_31">
    <!-- X (mm) -->
    <g transform="translate(656.702568 394.560478) rotate(-341.912962) scale(0.1 -0.1)">
     <use xlink:href="#DejaVuSans-3b"/>
     <use xlink:href="#DejaVuSans-3" transform="translate(68.5 0)"/>
     <use xlink:href="#DejaVuSans-b" transform="translate(100.28125 0)"/>
     <use xlink:href="#DejaVuSans-50" transform="translate(139.296875 0)"/>
     <use xlink:href="#DejaVuSans-50" transform="translate(236.703125 0)"/>
     <use xlink:href="#DejaVuSans-c" transform="translate(334.109375 0)"/>
    </g>
   </g>
  </g>
  <g id="axis3d_5">
   <g id="line2d_32">
    <path d="M 909.764488 283.786127 
L 798.743263 397.721216 
" style="fill: none; stroke: #000000; stroke-width: 0.8; stroke-linecap: square"/>
   </g>
   <g id="xtick_26">
    <g id="line2d_33">
     <path d="M 798.748044 395.336317 
L 804.032651 397.05917 
" style="fill: none; stroke: #000000; stroke-width: 0.8; stroke-linecap: square"/>
    </g>
    <g id="text_32">
     <!-- −700 -->
     <g transform="translate(799.70959 416.993109) scale(0.1 -0.1)">
      <use xlink:href="#DejaVuSans-c9c"/>
      <use xlink:href="#DejaVuSans-1a" transform="translate(83.796875 0)"/>
      <use xlink:href="#DejaVuSans-13" transform="translate(147.421875 0)"/>
      <use xlink:href="#DejaVuSans-13" transform="translate(211.046875 0)"/>
     </g>
    </g>
   </g>
   <g id="xtick_27">
    <g id="line2d_34">
     <path d="M 812.255577 381.499097 
L 817.502341 383.186164 
" style="fill: none; stroke: #000000; stroke-width: 0.8; stroke-linecap: square"/>
    </g>
    <g id="text_33">
     <!-- −650 -->
     <g transform="translate(813.075208 402.997262) scale(0.1 -0.1)">
      <use xlink:href="#DejaVuSans-c9c"/>
      <use xlink:href="#DejaVuSans-19" transform="translate(83.796875 0)"/>
      <use xlink:href="#DejaVuSans-18" transform="translate(147.421875 0)"/>
      <use xlink:href="#DejaVuSans-13" transform="translate(211.046875 0)"/>
     </g>
    </g>
   </g>
   <g id="xtick_28">
    <g id="line2d_35">
     <path d="M 825.484163 367.947632 
L 830.693511 369.600017 
" style="fill: none; stroke: #000000; stroke-width: 0.8; stroke-linecap: square"/>
    </g>
    <g id="text_34">
     <!-- −600 -->
     <g transform="translate(826.164577 389.290691) scale(0.1 -0.1)">
      <use xlink:href="#DejaVuSans-c9c"/>
      <use xlink:href="#DejaVuSans-19" transform="translate(83.796875 0)"/>
      <use xlink:href="#DejaVuSans-13" transform="translate(147.421875 0)"/>
      <use xlink:href="#DejaVuSans-13" transform="translate(211.046875 0)"/>
     </g>
    </g>
   </g>
   <g id="xtick_29">
    <g id="line2d_36">
     <path d="M 838.442354 354.673161 
L 843.614711 356.291923 
" style="fill: none; stroke: #000000; stroke-width: 0.8; stroke-linecap: square"/>
    </g>
    <g id="text_35">
     <!-- −550 -->
     <g transform="translate(838.986172 375.86452) scale(0.1 -0.1)">
      <use xlink:href="#DejaVuSans-c9c"/>
      <use xlink:href="#DejaVuSans-18" transform="translate(83.796875 0)"/>
      <use xlink:href="#DejaVuSans-18" transform="translate(147.421875 0)"/>
      <use xlink:href="#DejaVuSans-13" transform="translate(211.046875 0)"/>
     </g>
    </g>
   </g>
   <g id="xtick_30">
    <g id="line2d_37">
     <path d="M 851.138357 341.667279 
L 856.274146 343.253432 
" style="fill: none; stroke: #000000; stroke-width: 0.8; stroke-linecap: square"/>
    </g>
    <g id="text_36">
     <!-- −500 -->
     <g transform="translate(851.548128 362.71023) scale(0.1 -0.1)">
      <use xlink:href="#DejaVuSans-c9c"/>
      <use xlink:href="#DejaVuSans-18" transform="translate(83.796875 0)"/>
      <use xlink:href="#DejaVuSans-13" transform="translate(147.421875 0)"/>
      <use xlink:href="#DejaVuSans-13" transform="translate(211.046875 0)"/>
     </g>
    </g>
   </g>
   <g id="xtick_31">
    <g id="line2d_38">
     <path d="M 863.58005 328.921913 
L 868.67969 330.476435 
" style="fill: none; stroke: #000000; stroke-width: 0.8; stroke-linecap: square"/>
    </g>
    <g id="text_37">
     <!-- −450 -->
     <g transform="translate(863.858253 349.819646) scale(0.1 -0.1)">
      <use xlink:href="#DejaVuSans-c9c"/>
      <use xlink:href="#DejaVuSans-17" transform="translate(83.796875 0)"/>
      <use xlink:href="#DejaVuSans-18" transform="translate(147.421875 0)"/>
      <use xlink:href="#DejaVuSans-13" transform="translate(211.046875 0)"/>
     </g>
    </g>
   </g>
   <g id="xtick_32">
    <g id="line2d_39">
     <path d="M 875.774997 316.429315 
L 880.838906 317.953142 
" style="fill: none; stroke: #000000; stroke-width: 0.8; stroke-linecap: square"/>
    </g>
    <g id="text_38">
     <!-- −400 -->
     <g transform="translate(875.924043 337.184918) scale(0.1 -0.1)">
      <use xlink:href="#DejaVuSans-c9c"/>
      <use xlink:href="#DejaVuSans-17" transform="translate(83.796875 0)"/>
      <use xlink:href="#DejaVuSans-13" transform="translate(147.421875 0)"/>
      <use xlink:href="#DejaVuSans-13" transform="translate(211.046875 0)"/>
     </g>
    </g>
   </g>
   <g id="xtick_33">
    <g id="line2d_40">
     <path d="M 887.730467 304.18204 
L 892.759057 305.676071 
" style="fill: none; stroke: #000000; stroke-width: 0.8; stroke-linecap: square"/>
    </g>
    <g id="text_39">
     <!-- −350 -->
     <g transform="translate(887.752703 324.798502) scale(0.1 -0.1)">
      <use xlink:href="#DejaVuSans-c9c"/>
      <use xlink:href="#DejaVuSans-16" transform="translate(83.796875 0)"/>
      <use xlink:href="#DejaVuSans-18" transform="translate(147.421875 0)"/>
      <use xlink:href="#DejaVuSans-13" transform="translate(211.046875 0)"/>
     </g>
    </g>
   </g>
   <g id="xtick_34">
    <g id="line2d_41">
     <path d="M 899.453446 292.17293 
L 904.447126 293.638032 
" style="fill: none; stroke: #000000; stroke-width: 0.8; stroke-linecap: square"/>
    </g>
    <g id="text_40">
     <!-- −300 -->
     <g transform="translate(899.351154 312.65315) scale(0.1 -0.1)">
      <use xlink:href="#DejaVuSans-c9c"/>
      <use xlink:href="#DejaVuSans-16" transform="translate(83.796875 0)"/>
      <use xlink:href="#DejaVuSans-13" transform="translate(147.421875 0)"/>
      <use xlink:href="#DejaVuSans-13" transform="translate(211.046875 0)"/>
     </g>
    </g>
   </g>
   <g id="text_41">
    <!-- Y (mm) -->
    <g transform="translate(872.799689 381.112772) rotate(-45.742112) scale(0.1 -0.1)">
     <use xlink:href="#DejaVuSans-3c"/>
     <use xlink:href="#DejaVuSans-3" transform="translate(61.078125 0)"/>
     <use xlink:href="#DejaVuSans-b" transform="translate(92.859375 0)"/>
     <use xlink:href="#DejaVuSans-50" transform="translate(131.875 0)"/>
     <use xlink:href="#DejaVuSans-50" transform="translate(229.28125 0)"/>
     <use xlink:href="#DejaVuSans-c" transform="translate(326.6875 0)"/>
    </g>
   </g>
  </g>
  <g id="axis3d_6">
   <g id="line2d_42">
    <path d="M 909.764488 283.786127 
L 916.799928 130.150103 
" style="fill: none; stroke: #000000; stroke-width: 0.8; stroke-linecap: square"/>
   </g>
   <g id="xtick_35">
    <g id="line2d_43">
     <path d="M 908.942204 264.933522 
L 913.937563 266.363223 
" style="fill: none; stroke: #000000; stroke-width: 0.8; stroke-linecap: square"/>
    </g>
    <g id="text_42">
     <!-- −600 -->
     <g transform="translate(915.232471 270.425857) scale(0.1 -0.1)">
      <use xlink:href="#DejaVuSans-c9c"/>
      <use xlink:href="#DejaVuSans-19" transform="translate(83.796875 0)"/>
      <use xlink:href="#DejaVuSans-13" transform="translate(147.421875 0)"/>
      <use xlink:href="#DejaVuSans-13" transform="translate(211.046875 0)"/>
     </g>
    </g>
   </g>
   <g id="xtick_36">
    <g id="line2d_44">
     <path d="M 909.818749 245.58548 
L 914.843224 246.99995 
" style="fill: none; stroke: #000000; stroke-width: 0.8; stroke-linecap: square"/>
    </g>
    <g id="text_43">
     <!-- −500 -->
     <g transform="translate(916.219614 251.100276) scale(0.1 -0.1)">
      <use xlink:href="#DejaVuSans-c9c"/>
      <use xlink:href="#DejaVuSans-18" transform="translate(83.796875 0)"/>
      <use xlink:href="#DejaVuSans-13" transform="translate(147.421875 0)"/>
      <use xlink:href="#DejaVuSans-13" transform="translate(211.046875 0)"/>
     </g>
    </g>
   </g>
   <g id="xtick_37">
    <g id="line2d_45">
     <path d="M 910.705187 226.0191 
L 915.759117 227.417903 
" style="fill: none; stroke: #000000; stroke-width: 0.8; stroke-linecap: square"/>
    </g>
    <g id="text_44">
     <!-- −400 -->
     <g transform="translate(917.217877 231.557) scale(0.1 -0.1)">
      <use xlink:href="#DejaVuSans-c9c"/>
      <use xlink:href="#DejaVuSans-17" transform="translate(83.796875 0)"/>
      <use xlink:href="#DejaVuSans-13" transform="translate(147.421875 0)"/>
      <use xlink:href="#DejaVuSans-13" transform="translate(211.046875 0)"/>
     </g>
    </g>
   </g>
   <g id="xtick_38">
    <g id="line2d_46">
     <path d="M 911.601684 206.230665 
L 916.685417 207.613355 
" style="fill: none; stroke: #000000; stroke-width: 0.8; stroke-linecap: square"/>
    </g>
    <g id="text_45">
     <!-- −300 -->
     <g transform="translate(918.227448 211.792329) scale(0.1 -0.1)">
      <use xlink:href="#DejaVuSans-c9c"/>
      <use xlink:href="#DejaVuSans-16" transform="translate(83.796875 0)"/>
      <use xlink:href="#DejaVuSans-13" transform="translate(147.421875 0)"/>
      <use xlink:href="#DejaVuSans-13" transform="translate(211.046875 0)"/>
     </g>
    </g>
   </g>
   <g id="xtick_39">
    <g id="line2d_47">
     <path d="M 912.508413 186.216376 
L 917.622302 187.58249 
" style="fill: none; stroke: #000000; stroke-width: 0.8; stroke-linecap: square"/>
    </g>
    <g id="text_46">
     <!-- −200 -->
     <g transform="translate(919.248522 191.80248) scale(0.1 -0.1)">
      <use xlink:href="#DejaVuSans-c9c"/>
      <use xlink:href="#DejaVuSans-15" transform="translate(83.796875 0)"/>
      <use xlink:href="#DejaVuSans-13" transform="translate(147.421875 0)"/>
      <use xlink:href="#DejaVuSans-13" transform="translate(211.046875 0)"/>
     </g>
    </g>
   </g>
   <g id="xtick_40">
    <g id="line2d_48">
     <path d="M 913.425551 165.972341 
L 918.569955 167.321407 
" style="fill: none; stroke: #000000; stroke-width: 0.8; stroke-linecap: square"/>
    </g>
    <g id="text_47">
     <!-- −100 -->
     <g transform="translate(920.281295 171.583582) scale(0.1 -0.1)">
      <use xlink:href="#DejaVuSans-c9c"/>
      <use xlink:href="#DejaVuSans-14" transform="translate(83.796875 0)"/>
      <use xlink:href="#DejaVuSans-13" transform="translate(147.421875 0)"/>
      <use xlink:href="#DejaVuSans-13" transform="translate(211.046875 0)"/>
     </g>
    </g>
   </g>
   <g id="xtick_41">
    <g id="line2d_49">
     <path d="M 914.353277 145.494583 
L 919.528563 146.826116 
" style="fill: none; stroke: #000000; stroke-width: 0.8; stroke-linecap: square"/>
    </g>
    <g id="text_48">
     <!-- 0 -->
     <g transform="translate(931.878314 151.131676) scale(0.1 -0.1)">
      <use xlink:href="#DejaVuSans-13"/>
     </g>
    </g>
   </g>
   <g id="text_49">
    <!-- Z (mm) -->
    <g transform="translate(955.398886 221.987026) rotate(-87.378092) scale(0.1 -0.1)">
     <use xlink:href="#DejaVuSans-3d"/>
     <use xlink:href="#DejaVuSans-3" transform="translate(68.5 0)"/>
     <use xlink:href="#DejaVuSans-b" transform="translate(100.28125 0)"/>
     <use xlink:href="#DejaVuSans-50" transform="translate(139.296875 0)"/>
     <use xlink:href="#DejaVuSans-50" transform="translate(236.703125 0)"/>
     <use xlink:href="#DejaVuSans-c" transform="translate(334.109375 0)"/>
    </g>
   </g>
  </g>
  <g id="axes_2">
   <g id="line2d_50">
    <path d="M 715.94824 89.777953 
L 716.188642 91.013139 
L 717.607166 97.55255 
L 719.045575 103.266415 
L 721.103569 110.414927 
L 723.282412 117.088339 
L 725.346052 122.806096 
L 728.176713 129.944912 
L 730.640116 135.645839 
L 733.734219 142.280956 
L 737.06217 148.894844 
L 740.883011 155.951834 
L 744.68363 162.50618 
L 749.002811 169.489286 
L 753.260096 175.965008 
L 758.058998 182.853182 
L 762.755502 189.230875 
L 768.015216 196.003767 
L 773.505503 202.709206 
L 779.220848 209.34213 
L 784.753126 215.462622 
L 791.303552 222.368892 
L 797.229169 228.329904 
L 804.660022 235.459177 
L 812.341136 242.461967 
L 820.26261 249.331038 
L 828.415196 256.059737 
L 836.789158 262.641088 
L 845.344114 269.046174 
L 848.796149 271.602309 
L 846.317425 277.287018 
L 844.197308 282.663294 
L 842.282484 288.073113 
L 840.433333 294.00781 
L 838.961885 299.473892 
L 837.709411 304.959895 
L 836.721224 310.211095 
L 835.87598 315.9741 
L 835.345504 320.991124 
L 834.984891 326.511186 
L 834.861187 332.028022 
L 834.977341 337.526756 
L 835.06735 339.311581 
L 834.967446 339.277741 
L 826.198936 336.228308 
L 816.397985 332.58844 
L 806.77522 328.762106 
L 797.341407 324.751829 
L 788.108192 320.559773 
L 779.0866 316.188451 
L 772.028261 312.564309 
L 763.980823 308.195429 
L 756.143055 303.677272 
L 747.987558 298.674012 
L 741.1302 294.204549 
L 733.972049 289.256377 
L 727.057049 284.170052 
L 720.860816 279.327404 
L 715.338688 274.757091 
L 710.011963 270.092747 
L 704.049902 264.535727 
L 699.161642 259.676636 
L 694.102616 254.315795 
L 689.296024 248.857383 
L 684.746686 243.304664 
L 680.780933 238.099042 
L 677.043245 232.818983 
L 673.256332 227.019449 
L 670.268784 222.049544 
L 667.23915 216.566036 
L 664.453374 211.020701 
L 662.320226 206.355036 
L 659.989953 200.70584 
L 658.241166 195.958326 
L 656.670044 191.177718 
L 655.447397 186.988664 
L 658.101138 195.554401 
L 659.834957 200.30472 
L 661.744829 205.019232 
L 664.266028 210.626919 
L 667.034434 216.176236 
L 670.30855 222.118743 
L 673.58109 227.536721 
L 677.08932 232.887 
L 680.82983 238.165578 
L 684.798706 243.370481 
L 688.991474 248.498252 
L 693.404323 253.545686 
L 697.638366 258.100385 
L 702.050335 262.583474 
L 707.488346 267.786726 
L 712.718619 272.49569 
L 718.146012 277.112162 
L 723.765948 281.633739 
L 730.065325 286.422124 
L 736.070345 290.738547 
L 742.774804 295.29981 
L 750.219602 300.075805 
L 758.445363 305.032843 
L 765.204511 308.876851 
L 772.700052 312.917357 
L 780.367821 316.826543 
L 788.201391 320.603195 
L 797.436427 324.793511 
L 806.872115 328.802016 
L 816.496722 332.626439 
L 825.640671 336.027573 
L 835.06735 339.311581 
L 818.019229 333.208041 
L 808.366116 329.412663 
L 799.52537 325.703889 
L 790.244496 321.553883 
L 781.171911 317.224397 
L 772.902658 313.023209 
L 764.264649 308.354059 
L 755.866963 303.513101 
L 748.255315 298.843583 
L 741.39014 294.378889 
L 734.223319 289.435284 
L 727.299657 284.354111 
L 721.564395 279.892012 
L 715.113305 274.564389 
L 709.794235 269.896409 
L 704.258264 264.736344 
L 698.96243 259.472278 
L 693.913155 254.107614 
L 689.116341 248.645217 
L 684.917113 243.519913 
L 681.588397 239.189898 
L 677.497903 233.483094 
L 673.96317 228.140994 
L 670.664002 222.730418 
L 667.360532 216.795614 
L 664.78832 211.716832 
L 662.423068 206.589112 
L 660.454481 201.887227 
L 658.324389 196.19639 
L 656.454204 190.472905 
L 655.476954 186.903609 
L 657.808066 180.49845 
L 660.426666 173.944318 
L 663.260037 167.438676 
L 666.303019 160.984234 
L 669.722368 154.256927 
L 673.269938 147.753568 
L 677.213262 140.991952 
L 681.577696 133.984869 
L 685.852767 127.52858 
L 690.545329 120.835548 
L 695.56172 114.072324 
L 700.908898 107.247525 
L 706.467922 100.518473 
L 712.491757 93.595185 
L 715.94824 89.777953 
L 715.94824 89.777953 
" clip-path="url(#p9750725deb)" style="fill: none; stroke-dasharray: 7.4,3.2; stroke-dashoffset: 0; stroke: #377eb8; stroke-width: 2"/>
   </g>
   <g id="text_50">
    <!-- Trajetoria TCP — URSim (Referencia) -->
    <g transform="translate(634.193913 43.160469) scale(0.11 -0.11)">
     <defs>
      <path id="DejaVuSans-Bold-38" d="M 588 4666 
L 1791 4666 
L 1791 1869 
Q 1791 1291 1980 1042 
Q 2169 794 2597 794 
Q 3028 794 3217 1042 
Q 3406 1291 3406 1869 
L 3406 4666 
L 4609 4666 
L 4609 1869 
Q 4609 878 4112 393 
Q 3616 -91 2597 -91 
Q 1581 -91 1084 393 
Q 588 878 588 1869 
L 588 4666 
z
" transform="scale(0.015625)"/>
      <path id="DejaVuSans-Bold-35" d="M 2297 2597 
Q 2675 2597 2839 2737 
Q 3003 2878 3003 3200 
Q 3003 3519 2839 3656 
Q 2675 3794 2297 3794 
L 1791 3794 
L 1791 2597 
L 2297 2597 
z
M 1791 1766 
L 1791 0 
L 588 0 
L 588 4666 
L 2425 4666 
Q 3347 4666 3776 4356 
Q 4206 4047 4206 3378 
Q 4206 2916 3982 2619 
Q 3759 2322 3309 2181 
Q 3556 2125 3751 1926 
Q 3947 1728 4147 1325 
L 4800 0 
L 3519 0 
L 2950 1159 
Q 2778 1509 2601 1637 
Q 2425 1766 2131 1766 
L 1791 1766 
z
" transform="scale(0.015625)"/>
      <path id="DejaVuSans-Bold-36" d="M 3834 4519 
L 3834 3531 
Q 3450 3703 3084 3790 
Q 2719 3878 2394 3878 
Q 1963 3878 1756 3759 
Q 1550 3641 1550 3391 
Q 1550 3203 1689 3098 
Q 1828 2994 2194 2919 
L 2706 2816 
Q 3484 2659 3812 2340 
Q 4141 2022 4141 1434 
Q 4141 663 3683 286 
Q 3225 -91 2284 -91 
Q 1841 -91 1394 -6 
Q 947 78 500 244 
L 500 1259 
Q 947 1022 1364 901 
Q 1781 781 2169 781 
Q 2563 781 2772 912 
Q 2981 1044 2981 1288 
Q 2981 1506 2839 1625 
Q 2697 1744 2272 1838 
L 1806 1941 
Q 1106 2091 782 2419 
Q 459 2747 459 3303 
Q 459 4000 909 4375 
Q 1359 4750 2203 4750 
Q 2588 4750 2994 4692 
Q 3400 4634 3834 4519 
z
" transform="scale(0.015625)"/>
      <path id="DejaVuSans-Bold-50" d="M 3781 2919 
Q 3994 3244 4286 3414 
Q 4578 3584 4928 3584 
Q 5531 3584 5847 3212 
Q 6163 2841 6163 2131 
L 6163 0 
L 5038 0 
L 5038 1825 
Q 5041 1866 5042 1909 
Q 5044 1953 5044 2034 
Q 5044 2406 4934 2573 
Q 4825 2741 4581 2741 
Q 4263 2741 4089 2478 
Q 3916 2216 3909 1719 
L 3909 0 
L 2784 0 
L 2784 1825 
Q 2784 2406 2684 2573 
Q 2584 2741 2328 2741 
Q 2006 2741 1831 2477 
Q 1656 2213 1656 1722 
L 1656 0 
L 531 0 
L 531 3500 
L 1656 3500 
L 1656 2988 
Q 1863 3284 2130 3434 
Q 2397 3584 2719 3584 
Q 3081 3584 3359 3409 
Q 3638 3234 3781 2919 
z
" transform="scale(0.015625)"/>
      <path id="DejaVuSans-Bold-b" d="M 2413 -844 
L 1484 -844 
Q 1006 -72 778 623 
Q 550 1319 550 2003 
Q 550 2688 779 3389 
Q 1009 4091 1484 4856 
L 2413 4856 
Q 2013 4116 1813 3408 
Q 1613 2700 1613 2009 
Q 1613 1319 1811 609 
Q 2009 -100 2413 -844 
z
" transform="scale(0.015625)"/>
      <path id="DejaVuSans-Bold-49" d="M 2841 4863 
L 2841 4128 
L 2222 4128 
Q 1984 4128 1890 4042 
Q 1797 3956 1797 3744 
L 1797 3500 
L 2753 3500 
L 2753 2700 
L 1797 2700 
L 1797 0 
L 678 0 
L 678 2700 
L 122 2700 
L 122 3500 
L 678 3500 
L 678 3744 
Q 678 4316 997 4589 
Q 1316 4863 1984 4863 
L 2841 4863 
z
" transform="scale(0.015625)"/>
      <path id="DejaVuSans-Bold-51" d="M 4056 2131 
L 4056 0 
L 2931 0 
L 2931 347 
L 2931 1631 
Q 2931 2084 2911 2256 
Q 2891 2428 2841 2509 
Q 2775 2619 2662 2680 
Q 2550 2741 2406 2741 
Q 2056 2741 1856 2470 
Q 1656 2200 1656 1722 
L 1656 0 
L 538 0 
L 538 3500 
L 1656 3500 
L 1656 2988 
Q 1909 3294 2193 3439 
Q 2478 3584 2822 3584 
Q 3428 3584 3742 3212 
Q 4056 2841 4056 2131 
z
" transform="scale(0.015625)"/>
      <path id="DejaVuSans-Bold-46" d="M 3366 3391 
L 3366 2478 
Q 3138 2634 2908 2709 
Q 2678 2784 2431 2784 
Q 1963 2784 1702 2511 
Q 1441 2238 1441 1747 
Q 1441 1256 1702 982 
Q 1963 709 2431 709 
Q 2694 709 2930 787 
Q 3166 866 3366 1019 
L 3366 103 
Q 3103 6 2833 -42 
Q 2563 -91 2291 -91 
Q 1344 -91 809 395 
Q 275 881 275 1747 
Q 275 2613 809 3098 
Q 1344 3584 2291 3584 
Q 2566 3584 2833 3536 
Q 3100 3488 3366 3391 
z
" transform="scale(0.015625)"/>
      <path id="DejaVuSans-Bold-c" d="M 513 -844 
Q 913 -100 1113 609 
Q 1313 1319 1313 2009 
Q 1313 2700 1113 3408 
Q 913 4116 513 4856 
L 1441 4856 
Q 1916 4091 2145 3389 
Q 2375 2688 2375 2003 
Q 2375 1319 2147 623 
Q 1919 -72 1441 -844 
L 513 -844 
z
" transform="scale(0.015625)"/>
     </defs>
     <use xlink:href="#DejaVuSans-Bold-37"/>
     <use xlink:href="#DejaVuSans-Bold-55" transform="translate(57.234375 0)"/>
     <use xlink:href="#DejaVuSans-Bold-44" transform="translate(106.546875 0)"/>
     <use xlink:href="#DejaVuSans-Bold-4d" transform="translate(174.03125 0)"/>
     <use xlink:href="#DejaVuSans-Bold-48" transform="translate(208.3125 0)"/>
     <use xlink:href="#DejaVuSans-Bold-57" transform="translate(276.140625 0)"/>
     <use xlink:href="#DejaVuSans-Bold-52" transform="translate(323.9375 0)"/>
     <use xlink:href="#DejaVuSans-Bold-55" transform="translate(392.640625 0)"/>
     <use xlink:href="#DejaVuSans-Bold-4c" transform="translate(441.953125 0)"/>
     <use xlink:href="#DejaVuSans-Bold-44" transform="translate(476.234375 0)"/>
     <use xlink:href="#DejaVuSans-Bold-3" transform="translate(543.71875 0)"/>
     <use xlink:href="#DejaVuSans-Bold-37" transform="translate(578.53125 0)"/>
     <use xlink:href="#DejaVuSans-Bold-26" transform="translate(646.75 0)"/>
     <use xlink:href="#DejaVuSans-Bold-33" transform="translate(720.140625 0)"/>
     <use xlink:href="#DejaVuSans-Bold-3" transform="translate(793.4375 0)"/>
     <use xlink:href="#DejaVuSans-Bold-af6" transform="translate(828.25 0)"/>
     <use xlink:href="#DejaVuSans-Bold-3" transform="translate(928.25 0)"/>
     <use xlink:href="#DejaVuSans-Bold-38" transform="translate(963.0625 0)"/>
     <use xlink:href="#DejaVuSans-Bold-35" transform="translate(1044.265625 0)"/>
     <use xlink:href="#DejaVuSans-Bold-36" transform="translate(1121.265625 0)"/>
     <use xlink:href="#DejaVuSans-Bold-4c" transform="translate(1193.28125 0)"/>
     <use xlink:href="#DejaVuSans-Bold-50" transform="translate(1227.5625 0)"/>
     <use xlink:href="#DejaVuSans-Bold-3" transform="translate(1331.765625 0)"/>
     <use xlink:href="#DejaVuSans-Bold-b" transform="translate(1366.578125 0)"/>
     <use xlink:href="#DejaVuSans-Bold-35" transform="translate(1412.28125 0)"/>
     <use xlink:href="#DejaVuSans-Bold-48" transform="translate(1489.28125 0)"/>
     <use xlink:href="#DejaVuSans-Bold-49" transform="translate(1557.109375 0)"/>
     <use xlink:href="#DejaVuSans-Bold-48" transform="translate(1600.609375 0)"/>
     <use xlink:href="#DejaVuSans-Bold-55" transform="translate(1668.4375 0)"/>
     <use xlink:href="#DejaVuSans-Bold-48" transform="translate(1717.75 0)"/>
     <use xlink:href="#DejaVuSans-Bold-51" transform="translate(1785.578125 0)"/>
     <use xlink:href="#DejaVuSans-Bold-46" transform="translate(1856.765625 0)"/>
     <use xlink:href="#DejaVuSans-Bold-4c" transform="translate(1916.046875 0)"/>
     <use xlink:href="#DejaVuSans-Bold-44" transform="translate(1950.328125 0)"/>
     <use xlink:href="#DejaVuSans-Bold-c" transform="translate(2017.8125 0)"/>
    </g>
   </g>
   <g id="legend_2">
    <g id="patch_11">
     <path d="M 861.572663 72.16125 
L 926.707038 72.16125 
Q 928.707038 72.16125 928.707038 70.16125 
L 928.707038 56.160469 
Q 928.707038 54.160469 926.707038 54.160469 
L 861.572663 54.160469 
Q 859.572663 54.160469 859.572663 56.160469 
L 859.572663 70.16125 
Q 859.572663 72.16125 861.572663 72.16125 
z
" style="fill: #ffffff; opacity: 0.8; stroke: #cccccc; stroke-linejoin: miter"/>
    </g>
    <g id="line2d_51">
     <path d="M 863.572663 62.258906 
L 873.572663 62.258906 
L 883.572663 62.258906 
" style="fill: none; stroke-dasharray: 7.4,3.2; stroke-dashoffset: 0; stroke: #377eb8; stroke-width: 2"/>
    </g>
    <g id="text_51">
     <!-- URSim -->
     <g transform="translate(891.572663 65.758906) scale(0.1 -0.1)">
      <defs>
       <path id="DejaVuSans-38" d="M 556 4666 
L 1191 4666 
L 1191 1831 
Q 1191 1081 1462 751 
Q 1734 422 2344 422 
Q 2950 422 3222 751 
Q 3494 1081 3494 1831 
L 3494 4666 
L 4128 4666 
L 4128 1753 
Q 4128 841 3676 375 
Q 3225 -91 2344 -91 
Q 1459 -91 1007 375 
Q 556 841 556 1753 
L 556 4666 
z
" transform="scale(0.015625)"/>
       <path id="DejaVuSans-35" d="M 2841 2188 
Q 3044 2119 3236 1894 
Q 3428 1669 3622 1275 
L 4263 0 
L 3584 0 
L 2988 1197 
Q 2756 1666 2539 1819 
Q 2322 1972 1947 1972 
L 1259 1972 
L 1259 0 
L 628 0 
L 628 4666 
L 2053 4666 
Q 2853 4666 3247 4331 
Q 3641 3997 3641 3322 
Q 3641 2881 3436 2590 
Q 3231 2300 2841 2188 
z
M 1259 4147 
L 1259 2491 
L 2053 2491 
Q 2509 2491 2742 2702 
Q 2975 2913 2975 3322 
Q 2975 3731 2742 3939 
Q 2509 4147 2053 4147 
L 1259 4147 
z
" transform="scale(0.015625)"/>
       <path id="DejaVuSans-36" d="M 3425 4513 
L 3425 3897 
Q 3066 4069 2747 4153 
Q 2428 4238 2131 4238 
Q 1616 4238 1336 4038 
Q 1056 3838 1056 3469 
Q 1056 3159 1242 3001 
Q 1428 2844 1947 2747 
L 2328 2669 
Q 3034 2534 3370 2195 
Q 3706 1856 3706 1288 
Q 3706 609 3251 259 
Q 2797 -91 1919 -91 
Q 1588 -91 1214 -16 
Q 841 59 441 206 
L 441 856 
Q 825 641 1194 531 
Q 1563 422 1919 422 
Q 2459 422 2753 634 
Q 3047 847 3047 1241 
Q 3047 1584 2836 1778 
Q 2625 1972 2144 2069 
L 1759 2144 
Q 1053 2284 737 2584 
Q 422 2884 422 3419 
Q 422 4038 858 4394 
Q 1294 4750 2059 4750 
Q 2388 4750 2728 4690 
Q 3069 4631 3425 4513 
z
" transform="scale(0.015625)"/>
       <path id="DejaVuSans-4c" d="M 603 3500 
L 1178 3500 
L 1178 0 
L 603 0 
L 603 3500 
z
M 603 4863 
L 1178 4863 
L 1178 4134 
L 603 4134 
L 603 4863 
z
" transform="scale(0.015625)"/>
      </defs>
      <use xlink:href="#DejaVuSans-38"/>
      <use xlink:href="#DejaVuSans-35" transform="translate(73.1875 0)"/>
      <use xlink:href="#DejaVuSans-36" transform="translate(142.671875 0)"/>
      <use xlink:href="#DejaVuSans-4c" transform="translate(206.15625 0)"/>
      <use xlink:href="#DejaVuSans-50" transform="translate(233.9375 0)"/>
     </g>
    </g>
   </g>
  </g>
  <g id="text_52">
   <!-- Comparacao de Trajetoria 3D Lado a Lado — pick_and_place (run 1) -->
   <g transform="translate(257.849063 18.517969) scale(0.13 -0.13)">
    <defs>
     <path id="DejaVuSans-Bold-53" d="M 1656 506 
L 1656 -1331 
L 538 -1331 
L 538 3500 
L 1656 3500 
L 1656 2988 
Q 1888 3294 2169 3439 
Q 2450 3584 2816 3584 
Q 3463 3584 3878 3070 
Q 4294 2556 4294 1747 
Q 4294 938 3878 423 
Q 3463 -91 2816 -91 
Q 2450 -91 2169 54 
Q 1888 200 1656 506 
z
M 2400 2772 
Q 2041 2772 1848 2508 
Q 1656 2244 1656 1747 
Q 1656 1250 1848 986 
Q 2041 722 2400 722 
Q 2759 722 2948 984 
Q 3138 1247 3138 1747 
Q 3138 2247 2948 2509 
Q 2759 2772 2400 2772 
z
" transform="scale(0.015625)"/>
     <path id="DejaVuSans-Bold-47" d="M 2919 2988 
L 2919 4863 
L 4044 4863 
L 4044 0 
L 2919 0 
L 2919 506 
Q 2688 197 2409 53 
Q 2131 -91 1766 -91 
Q 1119 -91 703 423 
Q 288 938 288 1747 
Q 288 2556 703 3070 
Q 1119 3584 1766 3584 
Q 2128 3584 2408 3439 
Q 2688 3294 2919 2988 
z
M 2181 722 
Q 2541 722 2730 984 
Q 2919 1247 2919 1747 
Q 2919 2247 2730 2509 
Q 2541 2772 2181 2772 
Q 1825 2772 1636 2509 
Q 1447 2247 1447 1747 
Q 1447 1247 1636 984 
Q 1825 722 2181 722 
z
" transform="scale(0.015625)"/>
     <path id="DejaVuSans-Bold-16" d="M 2981 2516 
Q 3453 2394 3698 2092 
Q 3944 1791 3944 1325 
Q 3944 631 3412 270 
Q 2881 -91 1863 -91 
Q 1503 -91 1142 -33 
Q 781 25 428 141 
L 428 1069 
Q 766 900 1098 814 
Q 1431 728 1753 728 
Q 2231 728 2486 893 
Q 2741 1059 2741 1369 
Q 2741 1688 2480 1852 
Q 2219 2016 1709 2016 
L 1228 2016 
L 1228 2791 
L 1734 2791 
Q 2188 2791 2409 2933 
Q 2631 3075 2631 3366 
Q 2631 3634 2415 3781 
Q 2200 3928 1806 3928 
Q 1516 3928 1219 3862 
Q 922 3797 628 3669 
L 628 4550 
Q 984 4650 1334 4700 
Q 1684 4750 2022 4750 
Q 2931 4750 3382 4451 
Q 3834 4153 3834 3553 
Q 3834 3144 3618 2883 
Q 3403 2622 2981 2516 
z
" transform="scale(0.015625)"/>
     <path id="DejaVuSans-Bold-27" d="M 1791 3756 
L 1791 909 
L 2222 909 
Q 2959 909 3348 1275 
Q 3738 1641 3738 2338 
Q 3738 3031 3350 3393 
Q 2963 3756 2222 3756 
L 1791 3756 
z
M 588 4666 
L 1856 4666 
Q 2919 4666 3439 4514 
Q 3959 4363 4331 4000 
Q 4659 3684 4818 3271 
Q 4978 2859 4978 2338 
Q 4978 1809 4818 1395 
Q 4659 981 4331 666 
Q 3956 303 3431 151 
Q 2906 0 1856 0 
L 588 0 
L 588 4666 
z
" transform="scale(0.015625)"/>
     <path id="DejaVuSans-Bold-4e" d="M 538 4863 
L 1656 4863 
L 1656 2216 
L 2944 3500 
L 4244 3500 
L 2534 1894 
L 4378 0 
L 3022 0 
L 1656 1459 
L 1656 0 
L 538 0 
L 538 4863 
z
" transform="scale(0.015625)"/>
     <path id="DejaVuSans-Bold-42" d="M 3200 -916 
L 3200 -1509 
L 0 -1509 
L 0 -916 
L 3200 -916 
z
" transform="scale(0.015625)"/>
     <path id="DejaVuSans-Bold-4f" d="M 538 4863 
L 1656 4863 
L 1656 0 
L 538 0 
L 538 4863 
z
" transform="scale(0.015625)"/>
     <path id="DejaVuSans-Bold-58" d="M 500 1363 
L 500 3500 
L 1625 3500 
L 1625 3150 
Q 1625 2866 1622 2436 
Q 1619 2006 1619 1863 
Q 1619 1441 1641 1255 
Q 1663 1069 1716 984 
Q 1784 875 1895 815 
Q 2006 756 2150 756 
Q 2500 756 2700 1025 
Q 2900 1294 2900 1772 
L 2900 3500 
L 4019 3500 
L 4019 0 
L 2900 0 
L 2900 506 
Q 2647 200 2364 54 
Q 2081 -91 1741 -91 
Q 1134 -91 817 281 
Q 500 653 500 1363 
z
" transform="scale(0.015625)"/>
    </defs>
    <use xlink:href="#DejaVuSans-Bold-26"/>
    <use xlink:href="#DejaVuSans-Bold-52" transform="translate(73.390625 0)"/>
    <use xlink:href="#DejaVuSans-Bold-50" transform="translate(142.09375 0)"/>
    <use xlink:href="#DejaVuSans-Bold-53" transform="translate(246.296875 0)"/>
    <use xlink:href="#DejaVuSans-Bold-44" transform="translate(317.875 0)"/>
    <use xlink:href="#DejaVuSans-Bold-55" transform="translate(385.359375 0)"/>
    <use xlink:href="#DejaVuSans-Bold-44" transform="translate(434.671875 0)"/>
    <use xlink:href="#DejaVuSans-Bold-46" transform="translate(502.15625 0)"/>
    <use xlink:href="#DejaVuSans-Bold-44" transform="translate(561.4375 0)"/>
    <use xlink:href="#DejaVuSans-Bold-52" transform="translate(628.921875 0)"/>
    <use xlink:href="#DejaVuSans-Bold-3" transform="translate(697.625 0)"/>
    <use xlink:href="#DejaVuSans-Bold-47" transform="translate(732.4375 0)"/>
    <use xlink:href="#DejaVuSans-Bold-48" transform="translate(804.015625 0)"/>
    <use xlink:href="#DejaVuSans-Bold-3" transform="translate(871.84375 0)"/>
    <use xlink:href="#DejaVuSans-Bold-37" transform="translate(906.65625 0)"/>
    <use xlink:href="#DejaVuSans-Bold-55" transform="translate(963.890625 0)"/>
    <use xlink:href="#DejaVuSans-Bold-44" transform="translate(1013.203125 0)"/>
    <use xlink:href="#DejaVuSans-Bold-4d" transform="translate(1080.6875 0)"/>
    <use xlink:href="#DejaVuSans-Bold-48" transform="translate(1114.96875 0)"/>
    <use xlink:href="#DejaVuSans-Bold-57" transform="translate(1182.796875 0)"/>
    <use xlink:href="#DejaVuSans-Bold-52" transform="translate(1230.59375 0)"/>
    <use xlink:href="#DejaVuSans-Bold-55" transform="translate(1299.296875 0)"/>
    <use xlink:href="#DejaVuSans-Bold-4c" transform="translate(1348.609375 0)"/>
    <use xlink:href="#DejaVuSans-Bold-44" transform="translate(1382.890625 0)"/>
    <use xlink:href="#DejaVuSans-Bold-3" transform="translate(1450.375 0)"/>
    <use xlink:href="#DejaVuSans-Bold-16" transform="translate(1485.1875 0)"/>
    <use xlink:href="#DejaVuSans-Bold-27" transform="translate(1554.765625 0)"/>
    <use xlink:href="#DejaVuSans-Bold-3" transform="translate(1637.78125 0)"/>
    <use xlink:href="#DejaVuSans-Bold-2f" transform="translate(1672.59375 0)"/>
    <use xlink:href="#DejaVuSans-Bold-44" transform="translate(1736.3125 0)"/>
    <use xlink:href="#DejaVuSans-Bold-47" transform="translate(1803.796875 0)"/>
    <use xlink:href="#DejaVuSans-Bold-52" transform="translate(1875.375 0)"/>
    <use xlink:href="#DejaVuSans-Bold-3" transform="translate(1944.078125 0)"/>
    <use xlink:href="#DejaVuSans-Bold-44" transform="translate(1978.890625 0)"/>
    <use xlink:href="#DejaVuSans-Bold-3" transform="translate(2046.375 0)"/>
    <use xlink:href="#DejaVuSans-Bold-2f" transform="translate(2081.1875 0)"/>
    <use xlink:href="#DejaVuSans-Bold-44" transform="translate(2144.90625 0)"/>
    <use xlink:href="#DejaVuSans-Bold-47" transform="translate(2212.390625 0)"/>
    <use xlink:href="#DejaVuSans-Bold-52" transform="translate(2283.96875 0)"/>
    <use xlink:href="#DejaVuSans-Bold-3" transform="translate(2352.671875 0)"/>
    <use xlink:href="#DejaVuSans-Bold-af6" transform="translate(2387.484375 0)"/>
    <use xlink:href="#DejaVuSans-Bold-3" transform="translate(2487.484375 0)"/>
    <use xlink:href="#DejaVuSans-Bold-53" transform="translate(2522.296875 0)"/>
    <use xlink:href="#DejaVuSans-Bold-4c" transform="translate(2593.875 0)"/>
    <use xlink:href="#DejaVuSans-Bold-46" transform="translate(2628.15625 0)"/>
    <use xlink:href="#DejaVuSans-Bold-4e" transform="translate(2687.4375 0)"/>
    <use xlink:href="#DejaVuSans-Bold-42" transform="translate(2753.9375 0)"/>
    <use xlink:href="#DejaVuSans-Bold-44" transform="translate(2803.9375 0)"/>
    <use xlink:href="#DejaVuSans-Bold-51" transform="translate(2871.421875 0)"/>
    <use xlink:href="#DejaVuSans-Bold-47" transform="translate(2942.609375 0)"/>
    <use xlink:href="#DejaVuSans-Bold-42" transform="translate(3014.1875 0)"/>
    <use xlink:href="#DejaVuSans-Bold-53" transform="translate(3064.1875 0)"/>
    <use xlink:href="#DejaVuSans-Bold-4f" transform="translate(3135.765625 0)"/>
    <use xlink:href="#DejaVuSans-Bold-44" transform="translate(3170.046875 0)"/>
    <use xlink:href="#DejaVuSans-Bold-46" transform="translate(3237.53125 0)"/>
    <use xlink:href="#DejaVuSans-Bold-48" transform="translate(3296.8125 0)"/>
    <use xlink:href="#DejaVuSans-Bold-3" transform="translate(3364.640625 0)"/>
    <use xlink:href="#DejaVuSans-Bold-b" transform="translate(3399.453125 0)"/>
    <use xlink:href="#DejaVuSans-Bold-55" transform="translate(3445.15625 0)"/>
    <use xlink:href="#DejaVuSans-Bold-58" transform="translate(3494.46875 0)"/>
    <use xlink:href="#DejaVuSans-Bold-51" transform="translate(3565.65625 0)"/>
    <use xlink:href="#DejaVuSans-Bold-3" transform="translate(3636.84375 0)"/>
    <use xlink:href="#DejaVuSans-Bold-14" transform="translate(3671.65625 0)"/>
    <use xlink:href="#DejaVuSans-Bold-c" transform="translate(3741.234375 0)"/>
   </g>
  </g>
 </g>
 <defs>
  <clipPath id="p62331d51f6">
   <rect x="74.292962" y="49.160469" width="372.039531" height="372.039531"/>
  </clipPath>
  <clipPath id="p9750725deb">
   <rect x="561.667507" y="49.160469" width="372.039531" height="372.039531"/>
  </clipPath>
 </defs>
</svg>
