<svg xmlns="http://www.w3.org/2000/svg" width="800" height="350">
  <rect width="800" height="350" fill="white"/>
  <text x="400" y="18" text-anchor="middle" font-size="13" font-weight="bold">
    circular_multijoint — J1 EB15 vs URSim — run 1 | Pearson=1.0000</text>
  <polyline points="45,174 45,174 45,174 46,174 46,174 47,174 47,174 48,174 48,174 49,174 49,174 50,174 50,174 51,174 51,174 52,174 52,174 53,174 53,174 54,174 54,174 54,174 55,174 55,174 56,174 56,174 57,174 57,174 58,174 58,174 59,174 59,174 60,174 60,174 61,174 61,174 62,174 62,174 63,174 63,174 63,174 64,174 64,174 65,174 65,174 66,174 66,174 67,174 67,174 68,174 68,174 69,174 69,174 70,174 70,174 71,174 71,174 72,174 72,174 73,174 73,174 73,174 74,174 74,174 75,174 75,174 76,174 76,174 77,174 77,174 78,174 78,174 79,174 79,174 80,174 80,174 81,172 81,169 82,166 82,164 82,161 83,158 83,156 84,153 84,150 85,148 85,145 86,142 86,139 87,137 87,134 88,131 88,129 89,126 89,123 90,121 90,118 91,115 91,112 92,110 92,107 92,104 93,102 93,99 94,96 94,94 95,91 95,88 96,85 96,83 97,80 97,77 98,75 98,72 99,69 99,67 100,64 100,61 101,58 101,56 101,53 102,50 102,50 103,50 103,50 104,50 104,50 105,50 105,50 106,50 106,50 107,50 107,50 108,50 108,50 109,50 109,50 110,50 110,50 111,50 111,50 111,50 112,50 112,50 113,50 113,50 114,50 114,50 115,50 115,50 116,50 116,50 117,50 117,50 118,50 118,50 119,50 119,50 120,50 120,50 120,50 121,50 121,50 122,50 122,50 123,50 123,50 124,50 124,50 125,50 125,50 126,50 126,50 127,50 127,50 128,50 128,50 129,50 129,50 130,50 130,50 130,50 131,50 131,50 132,50 132,50 133,50 133,50 134,50 134,50 135,50 135,50 136,50 136,50 137,51 137,54 138,56 138,59 139,62 139,64 139,67 140,70 140,72 141,75 141,78 142,81 142,83 143,86 143,86 144,86 144,86 145,86 145,86 146,86 146,86 147,86 147,86 148,86 148,86 149,86 149,86 149,86 150,86 150,86 151,86 151,86 152,86 152,86 153,86 153,86 154,86 154,86 155,86 155,86 156,86 156,86 157,86 157,86 158,86 158,86 158,86 159,86 159,86 160,86 160,86 161,86 161,86 162,86 162,86 163,86 163,86 164,86 164,86 165,86 165,86 166,86 166,86 167,86 167,86 168,86 168,89 168,92 169,94 169,97 170,100 170,102 171,105 171,108 172,110 172,113 173,116 173,119 174,121 174,124 175,127 175,129 176,132 176,135 177,137 177,140 177,143 178,146 178,148 179,151 179,154 180,156 180,159 181,162 181,164 182,167 182,170 183,173 183,174 184,174 184,174 185,174 185,174 186,174 186,174 187,174 187,174 187,174 188,174 188,174 189,174 189,174 190,174 190,174 191,174 191,174 192,174 192,174 193,174 193,174 194,174 194,174 195,174 195,174 196,174 196,174 196,174 197,174 197,174 198,174 198,174 199,174 199,174 200,174 200,174 201,174 201,174 202,174 202,174 203,174 203,174 204,174 204,174 205,174 205,174 205,174 206,174 206,174 207,174 207,174 208,174 208,174 209,174 209,174 210,174 210,174 211,175 211,178 212,181 212,183 213,186 213,189 214,191 214,194 215,197 215,199 215,202 216,205 216,208 217,210 217,213 218,216 218,218 219,221 219,224 220,226 220,229 221,232 221,235 222,237 222,240 223,243 223,245 224,248 224,251 224,253 225,256 225,259 226,262 226,263 227,263 227,263 228,263 228,263 229,263 229,263 230,263 230,263 231,263 231,263 232,263 232,263 233,263 233,263 234,263 234,263 234,263 235,263 235,263 236,263 236,263 237,263 237,263 238,263 238,263 239,263 239,263 240,263 240,263 241,263 241,263 242,263 242,263 243,263 243,263 243,263 244,263 244,263 245,263 245,263 246,263 246,263 247,263 247,263 248,263 248,263 249,263 249,263 250,263 250,263 251,263 251,263 252,263 252,263 253,263 253,263 253,263 254,265 254,268 255,270 255,273 256,276 256,278 257,281 257,284 258,287 258,289 259,292 259,295 260,297 260,299 261,299 261,299 262,299 262,299 262,299 263,299 263,299 264,299 264,299 265,299 265,299 266,299 266,299 267,299 267,299 268,299 268,299 269,299 269,299 270,299 270,299 271,299 271,299 272,299 272,299 272,299 273,299 273,299 274,299 274,299 275,299 275,299 276,299 276,299 277,299 277,299 278,299 278,299 279,299 279,299 280,299 280,299 281,299 281,299 281,299 282,299 282,299 283,299 283,299 284,299 284,299 285,299 285,296 286,293 286,291 287,288 287,285 288,283 288,280 289,277 289,275 290,272 290,269 291,266 291,264 291,263 292,263 292,263 293,263 293,263 294,263 294,263 295,263 295,263 296,263 296,263 297,263 297,263 298,263 298,263 299,263 299,263 300,263 300,263 300,263 301,263 301,263 302,263 302,263 303,263 303,263 304,263 304,263 305,263 305,263 306,263 306,263 307,263 307,263 308,263 308,263 309,263 309,263 310,263 310,263 310,263 311,263 311,263 312,263 312,263 313,263 313,263 314,263 314,263 315,263 315,263 316,263 316,261 317,258 317,255 318,253 318,250 319,247 319,245 319,242 320,239 320,237 321,234 321,231 322,228 322,226 323,223 323,220 324,218 324,215 325,212 325,210 326,207 326,204 327,201 327,199 328,196 328,193 329,191 329,188 329,185 330,183 330,180 331,177 331,174 332,174 332,174 333,174 333,174 334,174 334,174 335,174 335,174 336,174 336,174 337,174 337,174 338,174 338,174 338,174 339,174 339,174 340,174 340,174 341,174 341,174 342,174 342,174 343,174 343,174 344,174 344,174 345,174 345,174 346,174 346,174 347,174 347,174 348,174 348,174 348,174 349,174 349,174 350,174 350,174 351,174 351,174 352,174 352,174 353,174 353,174 354,174 354,174 355,174 355,174 356,174 356,174 357,174 357,174 357,174 358,174 358,174 359,174 359,172 360,169 360,166 361,164 361,161 362,158 362,156 363,153 363,150 364,148 364,145 365,142 365,139 366,137 366,134 366,131 367,129 367,126 368,123 368,121 369,118 369,115 370,112 370,110 371,107 371,104 372,102 372,99 373,96 373,94 374,91 374,88 375,86 375,86 376,86 376,86 376,86 377,86 377,86 378,86 378,86 379,86 379,86 380,86 380,86 381,86 381,86 382,86 382,86 383,86 383,86 384,86 384,86 385,86 385,86 385,86 386,86 386,86 387,86 387,86 388,86 388,86 389,86 389,86 390,86 390,86 391,86 391,86 392,86 392,86 393,86 393,86 394,86 394,86 395,86 395,86 395,86 396,86 396,86 397,86 397,86 398,86 398,86 399,86 399,86 400,86 400,86 401,86 401,86 402,86 402,85 403,83 403,80 404,77 404,75 404,72 405,69 405,67 406,64 406,61 407,58 407,56 408,53 408,50 409,50 409,50 410,50 410,50 411,50 411,50 412,50 412,50 413,50 413,50 414,50 414,50 414,50 415,50 415,50 416,50 416,50 417,50 417,50 418,50 418,50 419,50 419,50 420,50 420,50 421,50 421,50 422,50 422,50 423,50 423,50 423,50 424,50 424,50 425,50 425,50 426,50 426,50 427,50 427,50 428,50 428,50 429,50 429,50 430,50 430,50 431,50 431,50 432,50 432,50 433,50 433,50 433,52 434,54 434,57 435,60 435,62 436,65 436,68 437,70 437,73 438,76 438,79 439,81 439,84 440,86 440,86 441,86 441,86 442,86 442,86 442,86 443,86 443,86 444,86 444,86 445,86 445,86 446,86 446,86 447,86 447,86 448,86 448,86 449,86 449,86 450,86 450,86 451,86 451,86 452,86 452,86 452,86 453,86 453,86 454,86 454,86 455,86 455,86 456,86 456,86 457,86 457,86 458,86 458,86 459,86 459,86 460,86 460,86 461,86 461,86 461,86 462,86 462,86 463,86 463,86 464,86 464,87 465,89 465,92 466,95 466,98 467,100 467,103 468,106 468,108 469,111 469,114 470,116 470,119 471,122 471,125 471,127 472,130 472,133 473,135 473,138 474,141 474,143 475,146 475,149 476,152 476,154 477,157 477,160 478,162 478,165 479,168 479,170 480,173 480,174 480,174 481,174 481,174 482,174 482,174 483,174 483,174 484,174 484,174 485,174 485,174 486,174 486,174 487,174 487,174 488,174 488,174 489,174 489,174 490,174 490,174 490,174 491,174 491,174 492,174 492,174 493,174 493,174 494,174 494,174 495,174 495,174 496,174 496,174 497,174 497,174 498,174 498,174 499,174 499,174 499,174 500,174 500,174 501,174 501,174 502,174 502,174 503,174 503,174 504,174 504,174 505,174 505,174 506,174 506,174 507,174 507,174 508,177 508,179 509,182 509,185 509,187 510,190 510,193 511,195 511,198 512,201 512,204 513,206 513,209 514,212 514,214 515,217 515,220 516,222 516,225 517,228 517,231 518,233 518,236 518,239 519,241 519,244 520,247 520,249 521,252 521,255 522,258 522,260 523,263 523,263 524,263 524,263 525,263 525,263 526,263 526,263 527,263 527,263 528,263 528,263 528,263 529,263 529,263 530,263 530,263 531,263 531,263 532,263 532,263 533,263 533,263 534,263 534,263 535,263 535,263 536,263 536,263 537,263 537,263 537,263 538,263 538,263 539,263 539,263 540,263 540,263 541,263 541,263 542,263 542,263 543,263 543,263 544,263 544,263 545,263 545,263 546,263 546,263 546,263 547,263 547,263 548,263 548,263 549,263 549,263 550,263 550,263 551,266 551,268 552,271 552,274 553,276 553,279 554,282 554,284 555,287 555,290 556,293 556,295 556,298 557,299 557,299 558,299 558,299 559,299 559,299 560,299 560,299 561,299 561,299 562,299 562,299 563,299 563,299 564,299 564,299 565,299 565,299 565,299 566,299 566,299 567,299 567,299 568,299 568,299 569,299 569,299 570,299 570,299 571,299 571,299 572,299 572,299 573,299 573,299 574,299 574,299 575,299 575,299 575,299 576,299 576,299 577,299 577,299 578,299 578,299 579,299 579,299 580,299 580,299 581,299 581,299 582,298 582,295 583,293 583,290 584,287 584,285 584,282 585,279 585,277 586,274 586,271 587,268 587,266 588,263 588,263 589,263 589,263 590,263 590,263 591,263 591,263 592,263 592,263 593,263 593,263 594,263 594,263 594,263 595,263 595,263 596,263 596,263 597,263 597,263 598,263 598,263 599,263 599,263 600,263 600,263 601,263 601,263 602,263 602,263 603,263 603,263 603,263 604,263 604,263 605,263 605,263 606,263 606,263 607,263 607,263 608,263 608,263 609,263 609,263 610,263 610,263 611,263 611,263 612,263 612,263 613,263 613,260 613,257 614,255 614,252 615,249 615,247 616,244 616,241 617,239 617,236 618,233 618,230 619,228 619,225 620,222 620,220 621,217 621,214 622,212 622,209 622,206 623,203 623,201 624,198 624,195 625,193 625,190 626,187 626,185 627,182 627,179 628,176 628,174 629,174 629,174 630,174 630,174 631,174 631,174 631,174 632,174 632,174 633,174 633,174 634,174 634,174 635,174 635,174 636,174 636,174 637,174 637,174 638,174 638,174 639,174 639,174 640,174 640,174 641,174 641,174 641,174 642,174 642,174 643,174 643,174 644,174 644,174 645,174 645,174 646,174 646,174 647,174 647,174 648,174 648,174 649,174 649,174 650,174 650,174 650,174 651,174 651,174 652,174 652,174 653,174 653,174 654,174 654,174 655,174 655,174 656,174 656,171 657,168 657,166 658,163 658,160 659,158 659,155 660,152 660,150 660,147 661,144 661,141 662,139 662,136 663,133 663,131 664,128 664,125 665,123 665,120 666,117 666,114 667,112 667,109 668,106 668,104 669,101 669,98 669,96 670,93 670,90 671,87 671,86 672,86 672,86 673,86 673,86 674,86 674,86 675,86 675,86 676,86 676,86 677,86 677,86 678,86 678,86 679,86 679,86 679,86 680,86 680,86 681,86 681,86 682,86 682,86 683,86 683,86 684,86 684,86 685,86 685,86 686,86 686,86 687,86 687,86 688,86 688,86 688,86 689,86 689,86 690,86 690,86 691,86 691,86 692,86 692,86 693,86 693,86 694,86 694,86 695,86 695,86 696,86 696,86 697,86 697,86 698,86 698,86 698,86 699,86 699,86 700,87 700,89 701,92 701,95 702,98 702,100 703,103 703,106 704,108 704,111 705,114 705,116 706,119 706,122 707,125 707,127 707,130 708,133 708,135 709,138 709,141 710,143 710,146 711,149 711,152 712,154 712,157 713,160 713,162 714,165 714,168 715,170 715,173 716,174 716,174 717,174 717,174 717,174 718,174 718,174 719,174 719,174 720,174 720,174 721,174 721,174 722,174 722,174 723,174 723,174 724,174 724,174 725,174 725,174 726,174 726,174 726,174 727,174 727,174 728,174 728,174 729,174 729,174 730,174 730,174 731,174 731,174 732,174 732,174 733,174 733,174 734,174 734,174 735,174 735,174 735,174 736,174 736,174 737,174 737,174 738,174 738,174 739,174 739,174 740,174 740,174 741,174 741,174 742,174 742,174 743,174 743,174 744,174 744,174 745,174 745,174 745,174 746,174 746,174 747,174 747,174 748,174 748,174 749,174 749,174 750,174 750,174 751,174 751,174 752,174 752,174 753,174 753,174 754,174 754,174 754,174" stroke="#e41a1c" fill="none" stroke-width="1.8" opacity="0.9"/>
  <polyline points="45,174 45,174 45,175 46,174 46,174 47,175 47,174 48,174 48,175 49,175 49,174 50,175 50,174 51,175 51,174 52,174 52,174 53,174 53,174 54,175 54,175 54,175 55,174 55,174 56,174 56,174 57,174 57,175 58,174 58,174 59,174 59,174 60,174 60,175 61,175 61,174 62,175 62,175 63,174 63,174 63,174 64,175 64,175 65,174 65,174 66,174 66,174 67,175 67,175 68,174 68,174 69,175 69,174 70,174 70,174 71,175 71,174 72,175 72,174 73,174 73,175 73,175 74,175 74,174 75,174 75,175 76,174 76,175 77,175 77,175 78,174 78,174 79,175 79,174 80,174 80,174 81,171 81,168 82,166 82,163 82,160 83,158 83,155 84,152 84,150 85,147 85,144 86,141 86,139 87,136 87,133 88,131 88,128 89,125 89,123 90,120 90,117 91,114 91,112 92,109 92,106 92,104 93,101 93,98 94,96 94,93 95,90 95,87 96,85 96,82 97,79 97,77 98,74 98,71 99,68 99,66 100,63 100,60 101,58 101,55 101,52 102,50 102,50 103,50 103,50 104,50 104,50 105,50 105,50 106,50 106,50 107,50 107,50 108,50 108,50 109,50 109,50 110,50 110,50 111,50 111,50 111,50 112,50 112,50 113,50 113,50 114,50 114,50 115,50 115,50 116,50 116,50 117,50 117,50 118,50 118,50 119,50 119,50 120,50 120,50 120,50 121,50 121,50 122,50 122,50 123,50 123,50 124,50 124,50 125,50 125,50 126,50 126,50 127,50 127,50 128,50 128,50 129,50 129,50 130,50 130,50 130,50 131,50 131,50 132,50 132,50 133,50 133,50 134,50 134,50 135,50 135,50 136,50 136,50 137,52 137,55 138,58 138,60 139,63 139,66 139,68 140,71 140,74 141,77 141,79 142,82 142,85 143,86 143,86 144,86 144,86 145,86 145,86 146,86 146,86 147,86 147,86 148,86 148,86 149,86 149,86 149,86 150,86 150,86 151,86 151,86 152,86 152,86 153,86 153,86 154,86 154,86 155,86 155,86 156,86 156,86 157,86 157,86 158,86 158,86 158,86 159,86 159,86 160,86 160,86 161,86 161,86 162,86 162,86 163,86 163,86 164,86 164,86 165,86 165,86 166,86 166,86 167,86 167,86 168,87 168,90 168,92 169,95 169,98 170,100 170,103 171,106 171,108 172,111 172,114 173,116 173,119 174,122 174,125 175,127 175,130 176,133 176,135 177,138 177,141 177,143 178,146 178,149 179,152 179,154 180,157 180,160 181,162 181,165 182,168 182,170 183,173 183,174 184,175 184,174 185,174 185,175 186,175 186,174 187,174 187,174 187,174 188,174 188,174 189,175 189,174 190,174 190,174 191,174 191,174 192,174 192,174 193,175 193,174 194,175 194,174 195,175 195,175 196,174 196,175 196,174 197,174 197,174 198,175 198,174 199,175 199,174 200,175 200,175 201,174 201,174 202,174 202,175 203,174 203,175 204,174 204,174 205,174 205,174 205,175 206,174 206,175 207,174 207,175 208,175 208,175 209,174 209,174 210,174 210,175 211,177 211,179 212,182 212,185 213,187 213,190 214,193 214,195 215,198 215,201 215,204 216,206 216,209 217,212 217,214 218,217 218,220 219,222 219,225 220,228 220,231 221,233 221,236 222,239 222,241 223,244 223,247 224,249 224,252 224,255 225,257 225,260 226,263 226,263 227,263 227,263 228,263 228,263 229,263 229,263 230,263 230,263 231,263 231,263 232,263 232,263 233,263 233,263 234,263 234,263 234,263 235,263 235,263 236,263 236,263 237,263 237,263 238,263 238,263 239,263 239,263 240,263 240,263 241,263 241,263 242,263 242,263 243,263 243,263 243,263 244,263 244,263 245,263 245,263 246,263 246,263 247,263 247,263 248,263 248,263 249,263 249,263 250,263 250,263 251,263 251,263 252,263 252,263 253,263 253,263 253,263 254,266 254,268 255,271 255,274 256,276 256,279 257,282 257,284 258,287 258,290 259,293 259,295 260,298 260,299 261,299 261,299 262,299 262,299 262,299 263,299 263,299 264,299 264,299 265,299 265,299 266,299 266,299 267,299 267,299 268,299 268,299 269,299 269,299 270,299 270,299 271,299 271,299 272,299 272,299 272,299 273,299 273,299 274,299 274,299 275,299 275,299 276,299 276,299 277,299 277,299 278,299 278,299 279,299 279,299 280,299 280,299 281,299 281,299 281,299 282,299 282,299 283,299 283,299 284,299 284,299 285,297 285,295 286,292 286,289 287,287 287,284 288,281 288,279 289,276 289,273 290,271 290,268 291,265 291,263 291,263 292,263 292,263 293,263 293,263 294,263 294,263 295,263 295,263 296,263 296,263 297,263 297,263 298,263 298,263 299,263 299,263 300,263 300,263 300,263 301,263 301,263 302,263 302,263 303,263 303,263 304,263 304,263 305,263 305,263 306,263 306,263 307,263 307,263 308,263 308,263 309,263 309,263 310,263 310,263 310,263 311,263 311,263 312,263 312,263 313,263 313,263 314,263 314,263 315,263 315,263 316,263 316,260 317,257 317,255 318,252 318,249 319,247 319,244 319,241 320,239 320,236 321,233 321,230 322,228 322,225 323,222 323,220 324,217 324,214 325,212 325,209 326,206 326,204 327,201 327,198 328,195 328,193 329,190 329,187 329,185 330,182 330,179 331,177 331,174 332,175 332,175 333,175 333,174 334,174 334,174 335,174 335,174 336,174 336,174 337,175 337,175 338,174 338,174 338,174 339,175 339,175 340,174 340,175 341,174 341,174 342,174 342,175 343,174 343,174 344,175 344,175 345,175 345,174 346,175 346,175 347,175 347,175 347,174 348,175 348,174 349,174 349,174 350,175 350,174 351,175 351,174 352,175 352,174 353,174 353,174 354,174 354,175 355,174 355,175 356,174 356,175 357,174 357,174 357,174 358,174 358,175 359,173 359,170 360,168 360,165 361,162 361,160 362,157 362,154 363,152 363,149 364,146 364,143 365,141 365,138 366,135 366,133 366,130 367,127 367,125 368,122 368,119 369,116 369,114 370,111 370,108 371,106 371,103 372,100 372,98 373,95 373,92 374,89 374,87 375,86 375,86 376,86 376,86 376,86 377,86 377,86 378,86 378,86 379,86 379,86 380,86 380,86 381,86 381,86 382,86 382,86 383,86 383,86 384,86 384,86 385,86 385,86 385,86 386,86 386,86 387,86 387,86 388,86 388,86 389,86 389,86 390,86 390,86 391,86 391,86 392,86 392,86 393,86 393,86 394,86 394,86 395,86 395,86 395,86 396,86 396,86 397,86 397,86 398,86 398,86 399,86 399,86 400,86 400,86 401,86 401,86 402,86 402,84 403,81 403,79 404,76 404,73 404,71 405,68 405,65 406,62 406,60 407,57 407,54 408,52 408,50 409,50 409,50 410,50 410,50 411,50 411,50 412,50 412,50 413,50 413,50 414,50 414,50 414,50 415,50 415,50 416,50 416,50 417,50 417,50 418,50 418,50 419,50 419,50 420,49 420,50 421,50 421,50 422,50 422,50 423,50 423,50 423,50 424,50 424,50 425,50 425,50 426,50 426,50 427,50 427,50 428,50 428,50 429,50 429,50 430,50 430,50 431,50 431,50 432,50 432,50 433,50 433,50 433,53 434,56 434,58 435,61 435,64 436,66 436,69 437,72 437,75 438,77 438,80 439,83 439,85 440,86 440,86 441,86 441,86 442,86 442,86 442,86 443,86 443,86 444,86 444,86 445,86 445,86 446,86 446,86 447,86 447,86 448,86 448,86 449,86 449,86 450,86 450,86 451,86 451,86 452,86 452,86 452,86 453,86 453,86 454,86 454,86 455,86 455,86 456,86 456,86 457,86 457,86 458,86 458,86 459,86 459,86 460,86 460,86 461,86 461,86 461,86 462,86 462,86 463,86 463,86 464,86 464,88 465,91 465,94 466,96 466,99 467,102 467,104 468,107 468,110 469,112 469,115 470,118 470,121 471,123 471,126 471,129 472,131 472,134 473,137 473,139 474,142 474,145 475,147 475,150 476,153 476,156 477,158 477,161 478,164 478,166 479,169 479,172 480,174 480,175 480,175 481,175 481,174 482,174 482,174 483,174 483,175 484,175 484,175 485,175 485,174 486,174 486,174 487,175 487,175 488,175 488,174 489,174 489,174 489,175 490,174 490,174 491,175 491,174 492,174 492,175 493,174 493,174 494,175 494,175 495,175 495,174 496,175 496,175 497,174 497,174 498,174 498,174 499,174 499,174 499,174 500,174 500,174 501,175 501,175 502,174 502,175 503,174 503,174 504,175 504,174 505,174 505,175 506,175 506,175 507,174 507,174 508,177 508,180 508,183 509,185 509,188 510,191 510,193 511,196 511,199 512,201 512,204 513,207 513,210 514,212 514,215 515,218 515,220 516,223 516,226 517,228 517,231 518,234 518,237 518,239 519,242 519,245 520,247 520,250 521,253 521,256 522,258 522,261 523,263 523,263 524,263 524,263 525,263 525,263 526,263 526,263 527,263 527,263 527,263 528,263 528,263 529,263 529,263 530,263 530,263 531,263 531,263 532,263 532,263 533,263 533,263 534,263 534,263 535,263 535,263 536,263 536,263 537,263 537,263 537,263 538,263 538,263 539,263 539,263 540,263 540,263 541,263 541,263 542,263 542,263 543,263 543,263 544,263 544,263 545,263 545,263 546,263 546,263 546,263 547,263 547,263 548,263 548,263 549,263 549,263 550,263 550,264 551,267 551,270 552,272 552,275 553,278 553,280 554,283 554,286 555,289 555,291 556,294 556,297 556,299 557,299 557,299 558,299 558,299 559,299 559,299 560,299 560,299 561,299 561,299 562,299 562,299 563,299 563,300 564,299 564,299 565,299 565,299 565,299 566,299 566,299 567,299 567,299 568,299 568,299 569,299 569,299 570,299 570,299 571,299 571,299 572,299 572,299 573,299 573,299 574,299 574,299 575,299 575,299 575,299 576,299 576,299 577,299 577,299 578,299 578,299 579,299 579,299 580,299 580,299 581,299 581,299 582,297 582,294 583,291 583,289 584,286 584,283 584,281 585,278 585,275 586,273 586,270 587,267 587,264 588,263 588,263 589,263 589,263 590,263 590,263 591,263 591,263 592,263 592,263 593,263 593,263 593,263 594,263 594,263 595,263 595,263 596,263 596,263 597,263 597,263 598,263 598,263 599,263 599,263 600,263 600,263 601,263 601,263 602,263 602,263 603,263 603,263 603,263 604,263 604,263 605,263 605,263 606,263 606,263 607,263 607,263 608,263 608,263 609,263 609,263 610,263 610,263 611,263 611,263 612,263 612,263 613,262 613,259 613,256 614,253 614,251 615,248 615,245 616,243 616,240 617,237 617,235 618,232 618,229 619,226 619,224 620,221 620,218 621,216 621,213 622,210 622,208 622,205 623,202 623,199 624,197 624,194 625,191 625,189 626,186 626,183 627,181 627,178 628,175 628,174 629,174 629,174 630,174 630,175 631,174 631,175 632,174 632,175 632,175 633,174 633,174 634,175 634,175 635,175 635,174 636,175 636,175 637,174 637,174 638,175 638,175 639,175 639,174 640,175 640,174 641,174 641,175 641,174 642,175 642,175 643,174 643,174 644,174 644,175 645,175 645,175 646,174 646,174 647,174 647,174 648,174 648,174 649,174 649,174 650,175 650,174 650,174 651,174 651,175 652,174 652,174 653,174 653,175 654,175 654,174 655,174 655,174 656,172 656,170 657,167 657,164 658,162 658,159 659,156 659,154 660,151 660,148 660,145 661,143 661,140 662,137 662,135 663,132 663,129 664,127 664,124 665,121 665,118 666,116 666,113 667,110 667,108 668,105 668,102 669,100 669,97 669,94 670,91 670,89 671,86 671,86 672,86 672,86 673,86 673,86 674,86 674,86 675,86 675,86 676,86 676,86 677,86 677,86 678,86 678,86 679,86 679,86 679,86 680,86 680,86 681,86 681,86 682,86 682,86 683,86 683,86 684,86 684,86 685,86 685,86 686,86 686,86 687,86 687,86 688,86 688,86 688,86 689,86 689,86 690,86 690,86 691,86 691,86 692,86 692,86 693,86 693,86 694,86 694,86 695,86 695,86 696,86 696,86 697,86 697,86 698,86 698,86 698,86 699,86 699,86 700,87 700,90 701,93 701,96 702,98 702,101 703,104 703,106 704,109 704,112 705,114 705,117 706,120 706,123 707,125 707,128 707,131 708,133 708,136 709,139 709,141 710,144 710,147 711,150 711,152 712,155 712,158 713,160 713,163 714,166 714,168 715,171 715,174 716,174 716,174 717,174 717,175 717,174 718,175 718,175 719,175 719,174 720,175 720,174 721,175 721,174 722,174 722,175 723,175 723,175 724,174 724,175 725,175 725,174 726,175 726,174 726,174 727,175 727,174 728,174 728,174 729,174 729,175 730,174 730,174 731,174 731,175 732,174 732,174 733,174 733,175 734,174 734,174 735,175 735,175 736,174 736,175 736,175 737,175 737,175 738,174 738,175 739,175 739,174 740,174 740,174 741,174 741,175 742,175 742,175 743,175 743,175 744,174 744,175 745,174 745,175 745,174 746,175 746,174 747,174 747,174 748,174 748,175 749,175 749,174 750,175 750,174 751,174 751,174 752,174 752,175 753,174 753,175 754,174 754,174 755,174" stroke="#377eb8" fill="none" stroke-width="1.8"
            stroke-dasharray="5,3" opacity="0.9"/>
  <circle cx="700" cy="32" r="6" fill="#e41a1c"/>
  <text x="710" y="37" font-size="11">EB15</text>
  <circle cx="700" cy="48" r="6" fill="#377eb8"/>
  <text x="710" y="53" font-size="11">URSim</text>
  <line x1="45" y1="305" x2="755" y2="305" stroke="#999" stroke-width="1"/>
  <line x1="45" y1="45" x2="45" y2="305" stroke="#999" stroke-width="1"/>
  <text x="400" y="346" text-anchor="middle" font-size="10" fill="#555">tempo (s)</text>
  <text x="22" y="175" text-anchor="middle" font-size="10" fill="#555"
        transform="rotate(-90 22 175)">J1 (deg)</text>
</svg>