<svg xmlns="http://www.w3.org/2000/svg" width="800" height="350">
  <rect width="800" height="350" fill="white"/>
  <text x="400" y="18" text-anchor="middle" font-size="13" font-weight="bold">
    pick_and_place — J1 EB15 vs URSim — run 1 | Pearson=1.0000</text>
  <polyline points="45,293 45,293 46,293 47,293 47,293 48,293 49,293 50,293 50,293 51,293 52,293 53,293 53,293 54,293 55,293 55,293 56,293 57,293 58,293 58,293 59,293 60,293 61,293 61,293 62,293 63,293 63,293 64,293 65,293 66,293 66,293 67,293 68,293 69,293 69,293 70,293 71,293 71,293 72,293 73,293 74,293 74,293 75,293 76,293 77,293 77,293 78,293 79,293 79,293 80,293 81,293 82,293 82,293 83,293 84,293 85,293 85,293 86,293 87,293 87,293 88,293 89,293 90,293 90,293 91,293 92,293 93,293 93,293 94,293 95,293 96,293 96,293 97,293 98,293 98,293 99,293 100,293 101,293 101,293 102,293 103,293 104,293 104,293 105,293 106,293 106,293 107,293 108,293 109,293 109,293 110,293 111,293 112,293 112,293 113,293 114,293 114,293 115,293 116,293 117,293 117,293 118,293 119,293 120,293 120,293 121,293 122,293 122,293 123,293 124,293 125,293 125,293 126,293 127,293 128,293 128,293 129,293 130,293 131,293 131,293 132,293 133,293 133,293 134,293 135,293 136,293 136,293 137,293 138,293 139,293 139,293 140,293 141,293 141,293 142,293 143,293 144,293 144,293 145,293 146,293 147,293 147,293 148,293 149,293 149,293 150,293 151,293 152,293 152,293 153,293 154,293 155,293 155,293 156,293 157,293 157,293 158,293 159,293 160,293 160,293 161,293 162,293 163,293 163,293 164,293 165,293 165,293 166,293 167,293 168,293 168,293 169,293 170,293 171,293 171,293 172,293 173,293 174,293 174,293 175,293 176,293 176,293 177,293 178,293 179,293 179,293 180,293 181,293 182,293 182,293 183,293 184,293 184,293 185,293 186,293 187,293 187,293 188,293 189,293 190,293 190,293 191,293 192,293 192,293 193,293 194,293 195,293 195,293 196,293 197,293 198,293 198,293 199,293 200,293 200,291 201,285 202,278 203,272 203,266 204,259 205,253 206,246 206,240 207,234 208,227 209,221 209,214 210,208 211,202 211,195 212,189 213,183 214,176 214,170 215,163 216,157 217,151 217,144 218,138 219,132 219,125 220,119 221,112 222,106 222,100 223,93 224,87 225,81 225,74 226,68 227,61 227,56 228,56 229,56 230,56 230,56 231,56 232,56 233,56 233,56 234,56 235,56 235,56 236,56 237,56 238,56 238,56 239,56 240,56 241,56 241,56 242,56 243,56 244,56 244,56 245,56 246,56 246,56 247,56 248,56 249,56 249,56 250,56 251,56 252,56 252,56 253,56 254,56 254,56 255,56 256,56 257,56 257,56 258,56 259,56 260,56 260,56 261,56 262,56 262,56 263,56 264,56 265,56 265,56 266,56 267,56 268,56 268,56 269,56 270,56 270,56 271,56 272,56 273,56 273,56 274,56 275,56 276,56 276,56 277,56 278,56 278,56 279,56 280,56 281,56 281,56 282,56 283,56 284,56 284,56 285,56 286,56 287,56 287,56 288,56 289,56 289,56 290,56 291,56 292,56 292,56 293,56 294,56 295,56 295,56 296,56 297,56 297,56 298,56 299,56 300,56 300,56 301,56 302,56 303,56 303,56 304,56 305,56 305,56 306,56 307,56 308,56 308,56 309,56 310,56 311,56 311,56 312,56 313,56 314,56 314,56 315,56 316,56 316,56 317,56 318,56 319,56 319,56 320,56 321,56 321,56 322,56 323,56 324,56 324,56 325,56 326,56 327,56 327,56 328,56 329,56 330,56 330,56 331,56 332,56 332,56 333,56 334,56 335,56 335,56 336,56 337,56 338,56 338,56 339,56 340,56 340,56 341,56 342,56 343,56 343,56 344,56 345,56 346,56 346,56 347,56 348,56 348,56 349,56 350,56 351,56 351,56 352,56 353,56 354,56 354,56 355,56 356,56 356,56 357,56 358,56 359,56 359,56 360,56 361,56 362,56 362,56 363,56 364,56 365,56 365,56 366,56 367,56 367,56 368,56 369,56 370,56 370,56 371,56 372,56 373,56 373,56 374,56 375,56 375,56 376,56 377,56 378,56 378,56 379,56 380,56 381,56 381,56 382,56 383,56 383,56 384,56 385,56 386,56 386,56 387,56 388,56 389,56 389,56 390,56 391,56 391,56 392,56 393,56 394,56 394,56 395,56 396,56 397,56 397,56 398,56 399,56 399,56 400,56 401,56 402,56 402,56 403,56 404,56 405,56 405,56 406,56 407,56 408,56 408,56 409,56 410,56 410,56 411,56 412,56 413,56 413,56 414,56 415,56 416,56 416,56 417,56 418,56 418,56 419,56 420,56 421,56 421,56 422,56 423,56 424,56 424,56 425,56 426,56 426,56 427,56 428,56 429,56 429,56 430,56 431,56 432,56 432,56 433,56 434,56 434,56 435,56 436,56 437,56 437,56 438,56 439,56 440,56 440,56 441,56 442,56 443,56 443,56 444,56 445,56 445,56 446,56 447,56 448,56 448,56 449,56 450,56 451,56 451,56 452,56 453,56 453,56 454,56 455,56 456,56 456,56 457,56 458,56 459,56 459,56 460,56 461,56 461,56 462,56 463,56 464,56 464,56 465,56 466,56 467,56 467,56 468,56 469,56 469,56 470,56 471,56 472,56 472,56 473,56 474,56 475,56 475,56 476,56 477,56 477,56 478,56 479,56 480,56 480,56 481,56 482,56 483,56 483,56 484,56 485,56 486,56 486,56 487,56 488,56 488,56 489,56 490,56 491,56 491,56 492,56 493,56 494,56 494,56 495,56 496,56 496,56 497,56 498,56 499,56 499,56 500,56 501,56 502,56 502,56 503,56 504,56 504,56 505,56 506,56 507,56 507,56 508,56 509,56 510,56 510,56 511,56 512,56 512,56 513,56 514,56 515,56 515,56 516,56 517,56 518,56 518,56 519,56 520,56 520,56 521,56 522,56 523,56 523,56 524,56 525,56 526,56 526,56 527,56 528,56 529,56 529,56 530,56 531,56 531,56 532,56 533,56 534,56 534,56 535,56 536,56 537,56 537,56 538,56 539,56 539,56 540,56 541,56 542,56 542,56 543,56 544,56 545,56 545,56 546,56 547,56 547,56 548,56 549,56 550,56 550,56 551,56 552,56 553,56 553,56 554,56 555,56 555,56 556,56 557,56 558,56 558,56 559,56 560,56 561,56 561,56 562,56 563,56 564,56 564,56 565,56 566,56 566,56 567,56 568,56 569,56 569,56 570,56 571,56 572,56 572,56 573,56 574,56 574,56 575,56 576,56 577,56 577,56 578,56 579,56 580,56 580,56 581,56 582,56 582,56 583,56 584,56 585,56 585,56 586,56 587,56 588,56 588,56 589,56 590,56 590,56 591,56 592,56 593,56 593,56 594,56 595,56 596,56 596,56 597,56 598,56 599,56 599,56 600,56 601,56 601,56 602,56 603,56 604,56 604,56 605,56 606,56 607,56 607,56 608,56 609,56 609,56 610,56 611,56 612,56 612,56 613,56 614,56 615,56 615,56 616,56 617,56 617,56 618,56 619,56 620,56 620,56 621,56 622,56 623,56 623,56 624,56 625,56 625,56 626,56 627,56 628,56 628,56 629,56 630,56 631,56 631,56 632,56 633,56 633,56 634,56 635,56 636,56 636,56 637,56 638,56 639,56 639,56 640,56 641,56 642,56 642,56 643,56 644,56 644,56 645,56 646,56 647,56 647,56 648,56 649,56 650,56 650,56 651,56 652,56 652,56 653,56 654,56 655,56 655,56 656,56 657,56 658,58 658,64 659,71 660,77 660,83 661,90 662,96 663,103 663,109 664,115 665,122 666,128 666,135 667,141 668,147 668,154 669,160 670,166 671,173 671,179 672,186 673,192 674,198 674,205 675,211 676,217 676,224 677,230 678,237 679,243 679,249 680,256 681,262 682,268 682,275 683,281 684,288 685,293 685,293 686,293 687,293 687,293 688,293 689,293 690,293 690,293 691,293 692,293 693,293 693,293 694,293 695,293 695,293 696,293 697,293 698,293 698,293 699,293 700,293 701,293 701,293 702,293 703,293 703,293 704,293 705,293 706,293 706,293 707,293 708,293 709,293 709,293 710,293 711,293 711,293 712,293 713,293 714,293 714,293 715,293 716,293 717,293 717,293 718,293 719,293 720,293 720,293 721,293 722,293 722,293 723,293 724,293 725,293 725,293 726,293 727,293 728,293 728,293 729,293 730,293 730,293 731,293 732,293 733,293 733,293 734,293 735,293 736,293 736,293 737,293 738,293 738,293 739,293 740,293 741,293 741,293 742,293 743,293 744,293 744,293 745,293 746,293 747,293 747,293 748,293 749,293 749,293 750,293 751,293 752,293 752,293 753,293 754,293 755,293" stroke="#e41a1c" fill="none" stroke-width="1.8" opacity="0.9"/>
  <polyline points="45,293 45,293 46,293 47,293 47,293 48,293 49,293 50,293 50,293 51,293 52,293 53,293 53,293 54,293 55,293 55,293 56,293 57,293 58,293 58,293 59,293 60,293 61,293 61,293 62,293 63,293 63,293 64,293 65,293 66,293 66,293 67,293 68,293 69,293 69,293 70,293 71,293 71,293 72,293 73,293 74,293 74,293 75,293 76,293 77,293 77,293 78,293 79,293 79,293 80,293 81,293 82,293 82,293 83,293 84,293 85,293 85,293 86,293 87,293 87,293 88,293 89,293 90,293 90,293 91,293 92,293 93,293 93,293 94,293 95,293 96,293 96,293 97,293 98,293 98,293 99,293 100,293 101,293 101,293 102,293 103,293 104,293 104,293 105,293 106,293 106,293 107,293 108,293 109,293 109,293 110,293 111,293 112,293 112,293 113,293 114,293 114,293 115,293 116,293 117,293 117,293 118,293 119,293 120,293 120,293 121,293 122,293 123,293 123,293 124,293 125,293 125,293 126,293 127,293 128,293 128,293 129,293 130,293 131,293 131,293 132,293 133,293 133,293 134,293 135,293 136,293 136,293 137,293 138,293 139,293 139,293 140,293 141,293 141,293 142,293 143,293 144,293 144,293 145,293 146,293 147,293 147,293 148,293 149,293 149,293 150,293 151,293 152,293 152,293 153,293 154,293 155,293 155,293 156,293 157,293 157,293 158,293 159,293 160,293 160,293 161,293 162,293 163,293 163,293 164,293 165,293 166,293 166,293 167,293 168,293 168,293 169,293 170,293 171,293 171,293 172,293 173,293 174,293 174,293 175,293 176,293 176,293 177,293 178,293 179,293 179,293 180,293 181,293 182,293 182,293 183,293 184,293 184,293 185,293 186,293 187,293 187,293 188,293 189,293 190,293 190,293 191,293 192,293 192,293 193,293 194,293 195,293 195,293 196,293 197,293 198,293 198,293 199,293 200,293 200,288 201,281 202,275 203,269 203,262 204,256 205,249 206,243 206,237 207,230 208,224 209,218 209,211 210,205 211,198 211,192 212,186 213,179 214,173 214,167 215,160 216,154 217,147 217,141 218,135 219,128 219,122 220,115 221,109 222,103 222,96 223,90 224,84 225,77 225,71 226,64 227,58 227,56 228,56 229,56 230,56 230,56 231,56 232,56 233,56 233,56 234,56 235,56 235,56 236,56 237,56 238,56 238,56 239,56 240,56 241,56 241,56 242,56 243,56 244,56 244,56 245,56 246,56 246,56 247,56 248,56 249,56 249,56 250,56 251,56 252,56 252,56 253,56 254,56 254,56 255,56 256,56 257,56 257,56 258,56 259,56 260,56 260,56 261,56 262,56 262,56 263,56 264,56 265,56 265,56 266,56 267,56 268,56 268,56 269,56 270,56 270,56 271,56 272,56 273,56 273,56 274,56 275,56 276,56 276,56 277,56 278,56 278,56 279,56 280,56 281,56 281,56 282,56 283,56 284,56 284,56 285,56 286,56 287,56 287,56 288,56 289,56 289,56 290,56 291,56 292,56 292,56 293,56 294,56 295,56 295,56 296,56 297,56 297,56 298,56 299,56 300,56 300,56 301,56 302,56 303,56 303,56 304,56 305,56 305,56 306,56 307,56 308,56 308,56 309,56 310,56 311,56 311,56 312,56 313,56 313,56 314,56 315,56 316,56 316,56 317,56 318,56 319,56 319,56 320,56 321,56 321,56 322,56 323,56 324,56 324,56 325,56 326,56 327,56 327,56 328,56 329,56 330,56 330,56 331,56 332,56 332,56 333,56 334,56 335,56 335,56 336,56 337,56 338,56 338,56 339,56 340,56 340,56 341,56 342,56 343,56 343,56 344,56 345,56 346,56 346,56 347,56 348,56 348,56 349,56 350,56 351,56 351,56 352,56 353,56 354,56 354,56 355,56 356,56 356,56 357,56 358,56 359,56 359,56 360,56 361,56 362,56 362,56 363,56 364,56 365,56 365,56 366,56 367,56 367,56 368,56 369,56 370,56 370,56 371,56 372,56 373,56 373,56 374,56 375,56 375,56 376,56 377,56 378,56 378,56 379,56 380,56 381,56 381,56 382,56 383,56 383,56 384,56 385,56 386,56 386,56 387,56 388,56 389,56 389,56 390,56 391,56 391,56 392,56 393,56 394,56 394,56 395,56 396,56 397,56 397,56 398,56 399,56 399,56 400,56 401,56 402,56 402,56 403,56 404,56 405,56 405,56 406,56 407,56 408,56 408,56 409,56 410,56 410,56 411,56 412,56 413,56 413,56 414,56 415,56 416,56 416,56 417,56 418,56 418,56 419,56 420,56 421,56 421,56 422,56 423,56 424,56 424,56 425,56 426,56 426,56 427,56 428,56 429,56 429,56 430,56 431,56 432,56 432,56 433,56 434,56 434,56 435,56 436,56 437,56 437,56 438,56 439,56 440,56 440,56 441,56 442,56 443,56 443,56 444,56 445,56 445,56 446,56 447,56 448,56 448,56 449,56 450,56 451,56 451,56 452,56 453,56 453,56 454,56 455,56 456,56 456,56 457,56 458,56 459,56 459,56 460,56 461,56 461,56 462,56 463,56 464,56 464,56 465,56 466,56 467,56 467,56 468,56 469,56 469,56 470,56 471,56 472,56 472,56 473,56 474,56 475,56 475,56 476,56 477,56 477,56 478,56 479,56 480,56 480,56 481,56 482,56 483,56 483,56 484,56 485,56 486,56 486,56 487,56 488,56 488,56 489,56 490,56 491,56 491,56 492,56 493,56 494,56 494,56 495,56 496,56 496,56 497,56 498,56 499,56 499,56 500,56 501,56 502,56 502,56 503,56 504,56 504,56 505,56 506,56 507,56 507,56 508,56 509,56 510,56 510,56 511,56 512,56 512,56 513,56 514,56 515,56 515,56 516,56 517,56 518,56 518,56 519,56 520,56 521,56 521,56 522,56 523,56 523,56 524,56 525,56 526,56 526,56 527,56 528,56 529,56 529,56 530,56 531,56 531,56 532,56 533,56 534,56 534,56 535,56 536,56 537,56 537,56 538,56 539,56 539,56 540,56 541,56 542,56 542,56 543,56 544,56 545,56 545,56 546,56 547,56 547,56 548,56 549,56 550,56 550,56 551,56 552,56 553,56 553,56 554,56 555,56 556,56 556,56 557,56 558,56 558,56 559,56 560,56 561,56 561,56 562,56 563,56 564,56 564,56 565,56 566,56 566,56 567,56 568,56 569,56 569,56 570,56 571,56 572,56 572,56 573,56 574,56 574,56 575,56 576,56 577,56 577,56 578,56 579,56 580,56 580,56 581,56 582,56 582,56 583,56 584,56 585,56 585,56 586,56 587,56 588,56 588,56 589,56 590,56 590,56 591,56 592,56 593,56 593,56 594,56 595,56 596,56 596,56 597,56 598,56 599,56 599,56 600,56 601,56 601,56 602,56 603,56 604,56 604,56 605,56 606,56 607,56 607,56 608,56 609,56 609,56 610,56 611,56 612,56 612,56 613,56 614,56 615,56 615,56 616,56 617,56 617,56 618,56 619,56 620,56 620,56 621,56 622,56 623,56 623,56 624,56 625,56 625,56 626,56 627,56 628,56 628,56 629,56 630,56 631,56 631,56 632,56 633,56 633,56 634,56 635,56 636,56 636,56 637,56 638,56 639,56 639,56 640,56 641,56 642,56 642,56 643,56 644,56 644,56 645,56 646,56 647,56 647,56 648,56 649,56 650,56 650,56 651,56 652,56 652,56 653,56 654,56 655,56 655,56 656,56 657,56 658,61 658,68 659,74 660,80 660,87 661,93 662,99 663,106 663,112 664,119 665,125 666,131 666,138 667,144 668,150 668,157 669,163 670,170 671,176 671,182 672,189 673,195 674,201 674,208 675,214 676,221 677,227 677,233 678,240 679,246 679,253 680,259 681,265 682,272 682,278 683,284 684,291 685,293 685,293 686,293 687,293 687,293 688,293 689,293 690,293 690,293 691,293 692,293 693,293 693,293 694,293 695,293 695,293 696,293 697,293 698,293 698,293 699,293 700,293 701,293 701,293 702,293 703,293 703,293 704,293 705,293 706,293 706,293 707,293 708,293 709,293 709,293 710,293 711,293 712,293 712,293 713,293 714,293 714,293 715,293 716,293 717,293 717,293 718,293 719,293 720,293 720,293 721,293 722,293 722,293 723,293 724,293 725,293 725,293 726,293 727,293 728,293 728,293 729,293 730,293 730,293 731,293 732,293 733,293 733,293 734,293 735,293 736,293 736,293 737,293 738,293 738,293 739,293 740,293 741,293 741,293 742,293 743,293 744,293 744,293 745,293 746,293 746,293 747,293 748,293 749,293 749,293 750,293 751,293 752,293 752,293 753,293 754,293" stroke="#377eb8" fill="none" stroke-width="1.8"
            stroke-dasharray="5,3" opacity="0.9"/>
  <circle cx="700" cy="32" r="6" fill="#e41a1c"/>
  <text x="710" y="37" font-size="11">EB15</text>
  <circle cx="700" cy="48" r="6" fill="#377eb8"/>
  <text x="710" y="53" font-size="11">URSim</text>
  <line x1="45" y1="305" x2="755" y2="305" stroke="#999" stroke-width="1"/>
  <line x1="45" y1="45" x2="45" y2="305" stroke="#999" stroke-width="1"/>
  <text x="400" y="346" text-anchor="middle" font-size="10" fill="#555">tempo (s)</text>
  <text x="22" y="175" text-anchor="middle" font-size="10" fill="#555"
        transform="rotate(-90 22 175)">J1 (deg)</text>
</svg>