<svg xmlns="http://www.w3.org/2000/svg" width="800" height="350">
  <rect width="800" height="350" fill="white"/>
  <text x="400" y="18" text-anchor="middle" font-size="13" font-weight="bold">
    linear_x — J1 EB15 vs URSim — run 1 | Pearson=0.9999</text>
  <polyline points="45,296 45,296 46,296 47,296 48,296 49,296 50,296 51,296 51,296 52,296 53,296 54,296 55,296 56,296 57,296 57,296 58,296 59,296 60,296 61,296 62,296 63,296 64,296 64,296 65,296 66,296 67,296 68,296 69,296 69,296 70,296 71,296 72,296 73,296 74,296 75,296 76,296 76,296 77,296 78,296 79,296 80,296 81,296 82,296 82,296 83,296 84,296 85,296 86,296 87,296 88,296 88,296 89,296 90,296 91,296 92,296 93,296 94,296 94,296 95,296 96,296 97,296 98,296 99,296 100,296 101,296 101,296 102,296 103,296 104,296 105,296 106,296 107,296 107,296 108,296 109,295 110,290 111,285 112,280 113,275 113,269 114,264 115,259 116,254 117,249 118,244 119,239 119,234 120,229 121,223 122,218 123,213 124,208 125,203 126,198 126,193 127,188 128,182 129,177 130,172 131,167 132,162 132,157 133,152 134,147 135,142 136,136 137,131 138,126 138,121 139,116 140,111 141,106 142,101 143,95 144,90 144,85 145,80 146,75 147,70 148,65 149,60 150,55 150,53 151,53 152,53 153,53 154,53 155,53 156,53 157,53 157,53 158,53 159,53 160,53 161,53 162,53 163,53 163,53 164,53 165,53 166,53 167,53 168,53 169,53 169,53 170,53 171,53 172,53 173,53 174,53 175,53 175,53 176,53 177,53 178,53 179,53 180,53 181,53 182,53 182,53 183,53 184,53 185,53 186,53 187,53 188,53 188,53 189,53 190,53 191,53 192,53 193,53 194,53 194,53 195,53 196,53 197,53 198,53 199,53 200,53 201,53 201,53 202,53 203,53 204,53 205,53 206,53 207,53 207,53 208,53 209,53 210,53 211,53 212,53 213,53 213,55 214,60 215,65 216,71 217,76 218,81 219,86 219,91 220,96 221,101 222,106 223,111 224,117 225,122 225,127 226,132 227,137 228,142 229,147 230,152 231,158 231,163 232,168 233,173 234,178 235,183 236,188 237,193 238,199 238,204 239,209 240,214 241,219 242,224 243,229 244,234 244,239 245,245 246,250 247,255 248,260 249,265 250,270 250,275 251,280 252,286 253,291 254,296 255,296 256,296 256,296 257,296 258,296 259,296 260,296 261,296 262,296 263,296 263,296 264,296 265,296 266,296 267,296 268,296 269,296 269,296 270,296 271,296 272,296 273,296 274,296 275,296 275,296 276,296 277,296 278,296 279,296 280,296 281,296 281,296 282,296 283,296 284,296 285,296 286,296 287,296 287,296 288,296 289,296 290,296 291,296 292,296 293,296 294,296 294,296 295,296 296,296 297,296 298,296 299,296 300,296 300,296 301,296 302,296 303,296 304,296 305,296 306,296 306,296 307,296 308,296 309,296 310,296 311,296 312,296 313,296 313,296 314,296 315,296 316,296 317,296 318,294 319,289 319,284 320,278 321,273 322,268 323,263 324,258 325,253 325,248 326,243 327,237 328,232 329,227 330,222 331,217 331,212 332,207 333,202 334,197 335,191 336,186 337,181 337,176 338,171 339,166 340,161 341,156 342,150 343,145 344,140 344,135 345,130 346,125 347,120 348,115 349,110 350,104 350,99 351,94 352,89 353,84 354,79 355,74 356,69 356,63 357,58 358,53 359,53 360,53 361,53 362,53 362,53 363,53 364,53 365,53 366,53 367,53 368,53 368,53 369,53 370,53 371,53 372,53 373,53 374,53 375,53 375,53 376,53 377,53 378,53 379,53 380,53 381,53 381,53 382,53 383,53 384,53 385,53 386,53 387,53 387,53 388,53 389,53 390,53 391,53 392,53 393,53 393,53 394,53 395,53 396,53 397,53 398,53 399,53 400,53 400,53 401,53 402,53 403,53 404,53 405,53 406,53 406,53 407,53 408,53 409,53 410,53 411,53 412,53 412,53 413,53 414,53 415,53 416,53 417,53 418,53 418,53 419,53 420,53 421,53 422,56 423,62 424,67 424,72 425,77 426,82 427,87 428,92 429,97 430,103 431,108 431,113 432,118 433,123 434,128 435,133 436,138 437,143 437,149 438,154 439,159 440,164 441,169 442,174 443,179 443,184 444,190 445,195 446,200 447,205 448,210 449,215 449,220 450,225 451,230 452,236 453,241 454,246 455,251 456,256 456,261 457,266 458,271 459,277 460,282 461,287 462,292 462,296 463,296 464,296 465,296 466,296 467,296 468,296 468,296 469,296 470,296 471,296 472,296 473,296 474,296 474,296 475,296 476,296 477,296 478,296 479,296 480,296 481,296 481,296 482,296 483,296 484,296 485,296 486,296 487,296 487,296 488,296 489,296 490,296 491,296 492,296 493,296 493,296 494,296 495,296 496,296 497,296 498,296 499,296 499,296 500,296 501,296 502,296 503,296 504,296 505,296 505,296 506,296 507,296 508,296 509,296 510,296 511,296 512,296 512,296 513,296 514,296 515,296 516,296 517,296 518,296 518,296 519,296 520,296 521,296 522,296 523,296 524,296 524,296 525,296 526,293 527,287 528,282 529,277 530,272 530,267 531,262 532,257 533,252 534,246 535,241 536,236 537,231 537,226 538,221 539,216 540,211 541,206 542,200 543,195 543,190 544,185 545,180 546,175 547,170 548,165 549,159 549,154 550,149 551,144 552,139 553,134 554,129 555,124 555,119 556,113 557,108 558,103 559,98 560,93 561,88 561,83 562,78 563,72 564,67 565,62 566,57 567,53 568,53 568,53 569,53 570,53 571,53 572,53 573,53 574,53 574,53 575,53 576,53 577,53 578,53 579,53 580,53 580,53 581,53 582,53 583,53 584,53 585,53 586,53 586,53 587,53 588,53 589,53 590,53 591,53 592,53 593,53 593,53 594,53 595,53 596,53 597,53 598,53 599,53 599,53 600,53 601,53 602,53 603,53 604,53 605,53 605,53 606,53 607,53 608,53 609,53 610,53 611,53 612,53 612,53 613,53 614,53 615,53 616,53 617,53 617,53 618,53 619,53 620,53 621,53 622,53 623,53 624,53 624,53 625,53 626,53 627,53 628,53 629,53 630,53 630,58 631,63 632,68 633,73 634,78 635,83 636,88 636,94 637,99 638,104 639,109 640,114 641,119 642,124 643,129 643,135 644,140 645,145 646,150 647,155 648,160 649,165 649,170 650,175 651,181 652,186 653,191 654,196 655,201 655,206 656,211 657,216 658,222 659,227 660,232 661,237 661,242 662,247 663,252 664,257 665,262 666,268 667,273 667,278 668,283 669,288 670,293 671,296 672,296 673,296 674,296 674,296 675,296 676,296 677,296 678,296 679,296 680,296 680,296 681,296 682,296 683,296 684,296 685,296 686,296 686,296 687,296 688,296 689,296 690,296 691,296 692,296 692,296 693,296 694,296 695,296 696,296 697,296 698,296 699,296 699,296 700,296 701,296 702,296 703,296 704,296 705,296 705,296 706,296 707,296 708,296 709,296 710,296 711,296 711,296 712,296 713,296 714,296 715,296 716,296 717,296 717,296 718,296 719,296 720,296 721,296 722,296 723,296 724,296 724,296 725,296 726,296 727,296 728,296 729,296 730,296 730,296 731,296 732,296 733,296 734,296 735,296 736,296 736,296 737,296 738,296 739,296 740,296 741,296 742,296 742,296 743,296 744,296 745,296 746,296 747,296 748,296 748,296 749,296 750,296 751,296 752,296 753,296 754,296 755,296" stroke="#e41a1c" fill="none" stroke-width="1.8" opacity="0.9"/>
  <polyline points="45,296 45,296 46,296 47,296 48,296 49,296 50,296 51,296 51,296 52,296 53,296 54,296 55,296 56,296 57,296 57,296 58,296 59,296 60,296 61,296 62,296 63,296 63,296 64,296 65,296 66,296 67,296 68,296 69,296 69,296 70,296 71,296 72,296 73,296 74,296 75,296 76,296 76,296 77,296 78,296 79,296 80,296 81,296 82,296 82,296 83,296 84,296 85,296 86,296 87,296 88,296 88,296 89,296 90,296 91,296 92,296 93,296 94,296 94,296 95,296 96,296 97,296 98,296 99,296 100,296 100,296 101,296 102,296 103,296 104,296 105,296 106,296 107,296 107,296 108,296 109,293 110,287 111,282 112,277 113,272 113,267 114,262 115,257 116,252 117,246 118,241 119,236 119,231 120,226 121,221 122,216 123,211 124,205 125,200 125,195 126,190 127,185 128,180 129,175 130,170 131,164 132,159 132,154 133,149 134,144 135,139 136,134 137,129 138,123 138,118 139,113 140,108 141,103 142,98 143,93 144,88 144,83 145,77 146,72 147,67 148,62 149,57 150,53 150,53 151,53 152,53 153,53 154,53 155,53 156,53 156,53 157,53 158,53 159,53 160,53 161,53 162,53 163,53 163,53 164,53 165,53 166,53 167,53 168,53 169,53 169,53 170,53 171,53 172,53 173,53 174,53 175,53 175,53 176,53 177,53 178,53 179,53 180,53 181,53 181,53 182,53 183,53 184,53 185,53 186,53 187,53 188,53 188,53 189,53 190,53 191,53 192,53 193,53 194,53 194,53 195,53 196,53 197,53 198,53 199,53 200,53 200,53 201,53 202,53 203,53 204,53 205,53 206,53 206,53 207,53 208,53 209,53 210,53 211,53 212,53 213,53 213,56 214,62 215,67 216,72 217,77 218,82 219,87 219,92 220,97 221,103 222,108 223,113 224,118 225,123 225,128 226,133 227,138 228,143 229,149 230,154 231,159 231,164 232,169 233,174 234,179 235,184 236,190 237,195 237,200 238,205 239,210 240,215 241,220 242,225 243,230 244,236 244,241 245,246 246,251 247,256 248,261 249,266 250,271 250,277 251,282 252,287 253,292 254,296 255,296 256,296 256,296 257,296 258,296 259,296 260,296 261,296 262,296 262,296 263,296 264,296 265,296 266,296 267,296 268,296 269,296 269,296 270,296 271,296 272,296 273,296 274,296 275,296 275,296 276,296 277,296 278,296 279,296 280,296 281,296 281,296 282,296 283,296 284,296 285,296 286,296 287,296 287,296 288,296 289,296 290,296 291,296 292,296 293,296 294,296 294,296 295,296 296,296 297,296 298,296 299,296 300,296 300,296 301,296 302,296 303,296 304,296 305,296 306,296 306,296 307,296 308,296 309,296 310,296 311,296 312,296 312,296 313,296 314,296 315,296 316,296 317,296 318,291 318,286 319,281 320,276 321,271 322,266 323,261 324,255 325,250 325,245 326,240 327,235 328,230 329,225 330,220 331,214 331,209 332,204 333,199 334,194 335,189 336,184 337,179 337,173 338,168 339,163 340,158 341,153 342,148 343,143 343,138 344,133 345,127 346,122 347,117 348,112 349,107 350,102 350,97 351,92 352,87 353,81 354,76 355,71 356,66 356,61 357,56 358,53 359,53 360,53 361,53 362,53 362,53 363,53 364,53 365,53 366,53 367,53 368,53 368,53 369,53 370,53 371,53 372,53 373,53 374,53 374,53 375,53 376,53 377,53 378,53 379,53 380,53 381,53 381,53 382,53 383,53 384,53 385,53 386,53 387,53 387,53 388,53 389,53 390,53 391,53 392,53 393,53 393,53 394,53 395,53 396,53 397,53 398,53 399,53 399,53 400,53 401,53 402,53 403,53 404,53 405,53 406,53 406,53 407,53 408,53 409,53 410,53 411,53 412,53 412,53 413,53 414,53 415,53 416,53 417,53 418,53 418,53 419,53 420,53 421,53 422,58 423,63 424,68 424,73 425,78 426,83 427,88 428,94 429,99 430,104 431,109 431,114 432,119 433,124 434,129 435,135 436,140 437,145 437,150 438,155 439,160 440,165 441,170 442,175 443,181 443,186 444,191 445,196 446,201 447,206 448,211 449,216 449,221 450,227 451,232 452,237 453,242 454,247 455,252 455,257 456,262 457,268 458,273 459,278 460,283 461,288 462,293 462,296 463,296 464,296 465,296 466,296 467,296 468,296 468,296 469,296 470,296 471,296 472,296 473,296 474,296 474,296 475,296 476,296 477,296 478,296 479,296 480,296 480,296 481,296 482,296 483,296 484,296 485,296 486,296 487,296 487,296 488,296 489,296 490,296 491,296 492,296 493,296 493,296 494,296 495,296 496,296 497,296 498,296 499,296 499,296 500,296 501,296 502,296 503,296 504,296 505,296 505,296 506,296 507,296 508,296 509,296 510,296 511,296 512,296 512,296 513,296 514,296 515,296 516,296 517,296 518,296 518,296 519,296 520,296 521,296 522,296 523,296 524,296 524,296 525,295 526,290 527,285 528,280 529,275 530,269 530,264 531,259 532,254 533,249 534,244 535,239 536,234 536,229 537,223 538,218 539,213 540,208 541,203 542,198 543,193 543,188 544,183 545,177 546,172 547,167 548,162 549,157 549,152 550,147 551,142 552,136 553,131 554,126 555,121 555,116 556,111 557,106 558,101 559,96 560,90 561,85 561,80 562,75 563,70 564,65 565,60 566,55 567,53 568,53 568,53 569,53 570,53 571,53 572,53 573,53 574,53 574,53 575,53 576,53 577,53 578,53 579,53 580,53 580,53 581,53 582,53 583,53 584,53 585,53 586,53 586,53 587,53 588,53 589,53 590,53 591,53 592,53 592,53 593,53 594,53 595,53 596,53 597,53 598,53 599,53 599,53 600,53 601,53 602,53 603,53 604,53 605,53 605,53 606,53 607,53 608,53 609,53 610,53 611,53 611,53 612,53 613,53 614,53 615,53 616,53 617,53 617,53 618,53 619,53 620,53 621,53 622,53 623,53 624,53 624,53 625,53 626,53 627,53 628,53 629,53 630,55 630,60 631,65 632,71 633,76 634,81 635,86 636,91 636,96 637,101 638,106 639,111 640,117 641,122 642,127 642,132 643,137 644,142 645,147 646,152 647,158 648,163 649,168 649,173 650,178 651,183 652,188 653,193 654,199 655,204 655,209 656,214 657,219 658,224 659,229 660,234 661,239 661,245 662,250 663,255 664,260 665,265 666,270 667,275 667,280 668,286 669,291 670,296 671,296 672,296 673,296 673,296 674,296 675,296 676,296 677,296 678,296 679,296 680,296 680,296 681,296 682,296 683,296 684,296 685,296 686,296 686,296 687,296 688,296 689,296 690,296 691,296 692,296 692,296 693,296 694,296 695,296 696,296 697,296 698,296 698,296 699,296 700,296 701,296 702,296 703,296 704,296 705,296 705,296 706,296 707,296 708,296 709,296 710,296 711,296 711,296 712,296 713,296 714,296 715,296 716,296 717,296 717,296 718,296 719,296 720,296 721,296 722,296 723,296 723,296 724,296 725,296 726,296 727,296 728,296 729,296 729,296 730,296 731,296 732,296 733,296 734,296 735,296 736,296 736,296 737,296 738,296 739,296 740,296 741,296 742,296 742,296 743,296 744,296 745,296 746,296 747,296 748,296 748,296 749,296 750,296 751,296 752,296 753,296 754,296 754,296" stroke="#377eb8" fill="none" stroke-width="1.8"
            stroke-dasharray="5,3" opacity="0.9"/>
  <circle cx="700" cy="32" r="6" fill="#e41a1c"/>
  <text x="710" y="37" font-size="11">EB15</text>
  <circle cx="700" cy="48" r="6" fill="#377eb8"/>
  <text x="710" y="53" font-size="11">URSim</text>
  <line x1="45" y1="305" x2="755" y2="305" stroke="#999" stroke-width="1"/>
  <line x1="45" y1="45" x2="45" y2="305" stroke="#999" stroke-width="1"/>
  <text x="400" y="346" text-anchor="middle" font-size="10" fill="#555">tempo (s)</text>
  <text x="22" y="175" text-anchor="middle" font-size="10" fill="#555"
        transform="rotate(-90 22 175)">J1 (deg)</text>
</svg>